<svg width="22" height="15" viewBox="0 0 22 15" fill="none" xmlns="http://www.w3.org/2000/svg">
<path d="M19.3585 6.21646L19.4244 6.18716L18.4422 14.0648L18.4422 14.0649C18.4325 14.1431 18.3489 14.25 18.1922 14.25H3.65982C3.50358 14.25 3.41963 14.1433 3.40979 14.0645L2.43167 6.21831L2.55013 6.27381L6.29856 8.0301L6.80157 8.26578L7.17365 7.85333L10.5907 4.06559L10.9075 3.71438L11.2045 4.06601L14.3875 7.83487L14.7507 8.26498L15.2651 8.03628L19.3585 6.21646ZM19.8332 5.21011L19.5405 4.96047C19.3305 4.78139 19.2111 4.53568 19.2111 4.27261C19.2111 3.78707 19.634 3.33416 20.2305 3.33416C20.8271 3.33416 21.25 3.78707 21.25 4.27261C21.25 4.75381 20.8346 5.20297 20.2465 5.21096C20.2369 5.21054 20.2238 5.21011 20.2085 5.21011H19.8332ZM2.41542 4.99687L2.10188 5.23442L1.69367 5.20681C1.13492 5.16901 0.75 4.73648 0.75 4.27261C0.75 3.78707 1.17295 3.33416 1.76946 3.33416C2.36598 3.33416 2.78892 3.78707 2.78892 4.27261C2.78892 4.55491 2.65214 4.81751 2.41542 4.99687ZM11.4656 2.90003L10.9094 3.15438L10.3611 2.88843C9.95371 2.69077 9.70169 2.30437 9.70169 1.88408C9.70169 1.29034 10.2162 0.75 10.9262 0.75C11.6361 0.75 12.1506 1.29034 12.1506 1.88408C12.1506 2.31296 11.8879 2.7069 11.4656 2.90003Z" stroke="white" stroke-width="1.5"/>
</svg>
