<svg width="120" height="120" viewBox="0 0 120 120" fill="none" xmlns="http://www.w3.org/2000/svg">
<path d="M36.6298 82.7281C35.5752 81.6728 34.9828 80.2419 34.9828 78.75C34.9828 77.2581 35.5752 75.8273 36.6298 74.772C37.5028 73.9037 38.195 72.8708 38.6662 71.7332C39.1374 70.5956 39.3784 69.3759 39.375 68.1445V67.5H41.25C41.7473 67.5 42.2242 67.3025 42.5758 66.9508C42.9275 66.5992 43.125 66.1223 43.125 65.625V59.3477C54.9052 56.5821 63.75 45.3148 63.75 31.875C63.75 16.3669 51.9743 3.75 37.5 3.75C23.0257 3.75 11.25 16.3669 11.25 31.875C11.25 45.3148 20.0948 56.5812 31.875 59.3477V65.625C31.875 66.1223 32.0725 66.5992 32.4242 66.9508C32.7758 67.3025 33.2527 67.5 33.75 67.5H35.625V68.1445C35.6206 69.6349 35.0288 71.0634 33.978 72.1202C32.2203 73.8788 31.2328 76.2635 31.2328 78.75C31.2328 81.2365 32.2203 83.6212 33.978 85.3798L38.3702 89.772C39.4237 90.8278 40.0153 92.2585 40.0153 93.75C40.0153 95.2415 39.4237 96.6722 38.3702 97.7281L33.978 102.12C33.1073 102.991 32.4166 104.024 31.9453 105.162C31.4741 106.299 31.2315 107.519 31.2315 108.75C31.2315 109.981 31.4741 111.201 31.9453 112.338C32.4166 113.476 33.1073 114.509 33.978 115.38L34.2991 115.701C34.4733 115.875 34.68 116.013 34.9074 116.107C35.1349 116.202 35.3788 116.25 35.625 116.25C35.8712 116.25 36.1151 116.202 36.3426 116.107C36.57 116.013 36.7767 115.875 36.9509 115.701C37.125 115.527 37.2631 115.32 37.3573 115.093C37.4515 114.865 37.5001 114.621 37.5001 114.375C37.5001 114.129 37.4515 113.885 37.3573 113.657C37.2631 113.43 37.125 113.223 36.9509 113.049L36.6298 112.728C36.1073 112.206 35.6928 111.586 35.41 110.903C35.1272 110.22 34.9817 109.489 34.9817 108.75C34.9817 108.011 35.1272 107.28 35.41 106.597C35.6928 105.914 36.1073 105.294 36.6298 104.772L41.022 100.38C42.7776 98.62 43.7636 96.2358 43.7636 93.75C43.7636 91.2642 42.7776 88.88 41.022 87.1202L36.6298 82.7281ZM15 31.875C15 18.4345 25.0934 7.5 37.5 7.5C49.9066 7.5 60 18.4345 60 31.875C60 45.3155 49.9066 56.25 37.5 56.25C25.0934 56.25 15 45.3155 15 31.875ZM37.5 60C38.1305 60 38.7555 59.9747 39.375 59.9276V63.75H35.625V59.9276C36.2445 59.9747 36.8695 60 37.5 60Z" fill="url(#paint0_linear_10649_2727)"/>
<path d="M26.1443 17.8828C25.7582 17.5695 25.2636 17.4224 24.7691 17.4738C24.2746 17.5252 23.8207 17.7708 23.5073 18.1568C20.4258 22.0654 18.75 26.8977 18.75 31.875C18.75 36.8522 20.4258 41.6846 23.5073 45.5932C23.8207 45.9793 24.2746 46.2252 24.7692 46.2766C25.2638 46.3281 25.7586 46.181 26.1447 45.8676C26.5309 45.5543 26.7767 45.1004 26.8282 44.6058C26.8797 44.1111 26.7325 43.6163 26.4192 43.2302C23.8798 39.9898 22.4998 35.9917 22.4998 31.8747C22.4998 27.7578 23.8798 23.7597 26.4192 20.5193C26.7322 20.1331 26.8791 19.6385 26.8275 19.1441C26.776 18.6497 26.5302 18.196 26.1443 17.8828V17.8828Z" fill="url(#paint1_linear_10649_2727)"/>
<path d="M112.5 65.625C112.5 50.1169 100.724 37.5 86.25 37.5C71.7757 37.5 60 50.1169 60 65.625C60 79.0648 68.8448 90.3312 80.625 93.0977V99.375C80.625 99.8723 80.8225 100.349 81.1742 100.701C81.5258 101.052 82.0027 101.25 82.5 101.25H84.375V103.77C84.3706 105.26 83.7788 106.688 82.728 107.745C81.8548 108.614 81.1626 109.647 80.6914 110.785C80.2202 111.923 79.9793 113.143 79.9828 114.375C79.9828 114.872 80.1804 115.349 80.532 115.701C80.8836 116.052 81.3605 116.25 81.8578 116.25C82.3551 116.25 82.832 116.052 83.1836 115.701C83.5353 115.349 83.7328 114.872 83.7328 114.375C83.7306 113.636 83.8751 112.904 84.1578 112.221C84.4405 111.538 84.8558 110.918 85.3798 110.397C86.2528 109.529 86.945 108.496 87.4162 107.358C87.8874 106.221 88.1284 105.001 88.125 103.77V101.25H90C90.4973 101.25 90.9742 101.052 91.3258 100.701C91.6775 100.349 91.875 99.8723 91.875 99.375V93.0977C103.655 90.3312 112.5 79.0648 112.5 65.625ZM63.75 65.625C63.75 52.1845 73.8434 41.25 86.25 41.25C98.6566 41.25 108.75 52.1845 108.75 65.625C108.75 79.0655 98.6566 90 86.25 90C73.8434 90 63.75 79.0655 63.75 65.625ZM88.125 97.5H84.375V93.6776C84.9945 93.7245 85.6195 93.75 86.25 93.75C86.8805 93.75 87.5055 93.7247 88.125 93.6776V97.5Z" fill="url(#paint2_linear_10649_2727)"/>
<path d="M9.375 15C10.4875 15 11.5751 14.6701 12.5001 14.052C13.4251 13.4339 14.1461 12.5554 14.5718 11.5276C14.9976 10.4998 15.109 9.36876 14.8919 8.27762C14.6749 7.18648 14.1391 6.1842 13.3525 5.39753C12.5658 4.61086 11.5635 4.07513 10.4724 3.85809C9.38124 3.64104 8.25024 3.75244 7.22241 4.17818C6.19457 4.60392 5.31607 5.32489 4.69798 6.24992C4.0799 7.17495 3.75 8.26248 3.75 9.375C3.75174 10.8663 4.34493 12.296 5.39944 13.3506C6.45396 14.4051 7.88369 14.9983 9.375 15V15ZM9.375 7.5C9.74584 7.5 10.1084 7.60997 10.4167 7.816C10.725 8.02202 10.9654 8.31486 11.1073 8.65747C11.2492 9.00008 11.2863 9.37708 11.214 9.7408C11.1416 10.1045 10.963 10.4386 10.7008 10.7008C10.4386 10.9631 10.1045 11.1416 9.74079 11.214C9.37708 11.2863 9.00008 11.2492 8.65747 11.1073C8.31486 10.9654 8.02202 10.725 7.81599 10.4167C7.60997 10.1084 7.5 9.74584 7.5 9.375C7.50056 8.87789 7.69828 8.4013 8.04979 8.04979C8.4013 7.69828 8.87789 7.50056 9.375 7.5V7.5Z" fill="url(#paint3_linear_10649_2727)"/>
<path d="M105.227 15.5492L93.977 4.2992C93.8029 4.12505 93.5962 3.9869 93.3687 3.89264C93.1412 3.79839 92.8973 3.74988 92.651 3.74988C92.4048 3.74988 92.1609 3.79839 91.9334 3.89264C91.7059 3.9869 91.4992 4.12505 91.3251 4.2992L86.0219 9.60241C85.8477 9.77652 85.7096 9.98322 85.6154 10.2107C85.5212 10.4382 85.4727 10.682 85.4727 10.9283C85.4727 11.1745 85.5212 11.4183 85.6154 11.6458C85.7096 11.8733 85.8477 12.08 86.0219 12.2541L97.2719 23.5041C97.446 23.6783 97.6527 23.8164 97.8802 23.9107C98.1077 24.0049 98.3516 24.0535 98.5978 24.0535C98.8441 24.0535 99.088 24.0049 99.3155 23.9107C99.543 23.8164 99.7497 23.6783 99.9238 23.5041L105.227 18.2009C105.401 18.0268 105.539 17.8201 105.633 17.5926C105.728 17.3651 105.776 17.1213 105.776 16.8751C105.776 16.6288 105.728 16.385 105.633 16.1575C105.539 15.93 105.401 15.7233 105.227 15.5492ZM98.598 19.5266L89.9994 10.9283L92.6509 8.27655L101.249 16.8751L98.598 19.5266Z" fill="url(#paint4_linear_10649_2727)"/>
<path d="M110.625 37.5C111.738 37.5 112.825 37.1701 113.75 36.552C114.675 35.9339 115.396 35.0554 115.822 34.0276C116.248 32.9998 116.359 31.8688 116.142 30.7776C115.925 29.6865 115.389 28.6842 114.602 27.8975C113.816 27.1109 112.814 26.5751 111.722 26.3581C110.631 26.141 109.5 26.2524 108.472 26.6782C107.445 27.1039 106.566 27.8249 105.948 28.7499C105.33 29.6749 105 30.7625 105 31.875C105.002 33.3663 105.595 34.796 106.649 35.8506C107.704 36.9051 109.134 37.4983 110.625 37.5V37.5ZM110.625 30C110.996 30 111.358 30.11 111.667 30.316C111.975 30.522 112.215 30.8149 112.357 31.1575C112.499 31.5001 112.536 31.8771 112.464 32.2408C112.392 32.6045 112.213 32.9386 111.951 33.2008C111.689 33.4631 111.355 33.6416 110.991 33.714C110.627 33.7863 110.25 33.7492 109.907 33.6073C109.565 33.4654 109.272 33.225 109.066 32.9167C108.86 32.6084 108.75 32.2458 108.75 31.875C108.751 31.3779 108.948 30.9013 109.3 30.5498C109.651 30.1983 110.128 30.0006 110.625 30V30Z" fill="url(#paint5_linear_10649_2727)"/>
<path d="M78.2001 20.3975L72.8969 25.7007C72.5452 26.0524 72.3477 26.5294 72.3477 27.0267C72.3477 27.524 72.5452 28.001 72.8969 28.3527C73.2486 28.7043 73.7255 28.9019 74.2229 28.9019C74.7202 28.9019 75.1972 28.7043 75.5488 28.3527L80.852 23.0495C81.0262 22.8753 81.1643 22.6686 81.2585 22.4411C81.3528 22.2136 81.4013 21.9697 81.4013 21.7235C81.4013 21.4772 81.3528 21.2334 81.2585 21.0059C81.1643 20.7784 81.0262 20.5716 80.852 20.3975C80.6779 20.2234 80.4712 20.0852 80.2437 19.991C80.0162 19.8968 79.7723 19.8483 79.5261 19.8483C79.2798 19.8483 79.036 19.8968 78.8085 19.991C78.5809 20.0852 78.3742 20.2234 78.2001 20.3975V20.3975Z" fill="url(#paint6_linear_10649_2727)"/>
<path d="M8.59999 57.0267C8.7741 57.2008 8.9808 57.3389 9.2083 57.4332C9.43579 57.5274 9.67961 57.5759 9.92585 57.5759C10.1721 57.5759 10.4159 57.5274 10.6434 57.4332C10.8709 57.3389 11.0776 57.2008 11.2517 57.0267L13.9034 54.375C14.0775 54.2009 14.2157 53.9942 14.3099 53.7667C14.4041 53.5392 14.4526 53.2954 14.4526 53.0491C14.4526 52.8029 14.4041 52.5591 14.3099 52.3316C14.2157 52.1041 14.0775 51.8974 13.9034 51.7233C13.7293 51.5491 13.5226 51.411 13.2951 51.3168C13.0676 51.2226 12.8238 51.1741 12.5776 51.1741C12.3313 51.1741 12.0875 51.2226 11.86 51.3168C11.6325 51.411 11.4258 51.5491 11.2517 51.7233L8.59999 54.375C8.42587 54.5491 8.28775 54.7558 8.19352 54.9833C8.09928 55.2108 8.05078 55.4546 8.05078 55.7008C8.05078 55.9471 8.09928 56.1909 8.19352 56.4184C8.28775 56.6459 8.42587 56.8526 8.59999 57.0267V57.0267Z" fill="url(#paint7_linear_10649_2727)"/>
<path d="M16.8751 88.125C17.1213 88.1254 17.3653 88.077 17.5928 87.9828C17.8203 87.8886 18.027 87.7503 18.2009 87.5759L23.5041 82.2727C23.6782 82.0986 23.8164 81.8919 23.9106 81.6644C24.0048 81.4369 24.0533 81.1931 24.0533 80.9468C24.0533 80.7006 24.0048 80.4568 23.9106 80.2293C23.8164 80.0018 23.6782 79.7951 23.5041 79.621L12.2541 68.371C12.08 68.1969 11.8733 68.0587 11.6458 67.9645C11.4183 67.8703 11.1745 67.8218 10.9283 67.8218C10.682 67.8218 10.4382 67.8703 10.2107 67.9645C9.98323 68.0587 9.77652 68.1969 9.60241 68.371L4.29921 73.6742C4.12509 73.8483 3.98697 74.055 3.89274 74.2825C3.7985 74.51 3.75 74.7538 3.75 75C3.75 75.2463 3.7985 75.4901 3.89274 75.7176C3.98697 75.9451 4.12509 76.1518 4.29921 76.3259L15.5492 87.5759C15.7231 87.7503 15.9298 87.8886 16.1573 87.9828C16.3849 88.077 16.6288 88.1254 16.8751 88.125ZM10.9283 72.3486L19.5266 80.9468L16.8751 83.5986L8.27655 75L10.9283 72.3486Z" fill="url(#paint8_linear_10649_2727)"/>
<path d="M18.75 101.25C17.6375 101.25 16.5499 101.58 15.6249 102.198C14.6999 102.816 13.9789 103.695 13.5532 104.722C13.1274 105.75 13.016 106.881 13.2331 107.972C13.4501 109.064 13.9859 110.066 14.7725 110.852C15.5592 111.639 16.5615 112.175 17.6526 112.392C18.7438 112.609 19.8748 112.498 20.9026 112.072C21.9304 111.646 22.8089 110.925 23.427 110C24.0451 109.075 24.375 107.988 24.375 106.875C24.3733 105.384 23.7801 103.954 22.7256 102.899C21.671 101.845 20.2413 101.252 18.75 101.25ZM18.75 108.75C18.3792 108.75 18.0166 108.64 17.7083 108.434C17.4 108.228 17.1596 107.935 17.0177 107.593C16.8758 107.25 16.8387 106.873 16.911 106.509C16.9834 106.145 17.162 105.811 17.4242 105.549C17.6864 105.287 18.0205 105.108 18.3842 105.036C18.7479 104.964 19.1249 105.001 19.4675 105.143C19.8101 105.285 20.103 105.525 20.309 105.833C20.515 106.142 20.625 106.504 20.625 106.875C20.6244 107.372 20.4267 107.849 20.0752 108.2C19.7237 108.552 19.2471 108.749 18.75 108.75V108.75Z" fill="url(#paint9_linear_10649_2727)"/>
<path d="M54.602 80.8525C54.7762 80.6784 54.9143 80.4717 55.0086 80.2442C55.1029 80.0167 55.1514 79.7728 55.1514 79.5266C55.1514 79.2803 55.1029 79.0364 55.0086 78.8089C54.9143 78.5814 54.7762 78.3747 54.602 78.2006L49.2988 72.8974C48.9472 72.5457 48.4702 72.3481 47.9729 72.3481C47.4755 72.3481 46.9986 72.5457 46.6469 72.8974C46.2952 73.2491 46.0977 73.726 46.0977 74.2234C46.0977 74.7207 46.2952 75.1977 46.6469 75.5493L51.9501 80.8525C52.1242 81.0267 52.3309 81.1648 52.5584 81.2591C52.786 81.3534 53.0298 81.4019 53.2761 81.4019C53.5223 81.4019 53.7662 81.3534 53.9937 81.2591C54.2212 81.1648 54.4279 81.0267 54.602 80.8525V80.8525Z" fill="url(#paint10_linear_10649_2727)"/>
<path d="M61.3243 98.6928C61.1502 98.5186 60.9435 98.3805 60.716 98.2863C60.4885 98.1921 60.2447 98.1436 59.9985 98.1436C59.7522 98.1436 59.5084 98.1921 59.2809 98.2863C59.0534 98.3805 58.8467 98.5186 58.6726 98.6928L53.3694 103.996C53.0178 104.348 52.8203 104.825 52.8203 105.322C52.8203 105.819 53.0178 106.296 53.3694 106.648L58.6726 111.951C58.8467 112.125 59.0534 112.263 59.2809 112.357C59.5084 112.452 59.7522 112.5 59.9985 112.5C60.2447 112.5 60.4885 112.452 60.716 112.357C60.9435 112.263 61.1502 112.125 61.3243 111.951L66.6275 106.648C66.9791 106.296 67.1766 105.819 67.1766 105.322C67.1766 104.825 66.9791 104.348 66.6275 103.996L61.3243 98.6928ZM59.9985 107.974L57.347 105.322L59.9985 102.67L62.6499 105.322L59.9985 107.974Z" fill="url(#paint11_linear_10649_2727)"/>
<path d="M110.396 92.746C110.222 92.5719 110.015 92.4337 109.788 92.3395C109.56 92.2453 109.317 92.1968 109.07 92.1968C108.824 92.1968 108.58 92.2453 108.353 92.3395C108.125 92.4337 107.919 92.5719 107.745 92.746L96.4945 103.996C96.3204 104.17 96.1823 104.377 96.088 104.604C95.9938 104.832 95.9453 105.076 95.9453 105.322C95.9453 105.568 95.9938 105.812 96.088 106.039C96.1823 106.267 96.3204 106.474 96.4945 106.648L101.798 111.951C101.972 112.125 102.179 112.263 102.406 112.357C102.634 112.452 102.877 112.5 103.124 112.5C103.37 112.5 103.614 112.452 103.841 112.357C104.069 112.263 104.275 112.125 104.449 111.951L115.699 100.701C115.874 100.527 116.012 100.32 116.106 100.093C116.2 99.8651 116.249 99.6213 116.249 99.375C116.249 99.1288 116.2 98.885 116.106 98.6575C116.012 98.43 115.874 98.2233 115.699 98.0492L110.396 92.746ZM103.124 107.974L100.472 105.322L109.07 96.7236L111.722 99.375L103.124 107.974Z" fill="url(#paint12_linear_10649_2727)"/>
<path d="M64.85 4.84828C64.6759 5.02239 64.5378 5.22909 64.4435 5.45659C64.3493 5.68408 64.3008 5.9279 64.3008 6.17414C64.3008 6.42038 64.3493 6.6642 64.4435 6.89169C64.5378 7.11919 64.6759 7.32589 64.85 7.5L67.5017 10.1517C67.6758 10.3258 67.8825 10.4639 68.11 10.5582C68.3375 10.6524 68.5813 10.7009 68.8276 10.7009C69.0738 10.7009 69.3176 10.6524 69.5451 10.5582C69.7726 10.4639 69.9793 10.3258 70.1534 10.1517C70.3275 9.9776 70.4657 9.7709 70.5599 9.54341C70.6541 9.31592 70.7026 9.07209 70.7026 8.82586C70.7026 8.57962 70.6541 8.3358 70.5599 8.10831C70.4657 7.88082 70.3275 7.67411 70.1534 7.5L67.5017 4.84828C67.3276 4.67416 67.1209 4.53604 66.8934 4.44181C66.6659 4.34757 66.4221 4.29907 66.1758 4.29907C65.9296 4.29907 65.6858 4.34757 65.4583 4.44181C65.2308 4.53604 65.0241 4.67416 64.85 4.84828V4.84828Z" fill="url(#paint13_linear_10649_2727)"/>
<path d="M74.8947 52.2206C74.7035 52.0654 74.4837 51.9495 74.2476 51.8793C74.0116 51.8091 73.7641 51.7861 73.5192 51.8116C73.2743 51.8371 73.0368 51.9105 72.8203 52.0278C72.6038 52.1451 72.4125 52.3038 72.2573 52.495C69.1758 56.4037 67.5 61.236 67.5 66.2132C67.5 71.1905 69.1758 76.0228 72.2573 79.9314C72.4125 80.1226 72.6038 80.2814 72.8203 80.3987C73.0368 80.5159 73.2743 80.5894 73.5192 80.6149C73.7641 80.6404 74.0116 80.6174 74.2476 80.5472C74.4837 80.477 74.7035 80.3611 74.8947 80.2059C75.0859 80.0507 75.2447 79.8594 75.362 79.6429C75.4792 79.4264 75.5527 79.1889 75.5782 78.944C75.6037 78.6991 75.5807 78.4516 75.5105 78.2156C75.4403 77.9796 75.3243 77.7597 75.1692 77.5685C72.6298 74.3281 71.2498 70.3299 71.2498 66.213C71.2498 62.0961 72.6298 58.098 75.1692 54.8575C75.4824 54.4714 75.6294 53.9767 75.578 53.4822C75.5265 52.9877 75.2807 52.5339 74.8947 52.2206Z" fill="url(#paint14_linear_10649_2727)"/>
<defs>
<linearGradient id="paint0_linear_10649_2727" x1="11.25" y1="3.75" x2="65.831" y2="4.76884" gradientUnits="userSpaceOnUse">
<stop stop-color="#FE3477"/>
<stop offset="1" stop-color="#F0014F"/>
</linearGradient>
<linearGradient id="paint1_linear_10649_2727" x1="18.75" y1="17.4637" x2="27.1607" y2="17.5582" gradientUnits="userSpaceOnUse">
<stop stop-color="#FE3477"/>
<stop offset="1" stop-color="#F0014F"/>
</linearGradient>
<linearGradient id="paint2_linear_10649_2727" x1="60" y1="37.5" x2="114.561" y2="38.955" gradientUnits="userSpaceOnUse">
<stop stop-color="#FE3477"/>
<stop offset="1" stop-color="#F0014F"/>
</linearGradient>
<linearGradient id="paint3_linear_10649_2727" x1="3.75" y1="3.75" x2="15.4313" y2="4.21725" gradientUnits="userSpaceOnUse">
<stop stop-color="#FE3477"/>
<stop offset="1" stop-color="#F0014F"/>
</linearGradient>
<linearGradient id="paint4_linear_10649_2727" x1="85.4727" y1="3.74988" x2="106.555" y2="4.59316" gradientUnits="userSpaceOnUse">
<stop stop-color="#FE3477"/>
<stop offset="1" stop-color="#F0014F"/>
</linearGradient>
<linearGradient id="paint5_linear_10649_2727" x1="105" y1="26.25" x2="116.681" y2="26.7173" gradientUnits="userSpaceOnUse">
<stop stop-color="#FE3477"/>
<stop offset="1" stop-color="#F0014F"/>
</linearGradient>
<linearGradient id="paint6_linear_10649_2727" x1="72.3477" y1="19.8483" x2="81.7484" y2="20.2243" gradientUnits="userSpaceOnUse">
<stop stop-color="#FE3477"/>
<stop offset="1" stop-color="#F0014F"/>
</linearGradient>
<linearGradient id="paint7_linear_10649_2727" x1="8.05078" y1="51.1741" x2="14.6981" y2="51.44" gradientUnits="userSpaceOnUse">
<stop stop-color="#FE3477"/>
<stop offset="1" stop-color="#F0014F"/>
</linearGradient>
<linearGradient id="paint8_linear_10649_2727" x1="3.75" y1="67.8218" x2="24.8317" y2="68.665" gradientUnits="userSpaceOnUse">
<stop stop-color="#FE3477"/>
<stop offset="1" stop-color="#F0014F"/>
</linearGradient>
<linearGradient id="paint9_linear_10649_2727" x1="13.125" y1="101.25" x2="24.8063" y2="101.717" gradientUnits="userSpaceOnUse">
<stop stop-color="#FE3477"/>
<stop offset="1" stop-color="#F0014F"/>
</linearGradient>
<linearGradient id="paint10_linear_10649_2727" x1="46.0977" y1="72.3481" x2="55.4985" y2="72.7242" gradientUnits="userSpaceOnUse">
<stop stop-color="#FE3477"/>
<stop offset="1" stop-color="#F0014F"/>
</linearGradient>
<linearGradient id="paint11_linear_10649_2727" x1="52.8203" y1="98.1436" x2="67.727" y2="98.7398" gradientUnits="userSpaceOnUse">
<stop stop-color="#FE3477"/>
<stop offset="1" stop-color="#F0014F"/>
</linearGradient>
<linearGradient id="paint12_linear_10649_2727" x1="95.9453" y1="92.1968" x2="117.027" y2="93.04" gradientUnits="userSpaceOnUse">
<stop stop-color="#FE3477"/>
<stop offset="1" stop-color="#F0014F"/>
</linearGradient>
<linearGradient id="paint13_linear_10649_2727" x1="64.3008" y1="4.29907" x2="70.9481" y2="4.56496" gradientUnits="userSpaceOnUse">
<stop stop-color="#FE3477"/>
<stop offset="1" stop-color="#F0014F"/>
</linearGradient>
<linearGradient id="paint14_linear_10649_2727" x1="67.5" y1="51.8015" x2="75.9107" y2="51.8959" gradientUnits="userSpaceOnUse">
<stop stop-color="#FE3477"/>
<stop offset="1" stop-color="#F0014F"/>
</linearGradient>
</defs>
</svg>
