<svg width="100" height="99" viewBox="0 0 100 99" fill="none" xmlns="http://www.w3.org/2000/svg">
<g opacity="0.56">
<mask id="mask0_10004_1343" style="mask-type:alpha" maskUnits="userSpaceOnUse" x="26" y="0" width="45" height="45">
<rect x="48.0352" width="31.1641" height="31.1641" transform="rotate(45 48.0352 0)" fill="black"/>
</mask>
<g mask="url(#mask0_10004_1343)">
<ellipse cx="48.0353" cy="22.031" rx="20.3283" ry="20.3185" stroke="#E9024D"/>
<ellipse cx="48.0347" cy="22.0307" rx="16.1909" ry="16.1833" stroke="#E9024D"/>
<ellipse cx="48.0343" cy="22.031" rx="12.0538" ry="12.0482" stroke="#E9024D"/>
<ellipse cx="48.0336" cy="22.031" rx="3.77968" ry="3.7779" stroke="#E9024D"/>
</g>
</g>
<g opacity="0.56">
<mask id="mask1_10004_1343" style="mask-type:alpha" maskUnits="userSpaceOnUse" x="55" y="28" width="45" height="45">
<rect x="77.0352" y="28" width="31.1641" height="31.1641" transform="rotate(45 77.0352 28)" fill="black"/>
</mask>
<g mask="url(#mask1_10004_1343)">
<ellipse cx="77.0353" cy="50.031" rx="20.3283" ry="20.3185" stroke="#E9024D"/>
<ellipse cx="77.0347" cy="50.0307" rx="16.1909" ry="16.1833" stroke="#E9024D"/>
<ellipse cx="77.0343" cy="50.031" rx="12.0538" ry="12.0482" stroke="#E9024D"/>
<ellipse cx="77.0336" cy="50.031" rx="3.77968" ry="3.7779" stroke="#E9024D"/>
</g>
</g>
<g opacity="0.56">
<mask id="mask2_10004_1343" style="mask-type:alpha" maskUnits="userSpaceOnUse" x="27" y="54" width="45" height="45">
<rect x="49.0352" y="54" width="31.1641" height="31.1641" transform="rotate(45 49.0352 54)" fill="black"/>
</mask>
<g mask="url(#mask2_10004_1343)">
<ellipse cx="49.0353" cy="76.031" rx="20.3283" ry="20.3185" stroke="#E9024D"/>
<ellipse cx="49.0347" cy="76.0307" rx="16.1909" ry="16.1833" stroke="#E9024D"/>
<ellipse cx="49.0343" cy="76.031" rx="12.0538" ry="12.0482" stroke="#E9024D"/>
<ellipse cx="49.0336" cy="76.031" rx="3.77968" ry="3.7779" stroke="#E9024D"/>
</g>
</g>
<g opacity="0.56">
<mask id="mask3_10004_1343" style="mask-type:alpha" maskUnits="userSpaceOnUse" x="0" y="28" width="45" height="45">
<rect x="22.0352" y="28" width="31.1641" height="31.1641" transform="rotate(45 22.0352 28)" fill="black"/>
</mask>
<g mask="url(#mask3_10004_1343)">
<ellipse cx="22.0353" cy="50.031" rx="20.3283" ry="20.3185" stroke="#E9024D"/>
<ellipse cx="22.0347" cy="50.0307" rx="16.1909" ry="16.1833" stroke="#E9024D"/>
<ellipse cx="22.0343" cy="50.031" rx="12.0538" ry="12.0482" stroke="#E9024D"/>
<ellipse cx="22.0336" cy="50.031" rx="3.77968" ry="3.7779" stroke="#E9024D"/>
</g>
</g>
</svg>
