<svg width="200" height="200" viewBox="0 0 200 200" fill="none" xmlns="http://www.w3.org/2000/svg">
<path d="M100 200C155.228 200 200 155.228 200 100C200 44.7715 155.228 0 100 0C44.7715 0 0 44.7715 0 100C0 155.228 44.7715 200 100 200Z" fill="#8F48EE"/>
<path d="M134.184 77.118C131.766 75.7321 128.657 75.7321 125.893 77.118L106.547 88.5524L93.4197 95.8288L74.4192 107.263C72.001 108.649 68.8918 108.649 66.1281 107.263L51.2732 98.2542C48.8549 96.8682 47.1276 94.0963 47.1276 90.9778V73.6531C47.1276 70.8811 48.5095 68.1092 51.2732 66.3767L66.1281 57.7143C68.5463 56.3283 71.6555 56.3283 74.4192 57.7143L89.2742 66.7232C91.6924 68.1092 93.4197 70.8811 93.4197 73.9996V85.4339L106.547 77.811V66.0302C106.547 63.2582 105.165 60.4863 102.402 58.7538L74.7647 42.4686C72.3464 41.0826 69.2373 41.0826 66.4736 42.4686L38.1456 59.1003C35.3819 60.4863 34 63.2582 34 66.0302V98.6007C34 101.373 35.3819 104.145 38.1456 105.877L66.1281 122.162C68.5463 123.548 71.6555 123.548 74.4192 122.162L93.4197 111.075L106.547 103.452L125.548 92.3638C127.966 90.9778 131.075 90.9778 133.839 92.3638L148.694 101.026C151.112 102.412 152.839 105.184 152.839 108.303V125.627C152.839 128.399 151.458 131.171 148.694 132.904L134.184 141.566C131.766 142.952 128.657 142.952 125.893 141.566L111.038 132.904C108.62 131.518 106.893 128.746 106.893 125.627V114.539L93.7652 122.162V133.597C93.7652 136.369 95.147 139.141 97.9107 140.873L125.893 157.158C128.312 158.544 131.421 158.544 134.184 157.158L162.167 140.873C164.585 139.487 166.312 136.715 166.312 133.597V100.68C166.312 97.9077 164.931 95.1358 162.167 93.4033L134.184 77.118Z" fill="white"/>
</svg>
