<svg width="18" height="12" viewBox="0 0 18 12" fill="none" xmlns="http://www.w3.org/2000/svg">
<path d="M15.5455 1.5C15.5455 1.5 13.6698 0.1545 11.4545 0L11.2549 0.366C13.2578 0.81525 14.1766 1.45913 15.1364 2.25C13.4816 1.47562 11.8477 0.75 9 0.75C6.15232 0.75 4.51841 1.47562 2.86364 2.25C3.82336 1.45913 4.91645 0.744375 6.74509 0.366L6.54545 0C4.22141 0.201375 2.45455 1.5 2.45455 1.5C2.45455 1.5 0.359591 4.28438 0 9.75C2.11173 11.9824 5.31818 12 5.31818 12L5.98868 11.1806C4.85059 10.818 3.56523 10.1704 2.45455 9C3.77918 9.91875 5.77841 10.875 9 10.875C12.2216 10.875 14.2208 9.91875 15.5455 9C14.4348 10.1704 13.1494 10.818 12.0113 11.1806L12.6818 12C12.6818 12 15.8883 11.9824 18 9.75C17.6404 4.28438 15.5455 1.5 15.5455 1.5ZM6.34091 8.25C5.55014 8.25 4.90909 7.57838 4.90909 6.75C4.90909 5.92162 5.55014 5.25 6.34091 5.25C7.13168 5.25 7.77273 5.92162 7.77273 6.75C7.77273 7.57838 7.13168 8.25 6.34091 8.25ZM11.6591 8.25C10.8683 8.25 10.2273 7.57838 10.2273 6.75C10.2273 5.92162 10.8683 5.25 11.6591 5.25C12.4499 5.25 13.0909 5.92162 13.0909 6.75C13.0909 7.57838 12.4499 8.25 11.6591 8.25Z" fill="#F5F5FD"/>
</svg>
