<svg width="20" height="14" viewBox="0 0 20 14" fill="none" xmlns="http://www.w3.org/2000/svg">
<path d="M17.2727 1.75C17.2727 1.75 15.1886 0.18025 12.7273 0L12.5055 0.427C14.7309 0.951125 15.7518 1.70231 16.8182 2.625C14.9795 1.72156 13.1641 0.875 10 0.875C6.83591 0.875 5.02045 1.72156 3.18182 2.625C4.24818 1.70231 5.46273 0.868437 7.49455 0.427L7.27273 0C4.69045 0.234938 2.72727 1.75 2.72727 1.75C2.72727 1.75 0.399545 4.99844 0 11.375C2.34636 13.9794 5.90909 14 5.90909 14L6.65409 13.0441C5.38955 12.621 3.96136 11.8654 2.72727 10.5C4.19909 11.5719 6.42045 12.6875 10 12.6875C13.5795 12.6875 15.8009 11.5719 17.2727 10.5C16.0386 11.8654 14.6105 12.621 13.3459 13.0441L14.0909 14C14.0909 14 17.6536 13.9794 20 11.375C19.6005 4.99844 17.2727 1.75 17.2727 1.75ZM7.04545 9.625C6.16682 9.625 5.45455 8.84144 5.45455 7.875C5.45455 6.90856 6.16682 6.125 7.04545 6.125C7.92409 6.125 8.63636 6.90856 8.63636 7.875C8.63636 8.84144 7.92409 9.625 7.04545 9.625ZM12.9545 9.625C12.0759 9.625 11.3636 8.84144 11.3636 7.875C11.3636 6.90856 12.0759 6.125 12.9545 6.125C13.8332 6.125 14.5455 6.90856 14.5455 7.875C14.5455 8.84144 13.8332 9.625 12.9545 9.625Z" fill="#F5F5FD"/>
</svg>
