<svg width="310" height="300" viewBox="0 0 310 300" fill="none" xmlns="http://www.w3.org/2000/svg">
<path d="M16.2401 146.039L16.2229 143.032" stroke="#E9024D"/>
<path d="M16.2285 176.86L12.717 178.964" stroke="#E9024D"/>
<ellipse cx="12.717" cy="172.005" rx="3.16278" ry="2.0974" fill="url(#paint0_linear_9062_7964)"/>
<ellipse cx="12.717" cy="171.932" rx="2.19449" ry="1.45504" fill="url(#paint1_linear_9062_7964)"/>
<path d="M300.88 166.825V179.086C300.88 180.342 300.205 181.505 299.113 182.133L268.73 199.51C268.18 199.826 267.579 199.975 266.99 199.975C265.773 199.975 264.587 199.342 263.939 198.207C262.976 196.525 263.561 194.379 265.243 193.415L293.857 177.045V168.846L236.702 136.076L212.41 149.753L212.188 141.812L235.005 128.97C236.09 128.357 237.416 128.365 238.493 128.994L299.132 163.789C300.213 164.417 300.88 165.572 300.88 166.825V166.825Z" fill="url(#paint2_linear_9062_7964)"/>
<path d="M219.584 215.038L250.222 232.496L278.568 216.28L248.005 198.82L219.584 215.038Z" fill="url(#paint3_linear_9062_7964)"/>
<path d="M240.346 216.86C240.253 216.921 240.159 216.982 240.06 217.038C238.429 217.981 236.334 217.704 234.416 216.508L237.168 214.656C237.58 214.417 237.881 214.042 238.063 213.578C238.448 212.589 238.298 211.201 237.562 209.935C236.835 208.669 235.71 207.844 234.66 207.684C234.168 207.609 233.69 207.68 233.277 207.919L230.235 209.963C230.066 210.062 229.916 210.183 229.789 210.324C228.753 207.033 229.438 203.826 231.683 202.532C234.468 200.924 238.598 202.865 240.914 206.873C243.145 210.741 242.868 215.111 240.346 216.86H240.346Z" fill="#282526" stroke="#E9024D"/>
<path d="M249.755 210.98L249.764 210.99L249.717 211.018C249.506 211.21 249.281 211.384 249.028 211.529C248.85 211.632 248.662 211.721 248.47 211.796L240.346 216.86C242.868 215.111 243.145 210.741 240.913 206.873C238.598 202.865 234.468 200.923 231.683 202.532L240.655 197.018C243.44 195.41 247.57 197.355 249.886 201.359C251.977 204.984 251.855 209.044 249.755 210.98H249.755Z" fill="#282526" stroke="#E9024D"/>
<path d="M238.063 213.578C237.881 214.042 237.58 214.417 237.168 214.656L234.416 216.508C234.412 216.508 234.407 216.499 234.407 216.499C235.434 215.622 235.508 213.695 234.519 211.984C233.446 210.123 231.524 209.218 230.235 209.963L233.277 207.919C233.69 207.68 234.168 207.609 234.66 207.684C235.71 207.844 236.835 208.669 237.562 209.935C238.298 211.201 238.448 212.589 238.063 213.578H238.063Z" stroke="#E9024D"/>
<path d="M234.416 216.508L234.308 216.579C234.341 216.555 234.374 216.532 234.407 216.499C234.407 216.499 234.412 216.508 234.416 216.508Z" stroke="#00C8FF"/>
<path d="M234.407 216.499C234.374 216.532 234.341 216.555 234.308 216.579C234.247 216.626 234.186 216.668 234.121 216.705C232.832 217.451 230.91 216.546 229.836 214.685C228.903 213.067 228.917 211.262 229.789 210.324C229.916 210.183 230.066 210.062 230.234 209.963C231.524 209.218 233.446 210.123 234.519 211.984C235.508 213.695 235.433 215.622 234.407 216.499L234.407 216.499Z" fill="#282526" stroke="#E9024D"/>
<path d="M278.568 239.801V216.28L250.222 232.497V256.018L278.568 239.801Z" fill="url(#paint4_linear_9062_7964)"/>
<path d="M219.584 215.039V238.56L250.222 256.018V232.497L219.584 215.039Z" fill="url(#paint5_linear_9062_7964)"/>
<path d="M184.893 171.633L184.943 178.178L179.154 181.951L174.046 179.154V177.998L172.02 179.214L150.23 192.13V162.976L246.373 107.971L246.403 107.956L246.609 115.357L246.894 125.54L247.149 134.728L184.893 171.633Z" fill="url(#paint6_linear_9062_7964)"/>
<path d="M150.232 162.993V191.626L64.238 142.85V115.071L150.218 162.979L150.232 162.993Z" fill="url(#paint7_linear_9062_7964)"/>
<path d="M246.374 107.971L150.23 162.976L150.216 162.981L64.239 115.07V114.965C103.557 93.126 123.043 58.7107 129.167 36.122C132.369 24.3076 132.474 16.1158 132.474 16.1158L156.53 29.7521L181.671 15.5302L181.736 15.5653C181.977 23.3667 185.449 34.4758 190.397 45.735C192.968 51.6047 195.946 57.5095 199.068 63.0139C228.957 113.365 245.563 108.256 246.374 107.971V107.971Z" fill="url(#paint8_linear_9062_7964)"/>
<path d="M246.374 107.971L150.231 162.976L150.216 162.981" stroke="#E9024D"/>
<path d="M151.163 186.726V186.738L151.151 186.73L151.163 186.726Z" fill="white" stroke="black" stroke-linecap="round" stroke-linejoin="round"/>
<path d="M190.395 45.7347C187.092 46.377 185.392 39.6254 184.201 36.8864C184.078 38.8021 182.863 40.5978 182.863 40.5978C180.521 39.4721 179.944 33.7384 179.944 33.7384C179.944 33.7384 178.422 52.0029 176.66 56.594C173.618 56.2001 169.787 50.6343 168.022 39.1983C168.418 48.5962 163.735 57.0211 163.735 57.0211C154.43 53.3096 154.948 38.12 154.948 38.12C154.948 38.12 150.66 56.4425 144.304 60.5483C140.808 51.2729 141.72 42.087 142.419 33.4046C140.23 41.6636 135.061 45.0375 135.061 45.0375C134.209 42.8789 134.209 40.2017 134.362 29.7494C132.516 33.6015 130.649 35.3551 129.166 36.1217C132.368 24.3059 132.476 16.1145 132.476 16.1145L157.654 1.51605L181.673 15.5307L181.737 15.5669C181.977 23.3644 185.45 34.4755 190.395 45.7347Z" fill="url(#paint9_linear_9062_7964)"/>
<path d="M181.673 15.4284L156.528 29.6472L132.475 16.0124L157.653 1.41394L181.673 15.4284Z" fill="url(#paint10_linear_9062_7964)"/>
<path d="M174.731 15.0909L172.142 16.5981L168.898 18.4849L157.455 25.1473L145.845 18.5233L142.563 16.6511L139.943 15.1565L157.431 5.16028L174.731 15.0909Z" fill="url(#paint11_linear_9062_7964)"/>
<path d="M172.142 16.5983L168.898 18.4852L157.455 25.1475L145.845 18.5235L142.563 16.6513L157.431 8.15497L172.142 16.5983Z" fill="url(#paint12_linear_9062_7964)"/>
<path d="M157.431 5.16028V8.15475L172.142 16.5981L174.731 15.0909L157.431 5.16028Z" fill="url(#paint13_linear_9062_7964)"/>
<path d="M93.125 55.2355L99.1473 58.6641L107.254 53.9915L101.232 50.5629L93.125 55.2355Z" fill="url(#paint14_linear_9062_7964)"/>
<path d="M107.255 53.991V58.1577L101.037 65.6171L99.0881 61.9061V58.6637L107.255 53.991Z" fill="url(#paint15_linear_9062_7964)"/>
<path d="M93.125 55.2355L99.0878 58.6641V61.9066L93.125 58.6641V55.2355Z" fill="#E9024D"/>
<path d="M93.125 58.6642L96.1064 62.5533L101.037 65.6177L99.0878 61.9067L93.125 58.6642Z" fill="url(#paint16_linear_9062_7964)"/>
<path d="M82.1204 59.6695L86.933 62.3345C88.0763 62.9679 89.4692 62.952 90.5979 62.2933L97.0265 58.5419C97.6997 58.149 98.1135 57.4283 98.1135 56.6491C98.1135 55.9275 98.4683 55.2524 99.0628 54.8435L107.682 49.8488C108.058 49.59 108.249 49.0895 108.57 49.3776C108.57 49.83 109.075 50.1 109.451 49.8488L111.981 48.1623C113.433 47.1941 114.304 45.5648 114.304 43.8197V38.6351C114.304 36.9045 113.338 35.3193 111.8 34.5269L108.853 33.0082C107.608 32.3669 106.139 32.3246 104.86 32.8934L102.259 31.6495C100.65 30.8797 98.7652 30.9556 97.2229 31.8516L91.7689 35.0206C89.3627 36.4188 87.8818 38.9919 87.8818 41.775V43.2393L85.3946 44.8863C83.5222 46.126 82.4459 48.2645 82.5654 50.5075L82.5972 51.1109L81.8354 51.8817C80.7028 53.0276 80.0676 54.5744 80.0676 56.1859C80.0676 57.6342 80.8539 58.9681 82.1204 59.6695Z" fill="white"/>
<path d="M88.5239 43.0723L93.6846 45.9623L88.5239 43.0723Z" fill="white"/>
<path d="M88.5239 43.0723L93.6846 45.9623" stroke="black" stroke-linecap="round" stroke-linejoin="round"/>
<path d="M107.052 40.3827V36.9033C107.052 35.2806 106.226 33.769 104.86 32.8931" fill="white"/>
<path d="M107.052 40.3827V36.9033C107.052 35.2806 106.226 33.769 104.86 32.8931V32.8931" stroke="black" stroke-linecap="round" stroke-linejoin="round"/>
<path d="M87.6318 58.4227L89.9851 57.0879C90.5148 56.7873 90.8414 56.2256 90.8414 55.6171V50.8108" fill="white"/>
<path d="M87.6318 58.4227L89.9851 57.0879C90.5148 56.7873 90.8414 56.2256 90.8414 55.6171V50.8108" stroke="black" stroke-linecap="round" stroke-linejoin="round"/>
<path d="M85.0029 46.3342L89.4838 48.8436C89.9064 49.0804 90.421 49.0813 90.8444 48.8464L95.2832 46.3849" fill="white"/>
<path d="M85.0029 46.3342L89.4838 48.8436C89.9064 49.0804 90.421 49.0813 90.8444 48.8464L95.2832 46.3849" stroke="black" stroke-linecap="round" stroke-linejoin="round"/>
<path d="M107.052 40.162L112.074 37.3137L107.052 40.162Z" fill="white"/>
<path d="M107.052 40.162L112.074 37.3137" stroke="black" stroke-linecap="round" stroke-linejoin="round"/>
<path d="M217.297 65.4969L161.421 97.4614C165.778 86.431 168.78 83.5194 170.884 83.7599C172.625 83.9588 173.512 86.2875 175.566 86.1662C177.312 86.0635 178.593 84.2677 180.343 81.1024C185.043 72.5992 185.448 69.8878 188.544 65.4969C191.47 61.348 194.137 60.7628 194.917 62.1938C195.698 63.6243 194.852 69.3153 195.632 71.1036C196.413 72.8922 197.811 74.3448 199.534 71.6024C201.257 68.8601 203.305 67.55 203.793 69.5221C204.281 71.4941 205.419 71.0295 207.077 69.0992C208.735 67.1689 209.177 63.3964 211.954 65.1851C214.002 66.5045 214.186 66.362 217.297 65.4969H217.297Z" fill="white"/>
<path d="M135.642 265.431C134.597 265.431 133.564 264.967 132.872 264.08C131.678 262.55 131.95 260.344 133.479 259.15L146.126 249.279V222.084L114.033 203.441C112.951 202.812 112.285 201.655 112.285 200.404V185.825C112.285 184.576 112.948 183.421 114.027 182.791L122.946 177.588C124.622 176.61 126.771 177.177 127.748 178.852C128.725 180.528 128.159 182.678 126.484 183.656L119.308 187.842V198.382L151.402 217.025C152.484 217.654 153.15 218.811 153.15 220.062V250.993C153.15 252.074 152.651 253.096 151.798 253.761L137.8 264.688C137.158 265.188 136.397 265.431 135.642 265.431V265.431Z" fill="url(#paint17_linear_9062_7964)"/>
<g style="mix-blend-mode:screen" opacity="0.35">
<path d="M82.186 246.388L156.55 10.8795L137.981 247.563L111.167 262.902L82.186 246.388Z" fill="url(#paint18_linear_9062_7964)"/>
</g>
<path d="M206.627 206.398C205.415 206.398 204.237 205.771 203.586 204.647C202.613 202.969 203.184 200.82 204.862 199.847L234.512 182.656L215.272 168.912C213.695 167.784 213.329 165.591 214.456 164.012C215.583 162.434 217.777 162.069 219.354 163.196L243.024 180.106C243.995 180.799 244.547 181.938 244.491 183.13C244.434 184.322 243.776 185.403 242.744 186.002L208.385 205.924C207.83 206.245 207.224 206.398 206.627 206.398L206.627 206.398Z" fill="url(#paint19_linear_9062_7964)"/>
<path d="M12.8337 164.265C10.8942 164.277 9.31297 162.714 9.30221 160.774L9.20562 143.929C9.1983 142.621 9.91933 141.416 11.0762 140.804L27.9693 131.873C29.6836 130.967 31.8086 131.622 32.7144 133.337C33.6208 135.052 32.9655 137.177 31.2508 138.083L16.2408 146.019L16.3246 160.734C16.336 162.673 14.7731 164.255 12.8337 164.265V164.265Z" fill="url(#paint20_linear_9062_7964)"/>
<ellipse cx="29.7895" cy="147.959" rx="1.11811" ry="1.77882" stroke="white" stroke-linecap="round"/>
<ellipse cx="53.3209" cy="134.336" rx="0.965643" ry="1.98211" stroke="white" stroke-linecap="round"/>
<path d="M30.9077 147.603L52.3552 134.895" stroke="white" stroke-linecap="round"/>
<ellipse cx="23.9643" cy="158.661" rx="1.11811" ry="1.77882" stroke="white" stroke-linecap="round"/>
<ellipse cx="47.4954" cy="145.038" rx="0.965643" ry="1.98211" stroke="white" stroke-linecap="round"/>
<path d="M25.0825 158.305L46.53 145.597" stroke="white" stroke-linecap="round"/>
<path d="M40.3755 141.994V149.111" stroke="white" stroke-linecap="round"/>
<ellipse cx="208.52" cy="142.056" rx="1.11811" ry="1.77882" stroke="white"/>
<ellipse cx="232.051" cy="128.433" rx="0.965643" ry="1.98211" stroke="white"/>
<path d="M209.638 141.7L231.086 128.992" stroke="white"/>
<ellipse cx="202.695" cy="152.758" rx="1.11811" ry="1.77882" stroke="white"/>
<ellipse cx="226.226" cy="139.135" rx="0.965643" ry="1.98211" stroke="white"/>
<path d="M203.813 152.402L225.261 139.694" stroke="white"/>
<path d="M219.106 136.091V143.207" stroke="white"/>
<path d="M104.339 287.377L110.869 291.098L116.911 287.641L110.397 283.92L104.339 287.377Z" stroke="#E9024D" stroke-linecap="round" stroke-linejoin="round"/>
<path d="M116.911 287.641V294.819L110.869 298.275V291.098L116.911 287.641Z" stroke="#E9024D" stroke-linecap="round" stroke-linejoin="round"/>
<path d="M138.143 276.451L130.958 280.657V298.77L133.979 296.784V287.297L138.143 284.915L138.143 276.451Z" stroke="#E9024D" stroke-linecap="round" stroke-linejoin="round"/>
<path d="M127.937 278.816L124.917 276.975V285.069L127.937 287.055V296.784L130.958 298.77V280.657L127.937 278.816Z" stroke="#E9024D" stroke-linecap="round" stroke-linejoin="round"/>
<path d="M104.339 287.377L110.869 291.098V298.275L104.339 294.554V287.377Z" stroke="#E9024D" stroke-linecap="round" stroke-linejoin="round"/>
<path d="M130.958 280.658L138.143 276.452L131.981 272.997L124.917 276.976L130.958 280.658Z" stroke="#E9024D" stroke-linecap="round" stroke-linejoin="round"/>
<path d="M111.167 262.902V288.189L104.46 284.357C104.827 281.641 104.254 278.644 103.629 275.999C102.911 272.97 101.667 269.989 100.087 267.269L87.3282 274.57L87.3243 274.566L82.186 271.632V246.388L109.439 261.919L111.167 262.902Z" fill="url(#paint21_linear_9062_7964)"/>
<path d="M137.981 247.563V272.857L111.167 288.189V262.902L137.981 247.563Z" fill="url(#paint22_linear_9062_7964)"/>
<path d="M135.271 254.115V267.936L114.562 279.78V265.966L130.796 256.674L135.271 254.115Z" fill="url(#paint23_linear_9062_7964)"/>
<path d="M130.796 256.674V265.806L114.562 275.089V265.966L130.796 256.674Z" fill="url(#paint24_linear_9062_7964)"/>
<path d="M191.148 146.397V159.038L168.673 171.888V159.258L188.946 147.658L191.148 146.397Z" fill="#282526"/>
<path d="M188.946 147.658V157.176L168.673 168.77V159.258L188.946 147.658Z" fill="#E9024D"/>
<path d="M216.807 107.594L171.732 133.388V154.439L216.807 128.644V107.594Z" fill="#E9024D"/>
<path d="M214.076 112.304V127.06L174.463 149.729V134.973L214.076 112.304Z" fill="#282526"/>
<path d="M214.048 123.362L174.435 146.032" stroke="white"/>
<path d="M26.9136 210.82V234.341L57.5514 251.799V228.278L26.9136 210.82Z" fill="url(#paint25_linear_9062_7964)"/>
<path d="M26.9136 210.82L57.5514 228.278L85.8977 212.062L55.3347 194.602L26.9136 210.82Z" fill="url(#paint26_linear_9062_7964)"/>
<path d="M57.2948 194.716L57.2664 194.691L57.2584 194.689C56.4474 194.078 55.3748 193.66 53.9568 193.589L53.9422 193.584L53.9394 193.588C53.7904 193.581 53.6421 193.573 53.4855 193.574C46.4281 193.604 42.636 204.411 43.1935 210.914L59.7509 220.164L73.2115 203.725C73.2115 203.725 57.4514 194.836 57.2948 194.716Z" fill="url(#paint27_linear_9062_7964)"/>
<path d="M100.086 267.269L87.3281 274.57L87.3242 274.567C86.1925 271.004 85.2522 266.52 86.4658 262.883C87.3205 260.327 89.8018 258.993 92.3966 259.621C95.2406 260.308 97.6207 263.394 99.1422 265.728C99.47 266.231 99.7859 266.746 100.086 267.269H100.086Z" fill="url(#paint28_linear_9062_7964)"/>
<path d="M82.186 246.388L111.167 262.903L137.981 247.563L109.07 231.047L82.186 246.388Z" fill="url(#paint29_linear_9062_7964)"/>
<path d="M123.712 229.173L122.049 227.344C121.956 227.221 121.859 227.102 121.755 226.985C121.635 226.852 121.509 226.728 121.379 226.608L121.363 226.59L121.36 226.591C118.06 223.564 111.471 224.729 106.287 229.368C101.302 233.83 99.3667 239.941 101.578 243.618L101.58 243.628L101.593 243.644C101.773 243.938 101.975 244.218 102.208 244.479C102.378 244.669 102.562 244.844 102.753 245.007L104.165 246.666L104.757 246.136C108.308 247.348 113.457 245.871 117.675 242.096C121.893 238.322 123.93 233.366 123.119 229.703L123.712 229.173Z" fill="url(#paint30_linear_9062_7964)"/>
<path d="M123.282 234.483L117.51 225.165" stroke="#E9024D" stroke-linecap="round" stroke-linejoin="round"/>
<path d="M113.725 225.517L121.307 237.459L122.295 238.469" stroke="#E9024D" stroke-linecap="round" stroke-linejoin="round"/>
<path d="M110.485 226.871L118.9 241.205L120.26 240.604" stroke="#E9024D" stroke-linecap="round" stroke-linejoin="round"/>
<path d="M106.798 229.409L118.367 242.667L118.223 242.734" stroke="#E9024D" stroke-linecap="round" stroke-linejoin="round"/>
<path d="M113.913 244.622L103.508 232.698" stroke="#E9024D" stroke-linecap="round" stroke-linejoin="round"/>
<path d="M110.559 246.084L101.72 235.953" stroke="#E9024D" stroke-linecap="round" stroke-linejoin="round"/>
<path d="M107.584 247.362L100.743 239.519" stroke="#E9024D" stroke-linecap="round" stroke-linejoin="round"/>
<ellipse rx="13.1157" ry="8.53944" transform="matrix(0.74516 -0.666886 0.666766 0.745267 113.938 237.919)" fill="url(#paint31_linear_9062_7964)"/>
<path d="M122.131 230.588C124.767 233.534 123.236 239.205 118.711 243.254C114.187 247.303 108.382 248.198 105.746 245.251" stroke="black" stroke-linecap="round" stroke-linejoin="round"/>
<path d="M130.796 265.806L135.271 267.936V254.115L130.796 256.674V265.806Z" fill="url(#paint32_linear_9062_7964)"/>
<path d="M226.114 224.156V236.423L244.495 246.935V234.674L230.086 226.428L226.114 224.156Z" fill="url(#paint33_linear_9062_7964)"/>
<path d="M230.086 226.428V234.532L244.495 242.772V234.674L230.086 226.428Z" fill="url(#paint34_linear_9062_7964)"/>
<path d="M230.086 234.532L226.114 236.423V224.156L230.086 226.428V234.532Z" fill="url(#paint35_linear_9062_7964)"/>
<path d="M92.3313 243.709L95.7777 242.61" stroke="white" stroke-linecap="round"/>
<path d="M95.1274 226.539L97.9886 229.036" stroke="white" stroke-linecap="round"/>
<path d="M103.321 218.36L104.751 221.66" stroke="white" stroke-linecap="round"/>
<path d="M118.797 215.742L118.094 219.676" stroke="white" stroke-linecap="round"/>
<path d="M129.201 224.197L126.926 227.27" stroke="white" stroke-linecap="round"/>
<path d="M130.307 234.733L128.064 235.791" stroke="white" stroke-linecap="round"/>
<ellipse rx="1.49564" ry="2.61584" transform="matrix(0.972429 -0.2332 0.233129 0.972446 36.5774 230.356)" stroke="white" stroke-linecap="round" stroke-linejoin="round"/>
<path d="M85.8978 235.583V212.062L57.5515 228.278V251.799L85.8978 235.583Z" fill="#282526"/>
<path d="M160.042 247.086L190.68 264.544L219.026 248.328L188.463 230.868L160.042 247.086Z" fill="url(#paint36_linear_9062_7964)"/>
<path d="M174.916 245.269C172.976 245.269 171.405 243.697 171.405 241.757V221.27C171.405 220.018 172.071 218.861 173.155 218.232L195.252 205.42C196.931 204.446 199.078 205.019 200.051 206.697C201.024 208.374 200.452 210.524 198.774 211.497L178.428 223.294V241.757C178.428 243.697 176.855 245.27 174.916 245.27L174.916 245.269Z" fill="url(#paint37_linear_9062_7964)"/>
<path d="M219.026 271.849V248.328L190.68 264.544V288.065L219.026 271.849Z" fill="#282526" stroke="#E9024D"/>
<g style="mix-blend-mode:screen" opacity="0.35">
<path d="M203.336 244.005V228.777L184.984 239.276V254.504L203.336 244.005Z" fill="url(#paint38_linear_9062_7964)"/>
</g>
<g style="mix-blend-mode:screen" opacity="0.35">
<path d="M209.329 247.49V232.262L190.977 242.761V257.989L209.329 247.49Z" fill="url(#paint39_linear_9062_7964)"/>
</g>
<g style="mix-blend-mode:screen" opacity="0.35">
<path d="M203.336 228.777L184.984 239.276L203.336 228.777Z" fill="url(#paint40_linear_9062_7964)"/>
</g>
<path d="M219.026 255.489L190.68 271.705L219.026 255.489Z" fill="#282526"/>
<path d="M219.026 255.489L190.68 271.705" stroke="#E9024D"/>
<path d="M198.728 283.466V271.705L195.585 273.544V285.259L198.728 283.466Z" fill="url(#paint41_linear_9062_7964)"/>
<path d="M206.275 279.149V267.388L203.133 269.227V280.942L206.275 279.149Z" fill="url(#paint42_linear_9062_7964)"/>
<path d="M213.822 274.832V263.072L210.68 264.91V276.625L213.822 274.832Z" fill="url(#paint43_linear_9062_7964)"/>
<path d="M160.042 247.086V270.607L190.68 288.065V264.544L160.042 247.086Z" fill="#282526" stroke="#E9024D"/>
<path d="M70.1853 231.513L62.5484 235.903V229.179L59.623 230.896" stroke="white" stroke-linecap="round"/>
<path d="M70.2684 235.659L63.1048 239.776V245.432L59.623 247.387" stroke="white" stroke-linecap="round"/>
<path d="M50.4614 247.759V229.397L36.5769 221.454V227.742" stroke="white" stroke-linecap="round" stroke-linejoin="round"/>
<ellipse rx="1.07295" ry="0.512088" transform="matrix(0.250097 -0.968221 0.968201 0.250172 59.1103 231.14)" stroke="white" stroke-linecap="round"/>
<ellipse rx="1.07295" ry="0.512088" transform="matrix(0.250097 -0.968221 0.968201 0.250172 59.2163 247.387)" stroke="white" stroke-linecap="round"/>
<path d="M76.12 210.765C76.12 210.765 76.8875 202.902 69.9148 202.931C62.8571 202.961 59.0652 213.769 59.623 220.271L76.12 210.765Z" fill="url(#paint44_linear_9062_7964)"/>
<path d="M64.6134 210.382C63.4231 212.247 62.7172 214.686 62.5611 216.817C62.5141 217.429 62.5141 218.015 62.5611 218.553L64.1061 217.671L70.8477 213.812L73.1968 212.469L66.2523 208.497C65.6329 208.999 65.0845 209.645 64.6134 210.382L64.6134 210.382Z" fill="#282526"/>
<path d="M69.186 207.389C68.0797 207.394 67.0989 207.811 66.2524 208.497L73.197 212.47C73.197 212.47 73.677 207.369 69.186 207.389V207.389Z" fill="url(#paint45_linear_9062_7964)"/>
<path d="M76.8873 217.141V240.773L70.1845 244.652V221.02L64.1059 217.671L62.5608 216.817C62.7169 214.686 63.4228 212.247 64.6131 210.382L70.8474 213.812L76.8873 217.141Z" fill="white"/>
<path d="M41.7723 207.908C41.4212 207.635 40.9863 207.439 40.4335 207.399C36.9332 207.142 35.7211 212.106 35.9631 214.93L52.5445 224.269L58.0625 217.083L41.7723 207.908Z" fill="url(#paint46_linear_9062_7964)"/>
<path d="M59.7507 220.164C59.7507 220.164 59.5365 216.921 57.0444 216.737C53.5439 216.48 52.3321 221.445 52.5745 224.269L59.7507 220.164Z" fill="url(#paint47_linear_9062_7964)"/>
<ellipse cx="156.55" cy="7.38104" rx="7.37984" ry="7.38104" fill="url(#paint48_linear_9062_7964)"/>
<ellipse cx="156.55" cy="10.8794" rx="2.72398" ry="2.72442" stroke="white" stroke-linecap="round" stroke-linejoin="round"/>
<circle cx="156.55" cy="11.8532" r="1.5948" fill="#1D1E29"/>
<path d="M82.186 246.388L156.742 11.8532L137.981 247.562" stroke="#E9024D" stroke-linecap="round" stroke-linejoin="round"/>
<path d="M103.321 206.398L156.55 11.8535" stroke="#E9024D"/>
<path d="M156.742 11.8535L126.926 216.281" stroke="#E9024D" stroke-linecap="round" stroke-linejoin="round"/>
<path d="M258.034 65.2022L225.939 83.569V68.5802L258.034 50.2135V65.2022Z" stroke="white" stroke-linecap="round" stroke-linejoin="round"/>
<path d="M289.117 96.2071L274.553 104.581V89.5919L289.117 81.2183V96.2071Z" stroke="white" stroke-linecap="round" stroke-linejoin="round"/>
<path d="M289.117 101.555L274.553 109.929" stroke="#E9024D"/>
<path d="M289.117 105.258L274.553 113.631" stroke="#E9024D"/>
<ellipse rx="21.6973" ry="13.5096" transform="matrix(0.432179 -0.901788 0.901733 0.432293 254.195 104.818)" stroke="#E9024D"/>
<ellipse rx="10.3137" ry="5.73981" transform="matrix(0.432179 -0.901788 0.901733 0.432293 254.871 104.978)" stroke="#E9024D"/>
<g style="mix-blend-mode:screen" opacity="0.35">
<path fill-rule="evenodd" clip-rule="evenodd" d="M263.572 85.2514C256.844 82.0257 247.192 88.1715 242.013 98.9773C236.834 109.784 238.09 121.159 244.818 124.384C251.546 127.609 261.198 121.464 266.377 110.658C271.556 99.8517 270.3 88.4767 263.572 85.2514ZM260.047 107.459C257.585 112.596 253.273 115.649 250.414 114.278C247.555 112.908 247.234 107.633 249.696 102.496C252.157 97.3597 256.47 94.3064 259.329 95.6769C262.187 97.0474 262.509 102.323 260.047 107.459Z" fill="url(#paint49_linear_9062_7964)"/>
</g>
<path d="M260.77 84.4544L258.034 95.355" stroke="#E9024D"/>
<path d="M261.557 99.1098L269.059 92.8997" stroke="#E9024D"/>
<path d="M239.837 104.818L248.504 105.742" stroke="#E9024D"/>
<path d="M241.155 121.122L248.982 112.98" stroke="#E9024D"/>
<path d="M246.267 71.9363V84.4542L254.195 79.5249V89.1367" stroke="white"/>
<path d="M229.032 69.6394V77.4439L254.871 62.3246" stroke="white" stroke-linecap="round" stroke-linejoin="round"/>
<path d="M229.299 72.1242C229.719 71.7586 230.474 71.9151 230.714 72.4182C230.956 72.9246 230.742 73.6518 231.189 73.9903C231.457 74.1938 231.848 74.1352 232.141 73.9692C233.129 73.4084 233.215 71.9334 233.555 70.968C234.141 69.3012 235 67.1267 236.451 66.023C236.6 65.91 236.762 65.8045 236.946 65.7717C237.282 65.7117 237.625 65.9161 237.812 66.2016C238 66.4871 238.059 66.8379 238.078 67.1792C238.096 67.52 238.079 67.8642 238.136 68.2013C238.289 69.1208 239.283 68.8399 239.746 68.3176C240.087 67.9345 240.281 67.445 240.581 67.0296C240.887 66.6072 241.328 66.2541 241.844 66.1805C242.15 66.1374 242.482 66.2119 242.736 66.3915C243.029 66.5988 243.118 66.9733 243.436 67.1543C243.846 67.3878 244.363 67.107 244.681 66.7596C245.051 66.3564 245.308 65.8931 245.873 65.7389C246.194 65.6507 246.536 65.6718 246.861 65.6029C247.437 65.481 247.912 65.0928 248.395 64.7566C248.949 64.3698 249.449 64.2207 250.109 64.1597C250.761 64.0997 251.464 64.0294 252.031 63.6763" stroke="white" stroke-linecap="round" stroke-linejoin="round"/>
<ellipse rx="1.49723" ry="1.12035" transform="matrix(0.768845 -0.639435 0.639312 0.768947 254.49 90.1144)" stroke="white"/>
<ellipse cx="274.071" cy="109.865" rx="0.70717" ry="1.51188" stroke="#E9024D"/>
<ellipse cx="274.071" cy="113.792" rx="0.70717" ry="1.51188" stroke="#E9024D"/>
<ellipse cx="289.703" cy="101.524" rx="0.70717" ry="1.51188" stroke="#E9024D"/>
<ellipse cx="289.703" cy="105.451" rx="0.70717" ry="1.51188" stroke="#E9024D"/>
<path d="M277.152 100.337L279.363 91.0367L281.835 96.2397L284.695 86.6141L285.541 90.5814L287.101 84.4543" stroke="white" stroke-linecap="round" stroke-linejoin="round"/>
<path d="M179.155 181.951V175.081L174.047 178V179.154L179.155 181.951Z" fill="url(#paint50_linear_9062_7964)"/>
<path d="M263.421 177.843C263.384 177.816 263.346 177.79 263.308 177.767L263.29 177.754V177.756C262.791 177.462 262.212 177.521 261.578 178.09C259.676 179.797 260.164 184.187 259.14 190.723C258.426 195.279 258.162 197.914 257.456 199.275L256.167 196.166L253.463 194.089C253.384 194.013 253.301 193.947 253.211 193.895L253.207 193.892V193.893C253.029 193.792 252.831 193.738 252.605 193.747C250.117 193.845 249.532 201.357 249.678 208.088C249.825 214.82 248.118 215.356 245.514 218.722C242.91 222.088 244.404 222.498 244.404 222.498L247.967 224.916L265.206 210.917L266.986 180.264L263.421 177.843Z" fill="url(#paint51_linear_9062_7964)"/>
<path d="M247.967 224.916C247.967 224.916 246.473 224.506 249.076 221.141C251.681 217.775 253.387 217.238 253.241 210.507C253.095 203.776 253.68 196.264 256.167 196.166C258.655 196.068 257.972 203.337 259.776 202.8C261.581 202.263 261.678 199.678 262.703 193.142C263.726 186.605 263.239 182.216 265.141 180.509C267.043 178.801 268.457 181.671 268.652 184.968C268.848 188.264 268.769 213.336 268.769 213.336L247.967 224.916Z" fill="white"/>
<path d="M183.176 132.372L185.191 131.157C185.438 131.008 185.671 130.985 185.892 131.086C186.114 131.187 186.225 131.405 186.228 131.737C186.228 131.862 186.19 131.991 186.112 132.125C186.034 132.259 185.948 132.355 185.852 132.412C185.721 132.492 185.63 132.513 185.58 132.475C185.53 132.437 185.483 132.339 185.437 132.182C185.392 132.025 185.291 131.994 185.138 132.086L183.221 133.241C183.13 133.297 183.084 133.358 183.084 133.426C183.082 133.47 183.101 133.507 183.141 133.538L186.044 135.944C186.184 136.061 186.255 136.233 186.256 136.462C186.258 136.723 186.175 137.002 186.009 137.3C185.843 137.598 185.657 137.81 185.451 137.934L183.364 139.192C183.088 139.358 182.846 139.385 182.641 139.27C182.435 139.156 182.331 138.957 182.329 138.673C182.328 138.347 182.462 138.103 182.732 137.94C182.836 137.877 182.926 137.866 183 137.906C183.074 137.946 183.112 138.024 183.112 138.138C183.113 138.232 183.142 138.293 183.199 138.321C183.256 138.349 183.328 138.337 183.414 138.285L185.34 137.124C185.423 137.074 185.464 137.012 185.464 136.938C185.466 136.902 185.446 136.867 185.406 136.836L182.508 134.428C182.371 134.312 182.302 134.138 182.301 133.906C182.299 133.636 182.384 133.349 182.554 133.046C182.726 132.743 182.933 132.518 183.176 132.372L183.176 132.372Z" fill="white"/>
<path d="M190.163 134.217L191.561 133.375C191.668 133.31 191.761 133.297 191.84 133.334C191.919 133.372 191.959 133.451 191.959 133.573C191.96 133.694 191.921 133.821 191.844 133.953C191.766 134.085 191.673 134.183 191.566 134.248L190.119 135.121C189.935 135.232 189.744 135.28 189.546 135.267C189.349 135.254 189.212 135.189 189.134 135.073L188.228 133.662C188.107 133.453 188.045 133.202 188.043 132.907C188.041 132.582 188.096 132.265 188.209 131.957L189.1 129.484C189.185 129.252 189.318 129.013 189.498 128.767C189.679 128.521 189.853 128.347 190.022 128.245L191.552 127.323C191.659 127.258 191.751 127.246 191.827 127.288C191.902 127.329 191.941 127.409 191.942 127.526C191.942 127.648 191.905 127.775 191.831 127.909C191.756 128.043 191.665 128.142 191.557 128.207L190.083 129.095C189.961 129.17 189.861 129.311 189.785 129.52L188.938 131.846C188.871 132.029 188.838 132.217 188.84 132.411C188.841 132.617 188.879 132.775 188.953 132.886L189.783 134.171C189.861 134.308 189.988 134.323 190.163 134.217L190.163 134.217Z" fill="white"/>
<path fill-rule="evenodd" clip-rule="evenodd" d="M193.764 132.312L195.287 125.398C195.347 125.143 195.477 124.956 195.676 124.837C195.869 124.721 195.991 124.739 196.041 124.893L197.621 130.029C197.634 130.067 197.64 130.106 197.64 130.148C197.641 130.269 197.605 130.395 197.532 130.524C197.458 130.653 197.374 130.747 197.279 130.804C197.076 130.926 196.947 130.898 196.89 130.721L196.577 129.72L194.804 130.788L194.475 132.261C194.466 132.321 194.428 132.397 194.36 132.488C194.293 132.579 194.219 132.649 194.139 132.697C194.025 132.766 193.929 132.779 193.855 132.737C193.78 132.695 193.743 132.612 193.742 132.487C193.742 132.435 193.749 132.377 193.764 132.312L193.764 132.312ZM195.683 126.862L195.034 129.762L196.344 128.972L195.683 126.862Z" fill="white"/>
<path d="M203.304 120.688L203.343 127.149L202.304 127.775L200.186 123.668L200.216 128.596C200.217 128.717 200.18 128.843 200.105 128.973C200.03 129.103 199.939 129.201 199.832 129.266C199.724 129.33 199.632 129.343 199.557 129.303C199.481 129.264 199.443 129.184 199.442 129.062L199.403 122.591L200.426 121.974L202.55 126.067L202.52 121.16C202.52 121.039 202.558 120.91 202.636 120.775C202.714 120.639 202.807 120.539 202.914 120.474C203.022 120.409 203.113 120.397 203.189 120.438C203.265 120.48 203.303 120.563 203.304 120.688Z" fill="white"/>
<path d="M119.308 187.842V185.825V187.842Z" fill="white"/>
<path d="M119.308 187.842V185.825" stroke="black" stroke-linecap="round" stroke-linejoin="round"/>
<path d="M119.308 198.382L117.515 197.402" stroke="#E9024D" stroke-linecap="round" stroke-linejoin="round"/>
<path d="M146.126 222.084V220.271" stroke="black" stroke-linecap="round" stroke-linejoin="round"/>
<path d="M146.126 249.279V252.423" stroke="black" stroke-linecap="round" stroke-linejoin="round"/>
<path d="M67.8684 215.829L73.693 218.823V226.538" stroke="#282526"/>
<path d="M71.7246 222.116V238.782" stroke="#282526"/>
<path d="M75.4241 232.541V241.619" stroke="#282526"/>
<path d="M64.2384 125.554V133.895L52.6923 126.497L39.1211 133.572C37.4053 134.467 35.2816 133.802 34.3864 132.081C33.4909 130.36 34.1566 128.241 35.877 127.345L51.2484 119.328C52.3643 118.747 53.7049 118.808 54.7643 119.487L64.2384 125.554Z" fill="url(#paint52_linear_9062_7964)"/>
<path d="M52.6907 126.497V121.564" stroke="#E9024D"/>
<ellipse cx="37.352" cy="130.467" rx="3.36515" ry="3.3657" fill="url(#paint53_linear_9062_7964)" stroke="#E9024D"/>
<ellipse cx="37.3522" cy="130.467" rx="2.49361" ry="2.49401" fill="url(#paint54_linear_9062_7964)"/>
<path d="M38.8548 197.794C38.2486 197.794 37.6345 197.636 37.0749 197.306L10.934 181.892C9.86296 181.261 9.20557 180.111 9.20557 178.867V173.534C9.20557 171.594 10.7779 170.022 12.7173 170.022C14.6568 170.022 16.2286 171.594 16.2286 173.534V176.861L40.6413 191.255C42.312 192.241 42.868 194.394 41.8831 196.064C41.2278 197.176 40.0572 197.794 38.8548 197.794L38.8548 197.794Z" fill="url(#paint55_linear_9062_7964)"/>
<ellipse cx="206.592" cy="202.946" rx="2.83902" ry="2.83948" fill="url(#paint56_linear_9062_7964)"/>
<path d="M293.857 177.045L296.452 178.313L293.857 177.045Z" fill="white"/>
<path d="M293.857 177.045L296.452 178.313" stroke="black" stroke-linecap="round" stroke-linejoin="round"/>
<path d="M293.857 168.846V166.411V168.846Z" fill="white"/>
<path d="M293.857 168.846V166.411" stroke="black" stroke-linecap="round" stroke-linejoin="round"/>
<path d="M234.511 182.656L236.578 181.402L234.511 182.656Z" fill="white"/>
<path d="M234.511 182.656L236.578 181.402" stroke="black" stroke-linecap="round" stroke-linejoin="round"/>
<path d="M178.427 223.294L176.086 221.661L178.427 223.294Z" fill="white"/>
<path d="M178.427 223.294L176.086 221.661" stroke="black" stroke-linecap="round" stroke-linejoin="round"/>
<path fill-rule="evenodd" clip-rule="evenodd" d="M310 31.7227L295.338 23.0517L295.188 40.1086L310 31.7227ZM305.217 31.6775L297.62 35.9791L297.7 27.2275L305.217 31.6775Z" fill="#E9024D"/>
<circle cx="11.1046" cy="68.9535" r="9.10458" stroke="#E9024D" stroke-width="3" stroke-linecap="round"/>
<defs>
<linearGradient id="paint0_linear_9062_7964" x1="22.7883" y1="174.901" x2="20.2351" y2="164.248" gradientUnits="userSpaceOnUse">
<stop stop-color="#E9024D"/>
<stop offset="1" stop-color="#101010"/>
</linearGradient>
<linearGradient id="paint1_linear_9062_7964" x1="5.56063" y1="165.986" x2="6.21007" y2="173.963" gradientUnits="userSpaceOnUse">
<stop stop-color="#E9024D"/>
<stop offset="0.0743305" stop-color="#D90348"/>
<stop offset="1" stop-color="#101010"/>
</linearGradient>
<linearGradient id="paint2_linear_9062_7964" x1="333.527" y1="162.53" x2="270.445" y2="94.2208" gradientUnits="userSpaceOnUse">
<stop stop-color="#E9024D"/>
<stop offset="1" stop-color="#101010"/>
</linearGradient>
<linearGradient id="paint3_linear_9062_7964" x1="219.584" y1="232.496" x2="278.568" y2="232.496" gradientUnits="userSpaceOnUse">
<stop stop-color="#E9024D"/>
<stop offset="0.0455207" stop-color="#EA044E"/>
<stop offset="1" stop-color="#FA246B"/>
</linearGradient>
<linearGradient id="paint4_linear_9062_7964" x1="270.136" y1="189.679" x2="217.549" y2="209.662" gradientUnits="userSpaceOnUse">
<stop stop-color="#E9024D"/>
<stop offset="1" stop-color="#101010"/>
</linearGradient>
<linearGradient id="paint5_linear_9062_7964" x1="216.519" y1="213.269" x2="222.889" y2="256.621" gradientUnits="userSpaceOnUse">
<stop stop-color="#E9024D"/>
<stop offset="1" stop-color="#101010"/>
</linearGradient>
<linearGradient id="paint6_linear_9062_7964" x1="224.684" y1="289.587" x2="335.82" y2="111.523" gradientUnits="userSpaceOnUse">
<stop stop-color="#E9024D"/>
<stop offset="1" stop-color="#101010"/>
</linearGradient>
<linearGradient id="paint7_linear_9062_7964" x1="25.1939" y1="169.181" x2="118.494" y2="248.379" gradientUnits="userSpaceOnUse">
<stop stop-color="#E9024D"/>
<stop offset="1" stop-color="#101010"/>
</linearGradient>
<linearGradient id="paint8_linear_9062_7964" x1="261.324" y1="188.933" x2="261.883" y2="16.6578" gradientUnits="userSpaceOnUse">
<stop stop-color="#E9024D"/>
<stop offset="1" stop-color="#101010"/>
</linearGradient>
<linearGradient id="paint9_linear_9062_7964" x1="182.327" y1="50.5766" x2="181.02" y2="7.75102" gradientUnits="userSpaceOnUse">
<stop stop-color="white"/>
<stop offset="0.165992" stop-color="#FEF8FB"/>
<stop offset="0.395308" stop-color="#FEE6F0"/>
<stop offset="0.661447" stop-color="#FDC9DE"/>
<stop offset="0.953336" stop-color="#FCA1C6"/>
<stop offset="1" stop-color="#FC9AC2"/>
</linearGradient>
<linearGradient id="paint10_linear_9062_7964" x1="66.8074" y1="-15.9408" x2="77.9029" y2="72.4122" gradientUnits="userSpaceOnUse">
<stop stop-color="white"/>
<stop offset="1" stop-color="#FC9AC2"/>
</linearGradient>
<linearGradient id="paint11_linear_9062_7964" x1="150.761" y1="26.5951" x2="155.914" y2="16.463" gradientUnits="userSpaceOnUse">
<stop stop-color="#E9024D"/>
<stop offset="0.227603" stop-color="#B8053F"/>
<stop offset="1" stop-color="#101010"/>
</linearGradient>
<linearGradient id="paint12_linear_9062_7964" x1="187.469" y1="35.9248" x2="186.218" y2="4.00483" gradientUnits="userSpaceOnUse">
<stop stop-color="#E9024D"/>
<stop offset="0.136603" stop-color="#D10346"/>
<stop offset="0.42373" stop-color="#960735"/>
<stop offset="0.834249" stop-color="#380D1B"/>
<stop offset="1" stop-color="#101010"/>
</linearGradient>
<linearGradient id="paint13_linear_9062_7964" x1="176.428" y1="11.8052" x2="170.673" y2="1.72349" gradientUnits="userSpaceOnUse">
<stop stop-color="#E9024D"/>
<stop offset="1" stop-color="#101010"/>
</linearGradient>
<linearGradient id="paint14_linear_9062_7964" x1="107.601" y1="56.1818" x2="105.468" y2="50.5769" gradientUnits="userSpaceOnUse">
<stop stop-color="#E9024D"/>
<stop offset="1" stop-color="#101010"/>
</linearGradient>
<linearGradient id="paint15_linear_9062_7964" x1="109.023" y1="68.8512" x2="108.075" y2="53.1734" gradientUnits="userSpaceOnUse">
<stop stop-color="#E9024D"/>
<stop offset="1" stop-color="#101010"/>
</linearGradient>
<linearGradient id="paint16_linear_9062_7964" x1="103.349" y1="64.1731" x2="100.657" y2="55.3996" gradientUnits="userSpaceOnUse">
<stop stop-color="#E9024D"/>
<stop offset="1" stop-color="#101010"/>
</linearGradient>
<linearGradient id="paint17_linear_9062_7964" x1="107.678" y1="201.595" x2="126.869" y2="304.773" gradientUnits="userSpaceOnUse">
<stop stop-color="#E9024D"/>
<stop offset="1" stop-color="#101010"/>
</linearGradient>
<linearGradient id="paint18_linear_9062_7964" x1="82.1859" y1="262.903" x2="156.55" y2="262.903" gradientUnits="userSpaceOnUse">
<stop stop-color="#E9024D"/>
<stop offset="1" stop-color="#FC9AC2"/>
</linearGradient>
<linearGradient id="paint19_linear_9062_7964" x1="253.232" y1="183.931" x2="213.712" y2="143.71" gradientUnits="userSpaceOnUse">
<stop stop-color="#E9024D"/>
<stop offset="1" stop-color="#101010"/>
</linearGradient>
<linearGradient id="paint20_linear_9062_7964" x1="28.7184" y1="188.049" x2="74.9234" y2="142.367" gradientUnits="userSpaceOnUse">
<stop stop-color="#E9024D"/>
<stop offset="1" stop-color="#101010"/>
</linearGradient>
<linearGradient id="paint21_linear_9062_7964" x1="115.126" y1="300.816" x2="125.228" y2="241.407" gradientUnits="userSpaceOnUse">
<stop stop-color="#E9024D"/>
<stop offset="1" stop-color="#101010"/>
</linearGradient>
<linearGradient id="paint22_linear_9062_7964" x1="143.459" y1="286.867" x2="128.317" y2="243.768" gradientUnits="userSpaceOnUse">
<stop stop-color="#E9024D"/>
<stop offset="1" stop-color="#101010"/>
</linearGradient>
<linearGradient id="paint23_linear_9062_7964" x1="136.292" y1="270.892" x2="125.435" y2="260.223" gradientUnits="userSpaceOnUse">
<stop stop-color="#E9024D"/>
<stop offset="1" stop-color="#101010"/>
</linearGradient>
<linearGradient id="paint24_linear_9062_7964" x1="130.8" y1="274.341" x2="128.556" y2="258.321" gradientUnits="userSpaceOnUse">
<stop stop-color="#E9024D"/>
<stop offset="1" stop-color="#101010"/>
</linearGradient>
<linearGradient id="paint25_linear_9062_7964" x1="26.9136" y1="251.799" x2="57.5514" y2="251.799" gradientUnits="userSpaceOnUse">
<stop stop-color="#E9024D"/>
<stop offset="1" stop-color="#101010"/>
</linearGradient>
<linearGradient id="paint26_linear_9062_7964" x1="48.7212" y1="169.074" x2="18.3965" y2="233.463" gradientUnits="userSpaceOnUse">
<stop stop-color="#E9024D"/>
<stop offset="1" stop-color="#101010"/>
</linearGradient>
<linearGradient id="paint27_linear_9062_7964" x1="48.4522" y1="190.258" x2="38.7774" y2="215.738" gradientUnits="userSpaceOnUse">
<stop stop-color="#E9024D"/>
<stop offset="1" stop-color="#101010"/>
</linearGradient>
<linearGradient id="paint28_linear_9062_7964" x1="71.0927" y1="290.3" x2="112.828" y2="288.231" gradientUnits="userSpaceOnUse">
<stop stop-color="#E9024D"/>
<stop offset="0.0117183" stop-color="#E5024B"/>
<stop offset="0.217405" stop-color="#A50639"/>
<stop offset="0.413666" stop-color="#6F092A"/>
<stop offset="0.595298" stop-color="#460C1F"/>
<stop offset="0.759135" stop-color="#280E16"/>
<stop offset="0.899486" stop-color="#160F11"/>
<stop offset="1" stop-color="#101010"/>
</linearGradient>
<linearGradient id="paint29_linear_9062_7964" x1="67.5725" y1="238.955" x2="71.7165" y2="284.568" gradientUnits="userSpaceOnUse">
<stop stop-color="#E9024D"/>
<stop offset="1" stop-color="#101010"/>
</linearGradient>
<linearGradient id="paint30_linear_9062_7964" x1="100.991" y1="233.291" x2="109.14" y2="244.877" gradientUnits="userSpaceOnUse">
<stop stop-color="#E9024D"/>
<stop offset="1" stop-color="#101010"/>
</linearGradient>
<linearGradient id="paint31_linear_9062_7964" x1="34.5304" y1="23.4785" x2="32.6265" y2="-0.633041" gradientUnits="userSpaceOnUse">
<stop stop-color="#E9024D"/>
<stop offset="0.0455207" stop-color="#EA044E"/>
<stop offset="1" stop-color="#FA246B"/>
</linearGradient>
<linearGradient id="paint32_linear_9062_7964" x1="136.647" y1="262.779" x2="130.114" y2="259.982" gradientUnits="userSpaceOnUse">
<stop stop-color="#E9024D"/>
<stop offset="1" stop-color="#101010"/>
</linearGradient>
<linearGradient id="paint33_linear_9062_7964" x1="235.26" y1="245.606" x2="239.721" y2="238.413" gradientUnits="userSpaceOnUse">
<stop stop-color="#E9024D"/>
<stop offset="1" stop-color="#101010"/>
</linearGradient>
<linearGradient id="paint34_linear_9062_7964" x1="238.632" y1="220.906" x2="228.413" y2="231.41" gradientUnits="userSpaceOnUse">
<stop stop-color="#E9024D"/>
<stop offset="1" stop-color="#101010"/>
</linearGradient>
<linearGradient id="paint35_linear_9062_7964" x1="225.978" y1="228.92" x2="231.749" y2="234.971" gradientUnits="userSpaceOnUse">
<stop stop-color="#E9024D"/>
<stop offset="1" stop-color="#101010"/>
</linearGradient>
<linearGradient id="paint36_linear_9062_7964" x1="160.042" y1="264.544" x2="219.026" y2="264.544" gradientUnits="userSpaceOnUse">
<stop stop-color="#E9024D"/>
<stop offset="0.0455207" stop-color="#EA044E"/>
<stop offset="1" stop-color="#FA246B"/>
</linearGradient>
<linearGradient id="paint37_linear_9062_7964" x1="174.806" y1="190.814" x2="144.619" y2="225.659" gradientUnits="userSpaceOnUse">
<stop stop-color="#E9024D"/>
<stop offset="1" stop-color="#101010"/>
</linearGradient>
<linearGradient id="paint38_linear_9062_7964" x1="184.984" y1="254.504" x2="203.336" y2="254.504" gradientUnits="userSpaceOnUse">
<stop stop-color="#E9024D"/>
<stop offset="1" stop-color="#FC9AC2"/>
</linearGradient>
<linearGradient id="paint39_linear_9062_7964" x1="190.977" y1="257.989" x2="209.329" y2="257.989" gradientUnits="userSpaceOnUse">
<stop stop-color="#E9024D"/>
<stop offset="1" stop-color="#FC9AC2"/>
</linearGradient>
<linearGradient id="paint40_linear_9062_7964" x1="184.984" y1="239.276" x2="203.336" y2="239.276" gradientUnits="userSpaceOnUse">
<stop stop-color="#E9024D"/>
<stop offset="1" stop-color="#FC9AC2"/>
</linearGradient>
<linearGradient id="paint41_linear_9062_7964" x1="195.325" y1="275.019" x2="200.545" y2="277.745" gradientUnits="userSpaceOnUse">
<stop stop-color="#E9024D"/>
<stop offset="1" stop-color="#101010"/>
</linearGradient>
<linearGradient id="paint42_linear_9062_7964" x1="201.649" y1="269.489" x2="209.719" y2="273.126" gradientUnits="userSpaceOnUse">
<stop stop-color="#E9024D"/>
<stop offset="1" stop-color="#101010"/>
</linearGradient>
<linearGradient id="paint43_linear_9062_7964" x1="209.443" y1="264.956" x2="215.671" y2="267.384" gradientUnits="userSpaceOnUse">
<stop stop-color="#E9024D"/>
<stop offset="1" stop-color="#101010"/>
</linearGradient>
<linearGradient id="paint44_linear_9062_7964" x1="59.569" y1="220.272" x2="76.1448" y2="220.272" gradientUnits="userSpaceOnUse">
<stop stop-color="#E9024D"/>
<stop offset="1" stop-color="#101010"/>
</linearGradient>
<linearGradient id="paint45_linear_9062_7964" x1="74.4016" y1="214.294" x2="74.4641" y2="207.378" gradientUnits="userSpaceOnUse">
<stop stop-color="#E9024D"/>
<stop offset="1" stop-color="#101010"/>
</linearGradient>
<linearGradient id="paint46_linear_9062_7964" x1="42.288" y1="210.085" x2="39.3735" y2="219.773" gradientUnits="userSpaceOnUse">
<stop stop-color="#E9024D"/>
<stop offset="1" stop-color="#101010"/>
</linearGradient>
<linearGradient id="paint47_linear_9062_7964" x1="58.2847" y1="237.684" x2="78.6622" y2="218.684" gradientUnits="userSpaceOnUse">
<stop stop-color="#E9024D"/>
<stop offset="1" stop-color="#101010"/>
</linearGradient>
<linearGradient id="paint48_linear_9062_7964" x1="149.17" y1="14.7621" x2="163.93" y2="14.7621" gradientUnits="userSpaceOnUse">
<stop stop-color="#E9024D"/>
<stop offset="0.0455207" stop-color="#EA044E"/>
<stop offset="1" stop-color="#FA246B"/>
</linearGradient>
<linearGradient id="paint49_linear_9062_7964" x1="238.821" y1="125.242" x2="269.569" y2="125.242" gradientUnits="userSpaceOnUse">
<stop stop-color="#E9024D"/>
<stop offset="1" stop-color="#FC9AC2"/>
</linearGradient>
<linearGradient id="paint50_linear_9062_7964" x1="180.577" y1="182.974" x2="178.219" y2="176.044" gradientUnits="userSpaceOnUse">
<stop stop-color="#E9024D"/>
<stop offset="1" stop-color="#101010"/>
</linearGradient>
<linearGradient id="paint51_linear_9062_7964" x1="261.845" y1="170.28" x2="243.708" y2="180.152" gradientUnits="userSpaceOnUse">
<stop stop-color="#E9024D"/>
<stop offset="1" stop-color="#101010"/>
</linearGradient>
<linearGradient id="paint52_linear_9062_7964" x1="33.9881" y1="133.97" x2="64.2383" y2="133.97" gradientUnits="userSpaceOnUse">
<stop stop-color="#E9024D"/>
<stop offset="1" stop-color="#101010"/>
</linearGradient>
<linearGradient id="paint53_linear_9062_7964" x1="29.2022" y1="127.047" x2="31.5078" y2="141.933" gradientUnits="userSpaceOnUse">
<stop stop-color="#E9024D"/>
<stop offset="1" stop-color="#101010"/>
</linearGradient>
<linearGradient id="paint54_linear_9062_7964" x1="31.828" y1="142.181" x2="42.4939" y2="134.798" gradientUnits="userSpaceOnUse">
<stop stop-color="#E9024D"/>
<stop offset="1" stop-color="#101010"/>
</linearGradient>
<linearGradient id="paint55_linear_9062_7964" x1="43.6039" y1="176.626" x2="18.5952" y2="156.047" gradientUnits="userSpaceOnUse">
<stop stop-color="#E9024D"/>
<stop offset="1" stop-color="#101010"/>
</linearGradient>
<linearGradient id="paint56_linear_9062_7964" x1="205.224" y1="208.448" x2="210.538" y2="204.151" gradientUnits="userSpaceOnUse">
<stop stop-color="#E9024D"/>
<stop offset="1" stop-color="#101010"/>
</linearGradient>
</defs>
</svg>
