<svg width="543" height="544" viewBox="0 0 543 544" fill="none" xmlns="http://www.w3.org/2000/svg">
<path d="M23.1759 217.172L23.1503 212.7" stroke="#E9024D"/>
<path d="M23.1591 263.005L17.9373 266.134" stroke="#E9024D"/>
<ellipse cx="17.937" cy="255.785" rx="4.7033" ry="3.119" fill="url(#paint0_linear_8980_5538)"/>
<ellipse cx="17.937" cy="255.676" rx="3.26339" ry="2.16377" fill="url(#paint1_linear_8980_5538)"/>
<path d="M446.458 248.082V266.314C446.458 268.183 445.454 269.912 443.83 270.846L398.649 296.687C397.831 297.157 396.937 297.378 396.061 297.378C394.251 297.378 392.488 296.438 391.524 294.749C390.091 292.248 390.962 289.057 393.462 287.623L436.014 263.279V251.088L351.02 202.356L314.897 222.695L314.566 210.886L348.497 191.789C350.11 190.877 352.082 190.889 353.684 191.824L443.858 243.567C445.466 244.501 446.458 246.219 446.458 248.082V248.082Z" fill="url(#paint2_linear_8980_5538)"/>
<path d="M325.565 319.779L371.126 345.741L413.279 321.625L367.829 295.661L325.565 319.779Z" fill="url(#paint3_linear_8980_5538)"/>
<path d="M356.44 322.488C356.301 322.579 356.161 322.669 356.015 322.753C353.589 324.155 350.473 323.743 347.621 321.965L351.713 319.211C352.327 318.855 352.773 318.298 353.045 317.607C353.617 316.136 353.394 314.072 352.299 312.19C351.219 310.307 349.546 309.08 347.984 308.843C347.252 308.732 346.541 308.836 345.928 309.192L341.403 312.232C341.152 312.378 340.929 312.559 340.741 312.769C339.2 307.874 340.218 303.105 343.557 301.181C347.698 298.789 353.84 301.676 357.284 307.637C360.602 313.389 360.191 319.887 356.44 322.488H356.44Z" fill="#282526" stroke="#E9024D"/>
<path d="M370.431 313.745L370.445 313.759L370.375 313.8C370.061 314.086 369.726 314.344 369.35 314.56C369.085 314.714 368.806 314.846 368.52 314.958L356.44 322.488C360.19 319.887 360.601 313.389 357.283 307.637C353.839 301.676 347.698 298.789 343.557 301.18L356.9 292.981C361.04 290.59 367.182 293.483 370.626 299.437C373.735 304.827 373.554 310.865 370.431 313.745H370.431Z" fill="#282526" stroke="#E9024D"/>
<path d="M353.045 317.607C352.773 318.298 352.327 318.855 351.713 319.211L347.621 321.965C347.614 321.965 347.607 321.951 347.607 321.951C349.134 320.647 349.245 317.782 347.775 315.237C346.178 312.469 343.32 311.123 341.403 312.232L345.927 309.192C346.541 308.836 347.252 308.732 347.984 308.843C349.545 309.08 351.218 310.307 352.299 312.19C353.393 314.072 353.616 316.136 353.045 317.607H353.045Z" stroke="#E9024D"/>
<path d="M347.622 321.965L347.461 322.07C347.51 322.035 347.559 322 347.608 321.951C347.608 321.951 347.615 321.965 347.622 321.965Z" stroke="#00C8FF"/>
<path d="M347.607 321.951C347.558 322 347.51 322.035 347.461 322.07C347.37 322.139 347.28 322.202 347.182 322.258C345.265 323.366 342.406 322.021 340.81 319.253C339.423 316.847 339.444 314.163 340.741 312.769C340.929 312.559 341.152 312.378 341.403 312.232C343.32 311.123 346.178 312.469 347.774 315.237C349.245 317.782 349.134 320.647 347.607 321.951L347.607 321.951Z" fill="#282526" stroke="#E9024D"/>
<path d="M413.279 356.604V321.626L371.126 345.741V380.719L413.279 356.604Z" fill="url(#paint4_linear_8980_5538)"/>
<path d="M325.565 319.78V354.757L371.126 380.719V345.742L325.565 319.78Z" fill="url(#paint5_linear_8980_5538)"/>
<path d="M273.976 255.232L274.051 264.965L265.442 270.576L257.846 266.416V264.697L254.832 266.506L222.43 285.712V242.358L365.402 160.561L365.447 160.539L365.752 171.545L366.176 186.688L366.556 200.351L273.976 255.232Z" fill="url(#paint6_linear_8980_5538)"/>
<path d="M222.432 242.383V284.963L94.5528 212.43V171.12L222.411 242.362L222.432 242.383Z" fill="url(#paint7_linear_8980_5538)"/>
<path d="M365.403 160.561L222.43 242.358L222.409 242.365L94.5541 171.119V170.963C153.023 138.486 182 87.3075 191.107 53.7162C195.868 36.1473 196.025 23.9654 196.025 23.9654L231.798 44.2436L269.185 23.0945L269.282 23.1468C269.639 34.748 274.803 51.2682 282.161 68.0116C285.985 76.7402 290.412 85.5212 295.055 93.7067C339.503 168.583 364.198 160.985 365.403 160.561V160.561Z" fill="url(#paint8_linear_8980_5538)"/>
<path d="M365.403 160.561L222.431 242.358L222.409 242.365" stroke="#E9024D"/>
<path d="M223.819 277.677V277.696L223.8 277.683L223.819 277.677Z" fill="white" stroke="black" stroke-linecap="round" stroke-linejoin="round"/>
<path d="M282.157 68.0111C277.247 68.9663 274.718 58.9262 272.946 54.853C272.764 57.7018 270.957 60.3722 270.957 60.3722C267.474 58.6982 266.616 50.1717 266.616 50.1717C266.616 50.1717 264.353 77.3324 261.732 84.1597C257.209 83.5741 251.512 75.2971 248.888 58.291C249.477 72.2663 242.512 84.7949 242.512 84.7949C228.675 79.2756 229.445 56.6874 229.445 56.6874C229.445 56.6874 223.069 83.9345 213.617 90.0401C208.418 76.2468 209.775 62.5866 210.814 49.6753C207.558 61.9571 199.872 66.9743 199.872 66.9743C198.605 63.7642 198.605 59.7831 198.833 44.2397C196.087 49.9681 193.311 52.5758 191.106 53.7157C195.867 36.1449 196.027 23.9635 196.027 23.9635L233.469 2.25449L269.188 23.0954L269.283 23.1491C269.639 34.7448 274.805 51.2678 282.157 68.0111Z" fill="url(#paint9_linear_8980_5538)"/>
<path d="M269.188 22.9432L231.795 44.0877L196.027 23.8116L233.469 2.10258L269.188 22.9432Z" fill="url(#paint10_linear_8980_5538)"/>
<path d="M258.865 22.4413L255.014 24.6827L250.19 27.4885L233.173 37.396L215.909 27.5456L211.028 24.7614L207.132 22.5389L233.138 7.67371L258.865 22.4413Z" fill="url(#paint11_linear_8980_5538)"/>
<path d="M255.014 24.683L250.19 27.4889L233.173 37.3964L215.909 27.5459L211.028 24.7618L233.138 12.1271L255.014 24.683Z" fill="url(#paint12_linear_8980_5538)"/>
<path d="M233.139 7.67371V12.1267L255.015 24.6827L258.865 22.4413L233.139 7.67371Z" fill="url(#paint13_linear_8980_5538)"/>
<path d="M137.51 82.1395L146.466 87.2382L158.522 80.2896L149.566 75.1909L137.51 82.1395Z" fill="url(#paint14_linear_8980_5538)"/>
<path d="M158.522 80.2889V86.485L149.275 97.5778L146.377 92.0593V87.2374L158.522 80.2889Z" fill="url(#paint15_linear_8980_5538)"/>
<path d="M137.51 82.1395L146.377 87.2381V92.0599L137.51 87.2381V82.1395Z" fill="#E9024D"/>
<path d="M137.51 87.2384L141.943 93.0218L149.275 97.5787L146.377 92.0602L137.51 87.2384Z" fill="url(#paint16_linear_8980_5538)"/>
<path d="M121.145 88.7333L128.302 92.6964C130.002 93.6383 132.073 93.6146 133.752 92.635L143.312 87.0564C144.313 86.4722 144.928 85.4005 144.928 84.2417C144.928 83.1687 145.456 82.1646 146.34 81.5567L159.158 74.1291C159.717 73.7442 160 73 160.478 73.4284C160.478 74.1012 161.228 74.5027 161.788 74.1291L165.55 71.6211C167.709 70.1813 169.005 67.7584 169.005 65.1634V57.4534C169.005 54.8799 167.568 52.5226 165.28 51.3442L160.898 49.0859C159.047 48.1321 156.863 48.0693 154.96 48.9151L151.093 47.0653C148.7 45.9205 145.897 46.0334 143.604 47.3659L135.493 52.0784C131.915 54.1576 129.713 57.984 129.713 62.1227V64.3002L126.014 66.7495C123.23 68.593 121.629 71.7731 121.807 75.1087L121.854 76.006L120.721 77.1523C119.037 78.8563 118.092 81.1565 118.092 83.5529C118.092 85.7066 119.262 87.6902 121.145 88.7333Z" fill="white"/>
<path d="M130.667 64.0519L138.342 68.3496L130.667 64.0519Z" fill="white"/>
<path d="M130.667 64.0519L138.342 68.3496" stroke="black" stroke-linecap="round" stroke-linejoin="round"/>
<path d="M158.22 60.0523V54.8781C158.22 52.465 156.992 50.2171 154.96 48.9147" fill="white"/>
<path d="M158.22 60.0523V54.8781C158.22 52.465 156.992 50.2171 154.96 48.9147V48.9147" stroke="black" stroke-linecap="round" stroke-linejoin="round"/>
<path d="M129.341 86.8793L132.841 84.8942C133.628 84.4473 134.114 83.612 134.114 82.707V75.5597" fill="white"/>
<path d="M129.341 86.8793L132.841 84.8942C133.628 84.4473 134.114 83.612 134.114 82.707V75.5597" stroke="black" stroke-linecap="round" stroke-linejoin="round"/>
<path d="M125.432 68.9026L132.095 72.6343C132.723 72.9864 133.489 72.9878 134.118 72.6385L140.719 68.978" fill="white"/>
<path d="M125.432 68.9026L132.095 72.6343C132.723 72.9864 133.489 72.9878 134.118 72.6385L140.719 68.978" stroke="black" stroke-linecap="round" stroke-linejoin="round"/>
<path d="M158.22 59.7242L165.689 55.4884L158.22 59.7242Z" fill="white"/>
<path d="M158.22 59.7242L165.689 55.4884" stroke="black" stroke-linecap="round" stroke-linejoin="round"/>
<path d="M322.163 97.3992L239.071 144.933C245.551 128.53 250.015 124.2 253.144 124.558C255.732 124.853 257.051 128.316 260.106 128.136C262.702 127.983 264.607 125.313 267.209 120.606C274.198 107.961 274.801 103.929 279.406 97.3992C283.757 91.2294 287.722 90.3592 288.883 92.4872C290.043 94.6144 288.786 103.077 289.946 105.737C291.107 108.397 293.186 110.557 295.749 106.479C298.311 102.4 301.357 100.452 302.083 103.385C302.808 106.317 304.499 105.626 306.966 102.756C309.432 99.8854 310.088 94.2755 314.218 96.9355C317.264 98.8975 317.538 98.6855 322.163 97.3992H322.163Z" fill="white"/>
<path d="M200.735 394.716C199.182 394.716 197.645 394.027 196.616 392.707C194.841 390.433 195.246 387.152 197.519 385.377L216.327 370.697V330.256L168.601 302.533C166.993 301.598 166.002 299.878 166.002 298.016V276.336C166.002 274.479 166.988 272.761 168.592 271.825L181.855 264.087C184.349 262.634 187.544 263.477 188.997 265.967C190.45 268.459 189.608 271.656 187.118 273.11L176.446 279.336V295.01L224.172 322.734C225.781 323.668 226.771 325.389 226.771 327.25V373.246C226.771 374.854 226.029 376.373 224.761 377.363L203.945 393.611C202.99 394.356 201.859 394.716 200.735 394.716V394.716Z" fill="url(#paint17_linear_8980_5538)"/>
<g style="mix-blend-mode:screen" opacity="0.35">
<path d="M121.243 366.399L231.828 16.1786L204.214 368.145L164.34 390.957L121.243 366.399Z" fill="url(#paint18_linear_8980_5538)"/>
</g>
<path d="M306.296 306.93C304.494 306.93 302.742 305.998 301.774 304.326C300.327 301.832 301.176 298.636 303.672 297.189L347.763 271.624L319.152 251.185C316.806 249.509 316.262 246.246 317.939 243.899C319.615 241.552 322.877 241.009 325.223 242.685L360.422 267.831C361.866 268.862 362.687 270.556 362.603 272.328C362.518 274.101 361.54 275.709 360.005 276.6L308.91 306.226C308.085 306.703 307.184 306.93 306.296 306.93L306.296 306.93Z" fill="url(#paint19_linear_8980_5538)"/>
<path d="M18.1104 244.276C15.2263 244.293 12.8749 241.968 12.8589 239.083L12.7152 214.034C12.7043 212.088 13.7766 210.297 15.4969 209.387L40.6184 196.106C43.1675 194.758 46.3277 195.733 47.6746 198.282C49.0226 200.833 48.048 203.992 45.4982 205.34L23.1771 217.142L23.3017 239.023C23.3187 241.908 20.9945 244.26 18.1104 244.276V244.276Z" fill="url(#paint20_linear_8980_5538)"/>
<ellipse cx="43.3252" cy="220.027" rx="1.66272" ry="2.64524" stroke="white" stroke-linecap="round"/>
<ellipse cx="78.3179" cy="199.768" rx="1.43599" ry="2.94755" stroke="white" stroke-linecap="round"/>
<path d="M44.9879 219.498L76.882 200.6" stroke="white" stroke-linecap="round"/>
<ellipse cx="34.6627" cy="235.942" rx="1.66272" ry="2.64524" stroke="white" stroke-linecap="round"/>
<ellipse cx="69.6554" cy="215.683" rx="1.43599" ry="2.94755" stroke="white" stroke-linecap="round"/>
<path d="M36.3252 235.413L68.2192 216.515" stroke="white" stroke-linecap="round"/>
<path d="M59.0672 211.156V221.739" stroke="white" stroke-linecap="round"/>
<ellipse cx="309.111" cy="211.248" rx="1.66272" ry="2.64524" stroke="white"/>
<ellipse cx="344.104" cy="190.989" rx="1.43599" ry="2.94755" stroke="white"/>
<path d="M310.774 210.719L342.668 191.821" stroke="white"/>
<ellipse cx="300.449" cy="227.163" rx="1.66272" ry="2.64524" stroke="white"/>
<ellipse cx="335.442" cy="206.905" rx="1.43599" ry="2.94755" stroke="white"/>
<path d="M302.112 226.634L334.006 207.736" stroke="white"/>
<path d="M324.854 202.377V212.961" stroke="white"/>
<path d="M154.186 427.352L163.897 432.885L172.882 427.745L163.195 422.211L154.186 427.352Z" stroke="#E9024D" stroke-linecap="round" stroke-linejoin="round"/>
<path d="M172.882 427.745V438.419L163.897 443.559V432.885L172.882 427.745Z" stroke="#E9024D" stroke-linecap="round" stroke-linejoin="round"/>
<path d="M204.455 411.105L193.771 417.359V444.295L198.263 441.342V427.233L204.455 423.691L204.455 411.105Z" stroke="#E9024D" stroke-linecap="round" stroke-linejoin="round"/>
<path d="M189.279 414.622L184.786 411.884V423.92L189.279 426.873V441.342L193.771 444.295V417.359L189.279 414.622Z" stroke="#E9024D" stroke-linecap="round" stroke-linejoin="round"/>
<path d="M154.186 427.352L163.897 432.885V443.559L154.186 438.026V427.352Z" stroke="#E9024D" stroke-linecap="round" stroke-linejoin="round"/>
<path d="M193.771 417.36L204.455 411.106L195.292 405.969L184.786 411.885L193.771 417.36Z" stroke="#E9024D" stroke-linecap="round" stroke-linejoin="round"/>
<path d="M164.34 390.957V428.56L154.366 422.861C154.911 418.822 154.059 414.366 153.13 410.432C152.063 405.928 150.212 401.494 147.862 397.45L128.89 408.307L128.884 408.302L121.243 403.938V366.399L161.77 389.494L164.34 390.957Z" fill="url(#paint21_linear_8980_5538)"/>
<path d="M204.214 368.145V405.76L164.34 428.56V390.957L204.214 368.145Z" fill="url(#paint22_linear_8980_5538)"/>
<path d="M200.185 377.888V398.442L169.388 416.055V395.512L193.53 381.695L200.185 377.888Z" fill="url(#paint23_linear_8980_5538)"/>
<path d="M193.53 381.695V395.274L169.388 409.079V395.512L193.53 381.695Z" fill="url(#paint24_linear_8980_5538)"/>
<path d="M283.277 217.704V236.501L249.856 255.611V236.829L280.004 219.58L283.277 217.704Z" fill="#282526"/>
<path d="M280.004 219.579V233.733L249.856 250.975V236.829L280.004 219.579Z" fill="#E9024D"/>
<path d="M321.435 160L254.404 198.359V229.663L321.435 191.304V160Z" fill="#E9024D"/>
<path d="M317.373 167.004V188.949L258.466 222.659V200.715L317.373 167.004Z" fill="#282526"/>
<path d="M317.332 183.45L258.424 217.16" stroke="white"/>
<path d="M39.0483 313.506V348.483L84.6091 374.445V339.468L39.0483 313.506Z" fill="url(#paint25_linear_8980_5538)"/>
<path d="M39.0483 313.506L84.6091 339.468L126.762 315.352L81.3128 289.388L39.0483 313.506Z" fill="url(#paint26_linear_8980_5538)"/>
<path d="M84.2274 289.558L84.1852 289.521L84.1733 289.517C82.9673 288.609 81.3722 287.987 79.2635 287.881L79.2417 287.874L79.2376 287.881C79.016 287.87 78.7954 287.858 78.5626 287.86C68.0677 287.904 62.4285 303.976 63.2577 313.646L87.8798 327.401L107.897 302.955C107.897 302.955 84.4602 289.736 84.2274 289.558Z" fill="url(#paint27_linear_8980_5538)"/>
<path d="M147.862 397.45L128.889 408.308L128.884 408.302C127.201 403.004 125.802 396.336 127.607 390.928C128.878 387.127 132.568 385.143 136.427 386.077C140.656 387.098 144.195 391.688 146.458 395.159C146.945 395.907 147.415 396.673 147.862 397.45H147.862Z" fill="url(#paint28_linear_8980_5538)"/>
<path d="M121.243 366.399L164.34 390.957L204.214 368.146L161.222 343.585L121.243 366.399Z" fill="url(#paint29_linear_8980_5538)"/>
<path d="M182.995 340.798L180.522 338.079C180.384 337.896 180.239 337.718 180.085 337.545C179.907 337.347 179.72 337.162 179.526 336.984L179.502 336.957L179.498 336.959C174.59 332.457 164.792 334.19 157.084 341.088C149.669 347.724 146.792 356.811 150.08 362.279L150.083 362.294L150.103 362.318C150.37 362.756 150.671 363.172 151.017 363.56C151.27 363.843 151.543 364.102 151.828 364.345L153.927 366.812L154.808 366.023C160.088 367.825 167.746 365.63 174.018 360.016C180.29 354.404 183.319 347.034 182.113 341.586L182.995 340.798Z" fill="url(#paint30_linear_8980_5538)"/>
<path d="M182.356 348.695L173.773 334.838" stroke="#E9024D" stroke-linecap="round" stroke-linejoin="round"/>
<path d="M168.143 335.362L179.418 353.121L180.888 354.622" stroke="#E9024D" stroke-linecap="round" stroke-linejoin="round"/>
<path d="M163.326 337.375L175.84 358.691L177.862 357.797" stroke="#E9024D" stroke-linecap="round" stroke-linejoin="round"/>
<path d="M157.842 341.149L175.046 360.864L174.833 360.965" stroke="#E9024D" stroke-linecap="round" stroke-linejoin="round"/>
<path d="M168.423 363.772L152.95 346.04" stroke="#E9024D" stroke-linecap="round" stroke-linejoin="round"/>
<path d="M163.436 365.947L150.292 350.88" stroke="#E9024D" stroke-linecap="round" stroke-linejoin="round"/>
<path d="M159.012 367.847L148.838 356.184" stroke="#E9024D" stroke-linecap="round" stroke-linejoin="round"/>
<ellipse rx="19.5041" ry="12.6988" transform="matrix(0.74516 -0.666886 0.666766 0.745267 168.461 353.805)" fill="url(#paint31_linear_8980_5538)"/>
<path d="M180.644 342.902C184.564 347.283 182.287 355.716 175.559 361.738C168.83 367.76 160.198 369.089 156.278 364.708" stroke="black" stroke-linecap="round" stroke-linejoin="round"/>
<path d="M193.53 395.274L200.185 398.442V377.888L193.53 381.695V395.274Z" fill="url(#paint32_linear_8980_5538)"/>
<path d="M335.274 333.337V351.58L362.609 367.212V348.979L341.181 336.716L335.274 333.337Z" fill="url(#paint33_linear_8980_5538)"/>
<path d="M341.181 336.716V348.768L362.609 361.021V348.979L341.181 336.716Z" fill="url(#paint34_linear_8980_5538)"/>
<path d="M341.181 348.768L335.274 351.58V333.337L341.181 336.716V348.768Z" fill="url(#paint35_linear_8980_5538)"/>
<path d="M136.33 362.414L141.455 360.78" stroke="white" stroke-linecap="round"/>
<path d="M140.488 336.881L144.742 340.595" stroke="white" stroke-linecap="round"/>
<path d="M152.672 324.719L154.799 329.626" stroke="white" stroke-linecap="round"/>
<path d="M175.687 320.826L174.641 326.676" stroke="white" stroke-linecap="round"/>
<path d="M191.159 333.399L187.774 337.969" stroke="white" stroke-linecap="round"/>
<path d="M192.803 349.067L189.467 350.64" stroke="white" stroke-linecap="round"/>
<ellipse rx="2.22413" ry="3.88996" transform="matrix(0.972429 -0.2332 0.233129 0.972446 53.419 342.557)" stroke="white" stroke-linecap="round" stroke-linejoin="round"/>
<path d="M126.762 350.33V315.352L84.6093 339.468V374.445L126.762 350.33Z" fill="#282526"/>
<path d="M237.021 367.436L282.582 393.398L324.735 369.283L279.285 343.319L237.021 367.436Z" fill="url(#paint36_linear_8980_5538)"/>
<path d="M259.139 364.735C256.255 364.735 253.918 362.397 253.918 359.512V329.047C253.918 327.184 254.909 325.463 256.521 324.529L289.381 305.475C291.877 304.028 295.071 304.879 296.517 307.375C297.964 309.869 297.114 313.065 294.618 314.512L264.361 332.056V359.512C264.361 362.397 262.023 364.735 259.139 364.735L259.139 364.735Z" fill="url(#paint37_linear_8980_5538)"/>
<path d="M324.735 404.261V369.283L282.582 393.398V428.376L324.735 404.261Z" fill="#282526" stroke="#E9024D"/>
<g style="mix-blend-mode:screen" opacity="0.35">
<path d="M301.402 362.855V340.21L274.111 355.823V378.468L301.402 362.855Z" fill="url(#paint38_linear_8980_5538)"/>
</g>
<g style="mix-blend-mode:screen" opacity="0.35">
<path d="M310.315 368.038V345.393L283.024 361.005V383.651L310.315 368.038Z" fill="url(#paint39_linear_8980_5538)"/>
</g>
<g style="mix-blend-mode:screen" opacity="0.35">
<path d="M301.402 340.21L274.111 355.823L301.402 340.21Z" fill="url(#paint40_linear_8980_5538)"/>
</g>
<path d="M324.735 379.932L282.582 404.047L324.735 379.932Z" fill="#282526"/>
<path d="M324.735 379.932L282.582 404.047" stroke="#E9024D"/>
<path d="M294.549 421.536V404.047L289.876 406.781V424.202L294.549 421.536Z" fill="url(#paint41_linear_8980_5538)"/>
<path d="M305.773 415.116V397.628L301.1 400.362V417.783L305.773 415.116Z" fill="url(#paint42_linear_8980_5538)"/>
<path d="M316.997 408.697V391.208L312.324 393.942V411.364L316.997 408.697Z" fill="url(#paint43_linear_8980_5538)"/>
<path d="M237.021 367.436V402.414L282.582 428.376V393.398L237.021 367.436Z" fill="#282526" stroke="#E9024D"/>
<path d="M103.397 344.279L92.0401 350.806V340.808L87.6899 343.361" stroke="white" stroke-linecap="round"/>
<path d="M103.52 350.443L92.8676 356.566V364.977L87.6899 367.884" stroke="white" stroke-linecap="round"/>
<path d="M74.066 368.438V341.132L53.4187 329.319V338.67" stroke="white" stroke-linecap="round" stroke-linejoin="round"/>
<ellipse rx="1.59556" ry="0.761516" transform="matrix(0.250097 -0.968221 0.968201 0.250172 86.9275 343.724)" stroke="white" stroke-linecap="round"/>
<ellipse rx="1.59556" ry="0.761516" transform="matrix(0.250097 -0.968221 0.968201 0.250172 87.0851 367.884)" stroke="white" stroke-linecap="round"/>
<path d="M112.222 313.424C112.222 313.424 113.363 301.731 102.994 301.775C92.499 301.819 86.8601 317.891 87.6896 327.561L112.222 313.424Z" fill="url(#paint44_linear_8980_5538)"/>
<path d="M95.1107 312.855C93.3407 315.628 92.2909 319.255 92.0588 322.423C91.989 323.335 91.989 324.205 92.0588 325.006L94.3564 323.694L104.382 317.955L107.875 315.959L97.5479 310.052C96.6268 310.799 95.8112 311.759 95.1107 312.855L95.1107 312.855Z" fill="#282526"/>
<path d="M101.91 308.404C100.265 308.411 98.8066 309.031 97.5478 310.052L107.875 315.959C107.875 315.959 108.589 308.375 101.91 308.404V308.404Z" fill="url(#paint45_linear_8980_5538)"/>
<path d="M113.363 322.906V358.048L103.396 363.816V328.674L94.3563 323.695L92.0587 322.424C92.2908 319.255 93.3406 315.628 95.1106 312.855L104.381 317.955L113.363 322.906Z" fill="white"/>
<path d="M61.1444 309.176C60.6222 308.77 59.9755 308.479 59.1535 308.418C53.9482 308.036 52.1458 315.418 52.5056 319.618L77.1635 333.506L85.3693 322.82L61.1444 309.176Z" fill="url(#paint46_linear_8980_5538)"/>
<path d="M87.8799 327.401C87.8799 327.401 87.5613 322.578 83.8555 322.305C78.6499 321.923 76.8479 329.306 77.2084 333.506L87.8799 327.401Z" fill="url(#paint47_linear_8980_5538)"/>
<ellipse cx="231.828" cy="10.9762" rx="10.9744" ry="10.9762" fill="url(#paint48_linear_8980_5538)"/>
<ellipse cx="231.828" cy="16.1785" rx="4.05077" ry="4.05143" stroke="white" stroke-linecap="round" stroke-linejoin="round"/>
<circle cx="231.828" cy="17.6267" r="2.37159" fill="#1D1E29"/>
<path d="M121.243 366.398L232.113 17.6267L204.214 368.145" stroke="#E9024D" stroke-linecap="round" stroke-linejoin="round"/>
<path d="M152.672 306.931L231.827 17.627" stroke="#E9024D"/>
<path d="M232.113 17.627L187.774 321.626" stroke="#E9024D" stroke-linecap="round" stroke-linejoin="round"/>
<path d="M382.743 96.9609L335.016 124.274V101.984L382.743 74.6714V96.9609Z" stroke="white" stroke-linecap="round" stroke-linejoin="round"/>
<path d="M428.966 143.067L407.308 155.52V133.23L428.966 120.778V143.067Z" stroke="white" stroke-linecap="round" stroke-linejoin="round"/>
<path d="M428.966 151.02L407.308 163.472" stroke="#E9024D"/>
<path d="M428.966 156.526L407.308 168.979" stroke="#E9024D"/>
<ellipse rx="32.2656" ry="20.0899" transform="matrix(0.432179 -0.901788 0.901733 0.432293 377.034 155.872)" stroke="#E9024D"/>
<ellipse rx="15.3373" ry="8.53556" transform="matrix(0.432179 -0.901788 0.901733 0.432293 378.039 156.111)" stroke="#E9024D"/>
<g style="mix-blend-mode:screen" opacity="0.35">
<path fill-rule="evenodd" clip-rule="evenodd" d="M390.979 126.776C380.974 121.979 366.619 131.118 358.918 147.187C351.217 163.257 353.085 180.172 363.089 184.969C373.095 189.765 387.448 180.626 395.149 164.556C402.851 148.487 400.984 131.572 390.979 126.776ZM385.736 159.8C382.076 167.439 375.662 171.979 371.411 169.941C367.16 167.904 366.682 160.059 370.343 152.42C374.004 144.782 380.417 140.241 384.668 142.279C388.919 144.317 389.398 152.162 385.736 159.8Z" fill="url(#paint49_linear_8980_5538)"/>
</g>
<path d="M386.812 125.59L382.743 141.8" stroke="#E9024D"/>
<path d="M387.982 147.384L399.138 138.149" stroke="#E9024D"/>
<path d="M355.683 155.872L368.572 157.246" stroke="#E9024D"/>
<path d="M357.642 180.118L369.281 168.011" stroke="#E9024D"/>
<path d="M365.244 106.975V125.59L377.034 118.26V132.553" stroke="white"/>
<path d="M339.615 103.559V115.165L378.04 92.6817" stroke="white" stroke-linecap="round" stroke-linejoin="round"/>
<path d="M340.012 107.254C340.637 106.711 341.76 106.944 342.117 107.692C342.476 108.445 342.158 109.526 342.822 110.029C343.221 110.332 343.803 110.245 344.238 109.998C345.707 109.164 345.835 106.971 346.341 105.535C347.213 103.056 348.489 99.8227 350.648 98.1814C350.869 98.0134 351.11 97.8565 351.383 97.8077C351.883 97.7185 352.393 98.0224 352.672 98.447C352.951 98.8717 353.038 99.3932 353.066 99.9007C353.094 100.408 353.069 100.919 353.153 101.421C353.381 102.788 354.859 102.37 355.548 101.594C356.054 101.024 356.343 100.296 356.789 99.6783C357.244 99.0501 357.9 98.5252 358.667 98.4157C359.123 98.3515 359.616 98.4624 359.994 98.7294C360.429 99.0376 360.562 99.5947 361.035 99.8638C361.644 100.211 362.413 99.7934 362.887 99.2768C363.437 98.6772 363.819 97.9883 364.659 97.7589C365.136 97.6278 365.644 97.6592 366.128 97.5567C366.985 97.3754 367.69 96.7981 368.409 96.2982C369.233 95.723 369.977 95.5013 370.959 95.4106C371.927 95.3213 372.973 95.2168 373.817 94.6918" stroke="white" stroke-linecap="round" stroke-linejoin="round"/>
<ellipse rx="2.22651" ry="1.66605" transform="matrix(0.768845 -0.639435 0.639312 0.768947 377.473 134.007)" stroke="white"/>
<ellipse cx="406.592" cy="163.378" rx="1.05162" ry="2.24828" stroke="#E9024D"/>
<ellipse cx="406.592" cy="169.217" rx="1.05162" ry="2.24828" stroke="#E9024D"/>
<ellipse cx="429.836" cy="150.974" rx="1.05162" ry="2.24828" stroke="#E9024D"/>
<ellipse cx="429.836" cy="156.813" rx="1.05162" ry="2.24828" stroke="#E9024D"/>
<path d="M411.173 149.209L414.461 135.379L418.137 143.116L422.39 128.802L423.647 134.702L425.968 125.59" stroke="white" stroke-linecap="round" stroke-linejoin="round"/>
<path d="M265.443 270.576V260.359L257.847 264.7V266.416L265.443 270.576Z" fill="url(#paint50_linear_8980_5538)"/>
<path d="M390.753 264.467C390.698 264.426 390.642 264.388 390.586 264.353L390.558 264.334V264.337C389.816 263.901 388.955 263.988 388.013 264.834C385.185 267.373 385.91 273.9 384.387 283.621C383.325 290.395 382.932 294.314 381.883 296.338L379.966 291.714L375.946 288.625C375.828 288.513 375.704 288.414 375.571 288.337L375.564 288.333V288.335C375.3 288.184 375.005 288.104 374.669 288.118C370.97 288.263 370.1 299.434 370.317 309.444C370.535 319.454 367.996 320.252 364.124 325.257C360.252 330.262 362.474 330.872 362.474 330.872L367.772 334.468L393.408 313.651L396.055 268.067L390.753 264.467Z" fill="url(#paint51_linear_8980_5538)"/>
<path d="M367.772 334.468C367.772 334.468 365.55 333.858 369.422 328.854C373.294 323.848 375.833 323.051 375.615 313.04C375.398 303.03 376.268 291.86 379.966 291.714C383.665 291.569 382.65 302.378 385.334 301.579C388.017 300.782 388.162 296.937 389.685 287.217C391.207 277.497 390.483 270.97 393.311 268.431C396.14 265.892 398.243 270.159 398.533 275.061C398.823 279.964 398.707 317.248 398.707 317.248L367.772 334.468Z" fill="white"/>
<path d="M271.422 196.848L274.42 195.04C274.787 194.819 275.134 194.784 275.462 194.936C275.792 195.086 275.958 195.409 275.961 195.904C275.962 196.089 275.905 196.281 275.789 196.48C275.673 196.68 275.545 196.822 275.403 196.907C275.207 197.025 275.072 197.057 274.998 197C274.924 196.944 274.854 196.799 274.786 196.565C274.718 196.332 274.568 196.285 274.34 196.423L271.491 198.14C271.354 198.223 271.286 198.315 271.286 198.414C271.283 198.48 271.311 198.535 271.371 198.582L275.688 202.159C275.897 202.333 276.001 202.59 276.003 202.93C276.006 203.317 275.883 203.732 275.636 204.176C275.389 204.62 275.112 204.934 274.806 205.118L271.703 206.99C271.291 207.237 270.933 207.276 270.627 207.106C270.321 206.936 270.167 206.64 270.164 206.218C270.161 205.733 270.361 205.37 270.763 205.127C270.918 205.034 271.051 205.017 271.161 205.077C271.272 205.137 271.327 205.253 271.328 205.422C271.329 205.562 271.372 205.652 271.457 205.694C271.542 205.736 271.649 205.718 271.776 205.641L274.641 203.915C274.764 203.84 274.826 203.747 274.825 203.637C274.828 203.584 274.799 203.533 274.739 203.486L270.43 199.905C270.226 199.733 270.124 199.474 270.121 199.129C270.119 198.727 270.245 198.301 270.499 197.85C270.754 197.399 271.061 197.065 271.422 196.848L271.422 196.848Z" fill="white"/>
<path d="M281.812 199.592L283.891 198.339C284.051 198.243 284.189 198.223 284.307 198.278C284.424 198.335 284.483 198.453 284.484 198.633C284.485 198.814 284.428 199.002 284.312 199.199C284.196 199.395 284.058 199.541 283.899 199.638L281.747 200.935C281.473 201.1 281.19 201.173 280.895 201.153C280.602 201.133 280.398 201.037 280.282 200.864L278.935 198.766C278.755 198.455 278.663 198.082 278.66 197.644C278.658 197.159 278.739 196.689 278.907 196.231L280.232 192.553C280.358 192.208 280.555 191.853 280.824 191.487C281.092 191.121 281.352 190.862 281.603 190.711L283.878 189.339C284.038 189.243 284.174 189.225 284.287 189.287C284.399 189.348 284.456 189.467 284.458 189.642C284.458 189.822 284.404 190.012 284.293 190.211C284.181 190.409 284.046 190.557 283.886 190.653L281.694 191.975C281.512 192.086 281.364 192.296 281.251 192.607L279.991 196.065C279.892 196.337 279.843 196.618 279.846 196.906C279.846 197.212 279.903 197.447 280.014 197.612L281.248 199.522C281.364 199.727 281.552 199.749 281.812 199.592L281.812 199.592Z" fill="white"/>
<path fill-rule="evenodd" clip-rule="evenodd" d="M287.169 196.759L289.432 186.476C289.523 186.098 289.716 185.82 290.012 185.642C290.298 185.469 290.479 185.497 290.554 185.726L292.904 193.364C292.923 193.42 292.932 193.478 292.933 193.54C292.933 193.721 292.879 193.907 292.771 194.1C292.662 194.292 292.537 194.431 292.395 194.516C292.094 194.698 291.901 194.656 291.816 194.392L291.351 192.903L288.715 194.491L288.226 196.682C288.212 196.772 288.156 196.885 288.055 197.02C287.955 197.155 287.844 197.26 287.726 197.331C287.556 197.433 287.414 197.453 287.304 197.391C287.193 197.329 287.137 197.204 287.135 197.019C287.135 196.942 287.146 196.855 287.169 196.759L287.169 196.759ZM290.021 188.654L289.057 192.966L291.004 191.792L290.021 188.654Z" fill="white"/>
<path d="M301.355 179.472L301.413 189.081L299.868 190.012L296.719 183.903L296.763 191.232C296.764 191.412 296.709 191.599 296.597 191.793C296.486 191.986 296.351 192.131 296.191 192.228C296.031 192.325 295.895 192.343 295.783 192.284C295.67 192.225 295.613 192.106 295.612 191.926L295.554 182.302L297.075 181.385L300.233 187.472L300.19 180.175C300.188 179.994 300.246 179.803 300.362 179.601C300.478 179.4 300.615 179.251 300.775 179.155C300.935 179.058 301.071 179.04 301.184 179.101C301.297 179.164 301.353 179.287 301.355 179.472Z" fill="white"/>
<path d="M176.446 279.336V276.337V279.336Z" fill="white"/>
<path d="M176.446 279.336V276.337" stroke="black" stroke-linecap="round" stroke-linejoin="round"/>
<path d="M176.446 295.01L173.78 293.552" stroke="#E9024D" stroke-linecap="round" stroke-linejoin="round"/>
<path d="M216.327 330.256V327.561" stroke="black" stroke-linecap="round" stroke-linejoin="round"/>
<path d="M216.327 370.697V375.373" stroke="black" stroke-linecap="round" stroke-linejoin="round"/>
<path d="M99.9514 320.955L108.613 325.408V336.88" stroke="#282526"/>
<path d="M105.686 330.304V355.088" stroke="#282526"/>
<path d="M111.187 345.807V359.307" stroke="#282526"/>
<path d="M94.5539 186.709V199.113L77.3839 188.111L57.2026 198.632C54.651 199.964 51.4929 198.974 50.1616 196.415C48.83 193.856 49.8198 190.704 52.3782 189.373L75.2368 177.45C76.8962 176.586 78.8898 176.676 80.4652 177.687L94.5539 186.709Z" fill="url(#paint52_linear_8980_5538)"/>
<path d="M77.3811 188.111V180.776" stroke="#E9024D"/>
<ellipse cx="54.5713" cy="194.014" rx="5.00425" ry="5.00506" fill="url(#paint53_linear_8980_5538)" stroke="#E9024D"/>
<ellipse cx="54.5715" cy="194.014" rx="3.70819" ry="3.70879" fill="url(#paint54_linear_8980_5538)"/>
<path d="M56.8059 294.135C55.9045 294.135 54.9913 293.901 54.159 293.41L15.2855 270.488C13.6928 269.549 12.7152 267.839 12.7152 265.989V258.058C12.7152 255.174 15.0533 252.836 17.9375 252.836C20.8216 252.836 23.159 255.174 23.159 258.058V263.006L59.4627 284.412C61.9472 285.877 62.774 289.079 61.3093 291.563C60.3347 293.216 58.594 294.135 56.8059 294.135L56.8059 294.135Z" fill="url(#paint55_linear_8980_5538)"/>
<ellipse cx="306.244" cy="301.797" rx="4.22185" ry="4.22253" fill="url(#paint56_linear_8980_5538)"/>
<path d="M436.014 263.28L439.872 265.166L436.014 263.28Z" fill="white"/>
<path d="M436.014 263.28L439.872 265.166" stroke="black" stroke-linecap="round" stroke-linejoin="round"/>
<path d="M436.014 251.087V247.467V251.087Z" fill="white"/>
<path d="M436.014 251.087V247.467" stroke="black" stroke-linecap="round" stroke-linejoin="round"/>
<path d="M347.763 271.624L350.836 269.76L347.763 271.624Z" fill="white"/>
<path d="M347.763 271.624L350.836 269.76" stroke="black" stroke-linecap="round" stroke-linejoin="round"/>
<path d="M264.361 332.056L260.88 329.627L264.361 332.056Z" fill="white"/>
<path d="M264.361 332.056L260.88 329.627" stroke="black" stroke-linecap="round" stroke-linejoin="round"/>
<path d="M495.756 491.158L486.962 499.953L478.169 491.158L471.272 498.056L480.065 506.851L471.272 515.646L478.169 522.544L486.962 513.749L495.756 522.544L502.652 515.646L493.859 506.851L502.652 498.056L495.756 491.158Z" fill="url(#paint57_linear_8980_5538)"/>
<path d="M494.618 484.493L485.825 493.288L477.032 484.493L470.135 491.391L478.928 500.186L470.135 508.98L477.032 515.878L485.825 507.083L494.618 515.878L501.515 508.98L492.722 500.186L501.515 491.391L494.618 484.493Z" stroke="white"/>
<path fill-rule="evenodd" clip-rule="evenodd" d="M460.02 47.1742L438.216 34.2797L437.993 59.6446L460.02 47.1742ZM452.907 47.107L441.61 53.5037L441.729 40.4894L452.907 47.107Z" fill="#E9024D"/>
<path d="M343.171 538.189C343.171 541.398 340.57 543.999 337.362 543.999C334.153 543.999 331.551 541.398 331.551 538.189C331.551 534.979 334.153 532.378 337.362 532.378C340.57 532.378 343.171 534.979 343.171 538.189Z" fill="url(#paint58_linear_8980_5538)"/>
<path d="M339.333 534.35C339.333 537.559 336.731 540.161 333.522 540.161C330.314 540.161 327.713 537.559 327.713 534.35C327.713 531.141 330.314 528.539 333.522 528.539C336.731 528.539 339.333 531.141 339.333 534.35Z" stroke="white"/>
<path d="M537.458 293.682H527.553V283.776H522.134V293.682H512.23V299.102H522.134V309.008H527.553V299.102H537.458V293.682Z" fill="url(#paint59_linear_8980_5538)"/>
<path d="M428.933 203.956L451.627 218.318L474.322 203.956L497.016 218.318L519.713 203.956L542.41 218.318" stroke="#E9024D"/>
<path d="M429.238 189.596L451.931 203.957L474.627 189.596L497.321 203.957L520.018 189.596L542.715 203.957" stroke="#E9024D"/>
<circle cx="15.5392" cy="102.539" r="13.5392" stroke="#E9024D" stroke-width="3" stroke-linecap="round"/>
<defs>
<linearGradient id="paint0_linear_8980_5538" x1="32.9139" y1="260.091" x2="29.1171" y2="244.25" gradientUnits="userSpaceOnUse">
<stop stop-color="#E9024D"/>
<stop offset="1" stop-color="#101010"/>
</linearGradient>
<linearGradient id="paint1_linear_8980_5538" x1="7.29499" y1="246.835" x2="8.26077" y2="258.697" gradientUnits="userSpaceOnUse">
<stop stop-color="#E9024D"/>
<stop offset="0.0743305" stop-color="#D90348"/>
<stop offset="1" stop-color="#101010"/>
</linearGradient>
<linearGradient id="paint2_linear_8980_5538" x1="495.007" y1="241.694" x2="401.199" y2="140.114" gradientUnits="userSpaceOnUse">
<stop stop-color="#E9024D"/>
<stop offset="1" stop-color="#101010"/>
</linearGradient>
<linearGradient id="paint3_linear_8980_5538" x1="325.565" y1="345.741" x2="413.279" y2="345.741" gradientUnits="userSpaceOnUse">
<stop stop-color="#E9024D"/>
<stop offset="0.0455207" stop-color="#EA044E"/>
<stop offset="1" stop-color="#FA246B"/>
</linearGradient>
<linearGradient id="paint4_linear_8980_5538" x1="400.74" y1="282.067" x2="322.538" y2="311.785" gradientUnits="userSpaceOnUse">
<stop stop-color="#E9024D"/>
<stop offset="1" stop-color="#101010"/>
</linearGradient>
<linearGradient id="paint5_linear_8980_5538" x1="321.007" y1="317.147" x2="330.479" y2="381.616" gradientUnits="userSpaceOnUse">
<stop stop-color="#E9024D"/>
<stop offset="1" stop-color="#101010"/>
</linearGradient>
<linearGradient id="paint6_linear_8980_5538" x1="333.149" y1="430.639" x2="498.417" y2="165.844" gradientUnits="userSpaceOnUse">
<stop stop-color="#E9024D"/>
<stop offset="1" stop-color="#101010"/>
</linearGradient>
<linearGradient id="paint7_linear_8980_5538" x1="36.4911" y1="251.586" x2="175.236" y2="369.359" gradientUnits="userSpaceOnUse">
<stop stop-color="#E9024D"/>
<stop offset="1" stop-color="#101010"/>
</linearGradient>
<linearGradient id="paint8_linear_8980_5538" x1="387.635" y1="280.959" x2="388.466" y2="24.7714" gradientUnits="userSpaceOnUse">
<stop stop-color="#E9024D"/>
<stop offset="1" stop-color="#101010"/>
</linearGradient>
<linearGradient id="paint9_linear_8980_5538" x1="270.16" y1="75.2114" x2="268.216" y2="11.5264" gradientUnits="userSpaceOnUse">
<stop stop-color="white"/>
<stop offset="0.165992" stop-color="#FEF8FB"/>
<stop offset="0.395308" stop-color="#FEE6F0"/>
<stop offset="0.661447" stop-color="#FDC9DE"/>
<stop offset="0.953336" stop-color="#FCA1C6"/>
<stop offset="1" stop-color="#FC9AC2"/>
</linearGradient>
<linearGradient id="paint10_linear_8980_5538" x1="98.3738" y1="-23.7053" x2="114.874" y2="107.683" gradientUnits="userSpaceOnUse">
<stop stop-color="white"/>
<stop offset="1" stop-color="#FC9AC2"/>
</linearGradient>
<linearGradient id="paint11_linear_8980_5538" x1="223.219" y1="39.549" x2="230.882" y2="24.4818" gradientUnits="userSpaceOnUse">
<stop stop-color="#E9024D"/>
<stop offset="0.227603" stop-color="#B8053F"/>
<stop offset="1" stop-color="#101010"/>
</linearGradient>
<linearGradient id="paint12_linear_8980_5538" x1="277.808" y1="53.423" x2="275.947" y2="5.95551" gradientUnits="userSpaceOnUse">
<stop stop-color="#E9024D"/>
<stop offset="0.136603" stop-color="#D10346"/>
<stop offset="0.42373" stop-color="#960735"/>
<stop offset="0.834249" stop-color="#380D1B"/>
<stop offset="1" stop-color="#101010"/>
</linearGradient>
<linearGradient id="paint13_linear_8980_5538" x1="261.388" y1="17.5552" x2="252.83" y2="2.56293" gradientUnits="userSpaceOnUse">
<stop stop-color="#E9024D"/>
<stop offset="1" stop-color="#101010"/>
</linearGradient>
<linearGradient id="paint14_linear_8980_5538" x1="159.037" y1="83.5468" x2="155.865" y2="75.2119" gradientUnits="userSpaceOnUse">
<stop stop-color="#E9024D"/>
<stop offset="1" stop-color="#101010"/>
</linearGradient>
<linearGradient id="paint15_linear_8980_5538" x1="161.152" y1="102.387" x2="159.742" y2="79.073" gradientUnits="userSpaceOnUse">
<stop stop-color="#E9024D"/>
<stop offset="1" stop-color="#101010"/>
</linearGradient>
<linearGradient id="paint16_linear_8980_5538" x1="152.714" y1="95.4306" x2="148.711" y2="82.3836" gradientUnits="userSpaceOnUse">
<stop stop-color="#E9024D"/>
<stop offset="1" stop-color="#101010"/>
</linearGradient>
<linearGradient id="paint17_linear_8980_5538" x1="159.152" y1="299.788" x2="187.69" y2="453.222" gradientUnits="userSpaceOnUse">
<stop stop-color="#E9024D"/>
<stop offset="1" stop-color="#101010"/>
</linearGradient>
<linearGradient id="paint18_linear_8980_5538" x1="121.243" y1="390.957" x2="231.828" y2="390.957" gradientUnits="userSpaceOnUse">
<stop stop-color="#E9024D"/>
<stop offset="1" stop-color="#FC9AC2"/>
</linearGradient>
<linearGradient id="paint19_linear_8980_5538" x1="375.601" y1="273.52" x2="316.832" y2="213.708" gradientUnits="userSpaceOnUse">
<stop stop-color="#E9024D"/>
<stop offset="1" stop-color="#101010"/>
</linearGradient>
<linearGradient id="paint20_linear_8980_5538" x1="41.7322" y1="279.644" x2="110.443" y2="211.712" gradientUnits="userSpaceOnUse">
<stop stop-color="#E9024D"/>
<stop offset="1" stop-color="#101010"/>
</linearGradient>
<linearGradient id="paint21_linear_8980_5538" x1="170.227" y1="447.337" x2="185.25" y2="358.992" gradientUnits="userSpaceOnUse">
<stop stop-color="#E9024D"/>
<stop offset="1" stop-color="#101010"/>
</linearGradient>
<linearGradient id="paint22_linear_8980_5538" x1="212.36" y1="426.594" x2="189.844" y2="362.502" gradientUnits="userSpaceOnUse">
<stop stop-color="#E9024D"/>
<stop offset="1" stop-color="#101010"/>
</linearGradient>
<linearGradient id="paint23_linear_8980_5538" x1="201.703" y1="402.839" x2="185.558" y2="386.972" gradientUnits="userSpaceOnUse">
<stop stop-color="#E9024D"/>
<stop offset="1" stop-color="#101010"/>
</linearGradient>
<linearGradient id="paint24_linear_8980_5538" x1="193.536" y1="407.967" x2="190.199" y2="384.144" gradientUnits="userSpaceOnUse">
<stop stop-color="#E9024D"/>
<stop offset="1" stop-color="#101010"/>
</linearGradient>
<linearGradient id="paint25_linear_8980_5538" x1="39.0483" y1="374.445" x2="84.6091" y2="374.445" gradientUnits="userSpaceOnUse">
<stop stop-color="#E9024D"/>
<stop offset="1" stop-color="#101010"/>
</linearGradient>
<linearGradient id="paint26_linear_8980_5538" x1="71.478" y1="251.426" x2="26.3827" y2="347.177" gradientUnits="userSpaceOnUse">
<stop stop-color="#E9024D"/>
<stop offset="1" stop-color="#101010"/>
</linearGradient>
<linearGradient id="paint27_linear_8980_5538" x1="71.0777" y1="282.928" x2="56.6906" y2="320.82" gradientUnits="userSpaceOnUse">
<stop stop-color="#E9024D"/>
<stop offset="1" stop-color="#101010"/>
</linearGradient>
<linearGradient id="paint28_linear_8980_5538" x1="104.746" y1="431.699" x2="166.81" y2="428.622" gradientUnits="userSpaceOnUse">
<stop stop-color="#E9024D"/>
<stop offset="0.0117183" stop-color="#E5024B"/>
<stop offset="0.217405" stop-color="#A50639"/>
<stop offset="0.413666" stop-color="#6F092A"/>
<stop offset="0.595298" stop-color="#460C1F"/>
<stop offset="0.759135" stop-color="#280E16"/>
<stop offset="0.899486" stop-color="#160F11"/>
<stop offset="1" stop-color="#101010"/>
</linearGradient>
<linearGradient id="paint29_linear_8980_5538" x1="99.5113" y1="355.345" x2="105.674" y2="423.176" gradientUnits="userSpaceOnUse">
<stop stop-color="#E9024D"/>
<stop offset="1" stop-color="#101010"/>
</linearGradient>
<linearGradient id="paint30_linear_8980_5538" x1="149.207" y1="346.922" x2="161.326" y2="364.151" gradientUnits="userSpaceOnUse">
<stop stop-color="#E9024D"/>
<stop offset="1" stop-color="#101010"/>
</linearGradient>
<linearGradient id="paint31_linear_8980_5538" x1="51.3494" y1="34.9144" x2="48.5181" y2="-0.941382" gradientUnits="userSpaceOnUse">
<stop stop-color="#E9024D"/>
<stop offset="0.0455207" stop-color="#EA044E"/>
<stop offset="1" stop-color="#FA246B"/>
</linearGradient>
<linearGradient id="paint32_linear_8980_5538" x1="202.23" y1="390.773" x2="192.515" y2="386.613" gradientUnits="userSpaceOnUse">
<stop stop-color="#E9024D"/>
<stop offset="1" stop-color="#101010"/>
</linearGradient>
<linearGradient id="paint33_linear_8980_5538" x1="348.876" y1="365.236" x2="355.509" y2="354.539" gradientUnits="userSpaceOnUse">
<stop stop-color="#E9024D"/>
<stop offset="1" stop-color="#101010"/>
</linearGradient>
<linearGradient id="paint34_linear_8980_5538" x1="353.89" y1="328.505" x2="338.694" y2="344.126" gradientUnits="userSpaceOnUse">
<stop stop-color="#E9024D"/>
<stop offset="1" stop-color="#101010"/>
</linearGradient>
<linearGradient id="paint35_linear_8980_5538" x1="335.073" y1="340.422" x2="343.655" y2="349.42" gradientUnits="userSpaceOnUse">
<stop stop-color="#E9024D"/>
<stop offset="1" stop-color="#101010"/>
</linearGradient>
<linearGradient id="paint36_linear_8980_5538" x1="237.021" y1="393.398" x2="324.735" y2="393.398" gradientUnits="userSpaceOnUse">
<stop stop-color="#E9024D"/>
<stop offset="0.0455207" stop-color="#EA044E"/>
<stop offset="1" stop-color="#FA246B"/>
</linearGradient>
<linearGradient id="paint37_linear_8980_5538" x1="258.976" y1="283.755" x2="214.086" y2="335.573" gradientUnits="userSpaceOnUse">
<stop stop-color="#E9024D"/>
<stop offset="1" stop-color="#101010"/>
</linearGradient>
<linearGradient id="paint38_linear_8980_5538" x1="274.111" y1="378.468" x2="301.402" y2="378.468" gradientUnits="userSpaceOnUse">
<stop stop-color="#E9024D"/>
<stop offset="1" stop-color="#FC9AC2"/>
</linearGradient>
<linearGradient id="paint39_linear_8980_5538" x1="283.024" y1="383.651" x2="310.315" y2="383.651" gradientUnits="userSpaceOnUse">
<stop stop-color="#E9024D"/>
<stop offset="1" stop-color="#FC9AC2"/>
</linearGradient>
<linearGradient id="paint40_linear_8980_5538" x1="274.111" y1="355.823" x2="301.402" y2="355.823" gradientUnits="userSpaceOnUse">
<stop stop-color="#E9024D"/>
<stop offset="1" stop-color="#FC9AC2"/>
</linearGradient>
<linearGradient id="paint41_linear_8980_5538" x1="289.49" y1="408.975" x2="297.253" y2="413.029" gradientUnits="userSpaceOnUse">
<stop stop-color="#E9024D"/>
<stop offset="1" stop-color="#101010"/>
</linearGradient>
<linearGradient id="paint42_linear_8980_5538" x1="298.894" y1="400.751" x2="310.894" y2="406.16" gradientUnits="userSpaceOnUse">
<stop stop-color="#E9024D"/>
<stop offset="1" stop-color="#101010"/>
</linearGradient>
<linearGradient id="paint43_linear_8980_5538" x1="310.484" y1="394.011" x2="319.746" y2="397.621" gradientUnits="userSpaceOnUse">
<stop stop-color="#E9024D"/>
<stop offset="1" stop-color="#101010"/>
</linearGradient>
<linearGradient id="paint44_linear_8980_5538" x1="87.6092" y1="327.561" x2="112.259" y2="327.561" gradientUnits="userSpaceOnUse">
<stop stop-color="#E9024D"/>
<stop offset="1" stop-color="#101010"/>
</linearGradient>
<linearGradient id="paint45_linear_8980_5538" x1="109.666" y1="318.672" x2="109.759" y2="308.387" gradientUnits="userSpaceOnUse">
<stop stop-color="#E9024D"/>
<stop offset="1" stop-color="#101010"/>
</linearGradient>
<linearGradient id="paint46_linear_8980_5538" x1="61.9114" y1="312.413" x2="57.5772" y2="326.82" gradientUnits="userSpaceOnUse">
<stop stop-color="#E9024D"/>
<stop offset="1" stop-color="#101010"/>
</linearGradient>
<linearGradient id="paint47_linear_8980_5538" x1="85.6998" y1="353.454" x2="116.003" y2="325.2" gradientUnits="userSpaceOnUse">
<stop stop-color="#E9024D"/>
<stop offset="1" stop-color="#101010"/>
</linearGradient>
<linearGradient id="paint48_linear_8980_5538" x1="220.853" y1="21.9524" x2="242.802" y2="21.9524" gradientUnits="userSpaceOnUse">
<stop stop-color="#E9024D"/>
<stop offset="0.0455207" stop-color="#EA044E"/>
<stop offset="1" stop-color="#FA246B"/>
</linearGradient>
<linearGradient id="paint49_linear_8980_5538" x1="354.171" y1="186.245" x2="399.896" y2="186.245" gradientUnits="userSpaceOnUse">
<stop stop-color="#E9024D"/>
<stop offset="1" stop-color="#FC9AC2"/>
</linearGradient>
<linearGradient id="paint50_linear_8980_5538" x1="267.558" y1="272.097" x2="264.051" y2="261.791" gradientUnits="userSpaceOnUse">
<stop stop-color="#E9024D"/>
<stop offset="1" stop-color="#101010"/>
</linearGradient>
<linearGradient id="paint51_linear_8980_5538" x1="388.409" y1="253.219" x2="361.439" y2="267.901" gradientUnits="userSpaceOnUse">
<stop stop-color="#E9024D"/>
<stop offset="1" stop-color="#101010"/>
</linearGradient>
<linearGradient id="paint52_linear_8980_5538" x1="49.5693" y1="199.224" x2="94.5538" y2="199.224" gradientUnits="userSpaceOnUse">
<stop stop-color="#E9024D"/>
<stop offset="1" stop-color="#101010"/>
</linearGradient>
<linearGradient id="paint53_linear_8980_5538" x1="42.452" y1="188.929" x2="45.8806" y2="211.066" gradientUnits="userSpaceOnUse">
<stop stop-color="#E9024D"/>
<stop offset="1" stop-color="#101010"/>
</linearGradient>
<linearGradient id="paint54_linear_8980_5538" x1="46.3565" y1="211.435" x2="62.2175" y2="200.456" gradientUnits="userSpaceOnUse">
<stop stop-color="#E9024D"/>
<stop offset="1" stop-color="#101010"/>
</linearGradient>
<linearGradient id="paint55_linear_8980_5538" x1="63.8683" y1="262.657" x2="26.6784" y2="232.054" gradientUnits="userSpaceOnUse">
<stop stop-color="#E9024D"/>
<stop offset="1" stop-color="#101010"/>
</linearGradient>
<linearGradient id="paint56_linear_8980_5538" x1="304.21" y1="309.978" x2="312.112" y2="303.588" gradientUnits="userSpaceOnUse">
<stop stop-color="#E9024D"/>
<stop offset="1" stop-color="#101010"/>
</linearGradient>
<linearGradient id="paint57_linear_8980_5538" x1="471.272" y1="522.544" x2="502.652" y2="522.544" gradientUnits="userSpaceOnUse">
<stop stop-color="#E9024D"/>
<stop offset="0.0455207" stop-color="#EA044E"/>
<stop offset="1" stop-color="#FA246B"/>
</linearGradient>
<linearGradient id="paint58_linear_8980_5538" x1="331.551" y1="543.999" x2="343.171" y2="543.999" gradientUnits="userSpaceOnUse">
<stop stop-color="#E9024D"/>
<stop offset="0.0455207" stop-color="#EA044E"/>
<stop offset="1" stop-color="#FA246B"/>
</linearGradient>
<linearGradient id="paint59_linear_8980_5538" x1="512.23" y1="309.008" x2="537.458" y2="309.008" gradientUnits="userSpaceOnUse">
<stop stop-color="#E9024D"/>
<stop offset="0.0455207" stop-color="#EA044E"/>
<stop offset="1" stop-color="#FA246B"/>
</linearGradient>
</defs>
</svg>
