<svg width="335" height="262" viewBox="0 0 335 262" fill="none" xmlns="http://www.w3.org/2000/svg">
<path d="M98.3957 71.1818L99.7292 76.215C101.309 76.5955 102.869 77.1439 104.36 77.7915C107.197 79.0233 111.989 82.1058 109.857 85.9436C108.906 87.6545 106.903 88.2454 105.232 88.9412C104.659 89.1794 103.888 89.4372 103.522 89.9857C102.379 91.7013 103.209 99.6229 103.209 99.6229C103.209 99.6229 87.6012 104.24 88.7097 102.05C89.8182 99.8599 96.7197 77.5788 96.7197 77.5788L98.3957 71.1818Z" fill="url(#paint0_linear_9062_8521)"/>
<path d="M134.904 50.1096C134.89 56.396 135.033 64.0419 134.465 68.56C133.872 73.2682 134.034 76.3601 134.23 77.9879C130.412 80.3661 116.113 90.5569 110.665 93.9382C105.155 97.3584 98.3137 95.7826 97.082 96.3898C99.7882 96.1306 101.297 97.4657 103.384 99.6566C106.854 103.299 109.224 113.651 109.224 113.651C109.225 113.651 142.467 93.0091 147.143 87.4544C147.341 87.2183 147.422 86.9317 147.403 86.6077C148.952 83.1909 148.222 76.0606 147.491 69.0767C146.8 62.48 144.955 53.4303 144.116 49.492C141.013 50.4348 137.604 50.4005 134.904 50.1096H134.904Z" fill="url(#paint1_linear_9062_8521)"/>
<path d="M107.323 99.0616C112.669 96.6734 117.364 93.0722 121.974 89.518C125.675 86.6652 129.874 83.9985 134.002 81.7715" stroke="#E9024D" stroke-linecap="round" stroke-linejoin="round"/>
<path d="M108.57 100.806C113.915 98.4174 118.61 94.8162 123.22 91.262C126.921 88.409 131.12 85.7422 135.248 83.5152" stroke="#E9024D" stroke-linecap="round" stroke-linejoin="round"/>
<path d="M153.772 32.2969C153.747 32.3137 153.716 32.3276 153.686 32.3444C153.42 32.4869 152.979 32.6489 152.653 32.7634C152.407 32.8445 152.226 32.9003 152.226 32.9003C152.418 32.2075 151.168 32.4114 151.168 32.4114C151.168 32.4114 151.318 32.0762 151.075 31.8639C151.056 31.8471 151.022 31.8332 150.975 31.8193C150.732 31.7494 150.149 31.7159 149.451 31.6544C148.624 31.579 147.633 31.4589 146.863 31.1795C145.316 30.6208 143.538 31.3192 143.538 31.3192C143.538 31.3192 146.503 28.3384 147.259 27.64C148.016 26.9417 147.259 25.7544 147.259 25.7544L145.836 26.7601L140.233 30.7129C140.233 30.7129 136.28 36.4397 135.348 40.9094C134.986 42.6492 134.913 46.1035 134.904 50.1097C137.604 50.4005 141.013 50.4349 144.116 49.4921C143.854 48.2601 143.689 47.5274 143.689 47.5274C145.799 47.0469 148.446 36.6716 148.446 36.6716C148.918 35.7945 152.343 34.3279 153.32 33.6127C154.297 32.8947 154.185 32.0399 153.772 32.2969L153.772 32.2969Z" fill="url(#paint2_linear_9062_8521)"/>
<path opacity="0.46" d="M109.264 113.507C109.264 113.507 116.726 97.3936 107.458 89.4844C107.458 89.4844 101.935 91.9552 96.6606 96.5437C96.6606 96.5437 104.463 93.1947 109.264 113.507Z" fill="url(#paint3_linear_9062_8521)"/>
<path d="M171.273 138.795C169.841 133.828 170.067 128.549 172.445 124.23L172.593 123.7C155.653 134.269 132.799 148.335 132.799 148.335L145.96 180.321L181.136 154.607L181.135 154.607C176.44 150.439 172.998 144.774 171.273 138.795V138.795Z" fill="url(#paint4_linear_9062_8521)"/>
<path d="M235.515 126.442L235.516 126.442L212.728 113.772C212.728 113.772 210.913 112.561 208.344 111.036C202.718 107.696 195.561 108.125 190.483 112.254C190.354 112.359 190.233 112.479 190.095 112.577C188.371 113.805 181.254 118.295 172.593 123.7L172.445 124.23C170.067 128.549 169.841 133.828 171.273 138.795C172.998 144.774 176.44 150.439 181.135 154.607L181.135 154.607L201.517 139.708C201.517 139.708 211.198 146.988 222.987 153.189V153.188C231.554 144.829 234.505 133.071 235.515 126.442V126.442Z" fill="url(#paint5_linear_9062_8521)"/>
<path d="M302.436 167.153C299.993 171.96 296.063 176.137 291.116 178.38C286.002 180.701 280.176 181.875 274.473 182.148C260.948 174.153 236.218 159.68 226.699 155.065C225.446 154.459 224.203 153.83 222.986 153.188C227.271 149.009 230.149 143.98 232.084 139.167C234.018 134.354 235.009 129.755 235.515 126.442L291.959 157.828L293.064 158.442C293.159 158.361 293.257 158.28 293.355 158.199C293.986 157.68 294.642 157.183 295.314 156.71C295.875 156.317 296.451 155.939 297.034 155.579C299.8 153.864 302.731 152.523 305.269 151.523C306.252 156.691 304.75 162.596 302.436 167.153Z" fill="url(#paint6_linear_9062_8521)"/>
<path d="M172.445 124.23C170.067 128.549 169.841 133.829 171.273 138.795C172.998 144.774 176.44 150.439 181.135 154.607" stroke="#101010" stroke-linecap="round"/>
<path d="M313.222 150.516C312.585 149.735 311.543 149.409 310.576 149.694C309.324 150.063 307.439 150.668 305.27 151.522C306.252 156.692 304.75 162.596 302.436 167.153C299.993 171.961 296.065 176.136 291.117 178.381C286.003 180.701 280.176 181.876 274.474 182.149C279.988 185.41 283.641 187.593 283.641 187.593C283.641 187.593 291.342 194.969 294.213 188.521C297.084 182.073 312.082 160.328 312.898 156.285C313.702 154.22 313.702 152.744 313.702 152.744C313.702 152.744 313.729 151.139 313.222 150.516Z" fill="url(#paint7_linear_9062_8521)"/>
<path d="M160.558 160.964C160.558 160.964 159.471 153.439 162.51 148.046L144.302 160.63C144.008 160.298 143.348 159.585 142.539 158.712C139.248 155.16 137.158 150.663 136.565 145.859C131.395 145.37 124.139 141.314 123.152 140.943C122.19 137.87 119.785 132.568 118.226 129.494L118.221 129.483C117.62 128.302 117.567 126.905 118.123 125.702C118.448 125 118.749 124.162 118.942 123.198C118.942 123.198 118.972 123.095 119.012 122.906C119.561 120.274 118.239 117.606 115.831 116.405C115.551 116.265 115.253 116.12 114.94 115.972C111.131 114.171 108.192 110.934 106.81 106.956C105.71 103.787 104.475 100.635 103.625 99.7069C101.366 97.2418 99.5374 96.1254 96.8284 96.3845C95.0184 97.2756 92.9988 98.2457 92.5917 98.4411C92.531 100.198 92.8144 102.354 92.6602 103.125C92.3933 104.459 91.8702 105.757 88.4581 107.734C86.4098 108.92 80.9331 107.933 76.8828 106.955C76.9043 107.95 76.8286 108.602 76.6232 108.772C75.1396 110 67.9193 118.393 67.9193 118.393C67.9193 118.393 66.8627 118.673 66.4387 120.486C66.0148 122.299 67.018 124.357 70.2999 131.854C73.1924 138.462 95.1277 162.479 95.1277 162.479L116.711 199.735C118.444 202.726 121.212 205.008 124.515 206.029C128.77 207.343 134.961 207.318 142.352 201.576C151.694 194.318 166.477 184.164 175.591 178.004C171.135 176.875 163.4 173.165 160.558 160.964H160.558Z" fill="url(#paint8_linear_9062_8521)"/>
<path d="M100.092 76.3293C101.872 76.7569 103.631 77.3732 105.311 78.1005C108.508 79.4846 113.908 82.9481 111.505 87.2604C110.434 89.1826 108.177 89.8466 106.293 90.6283" stroke="#E9024D" stroke-linecap="round" stroke-linejoin="round"/>
<path d="M144.639 160.814C144.639 160.814 144.047 160.277 140.931 156.423" stroke="#101010" stroke-linecap="round"/>
<path d="M88.7206 107.744C92.1291 105.766 92.6517 104.467 92.9183 103.133C93.0724 102.362 92.7893 100.204 92.8499 98.4473L92.7748 98.4834L91.5186 94.4372L83.4262 86.4952L73.1218 81.2458C73.1218 81.2458 77.0249 100.772 77.1575 106.965C81.2036 107.944 86.6745 108.931 88.7206 107.744H88.7206Z" fill="url(#paint9_linear_9062_8521)"/>
<path d="M227.272 38.2895L192.158 58.4584V43.8978L227.272 23.7289V38.2895Z" fill="#282526"/>
<path d="M195.555 44.4912V53.9415L198.347 52.3291V42.8788L195.555 44.4912Z" fill="url(#paint10_linear_9062_8521)"/>
<path d="M200.766 45.8917V50.9318L203.186 49.5344V44.4943L200.766 45.8917Z" fill="url(#paint11_linear_9062_8521)"/>
<path d="M208.117 39.9779L205.604 41.4292V48.1368L208.117 46.6858V39.9779Z" fill="url(#paint12_linear_9062_8521)"/>
<path d="M210.769 40.0455V45.4678L213.56 43.8554V38.433L210.769 40.0455Z" fill="url(#paint13_linear_9062_8521)"/>
<path d="M215.979 37.4179V42.458L218.399 41.0604V36.0205L215.979 37.4179Z" fill="url(#paint14_linear_9062_8521)"/>
<path d="M223.33 31.5042L220.818 32.9554V39.663L223.33 38.2117V31.5042Z" fill="url(#paint15_linear_9062_8521)"/>
<path d="M49.76 53.4511C49.76 53.4511 52.2045 53.9599 52.2508 58.0752C52.297 62.1904 54.0497 71.3459 64.0589 67.323" stroke="#E9024D" stroke-linecap="round" stroke-linejoin="round"/>
<path opacity="0.46" d="M67.7721 134.657C67.474 134.87 56.5826 132.295 57.8742 127.9C60.1166 125.18 71.4948 125.533 71.4948 125.533L67.7721 134.657Z" fill="url(#paint16_linear_9062_8521)"/>
<path d="M77.7861 100.322C77.7861 100.322 82.9367 102.603 88.1669 99.7797C88.6027 101.117 90.3692 106.832 90.3692 106.832C90.3692 106.832 85.5963 110.479 80.9245 108.159L77.7861 100.322Z" fill="url(#paint17_linear_9062_8521)"/>
<path d="M93.8012 100.331C93.8012 100.331 93.2833 109.201 86.6716 110.075L84.6499 103.75C84.6499 103.75 91.4048 102.471 92.4847 97.4918" fill="url(#paint18_linear_9062_8521)"/>
<path d="M100.84 86.2984C99.6547 91.3766 99.1587 93.2126 98.0658 93.9322C96.9728 94.6489 94.9803 95.9336 92.8702 95.7599C90.7628 95.5863 82.4678 95.079 78.5276 89.0829L75.4983 80.2362L83.2216 65.5092C83.2216 65.5092 87.7839 60.6765 96.3367 64.9165C96.3367 64.9165 97.6734 65.2308 97.9088 66.6974C98.1442 68.1668 98.8056 70.2262 99.5258 73.3744C99.8985 75.0009 100.551 77.0438 100.935 79.3374C101.047 80.0074 101.134 80.6994 101.188 81.4106C101.3 82.9682 101.232 84.614 100.84 86.2984H100.84Z" fill="url(#paint19_linear_9062_8521)"/>
<path d="M97.2295 65.8378C97.3166 64.8258 95.7469 63.4165 93.2613 61.5252C90.7754 59.6341 79.0972 55.7433 77.44 55.7391C74.0119 55.7304 70.3049 56.8338 68.0747 57.5261C65.8445 58.2186 62.0744 60.8849 59.6995 64.8687C58.8644 66.2691 58.2431 67.9475 57.8772 69.8509C57.3198 69.7618 56.6885 69.6026 55.9688 69.3484C50.5779 67.4441 47.6965 64.0998 46.1163 56.064C46.1163 56.064 30.1754 54.4849 22.8791 66.3756C16.232 77.2081 15.4431 88.6955 15.4431 88.6955C15.4431 88.6955 21.4383 88.3923 22.9254 96.753C24.4128 105.114 32.8245 122.16 45.0009 117.191C57.1773 112.22 54.7257 108.829 55.69 106.6C58.6114 107.33 61.4529 117.302 67.3171 117.286C68.9121 117.09 72.331 113.888 75.3013 114.365L77.703 114.484C80.6309 114.954 83.0253 112.172 82.1236 109.349C80.2614 103.519 77.693 95.3779 77.237 93.4218C76.5076 90.2924 75.7527 89.116 73.8192 88.0629C71.886 87.0094 70.0341 81.991 71.0073 81.8346C71.9808 81.6783 73.3574 84.072 74.3847 84.8715C75.412 85.6714 78.1572 83.7002 79.5166 79.7762C80.8763 75.8522 86.5645 68.0063 87.273 67.154C87.9813 66.3018 88.8583 65.835 87.4359 64.2336C92.5488 67.2181 97.2295 65.8378 97.2295 65.8378V65.8378Z" fill="url(#paint20_linear_9062_8521)"/>
<path d="M74.9263 59.1707C74.9263 59.1707 85.4925 61.6709 88.0813 63.7463" stroke="#101010" stroke-linecap="round"/>
<path d="M92.657 89.454C92.657 89.454 94.169 87.0266 96.8949 87.3056C97.7034 86.6319 97.8217 85.6596 99.0455 85.841L99.5205 85.4807C99.5205 85.4807 99.4111 89.6384 96.9806 90.4256C94.5499 91.2127 92.657 89.454 92.657 89.454Z" fill="#FA246B"/>
<path d="M95.5171 77.5253C96.0846 78.0774 96.8452 78.5775 97.6867 78.6151C98.6606 78.6589 99.4536 78.0344 99.8322 77.2245C100.266 76.297 100.104 75.2578 99.7418 74.3339C99.6463 74.0905 99.5297 73.8425 99.3188 73.676C98.9672 73.3982 98.4303 73.4221 98.0237 73.6218C97.6171 73.8217 97.3134 74.164 97.0296 74.5038C96.3357 75.3341 95.6697 76.2544 95.5564 77.3068" fill="white"/>
<path d="M74.2856 115.685C80.232 118.611 83.2938 130.971 79.6378 136.552C70.3251 150.769 45.7987 176.865 45.5692 175.819C45.1176 173.76 40.4791 163.498 43.1476 154.924C45.8161 146.349 54.1704 141.332 60.6527 129.834C64.5832 122.862 66.3805 119.834 67.9101 118.139C67.9101 118.139 70.5197 113.833 74.2856 115.685V115.685Z" fill="url(#paint21_linear_9062_8521)"/>
<path opacity="0.46" d="M57.7678 127.838C57.7678 127.838 62.2365 119.337 69.7425 115.946C74.4494 113.819 78.0111 116.696 80.2604 120.5C80.367 120.681 80.4705 120.863 80.5707 121.047C83.3321 126.113 82.8381 132.369 79.5216 137.08L77.595 139.817C75.9621 135.709 65.7564 120.615 57.7678 127.838H57.7678Z" fill="url(#paint22_linear_9062_8521)"/>
<path d="M90.9414 111.219C91.6856 112.931 92.9009 114.46 94.052 115.913C97.6932 120.51 103.207 125.092 104.096 131.237" stroke="#E9024D" stroke-linecap="round" stroke-linejoin="round"/>
<path d="M84.0776 81.477C84.4282 80.4974 85.2757 79.6498 86.3655 79.1892" stroke="#101010" stroke-linecap="round"/>
<path d="M87.5884 83.764C88.3815 83.7443 89.1746 83.4396 89.7526 82.8724C90.4049 82.2327 90.6876 81.2671 90.9414 80.4029C90.9414 80.4029 89.6942 79.1584 88.8448 79.1898C87.9951 79.2212 87.2004 79.6626 86.564 80.2437C86.1333 80.6372 85.8129 81.392 85.4616 81.8601C85.2392 82.1559 84.6502 82.9642 84.6499 82.9646C84.648 82.9687 85.7951 83.4218 85.9082 83.4596C86.3465 83.6064 86.7982 83.7212 87.2589 83.7556C87.3695 83.7637 87.4793 83.7665 87.5884 83.764L87.5884 83.764Z" fill="white"/>
<path d="M93.2343 83.7648C93.1798 84.2448 93.5751 84.7014 94.0573 84.8458C94.5394 84.9899 95.0728 84.8718 95.5171 84.6416" stroke="#101010" stroke-linecap="round"/>
<path d="M96.0886 84.3368C96.6095 84.3366 97.1865 84.0693 97.5147 83.7092C98.0499 83.1212 97.7953 82.4469 97.1473 82.049" stroke="#101010" stroke-linecap="round"/>
<path d="M96.0886 80.9051C94.849 79.0809 94.051 76.8864 93.8008 74.6136" stroke="#101010" stroke-linecap="round"/>
<path d="M92.657 89.4845C95.1085 88.1162 94.8955 87.3512 96.6607 87.1967" stroke="#101010" stroke-linecap="round"/>
<path d="M99.4946 84.9088C99.6037 85.4363 99.3512 85.9741 99.0322 86.4032C98.7136 86.8324 98.3191 87.2077 98.0706 87.6833C97.947 87.9195 97.1416 88.6358 96.881 88.6601C95.0446 88.8313 95.2328 89.9073 92.085 89.3008" stroke="#101010" stroke-linecap="round"/>
<path d="M97.2345 87.1966C97.2084 86.7638 97.5027 86.435 97.7213 86.0872C98.0979 85.4879 98.6341 85.7006 98.9488 85.4807" stroke="#101010" stroke-linecap="round"/>
<path d="M93.8008 90.1014C95.0066 90.865 96.5234 90.7941 97.6463 89.9192C98.4729 89.2749 98.9736 88.2359 98.9474 87.1967" stroke="#101010" stroke-linecap="round"/>
<g style="mix-blend-mode:multiply" opacity="0.17">
<path d="M86.527 88.8473C87.0297 88.7405 87.5234 88.5177 87.9345 88.2992C88.6725 87.9064 90.0816 87.3455 90.3252 86.4817C90.6756 85.2384 88.8527 85.4413 88.1452 85.5991C87.3886 85.7677 86.658 86.0864 86.0192 86.5245C85.5687 86.8334 84.6295 87.5158 84.6502 88.1428C84.6571 88.3412 84.7853 88.5209 84.9512 88.6307C85.4233 88.9429 85.9803 88.9636 86.527 88.8473L86.527 88.8473Z" fill="#E9024D"/>
</g>
<g style="mix-blend-mode:multiply" opacity="0.17">
<path d="M101.236 81.2793C101.212 81.2904 101.184 81.3043 101.16 81.3155C100.628 81.5683 98.5204 82.7079 98.3806 81.5128C98.3341 81.1181 98.6876 80.6511 98.9287 80.3788C99.4659 79.7729 100.304 79.3088 100.99 79.1892C101.099 79.8646 101.184 80.5623 101.236 81.2793Z" fill="#E9024D"/>
</g>
<path d="M87.0134 83.5931C87.8517 84.0353 89.2407 83.5601 89.7819 82.8888C90.397 82.1258 90.5492 80.9423 90.1417 80.071C89.6447 79.008 88.6244 79.1032 87.7372 79.3496C87.1147 79.5225 86.1501 80.2835 85.9024 80.9366C85.5547 81.8535 86.0697 83.095 87.0134 83.5931L87.0134 83.5931Z" fill="url(#paint23_linear_9062_8521)"/>
<path d="M97.1483 77.8451C97.833 78.3015 98.9143 77.9162 99.3142 77.3066C99.7688 76.6139 99.3812 74.8654 99.0196 74.0232C98.5788 72.9963 98.2296 73.6764 97.5364 73.8685C97.0502 74.0032 96.3181 74.6781 96.1503 75.284C95.9146 76.1345 96.3777 77.3314 97.1483 77.8451V77.8451Z" fill="url(#paint24_linear_9062_8521)"/>
<path d="M94.9451 75.1855C95.2649 74.2113 95.8857 73.3832 96.6609 72.8977" stroke="#101010" stroke-linecap="round"/>
<path d="M65.2944 79.0206L79.245 83.1159C79.5696 83.2112 79.8683 82.9018 79.7681 82.5742L79.6213 82.0946C79.489 81.6618 79.6875 81.1965 80.0893 80.9998C82.058 80.0355 87.7062 77.2303 90.7738 75.3015C94.5304 72.9396 98.4249 69.453 99.3419 68.8466C100.259 68.2401 100.873 68.3262 100.873 68.3262L102.885 74.9032C103.085 75.5567 102.826 76.2647 102.255 76.627L97.4245 79.692C97.0845 79.9075 96.6662 79.9537 96.2883 79.8169L95.8607 79.6621C95.3118 79.4636 94.702 79.5549 94.2331 79.9061V79.9061C93.9616 80.1096 93.7535 80.3888 93.6345 80.7095L92.6526 83.3532C92.5336 83.6733 92.2941 83.9325 91.987 84.0733L84.3246 87.5857C84.0135 87.7285 83.6721 87.7892 83.3318 87.7624L82.3933 87.6888C81.6515 87.631 81.0001 87.1659 80.6952 86.4768L80.595 86.2504L65.3239 80.086C64.7806 79.8665 64.1599 80.0313 63.7915 80.4923L63.7387 80.5581C63.488 80.8723 62.9896 80.7401 62.922 80.3414V80.3414C62.8891 80.147 62.9792 79.952 63.148 79.8536L64.3845 79.132C64.6602 78.9712 64.9887 78.931 65.2944 79.0206L65.2944 79.0206Z" stroke="#E9024D" stroke-linecap="round" stroke-linejoin="round"/>
<path opacity="0.46" d="M65.2944 79.0206L79.245 83.1159C79.5696 83.2112 79.8683 82.9018 79.7681 82.5742L79.6213 82.0946C79.489 81.6618 79.6875 81.1965 80.0893 80.9998C82.058 80.0355 87.7062 77.2303 90.7738 75.3015C94.5304 72.9396 98.4249 69.453 99.3419 68.8466C100.259 68.2401 100.873 68.3262 100.873 68.3262L102.885 74.9032C103.085 75.5567 102.826 76.2647 102.255 76.627L97.4245 79.692C97.0845 79.9075 96.6662 79.9537 96.2883 79.8169L95.8607 79.6621C95.3118 79.4636 94.702 79.5549 94.2331 79.9061C93.9616 80.1096 93.7535 80.3888 93.6345 80.7095L92.6526 83.3532C92.5336 83.6733 92.2941 83.9325 91.987 84.0733L84.3246 87.5857C84.0135 87.7285 83.6721 87.7892 83.3318 87.7624L82.3933 87.6888C81.6515 87.631 81.0001 87.1659 80.6952 86.4768L80.595 86.2504L65.3239 80.086C64.7806 79.8665 64.1599 80.0313 63.7915 80.4923L63.7387 80.5581C63.488 80.8723 62.9896 80.7401 62.922 80.3414C62.8891 80.147 62.9792 79.952 63.148 79.8536L64.3845 79.132C64.6602 78.9712 64.9887 78.931 65.2944 79.0206L65.2944 79.0206Z" fill="url(#paint25_linear_9062_8521)"/>
<path d="M90.9411 80.7802C90.1182 79.5319 88.403 79.6254 87.2886 80.3677C86.4148 80.9498 85.7769 81.8742 85.2855 82.7983C85.055 83.2318 84.7583 83.7356 84.2766 83.7629C84.068 83.7747 83.6842 83.7337 83.5056 83.6224C83.8353 83.6011 84.0811 83.3133 84.278 83.0419C85.2691 81.6747 86.1383 80.029 87.7787 79.379C88.9861 78.9007 90.6577 79.3116 90.9411 80.7802L90.9411 80.7802Z" fill="#282526"/>
<path d="M95.5437 77.8045C95.3579 76.1049 96.1589 74.3385 97.5181 73.3333C98.0049 72.9732 98.6091 72.6983 99.2002 72.821C99.464 72.8757 99.7169 73.0082 99.9859 72.996C100.463 72.974 100.8 72.5214 101.237 72.3257C101.09 72.8111 100.803 73.252 100.42 73.581C100.373 73.6215 100.322 73.6618 100.261 73.6743C100.184 73.6901 100.106 73.6593 100.032 73.6327C98.9454 73.2411 97.8627 73.7467 97.1396 74.5856C96.3297 75.5247 95.9681 76.8732 95.6184 78.0453" fill="#282526"/>
<path d="M76.0702 88.8458C75.9211 88.9261 75.7912 89.0417 75.6956 89.1835C75.2864 89.7893 74.6916 90.2375 74.0053 90.4561L73.9341 90.4788C73.4298 90.6393 72.8953 90.6727 72.377 90.5689C70.2277 90.1391 68.163 89.0362 66.6881 87.3612C65.3032 85.7884 64.1259 83.1642 64.8529 81.0309C65.6016 78.8347 67.9493 78.9342 69.7284 79.6335C71.6184 80.3762 73.4242 81.933 74.0003 83.9839" fill="url(#paint26_linear_9062_8521)"/>
<path d="M68.063 82.4842C69.0801 81.4831 70.5464 82.4311 71.4451 83.1088C72.4591 83.8737 73.2794 84.8929 73.7826 86.0527" stroke="#101010" stroke-linecap="round"/>
<circle cx="87.2237" cy="82.3349" r="0.285979" fill="white"/>
<circle cx="96.9466" cy="76.6153" r="0.285979" fill="white"/>
<path d="M57.7679 69.4659C57.7679 69.4659 54.2767 92.8826 36.6055 98.0637" stroke="#101010" stroke-linecap="round"/>
<path d="M46.3286 110.647C46.3286 110.647 52.2568 103.116 56.0519 106.272" stroke="#101010" stroke-linecap="round"/>
<path d="M36.326 125.376C36.8659 125.174 37.3745 124.938 37.8493 124.685C37.5428 121.963 37.5682 119.771 37.6975 117.391C38.0179 111.493 29.5037 111.912 29.5037 111.912L23.8743 107.768L23.3518 101.67C23.2501 100.481 22.3178 99.533 21.1316 99.4118L20.8966 99.3877L20.6641 100.785L20.1599 99.9196C19.8743 99.4297 19.3191 99.1631 18.7586 99.2467C18.047 99.3528 17.5348 99.9864 17.5797 100.705L17.6863 102.414L17.5939 102.109C17.4295 101.565 16.8746 101.239 16.3202 101.361C15.7898 101.478 15.4266 101.968 15.469 102.509L15.7323 105.86L15.6111 105.841C15.0143 105.749 14.4761 106.211 14.4761 106.815L14.8839 113.864C14.9238 114.553 15.2814 115.183 15.8517 115.569L26.8054 122.993C26.8054 122.993 26.9191 124.277 27.1128 126.376C29.9241 126.602 33.3234 126.504 36.326 125.376V125.376Z" fill="url(#paint27_linear_9062_8521)"/>
<path d="M39.1644 131.876C38.4835 128.995 38.076 126.695 37.8496 124.685C37.3747 124.938 36.8661 125.174 36.3262 125.376C33.3237 126.504 29.9244 126.602 27.113 126.376C27.7308 133.068 29.1629 148.066 30.3225 156.33C31.4857 164.617 35.2733 180.959 45.3926 175.698C45.8716 174.868 46.5561 173.529 47.0468 171.787C48.4795 166.706 46.7772 163.473 44.1607 151.935C42.8768 146.274 40.1864 136.198 39.1644 131.876V131.876Z" fill="url(#paint28_linear_9062_8521)"/>
<path d="M16.0146 106.071V106.071C16.827 106.745 17.3481 107.739 17.4591 108.826L17.7528 112.914L21.1623 115.794" stroke="#101010" stroke-linecap="round"/>
<path d="M17.731 100.924L19.8251 111.076L22.8786 113.507" stroke="#101010" stroke-linecap="round"/>
<path d="M20.5903 100.924L21.918 109.562L25.166 111.791" stroke="#101010" stroke-linecap="round"/>
<path d="M37.7473 119.011C37.7473 119.011 37.9348 112.119 34.3442 109.221C30.7537 106.324 27.9572 104.924 27.681 104.324L27.2896 103.783C26.3743 104.342 26.0445 105.543 26.5397 106.514L26.6466 106.723C26.7524 106.93 26.8916 107.118 27.0584 107.276L30.42 110.479L29.7063 111.856C29.7063 111.856 28.475 117.507 32.8135 119.798" fill="url(#paint29_linear_9062_8521)"/>
<path d="M29.3392 111.791C29.3392 111.791 28.0464 117.488 32.6014 119.798" stroke="#101010" stroke-linecap="round"/>
<path d="M86.9377 138.885V138.885C89.3068 140.742 92.6982 140.894 95.2443 139.257L102.381 134.669" stroke="#E9024D" stroke-linecap="round" stroke-linejoin="round"/>
<path d="M142.079 37.2315C142.079 37.2315 143.192 42.8454 140.129 45.4437L137.27 39.5833C137.27 39.5833 139.747 36.6815 140.374 35.5192C140.68 34.9502 141.169 34.1726 141.59 33.525C142.027 32.8504 142.388 32.3193 142.388 32.3193C142.388 32.3193 142.412 32.3085 142.451 32.2977C142.661 32.2543 143.311 32.2787 142.794 34.5221C142.186 37.1719 142.079 37.2315 142.079 37.2315Z" fill="url(#paint30_linear_9062_8521)"/>
<path d="M142.416 32.7457C142.388 33.4201 142.063 33.4651 141.846 33.4201C142.118 32.7982 142.343 32.3086 142.343 32.3086C142.343 32.3086 142.358 32.2986 142.382 32.2887C142.41 32.4136 142.423 32.5659 142.416 32.7457Z" fill="#E9024D"/>
<path d="M137.27 39.7242C137.27 39.7242 139.553 36.4544 140.13 35.1485" stroke="#101010" stroke-linecap="round"/>
<path d="M140.129 35.1485C140.813 34.1213 142.332 32.3141 142.332 32.3141C142.332 32.3141 143.443 31.9168 142.776 34.2636" stroke="#101010" stroke-linecap="round"/>
<path d="M142.989 34.5765C142.335 37.2135 142.222 37.2722 142.222 37.2722C142.222 37.2722 143.416 42.8575 140.129 45.4437" stroke="#101010" stroke-linecap="round"/>
<path d="M144.133 36.2924C144.15 36.0804 144.85 33.431 144.85 33.431C144.85 33.431 149.241 33.4485 149.923 33.1837C150.606 32.9186 150.997 32.2887 150.997 32.2887" stroke="#101010" stroke-linecap="round"/>
<path d="M144.138 32.2887C144.138 32.2887 144.039 33.1175 144.705 33.4326" stroke="#101010" stroke-linecap="round"/>
<path d="M145.849 37.4363L146.846 34.5968C146.846 34.5968 151.316 34.1701 151.662 33.7433C152.008 33.3166 152.141 32.8607 152.141 32.8607" stroke="#101010" stroke-linecap="round"/>
<path d="M142.989 35.7205C142.989 35.7205 145.931 36.8849 146.993 38.5802" stroke="#101010" stroke-linecap="round"/>
<path d="M134.41 78.1447C134.41 78.1447 138.89 76.8299 142.989 83.7649" stroke="#E9024D" stroke-linecap="round" stroke-linejoin="round"/>
<path d="M96.0886 163.839C100.735 156.58 110.113 145.414 125.258 142.104" stroke="#E9024D" stroke-linecap="round" stroke-linejoin="round"/>
<path d="M187.791 141.703C182.899 139.035 176.982 139.053 172.074 141.693L162.694 148.072C159.659 153.467 160.744 160.996 160.744 160.996C163.583 173.202 171.31 176.914 175.761 178.043C180.58 174.781 183.814 172.639 183.814 172.639C183.814 172.639 193.772 180.002 209.581 190.021C214.43 184.961 221.984 175.407 223.764 163.558C205.778 152.542 189.844 142.823 187.791 141.703H187.791Z" fill="url(#paint31_linear_9062_8521)"/>
<path d="M288.384 206.332C285.941 211.14 282.014 215.316 277.064 217.562C271.973 219.873 266.175 221.046 260.497 221.325C247.343 213.291 221.901 197.734 212.706 191.987C211.64 191.322 210.598 190.666 209.582 190.021C214.431 184.962 221.985 175.408 223.763 163.557C246.274 177.346 272 193.166 277.754 196.706C278.521 197.178 278.935 197.432 278.935 197.432C278.949 197.421 278.96 197.412 278.974 197.401C279.926 196.644 280.936 195.946 281.98 195.3C282.457 195.004 282.94 194.719 283.429 194.446C286.081 192.959 288.842 191.797 291.256 190.929C292.155 196.044 290.664 201.843 288.384 206.332Z" fill="url(#paint32_linear_9062_8521)"/>
<path d="M299.327 190.139C298.715 189.338 297.683 188.98 296.708 189.235C295.428 189.569 293.491 190.125 291.257 190.929C292.154 196.044 290.664 201.842 288.383 206.333C285.941 211.141 282.013 215.316 277.065 217.561C271.973 219.871 266.175 221.045 260.497 221.325C265.407 224.324 268.605 226.275 268.605 226.275C268.605 226.275 276.073 233.887 279.143 227.532C283.059 221.963 291.007 211.434 293.101 206.371C296.04 201.291 299.525 193.082 299.737 192.38C299.97 191.611 299.815 190.777 299.327 190.139Z" fill="url(#paint33_linear_9062_8521)"/>
<path d="M92.085 158.691C96.8311 152.158 106.93 141.144 122.399 138.673" stroke="#E9024D" stroke-linecap="round" stroke-linejoin="round"/>
<path d="M162.396 148.396C159.728 152.977 159.557 158.719 161.24 163.944C163.233 170.145 169.267 176.915 175.591 178.138" stroke="#101010" stroke-linecap="round"/>
<path d="M198.469 137.529L201.329 139.817" stroke="#101010" stroke-linecap="round"/>
<path d="M177.878 170.702L183.598 172.418" stroke="#101010" stroke-linecap="round"/>
<circle cx="293.128" cy="170.416" r="2.00185" fill="#282526"/>
<circle cx="276.541" cy="210.453" r="2.00185" fill="#282526"/>
<circle cx="283.405" cy="203.018" r="2.00185" fill="#282526"/>
<path d="M277.399 210.232C277.419 210.618 277.12 210.944 276.735 210.964H276.701C276.33 210.964 276.023 210.673 276.003 210.302C275.638 202.958 277.603 197.091 277.687 196.845C277.703 196.795 277.726 196.748 277.754 196.706C278.521 197.178 278.934 197.432 278.934 197.432C278.948 197.421 278.96 197.412 278.973 197.401C278.711 198.223 277.07 203.692 277.399 210.232Z" fill="#282526"/>
<path d="M283.493 203.614C283.389 203.667 283.278 203.695 283.169 203.695C282.918 203.695 282.675 203.558 282.552 203.321C281.07 200.51 281.642 196.831 281.98 195.301C282.457 195.004 282.94 194.719 283.428 194.446C283.523 194.605 283.551 194.798 283.495 194.988C283.487 195.016 282.982 196.784 282.982 198.854C282.982 200.122 283.172 201.508 283.786 202.67C283.964 203.011 283.833 203.433 283.493 203.614H283.493Z" fill="#282526"/>
<ellipse cx="296.707" cy="164.863" rx="1.98973" ry="1.99117" fill="#282526"/>
<path d="M293.4 170.075C293.274 170.17 293.126 170.217 292.978 170.217C292.769 170.217 292.559 170.122 292.423 169.944C292.378 169.885 288.149 164.206 291.959 157.828L293.065 158.443C293.16 158.362 293.257 158.281 293.355 158.2C293.338 158.239 293.321 158.275 293.299 158.309C289.74 163.957 293.377 168.891 293.534 169.097C293.765 169.405 293.707 169.843 293.4 170.075H293.4Z" fill="#282526"/>
<path d="M297.037 156.325C296.947 156.468 294.921 159.811 296.886 164.597C297.034 164.954 296.864 165.362 296.506 165.51C296.42 165.547 296.331 165.563 296.241 165.563C295.968 165.563 295.705 165.399 295.596 165.13C294.03 161.317 294.717 158.272 295.314 156.711C295.876 156.317 296.451 155.94 297.034 155.579C297.174 155.8 297.185 156.09 297.037 156.325H297.037Z" fill="#282526"/>
<path d="M127.546 172.418L172.159 141.532" stroke="#E9024D" stroke-linecap="round" stroke-linejoin="round"/>
<path d="M163.008 166.959L133.536 186.634C128.758 189.823 122.273 188.663 118.934 184.021L105.24 164.983" stroke="#101010" stroke-linecap="round"/>
<path d="M216.2 182.141L264.244 214.171" stroke="#101010" stroke-linecap="round"/>
<path d="M229.355 144.964L278.543 175.85" stroke="#101010" stroke-linecap="round"/>
<rect x="48.105" y="0.831055" width="2.33947" height="10.8927" transform="rotate(45 48.105 0.831055)" fill="url(#paint34_linear_9062_8521)"/>
<rect width="2.33947" height="10.8927" transform="matrix(-0.706864 0.707349 -0.706839 -0.707375 49.7585 8.53632)" fill="url(#paint35_linear_9062_8521)"/>
<rect x="322.499" y="211.768" width="13.0562" height="13.0562" transform="rotate(30.3921 322.499 211.768)" stroke="url(#paint36_linear_9062_8521)"/>
<path d="M187.48 240.834L181.782 245.54L177.079 239.838L173.961 242.412L178.664 248.115L172.966 252.821L175.539 255.941L181.237 251.234L185.94 256.937L189.058 254.362L184.354 248.66L190.053 243.953L187.48 240.834Z" fill="url(#paint37_linear_9062_8521)"/>
<path d="M68.6348 84.921L65.0077 85.4807C64.7997 85.4807 64.6311 85.291 64.6311 85.0568V83.0449C64.6311 82.8106 64.7997 82.6209 65.0077 82.6209L68.6348 83.1806V84.921Z" fill="url(#paint38_linear_9062_8521)"/>
<path d="M146.993 25.9971C146.71 26.4277 146.212 26.5453 145.849 26.5691L146.993 25.9971Z" fill="#E9024D"/>
<path d="M150.997 31.9677C150.843 32.1548 150.575 32.3079 150.117 32.2867C149.667 32.2654 149.419 32.0145 149.281 31.7167C150.066 31.8103 150.723 31.8614 150.997 31.9677Z" fill="#E9024D"/>
<path d="M153.856 32.2887C153.801 32.4677 153.658 32.6697 153.337 32.7975C152.984 32.9381 152.802 32.8205 152.712 32.6722C153.074 32.5674 153.563 32.4191 153.856 32.2887Z" fill="#E9024D"/>
<path d="M164.275 78.7465C162.461 86.6101 167.611 94.5139 175.78 96.3977C183.949 98.2815 192.04 93.4311 193.853 85.5675C195.254 79.4958 192.504 73.4039 187.421 70.0742C185.919 69.0901 184.213 68.3462 182.348 67.9162C179.378 67.2314 176.418 67.4364 173.764 68.3527C169.125 69.9572 165.429 73.7414 164.275 78.7465Z" fill="url(#paint39_linear_9062_8521)"/>
<g style="mix-blend-mode:multiply" opacity="0.36">
<path d="M173.23 87.7946C181.399 89.6784 189.49 84.828 191.303 76.9644C191.515 76.0481 191.63 75.1317 191.658 74.2244C193.875 77.4653 194.787 81.5201 193.853 85.5674C192.04 93.431 183.949 98.2814 175.78 96.3976C168.562 94.7332 163.706 88.3691 163.922 81.4857C166.013 84.5445 169.264 86.88 173.23 87.7946Z" fill="#7F47DD"/>
</g>
<mask id="mask0_9062_8521" style="mask-type:alpha" maskUnits="userSpaceOnUse" x="163" y="67" width="32" height="30">
<path d="M164.275 78.7465C162.461 86.6101 167.611 94.5139 175.78 96.3977C183.949 98.2815 192.04 93.4311 193.853 85.5675C195.254 79.4958 192.504 73.4039 187.421 70.0742C185.919 69.0901 184.213 68.3462 182.348 67.9162C179.378 67.2314 176.418 67.4364 173.764 68.3527C169.125 69.9572 165.429 73.7414 164.275 78.7465Z" fill="black"/>
</mask>
<g mask="url(#mask0_9062_8521)">
<ellipse rx="2.89072" ry="3.72159" transform="matrix(0.980048 -0.198762 0.198229 0.980156 169.383 89.9105)" stroke="white"/>
<path d="M173.659 68.1028C173.033 70.1193 175.891 72.8809 180.077 74.2905C184.292 75.713 188.265 75.2254 188.947 73.2045C189.288 72.1925 188.739 70.987 187.577 69.8591" stroke="white"/>
<path d="M194.341 84.5542C192.893 86.5782 190.727 88.1372 188.15 89.0831" stroke="white"/>
<ellipse rx="1.59741" ry="2.05655" transform="matrix(0.980048 -0.198762 0.198229 0.980156 169.383 89.9105)" stroke="white"/>
<ellipse rx="1.12626" ry="1.44998" transform="matrix(0.980048 -0.198762 0.198229 0.980156 169.382 89.9104)" fill="#101010"/>
</g>
<path d="M26.2307 199.789L18.6819 207.635C18.0465 208.098 17.4243 208.615 16.8247 209.186C15.806 210.155 14.9367 211.197 14.2266 212.266L7.87109 218.871L14.1169 223.364L14.1197 223.362C17.1851 225.532 22.7503 224.174 27.1171 220.021C31.514 215.838 33.1434 210.296 31.0674 207.133L31.069 207.131L26.2307 199.789Z" fill="url(#paint40_linear_9062_8521)"/>
<ellipse rx="13.2912" ry="8.40226" transform="matrix(0.72453 -0.689243 0.688721 0.725027 17.1877 209.642)" fill="url(#paint41_linear_9062_8521)"/>
<path d="M25.1833 201.834C27.7981 204.586 26.3155 210.246 21.8708 214.474C17.7871 218.359 12.6241 219.686 9.78543 217.74C9.5342 217.566 9.29943 217.368 9.08754 217.145C6.47271 214.393 7.95501 208.733 12.4 204.505C16.659 200.453 22.0905 199.186 24.8391 201.508C24.9594 201.61 25.0733 201.718 25.1833 201.834Z" fill="url(#paint42_linear_9062_8521)"/>
<path d="M25.1832 201.833C27.798 204.586 26.3155 210.246 21.8708 214.474C17.787 218.359 12.6241 219.686 9.78536 217.739C9.67035 217.345 9.44843 217.05 9.28792 216.624C9.10842 216.154 9.07603 215.603 9.31889 215.164C9.49002 214.848 9.801 214.58 9.80603 214.221C9.80993 214.06 9.7474 213.903 9.70915 213.747C9.509 212.978 9.86967 212.101 10.5505 211.692C10.8512 211.513 11.2144 211.411 11.4285 211.137C11.5658 210.962 11.6239 210.742 11.6856 210.53C11.9536 209.576 12.3075 208.629 12.884 207.822C13.4582 207.012 14.2747 206.346 15.2336 206.094C15.3958 206.053 15.5906 205.99 15.6188 205.825C15.6311 205.743 15.5909 205.659 15.5666 205.58C15.4329 205.133 15.7464 204.69 16.0395 204.329C16.4281 203.857 16.8248 203.373 17.3446 203.047C17.8644 202.722 18.5346 202.58 19.094 202.83C19.2903 202.242 19.7958 201.766 20.396 201.603C20.9942 201.443 21.6709 201.601 22.1337 202.014C22.1915 201.719 22.4548 201.5 22.7409 201.413C23.029 201.328 23.3366 201.345 23.6342 201.365C24.0323 201.391 24.4443 201.424 24.839 201.508C24.9593 201.61 25.0732 201.718 25.1832 201.833Z" fill="white"/>
<path d="M19.9849 198.575C19.8355 199.318 19.189 199.899 18.7479 200.48C18.2597 201.126 17.7941 201.808 17.5219 202.575C17.1071 203.756 16.2453 205.039 16.4374 206.34C16.5962 207.399 17.5051 208.311 18.2494 209.018C18.5601 209.308 18.8928 209.581 19.1851 209.893C19.2658 209.978 19.3168 210.068 19.3462 210.16C19.3294 210.195 19.3107 210.228 19.2864 210.259C18.9774 210.68 18.308 210.612 17.9105 210.947C17.3876 211.395 17.5721 212.298 17.1149 212.81C16.6819 213.299 15.9048 213.195 15.285 213.41C15.0123 213.269 14.7692 213.049 14.502 212.914C14.0752 212.696 13.7871 212.218 13.3195 212.12C13.0309 212.059 12.7302 212.16 12.491 212.33C12.2515 212.5 12.07 212.734 11.9 212.973C11.6932 213.262 11.44 213.591 11.0849 213.582C10.7929 213.575 10.5528 213.306 10.5126 213.017C10.4708 212.729 10.5556 212.332 10.7449 212.11C9.53002 212.136 8.45443 212.893 7.58013 213.733C7.14716 214.149 6.72899 214.6 6.19133 214.857C5.70171 215.092 5.14534 215.147 4.60714 215.116C4.2917 215.096 3.9634 215.042 3.70938 214.856C3.42241 214.643 3.27167 214.278 3.24933 213.921C3.22477 213.563 3.31466 213.208 3.42996 212.867C4.11053 210.859 5.74023 209.193 7.73506 208.471C7.67308 208.345 7.56645 208.342 7.4439 208.278C6.72144 208.336 6.12238 208.841 5.44097 209.084C4.8849 209.282 4.26852 209.302 3.69989 209.141C3.31549 209.032 2.93389 208.821 2.74937 208.465C2.60841 208.19 2.60282 207.864 2.66368 207.564C2.7999 206.86 3.29372 206.236 3.94499 205.936C4.26462 205.79 4.61663 205.69 4.96641 205.67C4.09935 205.373 3.29958 204.823 2.64581 204.216C1.66961 203.31 0.290877 202.316 0.0301391 200.915C-0.0619871 200.42 0.0527478 199.86 0.434353 199.528C0.662698 199.327 0.965298 199.227 1.26846 199.182C2.67372 198.97 4.11835 199.786 5.15846 200.654C6.10229 201.444 6.88951 202.403 7.73561 203.294L9.00631 200.998C7.69848 200.157 6.49812 198.832 5.73268 197.479C5.33573 196.774 5.31814 195.672 6.33007 195.562C6.68237 195.523 7.03745 195.613 7.3702 195.732C8.21772 196.032 9.00101 196.517 9.65284 197.138C10.2061 197.664 10.5576 198.366 10.7025 199.114L11.0232 200.798C10.978 199.94 11.1203 199.072 11.4425 198.276C11.9709 196.975 12.984 195.88 14.236 195.248C14.502 195.115 14.7834 195.001 15.076 194.985C15.3707 194.967 15.6842 195.062 15.876 195.288C16.1789 195.643 16.0884 196.177 15.9821 196.632C15.701 197.832 15.4802 199.064 15.1971 200.266C15.6884 199.27 16.3109 198.312 17.2048 197.635C17.5892 197.347 18.0389 197.131 18.5174 197.103C19.3618 197.052 20.1635 197.677 19.9849 198.575L19.9849 198.575Z" fill="url(#paint43_linear_9062_8521)"/>
<path d="M10.3776 203.824C10.0096 202.836 9.81843 200.998 10.6394 200.159C11.0249 199.766 11.6622 199.835 12.0891 200.119C12.4899 200.385 12.761 200.817 12.9064 201.276C13.0519 201.735 13.0809 202.223 13.0753 202.704" fill="url(#paint44_linear_9062_8521)"/>
<path d="M7.87757 204.695C7.2545 203.802 7.06299 202.625 7.34104 201.576C7.45438 201.148 7.6481 200.733 7.95378 200.412C8.44564 199.896 9.32609 199.641 9.91343 200.16" fill="url(#paint45_linear_9062_8521)"/>
<path d="M10.3776 203.824C10.0096 202.836 9.81843 200.998 10.6394 200.159C11.0249 199.766 11.6622 199.835 12.0891 200.119C12.4899 200.385 12.761 200.817 12.9064 201.276C13.0519 201.735 13.0809 202.223 13.0753 202.704" fill="url(#paint46_linear_9062_8521)"/>
<path d="M13.9988 209.315C12.1993 209.803 8.58709 210.708 7.4529 208.576C7.14834 208.003 7.2427 207.285 7.53274 206.704C7.93779 205.894 8.69764 205.288 9.55241 204.989C10.568 204.633 11.6818 204.702 12.7015 205.004C12.8163 205.038 12.9581 205.132 12.909 205.241" fill="url(#paint47_linear_9062_8521)"/>
<path d="M23.1165 208.161C21.7691 207.801 20.9137 207.979 20.6756 208.016C20.0989 208.106 19.6067 208.59 19.5015 209.164C19.4437 209.497 19.4973 209.869 19.346 210.16C19.3293 210.195 19.3106 210.228 19.2863 210.259C18.9773 210.68 18.3079 210.612 17.9103 210.948C17.3875 211.395 17.572 212.298 17.1147 212.811C16.6818 213.299 15.9046 213.195 15.2849 213.41C15.1735 213.447 15.0697 213.496 14.9711 213.558C14.5918 213.804 14.381 214.255 14.34 214.706C14.3009 215.156 14.4159 215.606 14.5711 216.028" stroke="#F0014F"/>
<path d="M19.4668 206.177C19.14 205.729 19.0442 205.121 19.2178 204.594C19.3912 204.067 19.8295 203.635 20.3585 203.469C20.6619 203.374 21.005 203.367 21.2869 203.513" stroke="#F0014F"/>
<path d="M11.3627 216.543C11.0978 216.105 11.1011 215.518 11.3708 215.083C11.6405 214.647 12.1644 214.384 12.6745 214.426" stroke="#F0014F"/>
<path d="M112.675 130.093L117.823 127.805" stroke="#E9024D" stroke-linecap="round" stroke-linejoin="round"/>
<path d="M68.063 130.093C65.9702 135.292 61.9205 139.369 58.1304 143.439C54.3623 147.485 50.171 152.199 48.6165 157.547" stroke="#E9024D" stroke-linecap="round" stroke-linejoin="round"/>
<path d="M66.3468 128.949C64.3155 134.148 60.3846 138.225 56.7063 142.295C53.0491 146.341 48.981 151.055 47.4722 156.403" stroke="#E9024D" stroke-linecap="round" stroke-linejoin="round"/>
<path d="M57.1958 144.392L58.9117 146.108" stroke="#E9024D" stroke-linecap="round" stroke-linejoin="round"/>
<circle cx="59.4835" cy="146.108" r="1.14391" stroke="#E9024D" stroke-linecap="round" stroke-linejoin="round"/>
<path d="M28.0261 133.861C28.0261 133.861 30.8014 134.793 33.7457 132.953" stroke="#E9024D" stroke-linecap="round" stroke-linejoin="round"/>
<path d="M28.0261 135.694C28.0261 135.694 31.2663 136.327 34.3177 134.669" stroke="#E9024D" stroke-linecap="round" stroke-linejoin="round"/>
<path d="M122.97 91.2003L124.114 92.3442" stroke="#E9024D" stroke-linecap="round" stroke-linejoin="round"/>
<path d="M120.683 95.2041C120.683 95.2041 124.973 91.1693 129.262 88.3406" stroke="#E9024D" stroke-linecap="round" stroke-linejoin="round"/>
<ellipse rx="0.552731" ry="0.45964" transform="matrix(0.759434 -0.650584 0.650036 0.759903 120.178 95.4824)" stroke="#E9024D" stroke-linecap="round" stroke-linejoin="round"/>
<ellipse rx="0.552731" ry="0.45964" transform="matrix(0.759434 -0.650584 0.650036 0.759903 129.698 88.1203)" stroke="#E9024D" stroke-linecap="round" stroke-linejoin="round"/>
<path d="M139.558 63.7463V55.1827L134.982 52.8792" stroke="#E9024D" stroke-linecap="round" stroke-linejoin="round"/>
<path d="M138.986 63.7463V55.5958L135.554 54.0231" stroke="#E9024D" stroke-linecap="round" stroke-linejoin="round"/>
<path d="M136.126 55.1671L137.842 56.0653V63.7464H136.126V55.1671Z" fill="#E9024D"/>
<path d="M28.0261 136.957C28.0261 136.957 30.7653 136.957 32.0298 136.957" stroke="#E9024D" stroke-linecap="round" stroke-linejoin="round"/>
<rect width="0.828349" height="0.828349" transform="matrix(0.930277 0.366857 -0.366399 0.930458 31.9727 136.268)" stroke="#E9024D" stroke-linecap="round" stroke-linejoin="round"/>
<rect width="0.828349" height="0.828349" transform="matrix(0.930277 0.366857 -0.366399 0.930458 34.5557 133.917)" stroke="#E9024D" stroke-linecap="round" stroke-linejoin="round"/>
<path d="M134.982 51.5687C134.982 51.5687 140.394 52.4849 144.133 50.0193" stroke="#E9024D" stroke-linecap="round" stroke-linejoin="round"/>
<path d="M141.273 181.57L144.705 186.145" stroke="#101010" stroke-linecap="round"/>
<path d="M143.561 179.854L150.425 189.005" stroke="#101010" stroke-linecap="round"/>
<path d="M254.511 81.4921L249.642 86.3622L244.773 81.4921L240.953 85.3117L245.823 90.1818L240.953 95.0518L244.773 98.8715L249.642 94.0014L254.511 98.8715L258.33 95.0518L253.461 90.1818L258.33 85.3117L254.511 81.4921Z" fill="url(#paint48_linear_9062_8521)"/>
<path d="M253.881 77.8012L249.012 82.6712L244.143 77.8012L240.324 81.6209L245.193 86.4909L240.324 91.361L244.143 95.1807L249.012 90.3106L253.881 95.1807L257.7 91.361L252.831 86.4909L257.7 81.6209L253.881 77.8012Z" stroke="white"/>
<defs>
<linearGradient id="paint0_linear_9062_8521" x1="104.059" y1="69.3619" x2="92.4351" y2="76.6797" gradientUnits="userSpaceOnUse">
<stop stop-color="#E9024D"/>
<stop offset="1" stop-color="#101010"/>
</linearGradient>
<linearGradient id="paint1_linear_9062_8521" x1="126.635" y1="163.553" x2="191.675" y2="100.95" gradientUnits="userSpaceOnUse">
<stop stop-color="#E9024D"/>
<stop offset="1" stop-color="#101010"/>
</linearGradient>
<linearGradient id="paint2_linear_9062_8521" x1="116.053" y1="157.678" x2="182.103" y2="96.8187" gradientUnits="userSpaceOnUse">
<stop stop-color="white"/>
<stop offset="1" stop-color="#FC9AC2"/>
</linearGradient>
<linearGradient id="paint3_linear_9062_8521" x1="96.6605" y1="113.507" x2="112.104" y2="113.507" gradientUnits="userSpaceOnUse">
<stop stop-color="#E9024D"/>
<stop offset="1" stop-color="#101010"/>
</linearGradient>
<linearGradient id="paint4_linear_9062_8521" x1="163.251" y1="123.847" x2="123.898" y2="138.304" gradientUnits="userSpaceOnUse">
<stop stop-color="#E9024D"/>
<stop offset="1" stop-color="#101010"/>
</linearGradient>
<linearGradient id="paint5_linear_9062_8521" x1="192.271" y1="97.5044" x2="167.245" y2="149.381" gradientUnits="userSpaceOnUse">
<stop stop-color="white"/>
<stop offset="1" stop-color="#FC9AC2"/>
</linearGradient>
<linearGradient id="paint6_linear_9062_8521" x1="334.497" y1="145.675" x2="280.173" y2="78.6495" gradientUnits="userSpaceOnUse">
<stop stop-color="#E9024D"/>
<stop offset="1" stop-color="#101010"/>
</linearGradient>
<linearGradient id="paint7_linear_9062_8521" x1="280.161" y1="182.296" x2="314.847" y2="197.223" gradientUnits="userSpaceOnUse">
<stop stop-color="#E9024D"/>
<stop offset="1" stop-color="#101010"/>
</linearGradient>
<linearGradient id="paint8_linear_9062_8521" x1="209.9" y1="105.729" x2="77.4578" y2="71.6199" gradientUnits="userSpaceOnUse">
<stop stop-color="#E9024D"/>
<stop offset="1" stop-color="#101010"/>
</linearGradient>
<linearGradient id="paint9_linear_9062_8521" x1="80.0945" y1="105.935" x2="88.8493" y2="99.3988" gradientUnits="userSpaceOnUse">
<stop stop-color="white"/>
<stop offset="0.195499" stop-color="#FEFAFC"/>
<stop offset="0.395905" stop-color="#FEEEF5"/>
<stop offset="0.59859" stop-color="#FDDAE8"/>
<stop offset="0.801518" stop-color="#FDBDD7"/>
<stop offset="1" stop-color="#FC9AC2"/>
</linearGradient>
<linearGradient id="paint10_linear_9062_8521" x1="189.667" y1="43.7314" x2="200.641" y2="46.3886" gradientUnits="userSpaceOnUse">
<stop stop-color="#E9024D"/>
<stop offset="1" stop-color="#101010"/>
</linearGradient>
<linearGradient id="paint11_linear_9062_8521" x1="200.208" y1="42.9683" x2="202.859" y2="50.0472" gradientUnits="userSpaceOnUse">
<stop stop-color="#E9024D"/>
<stop offset="1" stop-color="#101010"/>
</linearGradient>
<linearGradient id="paint12_linear_9062_8521" x1="205.401" y1="40.1786" x2="208.868" y2="46.3929" gradientUnits="userSpaceOnUse">
<stop stop-color="#E9024D"/>
<stop offset="1" stop-color="#101010"/>
</linearGradient>
<linearGradient id="paint13_linear_9062_8521" x1="210.207" y1="35.1655" x2="212.639" y2="42.4042" gradientUnits="userSpaceOnUse">
<stop stop-color="#E9024D"/>
<stop offset="1" stop-color="#101010"/>
</linearGradient>
<linearGradient id="paint14_linear_9062_8521" x1="215.444" y1="34.9219" x2="218.095" y2="42.0008" gradientUnits="userSpaceOnUse">
<stop stop-color="#E9024D"/>
<stop offset="1" stop-color="#101010"/>
</linearGradient>
<linearGradient id="paint15_linear_9062_8521" x1="220.777" y1="34.7764" x2="224.244" y2="40.9908" gradientUnits="userSpaceOnUse">
<stop stop-color="#E9024D"/>
<stop offset="1" stop-color="#101010"/>
</linearGradient>
<linearGradient id="paint16_linear_9062_8521" x1="57.7677" y1="134.669" x2="71.4947" y2="134.669" gradientUnits="userSpaceOnUse">
<stop stop-color="#E9024D"/>
<stop offset="1" stop-color="#101010"/>
</linearGradient>
<linearGradient id="paint17_linear_9062_8521" x1="77.9282" y1="100.325" x2="78.3703" y2="108.779" gradientUnits="userSpaceOnUse">
<stop stop-color="#E9024D"/>
<stop offset="1" stop-color="#101010"/>
</linearGradient>
<linearGradient id="paint18_linear_9062_8521" x1="84.0855" y1="102.113" x2="89.5393" y2="113.739" gradientUnits="userSpaceOnUse">
<stop stop-color="#E9024D"/>
<stop offset="0.0624971" stop-color="#CA0344"/>
<stop offset="0.207827" stop-color="#880831"/>
<stop offset="0.339777" stop-color="#540B23"/>
<stop offset="0.453778" stop-color="#2F0D18"/>
<stop offset="0.545311" stop-color="#180F12"/>
<stop offset="0.602985" stop-color="#101010"/>
</linearGradient>
<linearGradient id="paint19_linear_9062_8521" x1="69.3153" y1="68.1724" x2="81.2908" y2="106.628" gradientUnits="userSpaceOnUse">
<stop stop-color="white"/>
<stop offset="1" stop-color="#FC9AC2"/>
</linearGradient>
<linearGradient id="paint20_linear_9062_8521" x1="56.9769" y1="152.855" x2="118.071" y2="68.4852" gradientUnits="userSpaceOnUse">
<stop stop-color="#E9024D"/>
<stop offset="0.101064" stop-color="#E2024B"/>
<stop offset="0.240978" stop-color="#D00346"/>
<stop offset="0.403575" stop-color="#B3053D"/>
<stop offset="0.583307" stop-color="#8A0832"/>
<stop offset="0.777085" stop-color="#550B23"/>
<stop offset="0.979727" stop-color="#160F11"/>
<stop offset="1" stop-color="#101010"/>
</linearGradient>
<linearGradient id="paint21_linear_9062_8521" x1="51.6638" y1="198.742" x2="96.6083" y2="176.129" gradientUnits="userSpaceOnUse">
<stop stop-color="#E9024D"/>
<stop offset="1" stop-color="#101010"/>
</linearGradient>
<linearGradient id="paint22_linear_9062_8521" x1="57.7677" y1="139.817" x2="82.362" y2="139.817" gradientUnits="userSpaceOnUse">
<stop stop-color="#E9024D"/>
<stop offset="1" stop-color="#101010"/>
</linearGradient>
<linearGradient id="paint23_linear_9062_8521" x1="90.3652" y1="82.8708" x2="89.5309" y2="79.2006" gradientUnits="userSpaceOnUse">
<stop stop-color="#0071BC"/>
<stop offset="1" stop-color="#101010"/>
</linearGradient>
<linearGradient id="paint24_linear_9062_8521" x1="99.7166" y1="78.0699" x2="98.41" y2="74.7573" gradientUnits="userSpaceOnUse">
<stop stop-color="#0071BC"/>
<stop offset="1" stop-color="#101010"/>
</linearGradient>
<linearGradient id="paint25_linear_9062_8521" x1="93.2897" y1="83.7196" x2="92.5576" y2="76.8266" gradientUnits="userSpaceOnUse">
<stop stop-color="#E9024D"/>
<stop offset="1" stop-color="#101010"/>
</linearGradient>
<linearGradient id="paint26_linear_9062_8521" x1="83.1466" y1="77.8455" x2="64.8473" y2="74.3937" gradientUnits="userSpaceOnUse">
<stop stop-color="white"/>
<stop offset="0.171112" stop-color="#FEE8F1"/>
<stop offset="0.540058" stop-color="#FDBED7"/>
<stop offset="0.828856" stop-color="#FCA3C7"/>
<stop offset="1" stop-color="#FC9AC2"/>
</linearGradient>
<linearGradient id="paint27_linear_9062_8521" x1="46.4167" y1="122.156" x2="28.2882" y2="99.6203" gradientUnits="userSpaceOnUse">
<stop stop-color="white"/>
<stop offset="0.627526" stop-color="#FDBCD6"/>
<stop offset="1" stop-color="#FC9AC2"/>
</linearGradient>
<linearGradient id="paint28_linear_9062_8521" x1="56.3869" y1="176.276" x2="18.7654" y2="142.922" gradientUnits="userSpaceOnUse">
<stop stop-color="#E9024D"/>
<stop offset="1" stop-color="#101010"/>
</linearGradient>
<linearGradient id="paint29_linear_9062_8521" x1="46.1071" y1="122.079" x2="33.0272" y2="107.113" gradientUnits="userSpaceOnUse">
<stop stop-color="white"/>
<stop offset="1" stop-color="#FC9AC2"/>
</linearGradient>
<linearGradient id="paint30_linear_9062_8521" x1="133.017" y1="61.4801" x2="142.713" y2="59.1028" gradientUnits="userSpaceOnUse">
<stop stop-color="white"/>
<stop offset="1" stop-color="#FC9AC2"/>
</linearGradient>
<linearGradient id="paint31_linear_9062_8521" x1="200.385" y1="138.533" x2="150.328" y2="162.005" gradientUnits="userSpaceOnUse">
<stop stop-color="white"/>
<stop offset="1" stop-color="#FC9AC2"/>
</linearGradient>
<linearGradient id="paint32_linear_9062_8521" x1="318.293" y1="185.169" x2="262.624" y2="122.023" gradientUnits="userSpaceOnUse">
<stop stop-color="#E9024D"/>
<stop offset="1" stop-color="#101010"/>
</linearGradient>
<linearGradient id="paint33_linear_9062_8521" x1="261.832" y1="142.821" x2="183.907" y2="230.185" gradientUnits="userSpaceOnUse">
<stop stop-color="#E9024D"/>
<stop offset="1" stop-color="#101010"/>
</linearGradient>
<linearGradient id="paint34_linear_9062_8521" x1="44.5964" y1="28.0598" x2="53.953" y2="28.0598" gradientUnits="userSpaceOnUse">
<stop stop-color="#E9024D"/>
<stop offset="0.0455207" stop-color="#EA044E"/>
<stop offset="1" stop-color="#FA246B"/>
</linearGradient>
<linearGradient id="paint35_linear_9062_8521" x1="-3.50857" y1="27.2288" x2="5.84801" y2="27.2288" gradientUnits="userSpaceOnUse">
<stop stop-color="#E9024D"/>
<stop offset="0.0455207" stop-color="#EA044E"/>
<stop offset="1" stop-color="#FA246B"/>
</linearGradient>
<linearGradient id="paint36_linear_9062_8521" x1="322.499" y1="211.768" x2="336.055" y2="212.311" gradientUnits="userSpaceOnUse">
<stop stop-color="#FE3477"/>
<stop offset="1" stop-color="#F0014F"/>
</linearGradient>
<linearGradient id="paint37_linear_9062_8521" x1="180.242" y1="261.643" x2="194.765" y2="249.666" gradientUnits="userSpaceOnUse">
<stop stop-color="#E9024D"/>
<stop offset="0.0455207" stop-color="#EA044E"/>
<stop offset="1" stop-color="#FA246B"/>
</linearGradient>
<linearGradient id="paint38_linear_9062_8521" x1="64.6311" y1="85.4807" x2="68.6348" y2="85.4807" gradientUnits="userSpaceOnUse">
<stop stop-color="#E9024D"/>
<stop offset="0.101064" stop-color="#E2024B"/>
<stop offset="0.240978" stop-color="#D00346"/>
<stop offset="0.403575" stop-color="#B3053D"/>
<stop offset="0.583307" stop-color="#8A0832"/>
<stop offset="0.777085" stop-color="#550B23"/>
<stop offset="0.979727" stop-color="#160F11"/>
<stop offset="1" stop-color="#101010"/>
</linearGradient>
<linearGradient id="paint39_linear_9062_8521" x1="1383.76" y1="346.526" x2="1384.46" y2="372.035" gradientUnits="userSpaceOnUse">
<stop stop-color="#E9024D"/>
<stop offset="0.0455207" stop-color="#EA044E"/>
<stop offset="1" stop-color="#FA246B"/>
</linearGradient>
<linearGradient id="paint40_linear_9062_8521" x1="19.7898" y1="200.224" x2="12.4883" y2="213.413" gradientUnits="userSpaceOnUse">
<stop stop-color="#E9024D"/>
<stop offset="1" stop-color="#101010"/>
</linearGradient>
<linearGradient id="paint41_linear_9062_8521" x1="-23.4726" y1="-497.977" x2="12.1457" y2="-497.977" gradientUnits="userSpaceOnUse">
<stop stop-color="#E9024D"/>
<stop offset="1" stop-color="#101010"/>
</linearGradient>
<linearGradient id="paint42_linear_9062_8521" x1="-1.16584" y1="-304.064" x2="-0.94314" y2="-314.121" gradientUnits="userSpaceOnUse">
<stop stop-color="#E9024D"/>
<stop offset="1" stop-color="#101010"/>
</linearGradient>
<linearGradient id="paint43_linear_9062_8521" x1="7.5186" y1="-305.5" x2="4.21083" y2="-334.052" gradientUnits="userSpaceOnUse">
<stop stop-color="#E9024D"/>
<stop offset="1" stop-color="#101010"/>
</linearGradient>
<linearGradient id="paint44_linear_9062_8521" x1="-7.20653" y1="-315.29" x2="-3.37224" y2="-315.29" gradientUnits="userSpaceOnUse">
<stop stop-color="#E9024D"/>
<stop offset="1" stop-color="#101010"/>
</linearGradient>
<linearGradient id="paint45_linear_9062_8521" x1="-5.88238" y1="-314.168" x2="-2.07496" y2="-320.373" gradientUnits="userSpaceOnUse">
<stop stop-color="#E9024D"/>
<stop offset="0.124867" stop-color="#C30442"/>
<stop offset="0.357634" stop-color="#840830"/>
<stop offset="0.569889" stop-color="#520B22"/>
<stop offset="0.754444" stop-color="#2E0E18"/>
<stop offset="0.904065" stop-color="#180F12"/>
<stop offset="1" stop-color="#101010"/>
</linearGradient>
<linearGradient id="paint46_linear_9062_8521" x1="-5.25593" y1="-312.946" x2="-2.20639" y2="-316.367" gradientUnits="userSpaceOnUse">
<stop stop-color="#E9024D"/>
<stop offset="0.114965" stop-color="#D70348"/>
<stop offset="0.343297" stop-color="#AB053B"/>
<stop offset="0.663571" stop-color="#620A27"/>
<stop offset="1" stop-color="#101010"/>
</linearGradient>
<linearGradient id="paint47_linear_9062_8521" x1="-2.66775" y1="-313.285" x2="-6.64129" y2="-319.035" gradientUnits="userSpaceOnUse">
<stop stop-color="#E9024D"/>
<stop offset="1" stop-color="#101010"/>
</linearGradient>
<linearGradient id="paint48_linear_9062_8521" x1="240.953" y1="98.8715" x2="258.33" y2="98.8715" gradientUnits="userSpaceOnUse">
<stop stop-color="#E9024D"/>
<stop offset="0.0455207" stop-color="#EA044E"/>
<stop offset="1" stop-color="#FA246B"/>
</linearGradient>
</defs>
</svg>
