<svg width="491" height="482" viewBox="0 0 491 482" fill="none" xmlns="http://www.w3.org/2000/svg">
<path d="M490.563 278.438V298.901C490.563 300.998 489.428 302.939 487.591 303.988L436.509 332.991C435.585 333.518 434.574 333.766 433.584 333.766C431.537 333.766 429.543 332.71 428.454 330.815C426.834 328.008 427.818 324.426 430.645 322.817L478.755 295.495V281.811L382.66 227.117L341.818 249.944L341.444 236.69L379.807 215.256C381.63 214.234 383.86 214.247 385.671 215.296L487.624 273.371C489.441 274.419 490.563 276.347 490.563 278.438V278.438Z" fill="url(#paint0_linear_9070_10673)"/>
<path d="M353.881 358.908L405.392 388.047L453.051 360.981L401.666 331.84L353.881 358.908Z" fill="url(#paint1_linear_9070_10673)"/>
<path d="M388.791 361.948C388.633 362.05 388.475 362.152 388.31 362.246C385.567 363.819 382.044 363.357 378.82 361.361L383.447 358.27C384.14 357.871 384.645 357.245 384.952 356.471C385.598 354.819 385.346 352.503 384.109 350.39C382.887 348.277 380.995 346.9 379.23 346.634C378.402 346.509 377.598 346.626 376.905 347.025L371.79 350.437C371.506 350.601 371.254 350.805 371.041 351.04C369.299 345.546 370.45 340.194 374.225 338.034C378.907 335.35 385.851 338.589 389.744 345.28C393.496 351.736 393.031 359.029 388.791 361.948H388.791Z" fill="#282526" stroke="#E9024D"/>
<path d="M404.609 352.135L404.625 352.15L404.546 352.197C404.191 352.518 403.813 352.808 403.387 353.051C403.088 353.223 402.772 353.371 402.449 353.496L388.79 361.948C393.031 359.029 393.496 351.736 389.744 345.28C385.851 338.589 378.907 335.349 374.225 338.033L389.31 328.831C393.992 326.146 400.936 329.394 404.829 336.077C408.345 342.126 408.14 348.903 404.609 352.135H404.609Z" fill="#282526" stroke="#E9024D"/>
<path d="M384.951 356.471C384.644 357.245 384.139 357.871 383.446 358.27L378.819 361.361C378.811 361.361 378.803 361.346 378.803 361.346C380.53 359.883 380.655 356.666 378.992 353.81C377.188 350.703 373.956 349.193 371.788 350.437L376.904 347.025C377.597 346.626 378.401 346.509 379.229 346.634C380.994 346.9 382.886 348.277 384.107 350.39C385.345 352.503 385.597 354.819 384.951 356.471H384.951Z" stroke="#E9024D"/>
<path d="M378.818 361.36L378.638 361.478C378.693 361.439 378.748 361.4 378.803 361.345C378.803 361.345 378.811 361.36 378.818 361.36Z" stroke="#00C8FF"/>
<path d="M378.804 361.346C378.749 361.4 378.694 361.44 378.638 361.479C378.536 361.557 378.434 361.627 378.323 361.69C376.156 362.934 372.924 361.424 371.119 358.317C369.551 355.617 369.574 352.605 371.041 351.039C371.253 350.805 371.505 350.601 371.789 350.437C373.957 349.193 377.188 350.703 378.993 353.81C380.656 356.666 380.53 359.882 378.804 361.346L378.804 361.346Z" fill="#282526" stroke="#E9024D"/>
<path d="M453.052 400.238V360.981L405.393 388.047V427.304L453.052 400.238Z" fill="url(#paint2_linear_9070_10673)"/>
<path d="M353.881 358.909V398.166L405.392 427.305V388.047L353.881 358.909Z" fill="url(#paint3_linear_9070_10673)"/>
<path d="M295.554 286.463L295.638 297.387L285.905 303.684L277.317 299.016V297.086L273.91 299.116L237.275 320.673V272.014L398.921 180.208L398.972 180.183L399.317 192.536L399.796 209.532L400.226 224.866L295.554 286.463Z" fill="url(#paint4_linear_9070_10673)"/>
<path d="M237.278 272.042V319.832L92.6964 238.424V192.059L237.255 272.019L237.278 272.042Z" fill="url(#paint5_linear_9070_10673)"/>
<path d="M398.923 180.208L237.276 272.013L237.251 272.022L92.6974 192.057V191.882C158.803 155.431 191.565 97.9907 201.862 60.2891C207.245 40.5704 207.421 26.8978 207.421 26.8978L247.867 49.6574L290.138 25.9204L290.247 25.9791C290.651 38.9999 296.488 57.5415 304.808 76.3336C309.132 86.1304 314.137 95.9858 319.387 105.173C369.639 189.211 397.56 180.684 398.923 180.208Z" fill="url(#paint6_linear_9070_10673)"/>
<path d="M398.922 180.209L237.276 272.014L237.25 272.023" stroke="#E9024D"/>
<path d="M238.842 311.654V311.674L238.822 311.66L238.842 311.654Z" fill="white" stroke="black" stroke-linecap="round" stroke-linejoin="round"/>
<path d="M304.804 76.3341C299.252 77.4061 296.393 66.1374 294.39 61.5659C294.184 64.7633 292.141 67.7604 292.141 67.7604C288.203 65.8815 287.233 56.3118 287.233 56.3118C287.233 56.3118 284.675 86.7959 281.711 94.4586C276.598 93.8013 270.156 84.5116 267.189 65.4245C267.855 81.11 259.981 95.1715 259.981 95.1715C244.336 88.9769 245.207 63.6247 245.207 63.6247C245.207 63.6247 237.998 94.2059 227.312 101.059C221.434 85.5775 222.967 70.2458 224.143 55.7547C220.462 69.5392 211.771 75.1704 211.771 75.1704C210.338 71.5675 210.338 67.0992 210.596 49.6539C207.491 56.0833 204.354 59.01 201.86 60.2895C207.243 40.5686 207.424 26.8966 207.424 26.8966L249.756 2.53125L290.141 25.9223L290.249 25.9826C290.651 38.9971 296.491 57.5419 304.804 76.3341Z" fill="url(#paint7_linear_9070_10673)"/>
<path d="M290.14 25.7511L247.863 49.4829L207.423 26.7257L249.755 2.36035L290.14 25.7511Z" fill="url(#paint8_linear_9070_10673)"/>
<path d="M278.467 25.1871L274.114 27.7028L268.66 30.852L249.421 41.9718L229.902 30.916L224.383 27.7912L219.978 25.2967L249.381 8.61255L278.467 25.1871Z" fill="url(#paint9_linear_9070_10673)"/>
<path d="M274.116 27.7032L268.662 30.8524L249.422 41.9721L229.904 30.9164L224.385 27.7915L249.383 13.6108L274.116 27.7032Z" fill="url(#paint10_linear_9070_10673)"/>
<path d="M249.382 8.61255V13.6105L274.115 27.7028L278.468 25.1871L249.382 8.61255Z" fill="url(#paint11_linear_9070_10673)"/>
<path d="M141.263 92.1902L151.388 97.9127L165.019 90.1139L154.893 84.3914L141.263 92.1902Z" fill="url(#paint12_linear_9070_10673)"/>
<path d="M165.019 90.114V97.0683L154.565 109.518L151.288 103.325V97.9128L165.019 90.114Z" fill="url(#paint13_linear_9070_10673)"/>
<path d="M141.262 92.1902L151.288 97.9127V103.325L141.262 97.9127V92.1902Z" fill="#E9024D"/>
<path d="M141.262 97.9133L146.275 104.404L154.564 109.519L151.288 103.325L141.262 97.9133Z" fill="url(#paint14_linear_9070_10673)"/>
<path d="M122.761 99.5909L130.853 104.039C132.775 105.096 135.117 105.069 137.015 103.97L147.823 97.7089C148.955 97.0532 149.651 95.8503 149.651 94.5497C149.651 93.3454 150.247 92.2185 151.247 91.5362L165.739 81.6338C166.371 81.2018 167.232 81.6511 167.232 82.4133C167.232 83.1684 168.08 83.6191 168.713 83.1997L172.966 80.3849C175.407 78.7689 176.873 76.0495 176.873 73.1369V64.4836C176.873 61.5951 175.247 58.9494 172.661 57.6268L167.706 55.0921C165.613 54.0217 163.144 53.9512 160.993 54.9004L156.621 52.8244C153.916 51.5394 150.746 51.6662 148.153 53.1617L138.983 58.4508C134.938 60.7844 132.448 65.0791 132.448 69.7242V72.1681L128.266 74.9172C125.118 76.9863 123.309 80.5555 123.509 84.2991L123.563 85.3063L122.282 86.5928C120.378 88.5053 119.31 91.087 119.31 93.7766C119.31 96.1939 120.632 98.4202 122.761 99.5909H122.761Z" fill="white"/>
<path d="M133.525 71.8896L142.202 76.7139L133.525 71.8896Z" fill="white"/>
<path d="M133.525 71.8896L142.202 76.7139" stroke="black" stroke-linecap="round" stroke-linejoin="round"/>
<path d="M164.678 67.4008V61.5935C164.678 58.8852 163.289 56.3622 160.992 54.9004" fill="white"/>
<path d="M164.678 67.4008V61.5935C164.678 58.8852 163.289 56.3622 160.992 54.9004V54.9004" stroke="black" stroke-linecap="round" stroke-linejoin="round"/>
<path d="M132.026 97.5101L135.982 95.2821C136.873 94.7805 137.422 93.843 137.422 92.8273V84.8054" fill="white"/>
<path d="M132.026 97.5101L135.982 95.2821C136.873 94.7805 137.422 93.843 137.422 92.8273V84.8054" stroke="black" stroke-linecap="round" stroke-linejoin="round"/>
<path d="M127.606 77.3342L135.14 81.5232C135.85 81.9184 136.716 81.9199 137.428 81.5279L144.891 77.4188" fill="white"/>
<path d="M127.606 77.3342L135.14 81.5232C135.85 81.9184 136.716 81.9199 137.428 81.5279L144.891 77.4188" stroke="black" stroke-linecap="round" stroke-linejoin="round"/>
<path d="M164.678 67.0327L173.122 62.2778L164.678 67.0327Z" fill="white"/>
<path d="M164.678 67.0327L173.122 62.2778" stroke="black" stroke-linecap="round" stroke-linejoin="round"/>
<path d="M350.033 109.317L256.088 162.667C263.414 144.257 268.461 139.397 271.999 139.799C274.925 140.131 276.417 144.017 279.871 143.815C282.805 143.643 284.959 140.646 287.901 135.363C295.803 121.171 296.485 116.646 301.691 109.317C306.611 102.392 311.094 101.416 312.405 103.804C313.718 106.192 312.296 115.69 313.608 118.675C314.92 121.66 317.271 124.084 320.168 119.507C323.065 114.93 326.509 112.744 327.329 116.035C328.149 119.327 330.062 118.551 332.85 115.329C335.638 112.108 336.381 105.811 341.05 108.797C344.493 110.999 344.803 110.761 350.033 109.317Z" fill="white"/>
<path d="M212.746 443.014C210.99 443.014 209.252 442.24 208.089 440.759C206.082 438.206 206.539 434.524 209.11 432.532L230.374 416.056V370.666L176.415 339.551C174.596 338.501 173.476 336.571 173.476 334.482V310.149C173.476 308.064 174.592 306.136 176.405 305.086L191.4 296.401C194.219 294.77 197.832 295.716 199.475 298.511C201.117 301.308 200.166 304.896 197.35 306.528L185.284 313.516V331.108L239.244 362.224C241.063 363.272 242.183 365.204 242.183 367.292V418.917C242.183 420.722 241.344 422.427 239.911 423.538L216.375 441.774C215.296 442.61 214.017 443.014 212.746 443.014V443.014Z" fill="url(#paint15_linear_9070_10673)"/>
<g style="mix-blend-mode:screen" opacity="0.35">
<path d="M122.87 411.232L247.899 18.1584L216.678 413.193L171.596 438.795L122.87 411.232Z" fill="url(#paint16_linear_9070_10673)"/>
</g>
<path d="M332.095 344.487C330.059 344.487 328.077 343.44 326.983 341.564C325.347 338.764 326.308 335.177 329.129 333.553L378.979 304.861L346.631 281.92C343.979 280.039 343.364 276.377 345.259 273.743C347.154 271.108 350.842 270.5 353.495 272.38L393.291 300.604C394.923 301.761 395.852 303.662 395.757 305.651C395.661 307.64 394.556 309.445 392.82 310.445L335.051 343.696C334.118 344.232 333.1 344.487 332.095 344.487L332.095 344.487Z" fill="url(#paint17_linear_9070_10673)"/>
<path d="M6.26877 274.166C3.00794 274.185 0.349407 271.576 0.331319 268.338L0.168916 240.224C0.156605 238.039 1.36887 236.029 3.3139 235.008L31.7165 220.102C34.5987 218.589 38.1716 219.683 39.6945 222.544C41.2185 225.407 40.1166 228.953 37.2337 230.466L11.9973 243.711L12.1381 268.271C12.1573 271.508 9.5296 274.148 6.26877 274.166V274.166Z" fill="url(#paint18_linear_9070_10673)"/>
<ellipse cx="34.7769" cy="246.95" rx="1.87989" ry="2.9694" stroke="white" stroke-linecap="round"/>
<ellipse cx="74.341" cy="224.212" rx="1.62355" ry="3.30876" stroke="white" stroke-linecap="round"/>
<path d="M36.6578 246.356L72.7176 225.146" stroke="white" stroke-linecap="round"/>
<ellipse cx="24.9829" cy="264.812" rx="1.87989" ry="2.9694" stroke="white" stroke-linecap="round"/>
<ellipse cx="64.5462" cy="242.075" rx="1.62355" ry="3.30876" stroke="white" stroke-linecap="round"/>
<path d="M26.8632 264.219L62.923 243.009" stroke="white" stroke-linecap="round"/>
<path d="M52.5745 236.994V248.872" stroke="white" stroke-linecap="round"/>
<ellipse cx="335.279" cy="237.098" rx="1.87989" ry="2.9694" stroke="white"/>
<ellipse cx="374.842" cy="214.36" rx="1.62355" ry="3.30876" stroke="white"/>
<path d="M337.159 236.503L373.219 215.293" stroke="white"/>
<ellipse cx="325.485" cy="254.961" rx="1.87989" ry="2.9694" stroke="white"/>
<ellipse cx="365.047" cy="232.223" rx="1.62355" ry="3.30876" stroke="white"/>
<path d="M327.365 254.366L363.425 233.156" stroke="white"/>
<path d="M353.077 227.141V239.019" stroke="white"/>
<path d="M171.597 438.796V481L160.32 474.604C160.936 470.071 159.973 465.07 158.923 460.654C157.716 455.599 155.624 450.623 152.967 446.084L131.516 458.269L131.509 458.263L122.87 453.365V411.233L168.691 437.155L171.597 438.796Z" fill="url(#paint19_linear_9070_10673)"/>
<path d="M216.679 413.193V455.41L171.597 481V438.795L216.679 413.193Z" fill="url(#paint20_linear_9070_10673)"/>
<path d="M212.123 424.128V447.197L177.303 466.964V443.908L204.599 428.4L212.123 424.128Z" fill="url(#paint21_linear_9070_10673)"/>
<path d="M204.599 428.4V443.641L177.303 459.135V443.908L204.599 428.4Z" fill="url(#paint22_linear_9070_10673)"/>
<path d="M306.071 244.344V265.441L268.284 286.889V265.808L302.37 246.448L306.071 244.344Z" fill="#282526"/>
<path d="M302.37 246.448V262.333L268.284 281.685V265.808L302.37 246.448Z" fill="#E9024D"/>
<path d="M349.211 179.578L273.425 222.631V257.765L349.211 214.713V179.578Z" fill="#E9024D"/>
<path d="M344.62 187.439V212.068L278.018 249.904V225.275L344.62 187.439Z" fill="#282526"/>
<path d="M344.573 205.897L277.971 243.733" stroke="white"/>
<path d="M29.9413 351.868V391.125L81.453 420.264V381.007L29.9413 351.868Z" fill="url(#paint23_linear_9070_10673)"/>
<path d="M29.9413 351.867L81.453 381.006L129.112 353.94L77.7261 324.798L29.9413 351.867Z" fill="url(#paint24_linear_9070_10673)"/>
<path d="M81.0222 324.988L80.9744 324.947L80.961 324.943C79.5974 323.924 77.794 323.226 75.4099 323.107L75.3853 323.099L75.3806 323.106C75.1301 323.094 74.8807 323.081 74.6175 323.082C62.7518 323.132 56.376 341.17 57.3135 352.024L85.1516 367.462L107.783 340.025C107.783 340.025 81.2854 325.188 81.0222 324.988Z" fill="url(#paint25_linear_9070_10673)"/>
<path d="M152.968 446.084L131.517 458.269L131.511 458.263C129.608 452.317 128.027 444.833 130.068 438.763C131.505 434.497 135.676 432.27 140.039 433.319C144.821 434.464 148.822 439.617 151.381 443.511C151.932 444.351 152.463 445.211 152.968 446.084H152.968Z" fill="url(#paint26_linear_9070_10673)"/>
<path d="M122.87 411.233L171.596 438.796L216.678 413.193L168.071 385.627L122.87 411.233Z" fill="url(#paint27_linear_9070_10673)"/>
<path d="M192.69 382.499L189.894 379.447C189.738 379.242 189.574 379.042 189.4 378.848C189.199 378.626 188.987 378.419 188.769 378.218L188.741 378.189L188.736 378.19C183.187 373.138 172.109 375.083 163.394 382.825C155.012 390.273 151.758 400.472 155.476 406.609L155.479 406.626L155.502 406.652C155.803 407.144 156.144 407.611 156.535 408.046C156.822 408.364 157.13 408.655 157.452 408.928L159.826 411.697L160.822 410.811C166.791 412.834 175.449 410.369 182.54 404.069C189.632 397.77 193.056 389.498 191.693 383.384L192.69 382.499Z" fill="url(#paint28_linear_9070_10673)"/>
<path d="M191.965 391.363L182.261 375.809" stroke="#E9024D" stroke-linecap="round" stroke-linejoin="round"/>
<path d="M175.894 376.398L188.642 396.329L190.303 398.014" stroke="#E9024D" stroke-linecap="round" stroke-linejoin="round"/>
<path d="M170.449 378.658L184.598 402.582L186.884 401.578" stroke="#E9024D" stroke-linecap="round" stroke-linejoin="round"/>
<path d="M164.249 382.893L183.7 405.02L183.459 405.133" stroke="#E9024D" stroke-linecap="round" stroke-linejoin="round"/>
<path d="M176.212 408.283L158.718 388.382" stroke="#E9024D" stroke-linecap="round" stroke-linejoin="round"/>
<path d="M170.574 410.725L155.714 393.815" stroke="#E9024D" stroke-linecap="round" stroke-linejoin="round"/>
<path d="M165.571 412.858L154.068 399.768" stroke="#E9024D" stroke-linecap="round" stroke-linejoin="round"/>
<ellipse rx="21.9802" ry="14.2994" transform="matrix(0.747581 -0.664171 0.669475 0.742835 176.256 397.097)" fill="url(#paint29_linear_9070_10673)"/>
<path d="M190.03 384.861C194.462 389.779 191.887 399.243 184.281 406.002C176.673 412.761 166.913 414.253 162.481 409.335" stroke="black" stroke-linecap="round" stroke-linejoin="round"/>
<path d="M204.6 443.641L212.124 447.197V424.128L204.6 428.4V443.641Z" fill="url(#paint30_linear_9070_10673)"/>
<path d="M364.858 374.126V394.601L395.763 412.146V391.682L371.536 377.918L364.858 374.126Z" fill="url(#paint31_linear_9070_10673)"/>
<path d="M371.537 377.919V391.446L395.764 405.198V391.683L371.537 377.919Z" fill="url(#paint32_linear_9070_10673)"/>
<path d="M371.536 391.445L364.858 394.601V374.126L371.536 377.918V391.445Z" fill="url(#paint33_linear_9070_10673)"/>
<path d="M139.929 406.761L145.723 404.926" stroke="white" stroke-linecap="round"/>
<path d="M144.629 378.103L149.44 382.272" stroke="white" stroke-linecap="round"/>
<path d="M158.406 364.452L160.812 369.961" stroke="white" stroke-linecap="round"/>
<path d="M184.427 360.083L183.245 366.65" stroke="white" stroke-linecap="round"/>
<path d="M201.919 374.195L198.093 379.325" stroke="white" stroke-linecap="round"/>
<path d="M203.778 391.78L200.006 393.546" stroke="white" stroke-linecap="round"/>
<ellipse rx="2.51363" ry="4.36769" transform="matrix(0.972813 -0.23159 0.234748 0.972056 46.1895 384.473)" stroke="white" stroke-linecap="round" stroke-linejoin="round"/>
<path d="M129.111 393.198V353.94L81.4523 381.007V420.264L129.111 393.198Z" fill="#282526"/>
<path d="M253.771 412.397L305.282 441.535L352.941 414.469L301.556 385.328L253.771 412.397Z" fill="url(#paint34_linear_9070_10673)"/>
<path d="M278.779 409.365C275.518 409.365 272.875 406.74 272.875 403.503V369.309C272.875 367.219 273.996 365.287 275.819 364.239L312.97 342.854C315.793 341.229 319.404 342.185 321.039 344.986C322.674 347.786 321.714 351.373 318.892 352.997L284.683 372.687V403.503C284.683 406.74 282.04 409.365 278.779 409.365L278.779 409.365Z" fill="url(#paint35_linear_9070_10673)"/>
<path d="M352.942 453.727V414.469L305.283 441.535V480.793L352.942 453.727Z" fill="#282526" stroke="#E9024D"/>
<g style="mix-blend-mode:screen" opacity="0.35">
<path d="M326.562 407.255V381.839L295.706 399.362V424.779L326.562 407.255Z" fill="url(#paint36_linear_9070_10673)"/>
</g>
<g style="mix-blend-mode:screen" opacity="0.35">
<path d="M336.64 413.072V387.656L305.784 405.179V430.595L336.64 413.072Z" fill="url(#paint37_linear_9070_10673)"/>
</g>
<g style="mix-blend-mode:screen" opacity="0.35">
<path d="M326.562 381.839L295.706 399.362L326.562 381.839Z" fill="url(#paint38_linear_9070_10673)"/>
</g>
<path d="M352.942 426.421L305.283 453.487L352.942 426.421Z" fill="#282526"/>
<path d="M352.942 426.421L305.283 453.487" stroke="#E9024D"/>
<path d="M318.814 473.116V453.488L313.531 456.556V476.109L318.814 473.116Z" fill="url(#paint39_linear_9070_10673)"/>
<path d="M331.503 465.912V446.283L326.22 449.352V468.905L331.503 465.912Z" fill="url(#paint40_linear_9070_10673)"/>
<path d="M344.193 458.707V439.078L338.91 442.146V461.7L344.193 458.707Z" fill="url(#paint41_linear_9070_10673)"/>
<path d="M253.771 412.397V451.654L305.282 480.793V441.535L253.771 412.397Z" fill="#282526" stroke="#E9024D"/>
<path d="M102.695 386.406L89.8544 393.732V382.51L84.936 385.376" stroke="white" stroke-linecap="round"/>
<path d="M102.834 393.325L90.79 400.196V409.636L84.936 412.899" stroke="white" stroke-linecap="round"/>
<path d="M69.5329 413.521V382.874L46.1887 369.616V380.111" stroke="white" stroke-linecap="round" stroke-linejoin="round"/>
<ellipse rx="1.79189" ry="0.860596" transform="matrix(0.251819 -0.967774 0.968642 0.24846 84.074 385.783)" stroke="white" stroke-linecap="round"/>
<ellipse rx="1.79189" ry="0.860596" transform="matrix(0.251819 -0.967774 0.968642 0.24846 84.2514 412.9)" stroke="white" stroke-linecap="round"/>
<path d="M112.671 351.775C112.671 351.775 113.961 338.652 102.238 338.7C90.3721 338.75 83.9967 356.789 84.9346 367.642L112.671 351.775Z" fill="url(#paint42_linear_9070_10673)"/>
<path d="M93.325 351.137C91.3238 354.25 90.1369 358.321 89.8745 361.877C89.7956 362.899 89.7956 363.876 89.8745 364.775L92.4722 363.303L103.807 356.861L107.757 354.621L96.0806 347.991C95.0392 348.829 94.1171 349.907 93.325 351.137L93.325 351.137Z" fill="#282526"/>
<path d="M101.014 346.141C99.1536 346.149 97.5045 346.846 96.0813 347.991L107.757 354.621C107.757 354.621 108.564 346.108 101.014 346.141V346.141Z" fill="url(#paint43_linear_9070_10673)"/>
<path d="M113.962 362.418V401.86L102.692 408.334V368.892L92.4722 363.303L89.8745 361.877C90.137 358.321 91.3239 354.25 93.3251 351.137L103.807 356.861L113.962 362.418Z" fill="white"/>
<path d="M54.9223 347.008C54.3319 346.552 53.6007 346.225 52.6713 346.157C46.7862 345.728 44.7484 354.014 45.1552 358.728L73.0337 374.316L82.3113 362.322L54.9223 347.008Z" fill="url(#paint44_linear_9070_10673)"/>
<path d="M85.1509 367.462C85.1509 367.462 84.7906 362.05 80.6008 361.743C74.7153 361.315 72.6779 369.6 73.0854 374.314L85.1509 367.462Z" fill="url(#paint45_linear_9070_10673)"/>
<ellipse cx="247.9" cy="12.3193" rx="12.4078" ry="12.3193" fill="url(#paint46_linear_9070_10673)"/>
<ellipse cx="247.899" cy="18.158" rx="4.57986" ry="4.54717" stroke="white" stroke-linecap="round" stroke-linejoin="round"/>
<ellipse cx="247.901" cy="19.7836" rx="2.68135" ry="2.66221" fill="#1D1E29"/>
<path d="M122.87 411.232L248.222 19.7837L216.678 413.192" stroke="#E9024D" stroke-linecap="round" stroke-linejoin="round"/>
<path d="M158.406 344.487L247.901 19.7837" stroke="#E9024D"/>
<path d="M248.223 19.7837L198.093 360.981" stroke="#E9024D" stroke-linecap="round" stroke-linejoin="round"/>
<path d="M418.527 108.826L364.566 139.481V114.464L418.527 83.8088V108.826Z" stroke="white" stroke-linecap="round" stroke-linejoin="round"/>
<path d="M470.786 160.574L446.3 174.55V149.533L470.786 135.557V160.574Z" stroke="white" stroke-linecap="round" stroke-linejoin="round"/>
<path d="M470.786 169.5L446.3 183.476" stroke="#E9024D"/>
<path d="M470.786 175.679L446.3 189.655" stroke="#E9024D"/>
<ellipse rx="36.2636" ry="22.683" transform="matrix(0.434757 -0.900548 0.902961 0.429723 412.073 174.945)" stroke="#E9024D"/>
<ellipse rx="17.2378" ry="9.63729" transform="matrix(0.434757 -0.900548 0.902961 0.429723 413.209 175.213)" stroke="#E9024D"/>
<g style="mix-blend-mode:screen" opacity="0.35">
<path fill-rule="evenodd" clip-rule="evenodd" d="M427.837 142.289C416.525 136.905 400.295 147.162 391.589 165.198C382.882 183.234 384.993 202.219 396.304 207.602C407.617 212.985 423.845 202.729 432.552 184.692C441.26 166.657 439.149 147.672 427.837 142.289ZM421.91 179.354C417.772 187.928 410.52 193.023 405.714 190.736C400.908 188.45 400.367 179.645 404.507 171.071C408.645 162.498 415.897 157.402 420.703 159.689C425.508 161.977 426.05 170.781 421.91 179.354Z" fill="url(#paint47_linear_9070_10673)"/>
</g>
<path d="M423.128 140.958L418.527 159.152" stroke="#E9024D"/>
<path d="M424.451 165.418L437.064 155.053" stroke="#E9024D"/>
<path d="M387.932 174.945L402.505 176.487" stroke="#E9024D"/>
<path d="M390.149 202.158L403.308 188.569" stroke="#E9024D"/>
<path d="M398.743 120.065V140.958L412.073 132.73V148.773" stroke="white"/>
<path d="M369.766 116.232V129.258L413.21 104.023" stroke="white" stroke-linecap="round" stroke-linejoin="round"/>
<path d="M370.217 120.378C370.923 119.768 372.193 120.029 372.596 120.869C373.002 121.714 372.643 122.928 373.394 123.493C373.845 123.832 374.503 123.735 374.994 123.458C376.655 122.522 376.8 120.06 377.372 118.448C378.358 115.667 379.801 112.037 382.242 110.195C382.492 110.006 382.765 109.83 383.073 109.776C383.639 109.675 384.215 110.017 384.53 110.493C384.846 110.97 384.944 111.555 384.976 112.125C385.007 112.694 384.979 113.268 385.074 113.831C385.332 115.365 387.003 114.897 387.782 114.025C388.354 113.385 388.68 112.568 389.185 111.875C389.699 111.17 390.441 110.581 391.308 110.458C391.824 110.386 392.382 110.51 392.808 110.81C393.301 111.156 393.451 111.781 393.986 112.083C394.674 112.473 395.544 112.004 396.079 111.424C396.701 110.751 397.133 109.978 398.082 109.721C398.622 109.574 399.197 109.609 399.744 109.494C400.712 109.29 401.51 108.642 402.322 108.081C403.254 107.436 404.095 107.187 405.205 107.085C406.3 106.985 407.483 106.868 408.437 106.278" stroke="white" stroke-linecap="round" stroke-linejoin="round"/>
<ellipse rx="2.50999" ry="1.87572" transform="matrix(0.771141 -0.636664 0.642078 0.766639 412.568 150.404)" stroke="white"/>
<ellipse cx="445.491" cy="183.369" rx="1.18897" ry="2.5238" stroke="#E9024D"/>
<ellipse cx="445.491" cy="189.924" rx="1.18897" ry="2.5238" stroke="#E9024D"/>
<ellipse cx="471.772" cy="169.448" rx="1.18897" ry="2.5238" stroke="#E9024D"/>
<ellipse cx="471.772" cy="176.001" rx="1.18897" ry="2.5238" stroke="#E9024D"/>
<path d="M450.672 167.467L454.389 151.945L458.545 160.629L463.354 144.563L464.775 151.185L467.399 140.958" stroke="white" stroke-linecap="round" stroke-linejoin="round"/>
<path d="M285.906 303.685V292.217L277.317 297.089V299.016L285.906 303.685Z" fill="url(#paint48_linear_9070_10673)"/>
<path d="M427.584 296.828C427.522 296.783 427.459 296.74 427.395 296.7L427.363 296.679V296.682C426.525 296.192 425.551 296.29 424.486 297.24C421.288 300.09 422.108 307.416 420.387 318.325C419.186 325.929 418.742 330.327 417.555 332.599L415.388 327.409L410.843 323.942C410.709 323.816 410.57 323.705 410.419 323.619L410.411 323.615V323.616C410.113 323.447 409.779 323.358 409.399 323.373C405.217 323.536 404.233 336.073 404.479 347.308C404.725 358.543 401.855 359.439 397.477 365.057C393.099 370.674 395.611 371.359 395.611 371.359L401.601 375.395L430.586 352.03L433.579 300.868L427.584 296.828Z" fill="url(#paint49_linear_9070_10673)"/>
<path d="M401.6 375.395C401.6 375.395 399.088 374.71 403.465 369.093C407.843 363.475 410.713 362.58 410.467 351.345C410.221 340.11 411.205 327.573 415.387 327.409C419.569 327.247 418.421 339.378 421.455 338.482C424.489 337.586 424.653 333.271 426.375 322.362C428.096 311.452 427.277 304.126 430.474 301.277C433.673 298.427 436.051 303.217 436.378 308.719C436.706 314.221 436.575 356.067 436.575 356.067L401.6 375.395Z" fill="white"/>
<path d="M292.666 220.935L296.055 218.906C296.469 218.658 296.862 218.619 297.233 218.789C297.606 218.957 297.794 219.32 297.798 219.875C297.798 220.083 297.734 220.299 297.603 220.522C297.472 220.746 297.327 220.906 297.166 221.001C296.945 221.134 296.792 221.169 296.708 221.106C296.625 221.043 296.545 220.88 296.469 220.618C296.392 220.356 296.223 220.303 295.965 220.458L292.743 222.385C292.589 222.479 292.511 222.581 292.512 222.693C292.508 222.767 292.54 222.828 292.608 222.881L297.489 226.896C297.724 227.091 297.843 227.38 297.845 227.762C297.848 228.196 297.709 228.662 297.43 229.16C297.151 229.658 296.838 230.011 296.492 230.217L292.983 232.318C292.518 232.595 292.113 232.639 291.767 232.448C291.421 232.258 291.246 231.926 291.243 231.451C291.24 230.907 291.466 230.5 291.92 230.227C292.095 230.123 292.246 230.104 292.37 230.171C292.496 230.238 292.559 230.368 292.559 230.558C292.56 230.715 292.609 230.817 292.705 230.864C292.801 230.911 292.922 230.89 293.066 230.804L296.305 228.867C296.444 228.783 296.514 228.679 296.513 228.555C296.516 228.495 296.484 228.438 296.416 228.385L291.543 224.366C291.313 224.173 291.197 223.882 291.195 223.495C291.192 223.044 291.335 222.565 291.622 222.06C291.91 221.554 292.258 221.179 292.666 220.935L292.666 220.935Z" fill="white"/>
<path d="M304.413 224.015L306.763 222.609C306.944 222.501 307.101 222.478 307.233 222.541C307.366 222.604 307.433 222.736 307.434 222.939C307.435 223.142 307.37 223.353 307.239 223.574C307.109 223.794 306.953 223.958 306.772 224.067L304.34 225.522C304.03 225.708 303.709 225.789 303.377 225.767C303.045 225.745 302.814 225.637 302.683 225.442L301.16 223.088C300.956 222.74 300.853 222.32 300.85 221.829C300.847 221.285 300.939 220.757 301.128 220.242L302.626 216.115C302.769 215.728 302.992 215.329 303.296 214.918C303.599 214.507 303.893 214.217 304.177 214.047L306.748 212.508C306.93 212.4 307.084 212.38 307.211 212.449C307.338 212.518 307.403 212.651 307.404 212.847C307.405 213.05 307.343 213.263 307.218 213.486C307.091 213.709 306.939 213.875 306.758 213.983L304.28 215.466C304.073 215.59 303.906 215.827 303.779 216.175L302.354 220.057C302.242 220.362 302.186 220.677 302.19 221.001C302.191 221.343 302.255 221.607 302.38 221.793L303.775 223.937C303.906 224.166 304.119 224.192 304.413 224.015L304.413 224.015Z" fill="white"/>
<path fill-rule="evenodd" clip-rule="evenodd" d="M310.47 220.835L313.029 209.294C313.131 208.87 313.349 208.557 313.684 208.358C314.008 208.164 314.213 208.195 314.297 208.452L316.954 217.025C316.975 217.087 316.985 217.153 316.986 217.223C316.987 217.425 316.926 217.634 316.803 217.85C316.68 218.066 316.539 218.222 316.379 218.317C316.038 218.522 315.82 218.475 315.724 218.178L315.199 216.507L312.218 218.29L311.665 220.749C311.65 220.85 311.586 220.977 311.471 221.128C311.359 221.279 311.233 221.397 311.099 221.477C310.907 221.592 310.747 221.614 310.622 221.544C310.497 221.474 310.433 221.335 310.432 221.127C310.432 221.04 310.443 220.943 310.47 220.835L310.47 220.835ZM313.694 211.738L312.604 216.579L314.806 215.261L313.694 211.738Z" fill="white"/>
<path d="M326.508 201.433L326.573 212.217L324.827 213.262L321.266 206.406L321.316 214.632C321.318 214.834 321.256 215.044 321.129 215.262C321.004 215.478 320.851 215.641 320.67 215.75C320.489 215.858 320.335 215.879 320.208 215.812C320.08 215.747 320.016 215.613 320.015 215.41L319.949 204.609L321.669 203.58L325.24 210.411L325.191 202.221C325.189 202.019 325.255 201.804 325.385 201.578C325.516 201.352 325.672 201.184 325.853 201.076C326.034 200.968 326.187 200.948 326.315 201.017C326.443 201.087 326.507 201.225 326.508 201.433Z" fill="white"/>
<path d="M185.284 313.517V310.15V313.517Z" fill="white"/>
<path d="M185.284 313.517V310.15" stroke="black" stroke-linecap="round" stroke-linejoin="round"/>
<path d="M185.284 331.109L182.271 329.472" stroke="#E9024D" stroke-linecap="round" stroke-linejoin="round"/>
<path d="M230.377 370.667V367.642" stroke="black" stroke-linecap="round" stroke-linejoin="round"/>
<path d="M230.377 416.057V421.306" stroke="black" stroke-linecap="round" stroke-linejoin="round"/>
<path d="M98.7986 360.227L108.591 365.225V378.102" stroke="#282526"/>
<path d="M105.281 370.721V398.538" stroke="#282526"/>
<path d="M111.502 388.121V403.273" stroke="#282526"/>
<path d="M92.6948 209.555V223.477L73.2822 211.128L50.4649 222.937C47.5801 224.432 44.0094 223.321 42.5043 220.449C40.9987 217.577 42.1179 214.039 45.0104 212.545L70.8546 199.163C72.7307 198.193 74.9848 198.295 76.7659 199.429L92.6948 209.555Z" fill="url(#paint50_linear_9070_10673)"/>
<path d="M73.2809 211.129V202.896" stroke="#E9024D"/>
<ellipse cx="47.4911" cy="217.754" rx="5.65786" ry="5.61749" fill="url(#paint51_linear_9070_10673)" stroke="#E9024D"/>
<ellipse cx="47.491" cy="217.754" rx="4.19252" ry="4.16261" fill="url(#paint52_linear_9070_10673)"/>
<path d="M11.9954 243.747L11.9666 238.727" stroke="#E9024D"/>
<path d="M50.0183 330.126C48.9992 330.126 47.9667 329.864 47.0257 329.313L3.07482 303.586C1.27411 302.533 0.168823 300.613 0.168823 298.537V289.636C0.168823 286.399 2.81235 283.775 6.07318 283.775C9.33401 283.775 11.9768 286.399 11.9768 289.636V295.189L53.0221 319.214C55.8311 320.859 56.7659 324.452 55.1099 327.24C54.0081 329.095 52.0399 330.126 50.0183 330.126L50.0183 330.126Z" fill="url(#paint53_linear_9070_10673)"/>
<path d="M11.976 295.188L6.07214 298.7" stroke="#E9024D"/>
<ellipse cx="6.07237" cy="287.085" rx="5.31761" ry="3.50065" fill="url(#paint54_linear_9070_10673)"/>
<ellipse cx="6.07341" cy="286.963" rx="3.68962" ry="2.42892" fill="url(#paint55_linear_9070_10673)"/>
<ellipse cx="332.037" cy="338.725" rx="4.77327" ry="4.73921" fill="url(#paint56_linear_9070_10673)"/>
<path d="M478.756 295.496L483.119 297.613L478.756 295.496Z" fill="white"/>
<path d="M478.756 295.496L483.119 297.613" stroke="black" stroke-linecap="round" stroke-linejoin="round"/>
<path d="M478.756 281.811V277.747V281.811Z" fill="white"/>
<path d="M478.756 281.811V277.747" stroke="black" stroke-linecap="round" stroke-linejoin="round"/>
<path d="M378.977 304.86L382.451 302.768L378.977 304.86Z" fill="white"/>
<path d="M378.977 304.86L382.451 302.768" stroke="black" stroke-linecap="round" stroke-linejoin="round"/>
<path d="M284.683 372.687L280.747 369.961L284.683 372.687Z" fill="white"/>
<path d="M284.683 372.687L280.747 369.961" stroke="black" stroke-linecap="round" stroke-linejoin="round"/>
<defs>
<linearGradient id="paint0_linear_9070_10673" x1="545.453" y1="271.268" x2="440.23" y2="156.49" gradientUnits="userSpaceOnUse">
<stop stop-color="#E9024D"/>
<stop offset="1" stop-color="#101010"/>
</linearGradient>
<linearGradient id="paint1_linear_9070_10673" x1="353.881" y1="388.047" x2="453.051" y2="388.047" gradientUnits="userSpaceOnUse">
<stop stop-color="#E9024D"/>
<stop offset="0.0455207" stop-color="#EA044E"/>
<stop offset="1" stop-color="#FA246B"/>
</linearGradient>
<linearGradient id="paint2_linear_9070_10673" x1="438.875" y1="316.581" x2="350.623" y2="350.364" gradientUnits="userSpaceOnUse">
<stop stop-color="#E9024D"/>
<stop offset="1" stop-color="#101010"/>
</linearGradient>
<linearGradient id="paint3_linear_9070_10673" x1="348.727" y1="355.954" x2="359.284" y2="428.333" gradientUnits="userSpaceOnUse">
<stop stop-color="#E9024D"/>
<stop offset="1" stop-color="#101010"/>
</linearGradient>
<linearGradient id="paint4_linear_9070_10673" x1="362.455" y1="483.333" x2="547.346" y2="184.921" gradientUnits="userSpaceOnUse">
<stop stop-color="#E9024D"/>
<stop offset="1" stop-color="#101010"/>
</linearGradient>
<linearGradient id="paint5_linear_9070_10673" x1="27.0512" y1="282.371" x2="182.955" y2="415.681" gradientUnits="userSpaceOnUse">
<stop stop-color="#E9024D"/>
<stop offset="1" stop-color="#101010"/>
</linearGradient>
<linearGradient id="paint6_linear_9070_10673" x1="424.058" y1="315.338" x2="424.984" y2="27.8025" gradientUnits="userSpaceOnUse">
<stop stop-color="#E9024D"/>
<stop offset="1" stop-color="#101010"/>
</linearGradient>
<linearGradient id="paint7_linear_9070_10673" x1="291.24" y1="84.4153" x2="289.074" y2="12.9367" gradientUnits="userSpaceOnUse">
<stop stop-color="white"/>
<stop offset="0.165992" stop-color="#FEF8FB"/>
<stop offset="0.395308" stop-color="#FEE6F0"/>
<stop offset="0.661447" stop-color="#FDC9DE"/>
<stop offset="0.953336" stop-color="#FCA1C6"/>
<stop offset="1" stop-color="#FC9AC2"/>
</linearGradient>
<linearGradient id="paint8_linear_9070_10673" x1="97.0149" y1="-26.6055" x2="115.403" y2="120.893" gradientUnits="userSpaceOnUse">
<stop stop-color="white"/>
<stop offset="1" stop-color="#FC9AC2"/>
</linearGradient>
<linearGradient id="paint9_linear_9070_10673" x1="238.166" y1="44.3883" x2="246.73" y2="27.4266" gradientUnits="userSpaceOnUse">
<stop stop-color="#E9024D"/>
<stop offset="0.227603" stop-color="#B8053F"/>
<stop offset="1" stop-color="#101010"/>
</linearGradient>
<linearGradient id="paint10_linear_9070_10673" x1="299.886" y1="59.9598" x2="297.813" y2="6.68289" gradientUnits="userSpaceOnUse">
<stop stop-color="#E9024D"/>
<stop offset="0.136603" stop-color="#D10346"/>
<stop offset="0.42373" stop-color="#960735"/>
<stop offset="0.834249" stop-color="#380D1B"/>
<stop offset="1" stop-color="#101010"/>
</linearGradient>
<linearGradient id="paint11_linear_9070_10673" x1="281.321" y1="19.7031" x2="271.752" y2="2.81606" gradientUnits="userSpaceOnUse">
<stop stop-color="#E9024D"/>
<stop offset="1" stop-color="#101010"/>
</linearGradient>
<linearGradient id="paint12_linear_9070_10673" x1="165.601" y1="93.7696" x2="162.061" y2="84.3976" gradientUnits="userSpaceOnUse">
<stop stop-color="#E9024D"/>
<stop offset="1" stop-color="#101010"/>
</linearGradient>
<linearGradient id="paint13_linear_9070_10673" x1="167.992" y1="114.916" x2="166.421" y2="88.7479" gradientUnits="userSpaceOnUse">
<stop stop-color="#E9024D"/>
<stop offset="1" stop-color="#101010"/>
</linearGradient>
<linearGradient id="paint14_linear_9070_10673" x1="158.452" y1="107.108" x2="153.987" y2="92.4461" gradientUnits="userSpaceOnUse">
<stop stop-color="#E9024D"/>
<stop offset="1" stop-color="#101010"/>
</linearGradient>
<linearGradient id="paint15_linear_9070_10673" x1="165.731" y1="336.471" x2="197.543" y2="508.762" gradientUnits="userSpaceOnUse">
<stop stop-color="#E9024D"/>
<stop offset="1" stop-color="#101010"/>
</linearGradient>
<linearGradient id="paint16_linear_9070_10673" x1="122.87" y1="438.796" x2="247.899" y2="438.796" gradientUnits="userSpaceOnUse">
<stop stop-color="#E9024D"/>
<stop offset="1" stop-color="#FC9AC2"/>
</linearGradient>
<linearGradient id="paint17_linear_9070_10673" x1="410.453" y1="306.989" x2="344.503" y2="239.375" gradientUnits="userSpaceOnUse">
<stop stop-color="#E9024D"/>
<stop offset="1" stop-color="#101010"/>
</linearGradient>
<linearGradient id="paint18_linear_9070_10673" x1="32.9759" y1="313.862" x2="110.098" y2="237.052" gradientUnits="userSpaceOnUse">
<stop stop-color="#E9024D"/>
<stop offset="1" stop-color="#101010"/>
</linearGradient>
<linearGradient id="paint19_linear_9070_10673" x1="178.253" y1="502.075" x2="194.997" y2="402.879" gradientUnits="userSpaceOnUse">
<stop stop-color="#E9024D"/>
<stop offset="1" stop-color="#101010"/>
</linearGradient>
<linearGradient id="paint20_linear_9070_10673" x1="225.889" y1="478.793" x2="200.762" y2="406.744" gradientUnits="userSpaceOnUse">
<stop stop-color="#E9024D"/>
<stop offset="1" stop-color="#101010"/>
</linearGradient>
<linearGradient id="paint21_linear_9070_10673" x1="213.839" y1="452.131" x2="195.717" y2="434.19" gradientUnits="userSpaceOnUse">
<stop stop-color="#E9024D"/>
<stop offset="1" stop-color="#101010"/>
</linearGradient>
<linearGradient id="paint22_linear_9070_10673" x1="204.606" y1="457.887" x2="200.886" y2="431.141" gradientUnits="userSpaceOnUse">
<stop stop-color="#E9024D"/>
<stop offset="1" stop-color="#101010"/>
</linearGradient>
<linearGradient id="paint23_linear_9070_10673" x1="29.9413" y1="420.264" x2="81.4529" y2="420.264" gradientUnits="userSpaceOnUse">
<stop stop-color="#E9024D"/>
<stop offset="1" stop-color="#101010"/>
</linearGradient>
<linearGradient id="paint24_linear_9070_10673" x1="66.6067" y1="282.191" x2="16.2298" y2="389.943" gradientUnits="userSpaceOnUse">
<stop stop-color="#E9024D"/>
<stop offset="1" stop-color="#101010"/>
</linearGradient>
<linearGradient id="paint25_linear_9070_10673" x1="66.155" y1="317.548" x2="50.0958" y2="360.154" gradientUnits="userSpaceOnUse">
<stop stop-color="#E9024D"/>
<stop offset="1" stop-color="#101010"/>
</linearGradient>
<linearGradient id="paint26_linear_9070_10673" x1="104.221" y1="484.524" x2="174.388" y2="481.018" gradientUnits="userSpaceOnUse">
<stop stop-color="#E9024D"/>
<stop offset="0.0117183" stop-color="#E5024B"/>
<stop offset="0.217405" stop-color="#A50639"/>
<stop offset="0.413666" stop-color="#6F092A"/>
<stop offset="0.595298" stop-color="#460C1F"/>
<stop offset="0.759135" stop-color="#280E16"/>
<stop offset="0.899486" stop-color="#160F11"/>
<stop offset="1" stop-color="#101010"/>
</linearGradient>
<linearGradient id="paint27_linear_9070_10673" x1="98.3004" y1="398.826" x2="105.167" y2="474.966" gradientUnits="userSpaceOnUse">
<stop stop-color="#E9024D"/>
<stop offset="1" stop-color="#101010"/>
</linearGradient>
<linearGradient id="paint28_linear_9070_10673" x1="154.488" y1="389.373" x2="168.057" y2="408.803" gradientUnits="userSpaceOnUse">
<stop stop-color="#E9024D"/>
<stop offset="1" stop-color="#101010"/>
</linearGradient>
<linearGradient id="paint29_linear_9070_10673" x1="57.8682" y1="39.3149" x2="54.6827" y2="-1.06044" gradientUnits="userSpaceOnUse">
<stop stop-color="#E9024D"/>
<stop offset="0.0455207" stop-color="#EA044E"/>
<stop offset="1" stop-color="#FA246B"/>
</linearGradient>
<linearGradient id="paint30_linear_9070_10673" x1="214.437" y1="438.589" x2="203.478" y2="433.862" gradientUnits="userSpaceOnUse">
<stop stop-color="#E9024D"/>
<stop offset="1" stop-color="#101010"/>
</linearGradient>
<linearGradient id="paint31_linear_9070_10673" x1="380.236" y1="409.927" x2="387.657" y2="397.873" gradientUnits="userSpaceOnUse">
<stop stop-color="#E9024D"/>
<stop offset="1" stop-color="#101010"/>
</linearGradient>
<linearGradient id="paint32_linear_9070_10673" x1="385.906" y1="368.703" x2="368.855" y2="386.36" gradientUnits="userSpaceOnUse">
<stop stop-color="#E9024D"/>
<stop offset="1" stop-color="#101010"/>
</linearGradient>
<linearGradient id="paint33_linear_9070_10673" x1="364.631" y1="382.077" x2="374.26" y2="392.247" gradientUnits="userSpaceOnUse">
<stop stop-color="#E9024D"/>
<stop offset="1" stop-color="#101010"/>
</linearGradient>
<linearGradient id="paint34_linear_9070_10673" x1="253.771" y1="441.535" x2="352.941" y2="441.535" gradientUnits="userSpaceOnUse">
<stop stop-color="#E9024D"/>
<stop offset="0.0455207" stop-color="#EA044E"/>
<stop offset="1" stop-color="#FA246B"/>
</linearGradient>
<linearGradient id="paint35_linear_9070_10673" x1="278.594" y1="318.476" x2="228.265" y2="376.999" gradientUnits="userSpaceOnUse">
<stop stop-color="#E9024D"/>
<stop offset="1" stop-color="#101010"/>
</linearGradient>
<linearGradient id="paint36_linear_9070_10673" x1="295.706" y1="424.779" x2="326.562" y2="424.779" gradientUnits="userSpaceOnUse">
<stop stop-color="#E9024D"/>
<stop offset="1" stop-color="#FC9AC2"/>
</linearGradient>
<linearGradient id="paint37_linear_9070_10673" x1="305.784" y1="430.595" x2="336.64" y2="430.595" gradientUnits="userSpaceOnUse">
<stop stop-color="#E9024D"/>
<stop offset="1" stop-color="#FC9AC2"/>
</linearGradient>
<linearGradient id="paint38_linear_9070_10673" x1="295.706" y1="399.362" x2="326.562" y2="399.362" gradientUnits="userSpaceOnUse">
<stop stop-color="#E9024D"/>
<stop offset="1" stop-color="#FC9AC2"/>
</linearGradient>
<linearGradient id="paint39_linear_9070_10673" x1="313.094" y1="459.019" x2="321.843" y2="463.621" gradientUnits="userSpaceOnUse">
<stop stop-color="#E9024D"/>
<stop offset="1" stop-color="#101010"/>
</linearGradient>
<linearGradient id="paint40_linear_9070_10673" x1="323.726" y1="449.789" x2="337.26" y2="455.934" gradientUnits="userSpaceOnUse">
<stop stop-color="#E9024D"/>
<stop offset="1" stop-color="#101010"/>
</linearGradient>
<linearGradient id="paint41_linear_9070_10673" x1="336.829" y1="442.223" x2="347.281" y2="446.327" gradientUnits="userSpaceOnUse">
<stop stop-color="#E9024D"/>
<stop offset="1" stop-color="#101010"/>
</linearGradient>
<linearGradient id="paint42_linear_9070_10673" x1="84.8437" y1="367.642" x2="112.713" y2="367.642" gradientUnits="userSpaceOnUse">
<stop stop-color="#E9024D"/>
<stop offset="1" stop-color="#101010"/>
</linearGradient>
<linearGradient id="paint43_linear_9070_10673" x1="109.783" y1="357.666" x2="109.886" y2="346.123" gradientUnits="userSpaceOnUse">
<stop stop-color="#E9024D"/>
<stop offset="1" stop-color="#101010"/>
</linearGradient>
<linearGradient id="paint44_linear_9070_10673" x1="55.7894" y1="350.641" x2="50.9546" y2="366.83" gradientUnits="userSpaceOnUse">
<stop stop-color="#E9024D"/>
<stop offset="1" stop-color="#101010"/>
</linearGradient>
<linearGradient id="paint45_linear_9070_10673" x1="82.686" y1="396.704" x2="116.713" y2="364.744" gradientUnits="userSpaceOnUse">
<stop stop-color="#E9024D"/>
<stop offset="1" stop-color="#101010"/>
</linearGradient>
<linearGradient id="paint46_linear_9070_10673" x1="235.493" y1="24.6386" x2="260.309" y2="24.6386" gradientUnits="userSpaceOnUse">
<stop stop-color="#E9024D"/>
<stop offset="0.0455207" stop-color="#EA044E"/>
<stop offset="1" stop-color="#FA246B"/>
</linearGradient>
<linearGradient id="paint47_linear_9070_10673" x1="386.222" y1="209.035" x2="437.919" y2="209.035" gradientUnits="userSpaceOnUse">
<stop stop-color="#E9024D"/>
<stop offset="1" stop-color="#FC9AC2"/>
</linearGradient>
<linearGradient id="paint48_linear_9070_10673" x1="288.297" y1="305.392" x2="284.384" y2="293.808" gradientUnits="userSpaceOnUse">
<stop stop-color="#E9024D"/>
<stop offset="1" stop-color="#101010"/>
</linearGradient>
<linearGradient id="paint49_linear_9070_10673" x1="424.934" y1="284.204" x2="394.544" y2="300.869" gradientUnits="userSpaceOnUse">
<stop stop-color="#E9024D"/>
<stop offset="1" stop-color="#101010"/>
</linearGradient>
<linearGradient id="paint50_linear_9070_10673" x1="41.8346" y1="223.602" x2="92.6946" y2="223.602" gradientUnits="userSpaceOnUse">
<stop stop-color="#E9024D"/>
<stop offset="1" stop-color="#101010"/>
</linearGradient>
<linearGradient id="paint51_linear_9070_10673" x1="33.7889" y1="212.047" x2="37.6102" y2="236.901" gradientUnits="userSpaceOnUse">
<stop stop-color="#E9024D"/>
<stop offset="1" stop-color="#101010"/>
</linearGradient>
<linearGradient id="paint52_linear_9070_10673" x1="38.203" y1="237.306" x2="56.0504" y2="224.862" gradientUnits="userSpaceOnUse">
<stop stop-color="#E9024D"/>
<stop offset="1" stop-color="#101010"/>
</linearGradient>
<linearGradient id="paint53_linear_9070_10673" x1="58.0032" y1="294.797" x2="16.2048" y2="260.149" gradientUnits="userSpaceOnUse">
<stop stop-color="#E9024D"/>
<stop offset="1" stop-color="#101010"/>
</linearGradient>
<linearGradient id="paint54_linear_9070_10673" x1="23.0055" y1="291.917" x2="18.7718" y2="274.123" gradientUnits="userSpaceOnUse">
<stop stop-color="#E9024D"/>
<stop offset="1" stop-color="#101010"/>
</linearGradient>
<linearGradient id="paint55_linear_9070_10673" x1="-5.9586" y1="277.037" x2="-4.8821" y2="290.355" gradientUnits="userSpaceOnUse">
<stop stop-color="#E9024D"/>
<stop offset="0.0743305" stop-color="#D90348"/>
<stop offset="1" stop-color="#101010"/>
</linearGradient>
<linearGradient id="paint56_linear_9070_10673" x1="329.737" y1="347.908" x2="338.619" y2="340.672" gradientUnits="userSpaceOnUse">
<stop stop-color="#E9024D"/>
<stop offset="1" stop-color="#101010"/>
</linearGradient>
</defs>
</svg>
