<svg width="512" height="699" viewBox="0 0 512 699" fill="none" xmlns="http://www.w3.org/2000/svg">
<path d="M512 292.794V314.313C512 316.519 510.815 318.559 508.897 319.662L455.564 350.16C454.599 350.715 453.544 350.976 452.51 350.976C450.374 350.976 448.292 349.866 447.154 347.873C445.463 344.921 446.491 341.154 449.442 339.463L499.672 310.731V296.342L399.342 238.827L356.702 262.832L356.312 248.895L396.364 226.356C398.268 225.28 400.596 225.294 402.487 226.397L508.931 287.466C510.828 288.569 512 290.596 512 292.794V292.794Z" fill="url(#paint0_linear)"/>
<path d="M369.296 377.414L423.077 408.055L472.836 379.593L419.186 348.95L369.296 377.414Z" fill="url(#paint1_linear)"/>
<path d="M405.742 380.611C405.577 380.718 405.412 380.825 405.239 380.924C402.376 382.578 398.698 382.092 395.332 379.994L400.162 376.743C400.886 376.324 401.413 375.665 401.734 374.851C402.409 373.115 402.145 370.679 400.853 368.457C399.578 366.235 397.603 364.787 395.76 364.507C394.896 364.375 394.056 364.499 393.332 364.918L387.992 368.506C387.695 368.679 387.432 368.893 387.21 369.14C385.391 363.363 386.593 357.734 390.535 355.463C395.422 352.641 402.672 356.048 406.737 363.083C410.654 369.872 410.169 377.542 405.742 380.611H405.742Z" fill="#282526" stroke="#E9024D"/>
<path d="M422.257 370.292L422.273 370.308L422.191 370.358C421.82 370.695 421.425 370.999 420.981 371.255C420.668 371.436 420.339 371.592 420.002 371.724L405.741 380.611C410.168 377.541 410.654 369.872 406.737 363.083C402.672 356.048 395.422 352.641 390.534 355.463L406.284 345.786C411.172 342.963 418.422 346.378 422.487 353.406C426.157 359.767 425.943 366.893 422.257 370.292H422.257Z" fill="#282526" stroke="#E9024D"/>
<path d="M401.734 374.85C401.413 375.665 400.886 376.323 400.162 376.743L395.331 379.993C395.323 379.993 395.315 379.977 395.315 379.977C397.117 378.438 397.249 375.056 395.513 372.053C393.628 368.786 390.254 367.197 387.991 368.506L393.332 364.918C394.056 364.498 394.895 364.375 395.759 364.506C397.603 364.786 399.578 366.235 400.853 368.456C402.145 370.678 402.408 373.114 401.734 374.85H401.734Z" stroke="#E9024D"/>
<path d="M395.331 379.993L395.142 380.117C395.199 380.076 395.257 380.034 395.314 379.977C395.314 379.977 395.323 379.993 395.331 379.993Z" stroke="#00C8FF"/>
<path d="M395.315 379.977C395.257 380.035 395.2 380.076 395.142 380.117C395.035 380.199 394.928 380.273 394.813 380.339C392.55 381.647 389.176 380.059 387.292 376.792C385.654 373.953 385.679 370.785 387.21 369.139C387.432 368.893 387.695 368.679 387.991 368.506C390.254 367.197 393.628 368.786 395.513 372.053C397.249 375.056 397.117 378.438 395.315 379.977L395.315 379.977Z" fill="#282526" stroke="#E9024D"/>
<path d="M472.836 420.875V379.594L423.077 408.055V449.337L472.836 420.875Z" fill="url(#paint2_linear)"/>
<path d="M369.296 377.415V418.696L423.077 449.337V408.056L369.296 377.415Z" fill="url(#paint3_linear)"/>
<path d="M308.399 301.233L308.487 312.721L298.326 319.343L289.358 314.433V312.404L285.801 314.539L247.553 337.207V286.039L416.321 189.5L416.374 189.473L416.734 202.463L417.234 220.336L417.682 236.461L308.399 301.233Z" fill="url(#paint4_linear)"/>
<path d="M247.555 286.068V336.323L96.6035 250.717V201.961L247.531 286.044L247.555 286.068Z" fill="url(#paint5_linear)"/>
<path d="M416.321 189.5L247.552 286.039L247.527 286.048L96.6045 201.96V201.776C165.622 163.445 199.828 103.043 210.578 63.3977C216.198 42.6624 216.383 28.2848 216.383 28.2848L258.61 52.2179L302.743 27.257L302.858 27.3187C303.279 41.0109 309.374 60.5086 318.06 80.2696C322.574 90.5715 327.8 100.935 333.281 110.596C385.748 198.967 414.898 190 416.321 189.5V189.5Z" fill="url(#paint6_linear)"/>
<path d="M416.321 189.5L247.553 286.039L247.527 286.048" stroke="#E9024D"/>
<path d="M249.191 327.723V327.745L249.169 327.73L249.191 327.723Z" fill="white" stroke="black" stroke-linecap="round" stroke-linejoin="round"/>
<path d="M318.055 80.2697C312.259 81.3971 309.273 69.5473 307.182 64.7401C306.967 68.1024 304.835 71.254 304.835 71.254C300.723 69.2782 299.71 59.2151 299.71 59.2151C299.71 59.2151 297.039 91.271 293.945 99.3288C288.606 98.6376 281.881 88.8689 278.783 68.7977C279.479 85.2919 271.257 100.078 271.257 100.078C254.923 93.5644 255.833 66.9051 255.833 66.9051C255.833 66.9051 248.306 99.063 237.149 106.269C231.012 89.9898 232.613 73.8676 233.84 58.6292C229.997 73.1245 220.924 79.046 220.924 79.046C219.428 75.2574 219.428 70.5587 219.697 52.2139C216.455 58.9748 213.179 62.0524 210.576 63.3978C216.196 42.6601 216.385 28.2832 216.385 28.2832L260.582 2.66156L302.746 27.2587L302.859 27.3221C303.278 41.0077 309.376 60.5087 318.055 80.2697Z" fill="url(#paint7_linear)"/>
<path d="M302.747 27.0789L258.607 52.0344L216.386 28.1038L260.583 2.48218L302.747 27.0789Z" fill="url(#paint8_linear)"/>
<path d="M290.56 26.4861L286.016 29.1315L280.321 32.4431L260.234 44.1362L239.855 32.5104L234.093 29.2244L229.494 26.6013L260.192 9.05695L290.56 26.4861Z" fill="url(#paint9_linear)"/>
<path d="M286.015 29.1319L280.321 32.4435L260.233 44.1366L239.855 32.5108L234.093 29.2248L260.192 14.3129L286.015 29.1319Z" fill="url(#paint10_linear)"/>
<path d="M260.193 9.05695V14.3126L286.017 29.1315L290.561 26.4861L260.193 9.05695Z" fill="url(#paint11_linear)"/>
<path d="M147.311 96.9438L157.882 102.961L172.113 94.7605L161.542 88.7429L147.311 96.9438Z" fill="url(#paint12_linear)"/>
<path d="M172.114 94.7604V102.073L161.199 115.165L157.778 108.652V102.961L172.114 94.7604Z" fill="url(#paint13_linear)"/>
<path d="M147.311 96.9433L157.778 102.961V108.652L147.311 102.961V96.9433Z" fill="#E9024D"/>
<path d="M147.311 102.962L152.544 109.787L161.199 115.166L157.778 108.653L147.311 102.962Z" fill="url(#paint14_linear)"/>
<path d="M127.994 104.726L136.442 109.404C138.449 110.515 140.894 110.487 142.875 109.331L154.16 102.747C155.342 102.058 156.068 100.793 156.068 99.425C156.068 98.1586 156.691 96.9736 157.734 96.2561L172.865 85.8431C173.525 85.3889 174.424 85.8613 174.424 86.6628C174.424 87.4569 175.309 87.9308 175.97 87.4898L180.41 84.5298C182.959 82.8305 184.489 79.9709 184.489 76.9082V67.8086C184.489 64.7713 182.793 61.9891 180.092 60.5983L174.919 57.933C172.734 56.8073 170.156 56.7332 167.91 57.7314L163.346 55.5483C160.521 54.1971 157.212 54.3304 154.505 55.903L144.931 61.4648C140.707 63.9188 138.107 68.4348 138.107 73.3195V75.8894L133.741 78.7802C130.455 80.956 128.565 84.7092 128.775 88.6459L128.831 89.705L127.494 91.0578C125.506 93.069 124.391 95.7838 124.391 98.6121C124.391 101.154 125.771 103.495 127.994 104.726H127.994Z" fill="white"/>
<path d="M139.233 75.5964L148.292 80.6695L139.233 75.5964Z" fill="white"/>
<path d="M139.233 75.5964L148.292 80.6695" stroke="black" stroke-linecap="round" stroke-linejoin="round"/>
<path d="M171.759 70.8761V64.7694C171.759 61.9214 170.308 59.2683 167.91 57.7311" fill="white"/>
<path d="M171.759 70.8761V64.7694C171.759 61.9214 170.308 59.2683 167.91 57.7311V57.7311" stroke="black" stroke-linecap="round" stroke-linejoin="round"/>
<path d="M137.669 102.538L141.8 100.195C142.73 99.6676 143.303 98.6818 143.303 97.6137V89.1782" fill="white"/>
<path d="M137.669 102.538L141.8 100.195C142.73 99.6676 143.303 98.6818 143.303 97.6137V89.1782" stroke="black" stroke-linecap="round" stroke-linejoin="round"/>
<path d="M133.054 81.3211L140.919 85.7261C141.661 86.1417 142.564 86.1433 143.308 85.731L151.1 81.41" fill="white"/>
<path d="M133.054 81.3211L140.919 85.7261C141.661 86.1417 142.564 86.1433 143.308 85.731L151.1 81.41" stroke="black" stroke-linecap="round" stroke-linejoin="round"/>
<path d="M171.758 70.4891L180.574 65.4891L171.758 70.4891Z" fill="white"/>
<path d="M171.758 70.4891L180.574 65.4891" stroke="black" stroke-linecap="round" stroke-linejoin="round"/>
<path d="M365.28 114.954L267.196 171.055C274.845 151.695 280.114 146.585 283.808 147.007C286.863 147.356 288.42 151.444 292.027 151.231C295.091 151.05 297.34 147.899 300.411 142.343C308.661 127.419 309.373 122.66 314.808 114.954C319.945 107.672 324.625 106.645 325.995 109.157C327.365 111.667 325.88 121.656 327.25 124.794C328.621 127.933 331.074 130.483 334.1 125.67C337.124 120.857 340.72 118.557 341.576 122.019C342.432 125.48 344.429 124.664 347.341 121.276C350.251 117.888 351.026 111.267 355.901 114.407C359.496 116.722 359.82 116.472 365.28 114.954H365.28Z" fill="white"/>
<path d="M221.943 465.857C220.11 465.857 218.296 465.044 217.081 463.486C214.986 460.801 215.463 456.929 218.147 454.835L240.348 437.509V389.779L184.011 357.059C182.113 355.956 180.943 353.925 180.943 351.728V326.141C180.943 323.949 182.108 321.921 184.001 320.817L199.657 311.685C202.6 309.969 206.372 310.964 208.087 313.903C209.802 316.844 208.809 320.618 205.869 322.334L193.271 329.681V348.181L249.608 380.901C251.507 382.004 252.677 384.035 252.677 386.231V440.517C252.677 442.415 251.801 444.208 250.304 445.376L225.732 464.553C224.605 465.432 223.27 465.857 221.943 465.857V465.857Z" fill="url(#paint15_linear)"/>
<g style="mix-blend-mode:screen" opacity="0.35">
<path d="M128.107 432.436L258.645 19.0947L226.049 434.497L178.98 461.42L128.107 432.436Z" fill="url(#paint16_linear)"/>
</g>
<path d="M346.55 362.25C344.423 362.25 342.354 361.149 341.212 359.176C339.504 356.232 340.507 352.46 343.452 350.752L395.499 320.58L361.726 296.457C358.956 294.478 358.314 290.628 360.294 287.858C362.272 285.087 366.122 284.447 368.892 286.425L410.442 316.103C412.146 317.32 413.115 319.319 413.016 321.411C412.916 323.503 411.762 325.401 409.949 326.452L349.635 361.418C348.662 361.981 347.599 362.25 346.55 362.25L346.55 362.25Z" fill="url(#paint17_linear)"/>
<path d="M6.36869 288.302C2.9642 288.322 0.18854 285.578 0.169655 282.174L9.69825e-05 252.61C-0.0127566 250.313 1.25292 248.199 3.28364 247.125L32.9376 231.451C35.9467 229.859 39.6771 231.01 41.267 234.019C42.8582 237.029 41.7078 240.759 38.6979 242.349L12.3496 256.278L12.4966 282.103C12.5167 285.508 9.77318 288.283 6.36869 288.302V288.302Z" fill="url(#paint18_linear)"/>
<ellipse cx="36.1326" cy="259.684" rx="1.96272" ry="3.1225" stroke="white" stroke-linecap="round"/>
<ellipse cx="77.4392" cy="235.773" rx="1.69507" ry="3.47936" stroke="white" stroke-linecap="round"/>
<path d="M38.0957 259.059L75.7442 236.755" stroke="white" stroke-linecap="round"/>
<ellipse cx="25.908" cy="278.466" rx="1.96272" ry="3.1225" stroke="white" stroke-linecap="round"/>
<ellipse cx="67.2136" cy="254.556" rx="1.69507" ry="3.47936" stroke="white" stroke-linecap="round"/>
<path d="M27.8711 277.842L65.5196 255.539" stroke="white" stroke-linecap="round"/>
<path d="M54.7148 249.213V261.704" stroke="white" stroke-linecap="round"/>
<ellipse cx="349.873" cy="249.323" rx="1.96272" ry="3.1225" stroke="white"/>
<ellipse cx="391.178" cy="225.413" rx="1.69507" ry="3.47936" stroke="white"/>
<path d="M351.836 248.698L389.484 226.395" stroke="white"/>
<ellipse cx="339.647" cy="268.106" rx="1.96272" ry="3.1225" stroke="white"/>
<ellipse cx="380.953" cy="244.196" rx="1.69507" ry="3.47936" stroke="white"/>
<path d="M341.61 267.481L379.259 245.177" stroke="white"/>
<path d="M368.455 238.853V251.343" stroke="white"/>
<path d="M178.981 461.42V505.8L167.207 499.075C167.851 494.308 166.845 489.049 165.748 484.405C164.488 479.09 162.304 473.857 159.53 469.084L137.134 481.898L137.127 481.891L128.107 476.741V432.436L175.947 459.694L178.981 461.42Z" fill="url(#paint19_linear)"/>
<path d="M226.05 434.497V478.891L178.981 505.801V461.42L226.05 434.497Z" fill="url(#paint20_linear)"/>
<path d="M221.293 445.996V470.255L184.939 491.041V466.796L213.437 450.489L221.293 445.996Z" fill="url(#paint21_linear)"/>
<path d="M213.437 450.489V466.516L184.939 482.809V466.797L213.437 450.489Z" fill="url(#paint22_linear)"/>
<path d="M319.379 256.942V279.127L279.927 301.681V279.514L315.514 259.155L319.379 256.942Z" fill="#282526"/>
<path d="M315.514 259.155V275.86L279.927 296.209V279.513L315.514 259.155Z" fill="#E9024D"/>
<path d="M364.42 188.837L285.296 234.109V271.056L364.42 225.783V188.837Z" fill="#E9024D"/>
<path d="M359.626 197.104V223.004L290.09 262.79V236.891L359.626 197.104Z" fill="#282526"/>
<path d="M359.577 216.514L290.041 256.3" stroke="white"/>
<path d="M31.084 370.01V411.292L84.8651 441.933V400.651L31.084 370.01Z" fill="url(#paint23_linear)"/>
<path d="M31.084 370.01L84.8651 400.651L134.624 372.189L80.974 341.546L31.084 370.01Z" fill="url(#paint24_linear)"/>
<path d="M84.4152 341.745L84.3653 341.702L84.3513 341.697C82.9277 340.626 81.0448 339.892 78.5556 339.766L78.5299 339.758L78.5251 339.766C78.2635 339.753 78.0032 339.739 77.7283 339.741C65.3399 339.793 58.6832 358.761 59.662 370.175L88.7265 386.409L112.355 357.557C112.355 357.557 84.69 341.956 84.4152 341.745Z" fill="url(#paint25_linear)"/>
<path d="M159.53 469.084L137.134 481.898L137.127 481.891C135.141 475.638 133.49 467.768 135.621 461.385C137.121 456.9 141.477 454.558 146.031 455.66C151.024 456.865 155.202 462.283 157.873 466.379C158.448 467.262 159.003 468.166 159.53 469.084H159.53Z" fill="url(#paint26_linear)"/>
<path d="M128.107 432.436L178.98 461.421L226.048 434.498L175.3 405.511L128.107 432.436Z" fill="url(#paint27_linear)"/>
<path d="M201.002 402.221L198.083 399.012C197.92 398.796 197.749 398.586 197.567 398.382C197.357 398.148 197.136 397.93 196.908 397.72L196.879 397.688L196.874 397.69C191.081 392.377 179.514 394.422 170.416 402.564C161.664 410.396 158.267 421.12 162.149 427.574L162.152 427.592L162.176 427.62C162.49 428.136 162.846 428.628 163.255 429.085C163.554 429.419 163.876 429.725 164.212 430.012L166.69 432.924L167.73 431.993C173.962 434.12 183.002 431.528 190.405 424.903C197.809 418.279 201.384 409.581 199.961 403.152L201.002 402.221Z" fill="url(#paint28_linear)"/>
<path d="M200.248 411.542L190.116 395.187" stroke="#E9024D" stroke-linecap="round" stroke-linejoin="round"/>
<path d="M183.471 395.806L196.78 416.765L198.515 418.536" stroke="#E9024D" stroke-linecap="round" stroke-linejoin="round"/>
<path d="M177.785 398.182L192.557 423.34L194.944 422.283" stroke="#E9024D" stroke-linecap="round" stroke-linejoin="round"/>
<path d="M171.312 402.636L191.62 425.904L191.368 426.023" stroke="#E9024D" stroke-linecap="round" stroke-linejoin="round"/>
<path d="M183.801 429.335L165.536 408.408" stroke="#E9024D" stroke-linecap="round" stroke-linejoin="round"/>
<path d="M177.914 431.902L162.399 414.12" stroke="#E9024D" stroke-linecap="round" stroke-linejoin="round"/>
<path d="M172.692 434.145L160.683 420.38" stroke="#E9024D" stroke-linecap="round" stroke-linejoin="round"/>
<ellipse cx="183.846" cy="417.572" rx="23.0215" ry="14.9886" transform="rotate(-41.8225 183.846 417.572)" fill="url(#paint29_linear)"/>
<path d="M198.226 404.704C202.853 409.875 200.165 419.828 192.224 426.936C184.281 434.042 174.091 435.612 169.464 430.44" stroke="black" stroke-linecap="round" stroke-linejoin="round"/>
<path d="M213.438 466.515L221.293 470.255V445.996L213.438 450.489V466.515Z" fill="url(#paint30_linear)"/>
<path d="M380.757 393.416V414.947L413.023 433.396V411.877L387.729 397.403L380.757 393.416Z" fill="url(#paint31_linear)"/>
<path d="M387.73 397.404V411.628L413.024 426.089V411.877L387.73 397.404Z" fill="url(#paint32_linear)"/>
<path d="M387.729 411.628L380.757 414.947V393.416L387.729 397.403V411.628Z" fill="url(#paint33_linear)"/>
<path d="M145.918 427.734L151.968 425.804" stroke="white" stroke-linecap="round"/>
<path d="M150.825 397.598L155.848 401.982" stroke="white" stroke-linecap="round"/>
<path d="M165.207 383.244L167.718 389.037" stroke="white" stroke-linecap="round"/>
<path d="M192.376 378.65L191.142 385.556" stroke="white" stroke-linecap="round"/>
<path d="M210.639 393.489L206.644 398.884" stroke="white" stroke-linecap="round"/>
<path d="M212.58 411.98L208.642 413.837" stroke="white" stroke-linecap="round"/>
<ellipse cx="48.0473" cy="404.297" rx="2.62539" ry="4.59109" transform="rotate(-13.4835 48.0473 404.297)" stroke="white" stroke-linecap="round" stroke-linejoin="round"/>
<path d="M134.624 413.472V372.19L84.8652 400.651V441.933L134.624 413.472Z" fill="#282526"/>
<path d="M264.775 433.661L318.557 464.302L368.315 435.84L314.665 405.196L264.775 433.661Z" fill="url(#paint34_linear)"/>
<path d="M290.884 430.472C287.48 430.472 284.721 427.712 284.721 424.308V388.352C284.721 386.154 285.891 384.122 287.794 383.019L326.582 360.532C329.529 358.824 333.299 359.828 335.007 362.774C336.714 365.718 335.711 369.49 332.765 371.198L297.049 391.903V424.308C297.049 427.712 294.289 430.472 290.884 430.472L290.884 430.472Z" fill="url(#paint35_linear)"/>
<path d="M368.315 477.122V435.84L318.557 464.302V505.584L368.315 477.122Z" fill="#282526" stroke="#E9024D"/>
<g style="mix-blend-mode:screen" opacity="0.35">
<path d="M340.773 428.254V401.527L308.558 419.954V446.681L340.773 428.254Z" fill="url(#paint36_linear)"/>
</g>
<g style="mix-blend-mode:screen" opacity="0.35">
<path d="M351.294 434.371V407.644L319.079 426.071V452.798L351.294 434.371Z" fill="url(#paint37_linear)"/>
</g>
<g style="mix-blend-mode:screen" opacity="0.35">
<path d="M340.773 401.527L308.558 419.954L340.773 401.527Z" fill="url(#paint38_linear)"/>
</g>
<path d="M368.315 448.408L318.557 476.87L368.315 448.408Z" fill="#282526"/>
<path d="M368.315 448.408L318.557 476.87" stroke="#E9024D"/>
<path d="M332.684 497.511V476.87L327.168 480.097V500.658L332.684 497.511Z" fill="url(#paint39_linear)"/>
<path d="M345.932 489.934V469.294L340.416 472.52V493.082L345.932 489.934Z" fill="url(#paint40_linear)"/>
<path d="M359.181 482.357V461.717L353.665 464.943V485.505L359.181 482.357Z" fill="url(#paint41_linear)"/>
<path d="M264.775 433.661V474.942L318.557 505.583V464.302L264.775 433.661Z" fill="#282526" stroke="#E9024D"/>
<path d="M107.043 406.329L93.637 414.033V402.232L88.502 405.246" stroke="white" stroke-linecap="round"/>
<path d="M107.189 413.605L94.6138 420.831V430.758L88.502 434.189" stroke="white" stroke-linecap="round"/>
<path d="M72.4195 434.842V402.615L48.0469 388.673V399.709" stroke="white" stroke-linecap="round" stroke-linejoin="round"/>
<ellipse cx="87.6012" cy="405.674" rx="1.88343" ry="0.898912" transform="rotate(-75.5145 87.6012 405.674)" stroke="white" stroke-linecap="round"/>
<ellipse cx="87.7877" cy="434.189" rx="1.88343" ry="0.898912" transform="rotate(-75.5145 87.7877 434.189)" stroke="white" stroke-linecap="round"/>
<path d="M117.459 369.914C117.459 369.914 118.807 356.114 106.567 356.165C94.178 356.217 87.5217 375.186 88.5009 386.599L117.459 369.914Z" fill="url(#paint42_linear)"/>
<path d="M97.261 369.242C95.1717 372.515 93.9325 376.796 93.6585 380.535C93.5761 381.611 93.5761 382.638 93.6585 383.583L96.3706 382.035L108.205 375.261L112.328 372.905L100.138 365.934C99.0507 366.815 98.088 367.948 97.261 369.242L97.261 369.242Z" fill="#282526"/>
<path d="M105.287 363.988C103.345 363.997 101.624 364.729 100.138 365.934L112.328 372.905C112.328 372.905 113.171 363.954 105.287 363.988V363.988Z" fill="url(#paint43_linear)"/>
<path d="M118.807 381.104V422.58L107.041 429.388V387.912L96.3704 382.035L93.6582 380.535C93.9322 376.796 95.1714 372.515 97.2608 369.242L108.204 375.261L118.807 381.104Z" fill="white"/>
<path d="M57.1666 364.9C56.5502 364.421 55.7868 364.077 54.8164 364.006C48.672 363.555 46.5445 372.268 46.9692 377.225L76.0759 393.616L85.7622 381.003L57.1666 364.9Z" fill="url(#paint44_linear)"/>
<path d="M88.7255 386.409C88.7255 386.409 88.3494 380.717 83.975 380.396C77.8302 379.945 75.703 388.658 76.1286 393.615L88.7255 386.409Z" fill="url(#paint45_linear)"/>
<circle cx="258.646" cy="12.9545" r="12.9545" fill="url(#paint46_linear)"/>
<circle cx="258.646" cy="19.0946" r="4.78163" stroke="white" stroke-linecap="round" stroke-linejoin="round"/>
<circle cx="258.645" cy="20.804" r="2.79948" fill="#1D1E29"/>
<path d="M128.107 432.435L258.982 20.8035L226.048 434.497" stroke="#E9024D" stroke-linecap="round" stroke-linejoin="round"/>
<path d="M165.207 362.25L258.644 20.804" stroke="#E9024D"/>
<path d="M258.982 20.804L206.644 379.594" stroke="#E9024D" stroke-linecap="round" stroke-linejoin="round"/>
<path d="M436.79 114.436L380.451 146.672V120.365L436.79 88.1295V114.436Z" stroke="white" stroke-linecap="round" stroke-linejoin="round"/>
<path d="M491.352 168.853L465.787 183.55V157.243L491.352 142.546V168.853Z" stroke="white" stroke-linecap="round" stroke-linejoin="round"/>
<path d="M491.352 178.239L465.787 192.936" stroke="#E9024D"/>
<path d="M491.352 184.738L465.787 199.434" stroke="#E9024D"/>
<ellipse cx="430.052" cy="183.965" rx="38.0821" ry="23.7139" transform="rotate(-64.3904 430.052 183.965)" stroke="#E9024D"/>
<ellipse cx="431.237" cy="184.247" rx="18.1022" ry="10.0753" transform="rotate(-64.3904 431.237 184.247)" stroke="#E9024D"/>
<g style="mix-blend-mode:screen" opacity="0.35">
<path fill-rule="evenodd" clip-rule="evenodd" d="M446.511 149.625C434.701 143.963 417.756 154.75 408.666 173.715C399.576 192.681 401.78 212.646 413.589 218.306C425.4 223.967 442.344 213.181 451.434 194.215C460.526 175.25 458.321 155.286 446.511 149.625ZM440.323 188.602C436.002 197.617 428.431 202.976 423.413 200.571C418.395 198.166 417.831 188.908 422.152 179.892C426.474 170.876 434.044 165.518 439.062 167.923C444.079 170.328 444.645 179.587 440.323 188.602Z" fill="url(#paint47_linear)"/>
</g>
<path d="M441.593 148.226L436.79 167.357" stroke="#E9024D"/>
<path d="M442.975 173.947L456.143 163.048" stroke="#E9024D"/>
<path d="M404.847 183.965L420.061 185.587" stroke="#E9024D"/>
<path d="M407.16 212.58L420.899 198.291" stroke="#E9024D"/>
<path d="M416.134 126.255V148.225L430.05 139.574V156.443" stroke="white"/>
<path d="M385.881 122.224V135.922L431.239 109.386" stroke="white" stroke-linecap="round" stroke-linejoin="round"/>
<path d="M386.349 126.585C387.086 125.943 388.412 126.218 388.833 127.101C389.257 127.99 388.882 129.266 389.666 129.86C390.136 130.218 390.824 130.115 391.337 129.823C393.071 128.839 393.222 126.25 393.819 124.556C394.848 121.631 396.355 117.814 398.904 115.877C399.165 115.679 399.449 115.494 399.772 115.436C400.362 115.331 400.963 115.689 401.293 116.19C401.622 116.692 401.725 117.307 401.758 117.906C401.79 118.504 401.761 119.108 401.86 119.7C402.13 121.314 403.874 120.821 404.688 119.904C405.285 119.232 405.626 118.373 406.153 117.644C406.689 116.902 407.464 116.283 408.37 116.154C408.908 116.078 409.49 116.209 409.935 116.524C410.45 116.888 410.607 117.545 411.165 117.863C411.883 118.272 412.792 117.78 413.35 117.17C414 116.462 414.451 115.649 415.442 115.378C416.006 115.224 416.606 115.261 417.177 115.14C418.188 114.926 419.021 114.244 419.869 113.654C420.842 112.975 421.719 112.714 422.879 112.607C424.022 112.501 425.257 112.378 426.253 111.758" stroke="white" stroke-linecap="round" stroke-linejoin="round"/>
<ellipse cx="430.569" cy="158.16" rx="2.62822" ry="1.96664" transform="rotate(-39.7451 430.569 158.16)" stroke="white"/>
<ellipse cx="464.942" cy="192.824" rx="1.24135" ry="2.65393" stroke="#E9024D"/>
<ellipse cx="464.942" cy="199.716" rx="1.24135" ry="2.65393" stroke="#E9024D"/>
<ellipse cx="492.38" cy="178.185" rx="1.24135" ry="2.65393" stroke="#E9024D"/>
<ellipse cx="492.38" cy="185.076" rx="1.24135" ry="2.65393" stroke="#E9024D"/>
<path d="M470.35 176.102L474.23 159.779L478.57 168.91L483.591 152.016L485.075 158.979L487.814 148.226" stroke="white" stroke-linecap="round" stroke-linejoin="round"/>
<path d="M298.325 319.343V307.284L289.358 312.408V314.433L298.325 319.343Z" fill="url(#paint48_linear)"/>
<path d="M446.245 312.132C446.18 312.085 446.114 312.04 446.047 311.998L446.014 311.976V311.98C445.139 311.464 444.122 311.567 443.01 312.565C439.672 315.562 440.527 323.266 438.73 334.738C437.477 342.734 437.013 347.359 435.774 349.748L433.512 344.29L428.766 340.645C428.627 340.512 428.481 340.396 428.323 340.305L428.315 340.3V340.302C428.004 340.124 427.655 340.03 427.258 340.046C422.892 340.217 421.865 353.402 422.122 365.216C422.378 377.03 419.382 377.971 414.811 383.879C410.241 389.786 412.863 390.506 412.863 390.506L419.117 394.75L449.379 370.181L452.504 316.381L446.245 312.132Z" fill="url(#paint49_linear)"/>
<path d="M419.118 394.751C419.118 394.751 416.495 394.031 421.066 388.124C425.637 382.217 428.633 381.275 428.376 369.461C428.12 357.647 429.147 344.463 433.513 344.291C437.879 344.12 436.68 356.876 439.848 355.934C443.016 354.993 443.187 350.455 444.985 338.983C446.782 327.511 445.926 319.807 449.265 316.811C452.604 313.814 455.087 318.851 455.429 324.637C455.771 330.423 455.634 374.426 455.634 374.426L419.118 394.751Z" fill="white"/>
<path d="M305.383 232.326L308.922 230.193C309.354 229.932 309.764 229.891 310.152 230.069C310.541 230.246 310.737 230.628 310.741 231.211C310.742 231.43 310.674 231.657 310.538 231.892C310.401 232.127 310.25 232.295 310.082 232.396C309.851 232.535 309.691 232.573 309.604 232.506C309.517 232.439 309.434 232.268 309.354 231.992C309.273 231.718 309.097 231.662 308.827 231.825L305.464 233.851C305.303 233.949 305.222 234.057 305.223 234.175C305.219 234.252 305.252 234.317 305.322 234.372L310.418 238.595C310.665 238.799 310.788 239.103 310.79 239.505C310.794 239.961 310.649 240.451 310.357 240.975C310.066 241.498 309.739 241.87 309.378 242.087L305.714 244.296C305.229 244.588 304.806 244.634 304.444 244.433C304.083 244.233 303.901 243.883 303.898 243.385C303.895 242.813 304.13 242.384 304.605 242.098C304.788 241.987 304.945 241.968 305.075 242.038C305.205 242.109 305.271 242.246 305.272 242.446C305.273 242.61 305.324 242.717 305.424 242.767C305.525 242.816 305.651 242.795 305.801 242.704L309.182 240.667C309.328 240.579 309.401 240.469 309.4 240.339C309.403 240.276 309.369 240.216 309.299 240.16L304.211 235.934C303.971 235.731 303.85 235.425 303.848 235.018C303.844 234.543 303.994 234.041 304.293 233.509C304.594 232.977 304.957 232.582 305.383 232.326L305.383 232.326Z" fill="white"/>
<path d="M317.648 235.565L320.102 234.086C320.29 233.973 320.454 233.949 320.593 234.015C320.731 234.081 320.801 234.22 320.802 234.434C320.803 234.647 320.736 234.869 320.599 235.101C320.462 235.332 320.3 235.505 320.111 235.619L317.572 237.15C317.248 237.345 316.913 237.43 316.566 237.407C316.22 237.384 315.979 237.27 315.842 237.066L314.252 234.59C314.039 234.224 313.931 233.783 313.928 233.266C313.925 232.694 314.021 232.138 314.218 231.598L315.783 227.258C315.932 226.851 316.165 226.431 316.481 225.999C316.798 225.567 317.105 225.262 317.401 225.083L320.086 223.464C320.276 223.351 320.436 223.33 320.569 223.403C320.702 223.475 320.769 223.615 320.771 223.821C320.772 224.035 320.707 224.258 320.576 224.493C320.444 224.727 320.285 224.902 320.096 225.015L317.509 226.575C317.293 226.706 317.119 226.954 316.986 227.321L315.498 231.403C315.381 231.724 315.323 232.055 315.327 232.395C315.328 232.756 315.394 233.033 315.525 233.228L316.982 235.483C317.119 235.724 317.341 235.751 317.648 235.565L317.648 235.565Z" fill="white"/>
<path fill-rule="evenodd" clip-rule="evenodd" d="M323.971 232.221L326.643 220.085C326.75 219.639 326.978 219.311 327.327 219.101C327.665 218.897 327.879 218.93 327.967 219.2L330.741 228.215C330.763 228.281 330.774 228.35 330.775 228.423C330.776 228.636 330.712 228.856 330.584 229.083C330.455 229.31 330.307 229.474 330.14 229.574C329.785 229.789 329.557 229.74 329.457 229.428L328.908 227.671L325.797 229.545L325.219 232.131C325.203 232.237 325.136 232.37 325.017 232.53C324.899 232.689 324.768 232.812 324.628 232.896C324.428 233.017 324.261 233.041 324.131 232.967C323.999 232.894 323.933 232.747 323.932 232.528C323.932 232.437 323.944 232.335 323.971 232.221L323.971 232.221ZM327.338 222.656L326.199 227.746L328.498 226.36L327.338 222.656Z" fill="white"/>
<path d="M340.716 211.819L340.784 223.16L338.961 224.258L335.243 217.049L335.295 225.698C335.297 225.91 335.232 226.132 335.1 226.361C334.969 226.589 334.81 226.76 334.62 226.874C334.432 226.988 334.271 227.01 334.138 226.94C334.005 226.871 333.938 226.73 333.936 226.517L333.868 215.159L335.664 214.076L339.392 221.26L339.34 212.648C339.339 212.435 339.407 212.209 339.544 211.971C339.68 211.734 339.843 211.558 340.032 211.444C340.22 211.33 340.381 211.309 340.514 211.381C340.647 211.455 340.714 211.6 340.716 211.819Z" fill="white"/>
<path d="M193.271 329.682V326.142V329.682Z" fill="white"/>
<path d="M193.271 329.682V326.142" stroke="black" stroke-linecap="round" stroke-linejoin="round"/>
<path d="M193.271 348.181L190.124 346.46" stroke="#E9024D" stroke-linecap="round" stroke-linejoin="round"/>
<path d="M240.349 389.779V386.598" stroke="black" stroke-linecap="round" stroke-linejoin="round"/>
<path d="M240.349 437.509V443.029" stroke="black" stroke-linecap="round" stroke-linejoin="round"/>
<path d="M102.976 378.801L113.2 384.057V397.597" stroke="#282526"/>
<path d="M109.744 389.835V419.087" stroke="#282526"/>
<path d="M116.239 408.133V424.066" stroke="#282526"/>
<path d="M96.6045 220.361V235L76.3366 222.015L52.514 234.432C49.5021 236.004 45.7742 234.836 44.2027 231.815C42.6309 228.795 43.7993 225.076 46.8193 223.504L73.802 209.433C75.7608 208.412 78.1142 208.519 79.9738 209.713L96.6045 220.361Z" fill="url(#paint50_linear)"/>
<path d="M76.333 222.016V213.358" stroke="#E9024D"/>
<circle cx="49.4081" cy="228.982" r="5.90713" fill="url(#paint51_linear)" stroke="#E9024D"/>
<circle cx="49.4085" cy="228.982" r="4.37724" fill="url(#paint52_linear)"/>
<path d="M12.3475 256.315L12.3174 251.036" stroke="#E9024D"/>
<path d="M52.0457 347.148C50.9818 347.148 49.9037 346.872 48.9213 346.293L3.03402 319.239C1.15398 318.131 0 316.112 0 313.93V304.569C0 301.165 2.75999 298.406 6.16448 298.406C9.56898 298.406 12.3282 301.165 12.3282 304.569V310.409L55.1818 335.672C58.1146 337.402 59.0906 341.181 57.3616 344.113C56.2113 346.063 54.1564 347.148 52.0457 347.148L52.0457 347.148Z" fill="url(#paint53_linear)"/>
<path d="M12.328 310.408L6.16406 314.101" stroke="#E9024D"/>
<ellipse cx="6.16322" cy="301.887" rx="5.55189" ry="3.68115" fill="url(#paint54_linear)"/>
<ellipse cx="6.1637" cy="301.759" rx="3.85218" ry="2.55416" fill="url(#paint55_linear)"/>
<circle cx="346.489" cy="356.191" r="4.98357" fill="url(#paint56_linear)"/>
<path d="M499.672 310.732L504.226 312.958L499.672 310.732Z" fill="white"/>
<path d="M499.672 310.732L504.226 312.958" stroke="black" stroke-linecap="round" stroke-linejoin="round"/>
<path d="M499.672 296.342V292.068V296.342Z" fill="white"/>
<path d="M499.672 296.342V292.068" stroke="black" stroke-linecap="round" stroke-linejoin="round"/>
<path d="M395.498 320.579L399.125 318.379L395.498 320.579Z" fill="white"/>
<path d="M395.498 320.579L399.125 318.379" stroke="black" stroke-linecap="round" stroke-linejoin="round"/>
<path d="M297.048 391.903L292.938 389.037L297.048 391.903Z" fill="white"/>
<path d="M297.048 391.903L292.938 389.037" stroke="black" stroke-linecap="round" stroke-linejoin="round"/>
<path d="M121.004 636.6V616.794H147.607V607.465H121.004V592.859H149.123V583.147H111V636.6H121.004Z" fill="#FAFBFB"/>
<path d="M155.546 598.9V618.706C155.546 630.406 162.064 637.212 171.007 637.212C176.237 637.212 179.799 635.376 183.665 631.553L184.271 636.676H192.532V598.9H183.361V618.171C183.361 623.906 179.496 628.724 173.812 628.724C167.9 628.724 164.793 624.365 164.793 618.629V598.9H155.546Z" fill="#FAFBFB"/>
<path d="M209.785 598.747V644.629C209.785 653.959 205.768 660 197.355 660C194.626 660 191.746 659.235 189.094 657.476L192.428 650.212C194.02 650.976 195.536 651.359 196.9 651.282C199.932 651.129 200.614 648.759 200.614 644.629V598.747H209.785ZM199.78 588.194C199.78 595.459 210.694 595.459 210.694 588.194C210.694 580.929 199.78 580.929 199.78 588.194Z" fill="#FAFBFB"/>
<path d="M226.886 598.747V636.6H217.639V598.747H226.886ZM216.805 588.271C216.805 595.535 227.719 595.535 227.719 588.271C227.719 581.006 216.805 581.006 216.805 588.271Z" fill="#FAFBFB"/>
<path d="M262.323 583.071C255.805 583.071 247.999 583.071 241.481 583.071V636.6C247.999 636.6 255.805 636.6 262.323 636.6C280.892 636.6 289.077 622.912 288.85 609.376C288.623 596.147 280.513 583.071 262.323 583.071ZM251.409 592.629H262.323C273.843 592.629 278.694 600.965 278.921 609.3C279.149 618.018 274.374 626.888 262.323 626.888H251.409V592.629Z" fill="#FAFBFB"/>
<path d="M337.593 636.6H348.507L324.709 583.071H313.795L289.996 636.6H300.834L305.382 626.506H333.121L337.593 636.6ZM329.104 617.1H309.399L319.252 594.312L329.104 617.1Z" fill="#FAFBFB"/>
<path d="M374.789 582C356.448 582 347.504 596.147 347.504 610.218C347.504 624.288 356.145 637.824 374.789 637.824C393.434 637.824 401.847 623.982 401.998 610.141C402.15 596.147 393.055 582 374.789 582ZM374.789 591.176C387.295 591.176 392.297 601.271 392.145 610.294C391.994 619.088 387.295 628.571 374.789 628.571C362.284 628.571 357.585 619.165 357.357 610.371C357.13 601.347 362.284 591.176 374.789 591.176Z" fill="#FAFBFB"/>
<path d="M83.7641 692.299V686.665H91.114V684.011H83.7641V679.855H91.5327V677.092H81V692.299H83.7641Z" fill="#F5F5FD"/>
<path d="M95.7992 681.531V692.299H93.2446V681.531H95.7992ZM93.0142 678.55C93.0142 680.617 96.0296 680.617 96.0296 678.55C96.0296 676.483 93.0142 676.483 93.0142 678.55Z" fill="#F5F5FD"/>
<path d="M98.1115 681.574V692.299H100.666V686.643C100.666 684.663 101.902 683.924 103.242 683.924C104.079 683.924 104.561 684.163 105.084 684.62L106.236 682.314C105.671 681.726 104.645 681.291 103.577 681.291C102.53 681.291 101.462 681.487 100.666 682.814L100.478 681.574H98.1115Z" fill="#F5F5FD"/>
<path d="M115.357 682.684C114.164 681.596 112.949 681.269 111.337 681.269C109.452 681.269 106.981 682.14 106.981 684.62C106.981 687.056 109.306 687.796 111.253 687.948C112.719 688.035 113.305 688.34 113.305 689.08C113.305 689.863 112.405 690.385 111.442 690.363C110.29 690.341 108.615 689.711 107.882 688.862L106.625 690.755C108.133 692.386 109.766 692.669 111.4 692.669C114.352 692.669 115.839 691.038 115.839 689.145C115.839 686.295 113.368 685.838 111.421 685.708C110.101 685.621 109.494 685.229 109.494 684.533C109.494 683.858 110.164 683.467 111.379 683.467C112.363 683.467 113.201 683.706 113.933 684.424L115.357 682.684Z" fill="#F5F5FD"/>
<path d="M118.524 678.833V681.596H116.597V683.88H118.524V688.514C118.524 691.19 119.99 692.517 122.23 692.43C123.005 692.408 123.612 692.278 124.345 691.973L123.633 689.711C123.256 689.906 122.795 690.037 122.398 690.037C121.602 690.037 121.057 689.536 121.057 688.514V683.88H123.926V681.596H121.078V678.55L118.524 678.833Z" fill="#F5F5FD"/>
<path d="M134.931 681.356C131.644 681.356 129.592 683.88 129.592 686.948C129.592 690.037 131.602 692.539 134.952 692.539C138.303 692.539 140.334 690.037 140.334 686.948C140.334 683.88 138.219 681.356 134.931 681.356ZM134.952 683.771C136.669 683.771 137.758 685.338 137.758 686.948C137.758 688.579 136.816 690.102 134.952 690.102C133.089 690.102 132.146 688.579 132.146 686.948C132.146 685.338 133.11 683.771 134.952 683.771Z" fill="#F5F5FD"/>
<path d="M152.253 692.299V686.665C152.253 683.293 150.306 681.4 147.877 681.4C146.579 681.4 145.532 681.944 144.485 683.01L144.317 681.552H142.035V692.299H144.568V686.817C144.568 685.185 145.636 683.815 147.207 683.815C148.84 683.815 149.699 685.055 149.699 686.687V692.299H152.253Z" fill="#F5F5FD"/>
<path d="M154.344 686.425H162.071V683.989H154.344V686.425Z" fill="#F5F5FD"/>
<path d="M171.18 689.188C170.552 689.841 169.735 690.08 168.918 690.08C167.327 690.08 165.987 688.993 165.987 686.948C165.987 685.077 167.243 683.771 168.96 683.771C169.672 683.771 170.426 684.054 171.033 684.62L172.646 682.858C171.515 681.705 170.384 681.269 168.918 681.269C165.924 681.269 163.432 683.14 163.432 686.948C163.432 690.755 165.924 692.626 168.918 692.626C170.447 692.626 171.703 692.147 172.897 690.929L171.18 689.188Z" fill="#F5F5FD"/>
<path d="M174.018 677.071V692.299H176.573V686.817C176.573 685.207 177.62 683.88 179.128 683.88C180.489 683.88 181.473 684.707 181.473 686.665V692.299H184.028V686.643C184.028 683.489 182.729 681.422 179.798 681.422C178.625 681.422 177.494 681.792 176.573 683.032V677.071H174.018Z" fill="#F5F5FD"/>
<path d="M194.289 683.053C193.703 681.987 192.384 681.313 191.002 681.313C187.986 681.291 185.62 683.227 185.62 686.926C185.62 690.689 187.882 692.647 190.939 692.626C192.091 692.604 193.703 691.995 194.289 690.733L194.415 692.299H196.823V681.574H194.373L194.289 683.053ZM191.232 683.684C195.253 683.684 195.253 690.189 191.232 690.189C189.536 690.189 188.175 688.971 188.175 686.926C188.175 684.881 189.536 683.684 191.232 683.684Z" fill="#F5F5FD"/>
<path d="M201.541 681.531V692.299H198.987V681.531H201.541ZM198.756 678.55C198.756 680.617 201.772 680.617 201.772 678.55C201.772 676.483 198.756 676.483 198.756 678.55Z" fill="#F5F5FD"/>
<path d="M214.009 692.299V686.665C214.009 683.293 212.062 681.4 209.633 681.4C208.335 681.4 207.288 681.944 206.241 683.01L206.073 681.552H203.791V692.299H206.325V686.817C206.325 685.185 207.392 683.815 208.963 683.815C210.596 683.815 211.455 685.055 211.455 686.687V692.299H214.009Z" fill="#F5F5FD"/>
<path d="M226.154 683.793C227.788 683.793 229.086 684.99 229.086 686.926C229.086 688.797 227.788 690.08 226.154 690.08C224.542 690.08 223.16 688.862 223.16 686.926C223.16 685.055 224.542 683.793 226.154 683.793ZM220.438 677.092V692.299H222.825L222.993 690.82C223.788 692.104 225.066 692.539 226.322 692.539C229.358 692.539 231.641 690.45 231.641 686.926C231.641 683.227 229.4 681.313 226.385 681.313C225.296 681.313 223.6 681.922 222.993 683.032V677.092H220.438Z" fill="#F5F5FD"/>
<path d="M238.383 681.356C235.096 681.356 233.044 683.88 233.044 686.948C233.044 690.037 235.054 692.539 238.404 692.539C241.755 692.539 243.786 690.037 243.786 686.948C243.786 683.88 241.671 681.356 238.383 681.356ZM238.404 683.771C240.121 683.771 241.21 685.338 241.21 686.948C241.21 688.579 240.268 690.102 238.404 690.102C236.541 690.102 235.598 688.579 235.598 686.948C235.598 685.338 236.562 683.771 238.404 683.771Z" fill="#F5F5FD"/>
<path d="M245.549 681.574V692.299H248.104V686.643C248.104 684.663 249.339 683.924 250.68 683.924C251.517 683.924 251.999 684.163 252.522 684.62L253.674 682.314C253.109 681.726 252.083 681.291 251.015 681.291C249.968 681.291 248.9 681.487 248.104 682.814L247.916 681.574H245.549Z" fill="#F5F5FD"/>
<path d="M254.629 681.574V692.299H257.183V686.643C257.183 684.663 258.419 683.924 259.759 683.924C260.597 683.924 261.078 684.163 261.602 684.62L262.753 682.314C262.188 681.726 261.162 681.291 260.094 681.291C259.047 681.291 257.979 681.487 257.183 682.814L256.995 681.574H254.629Z" fill="#F5F5FD"/>
<path d="M268.566 681.356C265.279 681.356 263.227 683.88 263.227 686.948C263.227 690.037 265.237 692.539 268.587 692.539C271.937 692.539 273.969 690.037 273.969 686.948C273.969 683.88 271.854 681.356 268.566 681.356ZM268.587 683.771C270.304 683.771 271.393 685.338 271.393 686.948C271.393 688.579 270.451 690.102 268.587 690.102C266.723 690.102 265.781 688.579 265.781 686.948C265.781 685.338 266.744 683.771 268.587 683.771Z" fill="#F5F5FD"/>
<path d="M282.527 681.552L280.287 689.623L277.921 681.552H275.073L278.695 692.343H281.669L282.737 689.167L283.658 685.577L284.58 689.167L285.648 692.343H288.621L292.223 681.552H289.396L287.03 689.623L284.768 681.552H282.527Z" fill="#F5F5FD"/>
<path d="M296.936 681.531V692.299H294.382V681.531H296.936ZM294.151 678.55C294.151 680.617 297.167 680.617 297.167 678.55C297.167 676.483 294.151 676.483 294.151 678.55Z" fill="#F5F5FD"/>
<path d="M309.404 692.299V686.665C309.404 683.293 307.457 681.4 305.028 681.4C303.73 681.4 302.683 681.944 301.636 683.01L301.468 681.552H299.186V692.299H301.72V686.817C301.72 685.185 302.787 683.815 304.358 683.815C305.991 683.815 306.85 685.055 306.85 686.687V692.299H309.404Z" fill="#F5F5FD"/>
<path d="M318.678 681.835C317.966 681.335 317.128 681.226 316.311 681.226C313.422 681.226 311.076 683.314 311.076 686.665C311.076 690.015 313.087 692.06 316.311 692.06C317.589 692.06 318.929 692.734 318.929 694.214C318.929 695.693 317.777 696.52 316.311 696.52C314.846 696.52 313.61 695.606 313.61 694.214H311.076C311.076 697.107 313.317 699 316.311 699C319.306 699 321.483 697.173 321.483 694.214C321.483 692.843 321.065 691.56 319.348 690.668C321.044 689.863 321.525 687.992 321.525 686.665C321.525 685.49 321.232 684.424 320.436 683.489L321.588 681.966L319.704 680.486L318.678 681.835ZM316.311 683.641C317.777 683.641 318.992 684.816 318.992 686.665C318.992 688.514 317.777 689.645 316.311 689.645C314.825 689.645 313.61 688.536 313.61 686.665C313.61 684.794 314.825 683.641 316.311 683.641Z" fill="#F5F5FD"/>
<path d="M335.49 683.053C334.904 681.987 333.585 681.313 332.203 681.313C329.187 681.291 326.821 683.227 326.821 686.926C326.821 690.689 329.083 692.647 332.14 692.626C333.292 692.604 334.904 691.995 335.49 690.733L335.616 692.299H338.024V681.574H335.574L335.49 683.053ZM332.433 683.684C336.454 683.684 336.454 690.189 332.433 690.189C330.737 690.189 329.376 688.971 329.376 686.926C329.376 684.881 330.737 683.684 332.433 683.684Z" fill="#F5F5FD"/>
<path d="M347.265 681.835C346.553 681.335 345.716 681.226 344.899 681.226C342.009 681.226 339.664 683.314 339.664 686.665C339.664 690.015 341.674 692.06 344.899 692.06C346.176 692.06 347.517 692.734 347.517 694.214C347.517 695.693 346.365 696.52 344.899 696.52C343.433 696.52 342.198 695.606 342.198 694.214H339.664C339.664 697.107 341.905 699 344.899 699C347.894 699 350.071 697.173 350.071 694.214C350.071 692.843 349.652 691.56 347.935 690.668C349.632 689.863 350.113 687.992 350.113 686.665C350.113 685.49 349.82 684.424 349.024 683.489L350.176 681.966L348.291 680.486L347.265 681.835ZM344.899 683.641C346.365 683.641 347.579 684.816 347.579 686.665C347.579 688.514 346.365 689.645 344.899 689.645C343.412 689.645 342.198 688.536 342.198 686.665C342.198 684.794 343.412 683.641 344.899 683.641Z" fill="#F5F5FD"/>
<path d="M358.819 681.835C358.107 681.335 357.27 681.226 356.453 681.226C353.563 681.226 351.218 683.314 351.218 686.665C351.218 690.015 353.228 692.06 356.453 692.06C357.73 692.06 359.07 692.734 359.07 694.214C359.07 695.693 357.919 696.52 356.453 696.52C354.987 696.52 353.752 695.606 353.752 694.214H351.218C351.218 697.107 353.458 699 356.453 699C359.447 699 361.625 697.173 361.625 694.214C361.625 692.843 361.206 691.56 359.489 690.668C361.185 689.863 361.667 687.992 361.667 686.665C361.667 685.49 361.374 684.424 360.578 683.489L361.73 681.966L359.845 680.486L358.819 681.835ZM356.453 683.641C357.919 683.641 359.133 684.816 359.133 686.665C359.133 688.514 357.919 689.645 356.453 689.645C354.966 689.645 353.752 688.536 353.752 686.665C353.752 684.794 354.966 683.641 356.453 683.641Z" fill="#F5F5FD"/>
<path d="M363.295 681.574V692.299H365.85V686.643C365.85 684.663 367.085 683.924 368.425 683.924C369.263 683.924 369.745 684.163 370.268 684.62L371.42 682.314C370.854 681.726 369.828 681.291 368.76 681.291C367.713 681.291 366.646 681.487 365.85 682.814L365.661 681.574H363.295Z" fill="#F5F5FD"/>
<path d="M382.614 687.883C383.012 683.467 380.855 681.248 377.4 681.248C374.05 681.248 371.914 683.597 371.914 686.861C371.914 690.298 374.029 692.582 377.589 692.582C379.159 692.582 380.939 692.017 382.028 690.842L380.395 689.167C379.808 689.798 378.573 690.167 377.63 690.167C375.83 690.167 374.72 689.21 374.552 687.883H382.614ZM374.594 685.686C374.971 684.293 376.102 683.597 377.484 683.597C378.95 683.597 379.997 684.293 380.164 685.686H374.594Z" fill="#F5F5FD"/>
<path d="M391.66 681.835C390.948 681.335 390.111 681.226 389.294 681.226C386.404 681.226 384.059 683.314 384.059 686.665C384.059 690.015 386.069 692.06 389.294 692.06C390.571 692.06 391.912 692.734 391.912 694.214C391.912 695.693 390.76 696.52 389.294 696.52C387.828 696.52 386.593 695.606 386.593 694.214H384.059C384.059 697.107 386.3 699 389.294 699C392.289 699 394.466 697.173 394.466 694.214C394.466 692.843 394.047 691.56 392.33 690.668C394.026 689.863 394.508 687.992 394.508 686.665C394.508 685.49 394.215 684.424 393.419 683.489L394.571 681.966L392.686 680.486L391.66 681.835ZM389.294 683.641C390.76 683.641 391.974 684.816 391.974 686.665C391.974 688.514 390.76 689.645 389.294 689.645C387.807 689.645 386.593 688.536 386.593 686.665C386.593 684.794 387.807 683.641 389.294 683.641Z" fill="#F5F5FD"/>
<path d="M404.24 683.053C403.654 681.987 402.335 681.313 400.953 681.313C397.937 681.291 395.571 683.227 395.571 686.926C395.571 690.689 397.832 692.647 400.89 692.626C402.041 692.604 403.654 691.995 404.24 690.733L404.366 692.299H406.774V681.574H404.324L404.24 683.053ZM401.183 683.684C405.203 683.684 405.203 690.189 401.183 690.189C399.487 690.189 398.126 688.971 398.126 686.926C398.126 684.881 399.487 683.684 401.183 683.684Z" fill="#F5F5FD"/>
<path d="M409.535 678.833V681.596H407.608V683.88H409.535V688.514C409.535 691.19 411 692.517 413.241 692.43C414.016 692.408 414.623 692.278 415.356 691.973L414.644 689.711C414.267 689.906 413.806 690.037 413.408 690.037C412.613 690.037 412.068 689.536 412.068 688.514V683.88H414.937V681.596H412.089V678.55L409.535 678.833Z" fill="#F5F5FD"/>
<path d="M421.709 681.356C418.422 681.356 416.37 683.88 416.37 686.948C416.37 690.037 418.38 692.539 421.73 692.539C425.081 692.539 427.112 690.037 427.112 686.948C427.112 683.88 424.997 681.356 421.709 681.356ZM421.73 683.771C423.447 683.771 424.536 685.338 424.536 686.948C424.536 688.579 423.594 690.102 421.73 690.102C419.867 690.102 418.924 688.579 418.924 686.948C418.924 685.338 419.888 683.771 421.73 683.771Z" fill="#F5F5FD"/>
<path d="M428.875 681.574V692.299H431.43V686.643C431.43 684.663 432.665 683.924 434.006 683.924C434.843 683.924 435.325 684.163 435.848 684.62L437 682.314C436.435 681.726 435.409 681.291 434.341 681.291C433.294 681.291 432.226 681.487 431.43 682.814L431.242 681.574H428.875Z" fill="#F5F5FD"/>
<defs>
<linearGradient id="paint0_linear" x1="569.308" y1="285.256" x2="458.594" y2="165.349" gradientUnits="userSpaceOnUse">
<stop stop-color="#E9024D"/>
<stop offset="1" stop-color="#101010"/>
</linearGradient>
<linearGradient id="paint1_linear" x1="369.296" y1="408.055" x2="472.836" y2="408.055" gradientUnits="userSpaceOnUse">
<stop stop-color="#E9024D"/>
<stop offset="0.0455207" stop-color="#EA044E"/>
<stop offset="1" stop-color="#FA246B"/>
</linearGradient>
<linearGradient id="paint2_linear" x1="458.034" y1="332.905" x2="365.726" y2="367.988" gradientUnits="userSpaceOnUse">
<stop stop-color="#E9024D"/>
<stop offset="1" stop-color="#101010"/>
</linearGradient>
<linearGradient id="paint3_linear" x1="363.915" y1="374.308" x2="375.093" y2="450.396" gradientUnits="userSpaceOnUse">
<stop stop-color="#E9024D"/>
<stop offset="1" stop-color="#101010"/>
</linearGradient>
<linearGradient id="paint4_linear" x1="378.248" y1="508.254" x2="573.289" y2="195.706" gradientUnits="userSpaceOnUse">
<stop stop-color="#E9024D"/>
<stop offset="1" stop-color="#101010"/>
</linearGradient>
<linearGradient id="paint5_linear" x1="28.0661" y1="296.93" x2="191.822" y2="435.956" gradientUnits="userSpaceOnUse">
<stop stop-color="#E9024D"/>
<stop offset="1" stop-color="#101010"/>
</linearGradient>
<linearGradient id="paint6_linear" x1="442.564" y1="331.597" x2="443.545" y2="29.2362" gradientUnits="userSpaceOnUse">
<stop stop-color="#E9024D"/>
<stop offset="1" stop-color="#101010"/>
</linearGradient>
<linearGradient id="paint7_linear" x1="303.894" y1="88.7677" x2="301.6" y2="13.6045" gradientUnits="userSpaceOnUse">
<stop stop-color="white"/>
<stop offset="0.165992" stop-color="#FEF8FB"/>
<stop offset="0.395308" stop-color="#FEE6F0"/>
<stop offset="0.661447" stop-color="#FDC9DE"/>
<stop offset="0.953336" stop-color="#FCA1C6"/>
<stop offset="1" stop-color="#FC9AC2"/>
</linearGradient>
<linearGradient id="paint8_linear" x1="101.113" y1="-27.9771" x2="120.584" y2="127.092" gradientUnits="userSpaceOnUse">
<stop stop-color="white"/>
<stop offset="1" stop-color="#FC9AC2"/>
</linearGradient>
<linearGradient id="paint9_linear" x1="248.484" y1="46.6773" x2="257.527" y2="28.8932" gradientUnits="userSpaceOnUse">
<stop stop-color="#E9024D"/>
<stop offset="0.227603" stop-color="#B8053F"/>
<stop offset="1" stop-color="#101010"/>
</linearGradient>
<linearGradient id="paint10_linear" x1="312.921" y1="63.0517" x2="310.725" y2="7.02899" gradientUnits="userSpaceOnUse">
<stop stop-color="#E9024D"/>
<stop offset="0.136603" stop-color="#D10346"/>
<stop offset="0.42373" stop-color="#960735"/>
<stop offset="0.834249" stop-color="#380D1B"/>
<stop offset="1" stop-color="#101010"/>
</linearGradient>
<linearGradient id="paint11_linear" x1="293.54" y1="20.7194" x2="283.44" y2="3.02363" gradientUnits="userSpaceOnUse">
<stop stop-color="#E9024D"/>
<stop offset="1" stop-color="#101010"/>
</linearGradient>
<linearGradient id="paint12_linear" x1="172.722" y1="98.6047" x2="168.978" y2="88.7672" gradientUnits="userSpaceOnUse">
<stop stop-color="#E9024D"/>
<stop offset="1" stop-color="#101010"/>
</linearGradient>
<linearGradient id="paint13_linear" x1="175.219" y1="120.841" x2="173.554" y2="93.3253" gradientUnits="userSpaceOnUse">
<stop stop-color="#E9024D"/>
<stop offset="1" stop-color="#101010"/>
</linearGradient>
<linearGradient id="paint14_linear" x1="165.258" y1="112.63" x2="160.534" y2="97.2315" gradientUnits="userSpaceOnUse">
<stop stop-color="#E9024D"/>
<stop offset="1" stop-color="#101010"/>
</linearGradient>
<linearGradient id="paint15_linear" x1="172.857" y1="353.82" x2="206.533" y2="534.909" gradientUnits="userSpaceOnUse">
<stop stop-color="#E9024D"/>
<stop offset="1" stop-color="#101010"/>
</linearGradient>
<linearGradient id="paint16_linear" x1="128.107" y1="461.421" x2="258.645" y2="461.421" gradientUnits="userSpaceOnUse">
<stop stop-color="#E9024D"/>
<stop offset="1" stop-color="#FC9AC2"/>
</linearGradient>
<linearGradient id="paint17_linear" x1="428.36" y1="322.818" x2="358.999" y2="252.215" gradientUnits="userSpaceOnUse">
<stop stop-color="#E9024D"/>
<stop offset="1" stop-color="#101010"/>
</linearGradient>
<linearGradient id="paint18_linear" x1="34.2525" y1="330.045" x2="115.347" y2="249.856" gradientUnits="userSpaceOnUse">
<stop stop-color="#E9024D"/>
<stop offset="1" stop-color="#101010"/>
</linearGradient>
<linearGradient id="paint19_linear" x1="185.93" y1="527.962" x2="203.657" y2="423.693" gradientUnits="userSpaceOnUse">
<stop stop-color="#E9024D"/>
<stop offset="1" stop-color="#101010"/>
</linearGradient>
<linearGradient id="paint20_linear" x1="235.665" y1="503.48" x2="209.094" y2="427.834" gradientUnits="userSpaceOnUse">
<stop stop-color="#E9024D"/>
<stop offset="1" stop-color="#101010"/>
</linearGradient>
<linearGradient id="paint21_linear" x1="223.085" y1="475.443" x2="204.03" y2="456.714" gradientUnits="userSpaceOnUse">
<stop stop-color="#E9024D"/>
<stop offset="1" stop-color="#101010"/>
</linearGradient>
<linearGradient id="paint22_linear" x1="213.445" y1="481.497" x2="209.506" y2="453.379" gradientUnits="userSpaceOnUse">
<stop stop-color="#E9024D"/>
<stop offset="1" stop-color="#101010"/>
</linearGradient>
<linearGradient id="paint23_linear" x1="31.084" y1="441.933" x2="84.8651" y2="441.933" gradientUnits="userSpaceOnUse">
<stop stop-color="#E9024D"/>
<stop offset="1" stop-color="#101010"/>
</linearGradient>
<linearGradient id="paint24_linear" x1="69.3648" y1="296.742" x2="16.1473" y2="409.757" gradientUnits="userSpaceOnUse">
<stop stop-color="#E9024D"/>
<stop offset="1" stop-color="#101010"/>
</linearGradient>
<linearGradient id="paint25_linear" x1="68.893" y1="333.921" x2="51.9148" y2="378.643" gradientUnits="userSpaceOnUse">
<stop stop-color="#E9024D"/>
<stop offset="1" stop-color="#101010"/>
</linearGradient>
<linearGradient id="paint26_linear" x1="108.635" y1="509.505" x2="181.896" y2="505.872" gradientUnits="userSpaceOnUse">
<stop stop-color="#E9024D"/>
<stop offset="0.0117183" stop-color="#E5024B"/>
<stop offset="0.217405" stop-color="#A50639"/>
<stop offset="0.413666" stop-color="#6F092A"/>
<stop offset="0.595298" stop-color="#460C1F"/>
<stop offset="0.759135" stop-color="#280E16"/>
<stop offset="0.899486" stop-color="#160F11"/>
<stop offset="1" stop-color="#101010"/>
</linearGradient>
<linearGradient id="paint27_linear" x1="102.455" y1="419.39" x2="109.727" y2="499.446" gradientUnits="userSpaceOnUse">
<stop stop-color="#E9024D"/>
<stop offset="1" stop-color="#101010"/>
</linearGradient>
<linearGradient id="paint28_linear" x1="161.117" y1="409.449" x2="175.42" y2="429.785" gradientUnits="userSpaceOnUse">
<stop stop-color="#E9024D"/>
<stop offset="1" stop-color="#101010"/>
</linearGradient>
<linearGradient id="paint29_linear" x1="221.434" y1="443.794" x2="218.093" y2="401.472" gradientUnits="userSpaceOnUse">
<stop stop-color="#E9024D"/>
<stop offset="0.0455207" stop-color="#EA044E"/>
<stop offset="1" stop-color="#FA246B"/>
</linearGradient>
<linearGradient id="paint30_linear" x1="223.708" y1="461.203" x2="212.24" y2="456.292" gradientUnits="userSpaceOnUse">
<stop stop-color="#E9024D"/>
<stop offset="1" stop-color="#101010"/>
</linearGradient>
<linearGradient id="paint31_linear" x1="396.813" y1="431.063" x2="404.641" y2="418.437" gradientUnits="userSpaceOnUse">
<stop stop-color="#E9024D"/>
<stop offset="1" stop-color="#101010"/>
</linearGradient>
<linearGradient id="paint32_linear" x1="402.732" y1="387.713" x2="384.798" y2="406.152" gradientUnits="userSpaceOnUse">
<stop stop-color="#E9024D"/>
<stop offset="1" stop-color="#101010"/>
</linearGradient>
<linearGradient id="paint33_linear" x1="380.519" y1="401.777" x2="390.648" y2="412.399" gradientUnits="userSpaceOnUse">
<stop stop-color="#E9024D"/>
<stop offset="1" stop-color="#101010"/>
</linearGradient>
<linearGradient id="paint34_linear" x1="264.775" y1="464.302" x2="368.315" y2="464.302" gradientUnits="userSpaceOnUse">
<stop stop-color="#E9024D"/>
<stop offset="0.0455207" stop-color="#EA044E"/>
<stop offset="1" stop-color="#FA246B"/>
</linearGradient>
<linearGradient id="paint35_linear" x1="290.691" y1="334.897" x2="237.712" y2="396.063" gradientUnits="userSpaceOnUse">
<stop stop-color="#E9024D"/>
<stop offset="1" stop-color="#101010"/>
</linearGradient>
<linearGradient id="paint36_linear" x1="308.558" y1="446.681" x2="340.773" y2="446.681" gradientUnits="userSpaceOnUse">
<stop stop-color="#E9024D"/>
<stop offset="1" stop-color="#FC9AC2"/>
</linearGradient>
<linearGradient id="paint37_linear" x1="319.079" y1="452.797" x2="351.294" y2="452.797" gradientUnits="userSpaceOnUse">
<stop stop-color="#E9024D"/>
<stop offset="1" stop-color="#FC9AC2"/>
</linearGradient>
<linearGradient id="paint38_linear" x1="308.558" y1="419.954" x2="340.773" y2="419.954" gradientUnits="userSpaceOnUse">
<stop stop-color="#E9024D"/>
<stop offset="1" stop-color="#FC9AC2"/>
</linearGradient>
<linearGradient id="paint39_linear" x1="326.712" y1="482.686" x2="335.874" y2="487.472" gradientUnits="userSpaceOnUse">
<stop stop-color="#E9024D"/>
<stop offset="1" stop-color="#101010"/>
</linearGradient>
<linearGradient id="paint40_linear" x1="337.812" y1="472.98" x2="351.977" y2="479.365" gradientUnits="userSpaceOnUse">
<stop stop-color="#E9024D"/>
<stop offset="1" stop-color="#101010"/>
</linearGradient>
<linearGradient id="paint41_linear" x1="351.493" y1="465.024" x2="362.426" y2="469.286" gradientUnits="userSpaceOnUse">
<stop stop-color="#E9024D"/>
<stop offset="1" stop-color="#101010"/>
</linearGradient>
<linearGradient id="paint42_linear" x1="88.4061" y1="386.599" x2="117.503" y2="386.599" gradientUnits="userSpaceOnUse">
<stop stop-color="#E9024D"/>
<stop offset="1" stop-color="#101010"/>
</linearGradient>
<linearGradient id="paint43_linear" x1="114.443" y1="376.107" x2="114.552" y2="363.969" gradientUnits="userSpaceOnUse">
<stop stop-color="#E9024D"/>
<stop offset="1" stop-color="#101010"/>
</linearGradient>
<linearGradient id="paint44_linear" x1="58.0719" y1="368.721" x2="52.9573" y2="385.725" gradientUnits="userSpaceOnUse">
<stop stop-color="#E9024D"/>
<stop offset="1" stop-color="#101010"/>
</linearGradient>
<linearGradient id="paint45_linear" x1="86.152" y1="417.159" x2="121.917" y2="383.806" gradientUnits="userSpaceOnUse">
<stop stop-color="#E9024D"/>
<stop offset="1" stop-color="#101010"/>
</linearGradient>
<linearGradient id="paint46_linear" x1="245.692" y1="25.909" x2="271.601" y2="25.909" gradientUnits="userSpaceOnUse">
<stop stop-color="#E9024D"/>
<stop offset="0.0455207" stop-color="#EA044E"/>
<stop offset="1" stop-color="#FA246B"/>
</linearGradient>
<linearGradient id="paint47_linear" x1="403.063" y1="219.813" x2="457.038" y2="219.813" gradientUnits="userSpaceOnUse">
<stop stop-color="#E9024D"/>
<stop offset="1" stop-color="#FC9AC2"/>
</linearGradient>
<linearGradient id="paint48_linear" x1="300.822" y1="321.138" x2="296.683" y2="308.975" gradientUnits="userSpaceOnUse">
<stop stop-color="#E9024D"/>
<stop offset="1" stop-color="#101010"/>
</linearGradient>
<linearGradient id="paint49_linear" x1="443.478" y1="298.858" x2="411.644" y2="316.189" gradientUnits="userSpaceOnUse">
<stop stop-color="#E9024D"/>
<stop offset="1" stop-color="#101010"/>
</linearGradient>
<linearGradient id="paint50_linear" x1="43.5035" y1="235.131" x2="96.6043" y2="235.131" gradientUnits="userSpaceOnUse">
<stop stop-color="#E9024D"/>
<stop offset="1" stop-color="#101010"/>
</linearGradient>
<linearGradient id="paint51_linear" x1="35.1022" y1="222.981" x2="39.1481" y2="249.108" gradientUnits="userSpaceOnUse">
<stop stop-color="#E9024D"/>
<stop offset="1" stop-color="#101010"/>
</linearGradient>
<linearGradient id="paint52_linear" x1="39.7113" y1="249.542" x2="58.4321" y2="236.582" gradientUnits="userSpaceOnUse">
<stop stop-color="#E9024D"/>
<stop offset="1" stop-color="#101010"/>
</linearGradient>
<linearGradient id="paint53_linear" x1="60.3824" y1="309.997" x2="16.4882" y2="273.871" gradientUnits="userSpaceOnUse">
<stop stop-color="#E9024D"/>
<stop offset="1" stop-color="#101010"/>
</linearGradient>
<linearGradient id="paint54_linear" x1="23.8423" y1="306.968" x2="19.3618" y2="288.271" gradientUnits="userSpaceOnUse">
<stop stop-color="#E9024D"/>
<stop offset="1" stop-color="#101010"/>
</linearGradient>
<linearGradient id="paint55_linear" x1="-6.3984" y1="291.322" x2="-5.25837" y2="305.324" gradientUnits="userSpaceOnUse">
<stop stop-color="#E9024D"/>
<stop offset="0.0743305" stop-color="#D90348"/>
<stop offset="1" stop-color="#101010"/>
</linearGradient>
<linearGradient id="paint56_linear" x1="344.088" y1="365.847" x2="353.414" y2="358.303" gradientUnits="userSpaceOnUse">
<stop stop-color="#E9024D"/>
<stop offset="1" stop-color="#101010"/>
</linearGradient>
</defs>
</svg>
