<svg width="657" height="471" viewBox="0 0 657 471" fill="none" xmlns="http://www.w3.org/2000/svg">
<path d="M177.945 127.555L180.371 136.565C183.244 137.246 186.083 138.228 188.795 139.387C193.957 141.593 202.674 147.111 198.794 153.981C197.065 157.043 193.421 158.101 190.381 159.347C189.339 159.773 187.936 160.235 187.271 161.217C185.192 164.288 186.701 178.468 186.701 178.468C186.701 178.468 158.308 186.734 160.324 182.813C162.341 178.893 174.896 139.007 174.896 139.007L177.945 127.555Z" fill="url(#paint0_linear_8739_44892)"/>
<path d="M243.622 88.992C243.597 100.344 243.856 114.152 242.831 122.311C241.759 130.814 242.052 136.398 242.406 139.337C235.511 143.632 209.689 162.036 199.85 168.142C189.899 174.318 177.544 171.472 175.32 172.569C180.207 172.101 182.931 174.512 186.701 178.469C192.968 185.046 197.248 203.74 197.248 203.741C197.249 203.74 257.281 166.464 265.725 156.433C266.083 156.006 266.228 155.489 266.195 154.904C268.992 148.733 267.674 135.857 266.353 123.245C265.105 111.332 261.774 94.9888 260.258 87.8766C254.654 89.5792 248.498 89.5172 243.622 88.992H243.622Z" fill="url(#paint1_linear_8739_44892)"/>
<path d="M193.815 177.394C203.468 173.081 211.946 166.578 220.272 160.159C226.955 155.008 234.538 150.192 241.994 146.17" stroke="#E9024D" stroke-linecap="round" stroke-linejoin="round"/>
<path d="M196.066 180.544C205.719 176.231 214.197 169.728 222.523 163.309C229.206 158.157 236.789 153.341 244.245 149.319" stroke="#E9024D" stroke-linecap="round" stroke-linejoin="round"/>
<path d="M277.696 56.8242C277.65 56.8545 277.595 56.8796 277.539 56.9099C277.06 57.1672 276.264 57.4598 275.674 57.6666C275.231 57.813 274.903 57.9138 274.903 57.9138C275.251 56.6627 272.992 57.031 272.992 57.031C272.992 57.031 273.264 56.4256 272.826 56.0422C272.791 56.0119 272.73 55.9867 272.644 55.9615C272.206 55.8354 271.152 55.7748 269.892 55.6638C268.4 55.5276 266.61 55.3107 265.219 54.8062C262.426 53.7973 259.215 55.0585 259.215 55.0585C259.215 55.0585 264.568 49.6755 265.934 48.4143C267.301 47.1531 265.934 45.009 265.934 45.009L263.363 46.8252L253.246 53.9637C253.246 53.9637 246.107 64.3056 244.424 72.3774C243.77 75.5194 243.639 81.7573 243.622 88.9922C248.498 89.5174 254.654 89.5794 260.258 87.8768C259.784 85.6519 259.487 84.3288 259.487 84.3288C263.298 83.4611 268.077 64.7244 268.077 64.7244C268.929 63.1404 275.115 60.4918 276.879 59.2003C278.643 57.9037 278.442 56.36 277.696 56.8242L277.696 56.8242Z" fill="url(#paint2_linear_8739_44892)"/>
<path opacity="0.46" d="M197.248 203.741C197.248 203.741 210.7 174.655 193.993 160.378C193.993 160.378 184.036 164.839 174.528 173.121C174.528 173.121 188.593 167.076 197.248 203.741Z" fill="url(#paint3_linear_8739_44892)"/>
<path d="M309.301 249.149C306.714 240.179 307.123 230.645 311.418 222.845L311.685 221.888C281.092 240.975 239.82 266.376 239.82 266.376L263.588 324.14L327.112 277.704L327.111 277.703C318.632 270.176 312.416 259.945 309.301 249.149V249.149Z" fill="url(#paint4_linear_8739_44892)"/>
<path d="M425.316 226.841L425.317 226.84L384.165 203.959C384.165 203.959 380.888 201.773 376.248 199.018C366.087 192.986 353.163 193.762 343.993 201.217C343.759 201.408 343.542 201.624 343.291 201.802C340.178 204.02 327.327 212.128 311.685 221.888L311.418 222.845C307.123 230.645 306.714 240.179 309.3 249.149C312.416 259.945 318.632 270.176 327.111 277.703L327.111 277.704L363.918 250.797C363.918 250.797 381.401 263.945 402.691 275.142V275.14C418.163 260.046 423.491 238.812 425.316 226.841V226.841Z" fill="url(#paint5_linear_8739_44892)"/>
<path d="M546.168 300.359C541.757 309.042 534.659 316.584 525.726 320.635C516.49 324.827 505.969 326.946 495.67 327.44C471.246 313.002 426.586 286.864 409.395 278.53C407.132 277.436 404.889 276.301 402.691 275.14C410.429 267.593 415.626 258.512 419.12 249.82C422.613 241.128 424.403 232.824 425.315 226.841L527.248 283.52L529.244 284.63C529.416 284.483 529.592 284.337 529.769 284.191C530.908 283.252 532.093 282.354 533.308 281.502C534.321 280.79 535.359 280.109 536.413 279.459C541.409 276.361 546.702 273.939 551.284 272.133C553.059 281.466 550.347 292.131 546.168 300.359Z" fill="url(#paint6_linear_8739_44892)"/>
<path d="M311.418 222.845C307.123 230.645 306.714 240.179 309.3 249.149C312.416 259.945 318.632 270.176 327.111 277.703" stroke="#101010" stroke-linecap="round"/>
<path d="M565.645 270.316C564.495 268.904 562.613 268.316 560.867 268.831C558.606 269.497 555.202 270.589 551.284 272.132C553.058 281.469 550.346 292.13 546.167 300.359C541.756 309.043 534.662 316.582 525.726 320.636C516.491 324.827 505.968 326.948 495.67 327.442C505.629 333.329 512.226 337.272 512.226 337.272C512.226 337.272 526.133 350.592 531.318 338.948C536.503 327.303 563.587 288.035 565.061 280.734C566.512 277.004 566.512 274.338 566.512 274.338C566.512 274.338 566.562 271.441 565.645 270.316Z" fill="url(#paint7_linear_8739_44892)"/>
<path d="M290.287 289.241C290.287 289.241 288.326 275.646 293.809 265.903L260.961 288.638C260.432 288.037 259.24 286.75 257.781 285.173C251.843 278.756 248.073 270.631 247.003 261.951V261.951C237.677 261.068 224.587 253.74 222.806 253.071C221.073 247.518 216.733 237.941 213.921 232.387L213.911 232.367C212.828 230.233 212.733 227.709 213.736 225.536C214.32 224.268 214.863 222.754 215.212 221.012C215.212 221.012 215.267 220.826 215.338 220.483C216.33 215.728 213.943 210.909 209.6 208.739C209.095 208.487 208.558 208.225 207.992 207.957C201.121 204.703 195.82 198.855 193.327 191.668C191.341 185.942 189.114 180.248 187.58 178.572C183.506 174.118 180.207 172.101 175.32 172.569C172.055 174.179 168.411 175.932 167.677 176.285C167.568 179.458 168.079 183.354 167.8 184.747C167.319 187.157 166.375 189.502 160.22 193.073C156.525 195.217 146.645 193.434 139.338 191.667C139.377 193.463 139.241 194.641 138.87 194.948C136.194 197.167 123.168 212.33 123.168 212.33C123.168 212.33 121.262 212.836 120.498 216.112C119.733 219.387 121.543 223.105 127.463 236.651C132.681 248.588 172.252 291.979 172.252 291.979L211.188 359.287C214.313 364.69 219.307 368.813 225.266 370.657C232.942 373.032 244.111 372.987 257.444 362.613C274.296 349.5 300.964 331.156 317.405 320.027C309.367 317.987 295.413 311.284 290.287 289.241H290.287Z" fill="url(#paint8_linear_8739_44892)"/>
<path d="M180.37 136.566C183.588 137.328 186.766 138.428 189.803 139.725C195.582 142.194 205.342 148.373 200.998 156.065C199.062 159.494 194.983 160.678 191.578 162.073" stroke="#E9024D" stroke-linecap="round" stroke-linejoin="round"/>
<path d="M261.203 288.912C261.203 288.912 260.134 287.943 254.508 280.982" stroke="#101010" stroke-linecap="round"/>
<path d="M160.22 193.073C166.376 189.502 167.319 187.157 167.801 184.747C168.079 183.354 167.568 179.458 167.677 176.285L167.542 176.35L165.273 169.043L150.659 154.701L132.051 145.221C132.051 145.221 139.099 180.484 139.339 191.667C146.645 193.434 156.525 195.217 160.22 193.073H160.22Z" fill="url(#paint9_linear_8739_44892)"/>
<ellipse rx="5.33679" ry="2.37017" transform="matrix(0.865867 -0.500274 0.499726 0.866183 444.649 90.88)" stroke="#E9024D" stroke-linecap="round" stroke-linejoin="round"/>
<ellipse rx="5.33679" ry="2.37017" transform="matrix(0.865867 -0.500274 0.499726 0.866183 416.816 107.437)" stroke="#E9024D" stroke-linecap="round" stroke-linejoin="round"/>
<path d="M410.43 67.6462L347.018 104.069V77.7741L410.43 41.3512V67.6462Z" fill="#282526"/>
<path d="M353.152 78.8457V95.912L358.193 93.0001V75.9338L353.152 78.8457Z" fill="url(#paint10_linear_8739_44892)"/>
<path d="M362.562 81.3749V90.4768L366.931 87.9533V78.8513L362.562 81.3749Z" fill="url(#paint11_linear_8739_44892)"/>
<path d="M375.837 70.6952L371.3 73.316V85.4292L375.837 82.809V70.6952Z" fill="url(#paint12_linear_8739_44892)"/>
<path d="M380.626 70.8174V80.6094L385.667 77.6976V67.9054L380.626 70.8174Z" fill="url(#paint13_linear_8739_44892)"/>
<path d="M390.036 66.0722V75.1742L394.405 72.6501V63.5487L390.036 66.0722Z" fill="url(#paint14_linear_8739_44892)"/>
<path d="M403.312 55.3926L398.775 58.0134V70.1266L403.312 67.5058V55.3926Z" fill="url(#paint15_linear_8739_44892)"/>
<path d="M326.344 125.601L350.775 111.475V101.552" stroke="#E9024D" stroke-linecap="round" stroke-linejoin="round"/>
<path d="M347.018 159.401L358.193 153.135" stroke="#E9024D" stroke-linecap="round" stroke-linejoin="round"/>
<path d="M442.796 94.0703V112.736L412.045 130.393V148.05L380.285 167.054L358.193 153.135V124.255L387.679 104.749" stroke="#E9024D" stroke-linecap="round" stroke-linejoin="round"/>
<path d="M412.044 110.466L399.693 119.799L412.044 130.393" stroke="#E9024D" stroke-linecap="round" stroke-linejoin="round"/>
<path d="M350.775 111.475L369.523 116.759" stroke="#E9024D" stroke-linecap="round" stroke-linejoin="round"/>
<path d="M89.9136 94.6582C89.9136 94.6582 94.3665 95.5834 94.4507 103.066C94.5349 110.55 97.7275 127.198 115.96 119.883" stroke="#E9024D" stroke-linecap="round" stroke-linejoin="round"/>
<path opacity="0.46" d="M122.355 242.071C121.819 242.47 102.239 237.637 104.561 229.387C108.592 224.283 129.048 224.944 129.048 224.944L122.355 242.071Z" fill="url(#paint16_linear_8739_44892)"/>
<path d="M140.287 179.959C140.287 179.959 149.63 184.12 159.116 178.969C159.907 181.409 163.111 191.836 163.111 191.836C163.111 191.836 154.454 198.49 145.98 194.257L140.287 179.959Z" fill="url(#paint17_linear_8739_44892)"/>
<path d="M169.274 179.518C169.274 179.518 168.336 196.071 156.353 197.701L152.689 185.898C152.689 185.898 164.931 183.512 166.888 174.219" fill="url(#paint18_linear_8739_44892)"/>
<path d="M181.915 154.624C179.782 163.916 178.89 167.276 176.924 168.593C174.958 169.905 171.374 172.256 167.578 171.938C163.787 171.62 148.865 170.692 141.777 159.719L136.327 143.53L150.221 116.58C150.221 116.58 158.428 107.737 173.814 115.496C173.814 115.496 176.218 116.071 176.642 118.755C177.065 121.444 178.255 125.212 179.55 130.973C180.221 133.95 181.396 137.688 182.086 141.885C182.288 143.111 182.444 144.378 182.54 145.679C182.742 148.53 182.621 151.541 181.915 154.624H181.915Z" fill="url(#paint19_linear_8739_44892)"/>
<path d="M175.665 117.074C175.823 115.242 172.985 112.691 168.491 109.268C163.997 105.844 142.884 98.8011 139.889 98.7934C133.691 98.7778 126.989 100.775 122.957 102.028C118.925 103.282 112.11 108.108 107.816 115.32C106.306 117.855 105.183 120.893 104.522 124.339C103.514 124.177 102.373 123.889 101.071 123.429C91.3253 119.982 86.1163 113.928 83.2595 99.3817C83.2595 99.3817 54.4406 96.5232 41.2498 118.048C29.2327 137.657 27.8065 158.451 27.8065 158.451C27.8065 158.451 38.645 157.902 41.3335 173.037C44.0225 188.171 59.2297 219.029 81.243 210.033C103.256 201.036 98.8241 194.897 100.567 190.862C105.849 192.183 110.986 210.234 121.588 210.205C124.471 209.85 130.652 204.054 136.022 204.918L140.364 205.133C145.657 205.984 149.986 200.949 148.356 195.837C144.989 185.284 140.346 170.547 139.522 167.007C138.203 161.342 136.838 159.212 133.343 157.306C129.847 155.399 126.5 146.315 128.259 146.031C130.019 145.748 132.508 150.082 134.365 151.529C136.222 152.977 141.185 149.409 143.643 142.305C146.101 135.202 156.384 120.999 157.665 119.457C158.946 117.914 160.531 117.069 157.96 114.17C167.203 119.573 175.665 117.074 175.665 117.074V117.074Z" fill="url(#paint20_linear_8739_44892)"/>
<path d="M135.498 104.87C135.498 104.87 154.025 109.852 158.564 113.987" stroke="#101010" stroke-linecap="round"/>
<path d="M167.426 159.923C167.426 159.923 170.059 155.328 174.807 155.856C176.215 154.581 176.421 152.74 178.553 153.083L179.38 152.401C179.38 152.401 179.189 160.272 174.956 161.763C170.722 163.253 167.426 159.923 167.426 159.923Z" fill="#FA246B"/>
<path d="M172.73 138.137C173.692 139.129 174.981 140.027 176.407 140.095C178.057 140.173 179.401 139.051 180.043 137.596C180.778 135.93 180.503 134.063 179.89 132.403C179.728 131.966 179.53 131.52 179.173 131.221C178.577 130.722 177.667 130.765 176.978 131.124C176.289 131.483 175.774 132.098 175.293 132.708C174.117 134.2 172.988 135.853 172.796 137.744" fill="white"/>
<path d="M134.281 207.632C145.113 212.894 150.69 235.126 144.03 245.164C127.067 270.734 82.3918 317.673 81.9739 315.792C81.1512 312.088 72.7021 293.63 77.5629 278.207C82.4236 262.785 97.641 253.761 109.449 233.08C116.608 220.541 119.882 215.094 122.668 212.046C122.668 212.046 127.422 204.299 134.281 207.632V207.632Z" fill="url(#paint21_linear_8739_44892)"/>
<path opacity="0.46" d="M104.561 229.387C104.561 229.387 112.656 214.192 126.253 208.13C134.78 204.33 141.232 209.472 145.307 216.271C145.5 216.594 145.688 216.92 145.869 217.248C150.872 226.303 149.977 237.485 143.969 245.906L140.479 250.797C137.521 243.455 119.032 216.476 104.561 229.387H104.561Z" fill="url(#paint22_linear_8739_44892)"/>
<path d="M164.615 199.865C165.95 202.898 168.132 205.608 170.198 208.183C176.734 216.327 186.632 224.447 188.228 235.336" stroke="#E9024D" stroke-linecap="round" stroke-linejoin="round"/>
<path d="M152.192 146.036C152.775 144.09 154.184 142.407 155.996 141.493" stroke="#101010" stroke-linecap="round"/>
<path d="M158.21 149.888C159.695 149.852 161.18 149.298 162.262 148.267C163.484 147.104 164.013 145.348 164.489 143.778C164.489 143.778 162.153 141.515 160.562 141.572C158.971 141.629 157.483 142.432 156.292 143.488C155.485 144.203 154.885 145.576 154.227 146.427C153.811 146.964 152.708 148.434 152.707 148.435C152.704 148.442 154.852 149.266 155.063 149.334C155.884 149.601 156.73 149.81 157.593 149.873C157.8 149.887 158.006 149.892 158.21 149.888L158.21 149.888Z" fill="white"/>
<path d="M168.795 149.585C168.71 150.367 169.325 151.11 170.075 151.345C170.824 151.58 171.653 151.387 172.344 151.013" stroke="#101010" stroke-linecap="round"/>
<path d="M173.232 151.166C174.242 151.166 175.361 150.582 175.997 149.796C177.034 148.512 176.541 147.039 175.285 146.17" stroke="#101010" stroke-linecap="round"/>
<path d="M173.678 144.634C171.203 141.371 169.61 137.445 169.11 133.38" stroke="#101010" stroke-linecap="round"/>
<path d="M167.801 159.6C171.623 157.246 171.291 155.93 174.044 155.664" stroke="#101010" stroke-linecap="round"/>
<path d="M179.333 151.861C179.53 152.79 179.075 153.738 178.5 154.494C177.925 155.25 177.214 155.912 176.765 156.75C176.543 157.166 175.09 158.428 174.62 158.471C171.309 158.773 171.648 160.668 165.972 159.6" stroke="#101010" stroke-linecap="round"/>
<path d="M175.413 155.73C175.365 155.062 175.904 154.555 176.305 154.019C176.994 153.095 177.976 153.423 178.552 153.084" stroke="#101010" stroke-linecap="round"/>
<path d="M169.11 161.217C171.388 162.683 174.253 162.547 176.374 160.867C177.935 159.63 178.881 157.635 178.831 155.64" stroke="#101010" stroke-linecap="round"/>
<g style="mix-blend-mode:multiply" opacity="0.17">
<path d="M156.62 159.028C157.547 158.83 158.458 158.417 159.216 158.013C160.577 157.285 163.176 156.246 163.625 154.647C164.271 152.344 160.909 152.72 159.605 153.012C158.209 153.324 156.862 153.915 155.683 154.726C154.853 155.298 153.121 156.562 153.159 157.723C153.171 158.09 153.408 158.423 153.714 158.627C154.584 159.205 155.612 159.243 156.62 159.028L156.62 159.028Z" fill="#E9024D"/>
</g>
<g style="mix-blend-mode:multiply" opacity="0.17">
<path d="M182.54 145.679C182.494 145.699 182.444 145.725 182.399 145.745C181.421 146.204 177.544 148.272 177.287 146.103C177.201 145.387 177.851 144.539 178.295 144.045C179.283 142.945 180.826 142.103 182.086 141.885C182.288 143.111 182.444 144.378 182.54 145.679Z" fill="#E9024D"/>
</g>
<path d="M157.168 149.311C158.603 150.061 160.981 149.255 161.908 148.117C162.961 146.824 163.221 144.817 162.524 143.34C161.673 141.538 159.926 141.7 158.407 142.117C157.341 142.411 155.69 143.701 155.266 144.808C154.67 146.362 155.552 148.467 157.168 149.311L157.168 149.311Z" fill="url(#paint23_linear_8739_44892)"/>
<path d="M175.774 138.932C177.026 139.739 179.004 139.057 179.736 137.98C180.567 136.756 179.858 133.665 179.197 132.176C178.391 130.361 177.752 131.563 176.484 131.902C175.595 132.141 174.256 133.334 173.949 134.405C173.518 135.908 174.365 138.024 175.774 138.932V138.932Z" fill="url(#paint24_linear_8739_44892)"/>
<path d="M171.892 134.066C172.463 132.611 173.572 131.375 174.956 130.65" stroke="#101010" stroke-linecap="round"/>
<path d="M118.295 141.241L143.344 148.487C143.926 148.656 144.463 148.109 144.283 147.529L144.019 146.68C143.782 145.915 144.138 145.091 144.86 144.743C148.394 143.037 158.536 138.073 164.044 134.66C170.789 130.481 177.782 124.312 179.428 123.239C181.075 122.166 182.178 122.318 182.178 122.318L185.791 133.956C186.15 135.112 185.684 136.365 184.658 137.006L175.986 142.429C175.375 142.81 174.624 142.892 173.945 142.65L173.178 142.376C172.192 142.025 171.097 142.186 170.255 142.808V142.808C169.768 143.168 169.394 143.662 169.18 144.23L167.417 148.907C167.204 149.474 166.774 149.932 166.222 150.181L152.464 156.396C151.906 156.649 151.293 156.756 150.682 156.709L148.996 156.579C147.664 156.476 146.495 155.654 145.947 154.434L145.767 154.034L118.348 143.126C117.372 142.738 116.258 143.029 115.596 143.845L115.501 143.962C115.051 144.518 114.156 144.284 114.035 143.578V143.578C113.976 143.234 114.138 142.889 114.441 142.715L116.661 141.438C117.156 141.154 117.746 141.083 118.295 141.241L118.295 141.241Z" stroke="#E9024D" stroke-linecap="round" stroke-linejoin="round"/>
<path opacity="0.46" d="M118.295 141.241L143.344 148.487C143.926 148.656 144.463 148.109 144.283 147.529L144.019 146.68C143.782 145.915 144.138 145.091 144.86 144.743C148.394 143.037 158.536 138.073 164.044 134.66C170.789 130.481 177.782 124.312 179.428 123.239C181.075 122.166 182.178 122.318 182.178 122.318L185.791 133.956C186.15 135.112 185.684 136.365 184.658 137.006L175.986 142.429C175.375 142.81 174.624 142.892 173.945 142.65L173.178 142.376C172.192 142.025 171.097 142.186 170.255 142.808V142.808C169.768 143.168 169.394 143.662 169.18 144.23L167.417 148.907C167.204 149.474 166.774 149.932 166.222 150.181L152.464 156.396C151.906 156.649 151.293 156.756 150.682 156.709L148.996 156.579C147.664 156.476 146.495 155.654 145.947 154.434L145.767 154.034L118.348 143.126C117.372 142.738 116.258 143.029 115.596 143.845L115.501 143.962C115.051 144.518 114.156 144.284 114.035 143.578V143.578C113.976 143.234 114.138 142.889 114.441 142.715L116.661 141.438C117.156 141.154 117.746 141.083 118.295 141.241L118.295 141.241Z" fill="url(#paint25_linear_8739_44892)"/>
<path d="M164.516 144.099C162.995 141.841 159.825 142.01 157.765 143.353C156.15 144.406 154.97 146.078 154.062 147.749C153.636 148.533 153.087 149.444 152.197 149.493C151.812 149.515 151.102 149.44 150.772 149.239C151.382 149.201 151.836 148.68 152.2 148.189C154.032 145.717 155.638 142.74 158.671 141.565C160.902 140.7 163.992 141.443 164.516 144.099L164.516 144.099Z" fill="#282526"/>
<path d="M172.379 139.404C172.037 136.316 173.508 133.106 176.004 131.28C176.898 130.626 178.008 130.126 179.093 130.349C179.577 130.449 180.042 130.689 180.536 130.667C181.412 130.627 182.03 129.805 182.832 129.449C182.562 130.331 182.035 131.132 181.333 131.73C181.247 131.804 181.153 131.877 181.041 131.9C180.9 131.928 180.756 131.872 180.621 131.824C178.625 131.113 176.637 132.031 175.309 133.555C173.822 135.262 173.158 137.712 172.516 139.841" fill="#282526"/>
<path d="M137.718 158.946C137.45 159.087 137.216 159.29 137.045 159.539C136.309 160.601 135.24 161.387 134.006 161.77L133.878 161.81C132.972 162.092 132.011 162.15 131.079 161.968C127.216 161.215 123.504 159.28 120.853 156.343C118.364 153.584 116.247 148.982 117.554 145.241C118.9 141.389 123.12 141.563 126.318 142.79C129.716 144.092 132.962 146.823 133.997 150.42" fill="url(#paint26_linear_8739_44892)"/>
<path d="M122.963 147.858C124.808 146.019 127.467 147.761 129.097 149.006C130.936 150.411 132.424 152.284 133.336 154.415" stroke="#101010" stroke-linecap="round"/>
<circle cx="157.125" cy="147.08" r="0.479775" fill="white"/>
<circle cx="174.931" cy="136.675" r="0.479775" fill="white"/>
<path d="M104.34 124.364C104.34 124.364 97.9489 166.167 65.6009 175.416" stroke="#101010" stroke-linecap="round"/>
<path d="M83.3603 198.373C83.3603 198.373 94.2201 185.13 101.172 190.679" stroke="#101010" stroke-linecap="round"/>
<path d="M65.6008 224.916C66.5758 224.55 67.4943 224.124 68.3518 223.666C67.7983 218.751 67.8442 214.793 68.0776 210.494C68.6563 199.844 53.2806 200.601 53.2806 200.601L43.1145 193.118L42.1708 182.104C41.9873 179.958 40.3035 178.245 38.1615 178.027L37.737 177.983L37.3171 180.505L36.4066 178.944C35.8909 178.059 34.8882 177.577 33.8759 177.728C32.5909 177.92 31.6659 179.064 31.747 180.362L31.9396 183.448L31.7727 182.897C31.4758 181.915 30.4736 181.327 29.4724 181.547C28.5146 181.757 27.8587 182.642 27.9353 183.62L28.4108 189.67L28.192 189.637C27.1141 189.471 26.1422 190.305 26.1422 191.396L26.8787 204.127C26.9508 205.369 27.5966 206.507 28.6265 207.205L48.4078 220.612C48.4078 220.612 48.6129 222.93 48.9628 226.721C54.0398 227.129 60.1785 226.952 65.6008 224.916V224.916Z" fill="url(#paint27_linear_8739_44892)"/>
<path d="M70.7264 236.653C69.4968 231.451 68.7608 227.298 68.3519 223.666C67.4944 224.124 66.5759 224.55 65.601 224.916C60.1786 226.952 54.0399 227.128 48.9629 226.72C50.0785 238.805 52.6647 265.891 54.7588 280.814C56.8595 295.78 63.6994 325.293 81.9738 315.792C82.8389 314.292 84.075 311.874 84.9613 308.729C87.5484 299.552 84.4743 293.714 79.7491 272.878C77.4307 262.655 72.572 244.458 70.7264 236.653V236.653Z" fill="url(#paint28_linear_8739_44892)"/>
<path d="M28.4108 189.67V189.67C29.9821 190.9 30.9898 192.713 31.2046 194.698L31.7727 202.156L38.3672 207.411" stroke="#101010" stroke-linecap="round"/>
<path d="M31.7928 181.103L35.7832 198.971L41.6017 203.249" stroke="#101010" stroke-linecap="round"/>
<path d="M37.317 180.505L39.6696 196.312L45.425 200.39" stroke="#101010" stroke-linecap="round"/>
<path d="M67.9572 213.27C67.9572 213.27 68.2995 201.066 61.746 195.936C55.1924 190.806 50.0881 188.327 49.584 187.265L48.8696 186.307V186.307C47.199 187.296 46.5971 189.423 47.501 191.142L47.696 191.512C47.8891 191.879 48.1432 192.211 48.4477 192.492L54.5834 198.162L53.2807 200.601C53.2807 200.601 51.0334 210.607 58.9521 214.663" fill="url(#paint29_linear_8739_44892)"/>
<path d="M53.2809 200.6C53.2809 200.6 51.0336 210.606 58.9523 214.663" stroke="#101010" stroke-linecap="round"/>
<path d="M157.337 249.531V249.531C161.513 253.013 167.492 253.298 171.98 250.229L184.56 241.627" stroke="#E9024D" stroke-linecap="round" stroke-linejoin="round"/>
<path d="M256.743 65.5366C256.743 65.5366 258.901 75.9895 252.963 80.8275L247.417 69.9155C247.417 69.9155 252.221 64.5125 253.436 62.3482C254.031 61.2887 254.979 59.8409 255.796 58.6351C256.643 57.379 257.343 56.3902 257.343 56.3902C257.343 56.3902 257.389 56.37 257.464 56.3499C257.873 56.2691 259.133 56.3146 258.13 60.4917C256.95 65.4256 256.743 65.5366 256.743 65.5366Z" fill="url(#paint30_linear_8739_44892)"/>
<path d="M257.57 57.2731C257.485 58.6352 256.471 58.7261 255.796 58.6352C256.643 57.379 257.343 56.3902 257.343 56.3902C257.343 56.3902 257.389 56.37 257.464 56.35C257.55 56.6022 257.591 56.9099 257.57 57.2731Z" fill="#E9024D"/>
<path d="M247.418 69.9179C247.418 69.9179 252.223 64.5103 253.436 62.3506" stroke="#101010" stroke-linecap="round"/>
<path d="M253.436 62.3507C254.649 60.191 257.343 56.3912 257.343 56.3912C257.343 56.3912 259.312 55.5558 258.13 60.4902" stroke="#101010" stroke-linecap="round"/>
<path d="M258.13 60.49C256.949 65.4249 256.744 65.5349 256.744 65.5349C256.744 65.5349 258.902 75.9873 252.963 80.8273" stroke="#101010" stroke-linecap="round"/>
<path d="M260.163 64.1793C260.194 63.8009 261.502 59.0714 261.502 59.0714C261.502 59.0714 269.71 59.1026 270.986 58.6299C272.262 58.1567 272.992 57.0322 272.992 57.0322" stroke="#101010" stroke-linecap="round"/>
<path d="M260.163 56.8955C260.163 56.8955 259.927 58.4727 261.503 59.0723" stroke="#101010" stroke-linecap="round"/>
<path d="M263.172 66.1972L265.031 61.0575C265.031 61.0575 273.365 60.2851 274.01 59.5127C274.657 58.7404 274.903 57.915 274.903 57.915" stroke="#101010" stroke-linecap="round"/>
<path d="M258.33 63.3804C258.33 63.3804 263.854 65.4816 265.85 68.5408" stroke="#101010" stroke-linecap="round"/>
<path d="M242.429 139.449C242.429 139.449 250.864 136.956 258.584 150.105" stroke="#E9024D" stroke-linecap="round" stroke-linejoin="round"/>
<path d="M173.816 294.683C182.109 281.526 198.846 261.286 225.877 255.288" stroke="#E9024D" stroke-linecap="round" stroke-linejoin="round"/>
<path d="M339.132 254.401C330.296 249.582 319.611 249.615 310.747 254.383L293.809 265.903C288.327 275.646 290.287 289.241 290.287 289.241C295.413 311.284 309.367 317.987 317.406 320.027C326.108 314.136 331.948 310.267 331.948 310.267C331.948 310.267 349.932 323.564 378.482 341.657C387.237 332.52 400.879 315.266 404.095 293.869C371.613 273.974 342.839 256.423 339.132 254.401H339.132Z" fill="url(#paint31_linear_8739_44892)"/>
<path d="M520.791 371.114C516.38 379.796 509.287 387.338 500.349 391.394C491.154 395.566 480.683 397.685 470.43 398.19C446.676 383.681 400.73 355.586 384.125 345.209C382.199 344.008 380.319 342.822 378.484 341.657C387.24 332.521 400.882 315.267 404.093 293.867C444.745 318.768 491.204 347.337 501.594 353.729C502.98 354.582 503.727 355.041 503.727 355.041C503.752 355.021 503.772 355.006 503.797 354.986C505.516 353.618 507.341 352.357 509.227 351.192C510.089 350.657 510.961 350.142 511.843 349.648C516.632 346.964 521.618 344.865 525.978 343.296C527.602 352.534 524.91 363.007 520.791 371.114V371.114Z" fill="url(#paint32_linear_8739_44892)"/>
<path d="M540.554 341.871C539.448 340.423 537.585 339.778 535.824 340.238C533.512 340.841 530.014 341.845 525.981 343.296C527.601 352.535 524.91 363.005 520.791 371.114C516.38 379.798 509.286 387.337 500.35 391.392C491.156 395.564 480.685 397.684 470.43 398.189C479.298 403.605 485.074 407.128 485.074 407.128C485.074 407.128 498.559 420.875 504.104 409.398C511.176 399.342 525.529 380.327 529.31 371.183C534.617 362.01 540.911 347.186 541.294 345.918C541.715 344.529 541.434 343.023 540.554 341.871Z" fill="url(#paint33_linear_8739_44892)"/>
<path d="M166.365 285.436C174.961 273.46 193.25 253.27 221.264 248.74" stroke="#E9024D" stroke-linecap="round" stroke-linejoin="round"/>
<path d="M293.637 266.019C288.833 274.338 288.525 284.766 291.555 294.255C295.144 305.516 306.012 317.81 317.401 320.031" stroke="#101010" stroke-linecap="round"/>
<path d="M358.271 247.224L363.918 250.797" stroke="#101010" stroke-linecap="round"/>
<path d="M321.368 306.458L331.948 310.267" stroke="#101010" stroke-linecap="round"/>
<ellipse cx="529.088" cy="305.811" rx="3.59325" ry="3.59584" fill="#282526"/>
<ellipse cx="499.693" cy="378.218" rx="3.59325" ry="3.59584" fill="#282526"/>
<ellipse cx="511.372" cy="365.088" rx="3.59325" ry="3.59584" fill="#282526"/>
<path d="M500.954 378.156C500.989 378.853 500.449 379.443 499.754 379.478H499.693C499.023 379.478 498.468 378.954 498.433 378.283C497.773 365.02 501.322 354.425 501.473 353.981C501.503 353.891 501.543 353.805 501.594 353.729C502.98 354.582 503.726 355.041 503.726 355.041C503.751 355.021 503.772 355.006 503.797 354.985C503.323 356.469 500.359 366.346 500.954 378.156Z" fill="#282526"/>
<path d="M511.958 366.205C511.772 366.301 511.57 366.351 511.374 366.351C510.92 366.351 510.481 366.104 510.26 365.675C507.583 360.6 508.616 353.956 509.226 351.191C510.088 350.657 510.96 350.142 511.842 349.648C512.014 349.935 512.064 350.283 511.963 350.626C511.948 350.677 511.036 353.87 511.036 357.609C511.036 359.899 511.379 362.401 512.488 364.5C512.81 365.115 512.573 365.877 511.958 366.205H511.958Z" fill="#282526"/>
<ellipse cx="535.822" cy="296.225" rx="3.59325" ry="3.59584" fill="#282526"/>
<path d="M529.849 305.637C529.623 305.808 529.355 305.894 529.088 305.894C528.71 305.894 528.332 305.722 528.085 305.4C528.004 305.294 520.367 295.037 527.248 283.52L529.245 284.63C529.416 284.484 529.592 284.337 529.769 284.191C529.739 284.262 529.708 284.327 529.668 284.388C523.24 294.589 529.809 303.498 530.091 303.871C530.51 304.426 530.404 305.218 529.849 305.637H529.849Z" fill="#282526"/>
<path d="M536.418 280.806C536.257 281.063 532.597 287.102 536.146 295.744C536.413 296.389 536.105 297.126 535.46 297.393C535.304 297.459 535.142 297.489 534.981 297.489C534.487 297.489 534.013 297.192 533.817 296.707C530.988 289.821 532.229 284.322 533.307 281.502C534.321 280.791 535.359 280.11 536.413 279.459C536.665 279.857 536.685 280.382 536.418 280.806H536.418Z" fill="#282526"/>
<path d="M230.562 310.267L310.748 254.383" stroke="#E9024D" stroke-linecap="round" stroke-linejoin="round"/>
<path d="M293.88 299.821L241.04 335.594C232.473 341.394 220.846 339.284 214.86 330.844L190.309 296.227" stroke="#101010" stroke-linecap="round"/>
<path d="M390.711 327.442L477.111 384.77" stroke="#101010" stroke-linecap="round"/>
<path d="M414.003 260.403L502.958 315.674" stroke="#101010" stroke-linecap="round"/>
<path d="M443.476 87.4775V77.5139L521.615 31.984V95.4231L573.814 65.1143V96.5406" stroke="#E9024D" stroke-linecap="round" stroke-linejoin="round"/>
<path d="M629.823 35.4314L585.717 60.3431V89.6033L505.395 138.917" stroke="#E9024D" stroke-linecap="round" stroke-linejoin="round"/>
<path d="M505.365 200.506L607.059 142.238V76.045L585.718 89.6031" stroke="#E9024D" stroke-linecap="round" stroke-linejoin="round"/>
<ellipse cx="502.958" cy="139.479" rx="2.43659" ry="3.6838" stroke="#E9024D" stroke-linecap="round" stroke-linejoin="round"/>
<ellipse cx="502.958" cy="199.954" rx="2.43659" ry="3.6838" stroke="#E9024D" stroke-linecap="round" stroke-linejoin="round"/>
<ellipse cx="634.53" cy="31.9839" rx="4.70754" ry="7.56729" stroke="#E9024D" stroke-linecap="round" stroke-linejoin="round"/>
<rect x="86.8729" y="0.00012207" width="4.22484" height="19.6711" transform="rotate(45 86.8729 0.00012207)" fill="url(#paint34_linear_8739_44892)"/>
<rect width="4.22484" height="19.6711" transform="matrix(-0.706864 0.707349 -0.706839 -0.707375 89.8591 13.9149)" fill="url(#paint35_linear_8739_44892)"/>
<rect x="639.859" y="334.096" width="22.8272" height="22.8272" transform="rotate(45 639.859 334.096)" stroke="url(#paint36_linear_8739_44892)"/>
<path d="M338.57 433.42L328.279 441.919L319.786 431.621L314.156 436.27L322.649 446.569L312.359 455.068L317.005 460.702L327.295 452.202L335.789 462.501L341.418 457.851L332.925 447.553L343.216 439.053L338.57 433.42Z" fill="url(#paint37_linear_8739_44892)"/>
<path d="M124.392 152.085L117.036 153.094C116.614 153.094 116.273 152.752 116.273 152.33V148.703C116.273 148.281 116.614 147.939 117.036 147.939L124.392 148.948V152.085Z" fill="url(#paint38_linear_8739_44892)"/>
<path d="M265.934 45.009C265.299 46.3763 264.179 46.7496 263.363 46.8252L265.934 45.009Z" fill="#E9024D"/>
<path d="M272.644 55.9612C272.397 56.183 271.968 56.3644 271.232 56.3393C270.511 56.314 270.113 56.0166 269.891 55.6637C271.151 55.7746 272.205 55.8351 272.644 55.9612Z" fill="#E9024D"/>
<path d="M277.539 56.9097C277.448 57.2627 277.216 57.6611 276.692 57.9133C276.117 58.1907 275.819 57.9587 275.673 57.6662C276.263 57.4594 277.06 57.1669 277.539 56.9097Z" fill="#E9024D"/>
<path d="M295.957 146.822C295.957 161.396 308.227 173.214 323.367 173.214C338.506 173.214 350.776 161.396 350.776 146.822C350.776 135.569 343.465 125.965 333.169 122.169C330.127 121.046 326.822 120.43 323.367 120.43C317.863 120.43 312.737 121.992 308.439 124.681C300.927 129.387 295.957 137.546 295.957 146.822Z" fill="url(#paint39_linear_8739_44892)"/>
<g style="mix-blend-mode:multiply" opacity="0.36">
<path d="M315.388 159.11C330.528 159.11 342.797 147.292 342.797 132.718C342.797 131.02 342.628 129.361 342.309 127.752C347.525 132.556 350.776 139.321 350.776 146.822C350.776 161.395 338.506 173.214 323.367 173.214C309.99 173.214 298.861 163.986 296.448 151.785C301.37 156.319 308.038 159.11 315.388 159.11Z" fill="#7F47DD"/>
</g>
<mask id="mask0_8739_44892" style="mask-type:alpha" maskUnits="userSpaceOnUse" x="295" y="120" width="56" height="54">
<path d="M295.957 146.822C295.957 161.396 308.227 173.214 323.367 173.214C338.506 173.214 350.776 161.396 350.776 146.822C350.776 135.569 343.465 125.965 333.169 122.169C330.127 121.046 326.822 120.43 323.367 120.43C317.863 120.43 312.737 121.992 308.439 124.681C300.927 129.387 295.957 137.546 295.957 146.822Z" fill="black"/>
</mask>
<g mask="url(#mask0_8739_44892)">
<ellipse rx="5.22034" ry="6.7208" transform="matrix(0.910321 -0.413902 0.413407 0.910546 309.477 164.394)" stroke="white"/>
<path d="M308.153 124.284C307.87 128.086 314.019 131.786 321.957 132.568C329.953 133.361 336.745 130.891 337.125 127.058C337.315 125.138 335.861 123.24 333.357 121.727" stroke="white"/>
<path d="M351.224 144.841C349.497 148.99 346.318 152.612 342.167 155.323" stroke="white"/>
<ellipse rx="2.88476" ry="3.71392" transform="matrix(0.910321 -0.413902 0.413407 0.910546 309.477 164.394)" stroke="white"/>
<ellipse rx="2.03391" ry="2.61851" transform="matrix(0.910321 -0.413902 0.413407 0.910546 309.477 164.394)" fill="#101010"/>
</g>
<path d="M47.3701 359.298L33.7377 373.466C32.5903 374.303 31.4666 375.237 30.3837 376.267C28.5442 378.017 26.9744 379.899 25.6919 381.829L14.2145 393.758L25.4938 401.872L25.4988 401.867C31.0346 405.786 41.0848 403.335 48.9708 395.833C56.9112 388.28 59.8537 378.272 56.1046 372.56L56.1076 372.557L47.3701 359.298Z" fill="url(#paint40_linear_8739_44892)"/>
<ellipse rx="24.0026" ry="15.1736" transform="matrix(0.72453 -0.689243 0.688721 0.725027 31.0394 377.091)" fill="url(#paint41_linear_8739_44892)"/>
<path d="M45.4783 362.989C50.2004 367.961 47.523 378.182 39.4964 385.817C32.1216 392.833 22.7978 395.229 17.6714 391.714C17.2177 391.4 16.7937 391.044 16.4111 390.641C11.689 385.67 14.3659 375.449 22.393 367.813C30.0844 360.496 39.8931 358.207 44.8567 362.402C45.074 362.586 45.2797 362.781 45.4783 362.989Z" fill="url(#paint42_linear_8739_44892)"/>
<path d="M45.4782 362.989C50.2003 367.96 47.523 378.181 39.4963 385.817C32.1215 392.833 22.7978 395.228 17.6713 391.714C17.4637 391.002 17.0629 390.468 16.773 389.7C16.4489 388.851 16.3904 387.856 16.8289 387.063C17.138 386.492 17.6996 386.007 17.7087 385.36C17.7157 385.069 17.6028 384.786 17.5337 384.504C17.1723 383.115 17.8236 381.531 19.0532 380.794C19.5961 380.469 20.252 380.285 20.6386 379.79C20.8866 379.475 20.9915 379.078 21.1029 378.695C21.5869 376.971 22.2261 375.262 23.2671 373.803C24.3041 372.341 25.7787 371.138 27.5103 370.683C27.8032 370.61 28.1551 370.495 28.206 370.198C28.2282 370.049 28.1556 369.899 28.1117 369.755C27.8703 368.949 28.4364 368.148 28.9657 367.495C29.6674 366.643 30.3838 365.769 31.3225 365.182C32.2612 364.594 33.4715 364.337 34.4818 364.789C34.8362 363.728 35.7492 362.867 36.833 362.574C37.9134 362.284 39.1354 362.57 39.9712 363.316C40.0756 362.783 40.5509 362.388 41.0677 362.23C41.5879 362.076 42.1435 362.108 42.6808 362.143C43.3997 362.191 44.1438 362.25 44.8567 362.402C45.0739 362.586 45.2796 362.78 45.4782 362.989Z" fill="white"/>
<path d="M36.0906 357.105C35.8209 358.448 34.6533 359.495 33.8568 360.546C32.9751 361.712 32.1342 362.943 31.6427 364.329C30.8936 366.462 29.3374 368.778 29.6842 371.127C29.971 373.04 31.6125 374.687 32.9565 375.963C33.5175 376.488 34.1185 376.981 34.6463 377.544C34.792 377.698 34.8842 377.861 34.9372 378.026C34.9069 378.09 34.8731 378.149 34.8293 378.205C34.2712 378.965 33.0623 378.842 32.3445 379.448C31.4002 380.256 31.7334 381.888 30.9077 382.813C30.1258 383.695 28.7223 383.507 27.6032 383.896C27.1107 383.641 26.6716 383.244 26.1891 383C25.4183 382.606 24.8981 381.743 24.0537 381.565C23.5324 381.456 22.9895 381.638 22.5574 381.944C22.1249 382.251 21.7972 382.674 21.4902 383.106C21.1166 383.628 20.6594 384.223 20.0182 384.206C19.4909 384.193 19.0573 383.708 18.9847 383.185C18.9091 382.666 19.0624 381.949 19.4042 381.547C17.2102 381.595 15.2678 382.963 13.6889 384.478C12.907 385.229 12.1519 386.045 11.1809 386.509C10.2967 386.933 9.29195 387.032 8.32001 386.976C7.75036 386.94 7.15749 386.842 6.69876 386.506C6.18051 386.122 5.9083 385.462 5.86796 384.819C5.82359 384.172 5.98593 383.53 6.19414 382.914C7.42319 379.288 10.3663 376.28 13.9687 374.975C13.8568 374.748 13.6642 374.743 13.4429 374.627C12.1382 374.733 11.0564 375.644 9.82583 376.084C8.82162 376.44 7.70851 376.476 6.68162 376.186C5.98744 375.99 5.2983 375.609 4.96507 374.965C4.71051 374.469 4.70042 373.881 4.81033 373.337C5.05633 372.066 5.94811 370.94 7.12423 370.399C7.70146 370.135 8.33715 369.955 8.96881 369.917C7.403 369.382 5.9587 368.389 4.77805 367.292C3.01513 365.656 0.525293 363.862 0.0544281 361.331C-0.111942 360.438 0.095257 359.426 0.784397 358.826C1.19676 358.462 1.74323 358.283 2.2907 358.201C4.82845 357.819 7.43731 359.291 9.31565 360.859C11.0201 362.287 12.4417 364.017 13.9697 365.626L16.2645 361.481C13.9026 359.961 11.7349 357.569 10.3526 355.125C9.63576 353.852 9.60401 351.863 11.4315 351.663C12.0677 351.593 12.7089 351.756 13.3098 351.971C14.8403 352.513 16.2549 353.388 17.432 354.509C18.4312 355.459 19.0659 356.727 19.3275 358.079L19.9068 361.12C19.8251 359.569 20.0822 358.002 20.664 356.564C21.6182 354.216 23.4477 352.239 25.7087 351.097C26.1891 350.856 26.6973 350.651 27.2256 350.621C27.7579 350.589 28.3241 350.76 28.6704 351.169C29.2174 351.811 29.054 352.774 28.862 353.596C28.3543 355.764 27.9556 357.987 27.4444 360.158C28.3316 358.361 29.4558 356.63 31.07 355.408C31.7642 354.887 32.5764 354.497 33.4404 354.447C34.9654 354.354 36.4132 355.483 36.0906 357.105L36.0906 357.105Z" fill="url(#paint43_linear_8739_44892)"/>
<path d="M18.7408 366.583C18.0764 364.799 17.7311 361.481 19.2137 359.966C19.9099 359.256 21.0608 359.38 21.8316 359.893C22.5555 360.375 23.045 361.153 23.3077 361.982C23.5703 362.811 23.6227 363.693 23.6126 364.562" fill="url(#paint44_linear_8739_44892)"/>
<path d="M14.2263 368.156C13.1011 366.545 12.7553 364.42 13.2574 362.524C13.4621 361.751 13.8119 361.001 14.364 360.422C15.2522 359.491 16.8422 359.031 17.9029 359.967" fill="url(#paint45_linear_8739_44892)"/>
<path d="M18.7408 366.583C18.0764 364.799 17.7311 361.481 19.2137 359.966C19.9099 359.256 21.0608 359.38 21.8316 359.893C22.5555 360.375 23.045 361.153 23.3077 361.982C23.5703 362.811 23.6227 363.693 23.6126 364.562" fill="url(#paint46_linear_8739_44892)"/>
<path d="M25.2805 376.499C22.0309 377.382 15.5076 379.016 13.4593 375.165C12.9093 374.131 13.0797 372.833 13.6035 371.785C14.335 370.322 15.7072 369.227 17.2508 368.687C19.0848 368.046 21.0963 368.169 22.9378 368.715C23.145 368.776 23.4011 368.946 23.3124 369.142" fill="url(#paint47_linear_8739_44892)"/>
<path d="M41.746 374.416C39.3126 373.766 37.768 374.087 37.338 374.155C36.2965 374.317 35.4077 375.19 35.2177 376.228C35.1133 376.828 35.2101 377.501 34.9369 378.026C34.9066 378.09 34.8728 378.149 34.829 378.205C34.2709 378.965 33.062 378.842 32.3442 379.448C31.3999 380.256 31.7331 381.888 30.9074 382.813C30.1255 383.695 28.722 383.507 27.6029 383.896C27.4017 383.962 27.2142 384.05 27.0363 384.163C26.3512 384.606 25.9705 385.421 25.8964 386.236C25.8259 387.048 26.0336 387.86 26.3138 388.623" stroke="#F0014F"/>
<path d="M35.1551 370.834C34.5647 370.025 34.3918 368.926 34.7054 367.975C35.0184 367.023 35.8099 366.242 36.7652 365.943C37.3132 365.771 37.9328 365.758 38.4419 366.023" stroke="#F0014F"/>
<path d="M20.5199 389.554C20.0415 388.762 20.0475 387.702 20.5345 386.916C21.0215 386.13 21.9678 385.653 22.8888 385.731" stroke="#F0014F"/>
<path d="M203.008 233.505L213.041 228.817" stroke="#E9024D" stroke-linecap="round" stroke-linejoin="round"/>
<path d="M122.518 233.505C118.829 242.942 111.69 250.341 105.009 257.728C98.3668 265.072 90.9785 273.628 88.238 283.336" stroke="#E9024D" stroke-linecap="round" stroke-linejoin="round"/>
<path d="M120.183 231.161C116.494 240.598 109.355 247.997 102.674 255.384C96.0317 262.728 88.6433 271.285 85.9029 280.993" stroke="#E9024D" stroke-linecap="round" stroke-linejoin="round"/>
<path d="M103.379 259.542L106.218 261.896" stroke="#E9024D" stroke-linecap="round" stroke-linejoin="round"/>
<ellipse cx="107.647" cy="262.737" rx="2.01649" ry="2.01794" stroke="#E9024D" stroke-linecap="round" stroke-linejoin="round"/>
<path d="M50.2482 240.272C50.2482 240.272 55.554 241.464 61.1831 239.11" stroke="#E9024D" stroke-linecap="round" stroke-linejoin="round"/>
<path d="M50.2482 243.256C50.2482 243.256 56.226 244.155 61.8556 241.8" stroke="#E9024D" stroke-linecap="round" stroke-linejoin="round"/>
<path d="M222.523 163.309L223.846 164.932" stroke="#E9024D" stroke-linecap="round" stroke-linejoin="round"/>
<path d="M217.665 170.338C217.665 170.338 225.628 163.142 233.591 158.097" stroke="#E9024D" stroke-linecap="round" stroke-linejoin="round"/>
<ellipse rx="0.998175" ry="0.830061" transform="matrix(0.759434 -0.650584 0.650036 0.759903 217.029 170.93)" stroke="#E9024D" stroke-linecap="round" stroke-linejoin="round"/>
<ellipse rx="0.998175" ry="0.830061" transform="matrix(0.759434 -0.650584 0.650036 0.759903 234.221 157.635)" stroke="#E9024D" stroke-linecap="round" stroke-linejoin="round"/>
<path d="M252.454 114.06V98.211L244.244 93.9476" stroke="#E9024D" stroke-linecap="round" stroke-linejoin="round"/>
<path d="M250.563 114.06V99.136L245.018 96.2562" stroke="#E9024D" stroke-linecap="round" stroke-linejoin="round"/>
<path d="M245.648 98.4001L248.657 100.04V114.06H245.648V98.4001Z" fill="#E9024D"/>
<path d="M50.8458 246.324C50.8458 246.324 55.4126 246.34 57.5209 245.836" stroke="#E9024D" stroke-linecap="round" stroke-linejoin="round"/>
<rect width="1.49591" height="1.49591" transform="matrix(0.930277 0.366857 -0.366399 0.930458 57.7391 244.585)" stroke="#E9024D" stroke-linecap="round" stroke-linejoin="round"/>
<rect width="1.49591" height="1.49591" transform="matrix(0.930277 0.366857 -0.366399 0.930458 62.4038 240.34)" stroke="#E9024D" stroke-linecap="round" stroke-linejoin="round"/>
<path d="M243.621 91.2111C243.621 91.2111 253.607 92.3336 260.508 89.3127" stroke="#E9024D" stroke-linecap="round" stroke-linejoin="round"/>
<path d="M255.266 325.963L261.738 335.046" stroke="#101010" stroke-linecap="round"/>
<path d="M259.608 323.023L271.988 339.502" stroke="#101010" stroke-linecap="round"/>
<defs>
<linearGradient id="paint0_linear_8739_44892" x1="188.247" y1="124.297" x2="167.296" y2="137.701" gradientUnits="userSpaceOnUse">
<stop stop-color="#E9024D"/>
<stop offset="1" stop-color="#101010"/>
</linearGradient>
<linearGradient id="paint1_linear_8739_44892" x1="228.689" y1="293.859" x2="346.145" y2="180.804" gradientUnits="userSpaceOnUse">
<stop stop-color="#E9024D"/>
<stop offset="1" stop-color="#101010"/>
</linearGradient>
<linearGradient id="paint2_linear_8739_44892" x1="209.578" y1="283.25" x2="328.859" y2="173.344" gradientUnits="userSpaceOnUse">
<stop stop-color="white"/>
<stop offset="1" stop-color="#FC9AC2"/>
</linearGradient>
<linearGradient id="paint3_linear_8739_44892" x1="174.527" y1="203.741" x2="202.368" y2="203.741" gradientUnits="userSpaceOnUse">
<stop stop-color="#E9024D"/>
<stop offset="1" stop-color="#101010"/>
</linearGradient>
<linearGradient id="paint4_linear_8739_44892" x1="294.814" y1="222.154" x2="223.746" y2="248.261" gradientUnits="userSpaceOnUse">
<stop stop-color="#E9024D"/>
<stop offset="1" stop-color="#101010"/>
</linearGradient>
<linearGradient id="paint5_linear_8739_44892" x1="347.221" y1="174.582" x2="302.026" y2="268.265" gradientUnits="userSpaceOnUse">
<stop stop-color="white"/>
<stop offset="1" stop-color="#FC9AC2"/>
</linearGradient>
<linearGradient id="paint6_linear_8739_44892" x1="604.066" y1="261.573" x2="505.964" y2="140.532" gradientUnits="userSpaceOnUse">
<stop stop-color="#E9024D"/>
<stop offset="1" stop-color="#101010"/>
</linearGradient>
<linearGradient id="paint7_linear_8739_44892" x1="505.942" y1="327.707" x2="568.581" y2="354.663" gradientUnits="userSpaceOnUse">
<stop stop-color="#E9024D"/>
<stop offset="1" stop-color="#101010"/>
</linearGradient>
<linearGradient id="paint8_linear_8739_44892" x1="379.298" y1="189.451" x2="140.332" y2="127.999" gradientUnits="userSpaceOnUse">
<stop stop-color="#E9024D"/>
<stop offset="1" stop-color="#101010"/>
</linearGradient>
<linearGradient id="paint9_linear_8739_44892" x1="144.643" y1="189.806" x2="160.453" y2="178.003" gradientUnits="userSpaceOnUse">
<stop stop-color="white"/>
<stop offset="0.195499" stop-color="#FEFAFC"/>
<stop offset="0.395905" stop-color="#FEEEF5"/>
<stop offset="0.59859" stop-color="#FDDAE8"/>
<stop offset="0.801518" stop-color="#FDBDD7"/>
<stop offset="1" stop-color="#FC9AC2"/>
</linearGradient>
<linearGradient id="paint10_linear_8739_44892" x1="342.519" y1="77.4735" x2="362.337" y2="82.2721" gradientUnits="userSpaceOnUse">
<stop stop-color="#E9024D"/>
<stop offset="1" stop-color="#101010"/>
</linearGradient>
<linearGradient id="paint11_linear_8739_44892" x1="361.554" y1="76.0957" x2="366.342" y2="88.8794" gradientUnits="userSpaceOnUse">
<stop stop-color="#E9024D"/>
<stop offset="1" stop-color="#101010"/>
</linearGradient>
<linearGradient id="paint12_linear_8739_44892" x1="370.932" y1="71.0576" x2="377.194" y2="82.28" gradientUnits="userSpaceOnUse">
<stop stop-color="#E9024D"/>
<stop offset="1" stop-color="#101010"/>
</linearGradient>
<linearGradient id="paint13_linear_8739_44892" x1="379.612" y1="62.0046" x2="384.004" y2="75.0769" gradientUnits="userSpaceOnUse">
<stop stop-color="#E9024D"/>
<stop offset="1" stop-color="#101010"/>
</linearGradient>
<linearGradient id="paint14_linear_8739_44892" x1="389.069" y1="61.5648" x2="393.857" y2="74.3485" gradientUnits="userSpaceOnUse">
<stop stop-color="#E9024D"/>
<stop offset="1" stop-color="#101010"/>
</linearGradient>
<linearGradient id="paint15_linear_8739_44892" x1="398.7" y1="61.302" x2="404.961" y2="72.5244" gradientUnits="userSpaceOnUse">
<stop stop-color="#E9024D"/>
<stop offset="1" stop-color="#101010"/>
</linearGradient>
<linearGradient id="paint16_linear_8739_44892" x1="104.369" y1="242.094" x2="129.048" y2="242.094" gradientUnits="userSpaceOnUse">
<stop stop-color="#E9024D"/>
<stop offset="1" stop-color="#101010"/>
</linearGradient>
<linearGradient id="paint17_linear_8739_44892" x1="140.545" y1="179.964" x2="141.356" y2="195.388" gradientUnits="userSpaceOnUse">
<stop stop-color="#E9024D"/>
<stop offset="1" stop-color="#101010"/>
</linearGradient>
<linearGradient id="paint18_linear_8739_44892" x1="151.666" y1="182.842" x2="162.033" y2="204.305" gradientUnits="userSpaceOnUse">
<stop stop-color="#E9024D"/>
<stop offset="0.0624971" stop-color="#CA0344"/>
<stop offset="0.207827" stop-color="#880831"/>
<stop offset="0.339777" stop-color="#540B23"/>
<stop offset="0.453778" stop-color="#2F0D18"/>
<stop offset="0.545311" stop-color="#180F12"/>
<stop offset="0.602985" stop-color="#101010"/>
</linearGradient>
<linearGradient id="paint19_linear_8739_44892" x1="125.204" y1="121.454" x2="147.429" y2="191.61" gradientUnits="userSpaceOnUse">
<stop stop-color="white"/>
<stop offset="1" stop-color="#FC9AC2"/>
</linearGradient>
<linearGradient id="paint20_linear_8739_44892" x1="102.894" y1="274.593" x2="213.53" y2="122.002" gradientUnits="userSpaceOnUse">
<stop stop-color="#E9024D"/>
<stop offset="0.101064" stop-color="#E2024B"/>
<stop offset="0.240978" stop-color="#D00346"/>
<stop offset="0.403575" stop-color="#B3053D"/>
<stop offset="0.583307" stop-color="#8A0832"/>
<stop offset="0.777085" stop-color="#550B23"/>
<stop offset="0.979727" stop-color="#160F11"/>
<stop offset="1" stop-color="#101010"/>
</linearGradient>
<linearGradient id="paint21_linear_8739_44892" x1="93.0753" y1="357.022" x2="174.521" y2="315.523" gradientUnits="userSpaceOnUse">
<stop stop-color="#E9024D"/>
<stop offset="1" stop-color="#101010"/>
</linearGradient>
<linearGradient id="paint22_linear_8739_44892" x1="104.56" y1="250.797" x2="149.114" y2="250.797" gradientUnits="userSpaceOnUse">
<stop stop-color="#E9024D"/>
<stop offset="1" stop-color="#101010"/>
</linearGradient>
<linearGradient id="paint23_linear_8739_44892" x1="162.906" y1="148.087" x2="161.504" y2="141.859" gradientUnits="userSpaceOnUse">
<stop stop-color="#0071BC"/>
<stop offset="1" stop-color="#101010"/>
</linearGradient>
<linearGradient id="paint24_linear_8739_44892" x1="180.472" y1="139.329" x2="178.219" y2="133.421" gradientUnits="userSpaceOnUse">
<stop stop-color="#0071BC"/>
<stop offset="1" stop-color="#101010"/>
</linearGradient>
<linearGradient id="paint25_linear_8739_44892" x1="168.561" y1="149.556" x2="167.284" y2="137.355" gradientUnits="userSpaceOnUse">
<stop stop-color="#E9024D"/>
<stop offset="1" stop-color="#101010"/>
</linearGradient>
<linearGradient id="paint26_linear_8739_44892" x1="150.438" y1="139.654" x2="117.601" y2="133.305" gradientUnits="userSpaceOnUse">
<stop stop-color="white"/>
<stop offset="0.171112" stop-color="#FEE8F1"/>
<stop offset="0.540058" stop-color="#FDBED7"/>
<stop offset="0.828856" stop-color="#FCA3C7"/>
<stop offset="1" stop-color="#FC9AC2"/>
</linearGradient>
<linearGradient id="paint27_linear_8739_44892" x1="83.8237" y1="219.099" x2="51.0854" y2="178.403" gradientUnits="userSpaceOnUse">
<stop stop-color="white"/>
<stop offset="0.627526" stop-color="#FDBCD6"/>
<stop offset="1" stop-color="#FC9AC2"/>
</linearGradient>
<linearGradient id="paint28_linear_8739_44892" x1="101.828" y1="316.835" x2="33.888" y2="256.601" gradientUnits="userSpaceOnUse">
<stop stop-color="#E9024D"/>
<stop offset="1" stop-color="#101010"/>
</linearGradient>
<linearGradient id="paint29_linear_8739_44892" x1="83.2158" y1="218.701" x2="60.1605" y2="191.508" gradientUnits="userSpaceOnUse">
<stop stop-color="white"/>
<stop offset="1" stop-color="#FC9AC2"/>
</linearGradient>
<linearGradient id="paint30_linear_8739_44892" x1="239.171" y1="110.687" x2="257.884" y2="105.908" gradientUnits="userSpaceOnUse">
<stop stop-color="white"/>
<stop offset="1" stop-color="#FC9AC2"/>
</linearGradient>
<linearGradient id="paint31_linear_8739_44892" x1="361.874" y1="248.676" x2="271.476" y2="291.064" gradientUnits="userSpaceOnUse">
<stop stop-color="white"/>
<stop offset="1" stop-color="#FC9AC2"/>
</linearGradient>
<linearGradient id="paint32_linear_8739_44892" x1="574.805" y1="332.895" x2="474.272" y2="218.86" gradientUnits="userSpaceOnUse">
<stop stop-color="#E9024D"/>
<stop offset="1" stop-color="#101010"/>
</linearGradient>
<linearGradient id="paint33_linear_8739_44892" x1="472.842" y1="256.419" x2="332.116" y2="414.19" gradientUnits="userSpaceOnUse">
<stop stop-color="#E9024D"/>
<stop offset="1" stop-color="#101010"/>
</linearGradient>
<linearGradient id="paint34_linear_8739_44892" x1="80.5367" y1="49.1724" x2="97.4338" y2="49.1724" gradientUnits="userSpaceOnUse">
<stop stop-color="#E9024D"/>
<stop offset="0.0455207" stop-color="#EA044E"/>
<stop offset="1" stop-color="#FA246B"/>
</linearGradient>
<linearGradient id="paint35_linear_8739_44892" x1="-6.33612" y1="49.1723" x2="10.5609" y2="49.1723" gradientUnits="userSpaceOnUse">
<stop stop-color="#E9024D"/>
<stop offset="0.0455207" stop-color="#EA044E"/>
<stop offset="1" stop-color="#FA246B"/>
</linearGradient>
<linearGradient id="paint36_linear_8739_44892" x1="639.859" y1="334.096" x2="663.561" y2="335.044" gradientUnits="userSpaceOnUse">
<stop stop-color="#FE3477"/>
<stop offset="1" stop-color="#F0014F"/>
</linearGradient>
<linearGradient id="paint37_linear_8739_44892" x1="325.498" y1="471" x2="351.724" y2="449.37" gradientUnits="userSpaceOnUse">
<stop stop-color="#E9024D"/>
<stop offset="0.0455207" stop-color="#EA044E"/>
<stop offset="1" stop-color="#FA246B"/>
</linearGradient>
<linearGradient id="paint38_linear_8739_44892" x1="116.273" y1="153.094" x2="124.391" y2="153.094" gradientUnits="userSpaceOnUse">
<stop stop-color="#E9024D"/>
<stop offset="0.101064" stop-color="#E2024B"/>
<stop offset="0.240978" stop-color="#D00346"/>
<stop offset="0.403575" stop-color="#B3053D"/>
<stop offset="0.583307" stop-color="#8A0832"/>
<stop offset="0.777085" stop-color="#550B23"/>
<stop offset="0.979727" stop-color="#160F11"/>
<stop offset="1" stop-color="#101010"/>
</linearGradient>
<linearGradient id="paint39_linear_8739_44892" x1="2550.56" y1="123.173" x2="2562.14" y2="167.778" gradientUnits="userSpaceOnUse">
<stop stop-color="#E9024D"/>
<stop offset="0.0455207" stop-color="#EA044E"/>
<stop offset="1" stop-color="#FA246B"/>
</linearGradient>
<linearGradient id="paint40_linear_8739_44892" x1="35.7384" y1="360.083" x2="22.5526" y2="383.901" gradientUnits="userSpaceOnUse">
<stop stop-color="#E9024D"/>
<stop offset="1" stop-color="#101010"/>
</linearGradient>
<linearGradient id="paint41_linear_8739_44892" x1="-42.3891" y1="-899.295" x2="21.9338" y2="-899.295" gradientUnits="userSpaceOnUse">
<stop stop-color="#E9024D"/>
<stop offset="1" stop-color="#101010"/>
</linearGradient>
<linearGradient id="paint42_linear_8739_44892" x1="-2.10544" y1="-550.609" x2="-1.70326" y2="-568.771" gradientUnits="userSpaceOnUse">
<stop stop-color="#E9024D"/>
<stop offset="1" stop-color="#101010"/>
</linearGradient>
<linearGradient id="paint43_linear_8739_44892" x1="13.5778" y1="-553.201" x2="7.60431" y2="-604.765" gradientUnits="userSpaceOnUse">
<stop stop-color="#E9024D"/>
<stop offset="1" stop-color="#101010"/>
</linearGradient>
<linearGradient id="paint44_linear_8739_44892" x1="-13.0142" y1="-570.881" x2="-6.0899" y2="-570.881" gradientUnits="userSpaceOnUse">
<stop stop-color="#E9024D"/>
<stop offset="1" stop-color="#101010"/>
</linearGradient>
<linearGradient id="paint45_linear_8739_44892" x1="-10.6227" y1="-568.855" x2="-3.7469" y2="-580.061" gradientUnits="userSpaceOnUse">
<stop stop-color="#E9024D"/>
<stop offset="0.124867" stop-color="#C30442"/>
<stop offset="0.357634" stop-color="#840830"/>
<stop offset="0.569889" stop-color="#520B22"/>
<stop offset="0.754444" stop-color="#2E0E18"/>
<stop offset="0.904065" stop-color="#180F12"/>
<stop offset="1" stop-color="#101010"/>
</linearGradient>
<linearGradient id="paint46_linear_8739_44892" x1="-9.49165" y1="-566.648" x2="-3.9845" y2="-572.826" gradientUnits="userSpaceOnUse">
<stop stop-color="#E9024D"/>
<stop offset="0.114965" stop-color="#D70348"/>
<stop offset="0.343297" stop-color="#AB053B"/>
<stop offset="0.663571" stop-color="#620A27"/>
<stop offset="1" stop-color="#101010"/>
</linearGradient>
<linearGradient id="paint47_linear_8739_44892" x1="-4.81751" y1="-567.261" x2="-11.9933" y2="-577.645" gradientUnits="userSpaceOnUse">
<stop stop-color="#E9024D"/>
<stop offset="1" stop-color="#101010"/>
</linearGradient>
</defs>
</svg>
