<svg width="535" height="753" viewBox="0 0 535 753" fill="none" xmlns="http://www.w3.org/2000/svg">
<path d="M534.133 305.316V327.755C534.133 330.055 532.897 332.183 530.898 333.333L475.284 365.135C474.278 365.713 473.177 365.986 472.099 365.986C469.871 365.986 467.7 364.828 466.514 362.75C464.75 359.672 465.822 355.744 468.9 353.98L521.278 324.02V309.015L416.657 249.041L372.193 274.072L371.786 259.539L413.552 236.036C415.537 234.914 417.964 234.929 419.936 236.079L530.933 299.76C532.911 300.91 534.133 303.023 534.133 305.316V305.316Z" fill="url(#paint0_linear)"/>
<path d="M385.325 393.554L441.406 425.506L493.293 395.827L437.349 363.873L385.325 393.554Z" fill="url(#paint1_linear)"/>
<path d="M423.329 396.888C423.158 397 422.986 397.111 422.806 397.214C419.819 398.939 415.984 398.433 412.474 396.245L417.511 392.855C418.266 392.418 418.816 391.731 419.15 390.882C419.854 389.071 419.579 386.531 418.232 384.214C416.902 381.897 414.843 380.387 412.92 380.095C412.02 379.958 411.144 380.087 410.389 380.524L404.82 384.266C404.511 384.446 404.237 384.669 404.005 384.926C402.109 378.903 403.362 373.033 407.472 370.665C412.569 367.722 420.129 371.274 424.368 378.611C428.452 385.69 427.946 393.687 423.329 396.888H423.329Z" fill="#282526" stroke="#E9024D"/>
<path d="M440.551 386.127L440.568 386.145L440.482 386.196C440.096 386.548 439.684 386.866 439.221 387.132C438.894 387.32 438.551 387.483 438.199 387.621L423.329 396.888C427.945 393.687 428.451 385.69 424.367 378.611C420.128 371.274 412.568 367.722 407.471 370.665L423.895 360.574C428.992 357.63 436.552 361.192 440.791 368.519C444.618 375.152 444.395 382.584 440.551 386.127H440.551Z" fill="#282526" stroke="#E9024D"/>
<path d="M419.15 390.881C418.816 391.731 418.266 392.417 417.511 392.855L412.474 396.244C412.466 396.244 412.457 396.227 412.457 396.227C414.337 394.623 414.474 391.096 412.663 387.964C410.698 384.557 407.18 382.901 404.82 384.265L410.389 380.524C411.144 380.086 412.02 379.958 412.92 380.095C414.843 380.387 416.902 381.897 418.232 384.214C419.579 386.531 419.854 389.071 419.15 390.881H419.15Z" stroke="#E9024D"/>
<path d="M412.474 396.244L412.277 396.373C412.337 396.33 412.397 396.287 412.456 396.227C412.456 396.227 412.465 396.244 412.474 396.244Z" stroke="#00C8FF"/>
<path d="M412.457 396.227C412.397 396.287 412.337 396.33 412.277 396.373C412.165 396.459 412.054 396.536 411.933 396.605C409.574 397.969 406.055 396.313 404.09 392.906C402.383 389.946 402.409 386.642 404.005 384.926C404.237 384.669 404.511 384.446 404.82 384.265C407.18 382.901 410.698 384.557 412.663 387.964C414.473 391.096 414.336 394.623 412.457 396.227L412.457 396.227Z" fill="#282526" stroke="#E9024D"/>
<path d="M493.293 438.874V395.827L441.406 425.506V468.553L493.293 438.874Z" fill="url(#paint2_linear)"/>
<path d="M385.325 393.555V436.602L441.406 468.554V425.506L385.325 393.555Z" fill="url(#paint3_linear)"/>
<path d="M321.824 314.115L321.916 326.094L311.32 333L301.969 327.88V325.764L298.26 327.99L258.375 351.628V298.271L434.361 197.604L434.416 197.576L434.792 211.121L435.314 229.758L435.781 246.573L321.824 314.115Z" fill="url(#paint4_linear)"/>
<path d="M258.378 298.303V350.706L100.971 261.439V210.598L258.352 298.277L258.378 298.303Z" fill="url(#paint5_linear)"/>
<path d="M434.362 197.604L258.375 298.271L258.349 298.281L100.972 210.597V210.405C172.942 170.435 208.61 107.45 219.82 66.109C225.681 44.4869 225.873 29.4945 225.873 29.4945L269.906 54.4511L315.927 28.4227L316.046 28.487C316.485 42.7648 322.841 63.0963 331.898 83.7024C336.606 94.4448 342.055 105.252 347.77 115.326C402.481 207.476 432.878 198.126 434.362 197.604V197.604Z" fill="url(#paint6_linear)"/>
<path d="M434.362 197.604L258.377 298.272L258.349 298.281" stroke="#E9024D"/>
<path d="M260.083 341.738V341.76L260.061 341.746L260.083 341.738Z" fill="white" stroke="black" stroke-linecap="round" stroke-linejoin="round"/>
<path d="M331.894 83.7025C325.85 84.878 322.736 72.5216 320.556 67.5087C320.332 71.0148 318.108 74.3012 318.108 74.3012C313.82 72.2409 312.765 61.7474 312.765 61.7474C312.765 61.7474 309.979 95.1743 306.753 103.577C301.185 102.856 294.172 92.6694 290.942 71.7398C291.668 88.9394 283.094 104.358 283.094 104.358C266.062 97.5657 267.01 69.7663 267.01 69.7663C267.01 69.7663 259.162 103.299 247.528 110.814C241.128 93.8382 242.798 77.0265 244.077 61.1365C240.07 76.2517 230.609 82.4264 230.609 82.4264C229.049 78.4758 229.049 73.5762 229.329 54.4468C225.949 61.4968 222.533 64.7061 219.818 66.1091C225.679 44.4845 225.876 29.4927 225.876 29.4927L271.963 2.77534L315.93 28.4244L316.047 28.4905C316.485 42.7614 322.844 63.0963 331.894 83.7025Z" fill="url(#paint7_linear)"/>
<path d="M315.931 28.2369L269.903 54.2596L225.876 29.3056L271.964 2.5882L315.931 28.2369Z" fill="url(#paint8_linear)"/>
<path d="M303.223 27.6186L298.484 30.3771L292.546 33.8303L271.599 46.0234L250.349 33.9004L244.341 30.474L239.545 27.7387L271.556 9.44402L303.223 27.6186Z" fill="url(#paint9_linear)"/>
<path d="M298.484 30.3777L292.546 33.8309L271.599 46.0241L250.349 33.9011L244.341 30.4746L271.556 14.925L298.484 30.3777Z" fill="url(#paint10_linear)"/>
<path d="M271.557 9.44402V14.9244L298.484 30.3771L303.224 27.6186L271.557 9.44402Z" fill="url(#paint11_linear)"/>
<path d="M153.847 101.09L164.87 107.365L179.71 98.813L168.686 92.538L153.847 101.09Z" fill="url(#paint12_linear)"/>
<path d="M179.71 98.813V106.439L168.329 120.091L164.762 113.299V107.365L179.71 98.813Z" fill="url(#paint13_linear)"/>
<path d="M153.847 101.089L164.761 107.364V113.298L153.847 107.364V101.089Z" fill="#E9024D"/>
<path d="M153.847 107.365L159.304 114.483L168.329 120.091L164.761 113.299L153.847 107.365Z" fill="url(#paint14_linear)"/>
<path d="M133.703 109.205L142.513 114.082C144.605 115.241 147.155 115.212 149.221 114.007L160.988 107.141C162.22 106.422 162.978 105.103 162.978 103.677C162.978 102.356 163.627 101.121 164.716 100.372L180.493 89.514C181.181 89.0404 182.119 89.533 182.119 90.3688C182.119 91.1968 183.042 91.691 183.731 91.2312L188.361 88.1446C191.019 86.3726 192.615 83.3907 192.615 80.197V70.7083C192.615 67.541 190.845 64.6399 188.03 63.1897L182.635 60.4103C180.357 59.2365 177.669 59.1592 175.327 60.2001L170.567 57.9236C167.621 56.5146 164.171 56.6537 161.348 58.2935L151.364 64.0932C146.96 66.6521 144.249 71.3613 144.249 76.4548V79.1347L139.696 82.1491C136.269 84.4179 134.299 88.3317 134.518 92.4367L134.576 93.541L133.182 94.9518C131.108 97.0489 129.946 99.8798 129.946 102.829C129.946 105.48 131.385 107.921 133.703 109.205H133.703Z" fill="white"/>
<path d="M145.424 78.8293L154.87 84.1193L145.424 78.8293Z" fill="white"/>
<path d="M145.424 78.8293L154.87 84.1193" stroke="black" stroke-linecap="round" stroke-linejoin="round"/>
<path d="M179.339 73.907V67.5391C179.339 64.5693 177.827 61.8029 175.326 60.1999" fill="white"/>
<path d="M179.339 73.907V67.5391C179.339 64.5693 177.827 61.8029 175.326 60.1999V60.1999" stroke="black" stroke-linecap="round" stroke-linejoin="round"/>
<path d="M143.792 106.923L148.099 104.48C149.069 103.93 149.667 102.902 149.667 101.788V92.9918" fill="white"/>
<path d="M143.792 106.923L148.099 104.48C149.069 103.93 149.667 102.902 149.667 101.788V92.9918" stroke="black" stroke-linecap="round" stroke-linejoin="round"/>
<path d="M138.979 84.7989L147.182 89.3923C147.955 89.8256 148.897 89.8273 149.672 89.3974L157.797 84.8916" fill="white"/>
<path d="M138.979 84.7989L147.182 89.3923C147.955 89.8256 148.897 89.8273 149.672 89.3974L157.797 84.8916" stroke="black" stroke-linecap="round" stroke-linejoin="round"/>
<path d="M179.339 73.5037L188.532 68.2899L179.339 73.5037Z" fill="white"/>
<path d="M179.339 73.5037L188.532 68.2899" stroke="black" stroke-linecap="round" stroke-linejoin="round"/>
<path d="M381.138 119.87L278.86 178.37C286.835 158.183 292.33 152.854 296.182 153.294C299.368 153.658 300.991 157.92 304.752 157.698C307.947 157.51 310.292 154.223 313.495 148.43C322.098 132.868 322.84 127.906 328.508 119.87C333.864 112.277 338.745 111.206 340.173 113.825C341.601 116.443 340.053 126.858 341.482 130.131C342.911 133.404 345.469 136.063 348.624 131.044C351.778 126.025 355.527 123.627 356.421 127.236C357.313 130.846 359.395 129.995 362.431 126.463C365.467 122.93 366.275 116.026 371.358 119.299C375.107 121.714 375.444 121.453 381.138 119.87H381.138Z" fill="white"/>
<path d="M231.672 485.78C229.76 485.78 227.868 484.931 226.601 483.307C224.417 480.508 224.914 476.47 227.713 474.286L250.863 456.219V406.448L192.117 372.329C190.137 371.178 188.918 369.061 188.918 366.77V340.089C188.918 337.803 190.132 335.688 192.107 334.537L208.432 325.014C211.501 323.225 215.435 324.262 217.223 327.327C219.011 330.394 217.975 334.329 214.91 336.119L201.773 343.78V363.071L260.519 397.19C262.5 398.34 263.719 400.458 263.719 402.748V459.356C263.719 461.336 262.806 463.205 261.246 464.423L235.622 484.42C234.448 485.337 233.055 485.78 231.672 485.78V485.78Z" fill="url(#paint15_linear)"/>
<g style="mix-blend-mode:screen" opacity="0.35">
<path d="M133.823 450.929L269.943 19.9111L235.953 453.079L186.872 481.153L133.823 450.929Z" fill="url(#paint16_linear)"/>
</g>
<path d="M361.606 377.741C359.389 377.741 357.232 376.593 356.04 374.536C354.259 371.466 355.305 367.533 358.376 365.752L412.649 334.29L377.432 309.135C374.544 307.072 373.874 303.057 375.938 300.169C378.001 297.279 382.016 296.612 384.904 298.674L428.231 329.622C430.008 330.891 431.019 332.975 430.915 335.156C430.811 337.337 429.607 339.317 427.718 340.413L364.824 376.874C363.809 377.462 362.7 377.741 361.606 377.741L361.606 377.741Z" fill="url(#paint17_linear)"/>
<path d="M6.87763 300.632C3.32754 300.652 0.433175 297.791 0.413482 294.241L0.236673 263.413C0.22327 261.018 1.54308 258.814 3.66064 257.694L34.5828 241.349C37.7206 239.689 41.6105 240.89 43.2684 244.027C44.9276 247.166 43.728 251.055 40.5894 252.713L13.1143 267.238L13.2676 294.168C13.2886 297.718 10.4277 300.612 6.87763 300.632V300.632Z" fill="url(#paint18_linear)"/>
<ellipse cx="37.9143" cy="270.789" rx="2.04665" ry="3.25604" stroke="white" stroke-linecap="round"/>
<ellipse cx="80.9873" cy="245.856" rx="1.76757" ry="3.62816" stroke="white" stroke-linecap="round"/>
<path d="M39.9609 270.137L79.2195 246.88" stroke="white" stroke-linecap="round"/>
<ellipse cx="27.2517" cy="290.375" rx="2.04665" ry="3.25604" stroke="white" stroke-linecap="round"/>
<ellipse cx="70.3244" cy="265.443" rx="1.76757" ry="3.62816" stroke="white" stroke-linecap="round"/>
<path d="M29.2983 289.725L68.5569 266.467" stroke="white" stroke-linecap="round"/>
<path d="M57.291 259.871V272.896" stroke="white" stroke-linecap="round"/>
<ellipse cx="365.072" cy="259.985" rx="2.04665" ry="3.25604" stroke="white"/>
<ellipse cx="408.145" cy="235.053" rx="1.76757" ry="3.62816" stroke="white"/>
<path d="M367.119 259.334L406.377 236.076" stroke="white"/>
<ellipse cx="354.41" cy="279.572" rx="2.04665" ry="3.25604" stroke="white"/>
<ellipse cx="397.482" cy="254.639" rx="1.76757" ry="3.62816" stroke="white"/>
<path d="M356.457 278.92L395.715 255.663" stroke="white"/>
<path d="M384.449 249.067V262.092" stroke="white"/>
<path d="M186.872 481.153V527.431L174.596 520.418C175.266 515.447 174.217 509.963 173.074 505.121C171.76 499.579 169.482 494.122 166.59 489.145L143.236 502.507L143.229 502.5L133.823 497.129V450.93L183.709 479.354L186.872 481.153Z" fill="url(#paint19_linear)"/>
<path d="M235.953 453.079V499.372L186.872 527.431V481.153L235.953 453.079Z" fill="url(#paint20_linear)"/>
<path d="M230.994 465.07V490.366L193.085 512.041V486.759L222.802 469.755L230.994 465.07Z" fill="url(#paint21_linear)"/>
<path d="M222.802 469.755V486.467L193.085 503.457V486.759L222.802 469.755Z" fill="url(#paint22_linear)"/>
<path d="M333.273 267.931V291.064L292.134 314.583V291.467L329.243 270.238L333.273 267.931Z" fill="#282526"/>
<path d="M329.243 270.238V287.657L292.134 308.877V291.467L329.243 270.238Z" fill="#E9024D"/>
<path d="M380.241 196.913L297.733 244.121V282.648L380.241 235.439V196.913Z" fill="#E9024D"/>
<path d="M375.242 205.533V232.54L302.732 274.028V247.021L375.242 205.533Z" fill="#282526"/>
<path d="M375.19 225.773L302.681 267.261" stroke="white"/>
<path d="M32.6494 385.834V428.881L88.7305 460.832V417.785L32.6494 385.834Z" fill="url(#paint23_linear)"/>
<path d="M32.6494 385.834L88.7305 417.785L140.617 388.106L84.6731 356.152L32.6494 385.834Z" fill="url(#paint24_linear)"/>
<path d="M88.2612 356.36L88.2093 356.315L88.1946 356.31C86.7102 355.193 84.7468 354.428 82.1511 354.297L82.1243 354.289L82.1193 354.296C81.8465 354.283 81.575 354.269 81.2884 354.27C68.3702 354.325 61.4288 374.104 62.4495 386.006L92.757 402.934L117.396 372.848C117.396 372.848 88.5478 356.58 88.2612 356.36Z" fill="url(#paint25_linear)"/>
<path d="M166.589 489.144L143.236 502.506L143.229 502.5C141.157 495.979 139.436 487.773 141.658 481.117C143.222 476.439 147.764 473.997 152.513 475.147C157.719 476.403 162.076 482.053 164.861 486.324C165.461 487.244 166.039 488.187 166.589 489.144H166.589Z" fill="url(#paint26_linear)"/>
<path d="M133.823 450.93L186.872 481.154L235.953 453.08L183.034 422.853L133.823 450.93Z" fill="url(#paint27_linear)"/>
<path d="M209.834 419.422L206.791 416.076C206.621 415.851 206.442 415.632 206.253 415.419C206.034 415.175 205.803 414.948 205.565 414.728L205.535 414.696L205.53 414.698C199.489 409.158 187.428 411.29 177.94 419.78C168.814 427.946 165.272 439.13 169.32 445.859L169.323 445.878L169.348 445.907C169.676 446.446 170.046 446.958 170.473 447.435C170.784 447.784 171.12 448.103 171.471 448.402L174.055 451.438L175.139 450.468C181.638 452.685 191.064 449.983 198.785 443.074C206.505 436.167 210.233 427.097 208.749 420.393L209.834 419.422Z" fill="url(#paint28_linear)"/>
<path d="M209.048 429.142L198.483 412.087" stroke="#E9024D" stroke-linecap="round" stroke-linejoin="round"/>
<path d="M191.553 412.732L205.432 434.588L207.241 436.435" stroke="#E9024D" stroke-linecap="round" stroke-linejoin="round"/>
<path d="M185.624 415.21L201.027 441.444L203.517 440.343" stroke="#E9024D" stroke-linecap="round" stroke-linejoin="round"/>
<path d="M178.874 419.855L200.051 444.118L199.788 444.242" stroke="#E9024D" stroke-linecap="round" stroke-linejoin="round"/>
<path d="M191.898 447.696L172.852 425.874" stroke="#E9024D" stroke-linecap="round" stroke-linejoin="round"/>
<path d="M185.759 450.373L169.581 431.831" stroke="#E9024D" stroke-linecap="round" stroke-linejoin="round"/>
<path d="M180.314 452.712L167.791 438.358" stroke="#E9024D" stroke-linecap="round" stroke-linejoin="round"/>
<ellipse cx="191.944" cy="435.43" rx="24.006" ry="15.6296" transform="rotate(-41.8225 191.944 435.43)" fill="url(#paint29_linear)"/>
<path d="M206.94 422.012C211.765 427.404 208.963 437.783 200.681 445.194C192.399 452.604 181.773 454.241 176.948 448.848" stroke="black" stroke-linecap="round" stroke-linejoin="round"/>
<path d="M222.802 486.466L230.994 490.366V465.07L222.802 469.755V486.466Z" fill="url(#paint30_linear)"/>
<path d="M397.276 410.241V432.693L430.923 451.931V429.491L404.547 414.399L397.276 410.241Z" fill="url(#paint31_linear)"/>
<path d="M404.547 414.399V429.232L430.923 444.312V429.492L404.547 414.399Z" fill="url(#paint32_linear)"/>
<path d="M404.547 429.232L397.276 432.693V410.241L404.547 414.399V429.232Z" fill="url(#paint33_linear)"/>
<path d="M152.395 446.027L158.703 444.014" stroke="white" stroke-linecap="round"/>
<path d="M157.512 414.602L162.749 419.173" stroke="white" stroke-linecap="round"/>
<path d="M172.51 399.634L175.128 405.674" stroke="white" stroke-linecap="round"/>
<path d="M200.839 394.843L199.552 402.044" stroke="white" stroke-linecap="round"/>
<path d="M219.883 410.317L215.717 415.942" stroke="white" stroke-linecap="round"/>
<path d="M221.907 429.599L217.801 431.535" stroke="white" stroke-linecap="round"/>
<ellipse cx="50.3388" cy="421.587" rx="2.73767" ry="4.78744" transform="rotate(-13.4835 50.3388 421.587)" stroke="white" stroke-linecap="round" stroke-linejoin="round"/>
<path d="M140.618 431.154V388.107L88.731 417.785V460.832L140.618 431.154Z" fill="#282526"/>
<path d="M276.336 452.206L332.417 484.158L384.303 454.479L328.359 422.525L276.336 452.206Z" fill="url(#paint34_linear)"/>
<path d="M303.561 448.882C300.011 448.882 297.134 446.004 297.134 442.454V404.96C297.134 402.668 298.354 400.549 300.338 399.4L340.785 375.951C343.858 374.169 347.789 375.217 349.57 378.288C351.35 381.358 350.304 385.292 347.232 387.072L309.989 408.664V442.454C309.989 446.004 307.111 448.882 303.561 448.882L303.561 448.882Z" fill="url(#paint35_linear)"/>
<path d="M384.303 497.526V454.479L332.417 484.158V527.205L384.303 497.526Z" fill="#282526" stroke="#E9024D"/>
<g style="mix-blend-mode:screen" opacity="0.35">
<path d="M355.583 446.569V418.699L321.99 437.914V465.783L355.583 446.569Z" fill="url(#paint36_linear)"/>
</g>
<g style="mix-blend-mode:screen" opacity="0.35">
<path d="M366.554 452.947V425.077L332.961 444.292V472.162L366.554 452.947Z" fill="url(#paint37_linear)"/>
</g>
<g style="mix-blend-mode:screen" opacity="0.35">
<path d="M355.583 418.699L321.99 437.914L355.583 418.699Z" fill="url(#paint38_linear)"/>
</g>
<path d="M384.303 467.585L332.417 497.263L384.303 467.585Z" fill="#282526"/>
<path d="M384.303 467.585L332.417 497.263" stroke="#E9024D"/>
<path d="M347.148 518.787V497.264L341.396 500.628V522.069L347.148 518.787Z" fill="url(#paint39_linear)"/>
<path d="M360.962 510.887V489.363L355.211 492.728V514.169L360.962 510.887Z" fill="url(#paint40_linear)"/>
<path d="M374.778 502.986V481.462L369.026 484.827V506.268L374.778 502.986Z" fill="url(#paint41_linear)"/>
<path d="M276.336 452.206V495.254L332.417 527.205V484.158L276.336 452.206Z" fill="#282526" stroke="#E9024D"/>
<path d="M111.857 423.706L97.8779 431.739V419.434L92.5232 422.576" stroke="white" stroke-linecap="round"/>
<path d="M112.009 431.293L98.8964 438.828V449.179L92.5232 452.757" stroke="white" stroke-linecap="round"/>
<path d="M75.7534 453.439V419.834L50.3384 405.296V416.803" stroke="white" stroke-linecap="round" stroke-linejoin="round"/>
<ellipse cx="91.5846" cy="423.023" rx="1.96398" ry="0.937354" transform="rotate(-75.5145 91.5846 423.023)" stroke="white" stroke-linecap="round"/>
<ellipse cx="91.7787" cy="452.757" rx="1.96398" ry="0.937354" transform="rotate(-75.5145 91.7787 452.757)" stroke="white" stroke-linecap="round"/>
<path d="M122.719 385.733C122.719 385.733 124.124 371.343 111.361 371.396C98.4424 371.451 91.5015 391.231 92.5226 403.132L122.719 385.733Z" fill="url(#paint42_linear)"/>
<path d="M101.657 385.033C99.4783 388.446 98.1861 392.91 97.9004 396.809C97.8145 397.931 97.8145 399.002 97.9004 399.987L100.729 398.373L113.069 391.31L117.369 388.853L104.657 381.583C103.523 382.502 102.519 383.684 101.657 385.033L101.657 385.033Z" fill="#282526"/>
<path d="M110.027 379.555C108.002 379.563 106.206 380.327 104.657 381.583L117.369 388.853C117.369 388.853 118.247 379.519 110.027 379.555V379.555Z" fill="url(#paint43_linear)"/>
<path d="M124.124 397.402V440.652L111.855 447.751V404.501L100.729 398.373L97.9004 396.809C98.1861 392.91 99.4783 388.446 101.657 385.033L113.069 391.31L124.124 397.402Z" fill="white"/>
<path d="M59.8481 380.505C59.2054 380.006 58.4093 379.647 57.3974 379.572C50.9902 379.102 48.7717 388.188 49.2146 393.357L79.5661 410.449L89.6666 397.297L59.8481 380.505Z" fill="url(#paint44_linear)"/>
<path d="M92.7572 402.935C92.7572 402.935 92.365 396.999 87.8035 396.664C81.3959 396.193 79.1778 405.279 79.6215 410.448L92.7572 402.935Z" fill="url(#paint45_linear)"/>
<circle cx="269.943" cy="13.5085" r="13.5085" fill="url(#paint46_linear)"/>
<circle cx="269.943" cy="19.9112" r="4.98612" stroke="white" stroke-linecap="round" stroke-linejoin="round"/>
<circle cx="269.943" cy="21.6937" r="2.9192" fill="#1D1E29"/>
<path d="M133.823 450.929L270.295 21.6931L235.953 453.078" stroke="#E9024D" stroke-linecap="round" stroke-linejoin="round"/>
<path d="M172.51 377.742L269.943 21.6937" stroke="#E9024D"/>
<path d="M270.294 21.6937L215.717 395.828" stroke="#E9024D" stroke-linecap="round" stroke-linejoin="round"/>
<path d="M455.706 119.33L396.958 152.944V125.512L455.706 91.8985V119.33Z" stroke="white" stroke-linecap="round" stroke-linejoin="round"/>
<path d="M512.602 176.074L485.943 191.399V163.967L512.602 148.642V176.074Z" stroke="white" stroke-linecap="round" stroke-linejoin="round"/>
<path d="M512.602 185.861L485.943 201.186" stroke="#E9024D"/>
<path d="M512.602 192.638L485.943 207.963" stroke="#E9024D"/>
<ellipse cx="448.679" cy="191.833" rx="39.7107" ry="24.728" transform="rotate(-64.3904 448.679 191.833)" stroke="#E9024D"/>
<ellipse cx="449.916" cy="192.126" rx="18.8763" ry="10.5061" transform="rotate(-64.3904 449.916 192.126)" stroke="#E9024D"/>
<g style="mix-blend-mode:screen" opacity="0.35">
<path fill-rule="evenodd" clip-rule="evenodd" d="M465.843 156.024C453.528 150.12 435.859 161.368 426.379 181.144C416.9 200.921 419.199 221.739 431.513 227.642C443.829 233.545 461.498 222.298 470.977 202.521C480.457 182.744 478.158 161.926 465.843 156.024ZM459.391 196.667C454.885 206.068 446.99 211.656 441.758 209.148C436.525 206.641 435.937 196.986 440.443 187.585C444.949 178.184 452.844 172.596 458.076 175.104C463.308 177.613 463.897 187.267 459.391 196.667Z" fill="url(#paint47_linear)"/>
</g>
<path d="M460.715 154.565L455.706 174.514" stroke="#E9024D"/>
<path d="M462.155 181.386L475.886 170.021" stroke="#E9024D"/>
<path d="M422.397 191.832L438.262 193.524" stroke="#E9024D"/>
<path d="M424.81 221.672L439.136 206.772" stroke="#E9024D"/>
<path d="M434.167 131.654V154.564L448.678 145.543V163.134" stroke="white"/>
<path d="M402.619 127.451V141.735L449.917 114.064" stroke="white" stroke-linecap="round" stroke-linejoin="round"/>
<path d="M403.108 131.999C403.877 131.329 405.26 131.616 405.699 132.537C406.141 133.463 405.749 134.794 406.567 135.414C407.058 135.786 407.774 135.679 408.31 135.375C410.118 134.349 410.276 131.649 410.898 129.883C411.971 126.832 413.543 122.852 416.2 120.832C416.472 120.626 416.769 120.433 417.105 120.372C417.721 120.263 418.348 120.637 418.691 121.159C419.035 121.682 419.142 122.324 419.177 122.948C419.21 123.572 419.18 124.202 419.283 124.819C419.564 126.502 421.383 125.988 422.232 125.032C422.855 124.331 423.21 123.435 423.759 122.675C424.319 121.902 425.127 121.255 426.071 121.121C426.632 121.042 427.239 121.178 427.704 121.507C428.24 121.886 428.404 122.572 428.986 122.903C429.735 123.33 430.682 122.816 431.265 122.18C431.942 121.443 432.412 120.595 433.446 120.312C434.034 120.151 434.659 120.19 435.255 120.064C436.309 119.84 437.178 119.13 438.062 118.515C439.077 117.807 439.992 117.534 441.2 117.422C442.392 117.312 443.68 117.184 444.719 116.538" stroke="white" stroke-linecap="round" stroke-linejoin="round"/>
<ellipse cx="449.219" cy="164.923" rx="2.74062" ry="2.05075" transform="rotate(-39.7451 449.219 164.923)" stroke="white"/>
<ellipse cx="485.062" cy="201.07" rx="1.29444" ry="2.76743" stroke="#E9024D"/>
<ellipse cx="485.062" cy="208.257" rx="1.29444" ry="2.76743" stroke="#E9024D"/>
<ellipse cx="513.673" cy="185.805" rx="1.29444" ry="2.76743" stroke="#E9024D"/>
<ellipse cx="513.673" cy="192.991" rx="1.29444" ry="2.76743" stroke="#E9024D"/>
<path d="M490.701 183.633L494.747 166.611L499.273 176.134L504.508 158.517L506.055 165.778L508.912 154.565" stroke="white" stroke-linecap="round" stroke-linejoin="round"/>
<path d="M311.321 333V320.426L301.97 325.768V327.88L311.321 333Z" fill="url(#paint48_linear)"/>
<path d="M465.565 325.481C465.497 325.431 465.429 325.384 465.359 325.341L465.325 325.318V325.321C464.412 324.784 463.352 324.891 462.192 325.932C458.711 329.058 459.603 337.091 457.729 349.054C456.422 357.391 455.938 362.214 454.647 364.705L452.288 359.014L447.339 355.213C447.194 355.075 447.042 354.953 446.877 354.858L446.869 354.853V354.855C446.544 354.67 446.18 354.572 445.767 354.588C441.214 354.767 440.143 368.515 440.41 380.834C440.678 393.154 437.554 394.136 432.787 400.296C428.021 406.455 430.756 407.206 430.756 407.206L437.278 411.632L468.834 386.012L472.092 329.911L465.565 325.481Z" fill="url(#paint49_linear)"/>
<path d="M437.278 411.633C437.278 411.633 434.543 410.882 439.309 404.723C444.075 398.562 447.2 397.581 446.932 385.261C446.664 372.942 447.735 359.194 452.288 359.015C456.841 358.836 455.591 372.138 458.895 371.156C462.198 370.174 462.376 365.443 464.251 353.48C466.125 341.518 465.233 333.484 468.714 330.36C472.196 327.235 474.785 332.487 475.142 338.52C475.499 344.554 475.355 390.439 475.355 390.439L437.278 411.633Z" fill="white"/>
<path d="M318.68 242.261L322.37 240.037C322.821 239.765 323.248 239.722 323.653 239.908C324.059 240.093 324.263 240.491 324.267 241.099C324.268 241.328 324.198 241.564 324.055 241.809C323.913 242.054 323.755 242.229 323.58 242.334C323.339 242.48 323.172 242.519 323.081 242.449C322.99 242.38 322.904 242.201 322.82 241.914C322.736 241.627 322.553 241.569 322.271 241.739L318.764 243.852C318.596 243.954 318.512 244.067 318.513 244.189C318.508 244.27 318.543 244.338 318.617 244.395L323.931 248.798C324.187 249.012 324.316 249.328 324.319 249.747C324.322 250.223 324.171 250.734 323.867 251.281C323.563 251.826 323.222 252.213 322.845 252.44L319.025 254.743C318.519 255.048 318.078 255.096 317.701 254.886C317.324 254.678 317.135 254.313 317.131 253.793C317.128 253.197 317.373 252.75 317.868 252.451C318.059 252.336 318.223 252.315 318.358 252.389C318.495 252.463 318.563 252.605 318.564 252.814C318.565 252.986 318.618 253.097 318.723 253.149C318.828 253.2 318.959 253.178 319.116 253.083L322.642 250.959C322.794 250.867 322.869 250.753 322.868 250.617C322.872 250.551 322.837 250.489 322.763 250.431L317.458 246.024C317.208 245.812 317.081 245.494 317.079 245.069C317.076 244.574 317.231 244.049 317.543 243.495C317.857 242.94 318.236 242.529 318.68 242.261L318.68 242.261Z" fill="white"/>
<path d="M331.47 245.639L334.028 244.097C334.225 243.979 334.396 243.954 334.54 244.022C334.684 244.092 334.757 244.237 334.759 244.459C334.759 244.682 334.689 244.913 334.547 245.155C334.404 245.396 334.234 245.576 334.038 245.696L331.39 247.292C331.053 247.495 330.703 247.584 330.341 247.56C329.98 247.536 329.729 247.417 329.586 247.204L327.928 244.622C327.706 244.24 327.594 243.781 327.59 243.242C327.587 242.645 327.687 242.066 327.893 241.502L329.524 236.977C329.68 236.552 329.923 236.114 330.253 235.664C330.583 235.213 330.903 234.895 331.212 234.709L334.012 233.021C334.209 232.903 334.377 232.881 334.516 232.957C334.654 233.032 334.724 233.178 334.726 233.393C334.727 233.616 334.659 233.849 334.523 234.093C334.385 234.338 334.219 234.52 334.022 234.638L331.325 236.264C331.1 236.401 330.918 236.66 330.779 237.043L329.228 241.299C329.106 241.634 329.045 241.979 329.049 242.334C329.05 242.71 329.119 242.999 329.256 243.202L330.775 245.553C330.918 245.805 331.149 245.833 331.47 245.639L331.47 245.639Z" fill="white"/>
<path fill-rule="evenodd" clip-rule="evenodd" d="M338.063 242.152L340.849 229.497C340.961 229.032 341.198 228.69 341.562 228.471C341.915 228.258 342.138 228.293 342.23 228.574L345.122 237.974C345.145 238.043 345.157 238.115 345.158 238.191C345.158 238.414 345.092 238.643 344.958 238.88C344.824 239.116 344.67 239.287 344.496 239.392C344.125 239.616 343.888 239.564 343.784 239.239L343.211 237.407L339.967 239.362L339.364 242.058C339.347 242.169 339.278 242.308 339.153 242.474C339.031 242.64 338.894 242.769 338.748 242.856C338.539 242.982 338.365 243.007 338.229 242.93C338.092 242.853 338.023 242.701 338.022 242.472C338.022 242.377 338.034 242.271 338.063 242.152L338.063 242.152ZM341.574 232.178L340.386 237.486L342.784 236.041L341.574 232.178Z" fill="white"/>
<path d="M355.524 220.878L355.595 232.703L353.694 233.849L349.818 226.331L349.872 235.35C349.874 235.572 349.806 235.802 349.668 236.041C349.532 236.279 349.365 236.457 349.168 236.576C348.972 236.695 348.804 236.718 348.665 236.645C348.526 236.573 348.457 236.426 348.455 236.204L348.384 224.36L350.256 223.231L354.144 230.722L354.09 221.742C354.088 221.52 354.16 221.284 354.302 221.036C354.444 220.788 354.614 220.605 354.811 220.486C355.008 220.368 355.175 220.346 355.314 220.421C355.453 220.498 355.523 220.649 355.524 220.878Z" fill="white"/>
<path d="M201.773 343.781V340.089V343.781Z" fill="white"/>
<path d="M201.773 343.781V340.089" stroke="black" stroke-linecap="round" stroke-linejoin="round"/>
<path d="M201.773 363.071L198.491 361.277" stroke="#E9024D" stroke-linecap="round" stroke-linejoin="round"/>
<path d="M250.864 406.448V403.131" stroke="black" stroke-linecap="round" stroke-linejoin="round"/>
<path d="M250.864 456.219V461.975" stroke="black" stroke-linecap="round" stroke-linejoin="round"/>
<path d="M107.616 395.001L118.278 400.481V414.601" stroke="#282526"/>
<path d="M114.674 406.507V437.009" stroke="#282526"/>
<path d="M121.447 425.587V442.202" stroke="#282526"/>
<path d="M100.972 229.785V245.05L79.8369 231.509L54.9956 244.458C51.8548 246.097 47.9675 244.878 46.3288 241.729C44.6897 238.58 45.9081 234.701 49.0572 233.063L77.194 218.389C79.2365 217.325 81.6905 217.437 83.6296 218.681L100.972 229.785Z" fill="url(#paint50_linear)"/>
<path d="M79.8337 231.51V222.482" stroke="#E9024D"/>
<circle cx="51.7572" cy="238.775" r="6.15976" fill="url(#paint51_linear)" stroke="#E9024D"/>
<circle cx="51.7573" cy="238.775" r="4.56443" fill="url(#paint52_linear)"/>
<path d="M13.1123 267.276L13.0808 261.772" stroke="#E9024D"/>
<path d="M54.5081 361.993C53.3986 361.993 52.2745 361.706 51.25 361.101L3.40035 332.891C1.4399 331.736 0.236572 329.63 0.236572 327.355V317.594C0.236572 314.044 3.1146 311.167 6.66469 311.167C10.2148 311.167 13.092 314.044 13.092 317.594V323.683L57.7783 350.027C60.8365 351.831 61.8542 355.771 60.0513 358.828C58.8517 360.862 56.709 361.993 54.5081 361.993L54.5081 361.993Z" fill="url(#paint53_linear)"/>
<path d="M13.0921 323.683L6.66455 327.533" stroke="#E9024D"/>
<ellipse cx="6.66383" cy="314.797" rx="5.78932" ry="3.83857" fill="url(#paint54_linear)"/>
<ellipse cx="6.66438" cy="314.663" rx="4.01692" ry="2.66339" fill="url(#paint55_linear)"/>
<circle cx="361.543" cy="371.423" r="5.1967" fill="url(#paint56_linear)"/>
<path d="M521.277 324.02L526.027 326.342L521.277 324.02Z" fill="white"/>
<path d="M521.277 324.02L526.027 326.342" stroke="black" stroke-linecap="round" stroke-linejoin="round"/>
<path d="M521.277 309.015V304.559V309.015Z" fill="white"/>
<path d="M521.277 309.015V304.559" stroke="black" stroke-linecap="round" stroke-linejoin="round"/>
<path d="M412.649 334.289L416.431 331.995L412.649 334.289Z" fill="white"/>
<path d="M412.649 334.289L416.431 331.995" stroke="black" stroke-linecap="round" stroke-linejoin="round"/>
<path d="M309.989 408.663L305.704 405.674L309.989 408.663Z" fill="white"/>
<path d="M309.989 408.663L305.704 405.674" stroke="black" stroke-linecap="round" stroke-linejoin="round"/>
<path d="M97.4107 669.2V644.824H130.413V633.341H97.4107V615.365H132.293V603.412H84.9998V669.2H97.4107Z" fill="#FAFBFB"/>
<path d="M140.261 622.8V647.176C140.261 661.576 148.347 669.953 159.442 669.953C165.93 669.953 170.349 667.694 175.144 662.988L175.896 669.294H186.144V622.8H174.768V646.518C174.768 653.576 169.973 659.506 162.921 659.506C155.587 659.506 151.732 654.141 151.732 647.082V622.8H140.261Z" fill="#FAFBFB"/>
<path d="M207.547 622.612V679.082C207.547 690.565 202.564 698 192.127 698C188.743 698 185.17 697.059 181.879 694.894L186.016 685.953C187.99 686.894 189.871 687.365 191.563 687.271C195.324 687.082 196.17 684.165 196.17 679.082V622.612H207.547ZM195.136 609.624C195.136 618.565 208.675 618.565 208.675 609.624C208.675 600.682 195.136 600.682 195.136 609.624Z" fill="#FAFBFB"/>
<path d="M228.762 622.612V669.2H217.291V622.612H228.762ZM216.257 609.718C216.257 618.659 229.796 618.659 229.796 609.718C229.796 600.776 216.257 600.776 216.257 609.718Z" fill="#FAFBFB"/>
<path d="M272.724 603.318C264.638 603.318 254.953 603.318 246.867 603.318V669.2C254.953 669.2 264.638 669.2 272.724 669.2C295.759 669.2 305.914 652.353 305.631 635.694C305.349 619.412 295.289 603.318 272.724 603.318ZM259.184 615.082H272.724C287.015 615.082 293.032 625.341 293.315 635.6C293.597 646.329 287.673 657.247 272.724 657.247H259.184V615.082Z" fill="#FAFBFB"/>
<path d="M366.1 669.2H379.639L350.116 603.318H336.577L307.054 669.2H320.499L326.14 656.776H360.552L366.1 669.2ZM355.569 645.2H331.123L343.346 617.153L355.569 645.2Z" fill="#FAFBFB"/>
<path d="M412.243 602C389.49 602 378.395 619.412 378.395 636.729C378.395 654.047 389.114 670.706 412.243 670.706C435.373 670.706 445.809 653.671 445.997 636.635C446.185 619.412 434.903 602 412.243 602ZM412.243 613.294C427.757 613.294 433.963 625.718 433.775 636.824C433.586 647.647 427.757 659.318 412.243 659.318C396.73 659.318 390.9 647.741 390.618 636.918C390.336 625.812 396.73 613.294 412.243 613.294Z" fill="#FAFBFB"/>
<path d="M13.975 743.254V735.058H24.5457V731.197H13.975V725.153H25.148V721.134H9.99976V743.254H13.975Z" fill="#F5F5FD"/>
<path d="M31.2841 727.59V743.254H27.6099V727.59H31.2841ZM27.2787 723.255C27.2787 726.261 31.6153 726.261 31.6153 723.255C31.6153 720.248 27.2787 720.248 27.2787 723.255Z" fill="#F5F5FD"/>
<path d="M34.6095 727.653V743.254H38.2836V735.026C38.2836 732.147 40.0605 731.071 41.9879 731.071C43.1925 731.071 43.8852 731.419 44.638 732.083L46.2944 728.729C45.4813 727.875 44.0056 727.242 42.4697 727.242C40.9639 727.242 39.428 727.527 38.2836 729.457L38.0126 727.653H34.6095Z" fill="#F5F5FD"/>
<path d="M59.4126 729.267C57.696 727.685 55.9493 727.21 53.6304 727.21C50.92 727.21 47.3663 728.476 47.3663 732.083C47.3663 735.627 50.7092 736.703 53.51 736.925C55.6181 737.051 56.4613 737.494 56.4613 738.57C56.4613 739.71 55.1663 740.469 53.781 740.437C52.1246 740.406 49.7154 739.488 48.6613 738.254L46.8544 741.007C49.0227 743.38 51.3717 743.792 53.7208 743.792C57.9671 743.792 60.1053 741.418 60.1053 738.665C60.1053 734.52 56.5517 733.855 53.7509 733.666C51.8536 733.539 50.9802 732.969 50.9802 731.957C50.9802 730.976 51.9439 730.406 53.6907 730.406C55.1061 730.406 56.3107 730.754 57.3648 731.799L59.4126 729.267Z" fill="#F5F5FD"/>
<path d="M63.9665 723.666V727.685H61.1958V731.007H63.9665V737.748C63.9665 741.64 66.0746 743.57 69.297 743.444C70.4113 743.412 71.2846 743.222 72.3387 742.779L71.3147 739.488C70.7726 739.773 70.1101 739.963 69.5379 739.963C68.3935 739.963 67.6105 739.235 67.6105 737.748V731.007H71.7363V727.685H67.6406V723.255L63.9665 723.666Z" fill="#F5F5FD"/>
<path d="M87.564 727.337C82.8359 727.337 79.8845 731.007 79.8845 735.469C79.8845 739.963 82.7757 743.602 87.5942 743.602C92.4127 743.602 95.3339 739.963 95.3339 735.469C95.3339 731.007 92.2922 727.337 87.564 727.337ZM87.5942 730.849C90.0637 730.849 91.6297 733.128 91.6297 735.469C91.6297 737.843 90.2745 740.058 87.5942 740.058C84.9139 740.058 83.5587 737.843 83.5587 735.469C83.5587 733.128 84.944 730.849 87.5942 730.849Z" fill="#F5F5FD"/>
<path d="M112.476 743.254V735.058C112.476 730.153 109.676 727.4 106.182 727.4C104.315 727.4 102.809 728.191 101.303 729.742L101.062 727.622H97.7799V743.254H101.424V735.279C101.424 732.906 102.96 730.912 105.218 730.912C107.567 730.912 108.802 732.716 108.802 735.089V743.254H112.476Z" fill="#F5F5FD"/>
<path d="M115.483 734.71H126.596V731.166H115.483V734.71Z" fill="#F5F5FD"/>
<path d="M139.697 738.729C138.793 739.678 137.619 740.026 136.444 740.026C134.155 740.026 132.228 738.444 132.228 735.469C132.228 732.748 134.035 730.849 136.504 730.849C137.528 730.849 138.612 731.261 139.486 732.083L141.805 729.52C140.178 727.843 138.552 727.21 136.444 727.21C132.137 727.21 128.554 729.932 128.554 735.469C128.554 741.007 132.137 743.728 136.444 743.728C138.642 743.728 140.449 743.032 142.166 741.26L139.697 738.729Z" fill="#F5F5FD"/>
<path d="M143.779 721.103V743.254H147.453V735.279C147.453 732.938 148.959 731.007 151.127 731.007C153.085 731.007 154.5 732.21 154.5 735.058V743.254H158.174V735.026C158.174 730.438 156.307 727.432 152.091 727.432C150.405 727.432 148.778 727.97 147.453 729.773V721.103H143.779Z" fill="#F5F5FD"/>
<path d="M172.933 729.805C172.09 728.254 170.192 727.273 168.205 727.273C163.868 727.242 160.465 730.058 160.465 735.438C160.465 740.912 163.717 743.76 168.114 743.728C169.771 743.697 172.09 742.811 172.933 740.975L173.113 743.254H176.577V727.653H173.053L172.933 729.805ZM168.536 730.723C174.318 730.723 174.318 740.184 168.536 740.184C166.097 740.184 164.139 738.412 164.139 735.438C164.139 732.463 166.097 730.723 168.536 730.723Z" fill="#F5F5FD"/>
<path d="M183.363 727.59V743.254H179.689V727.59H183.363ZM179.357 723.255C179.357 726.261 183.694 726.261 183.694 723.255C183.694 720.248 179.357 720.248 179.357 723.255Z" fill="#F5F5FD"/>
<path d="M201.294 743.254V735.058C201.294 730.153 198.494 727.4 195 727.4C193.133 727.4 191.627 728.191 190.121 729.742L189.88 727.622H186.598V743.254H190.242V735.279C190.242 732.906 191.778 730.912 194.036 730.912C196.385 730.912 197.62 732.716 197.62 735.089V743.254H201.294Z" fill="#F5F5FD"/>
<path d="M218.761 730.881C221.11 730.881 222.977 732.621 222.977 735.438C222.977 738.159 221.11 740.026 218.761 740.026C216.442 740.026 214.455 738.254 214.455 735.438C214.455 732.716 216.442 730.881 218.761 730.881ZM210.54 721.134V743.254H213.973L214.214 741.102C215.358 742.969 217.195 743.602 219.002 743.602C223.369 743.602 226.652 740.564 226.652 735.438C226.652 730.058 223.429 727.273 219.092 727.273C217.526 727.273 215.087 728.159 214.214 729.773V721.134H210.54Z" fill="#F5F5FD"/>
<path d="M236.349 727.337C231.621 727.337 228.669 731.007 228.669 735.469C228.669 739.963 231.56 743.602 236.379 743.602C241.197 743.602 244.119 739.963 244.119 735.469C244.119 731.007 241.077 727.337 236.349 727.337ZM236.379 730.849C238.848 730.849 240.414 733.128 240.414 735.469C240.414 737.843 239.059 740.058 236.379 740.058C233.699 740.058 232.343 737.843 232.343 735.469C232.343 733.128 233.729 730.849 236.379 730.849Z" fill="#F5F5FD"/>
<path d="M246.655 727.653V743.254H250.329V735.026C250.329 732.147 252.106 731.071 254.033 731.071C255.238 731.071 255.931 731.419 256.684 732.083L258.34 728.729C257.527 727.875 256.051 727.242 254.515 727.242C253.009 727.242 251.473 727.527 250.329 729.457L250.058 727.653H246.655Z" fill="#F5F5FD"/>
<path d="M259.713 727.653V743.254H263.387V735.026C263.387 732.147 265.164 731.071 267.091 731.071C268.296 731.071 268.989 731.419 269.742 732.083L271.398 728.729C270.585 727.875 269.109 727.242 267.573 727.242C266.067 727.242 264.531 727.527 263.387 729.457L263.116 727.653H259.713Z" fill="#F5F5FD"/>
<path d="M279.758 727.337C275.03 727.337 272.078 731.007 272.078 735.469C272.078 739.963 274.969 743.602 279.788 743.602C284.606 743.602 287.528 739.963 287.528 735.469C287.528 731.007 284.486 727.337 279.758 727.337ZM279.788 730.849C282.257 730.849 283.823 733.128 283.823 735.469C283.823 737.843 282.468 740.058 279.788 740.058C277.108 740.058 275.752 737.843 275.752 735.469C275.752 733.128 277.138 730.849 279.788 730.849Z" fill="#F5F5FD"/>
<path d="M299.837 727.622L296.615 739.361L293.212 727.622H289.116L294.326 743.317H298.602L300.138 738.697L301.463 733.476L302.788 738.697L304.324 743.317H308.601L313.781 727.622H309.715L306.312 739.361L303.059 727.622H299.837Z" fill="#F5F5FD"/>
<path d="M320.56 727.59V743.254H316.886V727.59H320.56ZM316.555 723.255C316.555 726.261 320.891 726.261 320.891 723.255C320.891 720.248 316.555 720.248 316.555 723.255Z" fill="#F5F5FD"/>
<path d="M338.492 743.254V735.058C338.492 730.153 335.691 727.4 332.197 727.4C330.33 727.4 328.824 728.191 327.319 729.742L327.078 727.622H323.795V743.254H327.439V735.279C327.439 732.906 328.975 730.912 331.234 730.912C333.583 730.912 334.817 732.716 334.817 735.089V743.254H338.492Z" fill="#F5F5FD"/>
<path d="M351.828 728.033C350.804 727.305 349.6 727.147 348.425 727.147C344.269 727.147 340.896 730.185 340.896 735.058C340.896 739.931 343.787 742.906 348.425 742.906C350.262 742.906 352.19 743.887 352.19 746.038C352.19 748.19 350.533 749.393 348.425 749.393C346.317 749.393 344.54 748.064 344.54 746.038H340.896C340.896 750.247 344.118 753 348.425 753C352.732 753 355.864 750.342 355.864 746.038C355.864 744.045 355.261 742.178 352.792 740.88C355.231 739.71 355.924 736.988 355.924 735.058C355.924 733.349 355.502 731.799 354.358 730.438L356.014 728.223L353.304 726.071L351.828 728.033ZM348.425 730.659C350.533 730.659 352.28 732.368 352.28 735.058C352.28 737.748 350.533 739.393 348.425 739.393C346.287 739.393 344.54 737.779 344.54 735.058C344.54 732.336 346.287 730.659 348.425 730.659Z" fill="#F5F5FD"/>
<path d="M376.008 729.805C375.165 728.254 373.268 727.273 371.28 727.273C366.943 727.242 363.54 730.058 363.54 735.438C363.54 740.912 366.793 743.76 371.19 743.728C372.846 743.697 375.165 742.811 376.008 740.975L376.189 743.254H379.652V727.653H376.129L376.008 729.805ZM371.611 730.723C377.394 730.723 377.394 740.184 371.611 740.184C369.172 740.184 367.214 738.412 367.214 735.438C367.214 732.463 369.172 730.723 371.611 730.723Z" fill="#F5F5FD"/>
<path d="M392.943 728.033C391.919 727.305 390.715 727.147 389.54 727.147C385.384 727.147 382.011 730.185 382.011 735.058C382.011 739.931 384.902 742.906 389.54 742.906C391.377 742.906 393.305 743.887 393.305 746.038C393.305 748.19 391.648 749.393 389.54 749.393C387.432 749.393 385.655 748.064 385.655 746.038H382.011C382.011 750.247 385.234 753 389.54 753C393.847 753 396.979 750.342 396.979 746.038C396.979 744.045 396.376 742.178 393.907 740.88C396.346 739.71 397.039 736.988 397.039 735.058C397.039 733.349 396.617 731.799 395.473 730.438L397.129 728.223L394.419 726.071L392.943 728.033ZM389.54 730.659C391.648 730.659 393.395 732.368 393.395 735.058C393.395 737.748 391.648 739.393 389.54 739.393C387.402 739.393 385.655 737.779 385.655 735.058C385.655 732.336 387.402 730.659 389.54 730.659Z" fill="#F5F5FD"/>
<path d="M409.56 728.033C408.536 727.305 407.331 727.147 406.157 727.147C402.001 727.147 398.628 730.185 398.628 735.058C398.628 739.931 401.519 742.906 406.157 742.906C407.994 742.906 409.921 743.887 409.921 746.038C409.921 748.19 408.265 749.393 406.157 749.393C404.049 749.393 402.272 748.064 402.272 746.038H398.628C398.628 750.247 401.85 753 406.157 753C410.463 753 413.595 750.342 413.595 746.038C413.595 744.045 412.993 742.178 410.523 740.88C412.963 739.71 413.656 736.988 413.656 735.058C413.656 733.349 413.234 731.799 412.09 730.438L413.746 728.223L411.035 726.071L409.56 728.033ZM406.157 730.659C408.265 730.659 410.012 732.368 410.012 735.058C410.012 737.748 408.265 739.393 406.157 739.393C404.018 739.393 402.272 737.779 402.272 735.058C402.272 732.336 404.018 730.659 406.157 730.659Z" fill="#F5F5FD"/>
<path d="M415.997 727.653V743.254H419.671V735.026C419.671 732.147 421.448 731.071 423.376 731.071C424.58 731.071 425.273 731.419 426.026 732.083L427.682 728.729C426.869 727.875 425.393 727.242 423.857 727.242C422.352 727.242 420.816 727.527 419.671 729.457L419.4 727.653H415.997Z" fill="#F5F5FD"/>
<path d="M443.782 736.83C444.354 730.406 441.252 727.178 436.283 727.178C431.465 727.178 428.393 730.596 428.393 735.343C428.393 740.342 431.434 743.665 436.554 743.665C438.813 743.665 441.373 742.842 442.939 741.133L440.59 738.697C439.746 739.615 437.97 740.153 436.614 740.153C434.024 740.153 432.428 738.76 432.187 736.83H443.782ZM432.248 733.634C432.79 731.609 434.416 730.596 436.404 730.596C438.512 730.596 440.017 731.609 440.258 733.634H432.248Z" fill="#F5F5FD"/>
<path d="M456.792 728.033C455.768 727.305 454.564 727.147 453.389 727.147C449.233 727.147 445.86 730.185 445.86 735.058C445.86 739.931 448.751 742.906 453.389 742.906C455.226 742.906 457.154 743.887 457.154 746.038C457.154 748.19 455.497 749.393 453.389 749.393C451.281 749.393 449.504 748.064 449.504 746.038H445.86C445.86 750.247 449.082 753 453.389 753C457.696 753 460.828 750.342 460.828 746.038C460.828 744.045 460.225 742.178 457.756 740.88C460.195 739.71 460.888 736.988 460.888 735.058C460.888 733.349 460.466 731.799 459.322 730.438L460.978 728.223L458.268 726.071L456.792 728.033ZM453.389 730.659C455.497 730.659 457.244 732.368 457.244 735.058C457.244 737.748 455.497 739.393 453.389 739.393C451.251 739.393 449.504 737.779 449.504 735.058C449.504 732.336 451.251 730.659 453.389 730.659Z" fill="#F5F5FD"/>
<path d="M474.884 729.805C474.041 728.254 472.144 727.273 470.156 727.273C465.82 727.242 462.416 730.058 462.416 735.438C462.416 740.912 465.669 743.76 470.066 743.728C471.722 743.697 474.041 742.811 474.884 740.975L475.065 743.254H478.528V727.653H475.005L474.884 729.805ZM470.488 730.723C476.27 730.723 476.27 740.184 470.488 740.184C468.048 740.184 466.091 738.412 466.091 735.438C466.091 732.463 468.048 730.723 470.488 730.723Z" fill="#F5F5FD"/>
<path d="M482.499 723.666V727.685H479.728V731.007H482.499V737.748C482.499 741.64 484.607 743.57 487.829 743.444C488.944 743.412 489.817 743.222 490.871 742.779L489.847 739.488C489.305 739.773 488.643 739.963 488.07 739.963C486.926 739.963 486.143 739.235 486.143 737.748V731.007H490.269V727.685H486.173V723.255L482.499 723.666Z" fill="#F5F5FD"/>
<path d="M500.009 727.337C495.281 727.337 492.329 731.007 492.329 735.469C492.329 739.963 495.22 743.602 500.039 743.602C504.857 743.602 507.779 739.963 507.779 735.469C507.779 731.007 504.737 727.337 500.009 727.337ZM500.039 730.849C502.508 730.849 504.074 733.128 504.074 735.469C504.074 737.843 502.719 740.058 500.039 740.058C497.359 740.058 496.003 737.843 496.003 735.469C496.003 733.128 497.389 730.849 500.039 730.849Z" fill="#F5F5FD"/>
<path d="M510.315 727.653V743.254H513.989V735.026C513.989 732.147 515.766 731.071 517.693 731.071C518.898 731.071 519.591 731.419 520.343 732.083L522 728.729C521.187 727.875 519.711 727.242 518.175 727.242C516.669 727.242 515.133 727.527 513.989 729.457L513.718 727.653H510.315Z" fill="#F5F5FD"/>
<defs>
<linearGradient id="paint0_linear" x1="593.892" y1="297.455" x2="478.443" y2="172.421" gradientUnits="userSpaceOnUse">
<stop stop-color="#E9024D"/>
<stop offset="1" stop-color="#101010"/>
</linearGradient>
<linearGradient id="paint1_linear" x1="385.325" y1="425.506" x2="493.293" y2="425.506" gradientUnits="userSpaceOnUse">
<stop stop-color="#E9024D"/>
<stop offset="0.0455207" stop-color="#EA044E"/>
<stop offset="1" stop-color="#FA246B"/>
</linearGradient>
<linearGradient id="paint2_linear" x1="477.858" y1="347.142" x2="381.603" y2="383.726" gradientUnits="userSpaceOnUse">
<stop stop-color="#E9024D"/>
<stop offset="1" stop-color="#101010"/>
</linearGradient>
<linearGradient id="paint3_linear" x1="379.715" y1="390.315" x2="391.371" y2="469.657" gradientUnits="userSpaceOnUse">
<stop stop-color="#E9024D"/>
<stop offset="1" stop-color="#101010"/>
</linearGradient>
<linearGradient id="paint4_linear" x1="394.66" y1="529.99" x2="598.042" y2="204.076" gradientUnits="userSpaceOnUse">
<stop stop-color="#E9024D"/>
<stop offset="1" stop-color="#101010"/>
</linearGradient>
<linearGradient id="paint5_linear" x1="29.5025" y1="309.629" x2="200.262" y2="454.6" gradientUnits="userSpaceOnUse">
<stop stop-color="#E9024D"/>
<stop offset="1" stop-color="#101010"/>
</linearGradient>
<linearGradient id="paint6_linear" x1="461.727" y1="345.778" x2="462.75" y2="30.4865" gradientUnits="userSpaceOnUse">
<stop stop-color="#E9024D"/>
<stop offset="1" stop-color="#101010"/>
</linearGradient>
<linearGradient id="paint7_linear" x1="317.127" y1="92.5639" x2="314.735" y2="14.1863" gradientUnits="userSpaceOnUse">
<stop stop-color="white"/>
<stop offset="0.165992" stop-color="#FEF8FB"/>
<stop offset="0.395308" stop-color="#FEE6F0"/>
<stop offset="0.661447" stop-color="#FDC9DE"/>
<stop offset="0.953336" stop-color="#FCA1C6"/>
<stop offset="1" stop-color="#FC9AC2"/>
</linearGradient>
<linearGradient id="paint8_linear" x1="105.674" y1="-29.1737" x2="125.977" y2="132.527" gradientUnits="userSpaceOnUse">
<stop stop-color="white"/>
<stop offset="1" stop-color="#FC9AC2"/>
</linearGradient>
<linearGradient id="paint9_linear" x1="259.347" y1="48.6732" x2="268.777" y2="30.1286" gradientUnits="userSpaceOnUse">
<stop stop-color="#E9024D"/>
<stop offset="0.227603" stop-color="#B8053F"/>
<stop offset="1" stop-color="#101010"/>
</linearGradient>
<linearGradient id="paint10_linear" x1="326.54" y1="65.7482" x2="324.25" y2="7.32961" gradientUnits="userSpaceOnUse">
<stop stop-color="#E9024D"/>
<stop offset="0.136603" stop-color="#D10346"/>
<stop offset="0.42373" stop-color="#960735"/>
<stop offset="0.834249" stop-color="#380D1B"/>
<stop offset="1" stop-color="#101010"/>
</linearGradient>
<linearGradient id="paint11_linear" x1="306.33" y1="21.6052" x2="295.798" y2="3.15268" gradientUnits="userSpaceOnUse">
<stop stop-color="#E9024D"/>
<stop offset="1" stop-color="#101010"/>
</linearGradient>
<linearGradient id="paint12_linear" x1="180.345" y1="102.822" x2="176.441" y2="92.5634" gradientUnits="userSpaceOnUse">
<stop stop-color="#E9024D"/>
<stop offset="1" stop-color="#101010"/>
</linearGradient>
<linearGradient id="paint13_linear" x1="182.948" y1="126.009" x2="181.213" y2="97.3165" gradientUnits="userSpaceOnUse">
<stop stop-color="#E9024D"/>
<stop offset="1" stop-color="#101010"/>
</linearGradient>
<linearGradient id="paint14_linear" x1="172.562" y1="117.447" x2="167.636" y2="101.39" gradientUnits="userSpaceOnUse">
<stop stop-color="#E9024D"/>
<stop offset="1" stop-color="#101010"/>
</linearGradient>
<linearGradient id="paint15_linear" x1="180.486" y1="368.951" x2="215.603" y2="557.785" gradientUnits="userSpaceOnUse">
<stop stop-color="#E9024D"/>
<stop offset="1" stop-color="#101010"/>
</linearGradient>
<linearGradient id="paint16_linear" x1="133.823" y1="481.153" x2="269.943" y2="481.153" gradientUnits="userSpaceOnUse">
<stop stop-color="#E9024D"/>
<stop offset="1" stop-color="#FC9AC2"/>
</linearGradient>
<linearGradient id="paint17_linear" x1="446.915" y1="336.623" x2="374.588" y2="263.001" gradientUnits="userSpaceOnUse">
<stop stop-color="#E9024D"/>
<stop offset="1" stop-color="#101010"/>
</linearGradient>
<linearGradient id="paint18_linear" x1="35.9539" y1="344.16" x2="120.517" y2="260.541" gradientUnits="userSpaceOnUse">
<stop stop-color="#E9024D"/>
<stop offset="1" stop-color="#101010"/>
</linearGradient>
<linearGradient id="paint19_linear" x1="194.119" y1="550.541" x2="212.604" y2="441.813" gradientUnits="userSpaceOnUse">
<stop stop-color="#E9024D"/>
<stop offset="1" stop-color="#101010"/>
</linearGradient>
<linearGradient id="paint20_linear" x1="245.98" y1="525.012" x2="218.273" y2="446.13" gradientUnits="userSpaceOnUse">
<stop stop-color="#E9024D"/>
<stop offset="1" stop-color="#101010"/>
</linearGradient>
<linearGradient id="paint21_linear" x1="232.863" y1="495.776" x2="212.993" y2="476.245" gradientUnits="userSpaceOnUse">
<stop stop-color="#E9024D"/>
<stop offset="1" stop-color="#101010"/>
</linearGradient>
<linearGradient id="paint22_linear" x1="222.81" y1="502.088" x2="218.703" y2="472.768" gradientUnits="userSpaceOnUse">
<stop stop-color="#E9024D"/>
<stop offset="1" stop-color="#101010"/>
</linearGradient>
<linearGradient id="paint23_linear" x1="32.6494" y1="460.832" x2="88.7305" y2="460.832" gradientUnits="userSpaceOnUse">
<stop stop-color="#E9024D"/>
<stop offset="1" stop-color="#101010"/>
</linearGradient>
<linearGradient id="paint24_linear" x1="72.5674" y1="309.432" x2="17.074" y2="427.28" gradientUnits="userSpaceOnUse">
<stop stop-color="#E9024D"/>
<stop offset="1" stop-color="#101010"/>
</linearGradient>
<linearGradient id="paint25_linear" x1="72.0753" y1="348.201" x2="54.371" y2="394.837" gradientUnits="userSpaceOnUse">
<stop stop-color="#E9024D"/>
<stop offset="1" stop-color="#101010"/>
</linearGradient>
<linearGradient id="paint26_linear" x1="113.518" y1="531.295" x2="189.912" y2="527.506" gradientUnits="userSpaceOnUse">
<stop stop-color="#E9024D"/>
<stop offset="0.0117183" stop-color="#E5024B"/>
<stop offset="0.217405" stop-color="#A50639"/>
<stop offset="0.413666" stop-color="#6F092A"/>
<stop offset="0.595298" stop-color="#460C1F"/>
<stop offset="0.759135" stop-color="#280E16"/>
<stop offset="0.899486" stop-color="#160F11"/>
<stop offset="1" stop-color="#101010"/>
</linearGradient>
<linearGradient id="paint27_linear" x1="107.074" y1="437.325" x2="114.657" y2="520.805" gradientUnits="userSpaceOnUse">
<stop stop-color="#E9024D"/>
<stop offset="1" stop-color="#101010"/>
</linearGradient>
<linearGradient id="paint28_linear" x1="168.244" y1="426.96" x2="183.158" y2="448.165" gradientUnits="userSpaceOnUse">
<stop stop-color="#E9024D"/>
<stop offset="1" stop-color="#101010"/>
</linearGradient>
<linearGradient id="paint29_linear" x1="231.14" y1="462.773" x2="227.655" y2="418.642" gradientUnits="userSpaceOnUse">
<stop stop-color="#E9024D"/>
<stop offset="0.0455207" stop-color="#EA044E"/>
<stop offset="1" stop-color="#FA246B"/>
</linearGradient>
<linearGradient id="paint30_linear" x1="233.512" y1="480.926" x2="221.554" y2="475.806" gradientUnits="userSpaceOnUse">
<stop stop-color="#E9024D"/>
<stop offset="1" stop-color="#101010"/>
</linearGradient>
<linearGradient id="paint31_linear" x1="414.019" y1="449.498" x2="422.182" y2="436.332" gradientUnits="userSpaceOnUse">
<stop stop-color="#E9024D"/>
<stop offset="1" stop-color="#101010"/>
</linearGradient>
<linearGradient id="paint32_linear" x1="420.19" y1="404.294" x2="401.489" y2="423.521" gradientUnits="userSpaceOnUse">
<stop stop-color="#E9024D"/>
<stop offset="1" stop-color="#101010"/>
</linearGradient>
<linearGradient id="paint33_linear" x1="397.029" y1="418.96" x2="407.591" y2="430.036" gradientUnits="userSpaceOnUse">
<stop stop-color="#E9024D"/>
<stop offset="1" stop-color="#101010"/>
</linearGradient>
<linearGradient id="paint34_linear" x1="276.336" y1="484.158" x2="384.303" y2="484.158" gradientUnits="userSpaceOnUse">
<stop stop-color="#E9024D"/>
<stop offset="0.0455207" stop-color="#EA044E"/>
<stop offset="1" stop-color="#FA246B"/>
</linearGradient>
<linearGradient id="paint35_linear" x1="303.36" y1="349.219" x2="248.114" y2="413.001" gradientUnits="userSpaceOnUse">
<stop stop-color="#E9024D"/>
<stop offset="1" stop-color="#101010"/>
</linearGradient>
<linearGradient id="paint36_linear" x1="321.99" y1="465.783" x2="355.583" y2="465.783" gradientUnits="userSpaceOnUse">
<stop stop-color="#E9024D"/>
<stop offset="1" stop-color="#FC9AC2"/>
</linearGradient>
<linearGradient id="paint37_linear" x1="332.961" y1="472.162" x2="366.554" y2="472.162" gradientUnits="userSpaceOnUse">
<stop stop-color="#E9024D"/>
<stop offset="1" stop-color="#FC9AC2"/>
</linearGradient>
<linearGradient id="paint38_linear" x1="321.99" y1="437.914" x2="355.583" y2="437.914" gradientUnits="userSpaceOnUse">
<stop stop-color="#E9024D"/>
<stop offset="1" stop-color="#FC9AC2"/>
</linearGradient>
<linearGradient id="paint39_linear" x1="340.92" y1="503.328" x2="350.475" y2="508.319" gradientUnits="userSpaceOnUse">
<stop stop-color="#E9024D"/>
<stop offset="1" stop-color="#101010"/>
</linearGradient>
<linearGradient id="paint40_linear" x1="352.495" y1="493.207" x2="367.266" y2="499.866" gradientUnits="userSpaceOnUse">
<stop stop-color="#E9024D"/>
<stop offset="1" stop-color="#101010"/>
</linearGradient>
<linearGradient id="paint41_linear" x1="366.761" y1="484.911" x2="378.162" y2="489.355" gradientUnits="userSpaceOnUse">
<stop stop-color="#E9024D"/>
<stop offset="1" stop-color="#101010"/>
</linearGradient>
<linearGradient id="paint42_linear" x1="92.4236" y1="403.132" x2="122.765" y2="403.132" gradientUnits="userSpaceOnUse">
<stop stop-color="#E9024D"/>
<stop offset="1" stop-color="#101010"/>
</linearGradient>
<linearGradient id="paint43_linear" x1="119.574" y1="392.192" x2="119.688" y2="379.534" gradientUnits="userSpaceOnUse">
<stop stop-color="#E9024D"/>
<stop offset="1" stop-color="#101010"/>
</linearGradient>
<linearGradient id="paint44_linear" x1="60.7921" y1="384.489" x2="55.4587" y2="402.22" gradientUnits="userSpaceOnUse">
<stop stop-color="#E9024D"/>
<stop offset="1" stop-color="#101010"/>
</linearGradient>
<linearGradient id="paint45_linear" x1="90.0737" y1="434.999" x2="127.368" y2="400.22" gradientUnits="userSpaceOnUse">
<stop stop-color="#E9024D"/>
<stop offset="1" stop-color="#101010"/>
</linearGradient>
<linearGradient id="paint46_linear" x1="256.435" y1="27.017" x2="283.452" y2="27.017" gradientUnits="userSpaceOnUse">
<stop stop-color="#E9024D"/>
<stop offset="0.0455207" stop-color="#EA044E"/>
<stop offset="1" stop-color="#FA246B"/>
</linearGradient>
<linearGradient id="paint47_linear" x1="420.537" y1="229.213" x2="476.82" y2="229.213" gradientUnits="userSpaceOnUse">
<stop stop-color="#E9024D"/>
<stop offset="1" stop-color="#FC9AC2"/>
</linearGradient>
<linearGradient id="paint48_linear" x1="313.924" y1="334.872" x2="309.608" y2="322.188" gradientUnits="userSpaceOnUse">
<stop stop-color="#E9024D"/>
<stop offset="1" stop-color="#101010"/>
</linearGradient>
<linearGradient id="paint49_linear" x1="462.68" y1="311.638" x2="429.485" y2="329.711" gradientUnits="userSpaceOnUse">
<stop stop-color="#E9024D"/>
<stop offset="1" stop-color="#101010"/>
</linearGradient>
<linearGradient id="paint50_linear" x1="45.5997" y1="245.187" x2="100.971" y2="245.187" gradientUnits="userSpaceOnUse">
<stop stop-color="#E9024D"/>
<stop offset="1" stop-color="#101010"/>
</linearGradient>
<linearGradient id="paint51_linear" x1="36.8394" y1="232.517" x2="41.0584" y2="259.761" gradientUnits="userSpaceOnUse">
<stop stop-color="#E9024D"/>
<stop offset="1" stop-color="#101010"/>
</linearGradient>
<linearGradient id="paint52_linear" x1="41.6454" y1="260.214" x2="61.1668" y2="246.7" gradientUnits="userSpaceOnUse">
<stop stop-color="#E9024D"/>
<stop offset="1" stop-color="#101010"/>
</linearGradient>
<linearGradient id="paint53_linear" x1="63.2012" y1="323.253" x2="17.4299" y2="285.583" gradientUnits="userSpaceOnUse">
<stop stop-color="#E9024D"/>
<stop offset="1" stop-color="#101010"/>
</linearGradient>
<linearGradient id="paint54_linear" x1="25.099" y1="320.096" x2="20.4269" y2="300.6" gradientUnits="userSpaceOnUse">
<stop stop-color="#E9024D"/>
<stop offset="1" stop-color="#101010"/>
</linearGradient>
<linearGradient id="paint55_linear" x1="-6.43495" y1="303.78" x2="-5.24617" y2="318.382" gradientUnits="userSpaceOnUse">
<stop stop-color="#E9024D"/>
<stop offset="0.0743305" stop-color="#D90348"/>
<stop offset="1" stop-color="#101010"/>
</linearGradient>
<linearGradient id="paint56_linear" x1="359.039" y1="381.492" x2="368.764" y2="373.626" gradientUnits="userSpaceOnUse">
<stop stop-color="#E9024D"/>
<stop offset="1" stop-color="#101010"/>
</linearGradient>
</defs>
</svg>
