<svg width="289" height="383" viewBox="0 0 289 383" fill="none" xmlns="http://www.w3.org/2000/svg">
<path d="M54.6696 367.7V354.75H72.4047V348.65H54.6696V339.1H73.4152V332.75H48V367.7H54.6696Z" fill="#FAFBFB"/>
<path d="M77.6974 343.05V356C77.6974 363.65 82.0428 368.1 88.005 368.1C91.4914 368.1 93.8662 366.9 96.443 364.4L96.8473 367.75H102.355V343.05H96.2409V355.65C96.2409 359.4 93.664 362.55 89.8745 362.55C85.9334 362.55 83.8617 359.7 83.8617 355.95V343.05H77.6974Z" fill="#FAFBFB"/>
<path d="M113.856 342.95V372.95C113.856 379.05 111.178 383 105.57 383C103.751 383 101.831 382.5 100.062 381.35L102.286 376.6C103.347 377.1 104.357 377.35 105.267 377.3C107.288 377.2 107.743 375.65 107.743 372.95V342.95H113.856ZM107.187 336.05C107.187 340.8 114.463 340.8 114.463 336.05C114.463 331.3 107.187 331.3 107.187 336.05Z" fill="#FAFBFB"/>
<path d="M125.257 342.95V367.7H119.093V342.95H125.257ZM118.537 336.1C118.537 340.85 125.813 340.85 125.813 336.1C125.813 331.35 118.537 331.35 118.537 336.1Z" fill="#FAFBFB"/>
<path d="M148.882 332.7C144.537 332.7 139.332 332.7 134.987 332.7V367.7C139.332 367.7 144.537 367.7 148.882 367.7C161.261 367.7 166.718 358.75 166.567 349.9C166.415 341.25 161.009 332.7 148.882 332.7ZM141.606 338.95H148.882C156.562 338.95 159.796 344.4 159.948 349.85C160.099 355.55 156.916 361.35 148.882 361.35H141.606V338.95Z" fill="#FAFBFB"/>
<path d="M199.062 367.7H206.338L190.472 332.7H183.196L167.331 367.7H174.556L177.588 361.1H196.081L199.062 367.7ZM193.403 354.95H180.266L186.834 340.05L193.403 354.95Z" fill="#FAFBFB"/>
<path d="M223.859 332C211.632 332 205.67 341.25 205.67 350.45C205.67 359.65 211.43 368.5 223.859 368.5C236.289 368.5 241.898 359.45 241.999 350.4C242.1 341.25 236.037 332 223.859 332ZM223.859 338C232.196 338 235.531 344.6 235.43 350.5C235.329 356.25 232.196 362.45 223.859 362.45C215.522 362.45 212.39 356.3 212.238 350.55C212.087 344.65 215.522 338 223.859 338Z" fill="#FAFBFB"/>
<path d="M288.139 163.53V175.522C288.139 176.751 287.474 177.888 286.397 178.503L256.463 195.499C255.921 195.808 255.329 195.953 254.748 195.953C253.549 195.953 252.381 195.335 251.742 194.224C250.793 192.579 251.37 190.48 253.026 189.537L281.219 173.526V165.507L224.906 133.455L200.972 146.833L200.753 139.066L223.234 126.505C224.303 125.906 225.609 125.913 226.671 126.528L286.416 160.561C287.481 161.175 288.139 162.305 288.139 163.53V163.53Z" fill="url(#paint0_linear)"/>
<path d="M208.041 210.687L238.228 227.763L266.156 211.902L236.044 194.824L208.041 210.687Z" fill="url(#paint1_linear)"/>
<path d="M228.498 212.468C228.406 212.528 228.313 212.588 228.216 212.643C226.609 213.564 224.545 213.294 222.655 212.124L225.367 210.313C225.773 210.079 226.069 209.712 226.249 209.258C226.627 208.291 226.48 206.933 225.754 205.695C225.039 204.457 223.93 203.65 222.895 203.494C222.411 203.421 221.939 203.489 221.533 203.723L218.535 205.723C218.369 205.819 218.221 205.938 218.097 206.076C217.076 202.856 217.75 199.72 219.963 198.454C222.706 196.881 226.775 198.78 229.057 202.701C231.256 206.484 230.983 210.758 228.498 212.468H228.498Z" fill="#282526" stroke="#E9024D"/>
<path d="M237.768 206.718L237.777 206.727L237.731 206.754C237.523 206.942 237.302 207.112 237.052 207.254C236.877 207.355 236.692 207.442 236.503 207.516L228.498 212.468C230.983 210.758 231.256 206.484 229.057 202.7C226.776 198.78 222.706 196.881 219.963 198.454L228.803 193.061C231.547 191.488 235.616 193.391 237.897 197.307C239.957 200.852 239.837 204.824 237.768 206.718H237.768Z" fill="#282526" stroke="#E9024D"/>
<path d="M226.249 209.258C226.068 209.712 225.773 210.079 225.366 210.313L222.655 212.125C222.651 212.125 222.646 212.115 222.646 212.115C223.658 211.258 223.731 209.373 222.757 207.699C221.699 205.879 219.805 204.994 218.535 205.723L221.533 203.723C221.939 203.489 222.41 203.421 222.895 203.494C223.93 203.65 225.038 204.457 225.754 205.695C226.48 206.933 226.627 208.291 226.249 209.258H226.249Z" stroke="#E9024D"/>
<path d="M222.656 212.124L222.55 212.194C222.582 212.17 222.615 212.147 222.647 212.115C222.647 212.115 222.652 212.124 222.656 212.124Z" stroke="#00C8FF"/>
<path d="M222.646 212.115C222.614 212.147 222.582 212.17 222.549 212.193C222.489 212.239 222.429 212.28 222.365 212.317C221.095 213.046 219.201 212.161 218.143 210.341C217.224 208.759 217.238 206.993 218.097 206.076C218.222 205.938 218.369 205.819 218.536 205.723C219.806 204.994 221.7 205.879 222.757 207.699C223.732 209.373 223.658 211.258 222.646 212.115L222.646 212.115Z" fill="#282526" stroke="#E9024D"/>
<path d="M266.156 234.907V211.901L238.227 227.762V250.768L266.156 234.907Z" fill="url(#paint2_linear)"/>
<path d="M208.041 210.687V233.693L238.228 250.768V227.763L208.041 210.687Z" fill="url(#paint3_linear)"/>
<path d="M173.861 168.233L173.911 174.634L168.207 178.325L163.174 175.589V174.458L161.177 175.648L139.709 188.28V159.765L234.436 105.966L234.466 105.951L234.668 113.19L234.949 123.15L235.2 132.136L173.861 168.233Z" fill="url(#paint4_linear)"/>
<path d="M139.71 159.782V187.788L54.9834 140.081V112.911L139.696 159.768L139.71 159.782Z" fill="url(#paint5_linear)"/>
<path d="M234.436 105.966L139.709 159.765L139.694 159.77L54.9839 112.91V112.807C93.7226 91.4464 112.922 57.7855 118.956 35.6919C122.11 24.1365 122.214 16.1242 122.214 16.1242L145.915 29.4616L170.687 15.5514L170.751 15.5858C170.987 23.2161 174.408 34.0818 179.283 45.0942C181.817 50.8352 184.751 56.6106 187.827 61.9944C217.276 111.242 233.637 106.245 234.436 105.966V105.966Z" fill="url(#paint6_linear)"/>
<path d="M234.435 105.966L139.709 159.766L139.694 159.77" stroke="#E9024D"/>
<path d="M140.628 182.995V183.007L140.616 182.999L140.628 182.995Z" fill="white" stroke="black" stroke-linecap="round" stroke-linejoin="round"/>
<path d="M179.281 45.0945C176.028 45.7227 174.352 39.1191 173.179 36.4401C173.058 38.3139 171.861 40.0702 171.861 40.0702C169.553 38.9692 168.985 33.3611 168.985 33.3611C168.985 33.3611 167.486 51.2253 165.749 55.7157C162.752 55.3305 158.977 49.8866 157.239 38.7014C157.629 47.8932 153.014 56.1335 153.014 56.1335C143.846 52.5033 144.357 37.6466 144.357 37.6466C144.357 37.6466 140.132 55.5676 133.87 59.5834C130.425 50.5113 131.324 41.5267 132.013 33.0347C129.856 41.1126 124.763 44.4125 124.763 44.4125C123.923 42.3012 123.923 39.6827 124.075 29.4595C122.255 33.2272 120.416 34.9423 118.955 35.6921C122.11 24.1354 122.216 16.1235 122.216 16.1235L147.023 1.84503L170.689 15.5525L170.752 15.5879C170.987 23.2145 174.41 34.082 179.281 45.0945Z" fill="url(#paint7_linear)"/>
<path d="M170.689 15.4521L145.914 29.3593L122.216 16.0233L147.023 1.74487L170.689 15.4521Z" fill="url(#paint8_linear)"/>
<path d="M163.848 15.1217L161.297 16.596L158.101 18.4414L146.826 24.9578L135.388 18.4789L132.154 16.6477L129.573 15.1859L146.803 5.40881L163.848 15.1217Z" fill="url(#paint9_linear)"/>
<path d="M161.298 16.5963L158.102 18.4418L146.827 24.9581L135.389 18.4793L132.155 16.6481L146.804 8.33801L161.298 16.5963Z" fill="url(#paint10_linear)"/>
<path d="M146.804 5.40881V8.33766L161.298 16.596L163.849 15.1217L146.804 5.40881Z" fill="url(#paint11_linear)"/>
<path d="M83.4448 54.3866L89.3784 57.7401L97.3661 53.1698L91.4325 49.8163L83.4448 54.3866Z" fill="url(#paint12_linear)"/>
<path d="M97.3647 53.1699V57.2452L91.2385 64.5411L89.3184 60.9115V57.7401L97.3647 53.1699Z" fill="url(#paint13_linear)"/>
<path d="M83.4438 54.3863L89.3188 57.7398V60.9112L83.4438 57.7398V54.3863Z" fill="#E9024D"/>
<path d="M83.4438 57.7404L86.3813 61.5442L91.239 64.5414L89.3188 60.9118L83.4438 57.7404Z" fill="url(#paint14_linear)"/>
<path d="M72.6021 58.7233L77.3438 61.3299C78.4703 61.9494 79.8426 61.9338 80.9547 61.2895L87.2886 57.6204C87.9519 57.2361 88.3597 56.5312 88.3597 55.7691C88.3597 55.0633 88.7092 54.4029 89.2949 54.0031L97.7876 48.2002C98.1579 47.947 98.6624 48.2103 98.6624 48.6569C98.6624 49.0995 99.1592 49.3636 99.5302 49.1178L102.023 47.4683C103.453 46.5213 104.312 44.9277 104.312 43.2209V38.1499C104.312 36.4572 103.36 34.9068 101.844 34.1318L98.9405 32.6464C97.7141 32.0191 96.2671 31.9778 95.0066 32.534L92.4444 31.3174C90.859 30.5645 89.0017 30.6388 87.4821 31.5151L82.1085 34.6146C79.7378 35.9822 78.2786 38.4989 78.2786 41.221V42.6532L75.8281 44.2641C73.9832 45.4766 72.9228 47.5683 73.0405 49.7621L73.0719 50.3523L72.3213 51.1062C71.2054 52.227 70.5796 53.7399 70.5796 55.316C70.5796 56.7326 71.3543 58.0372 72.6021 58.7233H72.6021Z" fill="white"/>
<path d="M78.9092 42.49L83.9938 45.3171L78.9092 42.49Z" fill="white"/>
<path d="M78.9092 42.49L83.9938 45.3171" stroke="black" stroke-linecap="round" stroke-linejoin="round"/>
<path d="M97.1655 39.8594V36.4562C97.1655 34.8691 96.3513 33.3906 95.0054 32.534" fill="white"/>
<path d="M97.1655 39.8594V36.4562C97.1655 34.8691 96.3513 33.3906 95.0054 32.534V32.534" stroke="black" stroke-linecap="round" stroke-linejoin="round"/>
<path d="M78.0317 57.5039L80.3504 56.1983C80.8722 55.9044 81.1941 55.355 81.1941 54.7598V50.0588" fill="white"/>
<path d="M78.0317 57.5039L80.3504 56.1983C80.8722 55.9044 81.1941 55.355 81.1941 54.7598V50.0588" stroke="black" stroke-linecap="round" stroke-linejoin="round"/>
<path d="M75.4409 45.6804L79.8558 48.1352C80.2722 48.3668 80.7791 48.3677 81.1964 48.1379L85.5698 45.7299" fill="white"/>
<path d="M75.4409 45.6804L79.8558 48.1352C80.2722 48.3668 80.7791 48.3677 81.1964 48.1379L85.5698 45.7299" stroke="black" stroke-linecap="round" stroke-linejoin="round"/>
<path d="M97.1655 39.6439L102.114 36.8575L97.1655 39.6439Z" fill="white"/>
<path d="M97.1655 39.6439L102.114 36.8575" stroke="black" stroke-linecap="round" stroke-linejoin="round"/>
<path d="M205.787 64.4231L150.733 95.687C155.027 84.8983 157.984 82.0505 160.057 82.2858C161.772 82.4802 162.646 84.758 164.67 84.6393C166.39 84.5388 167.652 82.7824 169.376 79.6865C174.007 71.3697 174.406 68.7177 177.457 64.4231C180.34 60.3651 182.967 59.7928 183.736 61.1924C184.505 62.5915 183.672 68.1578 184.441 69.9068C185.21 71.6563 186.587 73.077 188.285 70.3947C189.983 67.7125 192.001 66.4312 192.482 68.36C192.962 70.2888 194.083 69.8343 195.717 67.9464C197.351 66.0584 197.786 62.3686 200.522 64.1181C202.54 65.4086 202.722 65.2692 205.787 64.4231H205.787Z" fill="white"/>
<path d="M125.335 259.974C124.305 259.974 123.287 259.521 122.605 258.653C121.429 257.157 121.697 254.999 123.204 253.832L135.665 244.176V217.577L104.044 199.343C102.978 198.728 102.322 197.597 102.322 196.373V182.113C102.322 180.892 102.975 179.762 104.038 179.146L112.825 174.057C114.477 173.101 116.595 173.655 117.557 175.293C118.52 176.932 117.962 179.035 116.312 179.992L109.241 184.086V194.396L140.862 212.63C141.928 213.244 142.585 214.376 142.585 215.6V245.853C142.585 246.911 142.093 247.91 141.253 248.561L127.461 259.247C126.829 259.737 126.079 259.974 125.335 259.974V259.974Z" fill="url(#paint15_linear)"/>
<g style="mix-blend-mode:screen" opacity="0.35">
<path d="M72.666 241.349L145.935 11.0028L127.639 242.498L101.22 257.502L72.666 241.349Z" fill="url(#paint16_linear)"/>
</g>
<path d="M195.275 202.236C194.082 202.236 192.92 201.623 192.279 200.523C191.32 198.882 191.883 196.78 193.536 195.829L222.749 179.014L203.793 165.571C202.239 164.469 201.878 162.323 202.989 160.779C204.1 159.235 206.261 158.878 207.815 159.98L231.137 176.52C232.093 177.198 232.637 178.312 232.581 179.478C232.525 180.643 231.878 181.701 230.86 182.287L197.007 201.772C196.461 202.087 195.864 202.236 195.275 202.236L195.275 202.236Z" fill="url(#paint17_linear)"/>
<path d="M4.33588 161.027C2.42499 161.038 0.867055 159.509 0.856455 157.612L0.761285 141.136C0.75407 139.856 1.46448 138.678 2.60429 138.08L19.2486 129.345C20.9376 128.458 23.0314 129.099 23.9238 130.776C24.8169 132.453 24.1712 134.532 22.4818 135.418L7.69285 143.18L7.77539 157.572C7.78666 159.469 6.24677 161.016 4.33588 161.027V161.027Z" fill="url(#paint18_linear)"/>
<ellipse cx="21.0421" cy="145.078" rx="1.10164" ry="1.74011" stroke="white" stroke-linecap="round"/>
<ellipse cx="44.2268" cy="131.753" rx="0.95142" ry="1.93898" stroke="white" stroke-linecap="round"/>
<path d="M22.144 144.73L43.2756 132.3" stroke="white" stroke-linecap="round"/>
<ellipse cx="15.3028" cy="155.545" rx="1.10164" ry="1.74011" stroke="white" stroke-linecap="round"/>
<ellipse cx="38.4866" cy="142.221" rx="0.95142" ry="1.93898" stroke="white" stroke-linecap="round"/>
<path d="M16.4043 155.198L37.5358 142.768" stroke="white" stroke-linecap="round"/>
<path d="M31.4722 139.243V146.204" stroke="white" stroke-linecap="round"/>
<ellipse cx="197.14" cy="139.305" rx="1.10164" ry="1.74011" stroke="white"/>
<ellipse cx="220.324" cy="125.98" rx="0.95142" ry="1.93898" stroke="white"/>
<path d="M198.242 138.956L219.373 126.527" stroke="white"/>
<ellipse cx="191.401" cy="149.772" rx="1.10164" ry="1.74011" stroke="white"/>
<ellipse cx="214.585" cy="136.447" rx="0.95142" ry="1.93898" stroke="white"/>
<path d="M192.502 149.424L213.634 136.994" stroke="white"/>
<path d="M207.571 133.469V140.43" stroke="white"/>
<path d="M101.22 257.502V282.234L94.6123 278.486C94.9733 275.83 94.4086 272.899 93.7934 270.311C93.0861 267.349 91.8599 264.433 90.3029 261.773L77.7325 268.914L77.7286 268.91L72.666 266.04V241.35L99.5175 256.54L101.22 257.502Z" fill="url(#paint19_linear)"/>
<path d="M127.639 242.498V267.238L101.221 282.234V257.502L127.639 242.498Z" fill="url(#paint20_linear)"/>
<path d="M124.969 248.906V262.425L104.564 274.009V260.498L120.56 251.41L124.969 248.906Z" fill="url(#paint21_linear)"/>
<path d="M120.56 251.41V260.341L104.564 269.421V260.498L120.56 251.41Z" fill="url(#paint22_linear)"/>
<path d="M180.024 143.55V155.914L157.88 168.482V156.129L177.855 144.784L180.024 143.55Z" fill="#282526"/>
<path d="M177.855 144.783V154.093L157.88 165.433V156.129L177.855 144.783Z" fill="#E9024D"/>
<path d="M205.304 105.597L160.893 130.826V151.415L205.304 126.186V105.597Z" fill="#E9024D"/>
<path d="M202.614 110.204V124.637L163.584 146.809V132.376L202.614 110.204Z" fill="#282526"/>
<path d="M202.587 121.021L163.557 143.193" stroke="white"/>
<path d="M18.2085 206.561V229.567L48.395 246.642V223.637L18.2085 206.561Z" fill="url(#paint23_linear)"/>
<path d="M18.2085 206.561L48.395 223.636L76.3238 207.775L46.211 190.698L18.2085 206.561Z" fill="url(#paint24_linear)"/>
<path d="M48.142 190.809L48.114 190.785L48.1061 190.783C47.3071 190.185 46.2503 189.776 44.8531 189.707L44.8387 189.702L44.836 189.706C44.6892 189.699 44.543 189.691 44.3888 189.692C37.4353 189.721 33.699 200.292 34.2484 206.653L50.5619 215.7L63.8242 199.621C63.8242 199.621 48.2963 190.927 48.142 190.809Z" fill="url(#paint25_linear)"/>
<path d="M90.3046 261.773L77.7342 268.914L77.7304 268.91C76.6154 265.425 75.6889 261.04 76.8847 257.483C77.7268 254.983 80.1715 253.678 82.7281 254.292C85.5302 254.964 87.8753 257.983 89.3744 260.265C89.6973 260.757 90.0085 261.261 90.3046 261.773H90.3046Z" fill="url(#paint26_linear)"/>
<path d="M72.666 241.35L101.22 257.502L127.639 242.499L99.1544 226.345L72.666 241.35Z" fill="url(#paint27_linear)"/>
<path d="M113.582 224.511L111.943 222.723C111.852 222.603 111.756 222.486 111.654 222.372C111.536 222.242 111.412 222.12 111.284 222.003L111.268 221.985L111.265 221.986C108.013 219.026 101.521 220.165 96.414 224.702C91.5018 229.067 89.5952 235.044 91.774 238.64L91.7758 238.65L91.7891 238.665C91.9657 238.953 92.1651 239.227 92.3946 239.482C92.5624 239.668 92.7433 239.839 92.9319 239.999L94.3227 241.621L94.9063 241.103C98.4047 242.288 103.478 240.844 107.634 237.152C111.789 233.46 113.796 228.613 112.998 225.03L113.582 224.511Z" fill="url(#paint28_linear)"/>
<path d="M113.157 229.705L107.47 220.591" stroke="#E9024D" stroke-linecap="round" stroke-linejoin="round"/>
<path d="M103.739 220.936L111.209 232.616L112.183 233.603" stroke="#E9024D" stroke-linecap="round" stroke-linejoin="round"/>
<path d="M100.548 222.26L108.839 236.28L110.179 235.692" stroke="#E9024D" stroke-linecap="round" stroke-linejoin="round"/>
<path d="M96.9146 224.742L108.313 237.709L108.172 237.775" stroke="#E9024D" stroke-linecap="round" stroke-linejoin="round"/>
<path d="M103.926 239.621L93.6738 227.959" stroke="#E9024D" stroke-linecap="round" stroke-linejoin="round"/>
<path d="M100.621 241.052L91.9131 231.142" stroke="#E9024D" stroke-linecap="round" stroke-linejoin="round"/>
<path d="M97.6893 242.302L90.9487 234.631" stroke="#E9024D" stroke-linecap="round" stroke-linejoin="round"/>
<ellipse rx="12.8807" ry="8.37961" transform="matrix(0.747581 -0.664171 0.669475 0.742835 103.951 233.066)" fill="url(#paint29_linear)"/>
<path d="M112.023 225.895C114.62 228.777 113.112 234.324 108.654 238.284C104.196 242.245 98.4766 243.119 95.8794 240.238" stroke="black" stroke-linecap="round" stroke-linejoin="round"/>
<path d="M120.561 260.341L124.97 262.425V248.906L120.561 251.41V260.341Z" fill="url(#paint30_linear)"/>
<path d="M214.475 219.605V231.603L232.585 241.885V229.893L218.388 221.827L214.475 219.605Z" fill="url(#paint31_linear)"/>
<path d="M218.389 221.827V229.754L232.586 237.813V229.893L218.389 221.827Z" fill="url(#paint32_linear)"/>
<path d="M218.388 229.754L214.475 231.603V219.605L218.388 221.827V229.754Z" fill="url(#paint33_linear)"/>
<path d="M82.6621 238.729L86.0578 237.654" stroke="white" stroke-linecap="round"/>
<path d="M85.4165 221.935L88.2356 224.378" stroke="white" stroke-linecap="round"/>
<path d="M93.4907 213.936L94.9002 217.164" stroke="white" stroke-linecap="round"/>
<path d="M108.739 211.375L108.047 215.224" stroke="white" stroke-linecap="round"/>
<path d="M118.99 219.645L116.748 222.651" stroke="white" stroke-linecap="round"/>
<path d="M120.08 229.95L117.869 230.985" stroke="white" stroke-linecap="round"/>
<ellipse rx="1.47302" ry="2.55953" transform="matrix(0.972813 -0.23159 0.234748 0.972056 27.7306 225.668)" stroke="white" stroke-linecap="round" stroke-linejoin="round"/>
<path d="M76.3228 230.781V207.775L48.394 223.636V246.642L76.3228 230.781Z" fill="#282526"/>
<path d="M149.376 242.032L179.563 259.108L207.491 243.247L177.379 226.169L149.376 242.032Z" fill="url(#paint34_linear)"/>
<path d="M164.031 240.255C162.12 240.255 160.571 238.717 160.571 236.82V216.782C160.571 215.557 161.228 214.425 162.296 213.811L184.068 201.279C185.722 200.327 187.837 200.887 188.796 202.528C189.754 204.169 189.191 206.271 187.538 207.223L167.491 218.761V236.82C167.491 238.717 165.942 240.255 164.031 240.255L164.031 240.255Z" fill="url(#paint35_linear)"/>
<path d="M207.491 266.252V243.247L179.562 259.107V282.113L207.491 266.252Z" fill="#282526" stroke="#E9024D"/>
<g style="mix-blend-mode:screen" opacity="0.35">
<path d="M192.032 239.019V224.125L173.95 234.393V249.288L192.032 239.019Z" fill="url(#paint36_linear)"/>
</g>
<g style="mix-blend-mode:screen" opacity="0.35">
<path d="M197.938 242.428V227.533L179.856 237.802V252.696L197.938 242.428Z" fill="url(#paint37_linear)"/>
</g>
<g style="mix-blend-mode:screen" opacity="0.35">
<path d="M192.032 224.125L173.95 234.393L192.032 224.125Z" fill="url(#paint38_linear)"/>
</g>
<path d="M207.491 250.25L179.562 266.111L207.491 250.25Z" fill="#282526"/>
<path d="M207.491 250.25L179.562 266.111" stroke="#E9024D"/>
<path d="M187.493 277.614V266.112L184.396 267.91V279.368L187.493 277.614Z" fill="url(#paint39_linear)"/>
<path d="M194.928 273.392V261.89L191.832 263.688V275.146L194.928 273.392Z" fill="url(#paint40_linear)"/>
<path d="M202.365 269.17V257.667L199.269 259.465V270.924L202.365 269.17Z" fill="url(#paint41_linear)"/>
<path d="M149.376 242.032V265.037L179.563 282.113V259.108L149.376 242.032Z" fill="#282526" stroke="#E9024D"/>
<path d="M60.8427 226.801L53.3183 231.094V224.518L50.436 226.197" stroke="white" stroke-linecap="round"/>
<path d="M60.9246 230.855L53.8665 234.882V240.414L50.436 242.326" stroke="white" stroke-linecap="round"/>
<path d="M41.409 242.691V224.731L27.729 216.962V223.112" stroke="white" stroke-linecap="round" stroke-linejoin="round"/>
<ellipse rx="1.05007" ry="0.504321" transform="matrix(0.251819 -0.967774 0.968642 0.24846 49.9307 226.436)" stroke="white" stroke-linecap="round"/>
<ellipse rx="1.05007" ry="0.504321" transform="matrix(0.251819 -0.967774 0.968642 0.24846 50.0347 242.326)" stroke="white" stroke-linecap="round"/>
<path d="M66.6894 206.507C66.6894 206.507 67.4456 198.816 60.5756 198.845C53.6219 198.874 49.8859 209.445 50.4355 215.805L66.6894 206.507Z" fill="url(#paint42_linear)"/>
<path d="M55.3517 206.133C54.1789 207.957 53.4834 210.342 53.3296 212.426C53.2834 213.026 53.2834 213.598 53.3296 214.125L54.8519 213.262L61.4941 209.487L63.8087 208.174L56.9664 204.289C56.3562 204.78 55.8158 205.412 55.3517 206.133L55.3517 206.133Z" fill="#282526"/>
<path d="M59.8571 203.205C58.7672 203.21 57.8008 203.618 56.9668 204.289L63.8091 208.175C63.8091 208.175 64.282 203.186 59.8571 203.205V203.205Z" fill="url(#paint43_linear)"/>
<path d="M67.4461 212.743V235.857L60.842 239.651V216.537L54.8529 213.262L53.3306 212.426C53.4844 210.342 54.1799 207.957 55.3526 206.133L61.4951 209.487L67.4461 212.743Z" fill="white"/>
<path d="M32.8477 203.713C32.5017 203.446 32.0732 203.254 31.5286 203.215C28.0798 202.963 26.8856 207.819 27.124 210.581L43.4612 219.716L48.898 212.687L32.8477 203.713Z" fill="url(#paint44_linear)"/>
<path d="M50.5618 215.7C50.5618 215.7 50.3507 212.528 47.8954 212.348C44.4464 212.097 43.2525 216.953 43.4913 219.715L50.5618 215.7Z" fill="url(#paint45_linear)"/>
<ellipse cx="145.936" cy="7.58101" rx="7.27114" ry="7.21925" fill="url(#paint46_linear)"/>
<ellipse cx="145.934" cy="11.0027" rx="2.68386" ry="2.66471" stroke="white" stroke-linecap="round" stroke-linejoin="round"/>
<ellipse cx="145.935" cy="11.9555" rx="1.57131" ry="1.56009" fill="#1D1E29"/>
<path d="M72.666 241.349L146.124 11.955L127.639 242.498" stroke="#E9024D" stroke-linecap="round" stroke-linejoin="round"/>
<path d="M93.4907 202.236L145.936 11.9553" stroke="#E9024D"/>
<path d="M146.125 11.9553L116.748 211.902" stroke="#E9024D" stroke-linecap="round" stroke-linejoin="round"/>
<path d="M245.925 64.1348L214.303 82.099V67.4387L245.925 49.4746V64.1348Z" stroke="white" stroke-linecap="round" stroke-linejoin="round"/>
<path d="M276.549 94.4601L262.2 102.65V87.99L276.549 79.7999V94.4601Z" stroke="white" stroke-linecap="round" stroke-linejoin="round"/>
<path d="M276.549 99.6907L262.2 107.881" stroke="#E9024D"/>
<path d="M276.549 103.312L262.2 111.502" stroke="#E9024D"/>
<ellipse rx="21.2509" ry="13.2926" transform="matrix(0.434757 -0.900548 0.902961 0.429723 242.143 102.882)" stroke="#E9024D"/>
<ellipse rx="10.1016" ry="5.64758" transform="matrix(0.434757 -0.900548 0.902961 0.429723 242.807 103.039)" stroke="#E9024D"/>
<g style="mix-blend-mode:screen" opacity="0.35">
<path fill-rule="evenodd" clip-rule="evenodd" d="M251.38 83.7446C244.751 80.5896 235.241 86.6007 230.138 97.1696C225.036 107.739 226.273 118.865 232.902 122.019C239.531 125.174 249.041 119.163 254.144 108.594C259.246 98.0249 258.009 86.8992 251.38 83.7446ZM247.907 105.465C245.482 110.49 241.232 113.476 238.416 112.135C235.599 110.796 235.282 105.636 237.708 100.612C240.133 95.5875 244.383 92.6012 247.199 93.9416C250.015 95.2821 250.333 100.442 247.907 105.465Z" fill="url(#paint47_linear)"/>
</g>
<path d="M248.621 82.965L245.925 93.6266" stroke="#E9024D"/>
<path d="M249.396 97.299L256.787 91.225" stroke="#E9024D"/>
<path d="M227.996 102.882L236.535 103.785" stroke="#E9024D"/>
<path d="M229.295 118.829L237.006 110.866" stroke="#E9024D"/>
<path d="M234.331 70.721V82.9646L242.142 78.1433V87.5444" stroke="white"/>
<path d="M217.35 68.4746V76.1081L242.809 61.3202" stroke="white" stroke-linecap="round" stroke-linejoin="round"/>
<path d="M217.614 70.905C218.028 70.5473 218.772 70.7005 219.009 71.1926C219.247 71.6878 219.036 72.3991 219.476 72.7302C219.74 72.9292 220.126 72.8719 220.414 72.7096C221.388 72.1611 221.472 70.7184 221.807 69.7742C222.385 68.1439 223.231 66.017 224.661 64.9375C224.808 64.827 224.968 64.7238 225.148 64.6917C225.48 64.633 225.817 64.8329 226.002 65.1122C226.187 65.3915 226.245 65.7345 226.263 66.0683C226.281 66.4017 226.265 66.7383 226.321 67.0681C226.472 67.9674 227.451 67.6927 227.908 67.1818C228.243 66.8071 228.434 66.3283 228.73 65.922C229.031 65.5089 229.466 65.1636 229.974 65.0916C230.276 65.0494 230.603 65.1223 230.853 65.2979C231.142 65.5006 231.23 65.867 231.543 66.044C231.946 66.2724 232.456 65.9977 232.77 65.6579C233.134 65.2636 233.388 64.8105 233.944 64.6596C234.26 64.5734 234.597 64.594 234.918 64.5266C235.485 64.4074 235.953 64.0277 236.429 63.6988C236.975 63.3205 237.467 63.1747 238.118 63.1151C238.76 63.0564 239.453 62.9876 240.012 62.6423" stroke="white" stroke-linecap="round" stroke-linejoin="round"/>
<ellipse rx="1.47089" ry="1.0992" transform="matrix(0.771141 -0.636664 0.642078 0.766639 242.432 88.5006)" stroke="white"/>
<ellipse cx="261.726" cy="107.818" rx="0.696753" ry="1.47898" stroke="#E9024D"/>
<ellipse cx="261.726" cy="111.659" rx="0.696753" ry="1.47898" stroke="#E9024D"/>
<ellipse cx="277.127" cy="99.6603" rx="0.696753" ry="1.47898" stroke="#E9024D"/>
<ellipse cx="277.127" cy="103.501" rx="0.696753" ry="1.47898" stroke="#E9024D"/>
<path d="M264.762 98.4996L266.94 89.403L269.376 94.492L272.194 85.0774L273.027 88.9577L274.565 82.965" stroke="white" stroke-linecap="round" stroke-linejoin="round"/>
<path d="M168.207 178.325V171.605L163.174 174.46V175.589L168.207 178.325Z" fill="url(#paint48_linear)"/>
<path d="M251.232 174.307C251.195 174.28 251.158 174.255 251.121 174.232L251.102 174.22V174.222C250.611 173.934 250.04 173.992 249.416 174.548C247.542 176.218 248.023 180.511 247.014 186.905C246.31 191.36 246.05 193.938 245.355 195.269L244.085 192.228L241.421 190.196C241.343 190.122 241.261 190.057 241.172 190.007L241.168 190.004V190.005C240.993 189.906 240.797 189.854 240.575 189.862C238.124 189.958 237.548 197.305 237.692 203.889C237.836 210.473 236.154 210.997 233.588 214.29C231.023 217.581 232.495 217.983 232.495 217.983L236.005 220.348L252.991 206.656L254.745 176.674L251.232 174.307Z" fill="url(#paint49_linear)"/>
<path d="M236.005 220.348C236.005 220.348 234.533 219.947 237.098 216.656C239.664 213.363 241.346 212.839 241.201 206.255C241.057 199.671 241.634 192.324 244.084 192.228C246.535 192.133 245.862 199.242 247.64 198.717C249.418 198.192 249.514 195.663 250.524 189.27C251.532 182.877 251.052 178.584 252.926 176.914C254.8 175.244 256.194 178.051 256.386 181.275C256.578 184.5 256.501 209.022 256.501 209.022L236.005 220.348Z" fill="white"/>
<path d="M172.169 129.832L174.155 128.644C174.398 128.498 174.628 128.476 174.846 128.575C175.064 128.674 175.174 128.886 175.176 129.212C175.177 129.334 175.139 129.46 175.062 129.591C174.985 129.722 174.901 129.816 174.806 129.871C174.677 129.949 174.587 129.97 174.538 129.933C174.489 129.896 174.442 129.8 174.398 129.647C174.352 129.494 174.253 129.462 174.102 129.553L172.214 130.683C172.124 130.737 172.078 130.797 172.079 130.863C172.077 130.906 172.095 130.942 172.135 130.973L174.995 133.326C175.133 133.44 175.203 133.609 175.204 133.833C175.206 134.088 175.125 134.361 174.961 134.653C174.797 134.944 174.614 135.151 174.411 135.272L172.355 136.503C172.082 136.666 171.845 136.692 171.642 136.58C171.439 136.468 171.337 136.273 171.335 135.995C171.334 135.677 171.466 135.438 171.732 135.278C171.835 135.217 171.923 135.206 171.996 135.245C172.069 135.285 172.106 135.361 172.107 135.472C172.107 135.564 172.136 135.623 172.192 135.651C172.249 135.679 172.319 135.667 172.404 135.616L174.301 134.481C174.383 134.432 174.424 134.371 174.423 134.298C174.425 134.263 174.406 134.229 174.367 134.199L171.511 131.843C171.376 131.73 171.309 131.56 171.307 131.333C171.305 131.068 171.389 130.788 171.557 130.492C171.726 130.195 171.93 129.976 172.169 129.832L172.169 129.832Z" fill="white"/>
<path d="M179.054 131.638L180.431 130.814C180.537 130.75 180.629 130.737 180.706 130.774C180.784 130.811 180.823 130.888 180.824 131.007C180.824 131.126 180.786 131.25 180.71 131.379C180.633 131.508 180.542 131.604 180.436 131.668L179.011 132.521C178.829 132.63 178.641 132.677 178.446 132.664C178.252 132.652 178.116 132.588 178.04 132.474L177.147 131.094C177.028 130.89 176.967 130.644 176.965 130.356C176.964 130.038 177.018 129.728 177.128 129.427L178.006 127.008C178.09 126.781 178.221 126.547 178.399 126.307C178.577 126.066 178.749 125.896 178.915 125.796L180.422 124.894C180.528 124.831 180.618 124.819 180.693 124.86C180.768 124.9 180.805 124.978 180.806 125.093C180.807 125.212 180.77 125.337 180.697 125.467C180.623 125.598 180.533 125.695 180.428 125.759L178.975 126.628C178.854 126.701 178.757 126.839 178.682 127.044L177.847 129.318C177.781 129.497 177.749 129.681 177.751 129.871C177.751 130.072 177.789 130.227 177.862 130.335L178.68 131.592C178.757 131.726 178.881 131.741 179.054 131.638L179.054 131.638Z" fill="white"/>
<path fill-rule="evenodd" clip-rule="evenodd" d="M182.602 129.774L184.102 123.011C184.162 122.762 184.29 122.579 184.486 122.462C184.675 122.349 184.796 122.367 184.845 122.517L186.402 127.541C186.414 127.578 186.421 127.616 186.421 127.657C186.421 127.776 186.386 127.898 186.314 128.025C186.242 128.152 186.159 128.243 186.065 128.299C185.865 128.418 185.737 128.391 185.682 128.217L185.373 127.238L183.627 128.283L183.302 129.724C183.294 129.783 183.256 129.857 183.189 129.946C183.123 130.034 183.05 130.103 182.971 130.15C182.859 130.217 182.765 130.231 182.692 130.19C182.618 130.149 182.581 130.067 182.58 129.945C182.58 129.894 182.587 129.837 182.602 129.774L182.602 129.774ZM184.492 124.443L183.853 127.28L185.143 126.508L184.492 124.443Z" fill="white"/>
<path d="M192.001 118.404L192.039 124.724L191.016 125.336L188.929 121.319L188.959 126.139C188.96 126.257 188.923 126.381 188.849 126.508C188.776 126.635 188.686 126.73 188.58 126.794C188.474 126.858 188.384 126.87 188.309 126.831C188.234 126.792 188.197 126.714 188.196 126.595L188.158 120.265L189.166 119.662L191.258 123.666L191.229 118.866C191.228 118.747 191.267 118.622 191.343 118.489C191.42 118.357 191.511 118.259 191.617 118.195C191.723 118.132 191.813 118.12 191.888 118.16C191.963 118.201 192 118.282 192.001 118.404Z" fill="white"/>
<path d="M109.241 184.087V182.114V184.087Z" fill="white"/>
<path d="M109.241 184.087V182.114" stroke="black" stroke-linecap="round" stroke-linejoin="round"/>
<path d="M109.241 194.396L107.475 193.437" stroke="#E9024D" stroke-linecap="round" stroke-linejoin="round"/>
<path d="M135.666 217.578V215.805" stroke="black" stroke-linecap="round" stroke-linejoin="round"/>
<path d="M135.666 244.176V247.252" stroke="black" stroke-linecap="round" stroke-linejoin="round"/>
<path d="M58.5601 211.46L64.2988 214.389V221.934" stroke="#282526"/>
<path d="M62.3589 217.609V233.91" stroke="#282526"/>
<path d="M66.0039 227.806V236.685" stroke="#282526"/>
<path d="M54.9832 123.164V131.322L43.6072 124.086L30.236 131.006C28.5454 131.882 26.453 131.231 25.5709 129.548C24.6887 127.864 25.3445 125.792 27.0396 124.916L42.1846 117.074C43.284 116.505 44.605 116.565 45.6487 117.23L54.9832 123.164Z" fill="url(#paint50_linear)"/>
<path d="M43.605 124.086V119.262" stroke="#E9024D"/>
<ellipse cx="28.4923" cy="127.969" rx="3.31558" ry="3.29192" fill="url(#paint51_linear)" stroke="#E9024D"/>
<ellipse cx="28.492" cy="127.969" rx="2.45688" ry="2.43934" fill="url(#paint52_linear)"/>
<path d="M7.69173 143.201L7.6748 140.259" stroke="#E9024D"/>
<path d="M29.9737 193.821C29.3765 193.821 28.7714 193.668 28.22 193.345L2.46418 178.268C1.40894 177.651 0.76123 176.526 0.76123 175.31V170.093C0.76123 168.196 2.31037 166.659 4.22126 166.659C6.13215 166.659 7.68084 168.196 7.68084 170.093V173.347L31.734 187.426C33.3801 188.39 33.9279 190.496 32.9574 192.13C32.3118 193.217 31.1584 193.821 29.9737 193.821L29.9737 193.821Z" fill="url(#paint53_linear)"/>
<path d="M7.68093 173.346L4.22119 175.404" stroke="#E9024D"/>
<ellipse cx="4.22117" cy="168.597" rx="3.11619" ry="2.05143" fill="url(#paint54_linear)"/>
<ellipse cx="4.22125" cy="168.526" rx="2.16217" ry="1.42338" fill="url(#paint55_linear)"/>
<ellipse cx="195.241" cy="198.859" rx="2.7972" ry="2.77724" fill="url(#paint56_linear)"/>
<path d="M281.22 173.526L283.777 174.767L281.22 173.526Z" fill="white"/>
<path d="M281.22 173.526L283.777 174.767" stroke="black" stroke-linecap="round" stroke-linejoin="round"/>
<path d="M281.22 165.507V163.126V165.507Z" fill="white"/>
<path d="M281.22 165.507V163.126" stroke="black" stroke-linecap="round" stroke-linejoin="round"/>
<path d="M222.748 179.014L224.784 177.788L222.748 179.014Z" fill="white"/>
<path d="M222.748 179.014L224.784 177.788" stroke="black" stroke-linecap="round" stroke-linejoin="round"/>
<path d="M167.49 218.762L165.184 217.164L167.49 218.762Z" fill="white"/>
<path d="M167.49 218.762L165.184 217.164" stroke="black" stroke-linecap="round" stroke-linejoin="round"/>
<defs>
<linearGradient id="paint0_linear" x1="320.305" y1="159.329" x2="258.643" y2="92.0672" gradientUnits="userSpaceOnUse">
<stop stop-color="#E9024D"/>
<stop offset="1" stop-color="#101010"/>
</linearGradient>
<linearGradient id="paint1_linear" x1="208.041" y1="227.763" x2="266.156" y2="227.763" gradientUnits="userSpaceOnUse">
<stop stop-color="#E9024D"/>
<stop offset="0.0455207" stop-color="#EA044E"/>
<stop offset="1" stop-color="#FA246B"/>
</linearGradient>
<linearGradient id="paint2_linear" x1="257.848" y1="185.883" x2="206.131" y2="205.68" gradientUnits="userSpaceOnUse">
<stop stop-color="#E9024D"/>
<stop offset="1" stop-color="#101010"/>
</linearGradient>
<linearGradient id="paint3_linear" x1="205.021" y1="208.956" x2="211.208" y2="251.371" gradientUnits="userSpaceOnUse">
<stop stop-color="#E9024D"/>
<stop offset="1" stop-color="#101010"/>
</linearGradient>
<linearGradient id="paint4_linear" x1="213.066" y1="283.601" x2="321.415" y2="108.728" gradientUnits="userSpaceOnUse">
<stop stop-color="#E9024D"/>
<stop offset="1" stop-color="#101010"/>
</linearGradient>
<linearGradient id="paint5_linear" x1="16.5144" y1="165.835" x2="107.876" y2="243.957" gradientUnits="userSpaceOnUse">
<stop stop-color="#E9024D"/>
<stop offset="1" stop-color="#101010"/>
</linearGradient>
<linearGradient id="paint6_linear" x1="249.166" y1="185.154" x2="249.708" y2="16.6543" gradientUnits="userSpaceOnUse">
<stop stop-color="#E9024D"/>
<stop offset="1" stop-color="#101010"/>
</linearGradient>
<linearGradient id="paint7_linear" x1="171.333" y1="49.8302" x2="170.064" y2="7.94277" gradientUnits="userSpaceOnUse">
<stop stop-color="white"/>
<stop offset="0.165992" stop-color="#FEF8FB"/>
<stop offset="0.395308" stop-color="#FEE6F0"/>
<stop offset="0.661447" stop-color="#FDC9DE"/>
<stop offset="0.953336" stop-color="#FCA1C6"/>
<stop offset="1" stop-color="#FC9AC2"/>
</linearGradient>
<linearGradient id="paint8_linear" x1="57.5151" y1="-15.2295" x2="68.2907" y2="71.2064" gradientUnits="userSpaceOnUse">
<stop stop-color="white"/>
<stop offset="1" stop-color="#FC9AC2"/>
</linearGradient>
<linearGradient id="paint9_linear" x1="140.231" y1="26.3739" x2="145.25" y2="16.4341" gradientUnits="userSpaceOnUse">
<stop stop-color="#E9024D"/>
<stop offset="0.227603" stop-color="#B8053F"/>
<stop offset="1" stop-color="#101010"/>
</linearGradient>
<linearGradient id="paint10_linear" x1="176.4" y1="35.4992" x2="175.185" y2="4.27814" gradientUnits="userSpaceOnUse">
<stop stop-color="#E9024D"/>
<stop offset="0.136603" stop-color="#D10346"/>
<stop offset="0.42373" stop-color="#960735"/>
<stop offset="0.834249" stop-color="#380D1B"/>
<stop offset="1" stop-color="#101010"/>
</linearGradient>
<linearGradient id="paint11_linear" x1="165.521" y1="11.908" x2="159.913" y2="2.01199" gradientUnits="userSpaceOnUse">
<stop stop-color="#E9024D"/>
<stop offset="1" stop-color="#101010"/>
</linearGradient>
<linearGradient id="paint12_linear" x1="97.7077" y1="55.3121" x2="95.6327" y2="49.82" gradientUnits="userSpaceOnUse">
<stop stop-color="#E9024D"/>
<stop offset="1" stop-color="#101010"/>
</linearGradient>
<linearGradient id="paint13_linear" x1="99.1073" y1="67.7043" x2="98.1865" y2="52.3693" gradientUnits="userSpaceOnUse">
<stop stop-color="#E9024D"/>
<stop offset="1" stop-color="#101010"/>
</linearGradient>
<linearGradient id="paint14_linear" x1="93.5174" y1="63.1285" x2="90.9005" y2="54.5365" gradientUnits="userSpaceOnUse">
<stop stop-color="#E9024D"/>
<stop offset="1" stop-color="#101010"/>
</linearGradient>
<linearGradient id="paint15_linear" x1="97.7831" y1="197.538" x2="116.425" y2="298.503" gradientUnits="userSpaceOnUse">
<stop stop-color="#E9024D"/>
<stop offset="1" stop-color="#101010"/>
</linearGradient>
<linearGradient id="paint16_linear" x1="72.6659" y1="257.502" x2="145.935" y2="257.502" gradientUnits="userSpaceOnUse">
<stop stop-color="#E9024D"/>
<stop offset="1" stop-color="#FC9AC2"/>
</linearGradient>
<linearGradient id="paint17_linear" x1="241.194" y1="180.262" x2="202.546" y2="140.639" gradientUnits="userSpaceOnUse">
<stop stop-color="#E9024D"/>
<stop offset="1" stop-color="#101010"/>
</linearGradient>
<linearGradient id="paint18_linear" x1="19.9866" y1="184.289" x2="65.1815" y2="139.278" gradientUnits="userSpaceOnUse">
<stop stop-color="#E9024D"/>
<stop offset="1" stop-color="#101010"/>
</linearGradient>
<linearGradient id="paint19_linear" x1="105.121" y1="294.584" x2="114.933" y2="236.454" gradientUnits="userSpaceOnUse">
<stop stop-color="#E9024D"/>
<stop offset="1" stop-color="#101010"/>
</linearGradient>
<linearGradient id="paint20_linear" x1="133.037" y1="280.941" x2="118.312" y2="238.719" gradientUnits="userSpaceOnUse">
<stop stop-color="#E9024D"/>
<stop offset="1" stop-color="#101010"/>
</linearGradient>
<linearGradient id="paint21_linear" x1="125.975" y1="265.317" x2="115.355" y2="254.803" gradientUnits="userSpaceOnUse">
<stop stop-color="#E9024D"/>
<stop offset="1" stop-color="#101010"/>
</linearGradient>
<linearGradient id="paint22_linear" x1="120.564" y1="268.69" x2="118.384" y2="253.017" gradientUnits="userSpaceOnUse">
<stop stop-color="#E9024D"/>
<stop offset="1" stop-color="#101010"/>
</linearGradient>
<linearGradient id="paint23_linear" x1="18.2085" y1="246.642" x2="48.395" y2="246.642" gradientUnits="userSpaceOnUse">
<stop stop-color="#E9024D"/>
<stop offset="1" stop-color="#101010"/>
</linearGradient>
<linearGradient id="paint24_linear" x1="39.6949" y1="165.73" x2="10.1734" y2="228.874" gradientUnits="userSpaceOnUse">
<stop stop-color="#E9024D"/>
<stop offset="1" stop-color="#101010"/>
</linearGradient>
<linearGradient id="paint25_linear" x1="39.4296" y1="186.449" x2="30.0187" y2="211.417" gradientUnits="userSpaceOnUse">
<stop stop-color="#E9024D"/>
<stop offset="1" stop-color="#101010"/>
</linearGradient>
<linearGradient id="paint26_linear" x1="61.738" y1="284.299" x2="102.857" y2="282.245" gradientUnits="userSpaceOnUse">
<stop stop-color="#E9024D"/>
<stop offset="0.0117183" stop-color="#E5024B"/>
<stop offset="0.217405" stop-color="#A50639"/>
<stop offset="0.413666" stop-color="#6F092A"/>
<stop offset="0.595298" stop-color="#460C1F"/>
<stop offset="0.759135" stop-color="#280E16"/>
<stop offset="0.899486" stop-color="#160F11"/>
<stop offset="1" stop-color="#101010"/>
</linearGradient>
<linearGradient id="paint27_linear" x1="58.2678" y1="234.079" x2="62.2918" y2="278.698" gradientUnits="userSpaceOnUse">
<stop stop-color="#E9024D"/>
<stop offset="1" stop-color="#101010"/>
</linearGradient>
<linearGradient id="paint28_linear" x1="91.1951" y1="228.539" x2="99.1462" y2="239.926" gradientUnits="userSpaceOnUse">
<stop stop-color="#E9024D"/>
<stop offset="1" stop-color="#101010"/>
</linearGradient>
<linearGradient id="paint29_linear" x1="33.9116" y1="23.0391" x2="32.0448" y2="-0.62143" gradientUnits="userSpaceOnUse">
<stop stop-color="#E9024D"/>
<stop offset="0.0455207" stop-color="#EA044E"/>
<stop offset="1" stop-color="#FA246B"/>
</linearGradient>
<linearGradient id="paint30_linear" x1="126.325" y1="257.381" x2="119.903" y2="254.611" gradientUnits="userSpaceOnUse">
<stop stop-color="#E9024D"/>
<stop offset="1" stop-color="#101010"/>
</linearGradient>
<linearGradient id="paint31_linear" x1="223.487" y1="240.585" x2="227.835" y2="233.521" gradientUnits="userSpaceOnUse">
<stop stop-color="#E9024D"/>
<stop offset="1" stop-color="#101010"/>
</linearGradient>
<linearGradient id="paint32_linear" x1="226.809" y1="216.427" x2="216.817" y2="226.774" gradientUnits="userSpaceOnUse">
<stop stop-color="#E9024D"/>
<stop offset="1" stop-color="#101010"/>
</linearGradient>
<linearGradient id="paint33_linear" x1="214.341" y1="224.264" x2="219.984" y2="230.224" gradientUnits="userSpaceOnUse">
<stop stop-color="#E9024D"/>
<stop offset="1" stop-color="#101010"/>
</linearGradient>
<linearGradient id="paint34_linear" x1="149.376" y1="259.108" x2="207.491" y2="259.108" gradientUnits="userSpaceOnUse">
<stop stop-color="#E9024D"/>
<stop offset="0.0455207" stop-color="#EA044E"/>
<stop offset="1" stop-color="#FA246B"/>
</linearGradient>
<linearGradient id="paint35_linear" x1="163.923" y1="186.993" x2="134.429" y2="221.288" gradientUnits="userSpaceOnUse">
<stop stop-color="#E9024D"/>
<stop offset="1" stop-color="#101010"/>
</linearGradient>
<linearGradient id="paint36_linear" x1="173.95" y1="249.288" x2="192.032" y2="249.288" gradientUnits="userSpaceOnUse">
<stop stop-color="#E9024D"/>
<stop offset="1" stop-color="#FC9AC2"/>
</linearGradient>
<linearGradient id="paint37_linear" x1="179.856" y1="252.696" x2="197.938" y2="252.696" gradientUnits="userSpaceOnUse">
<stop stop-color="#E9024D"/>
<stop offset="1" stop-color="#FC9AC2"/>
</linearGradient>
<linearGradient id="paint38_linear" x1="173.95" y1="234.393" x2="192.032" y2="234.393" gradientUnits="userSpaceOnUse">
<stop stop-color="#E9024D"/>
<stop offset="1" stop-color="#FC9AC2"/>
</linearGradient>
<linearGradient id="paint39_linear" x1="184.14" y1="269.353" x2="189.267" y2="272.05" gradientUnits="userSpaceOnUse">
<stop stop-color="#E9024D"/>
<stop offset="1" stop-color="#101010"/>
</linearGradient>
<linearGradient id="paint40_linear" x1="190.37" y1="263.944" x2="198.301" y2="267.545" gradientUnits="userSpaceOnUse">
<stop stop-color="#E9024D"/>
<stop offset="1" stop-color="#101010"/>
</linearGradient>
<linearGradient id="paint41_linear" x1="198.049" y1="259.51" x2="204.174" y2="261.915" gradientUnits="userSpaceOnUse">
<stop stop-color="#E9024D"/>
<stop offset="1" stop-color="#101010"/>
</linearGradient>
<linearGradient id="paint42_linear" x1="50.3822" y1="215.805" x2="66.7139" y2="215.805" gradientUnits="userSpaceOnUse">
<stop stop-color="#E9024D"/>
<stop offset="1" stop-color="#101010"/>
</linearGradient>
<linearGradient id="paint43_linear" x1="64.9959" y1="209.959" x2="65.0566" y2="203.194" gradientUnits="userSpaceOnUse">
<stop stop-color="#E9024D"/>
<stop offset="1" stop-color="#101010"/>
</linearGradient>
<linearGradient id="paint44_linear" x1="33.3558" y1="205.842" x2="30.5225" y2="215.329" gradientUnits="userSpaceOnUse">
<stop stop-color="#E9024D"/>
<stop offset="1" stop-color="#101010"/>
</linearGradient>
<linearGradient id="paint45_linear" x1="49.1173" y1="232.836" x2="69.0579" y2="214.107" gradientUnits="userSpaceOnUse">
<stop stop-color="#E9024D"/>
<stop offset="1" stop-color="#101010"/>
</linearGradient>
<linearGradient id="paint46_linear" x1="138.665" y1="14.8003" x2="153.207" y2="14.8003" gradientUnits="userSpaceOnUse">
<stop stop-color="#E9024D"/>
<stop offset="0.0455207" stop-color="#EA044E"/>
<stop offset="1" stop-color="#FA246B"/>
</linearGradient>
<linearGradient id="paint47_linear" x1="226.993" y1="122.859" x2="257.288" y2="122.859" gradientUnits="userSpaceOnUse">
<stop stop-color="#E9024D"/>
<stop offset="1" stop-color="#FC9AC2"/>
</linearGradient>
<linearGradient id="paint48_linear" x1="169.608" y1="179.325" x2="167.315" y2="172.537" gradientUnits="userSpaceOnUse">
<stop stop-color="#E9024D"/>
<stop offset="1" stop-color="#101010"/>
</linearGradient>
<linearGradient id="paint49_linear" x1="249.679" y1="166.909" x2="231.869" y2="176.675" gradientUnits="userSpaceOnUse">
<stop stop-color="#E9024D"/>
<stop offset="1" stop-color="#101010"/>
</linearGradient>
<linearGradient id="paint50_linear" x1="25.1785" y1="131.395" x2="54.9832" y2="131.395" gradientUnits="userSpaceOnUse">
<stop stop-color="#E9024D"/>
<stop offset="1" stop-color="#101010"/>
</linearGradient>
<linearGradient id="paint51_linear" x1="20.4626" y1="124.624" x2="22.702" y2="139.189" gradientUnits="userSpaceOnUse">
<stop stop-color="#E9024D"/>
<stop offset="1" stop-color="#101010"/>
</linearGradient>
<linearGradient id="paint52_linear" x1="23.0491" y1="139.426" x2="33.5079" y2="132.134" gradientUnits="userSpaceOnUse">
<stop stop-color="#E9024D"/>
<stop offset="1" stop-color="#101010"/>
</linearGradient>
<linearGradient id="paint53_linear" x1="34.6529" y1="173.118" x2="10.1585" y2="152.813" gradientUnits="userSpaceOnUse">
<stop stop-color="#E9024D"/>
<stop offset="1" stop-color="#101010"/>
</linearGradient>
<linearGradient id="paint54_linear" x1="14.1442" y1="171.429" x2="11.6632" y2="161.002" gradientUnits="userSpaceOnUse">
<stop stop-color="#E9024D"/>
<stop offset="1" stop-color="#101010"/>
</linearGradient>
<linearGradient id="paint55_linear" x1="-2.82967" y1="162.709" x2="-2.19883" y2="170.514" gradientUnits="userSpaceOnUse">
<stop stop-color="#E9024D"/>
<stop offset="0.0743305" stop-color="#D90348"/>
<stop offset="1" stop-color="#101010"/>
</linearGradient>
<linearGradient id="paint56_linear" x1="193.893" y1="204.24" x2="199.098" y2="200" gradientUnits="userSpaceOnUse">
<stop stop-color="#E9024D"/>
<stop offset="1" stop-color="#101010"/>
</linearGradient>
</defs>
</svg>
