<svg width="1016" height="456" viewBox="0 0 1016 456" fill="none" xmlns="http://www.w3.org/2000/svg">
<path d="M172.033 123L174.365 131.8C177.127 132.465 179.855 133.424 182.461 134.556C187.422 136.71 195.8 142.099 192.072 148.809C190.409 151.801 186.908 152.834 183.985 154.05C182.984 154.467 181.635 154.918 180.997 155.876C178.998 158.876 180.449 172.726 180.449 172.726C180.449 172.726 153.161 180.798 155.099 176.969C157.037 173.14 169.103 134.184 169.103 134.184L172.033 123Z" fill="url(#paint0_linear_8980_5341)"/>
<path d="M235.863 86.1579C235.839 97.1487 236.09 110.517 235.097 118.416C234.059 126.648 234.343 132.054 234.686 134.9C228.011 139.058 203.011 156.875 193.485 162.787C183.851 168.767 171.89 166.012 169.737 167.073C174.468 166.62 177.105 168.954 180.755 172.785C186.822 179.152 190.966 197.252 190.966 197.252C190.967 197.252 249.087 161.162 257.262 151.451C257.609 151.038 257.749 150.537 257.717 149.97C260.426 143.996 259.15 131.53 257.87 119.32C256.662 107.786 253.438 91.9637 251.97 85.078C246.544 86.7264 240.584 86.6663 235.863 86.1579H235.863Z" fill="url(#paint1_linear_8980_5341)"/>
<path d="M187.642 171.745C196.988 167.569 205.196 161.273 213.257 155.059C219.727 150.071 227.068 145.409 234.287 141.515" stroke="#E9024D" stroke-linecap="round" stroke-linejoin="round"/>
<path d="M189.822 174.794C199.168 170.618 207.375 164.322 215.436 158.108C221.907 153.12 229.248 148.457 236.466 144.564" stroke="#E9024D" stroke-linecap="round" stroke-linejoin="round"/>
<path d="M268.852 55.0145C268.808 55.0438 268.754 55.0682 268.701 55.0975C268.237 55.3466 267.466 55.6299 266.895 55.8301C266.465 55.9718 266.148 56.0694 266.148 56.0694C266.485 54.8582 264.298 55.2147 264.298 55.2147C264.298 55.2147 264.562 54.6286 264.137 54.2574C264.103 54.2281 264.044 54.2036 263.961 54.1793C263.537 54.0572 262.517 53.9985 261.297 53.8911C259.852 53.7592 258.119 53.5492 256.772 53.0608C254.068 52.084 250.959 53.305 250.959 53.305C250.959 53.305 256.143 48.0935 257.465 46.8725C258.788 45.6514 257.465 43.5756 257.465 43.5756L254.976 45.334L245.181 52.2451C245.181 52.2451 238.27 62.2577 236.639 70.0724C236.007 73.1143 235.879 79.1536 235.863 86.158C240.584 86.6665 246.544 86.7266 251.97 85.0782C251.511 82.9242 251.223 81.6431 251.223 81.6431C254.913 80.8031 259.539 62.6631 259.539 62.6631C260.364 61.1295 266.353 58.5653 268.061 57.3149C269.769 56.0597 269.574 54.5651 268.852 55.0145L268.852 55.0145Z" fill="url(#paint2_linear_8980_5341)"/>
<path opacity="0.46" d="M191.035 197C191.035 197 204.081 168.828 187.878 155C187.878 155 178.221 159.32 169 167.342C169 167.342 182.641 161.487 191.035 197Z" fill="url(#paint3_linear_8980_5341)"/>
<path d="M299.45 241.214C296.946 232.53 297.342 223.299 301.5 215.748L301.759 214.821C272.14 233.301 232.183 257.893 232.183 257.893L255.193 313.817L316.694 268.86L316.694 268.859C308.484 261.572 302.466 251.667 299.45 241.214V241.214Z" fill="url(#paint4_linear_8980_5341)"/>
<path d="M411.771 219.616L411.772 219.616L371.931 197.463C371.931 197.463 368.757 195.347 364.266 192.68C354.428 186.84 341.915 187.591 333.038 194.809C332.811 194.993 332.601 195.203 332.358 195.375C329.344 197.522 316.902 205.373 301.759 214.821L301.5 215.748C297.342 223.299 296.946 232.53 299.45 241.214C302.466 251.667 308.484 261.572 316.693 268.859L316.694 268.859L352.329 242.809C352.329 242.809 369.254 255.539 389.867 266.379V266.378C404.845 251.764 410.004 231.207 411.771 219.616V219.616Z" fill="url(#paint5_linear_8980_5341)"/>
<path d="M528.774 290.794C524.503 299.199 517.631 306.501 508.983 310.423C500.041 314.482 489.856 316.533 479.884 317.012C456.238 303.034 413 277.728 396.357 269.66C394.166 268.6 391.994 267.501 389.866 266.378C397.358 259.071 402.39 250.279 405.772 241.864C409.154 233.448 410.887 225.409 411.77 219.616L510.457 274.49L512.389 275.565C512.555 275.423 512.726 275.282 512.897 275.14C514 274.231 515.147 273.362 516.323 272.537C517.304 271.848 518.31 271.188 519.33 270.559C524.166 267.56 529.291 265.215 533.728 263.467C535.446 272.502 532.82 282.828 528.774 290.794Z" fill="url(#paint6_linear_8980_5341)"/>
<path d="M301.5 215.748C297.342 223.299 296.946 232.53 299.45 241.214C302.466 251.667 308.484 261.572 316.693 268.859" stroke="#101010" stroke-linecap="round"/>
<path d="M547.631 261.707C546.517 260.34 544.695 259.771 543.005 260.27C540.816 260.914 537.52 261.971 533.728 263.465C535.445 272.505 532.819 282.826 528.773 290.794C524.502 299.201 517.634 306.5 508.983 310.425C500.043 314.482 489.854 316.536 479.885 317.014C489.526 322.714 495.913 326.531 495.913 326.531C495.913 326.531 509.377 339.427 514.397 328.153C519.417 316.88 545.638 278.862 547.066 271.793C548.47 268.183 548.47 265.601 548.47 265.601C548.47 265.601 548.519 262.796 547.631 261.707Z" fill="url(#paint7_linear_8980_5341)"/>
<path d="M280.717 279.974C280.717 279.974 278.817 266.817 284.13 257.388L252.295 279.39C251.782 278.808 250.627 277.563 249.213 276.036C243.459 269.826 239.804 261.964 238.768 253.564V253.564C229.729 252.709 217.042 245.617 215.316 244.969C213.636 239.596 209.43 230.327 206.705 224.953L206.695 224.933C205.646 222.868 205.553 220.426 206.525 218.323C207.092 217.096 207.618 215.63 207.956 213.944C207.956 213.944 208.009 213.765 208.078 213.433C209.039 208.831 206.726 204.167 202.517 202.067C202.028 201.823 201.507 201.57 200.959 201.311C194.299 198.162 189.161 192.502 186.745 185.547C184.821 180.006 182.662 174.495 181.176 172.873C177.227 168.563 174.03 166.611 169.293 167.064C166.129 168.622 162.598 170.318 161.886 170.66C161.78 173.731 162.275 177.501 162.006 178.849C161.539 181.181 160.624 183.451 154.659 186.907C151.078 188.982 141.502 187.256 134.421 185.546C134.458 187.284 134.326 188.424 133.967 188.721C131.373 190.869 118.749 205.542 118.749 205.542C118.749 205.542 116.902 206.033 116.161 209.203C115.419 212.372 117.173 215.97 122.911 229.079C127.969 240.632 166.32 282.623 166.32 282.623L204.056 347.761C207.085 352.99 211.924 356.98 217.7 358.764C225.14 361.062 235.964 361.019 248.886 350.98C265.219 338.289 291.065 320.537 307 309.767C299.21 307.793 285.685 301.306 280.717 279.974H280.717Z" fill="url(#paint8_linear_8980_5341)"/>
<path d="M175 132C178.112 132.748 181.186 133.825 184.124 135.097C189.714 137.517 199.156 143.572 194.954 151.112C193.08 154.472 189.135 155.633 185.841 157" stroke="#E9024D" stroke-linecap="round" stroke-linejoin="round"/>
<path d="M252.885 279.711C252.885 279.711 251.85 278.773 246.402 272.034" stroke="#101010" stroke-linecap="round"/>
<path d="M155.118 186.924C161.077 183.467 161.991 181.196 162.457 178.863C162.726 177.514 162.231 173.743 162.337 170.671L162.206 170.734L160.01 163.659L145.861 149.774L127.845 140.596C127.845 140.596 134.669 174.736 134.901 185.563C141.975 187.274 151.54 189 155.118 186.924H155.118Z" fill="url(#paint9_linear_8980_5341)"/>
<path d="M397.359 65.4919L335.966 100.755V75.2972L397.359 40.0343V65.4919Z" fill="#282526"/>
<path d="M341.905 76.3348V92.8576L346.786 90.0384V73.5156L341.905 76.3348Z" fill="url(#paint10_linear_8980_5341)"/>
<path d="M351.015 78.7834V87.5954L355.246 85.1523V76.3402L351.015 78.7834Z" fill="url(#paint11_linear_8980_5341)"/>
<path d="M363.868 68.4437L359.475 70.9811V82.7085L363.868 80.1718V68.4437Z" fill="url(#paint12_linear_8980_5341)"/>
<path d="M368.504 68.5622V78.0424L373.385 75.2232V65.7429L368.504 68.5622Z" fill="url(#paint13_linear_8980_5341)"/>
<path d="M377.615 63.968V72.7801L381.845 70.3364V61.5248L377.615 63.968Z" fill="url(#paint14_linear_8980_5341)"/>
<path d="M390.467 53.6285L386.075 56.1659V67.8934L390.467 65.356V53.6285Z" fill="url(#paint15_linear_8980_5341)"/>
<path d="M87 92C87 92 91.274 92.8896 91.3548 100.085C91.4356 107.28 94.5 123.287 112 116.253" stroke="#E9024D" stroke-linecap="round" stroke-linejoin="round"/>
<path opacity="0.46" d="M118.491 233.979C117.97 234.351 98.9278 229.849 101.186 222.164C105.107 217.41 125 218.026 125 218.026L118.491 233.979Z" fill="url(#paint16_linear_8980_5341)"/>
<path d="M136 173.948C136 173.948 145.005 177.935 154.149 173C154.911 175.338 158 185.33 158 185.33C158 185.33 149.655 191.706 141.487 187.65L136 173.948Z" fill="url(#paint17_linear_8980_5341)"/>
<path d="M164 173.964C164 173.964 163.094 189.472 151.535 191L148 179.941C148 179.941 159.81 177.706 161.698 169" fill="url(#paint18_linear_8980_5341)"/>
<path d="M176.307 149.43C174.235 158.308 173.367 161.518 171.457 162.776C169.546 164.03 166.062 166.276 162.373 165.972C158.688 165.668 144.185 164.782 137.296 154.298L132 138.831L145.503 113.082C145.503 113.082 153.48 104.633 168.434 112.046C168.434 112.046 170.771 112.595 171.182 115.16C171.594 117.729 172.75 121.329 174.009 126.834C174.661 129.677 175.803 133.249 176.474 137.259C176.67 138.431 176.822 139.64 176.915 140.884C177.111 143.607 176.993 146.485 176.307 149.43H176.307Z" fill="url(#paint19_linear_8980_5341)"/>
<path d="M169.994 113.656C170.146 111.887 167.402 109.423 163.056 106.117C158.71 102.81 138.292 96.0075 135.394 96.0001C129.401 95.985 122.919 97.914 119.02 99.1245C115.121 100.335 108.529 104.997 104.377 111.962C102.917 114.411 101.831 117.345 101.191 120.673C100.217 120.517 99.1127 120.239 97.8544 119.794C88.429 116.465 83.3913 110.618 80.6285 96.5682C80.6285 96.5682 52.7578 93.8074 40.001 114.597C28.3792 133.536 27 153.621 27 153.621C27 153.621 37.4819 153.09 40.0819 167.708C42.6824 182.326 57.3893 212.13 78.6783 203.441C99.9674 194.751 95.681 188.822 97.3669 184.925C102.475 186.201 107.443 203.635 117.696 203.607C120.484 203.264 126.462 197.666 131.655 198.501L135.854 198.709C140.973 199.531 145.16 194.667 143.583 189.73C140.327 179.537 135.837 165.304 135.039 161.884C133.764 156.413 132.444 154.356 129.064 152.514C125.684 150.673 122.446 141.898 124.147 141.625C125.849 141.352 128.256 145.537 130.052 146.935C131.849 148.333 136.648 144.887 139.025 138.026C141.402 131.166 151.347 117.448 152.586 115.958C153.825 114.468 155.358 113.652 152.871 110.852C161.81 116.07 169.994 113.656 169.994 113.656V113.656Z" fill="url(#paint20_linear_8980_5341)"/>
<path d="M131 102C131 102 149.474 106.371 154 110" stroke="#101010" stroke-linecap="round"/>
<path d="M162 154.947C162 154.947 164.644 150.703 169.41 151.191C170.823 150.013 171.03 148.313 173.17 148.63L174 148C174 148 173.809 155.269 169.559 156.646C165.31 158.022 162 154.947 162 154.947Z" fill="#FA246B"/>
<path d="M167 134.091C167.992 135.056 169.322 135.93 170.793 135.996C172.496 136.073 173.883 134.981 174.545 133.565C175.303 131.943 175.019 130.126 174.386 128.511C174.22 128.085 174.016 127.652 173.647 127.361C173.032 126.875 172.093 126.917 171.383 127.266C170.672 127.616 170.141 128.214 169.645 128.808C168.431 130.26 167.267 131.869 167.069 133.709" fill="white"/>
<path d="M129.879 200.809C140.276 205.925 145.629 227.535 139.237 237.293C122.955 262.148 80.0734 307.775 79.6723 305.947C78.8826 302.346 70.7727 284.404 75.4383 269.413C80.1039 254.421 94.7103 245.649 106.044 225.547C112.916 213.358 116.058 208.063 118.733 205.1C118.733 205.1 123.295 197.57 129.879 200.809V200.809Z" fill="url(#paint21_linear_8980_5341)"/>
<path opacity="0.46" d="M101 222.057C101 222.057 108.813 207.193 121.936 201.264C130.166 197.546 136.393 202.577 140.326 209.227C140.512 209.543 140.693 209.862 140.868 210.183C145.696 219.04 144.833 229.978 139.034 238.216L135.666 243C132.811 235.819 114.967 209.428 101 222.057H101Z" fill="url(#paint22_linear_8980_5341)"/>
<path d="M159 193C160.301 195.993 162.426 198.667 164.439 201.208C170.805 209.244 180.445 217.256 182 228" stroke="#E9024D" stroke-linecap="round" stroke-linejoin="round"/>
<path d="M147 141C147.613 139.287 149.095 137.805 151 137" stroke="#101010" stroke-linecap="round"/>
<path d="M153.138 144.998C154.524 144.964 155.911 144.431 156.921 143.44C158.062 142.321 158.556 140.633 159 139.122C159 139.122 156.819 136.946 155.334 137.001C153.849 137.056 152.459 137.828 151.347 138.844C150.594 139.532 150.033 140.851 149.419 141.67C149.03 142.187 148 143.6 148 143.601C147.997 143.608 150.002 144.4 150.2 144.466C150.966 144.723 151.756 144.924 152.561 144.984C152.755 144.998 152.947 145.003 153.138 144.998L153.138 144.998Z" fill="white"/>
<path d="M163.009 145C162.914 145.839 163.605 146.637 164.448 146.89C165.291 147.142 166.223 146.935 167 146.533" stroke="#101010" stroke-linecap="round"/>
<path d="M168 146C168.911 146 169.92 145.532 170.493 144.903C171.429 143.875 170.984 142.696 169.851 142" stroke="#101010" stroke-linecap="round"/>
<path d="M168 140C165.833 136.811 164.438 132.974 164 129" stroke="#101010" stroke-linecap="round"/>
<path d="M162 155C166.286 152.608 165.914 151.27 169 151" stroke="#101010" stroke-linecap="round"/>
<path d="M173.955 147C174.146 147.922 173.704 148.863 173.146 149.613C172.589 150.363 171.9 151.019 171.465 151.851C171.249 152.264 169.841 153.516 169.385 153.559C166.175 153.858 166.504 155.739 161 154.679" stroke="#101010" stroke-linecap="round"/>
<path d="M170.003 151C169.957 150.243 170.472 149.668 170.854 149.06C171.512 148.013 172.45 148.384 173 148" stroke="#101010" stroke-linecap="round"/>
<path d="M164 156.079C166.108 157.414 168.76 157.29 170.723 155.76C172.169 154.634 173.044 152.817 172.998 151" stroke="#101010" stroke-linecap="round"/>
<g style="mix-blend-mode:multiply" opacity="0.17">
<path d="M151.282 153.886C152.161 153.699 153.024 153.31 153.743 152.928C155.033 152.241 157.497 151.26 157.923 149.75C158.535 147.576 155.348 147.931 154.111 148.207C152.788 148.502 151.511 149.059 150.394 149.825C149.606 150.365 147.964 151.558 148.001 152.654C148.013 153.001 148.237 153.315 148.527 153.507C149.352 154.053 150.326 154.089 151.282 153.886L151.282 153.886Z" fill="#E9024D"/>
</g>
<g style="mix-blend-mode:multiply" opacity="0.17">
<path d="M177 140.654C176.957 140.674 176.909 140.698 176.866 140.717C175.936 141.16 172.252 143.152 172.007 141.062C171.926 140.372 172.544 139.556 172.966 139.08C173.905 138.021 175.371 137.209 176.569 137C176.76 138.181 176.909 139.401 177 140.654Z" fill="#E9024D"/>
</g>
<path d="M152.133 144.7C153.599 145.473 156.027 144.642 156.973 143.468C158.049 142.134 158.315 140.065 157.602 138.542C156.733 136.683 154.95 136.85 153.398 137.28C152.31 137.583 150.623 138.913 150.191 140.055C149.583 141.658 150.483 143.829 152.133 144.7L152.133 144.7Z" fill="url(#paint23_linear_8980_5341)"/>
<path d="M169.853 134.65C171.05 135.448 172.94 134.774 173.64 133.708C174.434 132.497 173.757 129.44 173.124 127.968C172.354 126.172 171.743 127.361 170.531 127.697C169.681 127.933 168.401 129.113 168.108 130.172C167.696 131.659 168.505 133.752 169.853 134.65V134.65Z" fill="url(#paint24_linear_8980_5341)"/>
<path d="M166 130C166.559 128.297 167.645 126.849 169 126" stroke="#101010" stroke-linecap="round"/>
<path d="M114.16 136.705L138.551 143.865C139.118 144.032 139.64 143.491 139.465 142.918L139.208 142.08C138.977 141.323 139.324 140.51 140.027 140.166C143.469 138.48 153.344 133.575 158.707 130.203C165.275 126.073 172.084 119.977 173.688 118.917C175.291 117.857 176.365 118.007 176.365 118.007L179.883 129.506C180.233 130.649 179.779 131.887 178.781 132.52L170.335 137.879C169.741 138.256 169.01 138.337 168.349 138.097L167.601 137.827C166.641 137.48 165.575 137.639 164.755 138.253V138.253C164.281 138.609 163.917 139.097 163.709 139.658L161.992 144.28C161.784 144.84 161.365 145.293 160.828 145.539L147.432 151.68C146.888 151.93 146.291 152.036 145.696 151.989L144.055 151.861C142.758 151.759 141.619 150.946 141.086 149.742L140.911 149.346L114.211 138.568C113.261 138.184 112.176 138.472 111.532 139.278L111.44 139.393C111.001 139.943 110.13 139.712 110.012 139.015V139.015C109.954 138.675 110.112 138.334 110.407 138.162L112.569 136.9C113.051 136.619 113.625 136.549 114.16 136.705L114.16 136.705Z" stroke="#E9024D" stroke-linecap="round" stroke-linejoin="round"/>
<path opacity="0.46" d="M114.16 136.705L138.551 143.865C139.118 144.032 139.64 143.491 139.465 142.918L139.208 142.08C138.977 141.323 139.324 140.51 140.027 140.166C143.469 138.48 153.344 133.575 158.707 130.203C165.275 126.073 172.084 119.977 173.688 118.917C175.291 117.857 176.365 118.007 176.365 118.007L179.883 129.506C180.233 130.649 179.779 131.887 178.781 132.52L170.335 137.879C169.741 138.256 169.01 138.337 168.349 138.097L167.601 137.827C166.641 137.48 165.575 137.639 164.755 138.253C164.281 138.609 163.917 139.097 163.709 139.658L161.992 144.28C161.784 144.84 161.365 145.293 160.828 145.539L147.432 151.68C146.888 151.93 146.291 152.036 145.696 151.989L144.055 151.861C142.758 151.759 141.619 150.946 141.086 149.742L140.911 149.346L114.211 138.568C113.261 138.184 112.176 138.472 111.532 139.278L111.44 139.393C111.001 139.943 110.13 139.712 110.012 139.015C109.954 138.675 110.112 138.334 110.407 138.162L112.569 136.9C113.051 136.619 113.625 136.549 114.16 136.705L114.16 136.705Z" fill="url(#paint25_linear_8980_5341)"/>
<path d="M159 139.782C157.561 137.599 154.563 137.763 152.614 139.06C151.086 140.078 149.971 141.694 149.112 143.31C148.709 144.068 148.19 144.949 147.348 144.997C146.983 145.017 146.312 144.945 146 144.751C146.576 144.714 147.006 144.21 147.35 143.736C149.083 141.346 150.603 138.468 153.471 137.332C155.582 136.496 158.505 137.214 159 139.782L159 139.782Z" fill="#282526"/>
<path d="M167.047 134.579C166.722 131.608 168.122 128.519 170.499 126.762C171.35 126.132 172.406 125.652 173.439 125.866C173.901 125.962 174.343 126.193 174.813 126.172C175.647 126.134 176.236 125.342 177 125C176.743 125.849 176.241 126.619 175.573 127.195C175.49 127.266 175.401 127.336 175.294 127.358C175.16 127.386 175.023 127.332 174.894 127.285C172.994 126.601 171.101 127.485 169.837 128.951C168.421 130.593 167.789 132.951 167.177 135" fill="#282526"/>
<path d="M133 153.883C132.739 154.024 132.512 154.226 132.345 154.474C131.63 155.533 130.59 156.317 129.39 156.699L129.265 156.739C128.384 157.019 127.449 157.078 126.543 156.896C122.785 156.145 119.175 154.216 116.596 151.288C114.175 148.538 112.117 143.95 113.388 140.22C114.697 136.38 118.801 136.554 121.912 137.777C125.216 139.075 128.374 141.797 129.381 145.383" fill="url(#paint26_linear_8980_5341)"/>
<path d="M119 142.761C120.778 141.011 123.342 142.668 124.913 143.853C126.686 145.19 128.12 146.972 129 149" stroke="#101010" stroke-linecap="round"/>
<circle cx="152.5" cy="142.5" r="0.5" fill="white"/>
<circle cx="169.5" cy="132.5" r="0.5" fill="white"/>
<path d="M101 120C101 120 94.8961 160.941 64 170" stroke="#101010" stroke-linecap="round"/>
<path d="M81 192C81 192 91.3647 178.833 98 184.351" stroke="#101010" stroke-linecap="round"/>
<path d="M63.5117 217.753C64.4556 217.399 65.3448 216.987 66.175 216.543C65.6391 211.784 65.6836 207.953 65.9095 203.791C66.4698 193.479 51.5838 194.212 51.5838 194.212L41.7414 186.967L40.8278 176.305C40.6501 174.226 39.0199 172.569 36.9462 172.357L36.5352 172.315L36.1286 174.757L35.2472 173.245C34.7479 172.388 33.7771 171.922 32.7971 172.068C31.553 172.254 30.6574 173.361 30.736 174.618L30.9224 177.606L30.7609 177.072C30.4734 176.122 29.5031 175.552 28.5338 175.765C27.6065 175.969 26.9715 176.825 27.0457 177.772L27.506 183.63L27.2941 183.597C26.2506 183.437 25.3097 184.244 25.3097 185.301L26.0227 197.626C26.0925 198.829 26.7177 199.931 27.7148 200.606L46.8661 213.586C46.8661 213.586 47.0648 215.831 47.4035 219.5C52.3188 219.895 58.262 219.724 63.5117 217.753V217.753Z" fill="url(#paint27_linear_8980_5341)"/>
<path d="M68.4739 229.116C67.2836 224.08 66.571 220.059 66.1751 216.543C65.3449 216.987 64.4557 217.399 63.5118 217.753C58.2621 219.724 52.3189 219.895 47.4036 219.5C48.4837 231.2 50.9875 257.423 53.0149 271.871C55.0487 286.361 61.6708 314.933 79.3632 305.735C80.2007 304.283 81.3975 301.941 82.2555 298.897C84.7603 290.012 81.784 284.36 77.2094 264.188C74.9647 254.29 70.2607 236.673 68.4739 229.116V229.116Z" fill="url(#paint28_linear_8980_5341)"/>
<path d="M28 184V184C29.4204 185.178 30.3313 186.916 30.5255 188.817L31.039 195.965L37 201" stroke="#101010" stroke-linecap="round"/>
<path d="M31 175L34.6614 192.751L40 197" stroke="#101010" stroke-linecap="round"/>
<path d="M36 175L38.3212 190.104L44 194" stroke="#101010" stroke-linecap="round"/>
<path d="M65.9971 206.625C65.9971 206.625 66.325 194.573 60.0473 189.508C53.7696 184.442 48.8802 181.995 48.3973 180.946L47.713 180C46.1127 180.977 45.5361 183.077 46.4019 184.774L46.5888 185.139C46.7738 185.502 47.0171 185.829 47.3088 186.107L53.1862 191.707L51.9384 194.114C51.9384 194.114 49.7856 203.994 57.371 208" fill="url(#paint29_linear_8980_5341)"/>
<path d="M51.2963 194C51.2963 194 49.0362 203.961 57 208" stroke="#101010" stroke-linecap="round"/>
<path d="M152 241.37V241.37C156.142 244.618 162.072 244.884 166.523 242.022L179 234" stroke="#E9024D" stroke-linecap="round" stroke-linejoin="round"/>
<path d="M248.408 63.642C248.408 63.642 250.354 73.4572 245 78L240 67.7537C240 67.7537 244.332 62.6803 245.427 60.6481C245.963 59.6533 246.818 58.2938 247.554 57.1616C248.318 55.982 248.949 55.0536 248.949 55.0536C248.949 55.0536 248.99 55.0346 249.058 55.0158C249.427 54.9399 250.563 54.9826 249.658 58.9049C248.595 63.5378 248.408 63.642 248.408 63.642Z" fill="url(#paint30_linear_8980_5341)"/>
<path d="M248.997 55.7991C248.949 56.9781 248.38 57.0568 248 56.9781C248.476 55.8908 248.87 55.0349 248.87 55.0349C248.87 55.0349 248.895 55.0174 248.938 55C248.986 55.2183 249.008 55.4847 248.997 55.7991Z" fill="#E9024D"/>
<path d="M240 68C240 68 243.992 62.2832 245 60" stroke="#101010" stroke-linecap="round"/>
<path d="M245 60C246.196 58.2041 248.851 55.0445 248.851 55.0445C248.851 55.0445 250.793 54.3498 249.628 58.4529" stroke="#101010" stroke-linecap="round"/>
<path d="M250 59C248.857 63.6104 248.659 63.7131 248.659 63.7131C248.659 63.7131 250.747 73.4782 245 78" stroke="#101010" stroke-linecap="round"/>
<path d="M252 62C252.03 61.6294 253.253 56.9972 253.253 56.9972C253.253 56.9972 260.93 57.0278 262.123 56.5648C263.317 56.1014 264 55 264 55" stroke="#101010" stroke-linecap="round"/>
<path d="M252.009 55C252.009 55 251.835 56.4491 253 57" stroke="#101010" stroke-linecap="round"/>
<path d="M255 64L256.743 59.0354C256.743 59.0354 264.557 58.2893 265.163 57.5433C265.769 56.7972 266 56 266 56" stroke="#101010" stroke-linecap="round"/>
<path d="M250 61C250 61 255.143 63.0359 257 66" stroke="#101010" stroke-linecap="round"/>
<path d="M235 135.174C235 135.174 242.832 132.875 250 145" stroke="#E9024D" stroke-linecap="round" stroke-linejoin="round"/>
<path d="M168 285C176.124 272.309 192.52 252.786 219 247" stroke="#E9024D" stroke-linecap="round" stroke-linejoin="round"/>
<path d="M328.331 246.299C319.777 241.633 309.432 241.666 300.851 246.281L284.452 257.434C279.144 266.867 281.042 280.03 281.042 280.03C286.005 301.37 299.515 307.86 307.297 309.835C315.723 304.132 321.376 300.385 321.376 300.385C321.376 300.385 338.788 313.26 366.428 330.776C374.905 321.93 388.112 305.226 391.225 284.51C359.779 265.249 331.92 248.256 328.331 246.299H328.331Z" fill="url(#paint31_linear_8980_5341)"/>
<path d="M504.205 359.295C499.935 367.701 493.068 375.002 484.414 378.929C475.512 382.969 465.375 385.02 455.448 385.508C432.45 371.461 387.968 344.261 371.891 334.215C370.027 333.052 368.207 331.904 366.43 330.776C374.908 321.931 388.115 305.227 391.224 284.508C430.581 308.617 475.561 336.276 485.62 342.464C486.962 343.289 487.684 343.734 487.684 343.734C487.709 343.714 487.728 343.7 487.753 343.68C489.417 342.357 491.184 341.136 493.009 340.007C493.844 339.489 494.688 338.991 495.542 338.513C500.179 335.914 505.006 333.882 509.227 332.363C510.799 341.306 508.193 351.446 504.205 359.295Z" fill="url(#paint32_linear_8980_5341)"/>
<path d="M523.339 330.983C522.268 329.582 520.465 328.957 518.759 329.402C516.521 329.986 513.134 330.958 509.23 332.363C510.798 341.307 508.193 351.444 504.205 359.295C499.934 367.703 493.066 375.001 484.415 378.927C475.514 382.966 465.376 385.019 455.449 385.508C464.034 390.752 469.625 394.162 469.625 394.162C469.625 394.162 482.681 407.472 488.05 396.36C494.896 386.624 508.793 368.215 512.453 359.362C517.591 350.481 523.685 336.129 524.056 334.902C524.463 333.557 524.191 332.099 523.339 330.983Z" fill="url(#paint33_linear_8980_5341)"/>
<path d="M161 276C169.298 264.577 186.955 245.321 214 241" stroke="#E9024D" stroke-linecap="round" stroke-linejoin="round"/>
<path d="M283.93 258C279.265 266.009 278.967 276.049 281.908 285.185C285.393 296.025 295.943 307.862 307 310" stroke="#101010" stroke-linecap="round"/>
<path d="M347 239L352 243" stroke="#101010" stroke-linecap="round"/>
<path d="M311 297L321 300" stroke="#101010" stroke-linecap="round"/>
<circle cx="512.5" cy="296.5" r="3.5" fill="#282526"/>
<circle cx="483.5" cy="366.5" r="3.5" fill="#282526"/>
<circle cx="495.5" cy="353.5" r="3.5" fill="#282526"/>
<path d="M485 366.113C485.034 366.787 484.512 367.359 483.838 367.393H483.779C483.13 367.393 482.593 366.885 482.559 366.235C481.92 353.395 485.356 343.138 485.502 342.708C485.532 342.62 485.571 342.537 485.619 342.464C486.962 343.289 487.684 343.734 487.684 343.734C487.708 343.714 487.728 343.7 487.752 343.68C487.294 345.116 484.424 354.679 485 366.113Z" fill="#282526"/>
<path d="M495.654 354.542C495.473 354.635 495.278 354.684 495.088 354.684C494.649 354.684 494.224 354.445 494.009 354.03C491.418 349.116 492.418 342.684 493.009 340.007C493.843 339.489 494.688 338.991 495.542 338.512C495.708 338.791 495.756 339.128 495.659 339.46C495.644 339.509 494.761 342.601 494.761 346.22C494.761 348.437 495.093 350.86 496.166 352.891C496.479 353.487 496.249 354.225 495.654 354.542H495.654Z" fill="#282526"/>
<ellipse cx="518.757" cy="286.791" rx="3.47881" ry="3.48132" fill="#282526"/>
<path d="M512.975 295.903C512.756 296.069 512.497 296.152 512.238 296.152C511.872 296.152 511.506 295.986 511.267 295.674C511.189 295.571 503.795 285.641 510.457 274.491L512.39 275.565C512.556 275.424 512.726 275.282 512.897 275.14C512.868 275.209 512.839 275.272 512.8 275.331C506.577 285.207 512.936 293.832 513.21 294.194C513.615 294.731 513.512 295.498 512.975 295.903H512.975Z" fill="#282526"/>
<path d="M519.334 271.863C519.178 272.112 515.635 277.959 519.071 286.325C519.33 286.95 519.032 287.663 518.407 287.922C518.256 287.986 518.1 288.015 517.944 288.015C517.465 288.015 517.006 287.727 516.816 287.258C514.078 280.591 515.279 275.267 516.323 272.537C517.304 271.848 518.31 271.189 519.33 270.559C519.574 270.945 519.593 271.453 519.334 271.863H519.334Z" fill="#282526"/>
<path d="M223 300L301 246" stroke="#E9024D" stroke-linecap="round" stroke-linejoin="round"/>
<path d="M285 290.456L233.472 324.854C225.118 330.431 213.779 328.402 207.942 320.286L184 287" stroke="#101010" stroke-linecap="round"/>
<path d="M378 317L462 373" stroke="#101010" stroke-linecap="round"/>
<path d="M401 252L487 306" stroke="#101010" stroke-linecap="round"/>
<rect x="84.1062" y="0.00012207" width="4.09029" height="19.0447" transform="rotate(45 84.1062 0.00012207)" fill="url(#paint34_linear_8980_5341)"/>
<rect width="4.09029" height="19.0447" transform="matrix(-0.706864 0.707349 -0.706839 -0.707375 86.9973 13.4717)" fill="url(#paint35_linear_8980_5341)"/>
<rect x="597.07" y="398.522" width="22.8272" height="22.8272" transform="rotate(30.3921 597.07 398.522)" stroke="url(#paint36_linear_8980_5341)"/>
<rect x="993.453" y="50.0825" width="22.8272" height="22.8272" transform="rotate(-108.64 993.453 50.0825)" stroke="url(#paint37_linear_8980_5341)"/>
<path d="M327.787 419.617L317.824 427.845L309.601 417.875L304.151 422.376L312.374 432.347L302.411 440.575L306.909 446.03L316.872 437.801L325.095 447.771L330.545 443.27L322.322 433.299L332.285 425.071L327.787 419.617Z" fill="url(#paint38_linear_8980_5341)"/>
<path d="M120 147.021L113.658 148C113.295 148 113 147.668 113 147.259V143.741C113 143.332 113.295 143 113.658 143L120 143.979V147.021Z" fill="url(#paint39_linear_8980_5341)"/>
<path d="M257 44C256.506 44.7528 255.635 44.9584 255 45L257 44Z" fill="#E9024D"/>
<path d="M264 54.4388C263.731 54.766 263.264 55.0336 262.462 54.9966C261.676 54.9593 261.242 54.5205 261 54C262.374 54.1636 263.522 54.2529 264 54.4388Z" fill="#E9024D"/>
<path d="M269 55C268.903 55.3129 268.654 55.6661 268.092 55.8896C267.476 56.1355 267.157 55.9299 267 55.6706C267.632 55.4873 268.487 55.228 269 55Z" fill="#E9024D"/>
<path d="M287.215 136.226C284.044 149.975 293.048 163.793 307.331 167.087C321.614 170.381 335.759 161.9 338.93 148.152C341.378 137.536 336.571 126.885 327.683 121.064C325.058 119.343 322.074 118.042 318.814 117.291C313.622 116.093 308.446 116.452 303.806 118.054C295.696 120.859 289.233 127.475 287.215 136.226Z" fill="url(#paint40_linear_8980_5341)"/>
<g style="mix-blend-mode:multiply" opacity="0.36">
<path d="M302.872 152.046C317.155 155.339 331.301 146.859 334.471 133.11C334.841 131.508 335.042 129.906 335.092 128.32C338.967 133.986 340.562 141.076 338.93 148.152C335.759 161.9 321.614 170.381 307.331 167.087C294.712 164.177 286.22 153.05 286.598 141.015C290.255 146.363 295.938 150.447 302.872 152.046Z" fill="#7F47DD"/>
</g>
<mask id="mask0_8980_5341" style="mask-type:alpha" maskUnits="userSpaceOnUse" x="286" y="116" width="54" height="52">
<path d="M287.215 136.226C284.044 149.975 293.048 163.793 307.331 167.087C321.614 170.381 335.759 161.9 338.93 148.152C341.378 137.536 336.571 126.885 327.683 121.064C325.058 119.343 322.074 118.042 318.814 117.291C313.622 116.093 308.446 116.452 303.806 118.054C295.696 120.859 289.233 127.475 287.215 136.226Z" fill="black"/>
</mask>
<g mask="url(#mask0_8980_5341)">
<ellipse rx="5.05409" ry="6.50677" transform="matrix(0.980048 -0.198762 0.198229 0.980156 296.146 155.745)" stroke="white"/>
<path d="M303.623 117.617C302.529 121.142 307.525 125.971 314.844 128.435C322.214 130.922 329.159 130.07 330.352 126.537C330.949 124.767 329.99 122.66 327.956 120.687" stroke="white"/>
<path d="M339.784 146.38C337.252 149.919 333.465 152.645 328.959 154.298" stroke="white"/>
<ellipse rx="2.79289" ry="3.59564" transform="matrix(0.980048 -0.198762 0.198229 0.980156 296.146 155.745)" stroke="white"/>
<ellipse rx="1.96913" ry="2.53512" transform="matrix(0.980048 -0.198762 0.198229 0.980156 296.146 155.745)" fill="#101010"/>
</g>
<path d="M45.8615 347.855L32.6632 361.572C31.5524 362.382 30.4645 363.286 29.4161 364.284C27.6351 365.978 26.1153 367.8 24.8737 369.669L13.7618 381.218L24.6819 389.073L24.6868 389.069C30.0462 392.863 39.7763 390.49 47.4112 383.227C55.0987 375.914 57.9475 366.225 54.3178 360.695L54.3207 360.692L45.8615 347.855Z" fill="url(#paint41_linear_8980_5341)"/>
<ellipse rx="23.2381" ry="14.6904" transform="matrix(0.72453 -0.689243 0.688721 0.725027 30.0509 365.082)" fill="url(#paint42_linear_8980_5341)"/>
<path d="M44.0299 351.429C48.6016 356.242 46.0095 366.138 38.2385 373.53C31.0986 380.323 22.0718 382.642 17.1086 379.239C16.6694 378.935 16.2589 378.59 15.8884 378.2C11.3167 373.388 13.9084 363.492 21.6799 356.099C29.1263 349.015 38.6226 346.8 43.4281 350.861C43.6385 351.039 43.8376 351.227 44.0299 351.429Z" fill="url(#paint43_linear_8980_5341)"/>
<path d="M44.0299 351.429C48.6016 356.242 46.0095 366.137 38.2385 373.53C31.0985 380.323 22.0717 382.642 17.1086 379.239C16.9075 378.55 16.5195 378.033 16.2389 377.289C15.925 376.467 15.8684 375.504 16.293 374.736C16.5922 374.184 17.1359 373.714 17.1447 373.088C17.1515 372.806 17.0422 372.532 16.9753 372.259C16.6254 370.914 17.256 369.38 18.4464 368.666C18.972 368.352 19.607 368.175 19.9813 367.694C20.2215 367.39 20.323 367.005 20.4309 366.635C20.8994 364.966 21.5183 363.311 22.5261 361.899C23.5301 360.483 24.9577 359.318 26.6342 358.878C26.9178 358.807 27.2584 358.696 27.3077 358.409C27.3292 358.264 27.2589 358.119 27.2165 357.98C26.9827 357.199 27.5308 356.423 28.0432 355.792C28.7226 354.967 29.4162 354.121 30.3249 353.552C31.2338 352.983 32.4056 352.734 33.3837 353.171C33.7268 352.144 34.6107 351.31 35.66 351.027C36.706 350.747 37.889 351.023 38.6982 351.745C38.7993 351.23 39.2595 350.847 39.7598 350.694C40.2635 350.545 40.8013 350.576 41.3216 350.61C42.0176 350.656 42.738 350.713 43.4281 350.861C43.6385 351.039 43.8376 351.227 44.0299 351.429Z" fill="white"/>
<path d="M34.9412 345.732C34.6801 347.032 33.5497 348.046 32.7786 349.063C31.9249 350.192 31.1109 351.384 30.635 352.726C29.9097 354.791 28.403 357.033 28.7388 359.308C29.0166 361.16 30.6057 362.755 31.9069 363.99C32.4501 364.498 33.0319 364.975 33.5429 365.521C33.6839 365.669 33.7732 365.827 33.8245 365.987C33.7952 366.049 33.7625 366.106 33.7201 366.16C33.1798 366.896 32.0094 366.777 31.3144 367.364C30.4002 368.146 30.7228 369.726 29.9234 370.621C29.1664 371.476 27.8076 371.293 26.7241 371.67C26.2473 371.423 25.8222 371.039 25.3551 370.802C24.6088 370.421 24.1051 369.586 23.2876 369.413C22.783 369.307 22.2573 369.484 21.839 369.781C21.4203 370.078 21.103 370.487 20.8058 370.905C20.4441 371.41 20.0015 371.987 19.3807 371.971C18.8701 371.958 18.4504 371.488 18.3801 370.982C18.3069 370.479 18.4553 369.785 18.7862 369.396C16.6621 369.442 14.7816 370.766 13.253 372.233C12.496 372.961 11.7649 373.75 10.8248 374.2C9.96877 374.61 8.99603 374.706 8.05505 374.652C7.50353 374.617 6.92955 374.523 6.48542 374.197C5.98368 373.825 5.72014 373.186 5.68108 372.564C5.63813 371.937 5.79529 371.316 5.99688 370.72C7.18678 367.209 10.0361 364.296 13.5238 363.034C13.4155 362.813 13.2291 362.808 13.0148 362.696C11.7517 362.799 10.7043 363.681 9.5129 364.107C8.54067 364.451 7.46301 364.487 6.46883 364.206C5.79675 364.016 5.12956 363.647 4.80694 363.023C4.5605 362.544 4.55073 361.974 4.65713 361.448C4.8953 360.217 5.75868 359.126 6.89734 358.603C7.45619 358.347 8.07164 358.173 8.68318 358.137C7.16724 357.618 5.76893 356.657 4.62589 355.594C2.91911 354.01 0.508564 352.274 0.0526947 349.823C-0.108377 348.959 0.0922233 347.98 0.759416 347.399C1.15865 347.046 1.68771 346.873 2.21775 346.793C4.67468 346.423 7.20045 347.849 9.01897 349.367C10.6691 350.749 12.0455 352.425 13.5248 353.982L15.7465 349.969C13.4599 348.498 11.3612 346.182 10.0229 343.816C9.32889 342.582 9.29815 340.657 11.0674 340.464C11.6833 340.396 12.3042 340.554 12.8859 340.762C14.3677 341.287 15.7372 342.133 16.8769 343.219C17.8442 344.139 18.4587 345.366 18.712 346.675L19.2728 349.619C19.1937 348.118 19.4426 346.601 20.0059 345.209C20.9297 342.935 22.701 341.021 24.8899 339.916C25.3551 339.682 25.847 339.484 26.3585 339.455C26.8739 339.423 27.422 339.589 27.7573 339.985C28.2869 340.606 28.1287 341.539 27.9428 342.335C27.4513 344.434 27.0653 346.587 26.5703 348.688C27.4293 346.948 28.5178 345.273 30.0805 344.089C30.7526 343.585 31.5389 343.207 32.3754 343.159C33.8518 343.069 35.2536 344.161 34.9412 345.732L34.9412 345.732Z" fill="url(#paint44_linear_8980_5341)"/>
<path d="M18.144 354.909C17.5007 353.182 17.1664 349.969 18.6018 348.502C19.2758 347.814 20.3901 347.935 21.1363 348.431C21.8372 348.898 22.3111 349.652 22.5654 350.454C22.8197 351.257 22.8704 352.11 22.8607 352.952" fill="url(#paint45_linear_8980_5341)"/>
<path d="M13.7733 356.432C12.6839 354.872 12.3491 352.814 12.8352 350.979C13.0334 350.23 13.3721 349.504 13.9065 348.944C14.7665 348.042 16.3058 347.597 17.3327 348.504" fill="url(#paint46_linear_8980_5341)"/>
<path d="M18.144 354.909C17.5007 353.182 17.1664 349.969 18.6018 348.502C19.2758 347.814 20.3901 347.935 21.1363 348.431C21.8372 348.898 22.3111 349.652 22.5654 350.454C22.8197 351.257 22.8704 352.11 22.8607 352.952" fill="url(#paint47_linear_8980_5341)"/>
<path d="M24.4753 364.509C21.3293 365.364 15.0137 366.946 13.0307 363.217C12.4982 362.216 12.6632 360.96 13.1703 359.945C13.8784 358.529 15.207 357.468 16.7014 356.946C18.477 356.325 20.4244 356.444 22.2073 356.973C22.4079 357.032 22.6559 357.196 22.5699 357.386" fill="url(#paint48_linear_8980_5341)"/>
<path d="M40.4165 362.492C38.0607 361.862 36.5652 362.174 36.1489 362.239C35.1405 362.396 34.2801 363.242 34.0961 364.246C33.995 364.827 34.0888 365.479 33.8242 365.987C33.7949 366.049 33.7622 366.106 33.7198 366.16C33.1795 366.897 32.0091 366.777 31.3141 367.364C30.4 368.146 30.7225 369.726 29.9231 370.621C29.1661 371.476 27.8073 371.293 26.7238 371.67C26.5291 371.734 26.3475 371.819 26.1752 371.929C25.512 372.358 25.1435 373.146 25.0717 373.936C25.0034 374.722 25.2045 375.508 25.4758 376.247" stroke="#F0014F"/>
<path d="M34.0355 359.024C33.4639 358.24 33.2965 357.177 33.6001 356.256C33.9032 355.334 34.6694 354.579 35.5943 354.289C36.1249 354.122 36.7247 354.11 37.2176 354.366" stroke="#F0014F"/>
<path d="M19.8664 377.147C19.4032 376.381 19.4091 375.355 19.8806 374.594C20.352 373.833 21.2681 373.371 22.1598 373.446" stroke="#F0014F"/>
<path d="M197 226L206 222" stroke="#E9024D" stroke-linecap="round" stroke-linejoin="round"/>
<path d="M119 226C115.341 235.09 108.26 242.217 101.634 249.333C95.046 256.407 87.718 264.649 85 274" stroke="#E9024D" stroke-linecap="round" stroke-linejoin="round"/>
<path d="M116 224C112.449 233.09 105.576 240.217 99.1448 247.333C92.7506 254.407 85.6381 262.649 83 272" stroke="#E9024D" stroke-linecap="round" stroke-linejoin="round"/>
<path d="M100 251L103 254" stroke="#E9024D" stroke-linecap="round" stroke-linejoin="round"/>
<circle cx="104" cy="254" r="2" stroke="#E9024D" stroke-linecap="round" stroke-linejoin="round"/>
<path d="M49 232.588C49 232.588 53.8522 234.216 59 231" stroke="#E9024D" stroke-linecap="round" stroke-linejoin="round"/>
<path d="M49 235.792C49 235.792 54.6651 236.9 60 234" stroke="#E9024D" stroke-linecap="round" stroke-linejoin="round"/>
<path d="M215 158L217 160" stroke="#E9024D" stroke-linecap="round" stroke-linejoin="round"/>
<path d="M211 165C211 165 218.5 157.946 226 153" stroke="#E9024D" stroke-linecap="round" stroke-linejoin="round"/>
<ellipse rx="0.966386" ry="0.803626" transform="matrix(0.759434 -0.650584 0.650036 0.759903 210.117 165.487)" stroke="#E9024D" stroke-linecap="round" stroke-linejoin="round"/>
<ellipse rx="0.966386" ry="0.803626" transform="matrix(0.759434 -0.650584 0.650036 0.759903 226.762 152.615)" stroke="#E9024D" stroke-linecap="round" stroke-linejoin="round"/>
<path d="M244 110V95.0275L236 91" stroke="#E9024D" stroke-linecap="round" stroke-linejoin="round"/>
<path d="M243 110V95.7497L237 93" stroke="#E9024D" stroke-linecap="round" stroke-linejoin="round"/>
<path d="M238 95L241 96.5705V110H238V95Z" fill="#E9024D"/>
<path d="M49 238C49 238 53.7891 238 56 238" stroke="#E9024D" stroke-linecap="round" stroke-linejoin="round"/>
<rect width="1.44827" height="1.44827" transform="matrix(0.930277 0.366857 -0.366399 0.930458 55.9002 236.796)" stroke="#E9024D" stroke-linecap="round" stroke-linejoin="round"/>
<rect width="1.44827" height="1.44827" transform="matrix(0.930277 0.366857 -0.366399 0.930458 60.4164 232.686)" stroke="#E9024D" stroke-linecap="round" stroke-linejoin="round"/>
<path d="M236 88.7089C236 88.7089 245.462 90.3107 252 86" stroke="#E9024D" stroke-linecap="round" stroke-linejoin="round"/>
<path d="M247 316L253 324" stroke="#101010" stroke-linecap="round"/>
<path d="M251 313L263 329" stroke="#101010" stroke-linecap="round"/>
<defs>
<linearGradient id="paint0_linear_8980_5341" x1="181.935" y1="119.818" x2="161.612" y2="132.613" gradientUnits="userSpaceOnUse">
<stop stop-color="#E9024D"/>
<stop offset="1" stop-color="#101010"/>
</linearGradient>
<linearGradient id="paint1_linear_8980_5341" x1="221.406" y1="284.501" x2="335.122" y2="175.046" gradientUnits="userSpaceOnUse">
<stop stop-color="#E9024D"/>
<stop offset="1" stop-color="#101010"/>
</linearGradient>
<linearGradient id="paint2_linear_8980_5341" x1="202.904" y1="274.229" x2="318.386" y2="167.823" gradientUnits="userSpaceOnUse">
<stop stop-color="white"/>
<stop offset="1" stop-color="#FC9AC2"/>
</linearGradient>
<linearGradient id="paint3_linear_8980_5341" x1="169" y1="197" x2="196" y2="197" gradientUnits="userSpaceOnUse">
<stop stop-color="#E9024D"/>
<stop offset="1" stop-color="#101010"/>
</linearGradient>
<linearGradient id="paint4_linear_8980_5341" x1="285.425" y1="215.079" x2="216.621" y2="240.355" gradientUnits="userSpaceOnUse">
<stop stop-color="#E9024D"/>
<stop offset="1" stop-color="#101010"/>
</linearGradient>
<linearGradient id="paint5_linear_8980_5341" x1="336.163" y1="169.022" x2="292.408" y2="259.722" gradientUnits="userSpaceOnUse">
<stop stop-color="white"/>
<stop offset="1" stop-color="#FC9AC2"/>
</linearGradient>
<linearGradient id="paint6_linear_8980_5341" x1="584.829" y1="253.242" x2="489.85" y2="136.056" gradientUnits="userSpaceOnUse">
<stop stop-color="#E9024D"/>
<stop offset="1" stop-color="#101010"/>
</linearGradient>
<linearGradient id="paint7_linear_8980_5341" x1="489.829" y1="317.27" x2="550.473" y2="343.368" gradientUnits="userSpaceOnUse">
<stop stop-color="#E9024D"/>
<stop offset="1" stop-color="#101010"/>
</linearGradient>
<linearGradient id="paint8_linear_8980_5341" x1="366.985" y1="183.402" x2="135.426" y2="123.766" gradientUnits="userSpaceOnUse">
<stop stop-color="#E9024D"/>
<stop offset="1" stop-color="#101010"/>
</linearGradient>
<linearGradient id="paint9_linear_8980_5341" x1="140.036" y1="183.761" x2="155.343" y2="172.334" gradientUnits="userSpaceOnUse">
<stop stop-color="white"/>
<stop offset="0.195499" stop-color="#FEFAFC"/>
<stop offset="0.395905" stop-color="#FEEEF5"/>
<stop offset="0.59859" stop-color="#FDDAE8"/>
<stop offset="0.801518" stop-color="#FDBDD7"/>
<stop offset="1" stop-color="#FC9AC2"/>
</linearGradient>
<linearGradient id="paint10_linear_8980_5341" x1="331.61" y1="75.0062" x2="350.797" y2="79.6521" gradientUnits="userSpaceOnUse">
<stop stop-color="#E9024D"/>
<stop offset="1" stop-color="#101010"/>
</linearGradient>
<linearGradient id="paint11_linear_8980_5341" x1="350.04" y1="73.6723" x2="354.675" y2="86.0489" gradientUnits="userSpaceOnUse">
<stop stop-color="#E9024D"/>
<stop offset="1" stop-color="#101010"/>
</linearGradient>
<linearGradient id="paint12_linear_8980_5341" x1="359.119" y1="68.7946" x2="365.181" y2="79.6596" gradientUnits="userSpaceOnUse">
<stop stop-color="#E9024D"/>
<stop offset="1" stop-color="#101010"/>
</linearGradient>
<linearGradient id="paint13_linear_8980_5341" x1="367.522" y1="60.0301" x2="371.774" y2="72.6861" gradientUnits="userSpaceOnUse">
<stop stop-color="#E9024D"/>
<stop offset="1" stop-color="#101010"/>
</linearGradient>
<linearGradient id="paint14_linear_8980_5341" x1="376.678" y1="59.6041" x2="381.314" y2="71.9807" gradientUnits="userSpaceOnUse">
<stop stop-color="#E9024D"/>
<stop offset="1" stop-color="#101010"/>
</linearGradient>
<linearGradient id="paint15_linear_8980_5341" x1="386.003" y1="59.3497" x2="392.065" y2="70.2148" gradientUnits="userSpaceOnUse">
<stop stop-color="#E9024D"/>
<stop offset="1" stop-color="#101010"/>
</linearGradient>
<linearGradient id="paint16_linear_8980_5341" x1="101" y1="234" x2="125" y2="234" gradientUnits="userSpaceOnUse">
<stop stop-color="#E9024D"/>
<stop offset="1" stop-color="#101010"/>
</linearGradient>
<linearGradient id="paint17_linear_8980_5341" x1="136.248" y1="173.954" x2="137.021" y2="188.734" gradientUnits="userSpaceOnUse">
<stop stop-color="#E9024D"/>
<stop offset="1" stop-color="#101010"/>
</linearGradient>
<linearGradient id="paint18_linear_8980_5341" x1="147.013" y1="177.079" x2="156.549" y2="197.406" gradientUnits="userSpaceOnUse">
<stop stop-color="#E9024D"/>
<stop offset="0.0624971" stop-color="#CA0344"/>
<stop offset="0.207827" stop-color="#880831"/>
<stop offset="0.339777" stop-color="#540B23"/>
<stop offset="0.453778" stop-color="#2F0D18"/>
<stop offset="0.545311" stop-color="#180F12"/>
<stop offset="0.602985" stop-color="#101010"/>
</linearGradient>
<linearGradient id="paint19_linear_8980_5341" x1="121.19" y1="117.739" x2="142.127" y2="184.974" gradientUnits="userSpaceOnUse">
<stop stop-color="white"/>
<stop offset="1" stop-color="#FC9AC2"/>
</linearGradient>
<linearGradient id="paint20_linear_8980_5341" x1="99.6169" y1="265.797" x2="206.432" y2="118.285" gradientUnits="userSpaceOnUse">
<stop stop-color="#E9024D"/>
<stop offset="0.101064" stop-color="#E2024B"/>
<stop offset="0.240978" stop-color="#D00346"/>
<stop offset="0.403575" stop-color="#B3053D"/>
<stop offset="0.583307" stop-color="#8A0832"/>
<stop offset="0.777085" stop-color="#550B23"/>
<stop offset="0.979727" stop-color="#160F11"/>
<stop offset="1" stop-color="#101010"/>
</linearGradient>
<linearGradient id="paint21_linear_8980_5341" x1="90.3279" y1="346.025" x2="168.908" y2="306.489" gradientUnits="userSpaceOnUse">
<stop stop-color="#E9024D"/>
<stop offset="1" stop-color="#101010"/>
</linearGradient>
<linearGradient id="paint22_linear_8980_5341" x1="101" y1="243" x2="144" y2="243" gradientUnits="userSpaceOnUse">
<stop stop-color="#E9024D"/>
<stop offset="1" stop-color="#101010"/>
</linearGradient>
<linearGradient id="paint23_linear_8980_5341" x1="157.993" y1="143.437" x2="156.534" y2="137.02" gradientUnits="userSpaceOnUse">
<stop stop-color="#0071BC"/>
<stop offset="1" stop-color="#101010"/>
</linearGradient>
<linearGradient id="paint24_linear_8980_5341" x1="174.343" y1="135.043" x2="172.059" y2="129.251" gradientUnits="userSpaceOnUse">
<stop stop-color="#0071BC"/>
<stop offset="1" stop-color="#101010"/>
</linearGradient>
<linearGradient id="paint25_linear_8980_5341" x1="163.106" y1="144.921" x2="161.826" y2="132.869" gradientUnits="userSpaceOnUse">
<stop stop-color="#E9024D"/>
<stop offset="1" stop-color="#101010"/>
</linearGradient>
<linearGradient id="paint26_linear_8980_5341" x1="145.372" y1="134.651" x2="113.378" y2="128.616" gradientUnits="userSpaceOnUse">
<stop stop-color="white"/>
<stop offset="0.171112" stop-color="#FEE8F1"/>
<stop offset="0.540058" stop-color="#FDBED7"/>
<stop offset="0.828856" stop-color="#FCA3C7"/>
<stop offset="1" stop-color="#FC9AC2"/>
</linearGradient>
<linearGradient id="paint27_linear_8980_5341" x1="81.1541" y1="212.122" x2="49.4585" y2="172.721" gradientUnits="userSpaceOnUse">
<stop stop-color="white"/>
<stop offset="0.627526" stop-color="#FDBCD6"/>
<stop offset="1" stop-color="#FC9AC2"/>
</linearGradient>
<linearGradient id="paint28_linear_8980_5341" x1="98.5854" y1="306.745" x2="32.8087" y2="248.429" gradientUnits="userSpaceOnUse">
<stop stop-color="#E9024D"/>
<stop offset="1" stop-color="#101010"/>
</linearGradient>
<linearGradient id="paint29_linear_8980_5341" x1="80.6133" y1="211.987" x2="57.7445" y2="185.821" gradientUnits="userSpaceOnUse">
<stop stop-color="white"/>
<stop offset="1" stop-color="#FC9AC2"/>
</linearGradient>
<linearGradient id="paint30_linear_8980_5341" x1="232.565" y1="106.038" x2="249.518" y2="101.881" gradientUnits="userSpaceOnUse">
<stop stop-color="white"/>
<stop offset="1" stop-color="#FC9AC2"/>
</linearGradient>
<linearGradient id="paint31_linear_8980_5341" x1="350.349" y1="240.757" x2="262.83" y2="281.795" gradientUnits="userSpaceOnUse">
<stop stop-color="white"/>
<stop offset="1" stop-color="#FC9AC2"/>
</linearGradient>
<linearGradient id="paint32_linear_8980_5341" x1="556.499" y1="322.293" x2="459.168" y2="211.89" gradientUnits="userSpaceOnUse">
<stop stop-color="#E9024D"/>
<stop offset="1" stop-color="#101010"/>
</linearGradient>
<linearGradient id="paint33_linear_8980_5341" x1="457.783" y1="248.253" x2="321.539" y2="400.999" gradientUnits="userSpaceOnUse">
<stop stop-color="#E9024D"/>
<stop offset="1" stop-color="#101010"/>
</linearGradient>
<linearGradient id="paint34_linear_8980_5341" x1="77.9718" y1="47.6064" x2="94.3307" y2="47.6064" gradientUnits="userSpaceOnUse">
<stop stop-color="#E9024D"/>
<stop offset="0.0455207" stop-color="#EA044E"/>
<stop offset="1" stop-color="#FA246B"/>
</linearGradient>
<linearGradient id="paint35_linear_8980_5341" x1="-6.13433" y1="47.6063" x2="10.2246" y2="47.6063" gradientUnits="userSpaceOnUse">
<stop stop-color="#E9024D"/>
<stop offset="0.0455207" stop-color="#EA044E"/>
<stop offset="1" stop-color="#FA246B"/>
</linearGradient>
<linearGradient id="paint36_linear_8980_5341" x1="597.07" y1="398.522" x2="620.773" y2="399.47" gradientUnits="userSpaceOnUse">
<stop stop-color="#FE3477"/>
<stop offset="1" stop-color="#F0014F"/>
</linearGradient>
<linearGradient id="paint37_linear_8980_5341" x1="993.453" y1="50.0825" x2="1017.16" y2="51.0306" gradientUnits="userSpaceOnUse">
<stop stop-color="#FE3477"/>
<stop offset="1" stop-color="#F0014F"/>
<stop offset="1" stop-color="#F0014F"/>
</linearGradient>
<linearGradient id="paint38_linear_8980_5341" x1="315.132" y1="456" x2="340.523" y2="435.059" gradientUnits="userSpaceOnUse">
<stop stop-color="#E9024D"/>
<stop offset="0.0455207" stop-color="#EA044E"/>
<stop offset="1" stop-color="#FA246B"/>
</linearGradient>
<linearGradient id="paint39_linear_8980_5341" x1="113" y1="148" x2="120" y2="148" gradientUnits="userSpaceOnUse">
<stop stop-color="#E9024D"/>
<stop offset="0.101064" stop-color="#E2024B"/>
<stop offset="0.240978" stop-color="#D00346"/>
<stop offset="0.403575" stop-color="#B3053D"/>
<stop offset="0.583307" stop-color="#8A0832"/>
<stop offset="0.777085" stop-color="#550B23"/>
<stop offset="0.979727" stop-color="#160F11"/>
<stop offset="1" stop-color="#101010"/>
</linearGradient>
<linearGradient id="paint40_linear_8980_5341" x1="2419.34" y1="604.407" x2="2420.56" y2="649.006" gradientUnits="userSpaceOnUse">
<stop stop-color="#E9024D"/>
<stop offset="0.0455207" stop-color="#EA044E"/>
<stop offset="1" stop-color="#FA246B"/>
</linearGradient>
<linearGradient id="paint41_linear_8980_5341" x1="34.6002" y1="348.616" x2="21.8344" y2="371.675" gradientUnits="userSpaceOnUse">
<stop stop-color="#E9024D"/>
<stop offset="1" stop-color="#101010"/>
</linearGradient>
<linearGradient id="paint42_linear_8980_5341" x1="-41.0391" y1="-870.655" x2="21.2353" y2="-870.655" gradientUnits="userSpaceOnUse">
<stop stop-color="#E9024D"/>
<stop offset="1" stop-color="#101010"/>
</linearGradient>
<linearGradient id="paint43_linear_8980_5341" x1="-2.0384" y1="-533.074" x2="-1.64903" y2="-550.657" gradientUnits="userSpaceOnUse">
<stop stop-color="#E9024D"/>
<stop offset="1" stop-color="#101010"/>
</linearGradient>
<linearGradient id="paint44_linear_8980_5341" x1="13.1454" y1="-535.583" x2="7.36214" y2="-585.504" gradientUnits="userSpaceOnUse">
<stop stop-color="#E9024D"/>
<stop offset="1" stop-color="#101010"/>
</linearGradient>
<linearGradient id="paint45_linear_8980_5341" x1="-12.5998" y1="-552.7" x2="-5.89595" y2="-552.7" gradientUnits="userSpaceOnUse">
<stop stop-color="#E9024D"/>
<stop offset="1" stop-color="#101010"/>
</linearGradient>
<linearGradient id="paint46_linear_8980_5341" x1="-10.2844" y1="-550.738" x2="-3.62756" y2="-561.588" gradientUnits="userSpaceOnUse">
<stop stop-color="#E9024D"/>
<stop offset="0.124867" stop-color="#C30442"/>
<stop offset="0.357634" stop-color="#840830"/>
<stop offset="0.569889" stop-color="#520B22"/>
<stop offset="0.754444" stop-color="#2E0E18"/>
<stop offset="0.904065" stop-color="#180F12"/>
<stop offset="1" stop-color="#101010"/>
</linearGradient>
<linearGradient id="paint47_linear_8980_5341" x1="-9.18936" y1="-548.602" x2="-3.85761" y2="-554.583" gradientUnits="userSpaceOnUse">
<stop stop-color="#E9024D"/>
<stop offset="0.114965" stop-color="#D70348"/>
<stop offset="0.343297" stop-color="#AB053B"/>
<stop offset="0.663571" stop-color="#620A27"/>
<stop offset="1" stop-color="#101010"/>
</linearGradient>
<linearGradient id="paint48_linear_8980_5341" x1="-4.66409" y1="-549.195" x2="-11.6114" y2="-559.249" gradientUnits="userSpaceOnUse">
<stop stop-color="#E9024D"/>
<stop offset="1" stop-color="#101010"/>
</linearGradient>
</defs>
</svg>
