<svg width="555" height="491" viewBox="0 0 555 491" fill="none" xmlns="http://www.w3.org/2000/svg">
<path d="M239.753 126.229C239.458 126.696 239.074 127.231 238.584 127.826C238.462 127.982 238.328 128.138 238.189 128.293C237.799 128.744 237.343 129.228 236.819 129.74C236.619 129.941 236.402 130.147 236.179 130.352C235.89 130.625 235.578 130.903 235.249 131.182C235.01 131.393 234.754 131.605 234.492 131.822C232.9 133.118 230.912 134.543 228.424 136.062C220.629 140.814 209.322 134.22 202.941 129.568C206.181 114.392 209.628 81.276 209.628 81.276L215.635 87.1247L226.481 97.6757L237.409 117.965V126.574C237.409 126.574 238.078 126.479 239.135 126.324C239.325 126.29 239.536 126.262 239.753 126.229L239.753 126.229Z" fill="url(#paint0_linear_8745_51364)"/>
<path d="M323.606 274.433C322.749 274.06 312.966 270.265 303.663 286.347C297.756 296.542 296.319 306.425 296.097 312.641C295.952 316.692 296.325 319.18 296.325 319.18L293.246 317.694C293.246 317.694 292.094 318.724 291.114 321.462C285.496 318.011 278.876 313.955 272.674 310.143C272.674 310.143 260.559 310.866 253.31 319.736C244.792 330.171 238.406 345.919 240.677 355.78C236.563 353.894 222.338 346.08 209.939 339.631C204.143 336.615 198.748 333.899 194.968 332.224C183.109 326.976 176.65 320.449 173.104 314.222C169.552 307.995 169.769 294.767 169.769 294.767C169.769 294.767 169.129 279.085 173.811 269.224C178.499 259.363 184.389 250.07 184.462 246.097C184.506 243.348 184.556 241.077 184.022 236.325C183.782 234.205 183.426 231.589 182.897 228.217C181.633 220.103 177.313 209.129 174.423 197.248C173.416 193.13 172.58 188.907 172.107 184.655C170.264 168.127 171.612 156.847 173.527 153.581C175.448 150.32 178.087 148.837 178.087 148.837C178.087 148.837 196.738 138.472 200.357 136.981C201.153 136.653 202.038 133.815 202.94 129.569C209.321 134.221 220.628 140.815 228.423 136.063C230.912 134.544 232.899 133.119 234.492 131.822C234.753 131.605 235.009 131.394 235.249 131.182C235.577 130.904 235.889 130.626 236.179 130.353C236.401 130.147 236.618 129.941 236.819 129.741C237.342 129.229 237.799 128.745 238.189 128.294C238.328 128.133 238.461 127.977 238.584 127.827C239.074 127.231 239.458 126.697 239.753 126.23C241.663 125.94 244.452 125.517 247.058 125.111C267.819 133.954 260.219 165.929 260.219 165.929L259.935 177.749C259.935 177.749 257.525 203.481 257.285 208.211C257.051 212.941 252.603 228.501 253.026 232.146C253.455 235.785 260.219 244.438 260.219 244.438L264.289 245.384C264.289 245.384 295.963 259.575 323.606 274.433V274.433Z" fill="url(#paint1_linear_8745_51364)"/>
<path d="M370.146 335.913C369.294 338.111 358.081 348.472 354.529 349.391C350.983 350.314 344.307 352.446 339.341 350.81C334.436 349.196 326.435 345.545 319.431 345.868C316.247 341.255 308.463 332.245 304.421 329.669C302.862 328.678 297.673 325.484 291.115 321.461C292.095 318.723 293.247 317.693 293.247 317.693L296.326 319.179C296.326 319.179 295.953 316.692 296.098 312.64C296.32 306.424 297.757 296.541 303.664 286.346C312.967 270.264 322.75 274.059 323.607 274.432L323.652 274.454C323.663 274.46 323.668 274.46 323.668 274.46C337.331 281.805 349.997 289.307 357.369 295.334C357.369 295.334 368.799 305.974 370.007 307.537C371.21 309.095 370.998 333.714 370.146 335.913H370.146Z" fill="url(#paint2_linear_8745_51364)"/>
<path d="M162.456 307.914C164.782 304.038 167.694 301.9 169.983 300.733C169.727 297.331 169.769 294.766 169.769 294.766C165.437 294.694 161.178 301.294 158.623 304.555C156.067 307.821 151.669 309.307 143.574 313.069C135.484 316.831 126.827 317.749 122.284 318.884C117.741 320.02 111.21 329.385 111.21 329.385C111.21 329.385 109.93 329.669 109.078 332.368C108.226 335.061 114.829 335.629 120.719 333.642C121.009 333.544 121.328 333.467 121.66 333.401C127.342 328.396 134.132 323.099 137.471 323.049C143.812 322.955 157.913 315.481 162.456 307.914L162.456 307.914Z" fill="url(#paint3_linear_8745_51364)"/>
<path d="M194.968 332.224C183.109 326.976 176.651 320.448 173.105 314.221C171.116 310.735 170.309 305.058 169.983 300.733C167.695 301.9 164.783 304.039 162.457 307.914C157.913 315.482 143.812 322.955 137.471 323.049C134.133 323.099 127.343 328.396 121.66 333.401C128.071 332.121 141.901 336.475 147.978 337.761C154.364 339.107 168.417 337.972 176.512 340.315C180.287 341.406 190.932 347.583 202.796 354.817C202.924 352.14 203.838 344.483 209.94 339.63C204.144 336.614 198.749 333.899 194.968 332.224V332.224Z" fill="url(#paint4_linear_8745_51364)"/>
<path d="M169.983 300.733C167.694 301.9 164.782 304.039 162.456 307.914C157.913 315.482 143.812 322.955 137.471 323.049" stroke="#101010" stroke-linecap="round" stroke-linejoin="round"/>
<path d="M194.967 332.224C183.109 326.976 176.65 320.448 173.104 314.221C171.115 310.735 170.308 305.058 169.983 300.733" stroke="#101010" stroke-linecap="round" stroke-linejoin="round"/>
<path d="M319.181 345.879C319.264 345.874 319.348 345.868 319.431 345.868C316.247 341.255 308.463 332.246 304.421 329.669C302.862 328.679 297.673 325.484 291.115 321.461C285.497 318.011 278.877 313.954 272.675 310.142C272.675 310.142 260.56 310.865 253.311 319.736C244.793 330.17 238.407 345.918 240.678 355.779C236.564 353.893 222.339 346.08 209.94 339.63C203.838 344.483 202.925 352.14 202.797 354.817C202.902 354.883 203.008 354.95 203.114 355.011C216.587 363.236 231.564 372.78 239.826 377.772C255.443 387.21 273.26 394.088 278.866 396.358C284.473 398.629 291.855 395.863 295.619 394.8C299.377 393.737 309.955 386.425 313.931 384.155C317.906 381.89 318.507 377.883 320.033 373.659C321.569 369.408 322.482 351.7 319.181 345.879V345.879Z" fill="url(#paint5_linear_8745_51364)"/>
<path d="M389.026 221.266L379.656 244.438L371.805 240.375C371.805 240.375 364.751 237.766 355.248 234.076C340.555 228.372 320.005 220.097 310.662 214.927C295.285 206.413 279.1 191.371 273.66 187.114C268.221 182.857 259.936 177.749 259.936 177.749L260.22 165.929C260.22 165.929 262.793 155.111 260.855 144.32C259.469 136.557 255.744 128.811 247.059 125.111C249.809 124.676 252.353 124.254 253.406 124.02C256.201 123.408 262.258 122.651 271.294 132.25C280.33 141.85 290.319 154.293 293.821 159.78C297.323 165.267 319.181 183.141 321.358 185.411C324.576 186.547 350.415 199.129 360.448 209.157C370.48 219.184 389.026 221.266 389.026 221.266L389.026 221.266Z" fill="url(#paint6_linear_8745_51364)"/>
<path opacity="0.67" d="M187.877 181.321C187.877 181.321 188.123 219.869 215.64 214.924C243.158 209.98 237.037 193.329 233.902 187.025C221.658 162.407 202.681 147.628 187.877 181.321H187.877Z" fill="url(#paint7_linear_8745_51364)"/>
<g style="mix-blend-mode:multiply" opacity="0.6">
<path d="M226.481 97.6755L237.41 117.965V125.611C231.547 123.101 219.46 116.98 216.059 104.821L215.635 87.1245L226.481 97.6755Z" fill="#F28CBB"/>
</g>
<path d="M266.433 67.7361C265.993 70.7634 266.015 75.2097 265.487 81.8319C265.208 85.2543 265.23 89.6617 264.562 94.4029C264.373 95.7886 264.123 97.202 263.783 98.6266C263.048 101.76 261.918 104.954 260.125 108.031C254.73 117.302 252.648 120.613 250.092 121.37C247.537 122.127 242.899 123.451 238.924 121.843C234.949 120.235 219.21 114.258 215.251 100.101L214.795 80.8859L238.735 56.573C238.735 56.573 250.521 49.8117 264.479 63.2898C264.479 63.2898 266.873 64.7089 266.433 67.7361V67.7361Z" fill="url(#paint8_linear_8745_51364)"/>
<path d="M209.924 125.144C209.924 125.144 214.582 132.783 226.506 130.419C226.542 133.303 226.506 145.577 226.506 145.577C226.506 145.577 214.972 149.834 207.271 142.455L209.924 125.144Z" fill="url(#paint9_linear_8745_51364)"/>
<path d="M261.546 54.8238C257.855 49.6446 237.976 34.748 230.778 32.1097C227.61 30.9483 219.738 31.8371 214.982 31.8371C210.227 31.8371 201.283 34.7464 194.256 41.0602C187.229 47.3747 182.189 59.0809 181.834 74.5468C181.48 90.0132 176.647 148.069 176.647 148.069C182.408 143.347 190.976 144.31 197.649 147.619L199.276 148.426C204.686 151.109 211.024 147.145 210.978 141.109C210.88 128.646 210.807 111.262 211.102 107.182C211.576 100.655 210.818 97.9119 207.695 94.696C204.572 91.4795 204.004 80.6013 205.992 80.8852C207.979 81.169 209.209 86.6553 210.724 88.8306C212.238 91.0065 218.768 88.8306 223.784 82.0198C228.8 75.209 244.605 63.3848 246.498 62.1549C248.391 60.9251 249.434 60.0347 247.636 56.0614C255.775 64.9535 266.657 65.6079 266.657 65.6079C267.437 63.6925 265.237 60.003 261.546 54.8238V54.8238Z" fill="url(#paint10_linear_8745_51364)"/>
<path d="M181.699 144.746C181.699 144.746 184.986 98.4939 186.025 76.7703C186.443 68.0424 188.968 59.507 193.644 52.1241" stroke="#E9024D"/>
<path d="M192.325 145.918C192.325 145.918 193.169 105.454 193.062 83.7065C193.019 74.9685 195.091 66.3124 199.371 58.6935C201.059 55.6896 203.716 52.5138 207.014 49.7208" stroke="#E9024D"/>
<path d="M194.636 146.473C194.636 146.473 195.481 107.028 195.373 85.2803C195.33 76.5429 197.403 67.8862 201.683 60.2674" stroke="#E9024D"/>
<path d="M226.813 39.0735C226.813 39.0735 245.408 52.0207 248.909 57.9801" stroke="url(#paint11_linear_8745_51364)" stroke-opacity="0.5"/>
<path d="M242.393 110.031C242.393 110.031 246.996 105.013 251.944 106.845C253.792 105.855 254.895 104.439 257.088 105.375L257.965 105.191C257.965 105.191 256.159 112.707 251.224 113.172C246.29 113.638 242.393 110.031 242.393 110.031H242.393Z" fill="#FA246B"/>
<path d="M255.754 87.2522C256.458 88.6389 257.545 90.0352 259.056 90.5839C260.805 91.2194 262.625 90.4637 263.802 89.1142C265.149 87.5694 265.477 85.472 265.371 83.4837C265.343 82.9595 265.279 82.4152 264.994 81.9739C264.52 81.2394 263.527 80.9812 262.666 81.137C261.805 81.2922 261.045 81.7808 260.324 82.2761C258.561 83.4859 256.795 84.8855 255.957 86.8526" fill="white"/>
<path d="M256.254 150.094C256.254 151.866 257.669 154.211 258.253 155.881C259.727 160.092 261.204 164.301 262.665 168.515C265.098 175.528 269.991 182.467 269.677 190.013C269.226 200.835 250.763 208.738 240.741 202.327" fill="url(#paint12_linear_8745_51364)"/>
<path d="M256.254 150.094C256.254 151.866 257.669 154.211 258.253 155.881C259.727 160.092 261.204 164.301 262.665 168.515C265.098 175.528 269.991 182.467 269.677 190.013C269.226 200.835 250.763 208.738 240.741 202.327" stroke="url(#paint13_linear_8745_51364)"/>
<path d="M201.341 213.043C201.341 213.043 212.931 219.278 229.273 210.669" stroke="#101010" stroke-linecap="round" stroke-linejoin="round"/>
<path opacity="0.46" d="M175.855 170.831L166.858 182.094C166.145 182.345 146.709 170.597 151.965 162.512C159.943 158.883 168.584 163.675 175.855 170.831Z" fill="url(#paint14_linear_8745_51364)"/>
<path d="M132.712 335.175C127.609 332.937 124.599 329.889 122.827 326.903C122.473 326.956 122.109 327.034 121.736 327.145C120.816 327.4 119.851 327.803 118.903 328.268C117.733 328.83 116.591 329.5 115.58 330.107C114.792 330.584 114.087 331.032 113.525 331.373C113.173 331.589 112.668 331.873 112.048 332.219C108.687 334.109 101.97 337.741 97.8185 340.738C95.1556 342.656 92.2427 344.909 90.1298 346.573C89.4033 347.14 88.7731 347.645 88.2792 348.037C88.0064 348.258 87.8021 348.531 87.6768 348.837C87.5694 349.081 87.5182 349.348 87.5182 349.621C87.5182 349.864 87.5632 350.114 87.6546 350.352C88.0459 351.374 89.1706 351.908 90.2095 351.556L93.3668 350.483L86.6947 355.983C86.1836 356.403 86.0812 357.141 86.4503 357.686L87.5978 359.371L86.7626 359.944C86.212 360.325 86.0417 361.057 86.3596 361.642C86.791 362.425 87.3873 363.441 87.7848 364.008C88.9206 365.62 93.1792 364.195 93.1792 364.195C93.1792 364.195 92.6569 367.556 96.0186 368.645C99.3802 369.729 104.916 364.86 110.118 362.209C113.099 360.693 119.192 357.158 123.848 354.411C124.586 353.98 125.285 353.571 125.932 353.185C127.034 352.532 127.982 351.97 128.686 351.55C128.919 351.414 129.169 351.346 129.424 351.346C129.941 351.346 130.441 351.624 130.697 352.124C131.008 352.708 130.873 353.435 130.373 353.872C128.255 355.727 122.894 360.501 122.19 361.88C121.003 364.213 124.172 366.517 124.598 366.466C124.626 366.46 124.666 366.449 124.717 366.426C125.307 366.165 127.449 364.672 128.999 363.77C129.47 363.492 129.884 363.271 130.186 363.157C131.554 362.635 139.458 356.249 143.149 353.128C146.017 350.699 146.255 347.986 146.13 344.365C146.102 343.456 146.045 342.486 146.006 341.447C145.999 341.311 145.994 341.164 145.988 341.022C145.965 340.349 146.203 338.863 146.641 336.76C143.404 337.371 138.291 337.623 132.712 335.175L132.712 335.175Z" fill="url(#paint15_linear_8745_51364)"/>
<path d="M177.221 149.937C173.206 152.282 168.987 159.495 162.837 174.536C156.681 189.577 143.814 230.533 139.93 244.915C136.051 259.292 132.457 274.9 130.089 285.4C127.721 295.9 123.321 323.898 123.559 326.832C123.322 326.84 123.077 326.866 122.827 326.903C124.599 329.889 127.61 332.937 132.712 335.175C138.291 337.623 143.404 337.371 146.642 336.76C149.719 322.016 162.703 276.959 165.108 269.508C167.851 260.994 169.174 251.913 172.297 243.967C175.42 236.021 191.417 198.181 200.122 181.347C202.393 161.198 177.221 149.937 177.221 149.937V149.937Z" fill="url(#paint16_linear_8745_51364)"/>
<path d="M88.4473 362.732L91.6675 360.461C92.2821 360.028 92.4046 359.166 91.9353 358.578C91.5144 358.051 90.76 357.931 90.196 358.302L86.8383 360.508C86.8383 360.508 87.998 361.904 88.4473 362.732V362.732Z" fill="#FA246B"/>
<path d="M94.1167 363.57L96.5369 366.712L99.1486 364.428C99.5617 364.067 99.6012 363.438 99.236 363.028L98.1993 361.862C97.8709 361.493 97.3202 361.423 96.9099 361.698L94.1167 363.57Z" fill="#FA246B"/>
<path d="M87.5954 359.373C87.5954 359.373 101.058 350.481 104.205 348.542C107.352 346.603 113.054 342.914 113.054 342.914" stroke="#101010" stroke-linecap="round" stroke-linejoin="round"/>
<path d="M93.3685 350.481C93.3685 350.481 102.383 343.315 104.11 341.92C105.837 340.525 109.004 338.515 109.004 338.515" stroke="#101010" stroke-linecap="round" stroke-linejoin="round"/>
<path d="M93.1791 364.198C93.1791 364.198 95.8292 362.613 101.886 358.144C107.943 353.674 113.787 349.133 115.751 348.211" stroke="#101010" stroke-linecap="round" stroke-linejoin="round"/>
<path d="M87.9714 358.406L90.1561 356.393C90.6227 355.963 90.6538 355.237 90.2257 354.769C89.8115 354.316 89.1139 354.268 88.6406 354.659L86.3674 356.538L87.9714 358.406Z" fill="#FA246B"/>
<path d="M90.2039 348.911L88.9885 349.819L87.6768 348.837C87.8021 348.531 88.0064 348.258 88.2787 348.037C88.773 347.645 89.4033 347.14 90.1298 346.573C90.2495 346.754 90.3915 346.976 90.5274 347.197C90.8798 347.765 90.7434 348.508 90.2039 348.911V348.911Z" fill="#FA246B"/>
<path d="M128.289 364.198C126.739 365.1 125.308 366.165 124.718 366.426C124.52 365.842 124.195 365.335 123.891 364.949C123.512 364.47 123.574 363.781 124.043 363.39L126.665 362.004C128.627 362.003 128.289 364.198 128.289 364.198V364.198Z" fill="#FA246B"/>
<path d="M108.657 337.756L109.586 339.243" stroke="#101010" stroke-linecap="round" stroke-linejoin="round"/>
<path d="M112.335 342.167C112.717 342.495 113.053 342.878 113.328 343.299" stroke="#101010" stroke-linecap="round" stroke-linejoin="round"/>
<path d="M115.108 347.552L115.828 348.539" stroke="#101010" stroke-linecap="round" stroke-linejoin="round"/>
<path d="M226.263 144.748C225.426 145.089 226.324 150.092 226.412 150.861C226.836 154.566 228.277 158.207 229.64 161.664C233.951 172.597 241.887 184.627 239.968 196.859" stroke="#E9024D"/>
<path d="M238.264 219.278C238.264 219.633 237.626 245.263 236.986 246.105" stroke="#E9024D"/>
<path d="M200.267 250.069C200.857 250.423 235.496 258.227 249.904 234.176" stroke="#E9024D"/>
<path d="M217.68 266.67C217.68 266.67 239.518 268.538 260.22 244.44" stroke="#E9024D"/>
<path d="M320.757 348.094C320.573 347.615 320.105 346.836 319.431 345.868" stroke="#101010" stroke-linecap="round" stroke-linejoin="round"/>
<path d="M253.312 267.947C253.312 267.947 253.106 281.617 243.591 291.951" stroke="#101010" stroke-linecap="round" stroke-linejoin="round"/>
<path d="M188.773 329.101C193.728 331.372 257.386 365.373 261.429 367.916C262.408 368.534 263.477 368.99 264.596 369.279C267.263 369.964 272.424 371.144 276.595 371.244" stroke="#101010" stroke-linecap="round" stroke-linejoin="round"/>
<path d="M171.731 326.265C171.069 326.17 167.094 326.028 167.189 330.167C167.283 334.305 176.464 337.049 176.464 337.049" stroke="#E9024D"/>
<path d="M272.674 310.142C263.381 304.432 255.041 299.29 252.458 297.604C250.376 296.246 247.08 294.148 243.589 291.95C236.496 287.47 228.613 282.562 228.613 282.562" stroke="#101010" stroke-linecap="round" stroke-linejoin="round"/>
<path d="M237.625 344.196L198.96 322.334C186.969 315.554 180.038 302.148 181.79 288.397C181.836 288.032 181.887 287.665 181.943 287.293C183.447 277.311 189.713 257.589 189.713 257.589" stroke="#101010" stroke-linecap="round" stroke-linejoin="round"/>
<path d="M228.61 319.737C228.61 319.737 222.467 326.845 221.671 335.175" stroke="#101010" stroke-linecap="round" stroke-linejoin="round"/>
<path d="M243.59 315.197C243.019 315.552 233.007 320.645 229.424 339.56" stroke="#101010" stroke-linecap="round" stroke-linejoin="round"/>
<path d="M326.754 326.233L316.911 329.103L320.318 335.175" stroke="#101010" stroke-linecap="round" stroke-linejoin="round"/>
<path d="M316.909 329.101L296.326 319.179" stroke="#101010" stroke-linecap="round" stroke-linejoin="round"/>
<path d="M293.246 317.693L255.282 299.39" stroke="#101010" stroke-linecap="round" stroke-linejoin="round"/>
<path d="M256.444 291.951L296.096 312.64" stroke="#101010" stroke-linecap="round" stroke-linejoin="round"/>
<path d="M286.096 293.062C286.096 293.062 282.468 299.55 282.264 305.422" stroke="#101010" stroke-linecap="round" stroke-linejoin="round"/>
<path d="M290.648 302.296C290.648 302.296 288.799 306.14 289.191 309.037" stroke="#101010" stroke-linecap="round" stroke-linejoin="round"/>
<path d="M142.533 245.658C142.514 247.257 142.718 248.958 143.718 250.206C144.717 251.455 146.736 251.989 147.951 250.95" stroke="#E9024D"/>
<path d="M231.024 88.8785C232.301 86.9826 234.378 85.6454 236.633 85.2681" stroke="#101010" stroke-linecap="round" stroke-linejoin="round"/>
<path d="M236.211 95.0273C237.82 95.4853 239.603 95.3857 241.112 94.64C242.814 93.798 243.97 92.0891 245.006 90.5599C245.006 90.5599 243.249 87.3484 241.518 86.8781C239.789 86.4085 237.919 86.7735 236.285 87.5109C235.178 88.0095 234.075 89.2838 233.083 89.9783C232.456 90.4168 230.778 91.6272 230.778 91.6283C230.771 91.635 232.807 93.2371 233.012 93.3818C233.805 93.9427 234.645 94.4497 235.552 94.8047C235.77 94.8899 235.99 94.9639 236.211 95.0273H236.211Z" fill="white"/>
<path d="M247.699 98.238C247.346 99.0488 247.759 100.053 248.488 100.555C249.215 101.058 250.172 101.128 251.04 100.956" stroke="#101010" stroke-linecap="round" stroke-linejoin="round"/>
<path d="M251.944 101.418C253.031 101.756 254.429 101.502 255.376 100.869C256.921 99.8363 256.882 98.0895 255.82 96.7355" stroke="#101010" stroke-linecap="round" stroke-linejoin="round"/>
<path d="M254.605 94.5485C253.032 90.2163 252.629 85.4661 253.449 80.9313" stroke="#101010" stroke-linecap="round" stroke-linejoin="round"/>
<path d="M242.968 109.539C244.906 107.102 248.265 105.888 251.315 106.521" stroke="#101010" stroke-linecap="round" stroke-linejoin="round"/>
<path d="M258.274 104.202C258.176 105.267 257.37 106.132 256.499 106.753C255.628 107.373 254.642 107.846 253.88 108.597C253.501 108.97 253.13 109.664 252.61 109.553C248.947 108.771 245.064 110.731 241.449 109.75" stroke="#101010" stroke-linecap="round" stroke-linejoin="round"/>
<path d="M252.767 107.051C252.947 106.277 253.966 105.597 254.658 105.324C255.494 104.996 256.227 105.443 257.027 105.256" stroke="#101010" stroke-linecap="round" stroke-linejoin="round"/>
<path d="M243.89 110.785C245.851 113.121 249.242 113.986 252.084 112.89C254.176 112.083 255.859 110.255 256.473 108.095" stroke="#101010" stroke-linecap="round" stroke-linejoin="round"/>
<g style="mix-blend-mode:multiply" opacity="0.17">
<path d="M231.449 104.316C232.511 104.412 233.629 104.273 234.579 104.091C236.286 103.765 239.429 103.517 240.446 101.948C241.911 99.6901 238.169 98.9711 236.668 98.8492C235.062 98.719 233.415 98.9026 231.877 99.3807C230.793 99.7179 228.507 100.497 228.161 101.758C228.051 102.156 228.195 102.593 228.456 102.913C229.2 103.826 230.292 104.21 231.449 104.316H231.449Z" fill="#E9024D"/>
</g>
<g style="mix-blend-mode:multiply" opacity="0.17">
<path d="M264.563 94.4033C264.373 95.7889 264.123 97.2024 263.783 98.627C263.728 98.6381 263.666 98.6493 263.611 98.6548C262.414 98.8218 257.548 99.7511 257.993 97.3304C258.143 96.5346 259.123 95.839 259.769 95.455C261.194 94.6092 263.132 94.2196 264.563 94.4033V94.4033Z" fill="#E9024D"/>
</g>
<path d="M235.282 94.0593C236.576 95.3442 239.403 95.273 240.78 94.3598C242.344 93.3219 243.295 91.2529 243.037 89.4326C242.723 87.2128 240.791 86.8027 239.017 86.7443C237.773 86.7031 235.566 87.5372 234.74 88.5856C233.58 90.057 233.827 92.6124 235.282 94.0593L235.282 94.0593Z" fill="url(#paint17_linear_8745_51364)"/>
<path d="M258.764 89.1221C259.841 90.4075 262.196 90.3357 263.342 89.4226C264.646 88.3847 264.916 84.8271 264.701 83.0068C264.44 80.787 263.352 81.8655 261.875 81.807C260.838 81.7659 259 82.6 258.312 83.6485C257.346 85.1198 257.551 87.6758 258.764 89.1221Z" fill="url(#paint18_linear_8745_51364)"/>
<path d="M256.212 82.5986C257.312 81.2263 258.918 80.2681 260.649 79.9514" stroke="#101010" stroke-linecap="round" stroke-linejoin="round"/>
<path d="M196.162 72.4048L220.687 88.5568C221.258 88.9324 222.017 88.5234 222.017 87.8406V86.8406C222.017 85.9385 222.675 85.1733 223.568 85.0398C227.941 84.3876 240.507 82.4421 247.571 80.6152C256.223 78.3781 265.805 74.0859 267.935 73.4827C270.064 72.8794 271.199 73.412 271.199 73.412V87.1216C271.199 88.4839 270.281 89.6742 268.963 90.0209L257.823 92.9502C257.039 93.1567 256.203 92.9931 255.555 92.5067L254.82 91.9558C253.878 91.249 252.645 91.0571 251.533 91.4438V91.4438C250.887 91.6675 250.321 92.0732 249.901 92.6119L246.443 97.0487C246.024 97.5863 245.408 97.9352 244.732 98.0187L227.857 100.101C227.172 100.185 226.477 100.096 225.835 99.8412L224.066 99.1383C222.667 98.583 221.684 97.3086 221.502 95.8156L221.442 95.3253L195.59 74.4477C194.67 73.7047 193.373 73.6452 192.389 74.3013L192.249 74.3948C191.579 74.8416 190.694 74.2913 190.799 73.4933V73.4933C190.851 73.1032 191.14 72.7871 191.524 72.7014L194.339 72.0709C194.966 71.9307 195.625 72.0509 196.162 72.4048H196.162Z" stroke="#E9024D"/>
<path d="M382.671 57.7808C382.671 73.8565 369.121 86.8933 352.401 86.8933C335.681 86.8933 322.131 73.8565 322.131 57.7808C322.131 45.3683 330.204 34.774 341.576 30.5864C344.935 29.3488 348.584 28.6682 352.401 28.6682C358.479 28.6682 364.14 30.3911 368.887 33.3577C377.183 38.5492 382.671 47.5487 382.671 57.7808Z" fill="url(#paint19_linear_8745_51364)"/>
<g style="mix-blend-mode:multiply" opacity="0.36">
<path d="M361.213 71.3357C344.492 71.3357 330.942 58.2989 330.942 42.2232C330.942 40.3506 331.129 38.5198 331.481 36.7457C325.72 42.0445 322.131 49.5076 322.131 57.7808C322.131 73.8566 335.681 86.8934 352.401 86.8934C367.174 86.8934 379.464 76.7142 382.129 63.2561C376.693 68.2572 369.33 71.3357 361.213 71.3357Z" fill="#7F47DD"/>
</g>
<mask id="mask0_8745_51364" style="mask-type:alpha" maskUnits="userSpaceOnUse" x="322" y="28" width="61" height="59">
<path d="M382.671 57.7808C382.671 73.8565 369.121 86.8933 352.401 86.8933C335.681 86.8933 322.131 73.8565 322.131 57.7808C322.131 45.3683 330.204 34.774 341.576 30.5864C344.935 29.3488 348.584 28.6682 352.401 28.6682C358.479 28.6682 364.14 30.3911 368.887 33.3577C377.183 38.5492 382.671 47.5487 382.671 57.7808Z" fill="black"/>
</mask>
<g mask="url(#mask0_8745_51364)">
<ellipse rx="7.41506" ry="5.76411" transform="matrix(0.413816 -0.910361 0.910507 0.413494 367.741 77.1645)" stroke="white"/>
<path d="M369.203 32.922C369.515 37.1162 362.724 41.1969 353.957 42.0595C345.127 42.9337 337.626 40.2091 337.205 35.981C336.995 33.8641 338.602 31.7695 341.368 30.1011" stroke="white"/>
<path d="M321.636 55.5953C323.542 60.1729 327.053 64.1679 331.638 67.1579" stroke="white"/>
<ellipse rx="4.09756" ry="3.18525" transform="matrix(0.413816 -0.910361 0.910507 0.413494 367.741 77.165)" stroke="white"/>
<ellipse rx="2.889" ry="2.24577" transform="matrix(0.413816 -0.910361 0.910507 0.413494 367.74 77.1648)" fill="#101010"/>
</g>
<path d="M379.658 244.44L386.17 245.938C386.654 246.049 387.148 246.105 387.645 246.105C390.843 246.105 393.951 245.05 396.488 243.103L397.093 242.639C399.747 240.602 401.556 237.661 402.178 234.374C402.875 230.699 403.649 225.812 403.649 222.258C403.649 215.802 402.513 203.244 402.513 203.244C402.513 203.244 404.098 197.592 404.643 196.007C405.187 194.423 405.683 193.335 405.352 192.555C405.021 191.774 404.122 191.514 404.122 191.514H403.176C403.176 191.514 401.591 194.707 400.904 196.102C400.218 197.498 399.083 199.105 399.059 199.933C399.035 200.761 398.68 212.16 398.68 212.16C398.68 212.16 398.136 197.474 398.16 195.96C398.184 194.447 396.598 186.43 396.598 184.467C396.598 182.504 396.689 180.629 395.463 179.974C394.446 179.43 392.292 179.886 392.292 179.886C392.292 179.886 392.535 182.693 392.559 184.94C392.582 187.186 392.754 191.207 392.559 192.886C392.363 194.565 391.961 206.555 391.961 206.555L382.362 220.014L382.213 228.454L379.658 244.44Z" fill="url(#paint20_linear_8745_51364)"/>
<path d="M395.132 235.643C395.132 235.643 391.654 229.139 382.45 229.967C381.078 226.822 380.179 224.953 379.895 222.92C379.611 220.886 379.019 217.741 376.89 215.848C374.76 213.956 373.081 214.902 372.891 216.062C372.702 217.22 373.743 217.859 373.649 219.94C373.554 222.021 373.577 222.47 373.507 223.298C373.435 224.126 374.476 227.224 374.169 229.683C373.861 232.142 374.642 238.031 376.653 240.16C377.181 240.718 377.639 241.279 378.027 241.801C379.345 243.575 381.26 244.809 383.415 245.304" fill="url(#paint21_linear_8745_51364)"/>
<path d="M395.132 235.643C395.132 235.643 391.654 229.139 382.45 229.967" stroke="#101010" stroke-linecap="round" stroke-linejoin="round"/>
<path d="M372.891 216.061C372.702 217.22 373.743 217.858 373.649 219.94C373.554 222.021 373.577 222.47 373.507 223.298C373.435 224.125 374.476 227.223 374.169 229.683C373.861 232.142 374.642 238.031 376.653 240.159" stroke="#101010" stroke-linecap="round" stroke-linejoin="round"/>
<path d="M382.45 229.967C382.45 229.967 380.652 212.302 380.368 208.258C380.084 204.214 379.682 202.96 380.936 201.825C382.189 200.69 383.586 200.524 384.437 200.596C385.289 200.666 386.046 202.157 386.235 202.204C386.425 202.251 386.827 198.255 388.081 197.237C389.335 196.221 390.731 196.102 392.86 193.69C394.99 191.278 395.824 190.612 396.504 189.859C397.184 189.106 399.911 186.855 400.053 186.832C400.195 186.808 402.395 188.251 401.425 190.663C400.455 193.075 397.852 195.842 396.031 197.332C394.209 198.822 392.559 200.265 392.559 200.265L392.86 214.772" fill="url(#paint22_linear_8745_51364)"/>
<path d="M382.45 229.967C382.45 229.967 380.652 212.302 380.368 208.258" stroke="#101010" stroke-linecap="round" stroke-linejoin="round"/>
<path d="M396.031 197.331C394.209 198.821 392.559 200.264 392.559 200.264L392.86 214.772" stroke="#101010" stroke-linecap="round" stroke-linejoin="round"/>
<path d="M386.235 202.203C386.235 202.203 392.931 207.382 394.043 208.399C395.155 209.416 395.51 209.463 396.078 210.149C396.646 210.835 396.788 211.214 396.693 211.994C396.679 212.111 396.612 212.255 396.508 212.416C395.529 213.94 393.444 214.298 391.932 213.299L386.519 209.723L387.087 216.865" fill="url(#paint23_linear_8745_51364)"/>
<path d="M386.519 209.724L387.087 216.865" stroke="#101010" stroke-linecap="round" stroke-linejoin="round"/>
<path d="M396.509 212.416C395.529 213.94 393.444 214.298 391.932 213.299L386.519 209.723" stroke="#101010" stroke-linecap="round" stroke-linejoin="round"/>
<path d="M383.349 207.311L386.519 209.723" stroke="#101010" stroke-linecap="round" stroke-linejoin="round"/>
<path d="M387.892 226.372C388.104 226.16 400.1 217.953 400.1 217.953" stroke="#101010" stroke-linecap="round" stroke-linejoin="round"/>
<g style="mix-blend-mode:soft-light" opacity="0.46">
<path fill-rule="evenodd" clip-rule="evenodd" d="M418.545 138.557C398.862 135.268 376.895 168.524 369.481 212.837C362.066 257.151 372.012 295.741 391.695 299.032C411.378 302.322 433.344 269.066 440.759 224.752C448.174 180.438 438.228 141.848 418.545 138.557ZM425.268 224.657C420.948 250.479 408.242 269.873 396.89 267.975C385.538 266.078 379.838 243.607 384.158 217.785C388.478 191.963 401.184 172.568 412.536 174.466C423.888 176.363 429.589 198.835 425.268 224.657Z" fill="url(#paint24_linear_8745_51364)"/>
</g>
<path d="M385.715 217.433C385.881 217.385 400.905 211.71 400.905 211.71" stroke="#101010" stroke-linecap="round" stroke-linejoin="round"/>
<path d="M393.603 208.019C392.774 208.858 392.777 210.208 393.611 211.042L394.611 212.041L396.575 210.896" fill="#E9024D"/>
<path d="M390.636 199.839L392.559 200.264" stroke="#101010" stroke-linecap="round" stroke-linejoin="round"/>
<path d="M396.504 189.858C396.504 189.858 397.143 191.207 398.302 190.284C399.462 189.362 400.905 187.92 400.905 187.92L400.053 186.832L396.504 189.858Z" fill="#E9024D"/>
<path d="M401.672 194.549C402.282 194.812 402.992 194.564 403.305 193.979L404.17 192.365L403.176 191.514L401.672 194.549Z" fill="#E9024D"/>
<path d="M392.292 179.886L393.854 180.683V183.449C393.854 184.108 393.419 184.688 392.786 184.873L392.559 184.94L392.292 179.886Z" fill="#E9024D"/>
<ellipse rx="81.3524" ry="36.1336" transform="matrix(0.165025 -0.98629 0.986315 0.164869 405.12 218.794)" stroke="#FF2473"/>
<g filter="url(#filter0_d_8745_51364)">
<ellipse rx="40.5632" ry="18.0164" transform="matrix(0.165025 -0.98629 0.986315 0.164869 389.027 350.386)" stroke="#FF2473"/>
</g>
<path d="M446.585 227.46C441.951 255.156 431.632 278.533 419.74 291.368V323.285L408.476 329.812" stroke="#FF2473"/>
<ellipse rx="47.4047" ry="20.8402" transform="matrix(0.165025 -0.98629 0.986315 0.164869 404.713 221.221)" stroke="#FF2473"/>
<path d="M419.718 179.211L437.128 157.878" stroke="#FF2473"/>
<path d="M427.073 202.203L443.21 195.154" stroke="#FF2473"/>
<path d="M415.966 252.95L428.141 266.563" stroke="#FF2473"/>
<path d="M398.116 268.095L391.694 299.031" stroke="#FF2473"/>
<g filter="url(#filter1_d_8745_51364)">
<path d="M425.256 141.258L503.922 93.75V80.1283L526.094 69.0477" stroke="white"/>
</g>
<g filter="url(#filter2_d_8745_51364)">
<path d="M480.648 82.0214L459.251 94.9795V120.727" stroke="white"/>
</g>
<path d="M465.498 161.291V207.311L521.146 174.534" stroke="white"/>
<path d="M441.208 173.826C441.776 173.826 483.668 150.696 483.668 150.696" stroke="white"/>
<path d="M482.889 197.068V207.311" stroke="white"/>
<path d="M516.673 177.169V210.118" stroke="white"/>
<path d="M498.054 176.048V188.136" stroke="white"/>
<path d="M511.872 167.123V179.211" stroke="white"/>
<path d="M491.996 255.206L452.626 277.92V248.337L491.996 225.623V255.206Z" fill="#282526"/>
<path d="M530.705 231.339L501.461 248.311V218.728L530.705 201.756V231.339Z" stroke="#FF2473"/>
<path d="M513.94 151.716L478.7 172.169V136.52L513.94 116.067L513.94 151.716Z" fill="#F5F5FD"/>
<path d="M510.083 148.317L484.528 163.149" stroke="#FF2473"/>
<path d="M498.929 71.4606L479.677 82.634V63.1586L498.929 51.9852V71.4606Z" stroke="white"/>
<path d="M491.996 326.233L452.626 348.947V286.127L491.996 263.413V326.233Z" fill="#282526"/>
<path d="M459.535 289.501L482.068 276.501" stroke="#FF2473"/>
<path d="M460 296L485.088 281.526V275.372" stroke="#FF2473"/>
<path d="M485.703 310.103L458.92 325.555V310.642L485.703 295.19V310.103Z" fill="url(#paint25_linear_8745_51364)"/>
<path d="M423.666 330.521C424.092 330.379 452.626 312.785 452.626 312.785" stroke="white"/>
<path d="M417.704 350.387L452.626 328.251" stroke="white"/>
<ellipse rx="3.26378" ry="1.79157" transform="matrix(0.398809 -0.917034 0.917175 0.398484 422.086 331.325)" stroke="white"/>
<ellipse rx="3.26378" ry="1.79157" transform="matrix(0.398809 -0.917034 0.917175 0.398484 419.74 291.367)" stroke="#FF2473"/>
<ellipse rx="3.26378" ry="1.79157" transform="matrix(0.398809 -0.917034 0.917175 0.398484 447.31 224.613)" stroke="#FF2473"/>
<ellipse rx="3.26378" ry="1.79157" transform="matrix(0.398809 -0.917034 0.917175 0.398484 498.054 173.167)" stroke="white"/>
<ellipse rx="3.26378" ry="1.79157" transform="matrix(0.398809 -0.917034 0.917175 0.398484 482.889 209.828)" stroke="white"/>
<ellipse rx="3.26378" ry="1.79157" transform="matrix(0.398809 -0.917034 0.917175 0.398484 516.673 212.906)" stroke="white"/>
<ellipse rx="3.26378" ry="1.79157" transform="matrix(0.398809 -0.917034 0.917175 0.398484 511.872 164.298)" stroke="white"/>
<ellipse rx="3.26378" ry="1.79157" transform="matrix(0.398809 -0.917034 0.917175 0.398484 415.607 350.998)" stroke="white"/>
<path opacity="0.46" d="M260.221 165.926C260.221 165.926 284.404 139.169 271.199 118.25C271.199 118.25 259.916 119.443 246.922 125.166C247.944 125.49 252.085 127.919 253.632 129.603C265.181 142.174 260.979 161.405 260.221 165.926Z" fill="url(#paint26_linear_8745_51364)"/>
<path opacity="0.46" d="M200.123 181.349L192.685 197.899C192.902 194.343 185.626 180.442 175.855 170.831C168.584 163.675 159.932 158.895 151.954 162.523L151.965 162.512C152.054 162.423 152.789 161.71 154.053 160.631C158.512 156.819 169.602 148.444 182.385 146.93C201.66 144.648 203.152 172.757 200.123 181.349V181.349Z" fill="url(#paint27_linear_8745_51364)"/>
<path d="M485.997 153.118L486.419 156.771C486.512 157.574 486.632 158.476 487.167 159.122C489.413 161.834 490.461 152.728 490.587 151.998C491.08 149.154 491.316 146.27 492.061 143.466C492.464 141.947 494.912 134.061 497.479 135.34C498.09 135.645 498.184 136.465 498.177 137.148C498.158 138.937 497.996 140.721 497.782 142.497C497.626 143.788 496.895 145.873 497.468 147.124C497.624 147.464 497.994 147.734 498.359 147.653C498.563 147.607 498.73 147.463 498.865 147.303C499.59 146.439 499.497 145.189 500.241 144.344C500.687 143.838 501.491 143.58 502.05 143.956C502.463 144.233 502.628 144.769 502.633 145.267C502.64 146.005 502.196 147.941 503.549 147.401C504.227 147.131 504.571 145.848 504.957 145.287C505.346 144.723 505.883 144.211 506.555 144.073C508.49 143.675 507.716 145.832 508.893 146.281C509.305 146.438 509.813 146.296 510.083 145.947" stroke="#FF2473"/>
<path d="M459.535 249.542V268.743L465.213 265.466V246.266L459.535 249.542Z" fill="url(#paint28_linear_8745_51364)"/>
<path d="M470.134 252.387V262.627L475.056 259.788V249.548L470.134 252.387Z" fill="url(#paint29_linear_8745_51364)"/>
<path d="M485.088 240.372L479.977 243.321V256.949L485.088 254.001V240.372Z" fill="url(#paint30_linear_8745_51364)"/>
<path d="M459.027 336.217C459.403 335.124 459.883 334.068 460.459 333.065C460.821 332.435 461.278 331.782 461.974 331.574C462.726 331.348 463.532 331.715 464.156 332.191C464.78 332.668 465.319 333.268 466.019 333.624C467.448 334.35 469.258 333.867 470.497 332.851C471.737 331.835 472.522 330.379 473.233 328.943C473.945 327.507 474.635 326.022 475.75 324.87C476.351 324.249 477.126 323.718 477.99 323.702C478.398 323.695 478.799 323.803 479.196 323.896C480.562 324.219 482.209 324.3 483.156 323.264C483.933 322.414 484.01 321.022 484.947 320.352C485.023 320.298 485.126 320.249 485.205 320.299C485.284 320.349 485.211 320.515 485.137 320.458" stroke="#FF2473"/>
<ellipse rx="1.79801" ry="1.27713" transform="matrix(0.913434 -0.406986 0.407316 0.913288 485.561 274.096)" stroke="#FF2473"/>
<ellipse rx="1.79801" ry="1.27713" transform="matrix(0.913434 -0.406986 0.407316 0.913288 458.588 296.435)" stroke="#FF2473"/>
<path d="M381.172 351.616L393.002 319.832L399.438 344.9L391.694 356.819L381.172 351.616Z" stroke="#FF2473"/>
<path d="M381.172 354.644L391.694 359.657L399.942 348.095L390.305 377.441L381.172 354.644Z" stroke="#FF2473"/>
<path d="M391.694 356.819L393.002 319.832" stroke="#FF2473"/>
<path d="M391.694 359.657L390.305 377.441" stroke="#FF2473"/>
<path d="M381.172 351.616L392.348 341.305L399.438 344.9" stroke="#FF2473"/>
<g filter="url(#filter3_d_8745_51364)">
<ellipse rx="4.04452" ry="2.69684" transform="matrix(0.550625 -0.834753 0.834998 0.550252 528.759 67.6584)" stroke="white"/>
</g>
<path d="M484.578 66.4778C484.543 66.6553 484.578 74.0688 484.578 74.0688" stroke="white"/>
<path d="M492.74 61.3267V69.4856" stroke="white"/>
<path d="M244.927 90.9136C244.045 87.9804 240.578 87.1028 237.914 87.8574C235.825 88.449 233.998 89.8507 232.463 91.3432C231.743 92.0433 230.849 92.8396 229.875 92.5948C229.453 92.489 228.715 92.1724 228.426 91.8457C229.095 92.0082 229.758 91.6009 230.313 91.1947C233.11 89.1501 235.832 86.489 239.486 86.2386C242.175 86.0544 245.251 87.8852 244.927 90.9136Z" fill="#101010"/>
<path d="M254.953 88.4956C255.617 85.0638 258.271 82.1066 261.566 80.9786C262.746 80.574 264.107 80.4082 265.199 81.0103C265.688 81.2791 266.106 81.6926 266.646 81.8334C267.601 82.0838 268.541 81.4065 269.523 81.2919C268.937 82.1494 268.103 82.8345 267.149 83.2418C267.031 83.2919 266.905 83.3392 266.777 83.3264C266.616 83.3103 266.48 83.2023 266.351 83.1049C264.441 81.6737 261.996 81.997 260.058 83.1906C257.889 84.5273 256.357 86.938 254.955 89.0109" fill="#101010"/>
<path d="M211.142 97.9153C210.807 97.9771 210.488 98.1162 210.22 98.3266C209.074 99.2225 207.662 99.7094 206.207 99.7094H206.055C204.986 99.7094 203.934 99.4512 202.992 98.9442C199.088 96.8441 195.742 93.5263 193.87 89.4846C192.114 85.6893 191.374 80.0377 194.03 76.455C196.763 72.7655 201.245 74.3626 204.275 76.7483C207.495 79.2831 210.075 83.3003 209.987 87.5107" fill="url(#paint31_linear_8745_51364)"/>
<path d="M197.342 80.8927C199.212 79.9138 202.205 81.7809 203.568 82.9801C205.88 85.0163 207.016 87.9361 207.016 90.9862" stroke="#101010" stroke-linecap="round" stroke-linejoin="round"/>
<path d="M199.757 85.8496L191.634 86.9625C191.168 86.9625 190.791 86.5853 190.791 86.1195V82.1189C190.791 81.6531 191.168 81.2758 191.634 81.2758L199.757 82.3888V85.8496Z" fill="url(#paint32_linear_8745_51364)"/>
<path d="M192.331 414.798L170.645 415.757C169.091 415.553 167.481 415.446 165.832 415.446C163.028 415.446 160.341 415.756 157.847 416.324L139.589 417.132L142.449 432.197H142.456C143.907 439.541 153.815 445.225 165.832 445.225C177.931 445.225 187.896 439.462 189.238 432.043H189.243L192.331 414.798Z" fill="url(#paint33_linear_8745_51364)"/>
<ellipse cx="165.729" cy="416.603" rx="26.4991" ry="16.7433" fill="url(#paint34_linear_8745_51364)"/>
<path d="M188.009 416.31C188.009 423.876 178.094 430.011 165.863 430.011C154.626 430.011 145.342 424.835 143.911 418.126C143.786 417.53 143.718 416.923 143.718 416.31C143.718 408.744 153.632 402.609 165.863 402.609C177.583 402.609 187.174 408.239 187.958 415.368C187.992 415.68 188.009 415.992 188.009 416.31V416.31Z" fill="url(#paint35_linear_8745_51364)"/>
<path d="M188.009 416.309C188.009 423.875 178.095 430.011 165.863 430.011C154.626 430.011 145.342 424.835 143.911 418.126C144.286 417.4 144.371 416.667 144.723 415.833C145.109 414.908 145.819 414.068 146.773 413.767C147.454 413.545 148.272 413.585 148.772 413.075C148.999 412.848 149.124 412.535 149.282 412.257C150.049 410.873 151.775 410.1 153.32 410.447C154.001 410.6 154.666 410.952 155.353 410.85C155.79 410.787 156.176 410.549 156.557 410.327C158.254 409.317 160.066 408.437 162.008 408.063C163.95 407.683 166.045 407.841 167.777 408.795C168.066 408.959 168.436 409.136 168.703 408.937C168.833 408.835 168.89 408.659 168.964 408.511C169.384 407.683 170.446 407.472 171.366 407.353C172.576 407.206 173.813 407.052 175.011 407.297C176.209 407.541 177.374 408.256 177.839 409.385C178.93 408.806 180.315 408.812 181.405 409.402C182.49 409.993 183.251 411.15 183.353 412.382C183.841 412.036 184.523 412.081 185.056 412.348C185.59 412.621 186.01 413.069 186.413 413.506C186.953 414.091 187.504 414.703 187.958 415.367C187.992 415.679 188.009 415.992 188.009 416.309L188.009 416.309Z" fill="white"/>
<path d="M184.969 404.466C183.733 405.334 182.001 405.284 180.565 405.517C178.972 405.779 177.363 406.124 175.916 406.859C173.695 407.994 170.688 408.662 169.179 410.804C167.954 412.551 168.016 415.117 168.121 417.159C168.172 418.005 168.277 418.856 168.272 419.708C168.272 419.942 168.222 420.142 168.138 420.314C168.066 420.342 167.993 420.364 167.915 420.376C166.891 420.559 166.017 419.541 164.981 419.48C163.612 419.407 162.638 420.966 161.274 421.077C159.976 421.188 158.996 419.969 157.805 419.43C157.605 418.851 157.554 418.2 157.354 417.638C157.037 416.736 157.276 415.651 156.736 414.866C156.402 414.382 155.829 414.115 155.25 414.032C154.67 413.948 154.086 414.037 153.512 414.149C152.817 414.282 151.998 414.41 151.497 413.909C151.085 413.497 151.107 412.78 151.447 412.307C151.781 411.834 152.449 411.377 153.028 411.316C151.235 409.686 148.641 409.302 146.225 409.313C145.028 409.318 143.803 409.396 142.673 409.029C141.643 408.695 140.763 408.011 140.028 407.226C139.599 406.764 139.198 406.235 139.087 405.618C138.965 404.916 139.249 404.182 139.705 403.637C140.162 403.086 140.78 402.696 141.414 402.362C145.156 400.398 149.799 400.231 153.674 401.928C153.757 401.661 153.607 401.511 153.518 401.249C152.393 400.342 150.835 400.248 149.515 399.663C148.44 399.185 147.522 398.367 146.921 397.354C146.514 396.669 146.252 395.84 146.475 395.072C146.648 394.482 147.088 394.004 147.589 393.653C148.752 392.824 150.322 392.601 151.675 393.063C152.338 393.292 152.984 393.631 153.518 394.082C152.672 392.462 152.271 390.57 152.16 388.795C151.993 386.146 151.363 382.818 152.911 380.437C153.457 379.596 154.392 378.945 155.4 378.99C156.007 379.012 156.58 379.285 157.081 379.635C159.403 381.26 160.372 384.421 160.683 387.103C160.962 389.541 160.784 392.006 160.784 394.455L165.772 392.885C165.037 389.875 165.121 386.313 165.872 383.308C166.268 381.744 167.754 380.131 169.369 381.36C169.931 381.789 170.321 382.407 170.638 383.035C171.451 384.633 171.919 386.408 172.008 388.2C172.086 389.719 171.629 391.216 170.811 392.496L168.962 395.367C170.076 394.065 171.473 393.008 173.032 392.301C175.582 391.149 178.549 390.96 181.227 391.767C181.795 391.939 182.358 392.162 182.803 392.54C183.254 392.919 183.577 393.486 183.543 394.076C183.493 395.005 182.63 395.651 181.851 396.163C179.796 397.51 177.787 398.984 175.727 400.331C177.803 399.569 180.019 399.04 182.241 399.29C183.193 399.402 184.139 399.708 184.868 400.325C186.16 401.411 186.461 403.414 184.969 404.466L184.969 404.466Z" fill="url(#paint36_linear_8745_51364)"/>
<path d="M163.875 398.848C164.7 396.917 166.946 394.001 169.285 393.918C170.383 393.879 171.209 394.853 171.436 395.85C171.649 396.786 171.449 397.781 171.029 398.643C170.609 399.506 169.981 400.25 169.312 400.938" fill="#7F47DD"/>
<path d="M159.066 396.672C159.39 394.528 160.729 392.565 162.572 391.432C163.325 390.969 164.174 390.637 165.056 390.593C166.476 390.524 168.098 391.366 168.235 392.922" fill="url(#paint37_linear_8745_51364)"/>
<path d="M163.875 398.848C164.7 396.917 166.946 394.001 169.285 393.918C170.383 393.879 171.209 394.853 171.436 395.85C171.649 396.786 171.449 397.781 171.029 398.643C170.609 399.506 169.981 400.25 169.312 400.938" fill="url(#paint38_linear_8745_51364)"/>
<path d="M161.57 411.75C158.298 409.984 151.834 406.329 153.123 401.693C153.469 400.447 154.592 399.539 155.808 399.1C157.506 398.487 159.437 398.655 161.083 399.397C163.039 400.279 164.555 401.907 165.614 403.745C165.733 403.951 165.81 404.281 165.589 404.371" fill="url(#paint39_linear_8745_51364)"/>
<path d="M176.334 422.608C174.88 420.237 173.399 419.319 173.004 419.046C172.047 418.384 170.671 418.406 169.73 419.091C169.19 419.491 168.756 420.103 168.138 420.315C168.066 420.343 167.993 420.365 167.915 420.376C166.891 420.56 166.017 419.541 164.981 419.48C163.612 419.408 162.638 420.966 161.274 421.077C159.976 421.189 158.996 419.97 157.805 419.43C157.593 419.33 157.376 419.257 157.148 419.213C156.263 419.046 155.339 419.408 154.659 420.003C153.986 420.599 153.535 421.406 153.178 422.229" stroke="#F0014F"/>
<path d="M173.781 414.73C173.924 413.634 174.621 412.624 175.595 412.102C176.57 411.579 177.797 411.558 178.789 412.045C179.358 412.324 179.864 412.784 180.07 413.384" stroke="#F0014F"/>
<path d="M147.834 418.566C148.052 417.569 148.863 416.726 149.851 416.468C150.838 416.21 151.958 416.549 152.637 417.311" stroke="#F0014F"/>
<path d="M146.006 341.447C144.802 340.567 143.479 339.863 142.116 339.302C140.731 338.745 139.311 338.32 137.886 338.002C135.035 337.366 132.196 337.071 129.453 336.696C126.705 336.327 122.367 335.522 122.315 335.436C122.213 335.272 122.117 335.073 122.02 334.863C121.85 334.432 121.697 333.955 121.6 333.444C121.407 332.423 121.328 331.31 121.396 330.169C121.401 329.607 121.486 329.029 121.532 328.455C121.6 328.019 121.663 327.581 121.736 327.144C120.817 327.4 119.851 327.803 118.903 328.268C118.767 328.773 118.619 329.278 118.528 329.8C118.443 330.184 118.374 330.577 118.316 330.972C117.663 330.62 116.961 330.356 116.228 330.209C116.012 330.164 115.797 330.13 115.581 330.107C114.792 330.584 114.088 331.032 113.525 331.372C113.174 331.588 112.668 331.872 112.049 332.218L112.336 332.057C113.5 331.484 114.622 331.617 115.888 331.878C116.701 332.042 117.471 332.384 118.142 332.864C118.132 333.176 118.129 333.49 118.136 333.808C118.153 334.505 118.244 335.227 118.403 335.964C118.5 336.339 118.602 336.714 118.755 337.094C118.829 337.287 118.926 337.485 119.022 337.684C119.153 337.917 119.192 338.041 119.499 338.422L119.828 338.836L120.453 339.012H120.459C121.642 339.297 122.822 339.508 123.996 339.673C125.314 344.465 125.268 349.645 123.849 354.41C124.587 353.979 125.286 353.57 125.932 353.184C126.931 348.832 126.889 344.23 125.817 339.895C126.923 340.009 128.021 340.091 129.107 340.159C131.929 340.34 134.689 340.437 137.346 340.84C139.998 341.237 142.547 341.975 144.745 343.371C145.217 343.672 145.676 344.001 146.131 344.364C146.102 343.456 146.046 342.485 146.006 341.447H146.006Z" fill="#E9024D"/>
<path d="M123.408 326.991C124.581 329.753 126.635 332.173 129.267 333.595C133.895 336.093 136.47 337.172 146.642 336.76" stroke="#E9024D"/>
<path d="M46.7994 9.50076L30.8433 18.7069V12.8558L36.6647 9.50076L30.8433 6.1457V0.294617L46.7994 9.50076Z" fill="url(#paint40_linear_8745_51364)"/>
<path d="M70.5147 9.50076L54.5585 18.7069V12.8558L60.3799 9.50076L54.5585 6.1457V0.294617L70.5147 9.50076Z" fill="url(#paint41_linear_8745_51364)"/>
<path d="M94.2311 9.50076L78.2749 18.7069V12.8558L84.0963 9.50076L78.2749 6.1457V0.294617L94.2311 9.50076Z" fill="url(#paint42_linear_8745_51364)"/>
<path d="M117.947 9.50076L101.991 18.7069V12.8558L107.812 9.50076L101.991 6.1457V0.294617L117.947 9.50076Z" fill="url(#paint43_linear_8745_51364)"/>
<path d="M554.008 294.484H541.414V281.896H534.525V294.484H521.931V301.37H534.525V313.959H541.414V301.37H554.008V294.484Z" fill="url(#paint44_linear_8745_51364)"/>
<path d="M38.7953 475.422H29.1775V465.809H23.9162V475.422H14.2985V480.681H23.9162V490.295H29.1775V480.681H38.7953V475.422Z" fill="url(#paint45_linear_8745_51364)"/>
<path d="M242.78 478.682L260.904 490.144L279.03 478.682L297.154 490.144L315.282 478.682L333.409 490.144" stroke="#F0014F"/>
<path d="M243.023 467.22L261.147 478.682L279.273 467.22L297.398 478.682L315.525 467.22L333.652 478.682" stroke="#F0014F"/>
<mask id="mask1_8745_51364" style="mask-type:alpha" maskUnits="userSpaceOnUse" x="0" y="114" width="75" height="75">
<rect x="37.1548" y="114.093" width="52.5324" height="52.5324" transform="rotate(45 37.1548 114.093)" fill="black"/>
</mask>
<g mask="url(#mask1_8745_51364)">
<ellipse cx="37.1554" cy="151.23" rx="34.2668" ry="34.2502" stroke="#E9024D"/>
<ellipse cx="37.1549" cy="151.23" rx="27.2925" ry="27.2797" stroke="#E9024D"/>
<ellipse cx="37.155" cy="151.23" rx="20.3188" ry="20.3092" stroke="#E9024D"/>
<ellipse cx="37.155" cy="151.23" rx="6.37128" ry="6.36829" stroke="#E9024D"/>
</g>
<path d="M173.384 168.545C173.384 168.545 144.961 252.064 127.013 331.949" stroke="#E9024D"/>
<path d="M178.744 173.874C178.744 173.874 158.13 238.964 149.339 279.534" stroke="#E9024D"/>
<ellipse cx="149.16" cy="282.137" rx="3.02924" ry="3.02782" stroke="#E9024D"/>
<ellipse cx="157.483" cy="263.001" rx="1.1991" ry="1.19854" stroke="#E9024D"/>
<ellipse cx="163.399" cy="241.947" rx="1.1991" ry="1.19854" stroke="#E9024D"/>
<path d="M157.905 262.011C157.905 262.011 161.455 247.231 162.916 242.865" stroke="#E9024D"/>
<path d="M156.488 250.247L160.585 251.243" stroke="#E9024D"/>
<path d="M158.682 226.704L162.571 228.047" stroke="#E9024D"/>
<path d="M159.529 224.727L163.181 225.896" stroke="#E9024D"/>
<path d="M157.086 219.773L164.303 221.963" stroke="#E9024D"/>
<path d="M156.314 216.123L163.497 218.223" stroke="#E9024D"/>
<path d="M237.41 122.055C237.41 122.055 233.694 127.585 220.297 126.472V144.454C220.297 144.454 234.133 144.047 239.903 135.953C241.279 134.023 242.005 131.705 242.161 129.339L242.393 125.828L238.356 126.09L237.41 122.055Z" fill="url(#paint46_linear_8745_51364)"/>
<path d="M286.023 149.281C286.023 149.281 282.905 162.094 274.499 170.803" stroke="#E9024D"/>
<path d="M291.001 155.733C291.001 155.733 291.001 166.713 281.147 175.756" stroke="#E9024D"/>
<path d="M269.523 165.744C269.523 165.744 297.837 192.2 310.364 198.679C322.891 205.157 349.221 218.983 366.202 229.894" stroke="#E9024D"/>
<path d="M333.363 225.311C333.363 225.311 328.927 214.493 336.26 205.403C344.465 195.233 351.776 202.203 351.776 202.203" stroke="#E9024D"/>
<path opacity="0.46" d="M196.442 72.0146L220.967 88.1667C221.537 88.5423 222.297 88.1332 222.297 87.4504V86.4504C222.297 85.5484 222.955 84.7832 223.848 84.6497C228.22 83.9975 240.787 82.052 247.851 80.225C256.502 77.988 266.085 73.6958 268.214 73.0926C270.344 72.4893 271.479 73.0219 271.479 73.0219V86.7315C271.479 88.0937 270.561 89.2841 269.243 89.6308L258.102 92.5601C257.318 92.7666 256.483 92.603 255.834 92.1166L255.099 91.5657C254.157 90.8589 252.925 90.6669 251.812 91.0537C251.167 91.2774 250.601 91.6831 250.181 92.2218L246.722 96.6586C246.304 97.1962 245.688 97.5451 245.011 97.6286L228.137 99.7104C227.452 99.795 226.756 99.7059 226.115 99.4511L224.345 98.7482C222.947 98.1928 221.963 96.9185 221.781 95.4254L221.722 94.9352L195.869 74.0575C194.95 73.3146 193.653 73.2551 192.669 73.9112L192.528 74.0046C191.858 74.4515 190.974 73.9011 191.079 73.1031C191.13 72.713 191.42 72.397 191.803 72.3113L194.618 71.6808C195.246 71.5405 195.904 71.6607 196.442 72.0146H196.442Z" fill="url(#paint47_linear_8745_51364)"/>
<defs>
<filter id="filter0_d_8745_51364" x="364.533" y="304.767" width="48.9879" height="91.2383" filterUnits="userSpaceOnUse" color-interpolation-filters="sRGB">
<feFlood flood-opacity="0" result="BackgroundImageFix"/>
<feColorMatrix in="SourceAlpha" type="matrix" values="0 0 0 0 0 0 0 0 0 0 0 0 0 0 0 0 0 0 127 0" result="hardAlpha"/>
<feOffset/>
<feGaussianBlur stdDeviation="2.5"/>
<feColorMatrix type="matrix" values="0 0 0 0 1 0 0 0 0 0.192157 0 0 0 0 0.482353 0 0 0 0.768627 0"/>
<feBlend mode="normal" in2="BackgroundImageFix" result="effect1_dropShadow_8745_51364"/>
<feBlend mode="normal" in="SourceGraphic" in2="effect1_dropShadow_8745_51364" result="shape"/>
</filter>
<filter id="filter1_d_8745_51364" x="422.998" y="66.6005" width="105.32" height="77.0851" filterUnits="userSpaceOnUse" color-interpolation-filters="sRGB">
<feFlood flood-opacity="0" result="BackgroundImageFix"/>
<feColorMatrix in="SourceAlpha" type="matrix" values="0 0 0 0 0 0 0 0 0 0 0 0 0 0 0 0 0 0 127 0" result="hardAlpha"/>
<feOffset/>
<feGaussianBlur stdDeviation="1"/>
<feColorMatrix type="matrix" values="0 0 0 0 1 0 0 0 0 0.113725 0 0 0 0 0.517647 0 0 0 0.929412 0"/>
<feBlend mode="normal" in2="BackgroundImageFix" result="effect1_dropShadow_8745_51364"/>
<feBlend mode="normal" in="SourceGraphic" in2="effect1_dropShadow_8745_51364" result="shape"/>
</filter>
<filter id="filter2_d_8745_51364" x="456.751" y="79.5938" width="26.1553" height="43.1333" filterUnits="userSpaceOnUse" color-interpolation-filters="sRGB">
<feFlood flood-opacity="0" result="BackgroundImageFix"/>
<feColorMatrix in="SourceAlpha" type="matrix" values="0 0 0 0 0 0 0 0 0 0 0 0 0 0 0 0 0 0 127 0" result="hardAlpha"/>
<feOffset/>
<feGaussianBlur stdDeviation="1"/>
<feColorMatrix type="matrix" values="0 0 0 0 1 0 0 0 0 0.113725 0 0 0 0 0.517647 0 0 0 0.929412 0"/>
<feBlend mode="normal" in2="BackgroundImageFix" result="effect1_dropShadow_8745_51364"/>
<feBlend mode="normal" in="SourceGraphic" in2="effect1_dropShadow_8745_51364" result="shape"/>
</filter>
<filter id="filter3_d_8745_51364" x="523.092" y="61.4697" width="11.3344" height="12.3774" filterUnits="userSpaceOnUse" color-interpolation-filters="sRGB">
<feFlood flood-opacity="0" result="BackgroundImageFix"/>
<feColorMatrix in="SourceAlpha" type="matrix" values="0 0 0 0 0 0 0 0 0 0 0 0 0 0 0 0 0 0 127 0" result="hardAlpha"/>
<feOffset/>
<feGaussianBlur stdDeviation="1"/>
<feColorMatrix type="matrix" values="0 0 0 0 1 0 0 0 0 0.113725 0 0 0 0 0.517647 0 0 0 0.929412 0"/>
<feBlend mode="normal" in2="BackgroundImageFix" result="effect1_dropShadow_8745_51364"/>
<feBlend mode="normal" in="SourceGraphic" in2="effect1_dropShadow_8745_51364" result="shape"/>
</filter>
<linearGradient id="paint0_linear_8745_51364" x1="234.52" y1="144.758" x2="237.946" y2="102.853" gradientUnits="userSpaceOnUse">
<stop stop-color="white"/>
<stop offset="1" stop-color="#FC9AC2"/>
</linearGradient>
<linearGradient id="paint1_linear_8745_51364" x1="316.978" y1="275.571" x2="201.305" y2="162.315" gradientUnits="userSpaceOnUse">
<stop stop-color="#E9024D"/>
<stop offset="1" stop-color="#101010"/>
</linearGradient>
<linearGradient id="paint2_linear_8745_51364" x1="284.723" y1="368.909" x2="303.42" y2="273.773" gradientUnits="userSpaceOnUse">
<stop stop-color="white"/>
<stop offset="1" stop-color="#FC9AC2"/>
</linearGradient>
<linearGradient id="paint3_linear_8745_51364" x1="109.003" y1="334.828" x2="169.983" y2="334.828" gradientUnits="userSpaceOnUse">
<stop stop-color="#E9024D"/>
<stop offset="0.0455207" stop-color="#EA044E"/>
<stop offset="1" stop-color="#FA246B"/>
</linearGradient>
<linearGradient id="paint4_linear_8745_51364" x1="121.66" y1="354.817" x2="209.939" y2="354.817" gradientUnits="userSpaceOnUse">
<stop stop-color="#E9024D"/>
<stop offset="1" stop-color="#101010"/>
</linearGradient>
<linearGradient id="paint5_linear_8745_51364" x1="365.038" y1="362.926" x2="306.766" y2="284.416" gradientUnits="userSpaceOnUse">
<stop stop-color="white"/>
<stop offset="1" stop-color="#FC9AC2"/>
</linearGradient>
<linearGradient id="paint6_linear_8745_51364" x1="477.156" y1="194.635" x2="342.509" y2="48.267" gradientUnits="userSpaceOnUse">
<stop stop-color="#E9024D"/>
<stop offset="0.188351" stop-color="#AF053C"/>
<stop offset="0.395562" stop-color="#77092C"/>
<stop offset="0.58781" stop-color="#4A0C20"/>
<stop offset="0.75869" stop-color="#2A0E17"/>
<stop offset="0.90189" stop-color="#170F11"/>
<stop offset="1" stop-color="#101010"/>
</linearGradient>
<linearGradient id="paint7_linear_8745_51364" x1="281.485" y1="253.545" x2="253.175" y2="135.844" gradientUnits="userSpaceOnUse">
<stop stop-color="#E9024D"/>
<stop offset="0.114261" stop-color="#C70443"/>
<stop offset="0.35114" stop-color="#860831"/>
<stop offset="0.566724" stop-color="#530B22"/>
<stop offset="0.753485" stop-color="#2E0E18"/>
<stop offset="0.904193" stop-color="#180F12"/>
<stop offset="1" stop-color="#101010"/>
</linearGradient>
<linearGradient id="paint8_linear_8745_51364" x1="197.785" y1="27.2374" x2="211.279" y2="126.653" gradientUnits="userSpaceOnUse">
<stop stop-color="white"/>
<stop offset="1" stop-color="#FC9AC2"/>
</linearGradient>
<linearGradient id="paint9_linear_8745_51364" x1="211.302" y1="125.186" x2="210.246" y2="140.056" gradientUnits="userSpaceOnUse">
<stop stop-color="#E9024D"/>
<stop offset="0.188351" stop-color="#AF053C"/>
<stop offset="0.395562" stop-color="#77092C"/>
<stop offset="0.58781" stop-color="#4A0C20"/>
<stop offset="0.75869" stop-color="#2A0E17"/>
<stop offset="0.90189" stop-color="#170F11"/>
<stop offset="1" stop-color="#101010"/>
</linearGradient>
<linearGradient id="paint10_linear_8745_51364" x1="272.174" y1="161.708" x2="291.158" y2="20.2069" gradientUnits="userSpaceOnUse">
<stop stop-color="#E9024D"/>
<stop offset="1" stop-color="#101010"/>
</linearGradient>
<linearGradient id="paint11_linear_8745_51364" x1="226.813" y1="39.0735" x2="249.743" y2="40.1455" gradientUnits="userSpaceOnUse">
<stop stop-color="#F0014F"/>
<stop offset="1" stop-color="#FE3477"/>
</linearGradient>
<linearGradient id="paint12_linear_8745_51364" x1="257.165" y1="203.01" x2="231.655" y2="167.195" gradientUnits="userSpaceOnUse">
<stop stop-color="#640B28"/>
<stop offset="1" stop-color="#3A0E1C"/>
</linearGradient>
<linearGradient id="paint13_linear_8745_51364" x1="240.956" y1="202.392" x2="261.192" y2="199.567" gradientUnits="userSpaceOnUse">
<stop/>
<stop offset="1" stop-opacity="0"/>
</linearGradient>
<linearGradient id="paint14_linear_8745_51364" x1="151.064" y1="182.098" x2="175.855" y2="182.098" gradientUnits="userSpaceOnUse">
<stop stop-color="#E9024D"/>
<stop offset="1" stop-color="#101010"/>
</linearGradient>
<linearGradient id="paint15_linear_8745_51364" x1="115.806" y1="320.614" x2="75.172" y2="363.507" gradientUnits="userSpaceOnUse">
<stop stop-color="white"/>
<stop offset="1" stop-color="#FC9AC2"/>
</linearGradient>
<linearGradient id="paint16_linear_8745_51364" x1="162.072" y1="473.607" x2="295.928" y2="386.557" gradientUnits="userSpaceOnUse">
<stop stop-color="#E9024D"/>
<stop offset="1" stop-color="#101010"/>
</linearGradient>
<linearGradient id="paint17_linear_8745_51364" x1="241.227" y1="95.9076" x2="241.078" y2="91.429" gradientUnits="userSpaceOnUse">
<stop stop-color="#E9024D"/>
<stop offset="1" stop-color="#101010"/>
</linearGradient>
<linearGradient id="paint18_linear_8745_51364" x1="263.325" y1="90.9927" x2="263.124" y2="86.4044" gradientUnits="userSpaceOnUse">
<stop stop-color="#E9024D"/>
<stop offset="1" stop-color="#101010"/>
</linearGradient>
<linearGradient id="paint19_linear_8745_51364" x1="317.784" y1="31.6943" x2="330.545" y2="80.9041" gradientUnits="userSpaceOnUse">
<stop stop-color="#E9024D"/>
<stop offset="0.0455207" stop-color="#EA044E"/>
<stop offset="1" stop-color="#FA246B"/>
</linearGradient>
<linearGradient id="paint20_linear_8745_51364" x1="379.658" y1="246.105" x2="405.459" y2="246.105" gradientUnits="userSpaceOnUse">
<stop stop-color="white"/>
<stop offset="1" stop-color="#FC9AC2"/>
</linearGradient>
<linearGradient id="paint21_linear_8745_51364" x1="406.803" y1="230.125" x2="376.313" y2="215.115" gradientUnits="userSpaceOnUse">
<stop stop-color="white"/>
<stop offset="1" stop-color="#FC9AC2"/>
</linearGradient>
<linearGradient id="paint22_linear_8745_51364" x1="380.073" y1="229.967" x2="401.671" y2="229.967" gradientUnits="userSpaceOnUse">
<stop stop-color="white"/>
<stop offset="1" stop-color="#FC9AC2"/>
</linearGradient>
<linearGradient id="paint23_linear_8745_51364" x1="386.235" y1="216.865" x2="396.72" y2="216.865" gradientUnits="userSpaceOnUse">
<stop stop-color="white"/>
<stop offset="1" stop-color="#FC9AC2"/>
</linearGradient>
<linearGradient id="paint24_linear_8745_51364" x1="367.026" y1="299.256" x2="443.214" y2="299.256" gradientUnits="userSpaceOnUse">
<stop stop-color="#E9024D"/>
<stop offset="1" stop-color="#FC9AC2"/>
</linearGradient>
<linearGradient id="paint25_linear_8745_51364" x1="486.542" y1="326.481" x2="482.272" y2="299.359" gradientUnits="userSpaceOnUse">
<stop stop-color="#E9024D"/>
<stop offset="1" stop-color="#101010"/>
</linearGradient>
<linearGradient id="paint26_linear_8745_51364" x1="278.196" y1="116.709" x2="250.572" y2="118.227" gradientUnits="userSpaceOnUse">
<stop stop-color="#E9024D"/>
<stop offset="1" stop-color="#101010"/>
</linearGradient>
<linearGradient id="paint27_linear_8745_51364" x1="151.953" y1="197.899" x2="201.34" y2="197.899" gradientUnits="userSpaceOnUse">
<stop stop-color="#E9024D"/>
<stop offset="1" stop-color="#101010"/>
</linearGradient>
<linearGradient id="paint28_linear_8745_51364" x1="457.711" y1="246.947" x2="470.341" y2="254.736" gradientUnits="userSpaceOnUse">
<stop stop-color="#E9024D"/>
<stop offset="1" stop-color="#101010"/>
</linearGradient>
<linearGradient id="paint29_linear_8745_51364" x1="466.472" y1="244.257" x2="478.876" y2="261.229" gradientUnits="userSpaceOnUse">
<stop stop-color="#E9024D"/>
<stop offset="1" stop-color="#101010"/>
</linearGradient>
<linearGradient id="paint30_linear_8745_51364" x1="477.887" y1="243.896" x2="491.306" y2="256.219" gradientUnits="userSpaceOnUse">
<stop stop-color="#E9024D"/>
<stop offset="1" stop-color="#101010"/>
</linearGradient>
<linearGradient id="paint31_linear_8745_51364" x1="192.288" y1="99.7096" x2="211.142" y2="99.7096" gradientUnits="userSpaceOnUse">
<stop stop-color="white"/>
<stop offset="1" stop-color="#FC9AC2"/>
</linearGradient>
<linearGradient id="paint32_linear_8745_51364" x1="190.791" y1="86.9628" x2="199.757" y2="86.9628" gradientUnits="userSpaceOnUse">
<stop stop-color="#E9024D"/>
<stop offset="1" stop-color="#101010"/>
</linearGradient>
<linearGradient id="paint33_linear_8745_51364" x1="201.311" y1="447.029" x2="198.696" y2="414.699" gradientUnits="userSpaceOnUse">
<stop stop-color="#E9024D"/>
<stop offset="1" stop-color="#101010"/>
</linearGradient>
<linearGradient id="paint34_linear_8745_51364" x1="139.23" y1="435.11" x2="197.811" y2="435.11" gradientUnits="userSpaceOnUse">
<stop stop-color="#E9024D"/>
<stop offset="1" stop-color="#101010"/>
</linearGradient>
<linearGradient id="paint35_linear_8745_51364" x1="181.863" y1="424.703" x2="182.041" y2="404.667" gradientUnits="userSpaceOnUse">
<stop stop-color="#E9024D"/>
<stop offset="1" stop-color="#101010"/>
</linearGradient>
<linearGradient id="paint36_linear_8745_51364" x1="196.646" y1="422.278" x2="191.391" y2="365.274" gradientUnits="userSpaceOnUse">
<stop stop-color="#E9024D"/>
<stop offset="1" stop-color="#101010"/>
</linearGradient>
<linearGradient id="paint37_linear_8745_51364" x1="173.723" y1="403.021" x2="175.024" y2="387.663" gradientUnits="userSpaceOnUse">
<stop stop-color="#E9024D"/>
<stop offset="0.124867" stop-color="#C30442"/>
<stop offset="0.357634" stop-color="#840830"/>
<stop offset="0.569889" stop-color="#520B22"/>
<stop offset="0.754444" stop-color="#2E0E18"/>
<stop offset="0.904065" stop-color="#180F12"/>
<stop offset="1" stop-color="#101010"/>
</linearGradient>
<linearGradient id="paint38_linear_8745_51364" x1="169.114" y1="406.244" x2="172.902" y2="397.644" gradientUnits="userSpaceOnUse">
<stop stop-color="#E9024D"/>
<stop offset="0.114965" stop-color="#D70348"/>
<stop offset="0.343297" stop-color="#AB053B"/>
<stop offset="0.663571" stop-color="#620A27"/>
<stop offset="1" stop-color="#101010"/>
</linearGradient>
<linearGradient id="paint39_linear_8745_51364" x1="171.426" y1="405.049" x2="160.302" y2="395.894" gradientUnits="userSpaceOnUse">
<stop stop-color="#E9024D"/>
<stop offset="1" stop-color="#101010"/>
</linearGradient>
<linearGradient id="paint40_linear_8745_51364" x1="2.92254" y1="114.107" x2="184.423" y2="114.664" gradientUnits="userSpaceOnUse">
<stop stop-color="#E9024D"/>
<stop offset="0.188351" stop-color="#AF053C"/>
<stop offset="0.395562" stop-color="#77092C"/>
<stop offset="0.58781" stop-color="#4A0C20"/>
<stop offset="0.75869" stop-color="#2A0E17"/>
<stop offset="0.90189" stop-color="#170F11"/>
<stop offset="1" stop-color="#101010"/>
</linearGradient>
<linearGradient id="paint41_linear_8745_51364" x1="2.92288" y1="114.01" x2="184.423" y2="114.567" gradientUnits="userSpaceOnUse">
<stop stop-color="#E9024D"/>
<stop offset="0.188351" stop-color="#AF053C"/>
<stop offset="0.395562" stop-color="#77092C"/>
<stop offset="0.58781" stop-color="#4A0C20"/>
<stop offset="0.75869" stop-color="#2A0E17"/>
<stop offset="0.90189" stop-color="#170F11"/>
<stop offset="1" stop-color="#101010"/>
</linearGradient>
<linearGradient id="paint42_linear_8745_51364" x1="2.92432" y1="113.913" x2="184.424" y2="114.47" gradientUnits="userSpaceOnUse">
<stop stop-color="#E9024D"/>
<stop offset="0.188351" stop-color="#AF053C"/>
<stop offset="0.395562" stop-color="#77092C"/>
<stop offset="0.58781" stop-color="#4A0C20"/>
<stop offset="0.75869" stop-color="#2A0E17"/>
<stop offset="0.90189" stop-color="#170F11"/>
<stop offset="1" stop-color="#101010"/>
</linearGradient>
<linearGradient id="paint43_linear_8745_51364" x1="2.92556" y1="113.816" x2="184.426" y2="114.373" gradientUnits="userSpaceOnUse">
<stop stop-color="#E9024D"/>
<stop offset="0.188351" stop-color="#AF053C"/>
<stop offset="0.395562" stop-color="#77092C"/>
<stop offset="0.58781" stop-color="#4A0C20"/>
<stop offset="0.75869" stop-color="#2A0E17"/>
<stop offset="0.90189" stop-color="#170F11"/>
<stop offset="1" stop-color="#101010"/>
</linearGradient>
<linearGradient id="paint44_linear_8745_51364" x1="521.931" y1="313.959" x2="554.008" y2="313.959" gradientUnits="userSpaceOnUse">
<stop stop-color="#E9024D"/>
<stop offset="0.0455207" stop-color="#EA044E"/>
<stop offset="1" stop-color="#FA246B"/>
</linearGradient>
<linearGradient id="paint45_linear_8745_51364" x1="42.3349" y1="465.681" x2="15.4159" y2="463.711" gradientUnits="userSpaceOnUse">
<stop stop-color="#E9024D"/>
<stop offset="0.0455207" stop-color="#EA044E"/>
<stop offset="1" stop-color="#FA246B"/>
</linearGradient>
<linearGradient id="paint46_linear_8745_51364" x1="220.934" y1="123.355" x2="222.507" y2="142.412" gradientUnits="userSpaceOnUse">
<stop stop-color="#E9024D"/>
<stop offset="0.188351" stop-color="#AF053C"/>
<stop offset="0.395562" stop-color="#77092C"/>
<stop offset="0.58781" stop-color="#4A0C20"/>
<stop offset="0.75869" stop-color="#2A0E17"/>
<stop offset="0.90189" stop-color="#170F11"/>
<stop offset="1" stop-color="#101010"/>
</linearGradient>
<linearGradient id="paint47_linear_8745_51364" x1="288.08" y1="99.9617" x2="287.678" y2="61.8535" gradientUnits="userSpaceOnUse">
<stop stop-color="#E9024D"/>
<stop offset="1" stop-color="#101010"/>
</linearGradient>
</defs>
</svg>
