<svg width="531" height="544" viewBox="0 0 531 544" fill="none" xmlns="http://www.w3.org/2000/svg">
<path d="M434.458 248.082V266.314C434.458 268.183 433.454 269.912 431.83 270.846L386.649 296.687C385.831 297.157 384.937 297.378 384.061 297.378C382.251 297.378 380.488 296.438 379.524 294.749C378.091 292.248 378.962 289.057 381.462 287.623L424.014 263.279V251.088L339.02 202.356L302.897 222.695L302.566 210.886L336.497 191.789C338.11 190.877 340.082 190.889 341.684 191.824L431.858 243.567C433.466 244.501 434.458 246.219 434.458 248.082V248.082Z" fill="url(#paint0_linear_8745_51366)"/>
<path d="M313.565 319.779L359.126 345.741L401.279 321.625L355.829 295.661L313.565 319.779Z" fill="url(#paint1_linear_8745_51366)"/>
<path d="M344.44 322.488C344.301 322.579 344.161 322.669 344.015 322.753C341.589 324.155 338.473 323.743 335.621 321.965L339.713 319.211C340.327 318.855 340.773 318.298 341.045 317.607C341.617 316.136 341.394 314.072 340.299 312.19C339.219 310.307 337.546 309.08 335.984 308.843C335.252 308.732 334.541 308.836 333.928 309.192L329.403 312.232C329.152 312.378 328.929 312.559 328.741 312.769C327.2 307.874 328.218 303.105 331.557 301.181C335.698 298.789 341.84 301.676 345.284 307.637C348.602 313.389 348.191 319.887 344.44 322.488H344.44Z" fill="#282526" stroke="#E9024D"/>
<path d="M358.431 313.745L358.445 313.759L358.375 313.8C358.061 314.086 357.726 314.344 357.35 314.561C357.085 314.714 356.806 314.846 356.52 314.958L344.44 322.488C348.19 319.887 348.601 313.389 345.283 307.637C341.839 301.676 335.698 298.789 331.557 301.18L344.9 292.981C349.04 290.59 355.182 293.483 358.626 299.437C361.735 304.827 361.554 310.865 358.431 313.745H358.431Z" fill="#282526" stroke="#E9024D"/>
<path d="M341.045 317.607C340.773 318.298 340.327 318.855 339.713 319.211L335.621 321.965C335.614 321.965 335.607 321.951 335.607 321.951C337.134 320.647 337.245 317.782 335.775 315.237C334.178 312.469 331.32 311.123 329.403 312.232L333.927 309.192C334.541 308.836 335.252 308.732 335.984 308.843C337.545 309.08 339.218 310.307 340.299 312.19C341.393 314.072 341.616 316.136 341.045 317.607H341.045Z" stroke="#E9024D"/>
<path d="M335.622 321.965L335.461 322.07C335.51 322.035 335.559 322 335.608 321.951C335.608 321.951 335.615 321.965 335.622 321.965Z" stroke="#00C8FF"/>
<path d="M335.607 321.951C335.558 322 335.51 322.035 335.461 322.07C335.37 322.139 335.28 322.202 335.182 322.258C333.265 323.366 330.406 322.021 328.81 319.253C327.423 316.847 327.444 314.163 328.741 312.769C328.929 312.559 329.152 312.378 329.403 312.232C331.32 311.123 334.178 312.469 335.774 315.237C337.245 317.782 337.134 320.647 335.607 321.951L335.607 321.951Z" fill="#282526" stroke="#E9024D"/>
<path d="M401.279 356.604V321.626L359.126 345.741V380.719L401.279 356.604Z" fill="url(#paint2_linear_8745_51366)"/>
<path d="M313.565 319.78V354.758L359.126 380.719V345.742L313.565 319.78Z" fill="url(#paint3_linear_8745_51366)"/>
<path d="M261.976 255.232L262.051 264.965L253.442 270.576L245.846 266.416V264.697L242.832 266.506L210.43 285.712V242.358L353.402 160.561L353.447 160.539L353.752 171.545L354.176 186.688L354.556 200.351L261.976 255.232Z" fill="url(#paint4_linear_8745_51366)"/>
<path d="M210.432 242.383V284.963L82.5528 212.43V171.12L210.411 242.362L210.432 242.383Z" fill="url(#paint5_linear_8745_51366)"/>
<path d="M353.403 160.561L210.43 242.358L210.409 242.365L82.5541 171.119V170.963C141.023 138.486 170 87.3075 179.107 53.7162C183.868 36.1473 184.025 23.9654 184.025 23.9654L219.798 44.2436L257.185 23.0945L257.282 23.1468C257.639 34.748 262.803 51.2682 270.161 68.0116C273.985 76.7402 278.412 85.5212 283.055 93.7067C327.503 168.583 352.198 160.985 353.403 160.561V160.561Z" fill="url(#paint6_linear_8745_51366)"/>
<path d="M353.403 160.561L210.431 242.358L210.409 242.365" stroke="#E9024D"/>
<path d="M211.819 277.677V277.696L211.8 277.683L211.819 277.677Z" fill="white" stroke="black" stroke-linecap="round" stroke-linejoin="round"/>
<path d="M270.157 68.0111C265.247 68.9663 262.718 58.9262 260.946 54.853C260.764 57.7018 258.957 60.3722 258.957 60.3722C255.474 58.6982 254.616 50.1717 254.616 50.1717C254.616 50.1717 252.353 77.3324 249.732 84.1597C245.209 83.5741 239.512 75.2971 236.888 58.291C237.477 72.2663 230.512 84.7949 230.512 84.7949C216.675 79.2756 217.445 56.6874 217.445 56.6874C217.445 56.6874 211.069 83.9345 201.617 90.0401C196.418 76.2468 197.775 62.5866 198.814 49.6753C195.558 61.9571 187.872 66.9743 187.872 66.9743C186.605 63.7642 186.605 59.7831 186.833 44.2397C184.087 49.9681 181.311 52.5758 179.106 53.7157C183.867 36.1449 184.027 23.9635 184.027 23.9635L221.469 2.25449L257.188 23.0954L257.283 23.1491C257.639 34.7448 262.805 51.2678 270.157 68.0111Z" fill="url(#paint7_linear_8745_51366)"/>
<path d="M257.188 22.9432L219.795 44.0877L184.027 23.8116L221.469 2.10258L257.188 22.9432Z" fill="url(#paint8_linear_8745_51366)"/>
<path d="M246.865 22.4413L243.014 24.6827L238.19 27.4885L221.173 37.396L203.909 27.5456L199.028 24.7614L195.132 22.5389L221.138 7.67371L246.865 22.4413Z" fill="url(#paint9_linear_8745_51366)"/>
<path d="M243.014 24.683L238.19 27.4889L221.173 37.3964L203.909 27.5459L199.028 24.7618L221.138 12.1271L243.014 24.683Z" fill="url(#paint10_linear_8745_51366)"/>
<path d="M221.139 7.67371V12.1267L243.015 24.6827L246.865 22.4413L221.139 7.67371Z" fill="url(#paint11_linear_8745_51366)"/>
<path d="M125.51 82.1395L134.466 87.2382L146.522 80.2896L137.566 75.1909L125.51 82.1395Z" fill="url(#paint12_linear_8745_51366)"/>
<path d="M146.522 80.2889V86.485L137.275 97.5778L134.377 92.0593V87.2374L146.522 80.2889Z" fill="url(#paint13_linear_8745_51366)"/>
<path d="M125.51 82.1395L134.377 87.2381V92.0599L125.51 87.2381V82.1395Z" fill="#E9024D"/>
<path d="M125.51 87.2384L129.943 93.0218L137.275 97.5787L134.377 92.0602L125.51 87.2384Z" fill="url(#paint14_linear_8745_51366)"/>
<path d="M109.145 88.7333L116.302 92.6964C118.002 93.6383 120.073 93.6146 121.752 92.635L131.312 87.0564C132.313 86.4722 132.928 85.4005 132.928 84.2417C132.928 83.1687 133.456 82.1646 134.34 81.5567L147.158 74.1291C147.717 73.7442 148 73 148.478 73.4284C148.478 74.1012 149.228 74.5027 149.788 74.1291L153.55 71.6211C155.709 70.1813 157.005 67.7584 157.005 65.1634V57.4534C157.005 54.8799 155.568 52.5226 153.28 51.3442L148.898 49.0859C147.047 48.1321 144.863 48.0693 142.96 48.9151L139.093 47.0653C136.7 45.9205 133.897 46.0334 131.604 47.3659L123.493 52.0784C119.915 54.1576 117.713 57.984 117.713 62.1227V64.3002L114.014 66.7495C111.23 68.593 109.629 71.7731 109.807 75.1087L109.854 76.006L108.721 77.1523C107.037 78.8563 106.092 81.1565 106.092 83.5529C106.092 85.7066 107.262 87.6902 109.145 88.7333Z" fill="white"/>
<path d="M118.667 64.0519L126.342 68.3496L118.667 64.0519Z" fill="white"/>
<path d="M118.667 64.0519L126.342 68.3496" stroke="black" stroke-linecap="round" stroke-linejoin="round"/>
<path d="M146.22 60.0523V54.8781C146.22 52.465 144.992 50.2171 142.96 48.9147" fill="white"/>
<path d="M146.22 60.0523V54.8781C146.22 52.465 144.992 50.2171 142.96 48.9147V48.9147" stroke="black" stroke-linecap="round" stroke-linejoin="round"/>
<path d="M117.341 86.8793L120.841 84.8942C121.628 84.4473 122.114 83.612 122.114 82.707V75.5597" fill="white"/>
<path d="M117.341 86.8793L120.841 84.8942C121.628 84.4473 122.114 83.612 122.114 82.707V75.5597" stroke="black" stroke-linecap="round" stroke-linejoin="round"/>
<path d="M113.432 68.9026L120.095 72.6343C120.723 72.9864 121.489 72.9878 122.118 72.6385L128.719 68.978" fill="white"/>
<path d="M113.432 68.9026L120.095 72.6343C120.723 72.9864 121.489 72.9878 122.118 72.6385L128.719 68.978" stroke="black" stroke-linecap="round" stroke-linejoin="round"/>
<path d="M146.22 59.7242L153.689 55.4884L146.22 59.7242Z" fill="white"/>
<path d="M146.22 59.7242L153.689 55.4884" stroke="black" stroke-linecap="round" stroke-linejoin="round"/>
<path d="M310.163 97.3992L227.071 144.933C233.551 128.53 238.015 124.2 241.144 124.558C243.732 124.853 245.051 128.316 248.106 128.136C250.702 127.983 252.607 125.313 255.209 120.606C262.198 107.961 262.801 103.929 267.406 97.3992C271.757 91.2294 275.722 90.3592 276.883 92.4872C278.043 94.6144 276.786 103.077 277.946 105.737C279.107 108.397 281.186 110.557 283.749 106.479C286.311 102.4 289.357 100.452 290.083 103.385C290.808 106.317 292.499 105.626 294.966 102.756C297.432 99.8854 298.088 94.2755 302.218 96.9355C305.264 98.8975 305.538 98.6855 310.163 97.3992H310.163Z" fill="white"/>
<path d="M188.735 394.716C187.182 394.716 185.645 394.027 184.616 392.707C182.841 390.433 183.246 387.152 185.519 385.377L204.327 370.697V330.256L156.601 302.533C154.993 301.598 154.002 299.878 154.002 298.016V276.336C154.002 274.479 154.988 272.761 156.592 271.825L169.855 264.087C172.349 262.634 175.544 263.477 176.997 265.967C178.45 268.459 177.608 271.656 175.118 273.11L164.446 279.336V295.01L212.172 322.734C213.781 323.668 214.771 325.389 214.771 327.25V373.246C214.771 374.854 214.029 376.373 212.761 377.363L191.945 393.611C190.99 394.356 189.859 394.716 188.735 394.716V394.716Z" fill="url(#paint15_linear_8745_51366)"/>
<g style="mix-blend-mode:screen" opacity="0.35">
<path d="M109.243 366.399L219.828 16.1786L192.214 368.145L152.34 390.957L109.243 366.399Z" fill="url(#paint16_linear_8745_51366)"/>
</g>
<path d="M294.296 306.93C292.494 306.93 290.742 305.998 289.774 304.326C288.327 301.832 289.176 298.636 291.672 297.189L335.763 271.624L307.152 251.185C304.806 249.509 304.262 246.246 305.939 243.899C307.615 241.552 310.877 241.009 313.223 242.685L348.422 267.831C349.866 268.862 350.687 270.556 350.603 272.328C350.518 274.101 349.54 275.709 348.005 276.6L296.91 306.226C296.085 306.703 295.184 306.93 294.296 306.93L294.296 306.93Z" fill="url(#paint17_linear_8745_51366)"/>
<path d="M6.11041 244.276C3.22628 244.293 0.874871 241.968 0.858872 239.083L0.715231 214.034C0.704342 212.088 1.77657 210.297 3.4969 209.387L28.6184 196.106C31.1675 194.758 34.3277 195.733 35.6746 198.282C37.0226 200.833 36.048 203.992 33.4982 205.34L11.1771 217.142L11.3017 239.023C11.3187 241.908 8.99453 244.26 6.11041 244.276V244.276Z" fill="url(#paint18_linear_8745_51366)"/>
<ellipse cx="31.3252" cy="220.027" rx="1.66272" ry="2.64524" stroke="white" stroke-linecap="round"/>
<ellipse cx="66.3179" cy="199.768" rx="1.43599" ry="2.94755" stroke="white" stroke-linecap="round"/>
<path d="M32.9879 219.498L64.8819 200.6" stroke="white" stroke-linecap="round"/>
<ellipse cx="22.6627" cy="235.942" rx="1.66272" ry="2.64524" stroke="white" stroke-linecap="round"/>
<ellipse cx="57.6554" cy="215.683" rx="1.43599" ry="2.94755" stroke="white" stroke-linecap="round"/>
<path d="M24.3252 235.413L56.2192 216.515" stroke="white" stroke-linecap="round"/>
<path d="M47.0672 211.156V221.739" stroke="white" stroke-linecap="round"/>
<ellipse cx="297.111" cy="211.248" rx="1.66272" ry="2.64524" stroke="white"/>
<ellipse cx="332.104" cy="190.989" rx="1.43599" ry="2.94755" stroke="white"/>
<path d="M298.774 210.719L330.668 191.821" stroke="white"/>
<ellipse cx="288.449" cy="227.163" rx="1.66272" ry="2.64524" stroke="white"/>
<ellipse cx="323.442" cy="206.905" rx="1.43599" ry="2.94755" stroke="white"/>
<path d="M290.112 226.634L322.006 207.736" stroke="white"/>
<path d="M312.853 202.377V212.961" stroke="white"/>
<path d="M142.186 427.352L151.897 432.885L160.882 427.745L151.195 422.211L142.186 427.352Z" stroke="#E9024D" stroke-linecap="round" stroke-linejoin="round"/>
<path d="M160.882 427.745V438.419L151.897 443.559V432.885L160.882 427.745Z" stroke="#E9024D" stroke-linecap="round" stroke-linejoin="round"/>
<path d="M192.455 411.105L181.771 417.359V444.295L186.263 441.342V427.233L192.455 423.691L192.455 411.105Z" stroke="#E9024D" stroke-linecap="round" stroke-linejoin="round"/>
<path d="M177.279 414.622L172.786 411.884V423.92L177.279 426.873V441.342L181.771 444.295V417.359L177.279 414.622Z" stroke="#E9024D" stroke-linecap="round" stroke-linejoin="round"/>
<path d="M142.186 427.352L151.897 432.885V443.559L142.186 438.026V427.352Z" stroke="#E9024D" stroke-linecap="round" stroke-linejoin="round"/>
<path d="M181.771 417.36L192.455 411.106L183.292 405.969L172.786 411.885L181.771 417.36Z" stroke="#E9024D" stroke-linecap="round" stroke-linejoin="round"/>
<path d="M152.34 390.957V428.56L142.366 422.861C142.911 418.822 142.059 414.366 141.13 410.432C140.063 405.928 138.212 401.494 135.862 397.45L116.89 408.307L116.884 408.302L109.243 403.938V366.399L149.77 389.494L152.34 390.957Z" fill="url(#paint19_linear_8745_51366)"/>
<path d="M192.214 368.145V405.76L152.34 428.56V390.957L192.214 368.145Z" fill="url(#paint20_linear_8745_51366)"/>
<path d="M188.185 377.888V398.442L157.388 416.055V395.512L181.53 381.695L188.185 377.888Z" fill="url(#paint21_linear_8745_51366)"/>
<path d="M181.53 381.695V395.274L157.388 409.079V395.512L181.53 381.695Z" fill="url(#paint22_linear_8745_51366)"/>
<path d="M271.277 217.704V236.501L237.856 255.611V236.829L268.004 219.58L271.277 217.704Z" fill="#282526"/>
<path d="M268.004 219.579V233.733L237.856 250.975V236.829L268.004 219.579Z" fill="#E9024D"/>
<path d="M309.435 160L242.404 198.359V229.663L309.435 191.304V160Z" fill="#E9024D"/>
<path d="M305.373 167.004V188.949L246.466 222.659V200.715L305.373 167.004Z" fill="#282526"/>
<path d="M305.332 183.45L246.424 217.16" stroke="white"/>
<path d="M27.0483 313.506V348.483L72.6091 374.445V339.468L27.0483 313.506Z" fill="url(#paint23_linear_8745_51366)"/>
<path d="M27.0483 313.506L72.6091 339.468L114.762 315.352L69.3128 289.388L27.0483 313.506Z" fill="url(#paint24_linear_8745_51366)"/>
<path d="M72.2274 289.558L72.1852 289.521L72.1733 289.517C70.9673 288.609 69.3722 287.987 67.2635 287.881L67.2417 287.874L67.2376 287.881C67.016 287.87 66.7954 287.858 66.5626 287.86C56.0677 287.904 50.4285 303.976 51.2577 313.646L75.8798 327.401L95.8968 302.955C95.8968 302.955 72.4602 289.736 72.2274 289.558Z" fill="url(#paint25_linear_8745_51366)"/>
<path d="M135.862 397.45L116.889 408.308L116.884 408.302C115.201 403.004 113.802 396.336 115.607 390.928C116.878 387.127 120.568 385.143 124.427 386.077C128.656 387.098 132.195 391.688 134.458 395.159C134.945 395.907 135.415 396.673 135.862 397.45H135.862Z" fill="url(#paint26_linear_8745_51366)"/>
<path d="M109.243 366.399L152.34 390.957L192.214 368.146L149.222 343.585L109.243 366.399Z" fill="url(#paint27_linear_8745_51366)"/>
<path d="M170.995 340.798L168.522 338.079C168.384 337.896 168.239 337.718 168.085 337.545C167.907 337.347 167.72 337.162 167.526 336.984L167.502 336.957L167.498 336.959C162.59 332.457 152.792 334.19 145.084 341.088C137.669 347.724 134.792 356.811 138.08 362.279L138.083 362.294L138.103 362.318C138.37 362.756 138.671 363.172 139.017 363.56C139.27 363.843 139.543 364.102 139.828 364.345L141.927 366.812L142.808 366.023C148.088 367.825 155.746 365.63 162.018 360.016C168.29 354.404 171.319 347.034 170.113 341.586L170.995 340.798Z" fill="url(#paint28_linear_8745_51366)"/>
<path d="M170.356 348.695L161.773 334.838" stroke="#E9024D" stroke-linecap="round" stroke-linejoin="round"/>
<path d="M156.143 335.362L167.419 353.121L168.888 354.622" stroke="#E9024D" stroke-linecap="round" stroke-linejoin="round"/>
<path d="M151.326 337.375L163.84 358.691L165.862 357.797" stroke="#E9024D" stroke-linecap="round" stroke-linejoin="round"/>
<path d="M145.842 341.149L163.046 360.864L162.833 360.965" stroke="#E9024D" stroke-linecap="round" stroke-linejoin="round"/>
<path d="M156.423 363.772L140.95 346.04" stroke="#E9024D" stroke-linecap="round" stroke-linejoin="round"/>
<path d="M151.436 365.947L138.292 350.88" stroke="#E9024D" stroke-linecap="round" stroke-linejoin="round"/>
<path d="M147.012 367.847L136.838 356.184" stroke="#E9024D" stroke-linecap="round" stroke-linejoin="round"/>
<ellipse rx="19.5041" ry="12.6988" transform="matrix(0.74516 -0.666886 0.666766 0.745267 156.461 353.805)" fill="url(#paint29_linear_8745_51366)"/>
<path d="M168.644 342.902C172.564 347.283 170.287 355.716 163.559 361.738C156.83 367.76 148.198 369.089 144.278 364.708" stroke="black" stroke-linecap="round" stroke-linejoin="round"/>
<path d="M181.53 395.274L188.185 398.442V377.888L181.53 381.695V395.274Z" fill="url(#paint30_linear_8745_51366)"/>
<path d="M323.274 333.337V351.58L350.609 367.212V348.979L329.181 336.716L323.274 333.337Z" fill="url(#paint31_linear_8745_51366)"/>
<path d="M329.181 336.716V348.768L350.609 361.021V348.979L329.181 336.716Z" fill="url(#paint32_linear_8745_51366)"/>
<path d="M329.181 348.768L323.274 351.58V333.337L329.181 336.716V348.768Z" fill="url(#paint33_linear_8745_51366)"/>
<path d="M124.33 362.414L129.455 360.78" stroke="white" stroke-linecap="round"/>
<path d="M128.488 336.881L132.742 340.595" stroke="white" stroke-linecap="round"/>
<path d="M140.672 324.719L142.799 329.626" stroke="white" stroke-linecap="round"/>
<path d="M163.687 320.826L162.641 326.676" stroke="white" stroke-linecap="round"/>
<path d="M179.159 333.399L175.774 337.969" stroke="white" stroke-linecap="round"/>
<path d="M180.803 349.067L177.467 350.64" stroke="white" stroke-linecap="round"/>
<ellipse rx="2.22413" ry="3.88996" transform="matrix(0.972429 -0.2332 0.233129 0.972446 41.419 342.557)" stroke="white" stroke-linecap="round" stroke-linejoin="round"/>
<path d="M114.762 350.33V315.352L72.6092 339.468V374.445L114.762 350.33Z" fill="#282526"/>
<path d="M225.021 367.436L270.582 393.398L312.735 369.283L267.285 343.319L225.021 367.436Z" fill="url(#paint34_linear_8745_51366)"/>
<path d="M247.139 364.735C244.255 364.735 241.918 362.397 241.918 359.512V329.047C241.918 327.184 242.909 325.463 244.521 324.529L277.381 305.475C279.877 304.028 283.071 304.879 284.517 307.375C285.964 309.869 285.114 313.065 282.618 314.512L252.361 332.056V359.512C252.361 362.397 250.023 364.735 247.139 364.735L247.139 364.735Z" fill="url(#paint35_linear_8745_51366)"/>
<path d="M312.735 404.261V369.283L270.582 393.398V428.376L312.735 404.261Z" fill="#282526" stroke="#E9024D"/>
<g style="mix-blend-mode:screen" opacity="0.35">
<path d="M289.402 362.855V340.21L262.111 355.823V378.468L289.402 362.855Z" fill="url(#paint36_linear_8745_51366)"/>
</g>
<g style="mix-blend-mode:screen" opacity="0.35">
<path d="M298.315 368.038V345.393L271.024 361.005V383.651L298.315 368.038Z" fill="url(#paint37_linear_8745_51366)"/>
</g>
<g style="mix-blend-mode:screen" opacity="0.35">
<path d="M289.402 340.21L262.111 355.823L289.402 340.21Z" fill="url(#paint38_linear_8745_51366)"/>
</g>
<path d="M312.735 379.932L270.582 404.047L312.735 379.932Z" fill="#282526"/>
<path d="M312.735 379.932L270.582 404.047" stroke="#E9024D"/>
<path d="M282.549 421.536V404.047L277.876 406.781V424.202L282.549 421.536Z" fill="url(#paint39_linear_8745_51366)"/>
<path d="M293.773 415.116V397.628L289.1 400.362V417.783L293.773 415.116Z" fill="url(#paint40_linear_8745_51366)"/>
<path d="M304.997 408.697V391.208L300.324 393.942V411.364L304.997 408.697Z" fill="url(#paint41_linear_8745_51366)"/>
<path d="M225.021 367.436V402.414L270.582 428.376V393.398L225.021 367.436Z" fill="#282526" stroke="#E9024D"/>
<path d="M91.3968 344.279L80.0401 350.806V340.808L75.6899 343.361" stroke="white" stroke-linecap="round"/>
<path d="M91.5204 350.443L80.8675 356.566V364.977L75.6899 367.884" stroke="white" stroke-linecap="round"/>
<path d="M62.066 368.438V341.132L41.4187 329.319V338.67" stroke="white" stroke-linecap="round" stroke-linejoin="round"/>
<ellipse rx="1.59556" ry="0.761516" transform="matrix(0.250097 -0.968221 0.968201 0.250172 74.9275 343.724)" stroke="white" stroke-linecap="round"/>
<ellipse rx="1.59556" ry="0.761516" transform="matrix(0.250097 -0.968221 0.968201 0.250172 75.0851 367.884)" stroke="white" stroke-linecap="round"/>
<path d="M100.222 313.424C100.222 313.424 101.363 301.731 90.9942 301.775C80.4989 301.819 74.86 317.891 75.6896 327.561L100.222 313.424Z" fill="url(#paint42_linear_8745_51366)"/>
<path d="M83.1107 312.855C81.3407 315.628 80.2909 319.255 80.0588 322.423C79.989 323.335 79.989 324.205 80.0588 325.006L82.3564 323.694L92.3816 317.955L95.875 315.959L85.5479 310.052C84.6268 310.799 83.8112 311.759 83.1107 312.855L83.1107 312.855Z" fill="#282526"/>
<path d="M89.9103 308.404C88.2652 308.411 86.8066 309.031 85.5479 310.052L95.8749 315.959C95.8749 315.959 96.5887 308.375 89.9103 308.404V308.404Z" fill="url(#paint43_linear_8745_51366)"/>
<path d="M101.363 322.906V358.048L91.3957 363.816V328.674L82.3563 323.695L80.0587 322.424C80.2908 319.255 81.3406 315.628 83.1106 312.855L92.3815 317.955L101.363 322.906Z" fill="white"/>
<path d="M49.1444 309.176C48.6222 308.77 47.9755 308.479 47.1534 308.418C41.9482 308.036 40.1458 315.418 40.5056 319.618L65.1635 333.506L73.3693 322.82L49.1444 309.176Z" fill="url(#paint44_linear_8745_51366)"/>
<path d="M75.88 327.401C75.88 327.401 75.5613 322.578 71.8555 322.305C66.6499 321.923 64.8479 329.306 65.2084 333.506L75.88 327.401Z" fill="url(#paint45_linear_8745_51366)"/>
<ellipse cx="219.828" cy="10.9762" rx="10.9744" ry="10.9762" fill="url(#paint46_linear_8745_51366)"/>
<ellipse cx="219.828" cy="16.1785" rx="4.05077" ry="4.05143" stroke="white" stroke-linecap="round" stroke-linejoin="round"/>
<circle cx="219.828" cy="17.6267" r="2.37159" fill="#1D1E29"/>
<path d="M109.243 366.398L220.113 17.6267L192.214 368.145" stroke="#E9024D" stroke-linecap="round" stroke-linejoin="round"/>
<path d="M140.672 306.931L219.827 17.627" stroke="#E9024D"/>
<path d="M220.113 17.627L175.774 321.626" stroke="#E9024D" stroke-linecap="round" stroke-linejoin="round"/>
<path d="M370.743 96.9609L323.016 124.274V101.984L370.743 74.6714V96.9609Z" stroke="white" stroke-linecap="round" stroke-linejoin="round"/>
<path d="M416.966 143.067L395.308 155.52V133.23L416.966 120.778V143.067Z" stroke="white" stroke-linecap="round" stroke-linejoin="round"/>
<path d="M416.966 151.02L395.308 163.472" stroke="#E9024D"/>
<path d="M416.966 156.526L395.308 168.978" stroke="#E9024D"/>
<ellipse rx="32.2656" ry="20.0899" transform="matrix(0.432179 -0.901788 0.901733 0.432293 365.034 155.872)" stroke="#E9024D"/>
<ellipse rx="15.3373" ry="8.53556" transform="matrix(0.432179 -0.901788 0.901733 0.432293 366.039 156.111)" stroke="#E9024D"/>
<g style="mix-blend-mode:screen" opacity="0.35">
<path fill-rule="evenodd" clip-rule="evenodd" d="M378.979 126.776C368.974 121.979 354.619 131.118 346.918 147.187C339.217 163.257 341.085 180.172 351.089 184.969C361.095 189.765 375.449 180.626 383.149 164.556C390.851 148.487 388.984 131.572 378.979 126.776ZM373.736 159.8C370.076 167.439 363.662 171.979 359.411 169.941C355.16 167.904 354.682 160.059 358.343 152.42C362.004 144.782 368.417 140.241 372.668 142.279C376.919 144.317 377.398 152.162 373.736 159.8Z" fill="url(#paint47_linear_8745_51366)"/>
</g>
<path d="M374.812 125.59L370.743 141.8" stroke="#E9024D"/>
<path d="M375.982 147.384L387.138 138.149" stroke="#E9024D"/>
<path d="M343.683 155.872L356.572 157.246" stroke="#E9024D"/>
<path d="M345.642 180.118L357.281 168.011" stroke="#E9024D"/>
<path d="M353.244 106.975V125.59L365.034 118.26V132.553" stroke="white"/>
<path d="M327.615 103.559V115.165L366.04 92.6817" stroke="white" stroke-linecap="round" stroke-linejoin="round"/>
<path d="M328.012 107.254C328.637 106.711 329.76 106.944 330.117 107.692C330.476 108.445 330.158 109.526 330.822 110.029C331.221 110.332 331.803 110.245 332.238 109.998C333.707 109.164 333.835 106.971 334.341 105.535C335.213 103.056 336.489 99.8227 338.648 98.1814C338.869 98.0134 339.11 97.8565 339.383 97.8077C339.883 97.7185 340.393 98.0224 340.672 98.447C340.951 98.8716 341.038 99.3932 341.066 99.9007C341.094 100.408 341.069 100.919 341.153 101.421C341.381 102.788 342.859 102.37 343.548 101.594C344.054 101.024 344.343 100.296 344.789 99.6783C345.244 99.0501 345.9 98.5252 346.667 98.4157C347.123 98.3515 347.616 98.4623 347.994 98.7294C348.429 99.0376 348.562 99.5947 349.035 99.8638C349.644 100.211 350.413 99.7934 350.887 99.2768C351.437 98.6772 351.819 97.9883 352.659 97.7589C353.136 97.6278 353.644 97.6591 354.128 97.5567C354.985 97.3754 355.691 96.7981 356.409 96.2981C357.233 95.723 357.977 95.5012 358.959 95.4106C359.927 95.3213 360.973 95.2168 361.817 94.6917" stroke="white" stroke-linecap="round" stroke-linejoin="round"/>
<ellipse rx="2.22651" ry="1.66605" transform="matrix(0.768845 -0.639435 0.639312 0.768947 365.473 134.007)" stroke="white"/>
<ellipse cx="394.592" cy="163.378" rx="1.05162" ry="2.24828" stroke="#E9024D"/>
<ellipse cx="394.592" cy="169.217" rx="1.05162" ry="2.24828" stroke="#E9024D"/>
<ellipse cx="417.836" cy="150.974" rx="1.05162" ry="2.24828" stroke="#E9024D"/>
<ellipse cx="417.836" cy="156.813" rx="1.05162" ry="2.24828" stroke="#E9024D"/>
<path d="M399.173 149.209L402.461 135.379L406.137 143.116L410.39 128.802L411.647 134.702L413.968 125.59" stroke="white" stroke-linecap="round" stroke-linejoin="round"/>
<path d="M253.443 270.576V260.359L245.847 264.7V266.416L253.443 270.576Z" fill="url(#paint48_linear_8745_51366)"/>
<path d="M378.753 264.467C378.698 264.426 378.642 264.388 378.586 264.353L378.558 264.334V264.337C377.816 263.901 376.955 263.988 376.013 264.834C373.185 267.373 373.91 273.9 372.387 283.621C371.325 290.395 370.932 294.314 369.883 296.338L367.966 291.714L363.946 288.625C363.828 288.513 363.704 288.414 363.571 288.337L363.564 288.333V288.335C363.3 288.184 363.005 288.104 362.669 288.118C358.97 288.263 358.1 299.434 358.317 309.444C358.535 319.454 355.996 320.252 352.124 325.257C348.252 330.262 350.474 330.872 350.474 330.872L355.772 334.468L381.408 313.651L384.055 268.067L378.753 264.467Z" fill="url(#paint49_linear_8745_51366)"/>
<path d="M355.772 334.468C355.772 334.468 353.55 333.858 357.422 328.854C361.294 323.848 363.833 323.051 363.615 313.04C363.398 303.03 364.268 291.86 367.966 291.714C371.665 291.569 370.65 302.378 373.334 301.579C376.017 300.782 376.162 296.937 377.685 287.217C379.207 277.497 378.483 270.97 381.311 268.431C384.14 265.892 386.243 270.159 386.533 275.061C386.823 279.964 386.707 317.248 386.707 317.248L355.772 334.468Z" fill="white"/>
<path d="M259.422 196.848L262.42 195.04C262.787 194.819 263.134 194.784 263.462 194.936C263.792 195.086 263.958 195.409 263.961 195.904C263.962 196.089 263.905 196.281 263.789 196.48C263.673 196.68 263.545 196.822 263.403 196.907C263.207 197.025 263.072 197.057 262.998 197C262.924 196.944 262.854 196.799 262.786 196.565C262.718 196.332 262.568 196.285 262.34 196.423L259.491 198.14C259.354 198.223 259.286 198.315 259.286 198.414C259.283 198.48 259.311 198.535 259.371 198.582L263.688 202.159C263.897 202.333 264.001 202.59 264.003 202.93C264.006 203.317 263.883 203.732 263.636 204.176C263.389 204.62 263.112 204.934 262.806 205.118L259.703 206.99C259.291 207.237 258.933 207.276 258.627 207.106C258.321 206.937 258.167 206.64 258.164 206.218C258.161 205.733 258.361 205.37 258.763 205.127C258.918 205.034 259.051 205.017 259.161 205.077C259.272 205.137 259.327 205.253 259.328 205.422C259.329 205.562 259.372 205.652 259.457 205.694C259.542 205.736 259.649 205.718 259.776 205.641L262.641 203.915C262.764 203.84 262.826 203.747 262.825 203.637C262.828 203.584 262.799 203.533 262.739 203.486L258.43 199.905C258.226 199.733 258.124 199.474 258.121 199.129C258.119 198.727 258.245 198.301 258.499 197.85C258.754 197.399 259.061 197.065 259.422 196.848L259.422 196.848Z" fill="white"/>
<path d="M269.812 199.592L271.891 198.339C272.051 198.243 272.189 198.223 272.307 198.278C272.424 198.335 272.483 198.453 272.484 198.633C272.485 198.814 272.428 199.002 272.312 199.199C272.196 199.395 272.058 199.541 271.899 199.638L269.747 200.935C269.473 201.1 269.19 201.173 268.895 201.153C268.602 201.133 268.398 201.037 268.282 200.864L266.935 198.766C266.755 198.455 266.663 198.082 266.66 197.644C266.658 197.159 266.739 196.689 266.907 196.231L268.232 192.553C268.358 192.208 268.555 191.853 268.824 191.487C269.092 191.121 269.352 190.862 269.603 190.711L271.878 189.339C272.038 189.243 272.174 189.225 272.287 189.287C272.399 189.348 272.456 189.467 272.458 189.642C272.458 189.822 272.404 190.012 272.293 190.211C272.181 190.409 272.046 190.557 271.886 190.653L269.694 191.975C269.512 192.086 269.364 192.296 269.251 192.607L267.991 196.065C267.892 196.337 267.843 196.618 267.846 196.906C267.846 197.212 267.903 197.447 268.014 197.612L269.248 199.522C269.364 199.727 269.552 199.749 269.812 199.592L269.812 199.592Z" fill="white"/>
<path fill-rule="evenodd" clip-rule="evenodd" d="M275.169 196.759L277.432 186.476C277.523 186.098 277.716 185.82 278.012 185.642C278.298 185.469 278.479 185.497 278.554 185.726L280.904 193.364C280.923 193.42 280.932 193.478 280.933 193.54C280.933 193.721 280.879 193.907 280.771 194.1C280.662 194.292 280.537 194.431 280.395 194.516C280.094 194.698 279.901 194.656 279.816 194.392L279.351 192.903L276.715 194.491L276.226 196.682C276.212 196.772 276.156 196.885 276.055 197.02C275.955 197.155 275.844 197.26 275.726 197.331C275.556 197.433 275.414 197.453 275.304 197.391C275.193 197.329 275.137 197.204 275.135 197.019C275.135 196.942 275.146 196.855 275.169 196.759L275.169 196.759ZM278.021 188.654L277.057 192.966L279.004 191.792L278.021 188.654Z" fill="white"/>
<path d="M289.355 179.472L289.413 189.081L287.868 190.012L284.719 183.903L284.763 191.232C284.764 191.412 284.709 191.599 284.597 191.793C284.486 191.986 284.351 192.131 284.191 192.228C284.031 192.325 283.895 192.343 283.783 192.284C283.67 192.225 283.613 192.106 283.612 191.926L283.554 182.302L285.075 181.385L288.233 187.472L288.19 180.175C288.188 179.994 288.246 179.803 288.362 179.601C288.478 179.4 288.615 179.251 288.775 179.155C288.935 179.058 289.071 179.04 289.184 179.101C289.297 179.164 289.353 179.287 289.355 179.472Z" fill="white"/>
<path d="M164.446 279.336V276.337V279.336Z" fill="white"/>
<path d="M164.446 279.336V276.337" stroke="black" stroke-linecap="round" stroke-linejoin="round"/>
<path d="M164.446 295.01L161.78 293.552" stroke="#E9024D" stroke-linecap="round" stroke-linejoin="round"/>
<path d="M204.327 330.256V327.561" stroke="black" stroke-linecap="round" stroke-linejoin="round"/>
<path d="M204.327 370.697V375.373" stroke="black" stroke-linecap="round" stroke-linejoin="round"/>
<path d="M87.9514 320.955L96.613 325.408V336.88" stroke="#282526"/>
<path d="M93.6858 330.304V355.088" stroke="#282526"/>
<path d="M99.1874 345.807V359.307" stroke="#282526"/>
<path d="M82.5539 186.709V199.113L65.3839 188.111L45.2026 198.632C42.651 199.964 39.4929 198.974 38.1616 196.415C36.83 193.856 37.8198 190.704 40.3782 189.373L63.2368 177.45C64.8962 176.586 66.8898 176.676 68.4652 177.687L82.5539 186.709Z" fill="url(#paint50_linear_8745_51366)"/>
<path d="M65.3811 188.111V180.776" stroke="#E9024D"/>
<ellipse cx="42.5713" cy="194.014" rx="5.00425" ry="5.00506" fill="url(#paint51_linear_8745_51366)" stroke="#E9024D"/>
<ellipse cx="42.5715" cy="194.014" rx="3.70819" ry="3.70879" fill="url(#paint52_linear_8745_51366)"/>
<path d="M11.1759 217.172L11.1503 212.7" stroke="#E9024D"/>
<path d="M44.8059 294.135C43.9045 294.135 42.9913 293.901 42.159 293.41L3.28548 270.488C1.6928 269.549 0.715199 267.839 0.715199 265.989V258.058C0.715199 255.174 3.05333 252.836 5.93746 252.836C8.82159 252.836 11.159 255.174 11.159 258.058V263.006L47.4627 284.412C49.9472 285.877 50.774 289.079 49.3093 291.563C48.3347 293.216 46.594 294.135 44.8059 294.135L44.8059 294.135Z" fill="url(#paint53_linear_8745_51366)"/>
<path d="M11.1591 263.005L5.93731 266.133" stroke="#E9024D"/>
<ellipse cx="5.93703" cy="255.785" rx="4.7033" ry="3.119" fill="url(#paint54_linear_8745_51366)"/>
<ellipse cx="5.93702" cy="255.676" rx="3.26339" ry="2.16377" fill="url(#paint55_linear_8745_51366)"/>
<ellipse cx="294.244" cy="301.797" rx="4.22185" ry="4.22253" fill="url(#paint56_linear_8745_51366)"/>
<path d="M424.014 263.28L427.872 265.166L424.014 263.28Z" fill="white"/>
<path d="M424.014 263.28L427.872 265.166" stroke="black" stroke-linecap="round" stroke-linejoin="round"/>
<path d="M424.014 251.087V247.467V251.087Z" fill="white"/>
<path d="M424.014 251.087V247.467" stroke="black" stroke-linecap="round" stroke-linejoin="round"/>
<path d="M335.763 271.624L338.836 269.76L335.763 271.624Z" fill="white"/>
<path d="M335.763 271.624L338.836 269.76" stroke="black" stroke-linecap="round" stroke-linejoin="round"/>
<path d="M252.361 332.056L248.88 329.627L252.361 332.056Z" fill="white"/>
<path d="M252.361 332.056L248.88 329.627" stroke="black" stroke-linecap="round" stroke-linejoin="round"/>
<path d="M483.756 491.158L474.962 499.953L466.169 491.158L459.272 498.056L468.065 506.851L459.272 515.646L466.169 522.544L474.962 513.749L483.756 522.544L490.652 515.646L481.859 506.851L490.652 498.056L483.756 491.158Z" fill="url(#paint57_linear_8745_51366)"/>
<path d="M482.618 484.493L473.825 493.288L465.032 484.493L458.135 491.391L466.928 500.186L458.135 508.98L465.032 515.878L473.825 507.083L482.618 515.878L489.515 508.98L480.722 500.186L489.515 491.391L482.618 484.493Z" stroke="white"/>
<path fill-rule="evenodd" clip-rule="evenodd" d="M448.02 47.1742L426.216 34.2797L425.993 59.6446L448.02 47.1742ZM440.907 47.107L429.61 53.5037L429.729 40.4894L440.907 47.107Z" fill="#E9024D"/>
<path d="M331.171 538.189C331.171 541.398 328.57 543.999 325.362 543.999C322.153 543.999 319.551 541.398 319.551 538.189C319.551 534.979 322.153 532.378 325.362 532.378C328.57 532.378 331.171 534.979 331.171 538.189Z" fill="url(#paint58_linear_8745_51366)"/>
<path d="M327.333 534.35C327.333 537.559 324.731 540.161 321.522 540.161C318.314 540.161 315.713 537.559 315.713 534.35C315.713 531.141 318.314 528.539 321.522 528.539C324.731 528.539 327.333 531.141 327.333 534.35Z" stroke="white"/>
<path d="M525.458 293.682H515.553V283.776H510.134V293.682H500.23V299.102H510.134V309.008H515.553V299.102H525.458V293.682Z" fill="url(#paint59_linear_8745_51366)"/>
<path d="M416.933 203.956L439.627 218.318L462.322 203.956L485.016 218.318L507.713 203.956L530.41 218.318" stroke="#E9024D"/>
<path d="M417.238 189.596L439.931 203.957L462.627 189.596L485.321 203.957L508.018 189.596L530.715 203.957" stroke="#E9024D"/>
<defs>
<linearGradient id="paint0_linear_8745_51366" x1="483.007" y1="241.694" x2="389.199" y2="140.114" gradientUnits="userSpaceOnUse">
<stop stop-color="#E9024D"/>
<stop offset="1" stop-color="#101010"/>
</linearGradient>
<linearGradient id="paint1_linear_8745_51366" x1="313.565" y1="345.741" x2="401.279" y2="345.741" gradientUnits="userSpaceOnUse">
<stop stop-color="#E9024D"/>
<stop offset="0.0455207" stop-color="#EA044E"/>
<stop offset="1" stop-color="#FA246B"/>
</linearGradient>
<linearGradient id="paint2_linear_8745_51366" x1="388.74" y1="282.067" x2="310.538" y2="311.785" gradientUnits="userSpaceOnUse">
<stop stop-color="#E9024D"/>
<stop offset="1" stop-color="#101010"/>
</linearGradient>
<linearGradient id="paint3_linear_8745_51366" x1="309.007" y1="317.147" x2="318.479" y2="381.616" gradientUnits="userSpaceOnUse">
<stop stop-color="#E9024D"/>
<stop offset="1" stop-color="#101010"/>
</linearGradient>
<linearGradient id="paint4_linear_8745_51366" x1="321.149" y1="430.639" x2="486.417" y2="165.844" gradientUnits="userSpaceOnUse">
<stop stop-color="#E9024D"/>
<stop offset="1" stop-color="#101010"/>
</linearGradient>
<linearGradient id="paint5_linear_8745_51366" x1="24.4911" y1="251.586" x2="163.236" y2="369.359" gradientUnits="userSpaceOnUse">
<stop stop-color="#E9024D"/>
<stop offset="1" stop-color="#101010"/>
</linearGradient>
<linearGradient id="paint6_linear_8745_51366" x1="375.635" y1="280.959" x2="376.466" y2="24.7714" gradientUnits="userSpaceOnUse">
<stop stop-color="#E9024D"/>
<stop offset="1" stop-color="#101010"/>
</linearGradient>
<linearGradient id="paint7_linear_8745_51366" x1="258.16" y1="75.2114" x2="256.216" y2="11.5264" gradientUnits="userSpaceOnUse">
<stop stop-color="white"/>
<stop offset="0.165992" stop-color="#FEF8FB"/>
<stop offset="0.395308" stop-color="#FEE6F0"/>
<stop offset="0.661447" stop-color="#FDC9DE"/>
<stop offset="0.953336" stop-color="#FCA1C6"/>
<stop offset="1" stop-color="#FC9AC2"/>
</linearGradient>
<linearGradient id="paint8_linear_8745_51366" x1="86.3738" y1="-23.7053" x2="102.874" y2="107.683" gradientUnits="userSpaceOnUse">
<stop stop-color="white"/>
<stop offset="1" stop-color="#FC9AC2"/>
</linearGradient>
<linearGradient id="paint9_linear_8745_51366" x1="211.219" y1="39.549" x2="218.882" y2="24.4818" gradientUnits="userSpaceOnUse">
<stop stop-color="#E9024D"/>
<stop offset="0.227603" stop-color="#B8053F"/>
<stop offset="1" stop-color="#101010"/>
</linearGradient>
<linearGradient id="paint10_linear_8745_51366" x1="265.808" y1="53.423" x2="263.947" y2="5.95551" gradientUnits="userSpaceOnUse">
<stop stop-color="#E9024D"/>
<stop offset="0.136603" stop-color="#D10346"/>
<stop offset="0.42373" stop-color="#960735"/>
<stop offset="0.834249" stop-color="#380D1B"/>
<stop offset="1" stop-color="#101010"/>
</linearGradient>
<linearGradient id="paint11_linear_8745_51366" x1="249.388" y1="17.5552" x2="240.83" y2="2.56293" gradientUnits="userSpaceOnUse">
<stop stop-color="#E9024D"/>
<stop offset="1" stop-color="#101010"/>
</linearGradient>
<linearGradient id="paint12_linear_8745_51366" x1="147.037" y1="83.5468" x2="143.865" y2="75.2119" gradientUnits="userSpaceOnUse">
<stop stop-color="#E9024D"/>
<stop offset="1" stop-color="#101010"/>
</linearGradient>
<linearGradient id="paint13_linear_8745_51366" x1="149.152" y1="102.387" x2="147.742" y2="79.073" gradientUnits="userSpaceOnUse">
<stop stop-color="#E9024D"/>
<stop offset="1" stop-color="#101010"/>
</linearGradient>
<linearGradient id="paint14_linear_8745_51366" x1="140.714" y1="95.4306" x2="136.711" y2="82.3836" gradientUnits="userSpaceOnUse">
<stop stop-color="#E9024D"/>
<stop offset="1" stop-color="#101010"/>
</linearGradient>
<linearGradient id="paint15_linear_8745_51366" x1="147.152" y1="299.788" x2="175.69" y2="453.222" gradientUnits="userSpaceOnUse">
<stop stop-color="#E9024D"/>
<stop offset="1" stop-color="#101010"/>
</linearGradient>
<linearGradient id="paint16_linear_8745_51366" x1="109.243" y1="390.957" x2="219.828" y2="390.957" gradientUnits="userSpaceOnUse">
<stop stop-color="#E9024D"/>
<stop offset="1" stop-color="#FC9AC2"/>
</linearGradient>
<linearGradient id="paint17_linear_8745_51366" x1="363.601" y1="273.52" x2="304.832" y2="213.708" gradientUnits="userSpaceOnUse">
<stop stop-color="#E9024D"/>
<stop offset="1" stop-color="#101010"/>
</linearGradient>
<linearGradient id="paint18_linear_8745_51366" x1="29.7322" y1="279.644" x2="98.4428" y2="211.712" gradientUnits="userSpaceOnUse">
<stop stop-color="#E9024D"/>
<stop offset="1" stop-color="#101010"/>
</linearGradient>
<linearGradient id="paint19_linear_8745_51366" x1="158.227" y1="447.337" x2="173.25" y2="358.992" gradientUnits="userSpaceOnUse">
<stop stop-color="#E9024D"/>
<stop offset="1" stop-color="#101010"/>
</linearGradient>
<linearGradient id="paint20_linear_8745_51366" x1="200.36" y1="426.594" x2="177.844" y2="362.502" gradientUnits="userSpaceOnUse">
<stop stop-color="#E9024D"/>
<stop offset="1" stop-color="#101010"/>
</linearGradient>
<linearGradient id="paint21_linear_8745_51366" x1="189.703" y1="402.839" x2="173.558" y2="386.972" gradientUnits="userSpaceOnUse">
<stop stop-color="#E9024D"/>
<stop offset="1" stop-color="#101010"/>
</linearGradient>
<linearGradient id="paint22_linear_8745_51366" x1="181.536" y1="407.967" x2="178.199" y2="384.144" gradientUnits="userSpaceOnUse">
<stop stop-color="#E9024D"/>
<stop offset="1" stop-color="#101010"/>
</linearGradient>
<linearGradient id="paint23_linear_8745_51366" x1="27.0483" y1="374.445" x2="72.6091" y2="374.445" gradientUnits="userSpaceOnUse">
<stop stop-color="#E9024D"/>
<stop offset="1" stop-color="#101010"/>
</linearGradient>
<linearGradient id="paint24_linear_8745_51366" x1="59.478" y1="251.426" x2="14.3827" y2="347.177" gradientUnits="userSpaceOnUse">
<stop stop-color="#E9024D"/>
<stop offset="1" stop-color="#101010"/>
</linearGradient>
<linearGradient id="paint25_linear_8745_51366" x1="59.0777" y1="282.928" x2="44.6906" y2="320.82" gradientUnits="userSpaceOnUse">
<stop stop-color="#E9024D"/>
<stop offset="1" stop-color="#101010"/>
</linearGradient>
<linearGradient id="paint26_linear_8745_51366" x1="92.7461" y1="431.7" x2="154.81" y2="428.622" gradientUnits="userSpaceOnUse">
<stop stop-color="#E9024D"/>
<stop offset="0.0117183" stop-color="#E5024B"/>
<stop offset="0.217405" stop-color="#A50639"/>
<stop offset="0.413666" stop-color="#6F092A"/>
<stop offset="0.595298" stop-color="#460C1F"/>
<stop offset="0.759135" stop-color="#280E16"/>
<stop offset="0.899486" stop-color="#160F11"/>
<stop offset="1" stop-color="#101010"/>
</linearGradient>
<linearGradient id="paint27_linear_8745_51366" x1="87.5113" y1="355.345" x2="93.6737" y2="423.176" gradientUnits="userSpaceOnUse">
<stop stop-color="#E9024D"/>
<stop offset="1" stop-color="#101010"/>
</linearGradient>
<linearGradient id="paint28_linear_8745_51366" x1="137.207" y1="346.922" x2="149.326" y2="364.151" gradientUnits="userSpaceOnUse">
<stop stop-color="#E9024D"/>
<stop offset="1" stop-color="#101010"/>
</linearGradient>
<linearGradient id="paint29_linear_8745_51366" x1="51.3494" y1="34.9144" x2="48.5181" y2="-0.941382" gradientUnits="userSpaceOnUse">
<stop stop-color="#E9024D"/>
<stop offset="0.0455207" stop-color="#EA044E"/>
<stop offset="1" stop-color="#FA246B"/>
</linearGradient>
<linearGradient id="paint30_linear_8745_51366" x1="190.23" y1="390.773" x2="180.515" y2="386.613" gradientUnits="userSpaceOnUse">
<stop stop-color="#E9024D"/>
<stop offset="1" stop-color="#101010"/>
</linearGradient>
<linearGradient id="paint31_linear_8745_51366" x1="336.876" y1="365.236" x2="343.509" y2="354.539" gradientUnits="userSpaceOnUse">
<stop stop-color="#E9024D"/>
<stop offset="1" stop-color="#101010"/>
</linearGradient>
<linearGradient id="paint32_linear_8745_51366" x1="341.89" y1="328.505" x2="326.694" y2="344.126" gradientUnits="userSpaceOnUse">
<stop stop-color="#E9024D"/>
<stop offset="1" stop-color="#101010"/>
</linearGradient>
<linearGradient id="paint33_linear_8745_51366" x1="323.073" y1="340.422" x2="331.655" y2="349.42" gradientUnits="userSpaceOnUse">
<stop stop-color="#E9024D"/>
<stop offset="1" stop-color="#101010"/>
</linearGradient>
<linearGradient id="paint34_linear_8745_51366" x1="225.021" y1="393.398" x2="312.735" y2="393.398" gradientUnits="userSpaceOnUse">
<stop stop-color="#E9024D"/>
<stop offset="0.0455207" stop-color="#EA044E"/>
<stop offset="1" stop-color="#FA246B"/>
</linearGradient>
<linearGradient id="paint35_linear_8745_51366" x1="246.976" y1="283.755" x2="202.086" y2="335.573" gradientUnits="userSpaceOnUse">
<stop stop-color="#E9024D"/>
<stop offset="1" stop-color="#101010"/>
</linearGradient>
<linearGradient id="paint36_linear_8745_51366" x1="262.111" y1="378.468" x2="289.402" y2="378.468" gradientUnits="userSpaceOnUse">
<stop stop-color="#E9024D"/>
<stop offset="1" stop-color="#FC9AC2"/>
</linearGradient>
<linearGradient id="paint37_linear_8745_51366" x1="271.024" y1="383.651" x2="298.315" y2="383.651" gradientUnits="userSpaceOnUse">
<stop stop-color="#E9024D"/>
<stop offset="1" stop-color="#FC9AC2"/>
</linearGradient>
<linearGradient id="paint38_linear_8745_51366" x1="262.111" y1="355.823" x2="289.402" y2="355.823" gradientUnits="userSpaceOnUse">
<stop stop-color="#E9024D"/>
<stop offset="1" stop-color="#FC9AC2"/>
</linearGradient>
<linearGradient id="paint39_linear_8745_51366" x1="277.49" y1="408.975" x2="285.253" y2="413.029" gradientUnits="userSpaceOnUse">
<stop stop-color="#E9024D"/>
<stop offset="1" stop-color="#101010"/>
</linearGradient>
<linearGradient id="paint40_linear_8745_51366" x1="286.894" y1="400.751" x2="298.894" y2="406.16" gradientUnits="userSpaceOnUse">
<stop stop-color="#E9024D"/>
<stop offset="1" stop-color="#101010"/>
</linearGradient>
<linearGradient id="paint41_linear_8745_51366" x1="298.484" y1="394.011" x2="307.746" y2="397.621" gradientUnits="userSpaceOnUse">
<stop stop-color="#E9024D"/>
<stop offset="1" stop-color="#101010"/>
</linearGradient>
<linearGradient id="paint42_linear_8745_51366" x1="75.6092" y1="327.561" x2="100.259" y2="327.561" gradientUnits="userSpaceOnUse">
<stop stop-color="#E9024D"/>
<stop offset="1" stop-color="#101010"/>
</linearGradient>
<linearGradient id="paint43_linear_8745_51366" x1="97.6663" y1="318.672" x2="97.7592" y2="308.387" gradientUnits="userSpaceOnUse">
<stop stop-color="#E9024D"/>
<stop offset="1" stop-color="#101010"/>
</linearGradient>
<linearGradient id="paint44_linear_8745_51366" x1="49.9113" y1="312.413" x2="45.5771" y2="326.82" gradientUnits="userSpaceOnUse">
<stop stop-color="#E9024D"/>
<stop offset="1" stop-color="#101010"/>
</linearGradient>
<linearGradient id="paint45_linear_8745_51366" x1="73.6998" y1="353.454" x2="104.003" y2="325.2" gradientUnits="userSpaceOnUse">
<stop stop-color="#E9024D"/>
<stop offset="1" stop-color="#101010"/>
</linearGradient>
<linearGradient id="paint46_linear_8745_51366" x1="208.853" y1="21.9524" x2="230.802" y2="21.9524" gradientUnits="userSpaceOnUse">
<stop stop-color="#E9024D"/>
<stop offset="0.0455207" stop-color="#EA044E"/>
<stop offset="1" stop-color="#FA246B"/>
</linearGradient>
<linearGradient id="paint47_linear_8745_51366" x1="342.172" y1="186.245" x2="387.896" y2="186.245" gradientUnits="userSpaceOnUse">
<stop stop-color="#E9024D"/>
<stop offset="1" stop-color="#FC9AC2"/>
</linearGradient>
<linearGradient id="paint48_linear_8745_51366" x1="255.558" y1="272.097" x2="252.051" y2="261.791" gradientUnits="userSpaceOnUse">
<stop stop-color="#E9024D"/>
<stop offset="1" stop-color="#101010"/>
</linearGradient>
<linearGradient id="paint49_linear_8745_51366" x1="376.409" y1="253.219" x2="349.439" y2="267.901" gradientUnits="userSpaceOnUse">
<stop stop-color="#E9024D"/>
<stop offset="1" stop-color="#101010"/>
</linearGradient>
<linearGradient id="paint50_linear_8745_51366" x1="37.5693" y1="199.224" x2="82.5538" y2="199.224" gradientUnits="userSpaceOnUse">
<stop stop-color="#E9024D"/>
<stop offset="1" stop-color="#101010"/>
</linearGradient>
<linearGradient id="paint51_linear_8745_51366" x1="30.452" y1="188.929" x2="33.8806" y2="211.066" gradientUnits="userSpaceOnUse">
<stop stop-color="#E9024D"/>
<stop offset="1" stop-color="#101010"/>
</linearGradient>
<linearGradient id="paint52_linear_8745_51366" x1="34.3565" y1="211.435" x2="50.2175" y2="200.456" gradientUnits="userSpaceOnUse">
<stop stop-color="#E9024D"/>
<stop offset="1" stop-color="#101010"/>
</linearGradient>
<linearGradient id="paint53_linear_8745_51366" x1="51.8683" y1="262.657" x2="14.6784" y2="232.054" gradientUnits="userSpaceOnUse">
<stop stop-color="#E9024D"/>
<stop offset="1" stop-color="#101010"/>
</linearGradient>
<linearGradient id="paint54_linear_8745_51366" x1="20.914" y1="260.091" x2="17.1171" y2="244.25" gradientUnits="userSpaceOnUse">
<stop stop-color="#E9024D"/>
<stop offset="1" stop-color="#101010"/>
</linearGradient>
<linearGradient id="paint55_linear_8745_51366" x1="-4.70501" y1="246.835" x2="-3.73923" y2="258.697" gradientUnits="userSpaceOnUse">
<stop stop-color="#E9024D"/>
<stop offset="0.0743305" stop-color="#D90348"/>
<stop offset="1" stop-color="#101010"/>
</linearGradient>
<linearGradient id="paint56_linear_8745_51366" x1="292.21" y1="309.978" x2="300.112" y2="303.588" gradientUnits="userSpaceOnUse">
<stop stop-color="#E9024D"/>
<stop offset="1" stop-color="#101010"/>
</linearGradient>
<linearGradient id="paint57_linear_8745_51366" x1="459.272" y1="522.544" x2="490.652" y2="522.544" gradientUnits="userSpaceOnUse">
<stop stop-color="#E9024D"/>
<stop offset="0.0455207" stop-color="#EA044E"/>
<stop offset="1" stop-color="#FA246B"/>
</linearGradient>
<linearGradient id="paint58_linear_8745_51366" x1="319.551" y1="543.999" x2="331.171" y2="543.999" gradientUnits="userSpaceOnUse">
<stop stop-color="#E9024D"/>
<stop offset="0.0455207" stop-color="#EA044E"/>
<stop offset="1" stop-color="#FA246B"/>
</linearGradient>
<linearGradient id="paint59_linear_8745_51366" x1="500.23" y1="309.008" x2="525.458" y2="309.008" gradientUnits="userSpaceOnUse">
<stop stop-color="#E9024D"/>
<stop offset="0.0455207" stop-color="#EA044E"/>
<stop offset="1" stop-color="#FA246B"/>
</linearGradient>
</defs>
</svg>
