<svg xmlns="http://www.w3.org/2000/svg" width="22" height="20" viewBox="0 0 22 20" fill="none">
<path d="M20.7006 0.00440068C20.457 0.0150845 20.22 0.0828615 20.0062 0.168463C19.7946 0.253492 18.5765 0.773407 16.7777 1.54249C14.9789 2.31157 12.6406 3.31307 10.3226 4.30616C5.68676 6.29233 1.13122 8.24659 1.13122 8.24659L1.16442 8.23389C1.16442 8.23389 0.889472 8.3258 0.610711 8.52002C0.47133 8.61714 0.321379 8.74251 0.198602 8.9253C0.0758236 9.10808 -0.0139351 9.36713 0.0198906 9.64112C0.138702 10.6035 1.1361 10.8765 1.1361 10.8765L1.14001 10.8784L5.59118 12.4019C5.70467 12.7805 6.94124 16.9077 7.21325 17.7817C7.36348 18.265 7.50408 18.5437 7.65075 18.7339C7.72414 18.8291 7.80106 18.9027 7.8861 18.9565C7.91989 18.9779 7.95543 18.994 7.99059 19.0083C7.99134 19.0086 7.9918 19.008 7.99255 19.0083C7.99687 19.0102 8.00093 19.0104 8.00524 19.0122L7.99352 19.0093C8.00169 19.0126 8.00976 19.0181 8.01794 19.021C8.03381 19.0266 8.04353 19.0264 8.06384 19.0308C8.57361 19.2088 8.99548 18.8784 8.99548 18.8784L9.01305 18.8647L11.7474 16.3286L16.1849 19.7886L16.2406 19.814C17.0173 20.1588 17.7198 19.9664 18.1088 19.6499C18.4978 19.3334 18.6507 18.9253 18.6507 18.9253L18.6674 18.8823L21.9281 1.88721C22.0115 1.50699 22.0234 1.17834 21.9447 0.881354C21.866 0.58437 21.6748 0.326205 21.4349 0.183112C21.195 0.0400186 20.9441 -0.00628312 20.7006 0.00440068ZM20.7269 1.021C20.8258 1.01642 20.8991 1.02773 20.9222 1.04151C20.9453 1.05529 20.9557 1.05348 20.9779 1.13721C21.0001 1.22095 21.0121 1.39732 20.9515 1.67335L20.9496 1.67921L17.7074 18.5757C17.6997 18.5927 17.6322 18.749 17.4779 18.8745C17.3205 19.0026 17.1455 19.1025 16.681 18.9077L11.8285 15.1235L11.6918 15.0161L11.6888 15.019L10.2377 13.9302L18.3929 4.33546C18.4556 4.26192 18.4956 4.17181 18.5082 4.07601C18.5207 3.98021 18.5052 3.88284 18.4636 3.79565C18.422 3.70847 18.356 3.63521 18.2736 3.58474C18.1912 3.53426 18.096 3.50873 17.9994 3.51124C17.905 3.51369 17.8133 3.5428 17.7347 3.59522L5.93395 11.4624L1.47595 9.93604C1.47595 9.93604 1.03327 9.6897 1.01208 9.51807C1.0109 9.50856 1.00568 9.51717 1.02868 9.48291C1.05168 9.44867 1.10951 9.39085 1.182 9.34034C1.32699 9.23932 1.49255 9.17823 1.49255 9.17823L1.50915 9.17237L1.52575 9.16553C1.52575 9.16553 6.08153 7.21118 10.7172 5.2251C13.035 4.23207 15.3729 3.2313 17.1713 2.46241C18.9692 1.69372 20.2683 1.14042 20.3783 1.0962C20.5035 1.04605 20.628 1.02558 20.7269 1.021ZM15.3187 6.40772L9.13415 13.6841L9.13122 13.687C9.12156 13.6986 9.11244 13.7107 9.10388 13.7231C9.09406 13.7367 9.08494 13.7507 9.07653 13.7651C9.04178 13.8241 9.01952 13.8896 9.0111 13.9575C9.0111 13.9588 9.0111 13.9601 9.0111 13.9614L8.20544 17.5845C8.19204 17.5453 8.18266 17.531 8.16833 17.4849V17.4839C7.91243 16.6617 6.74576 12.7693 6.58434 12.231L15.3187 6.40772ZM9.83239 14.8765L10.9437 15.7105L9.31091 17.2241L9.83239 14.8765Z" fill="#F0014F"/>
</svg>
