<svg width="390" height="159" viewBox="0 0 390 159" fill="none" xmlns="http://www.w3.org/2000/svg">
<g opacity="0.56">
<mask id="mask0_10004_542" style="mask-type:alpha" maskUnits="userSpaceOnUse" x="89" y="38" width="45" height="45">
<rect x="111.035" y="38" width="31.1641" height="31.1641" transform="rotate(45 111.035 38)" fill="black"/>
</mask>
<g mask="url(#mask0_10004_542)">
<ellipse cx="111.035" cy="60.0309" rx="20.3283" ry="20.3185" stroke="#E9024D"/>
<ellipse cx="111.035" cy="60.0305" rx="16.1909" ry="16.1833" stroke="#E9024D"/>
<ellipse cx="111.034" cy="60.0308" rx="12.0538" ry="12.0482" stroke="#E9024D"/>
<ellipse cx="111.034" cy="60.0308" rx="3.77968" ry="3.7779" stroke="#E9024D"/>
</g>
<mask id="mask1_10004_542" style="mask-type:alpha" maskUnits="userSpaceOnUse" x="256" y="38" width="45" height="45">
<rect x="278.035" y="38" width="31.1641" height="31.1641" transform="rotate(45 278.035 38)" fill="black"/>
</mask>
<g mask="url(#mask1_10004_542)">
<ellipse cx="278.035" cy="60.0309" rx="20.3283" ry="20.3185" stroke="#E9024D"/>
<ellipse cx="278.035" cy="60.0305" rx="16.1909" ry="16.1833" stroke="#E9024D"/>
<ellipse cx="278.034" cy="60.0308" rx="12.0538" ry="12.0482" stroke="#E9024D"/>
<ellipse cx="278.034" cy="60.0308" rx="3.77968" ry="3.7779" stroke="#E9024D"/>
</g>
<path d="M-14 150.8L-3.24789 157.599L7.5047 150.8L18.257 157.599L29.0108 150.8L39.7645 157.599" stroke="#F0014F"/>
<path d="M-13.8555 144L-3.10336 150.8L7.64923 144L18.4016 150.8L29.1553 144L39.909 150.8" stroke="#F0014F"/>
<path d="M350 150.8L360.752 157.599L371.505 150.8L382.257 157.599L393.011 150.8L403.764 157.599" stroke="#F0014F"/>
<path d="M350.145 144L360.897 150.8L371.649 144L382.402 150.8L393.155 144L403.909 150.8" stroke="#F0014F"/>
<path d="M25.7587 5.46142L16.293 10.9228V7.45175L19.7464 5.46142L16.293 3.47107V0L25.7587 5.46142Z" fill="url(#paint0_linear_10004_542)"/>
<path d="M39.8291 5.46142L30.3633 10.9228V7.45175L33.8167 5.46142L30.3633 3.47107V0L39.8291 5.46142Z" fill="url(#paint1_linear_10004_542)"/>
<path d="M53.8955 5.46142L44.4297 10.9228V7.45175L47.8832 5.46142L44.4297 3.47107V0L53.8955 5.46142Z" fill="url(#paint2_linear_10004_542)"/>
<path d="M67.9658 5.46142L58.5 10.9228V7.45175L61.9535 5.46142L58.5 3.47107V0L67.9658 5.46142Z" fill="url(#paint3_linear_10004_542)"/>
<path d="M364.499 5.46142L373.965 10.9228V7.45175L370.511 5.46142L373.965 3.47107V0L364.499 5.46142Z" fill="url(#paint4_linear_10004_542)"/>
<path d="M350.429 5.46142L359.895 10.9228V7.45175L356.441 5.46142L359.895 3.47107V0L350.429 5.46142Z" fill="url(#paint5_linear_10004_542)"/>
<path d="M336.362 5.46142L345.828 10.9228V7.45175L342.375 5.46142L345.828 3.47107V0L336.362 5.46142Z" fill="url(#paint6_linear_10004_542)"/>
<path d="M322.292 5.46142L331.758 10.9228V7.45175L328.304 5.46142L331.758 3.47107V0L322.292 5.46142Z" fill="url(#paint7_linear_10004_542)"/>
</g>
<defs>
<linearGradient id="paint0_linear_10004_542" x1="-0.270609" y1="67.5174" x2="107.402" y2="67.848" gradientUnits="userSpaceOnUse">
<stop stop-color="#E9024D"/>
<stop offset="0.188351" stop-color="#AF053C"/>
<stop offset="0.395562" stop-color="#77092C"/>
<stop offset="0.58781" stop-color="#4A0C20"/>
<stop offset="0.75869" stop-color="#2A0E17"/>
<stop offset="0.90189" stop-color="#170F11"/>
<stop offset="1" stop-color="#101010"/>
</linearGradient>
<linearGradient id="paint1_linear_10004_542" x1="-0.268849" y1="67.4599" x2="107.404" y2="67.7905" gradientUnits="userSpaceOnUse">
<stop stop-color="#E9024D"/>
<stop offset="0.188351" stop-color="#AF053C"/>
<stop offset="0.395562" stop-color="#77092C"/>
<stop offset="0.58781" stop-color="#4A0C20"/>
<stop offset="0.75869" stop-color="#2A0E17"/>
<stop offset="0.90189" stop-color="#170F11"/>
<stop offset="1" stop-color="#101010"/>
</linearGradient>
<linearGradient id="paint2_linear_10004_542" x1="-0.270997" y1="67.4024" x2="107.401" y2="67.733" gradientUnits="userSpaceOnUse">
<stop stop-color="#E9024D"/>
<stop offset="0.188351" stop-color="#AF053C"/>
<stop offset="0.395562" stop-color="#77092C"/>
<stop offset="0.58781" stop-color="#4A0C20"/>
<stop offset="0.75869" stop-color="#2A0E17"/>
<stop offset="0.90189" stop-color="#170F11"/>
<stop offset="1" stop-color="#101010"/>
</linearGradient>
<linearGradient id="paint3_linear_10004_542" x1="-0.269247" y1="67.3449" x2="107.403" y2="67.6755" gradientUnits="userSpaceOnUse">
<stop stop-color="#E9024D"/>
<stop offset="0.188351" stop-color="#AF053C"/>
<stop offset="0.395562" stop-color="#77092C"/>
<stop offset="0.58781" stop-color="#4A0C20"/>
<stop offset="0.75869" stop-color="#2A0E17"/>
<stop offset="0.90189" stop-color="#170F11"/>
<stop offset="1" stop-color="#101010"/>
</linearGradient>
<linearGradient id="paint4_linear_10004_542" x1="390.528" y1="67.5174" x2="282.856" y2="67.848" gradientUnits="userSpaceOnUse">
<stop stop-color="#E9024D"/>
<stop offset="0.188351" stop-color="#AF053C"/>
<stop offset="0.395562" stop-color="#77092C"/>
<stop offset="0.58781" stop-color="#4A0C20"/>
<stop offset="0.75869" stop-color="#2A0E17"/>
<stop offset="0.90189" stop-color="#170F11"/>
<stop offset="1" stop-color="#101010"/>
</linearGradient>
<linearGradient id="paint5_linear_10004_542" x1="390.527" y1="67.4599" x2="282.854" y2="67.7905" gradientUnits="userSpaceOnUse">
<stop stop-color="#E9024D"/>
<stop offset="0.188351" stop-color="#AF053C"/>
<stop offset="0.395562" stop-color="#77092C"/>
<stop offset="0.58781" stop-color="#4A0C20"/>
<stop offset="0.75869" stop-color="#2A0E17"/>
<stop offset="0.90189" stop-color="#170F11"/>
<stop offset="1" stop-color="#101010"/>
</linearGradient>
<linearGradient id="paint6_linear_10004_542" x1="390.529" y1="67.4024" x2="282.856" y2="67.733" gradientUnits="userSpaceOnUse">
<stop stop-color="#E9024D"/>
<stop offset="0.188351" stop-color="#AF053C"/>
<stop offset="0.395562" stop-color="#77092C"/>
<stop offset="0.58781" stop-color="#4A0C20"/>
<stop offset="0.75869" stop-color="#2A0E17"/>
<stop offset="0.90189" stop-color="#170F11"/>
<stop offset="1" stop-color="#101010"/>
</linearGradient>
<linearGradient id="paint7_linear_10004_542" x1="390.527" y1="67.3449" x2="282.855" y2="67.6755" gradientUnits="userSpaceOnUse">
<stop stop-color="#E9024D"/>
<stop offset="0.188351" stop-color="#AF053C"/>
<stop offset="0.395562" stop-color="#77092C"/>
<stop offset="0.58781" stop-color="#4A0C20"/>
<stop offset="0.75869" stop-color="#2A0E17"/>
<stop offset="0.90189" stop-color="#170F11"/>
<stop offset="1" stop-color="#101010"/>
</linearGradient>
</defs>
</svg>
