<svg width="125" height="126" viewBox="0 0 125 126" fill="none" xmlns="http://www.w3.org/2000/svg">
<circle cx="62.5" cy="63.501" r="55.5" fill="#F5F5FD"/>
<path d="M51.5493 56.5113C52.499 58.1127 51.5307 60.2729 50.9161 61.8371C50.2271 63.6062 49.2029 65.1518 48.3836 66.865C47.8249 68.0568 47.6201 69.3603 48.4022 70.4962C49.296 71.7811 50.8603 72.2281 52.2942 72.6191C52.648 72.7122 52.7969 72.1722 52.4431 72.0791C50.7672 71.6322 48.4022 70.9059 48.4208 68.783C48.4208 67.1071 49.8547 65.4683 50.5623 64.0158C51.2327 62.6378 51.81 61.1853 52.2197 59.7142C52.5362 58.541 52.6666 57.3306 52.0148 56.2506C51.8472 55.9154 51.3631 56.1947 51.5493 56.5113Z" fill="#101010"/>
<path d="M53.8206 71.8364C53.3364 71.315 55.2731 71.1474 55.3476 71.1474C55.6083 71.1288 55.8876 71.1288 56.1483 71.1847C56.2228 71.2033 56.3159 71.2219 56.3904 71.2405C56.7256 71.2778 56.8745 71.4826 56.8187 71.8364C56.4649 71.9295 56.6138 72.4696 56.9677 72.3765C57.396 72.2647 57.6194 71.8364 57.4704 71.4081C57.247 70.7936 56.4276 70.6074 55.869 70.5701C55.1986 70.5329 54.0626 70.5515 53.5226 71.0171C53.1316 71.3523 53.1129 71.855 53.4481 72.2275C53.6716 72.4882 54.0627 72.0971 53.8206 71.8364Z" fill="#101010"/>
<path d="M56.8371 72.4512C59.5372 72.8795 61.4553 69.9187 59.7607 67.6841C59.5372 67.4047 59.0531 67.6841 59.2765 67.9634C60.6359 69.7511 59.2579 72.2836 56.986 71.9112C56.6322 71.8553 56.4833 72.3954 56.8371 72.4512Z" fill="#101010"/>
<path d="M58.2159 59.3041C58.0111 58.4475 58.2159 57.6095 58.7559 56.9019C58.9794 56.6225 58.4952 56.3432 58.2718 56.6225C57.6386 57.4419 57.4338 58.4475 57.6759 59.4531C57.7504 59.8069 58.2904 59.6579 58.2159 59.3041Z" fill="#101010"/>
<path d="M60.8785 58.6533C62.331 57.6849 63.9512 56.6049 65.7761 56.698C67.5824 56.7911 69.3887 57.9643 70.9902 58.7278C71.3068 58.8767 71.6047 58.3926 71.2695 58.2436C69.5563 57.4428 67.6941 56.2324 65.7761 56.1393C63.858 56.0462 62.1262 57.1449 60.5992 58.1691C60.2826 58.3739 60.562 58.8581 60.8785 58.6533Z" fill="#101010"/>
<path d="M64.1929 56.7716C63.5225 59.2297 67.7496 59.7325 68.4573 57.5538C68.569 57.2186 68.029 57.0696 67.9172 57.4048C67.4331 58.8945 64.2487 58.6897 64.7329 56.9206C64.826 56.5668 64.286 56.4178 64.1929 56.7716Z" fill="#101010"/>
<path d="M68.8115 59.0998C69.5006 58.8764 70.2082 58.7832 70.9344 58.8205C71.2882 58.8391 71.2882 58.2805 70.9344 58.2618C70.1523 58.2246 69.4074 58.3177 68.6626 58.5598C68.3274 58.6715 68.4764 59.2115 68.8115 59.0998Z" fill="#101010"/>
<path d="M62.5359 58.3361C61.94 58.2244 61.3627 58.2058 60.7482 58.2989C60.3944 58.3547 60.5434 58.8948 60.8972 58.8389C61.4 58.7644 61.8841 58.783 62.3869 58.8762C62.7407 58.932 62.8897 58.4106 62.5359 58.3361Z" fill="#101010"/>
<path d="M44.9575 59.1921C45.8513 58.1865 46.9128 57.2554 48.2349 56.9389C49.5757 56.6037 51.084 57.032 51.8289 58.2424C52.0151 58.5403 52.4993 58.261 52.3131 57.9631C51.5496 56.7154 50.1157 56.1381 48.6818 56.3057C47.0059 56.492 45.6465 57.6093 44.5664 58.8197C44.3243 59.0618 44.7154 59.4528 44.9575 59.1921Z" fill="#101010"/>
<path d="M47.5639 57.0505C47.7688 59.3782 50.8041 59.8252 51.7166 57.6837C51.847 57.3485 51.3069 57.1995 51.1766 57.5347C50.5248 59.0989 48.2716 58.7265 48.1226 57.0505C48.104 56.6967 47.5453 56.6967 47.5639 57.0505Z" fill="#101010"/>
<path d="M47.1171 58.5029C46.5398 58.2236 45.7205 58.1677 45.1059 58.4098C44.7707 58.5401 44.9197 59.0802 45.2549 58.9498C45.7205 58.7636 46.3722 58.7636 46.8378 58.987C47.1543 59.136 47.4337 58.6519 47.1171 58.5029Z" fill="#101010"/>
<path d="M58.8872 55.5428C60.7493 53.6806 63.4867 53.7178 65.9448 53.7364C68.5519 53.7551 70.9541 54.1648 73.1701 55.58C73.7846 55.9711 74.3433 55.0027 73.7287 54.6117C71.2334 53.0102 68.5146 52.6191 65.591 52.6191C62.9281 52.6191 60.0789 52.7681 58.0864 54.7606C57.5836 55.2634 58.3844 56.0456 58.8872 55.5428Z" fill="#101010"/>
<path d="M51.1781 54.9089C49.7629 54.3689 48.3104 53.8661 46.7834 54.0896C46.1316 54.1827 45.5357 54.4247 44.9957 54.7972C44.4184 55.2069 43.8597 55.8028 43.1149 55.84C42.4072 55.8773 42.3886 56.9946 43.1149 56.9573C44.3812 56.9015 45.0329 55.9331 46.113 55.4489C47.6586 54.7413 49.409 55.4303 50.8802 55.989C51.5506 56.2311 51.8485 55.151 51.1781 54.9089Z" fill="#101010"/>
<path d="M66.1298 58.4852C65.8691 58.3362 65.7573 57.9638 65.9063 57.7031C66.0553 57.4424 66.4463 57.3493 66.6884 57.5169C66.7443 57.3493 66.5767 57.1444 66.4091 57.1817C66.5953 56.9954 66.856 56.8837 67.1167 56.9023C67.1167 56.8278 67.1167 56.7534 67.1167 56.6789C66.5767 56.3809 66.5395 56.4927 65.9249 56.3809C65.7573 56.3437 65.1056 56.3623 64.938 56.4368C64.7704 56.5113 64.5842 56.3437 64.64 56.5113C64.8262 56.5299 65.0311 56.5671 65.1614 56.6975C65.2918 56.8279 65.2918 57.1072 65.1242 57.163C64.9938 57.2189 64.8262 57.1258 64.6959 57.163C64.5655 57.2003 64.491 57.3679 64.5097 57.5169C64.5283 57.6658 64.6214 57.7962 64.6959 57.9079C64.9007 58.1686 65.1242 58.4107 65.4035 58.5969C65.8318 58.8763 66.2229 58.8949 66.5953 58.5411C66.465 58.5038 66.2229 58.5411 66.1298 58.4852Z" fill="#101010"/>
<path d="M48.9611 57.9452C49.1287 57.7962 49.1659 57.4983 48.9797 57.3865C48.9797 57.3121 49.1101 57.2934 49.1846 57.3307C49.259 57.3679 49.2963 57.461 49.3522 57.4983C49.4639 57.5728 49.6129 57.5541 49.6874 57.4424C49.7618 57.3307 49.7246 57.1817 49.6315 57.1072C49.5198 57.0327 49.3708 57.07 49.2404 57.07C49.1101 57.07 48.9425 57.0327 48.9239 56.8838C48.9052 56.7906 48.9797 56.6975 49.0728 56.6603C49.1659 56.623 49.2591 56.623 49.3522 56.623C50.1715 56.6789 50.9723 57.0141 51.5868 57.5728C51.2702 57.9266 50.9536 58.2804 50.6371 58.6342C50.4881 58.3735 50.246 58.15 49.9481 58.1314C49.6501 58.1128 49.3335 58.3735 49.3894 58.6528C49.2591 58.597 48.57 58.3735 48.5328 58.2618C48.4583 58.0756 48.8494 58.0383 48.9611 57.9452Z" fill="#101010"/>
<path d="M50.5632 75.8037C49.7997 75.7106 49.0548 75.9713 48.4961 76.5113C48.2354 76.772 48.6265 77.1631 48.8872 76.9024C49.3341 76.4555 49.93 76.2879 50.5445 76.3624C50.917 76.3996 50.917 75.8409 50.5632 75.8037Z" fill="#101010"/>
<path d="M63.8026 71.3717C64.3799 72.4518 65.702 72.6752 66.5586 73.4574C67.8436 74.6305 69.3892 76.8651 67.9181 78.5039C67.676 78.7646 68.067 79.1743 68.3091 78.8949C69.4637 77.6286 69.1285 75.8596 68.216 74.556C67.7691 73.9043 67.2104 73.2153 66.5586 72.7497C65.8138 72.2097 64.7523 71.9676 64.2868 71.0924C64.1006 70.7758 63.6164 71.0551 63.8026 71.3717Z" fill="#101010"/>
<path d="M46.4837 71.4833C45.2733 73.9787 44.007 77.014 45.7947 79.5652C45.9995 79.8631 46.4837 79.5838 46.2789 79.2859C44.6029 76.9023 45.8319 74.0904 46.9679 71.7627C47.1168 71.4275 46.6327 71.1482 46.4837 71.4833Z" fill="#101010"/>
<path d="M57.2477 84.4251C56.5029 84.6486 55.758 84.8721 55.0131 85.0955C54.7524 85.17 54.7338 85.5611 55.0131 85.6356C55.4787 85.7473 56.0932 85.8031 56.5215 85.9894C56.6891 86.0638 56.7077 85.9894 56.596 86.157C56.5401 86.2501 56.4098 86.3246 56.3353 86.3804C56.1304 86.5294 55.8883 86.6225 55.6463 86.697C55.3111 86.8087 55.4414 87.3488 55.7952 87.237C56.3166 87.0881 57.3408 86.6039 57.285 85.9335C57.2664 85.6355 57.0057 85.5424 56.745 85.468C56.2235 85.319 55.6835 85.2072 55.1435 85.0955C55.1435 85.2817 55.1435 85.4493 55.1435 85.6356C55.8883 85.4121 56.6332 85.1886 57.3781 84.9652C57.7505 84.8534 57.6016 84.332 57.2477 84.4251Z" fill="#101010"/>
<path d="M56.6887 87.46C56.3907 87.5531 56.0928 87.6462 55.7949 87.7393C55.4597 87.851 55.59 88.391 55.9438 88.2793C56.2418 88.1862 56.5397 88.0931 56.8377 88C57.1729 87.9069 57.0239 87.3669 56.6887 87.46Z" fill="#101010"/>
<path d="M52.7418 85.2819C52.928 85.3936 53.7101 85.7847 53.6915 85.9523C53.6729 86.1571 53.0211 86.5854 52.8721 86.7158C52.6673 86.8834 52.8535 87.1813 53.077 87.1999C53.3749 87.2186 53.5798 87.6655 53.8032 87.7958C54.0081 87.9262 54.2129 87.9448 54.455 87.889C54.8088 87.7958 54.6598 87.2558 54.306 87.3489C54.0267 87.4234 53.7846 86.9579 53.5984 86.8275C53.4308 86.6972 53.2818 86.6599 53.077 86.6413C53.1515 86.8089 53.2073 86.9579 53.2818 87.1255C53.617 86.8461 54.4178 86.3806 54.3433 85.8592C54.2688 85.3564 53.3936 85.0398 53.0211 84.7977C52.7046 84.6115 52.4252 85.0957 52.7418 85.2819Z" fill="#101010"/>
<path d="M55.143 73.7731C55.8134 74.2014 56.5396 74.4621 57.3031 74.5739C57.657 74.6297 57.8059 74.0897 57.4521 74.0338C56.7072 73.9221 56.0369 73.68 55.4223 73.289C55.1244 73.1027 54.8451 73.5869 55.143 73.7731Z" fill="#101010"/>
<path d="M57.5259 74.5001C57.861 74.6491 58.5687 75.1705 58.9411 74.8912C59.0156 74.8353 59.0342 74.7794 59.0901 74.7049C59.0901 74.6863 59.0901 74.6491 59.1087 74.6304C59.0901 74.4815 59.146 74.4815 59.2577 74.6491C59.6487 74.7049 60.0584 74.8167 60.4495 74.9098C60.8033 74.9843 60.9523 74.4442 60.5984 74.3697C60.2074 74.2766 59.8163 74.1835 59.4067 74.109C59.2204 74.0718 58.9784 73.9973 58.7921 74.0904C58.6245 74.1649 58.6432 74.3139 58.5501 74.4256C58.5501 74.4629 58.5501 74.5001 58.5501 74.5373C58.5873 74.3697 58.5128 74.2766 58.3452 74.258C58.1962 74.1463 57.9728 74.0904 57.8238 74.0159C57.4886 73.8856 57.1907 74.3511 57.5259 74.5001Z" fill="#101010"/>
<path d="M61.9226 75.338C62.2764 75.338 62.2764 74.7793 61.9226 74.7793C61.5688 74.7793 61.5688 75.338 61.9226 75.338Z" fill="#101010"/>
<path d="M62.1081 75.4869C62.9275 75.4124 63.691 75.6731 64.2869 76.2317C64.5476 76.4738 64.9386 76.0827 64.6779 75.8407C63.9889 75.1889 63.0765 74.8537 62.1081 74.9282C61.7543 74.9654 61.7543 75.5241 62.1081 75.4869Z" fill="#101010"/>
<path d="M66.1484 74.9095C64.0814 74.4625 62.1075 73.7735 60.2081 72.8797C59.8915 72.7307 59.5936 73.2149 59.9288 73.3639C61.884 74.2949 63.8952 75.0026 66.0181 75.4495C66.3533 75.524 66.5023 74.9839 66.1484 74.9095Z" fill="#101010"/>
<path d="M51.1211 73.234C51.3073 73.5506 50.3576 73.4575 50.2459 73.4575C49.9666 73.4575 49.7059 73.532 49.501 73.7368C49.2403 73.9789 49.6314 74.3699 49.8921 74.1279C50.0783 73.9603 50.3762 74.0161 50.5997 74.0347C50.8418 74.0534 51.0839 74.0348 51.3073 73.923C51.6611 73.7182 51.8101 73.3085 51.6053 72.9547C51.4377 72.6381 50.9535 72.9174 51.1211 73.234Z" fill="#101010"/>
<path d="M48.9606 74.2386C48.1971 74.5738 47.564 75.1511 47.1171 75.8587C46.9309 76.1566 47.415 76.4546 47.6012 76.138C47.9923 75.5049 48.551 75.0207 49.24 74.7227C49.5752 74.5738 49.2958 74.1082 48.9606 74.2386Z" fill="#101010"/>
<path d="M65.1435 93.1397C67.8623 91.8175 70.6556 90.6816 73.542 89.7505C73.8772 89.6387 73.7282 89.0987 73.393 89.2104C70.4694 90.1602 67.6202 91.2961 64.8642 92.6555C64.529 92.8231 64.8083 93.2886 65.1435 93.1397Z" fill="#101010"/>
<path d="M76.353 87.2737C77.0606 86.8268 77.6193 86.2123 77.9917 85.4674C78.1593 85.1508 77.6751 84.8715 77.5075 85.1881C77.1724 85.8398 76.6882 86.3985 76.0737 86.7896C75.7757 86.9944 76.055 87.4786 76.353 87.2737Z" fill="#101010"/>
<path d="M77.6026 84.7044C78.2171 84.4623 78.8502 84.2202 79.4647 83.9781C79.7999 83.8478 79.651 83.3078 79.3158 83.4381C78.7012 83.6802 78.0681 83.9223 77.4536 84.1644C77.1184 84.2947 77.2674 84.8348 77.6026 84.7044Z" fill="#101010"/>
<path d="M79.7609 80.9802C79.7237 81.3154 79.705 81.6692 79.6678 82.0044C79.6306 82.3582 80.1892 82.3582 80.2265 82.0044C80.2637 81.6692 80.2823 81.3154 80.3196 80.9802C80.3568 80.6264 79.7981 80.6264 79.7609 80.9802Z" fill="#101010"/>
<path d="M80.5811 78.1866C80.5811 78.4659 80.5811 78.7452 80.5811 79.0245C80.5811 79.3783 81.1397 79.3783 81.1397 79.0245C81.1397 78.7452 81.1397 78.4659 81.1397 78.1866C81.1397 77.8141 80.5811 77.8141 80.5811 78.1866Z" fill="#101010"/>
<path d="M83.5975 73.8293C81.1394 82.6932 80.3014 91.9297 81.158 101.092C81.1952 101.445 81.7539 101.445 81.7167 101.092C80.8787 91.9855 81.698 82.7863 84.1375 73.9782C84.2306 73.6244 83.6906 73.4754 83.5975 73.8293Z" fill="#101010"/>
<path d="M81.0641 90.9987C81.9393 92.6188 83.3173 93.9037 84.6581 95.1141C84.9188 95.3562 85.3285 94.9651 85.0492 94.723C83.7456 93.5312 82.4049 92.2836 81.5296 90.7193C81.3807 90.4028 80.8965 90.6821 81.0641 90.9987Z" fill="#101010"/>
<path d="M46.8759 86.2498C46.969 86.3988 47.0621 86.5664 47.1552 86.7153C47.2297 86.8457 47.3973 86.9016 47.5462 86.8085C47.6766 86.734 47.7325 86.5477 47.6393 86.4174C47.5462 86.2684 47.4531 86.1008 47.36 85.9518C47.2855 85.8215 47.1179 85.7656 46.969 85.8587C46.8386 85.9518 46.8014 86.1194 46.8759 86.2498Z" fill="#101010"/>
<path d="M47.8629 87.107C47.4346 88.0381 47.6208 89.0996 48.347 89.8258C48.6078 90.0865 48.9988 89.6768 48.7381 89.4348C48.1981 88.8947 48.0305 88.094 48.347 87.3864C48.496 87.0698 48.0119 86.7905 47.8629 87.107Z" fill="#101010"/>
<path d="M48.16 88.2423C48.3089 88.5775 48.4579 88.9313 48.6069 89.2665C48.7559 89.6017 49.24 89.3037 49.0911 88.9871C48.9421 88.6519 48.7931 88.2981 48.6441 87.9629C48.4952 87.6277 48.011 87.9257 48.16 88.2423Z" fill="#101010"/>
<path d="M59.5016 95.3747C60.2278 95.7472 61.1217 95.6354 61.6989 95.0395C61.9596 94.7788 61.55 94.3878 61.3079 94.6485C60.8982 95.0582 60.3023 95.1513 59.7809 94.8906C59.4643 94.723 59.185 95.2071 59.5016 95.3747Z" fill="#101010"/>
<path d="M63.0014 93.6426C63.4856 93.3261 63.9511 92.9909 64.4353 92.6743C64.7333 92.4695 64.4539 91.9853 64.156 92.1901C63.6718 92.5067 63.2063 92.8419 62.7221 93.1585C62.4242 93.3633 62.7035 93.8475 63.0014 93.6426Z" fill="#101010"/>
<path d="M72.0524 76.1192C72.4993 76.7338 72.6297 77.5159 72.3317 78.2235C72.1828 78.5587 72.6669 78.838 72.8159 78.5028C73.207 77.609 73.1325 76.622 72.5366 75.8213C72.3318 75.542 71.8476 75.8213 72.0524 76.1192Z" fill="#101010"/>
<path d="M81.4751 63.6621C81.5123 64.8167 81.5496 65.9526 81.5682 67.1072C81.5868 67.461 82.1454 67.461 82.1268 67.1072C82.0896 65.9526 82.0523 64.8167 82.0337 63.6621C82.0151 63.2897 81.4564 63.2897 81.4751 63.6621Z" fill="#101010"/>
<path d="M80.3947 69.4347C80.3761 69.3043 80.3575 69.1739 80.3575 69.0436C80.3388 68.8015 80.0781 68.6898 79.8733 68.8388C79.4822 69.1553 79.2588 69.6767 79.296 70.1795C79.3146 70.5333 79.8733 70.5333 79.8547 70.1795C79.836 69.8071 79.985 69.4719 80.2644 69.2298C80.0968 69.1553 79.9478 69.0995 79.7802 69.025C79.7988 69.1553 79.8174 69.2857 79.8174 69.416C79.8733 69.7885 80.432 69.7885 80.3947 69.4347Z" fill="#101010"/>
<path d="M79.929 72.2094C79.6496 72.6191 79.2213 72.917 78.7558 73.066C78.4206 73.1778 78.551 73.7178 78.9048 73.606C79.5379 73.4198 80.0407 73.0288 80.4131 72.4887C80.618 72.1908 80.1338 71.9115 79.929 72.2094Z" fill="#101010"/>
<path d="M79.3892 75.04C79.2961 75.3193 79.203 75.5986 79.1099 75.878C78.9981 76.2131 79.5382 76.3621 79.6499 76.0269C79.743 75.7476 79.8361 75.4683 79.9292 75.1889C80.041 74.8351 79.5009 74.7048 79.3892 75.04Z" fill="#101010"/>
<path d="M77.1726 73.4571C76.8374 73.8295 76.4836 74.2019 76.1484 74.5744C75.9064 74.8351 76.2974 75.2261 76.5395 74.9654C76.8747 74.593 77.2285 74.2206 77.5637 73.8481C77.8058 73.5874 77.4147 73.1964 77.1726 73.4571Z" fill="#101010"/>
<path d="M75.8876 76.5671C75.4779 76.8464 75.0869 77.1257 74.6772 77.4051C74.3792 77.6099 74.6586 78.0941 74.9565 77.8892C75.3662 77.6099 75.7572 77.3306 76.1669 77.0512C76.4649 76.8464 76.1856 76.3622 75.8876 76.5671Z" fill="#101010"/>
<path d="M70.6925 79.2669C70.3573 80.0677 70.0035 80.8684 69.6683 81.6691C69.7986 81.6319 69.929 81.5946 70.0594 81.576C69.8173 81.427 70.078 80.7753 70.0035 80.5146C69.929 80.2353 69.7055 80.049 69.4262 79.9932C68.7 79.8628 68.3275 80.5332 68.1227 81.1105C67.9923 81.4457 68.5324 81.5947 68.6627 81.2595C68.7558 80.9988 68.9048 80.5518 69.24 80.5518C69.6124 80.5518 69.4262 81.0174 69.4076 81.2408C69.389 81.5946 69.4821 81.874 69.78 82.0602C69.8918 82.1347 70.0966 82.0974 70.1711 81.9671C70.5063 81.1663 70.8601 80.3656 71.1953 79.5649C71.307 79.2111 70.8415 78.9317 70.6925 79.2669Z" fill="#101010"/>
<path d="M67.7136 86.1574C67.7695 86.0085 67.844 85.8595 67.8998 85.7291C68.0302 85.4126 67.6019 85.1332 67.4157 85.4498C66.9687 86.1947 66.7639 87.0327 66.857 87.8893C66.8942 88.2431 67.4529 88.2431 67.4157 87.8893C67.3225 87.1258 67.4901 86.3995 67.8998 85.7291C67.7322 85.636 67.5833 85.5429 67.4157 85.4498C67.3598 85.5988 67.2853 85.7478 67.2294 85.8781C67.0991 86.1947 67.5832 86.474 67.7136 86.1574Z" fill="#101010"/>
<path d="M67.9556 87.442C67.8066 87.7772 67.639 88.131 67.49 88.4662C67.3411 88.7828 67.8252 89.0807 67.9742 88.7455C68.1232 88.4103 68.2908 88.0565 68.4398 87.7213C68.5887 87.4047 68.1046 87.1254 67.9556 87.442Z" fill="#101010"/>
<path d="M46.7821 81.9109C46.8565 82.7116 46.9124 83.531 46.9869 84.3317C47.0241 84.6855 47.5828 84.6855 47.5455 84.3317C47.4711 83.531 47.4152 82.7116 47.3407 81.9109C47.3035 81.5571 46.7448 81.5571 46.7821 81.9109Z" fill="#101010"/>
<path d="M47.4716 84.257C47.3972 84.7784 47.3227 85.3184 47.2482 85.8399C47.1923 86.1937 47.7323 86.3426 47.7882 85.9888C47.8627 85.4674 47.9372 84.9274 48.0117 84.406C48.0675 84.0522 47.5275 83.9032 47.4716 84.257Z" fill="#101010"/>
<path d="M47.993 86.1016C47.9557 86.6044 47.9371 87.0885 47.8999 87.5913C47.8812 87.9452 48.4399 87.9452 48.4585 87.5913C48.4958 87.0885 48.5144 86.6044 48.5516 86.1016C48.5703 85.7292 48.0116 85.7292 47.993 86.1016Z" fill="#101010"/>
<path d="M62.0515 90.3848C62.4053 90.3848 62.4053 89.8262 62.0515 89.8262C61.6977 89.8262 61.6977 90.3848 62.0515 90.3848Z" fill="#101010"/>
<path d="M61.7354 90.1044C61.6423 91.0169 60.9905 91.7804 60.1339 92.0225C59.7801 92.1156 59.9291 92.6556 60.2829 92.5625C61.4002 92.2459 62.201 91.259 62.2941 90.1044C62.3313 89.732 61.7727 89.7506 61.7354 90.1044Z" fill="#101010"/>
<path d="M59.0352 92.7496C58.6255 92.5075 58.1786 92.4702 57.7316 92.6192C57.8061 92.7868 57.8806 92.9544 57.9551 93.122C58.5696 92.7123 59.1655 92.3026 59.78 91.9116C60.078 91.7067 59.7986 91.2226 59.5007 91.4274C58.8862 91.8371 58.2903 92.2468 57.6758 92.6378C57.4337 92.8054 57.5826 93.2524 57.8992 93.1406C58.2158 93.0289 58.4765 93.0475 58.7744 93.2151C59.0538 93.42 59.3331 92.9358 59.0352 92.7496Z" fill="#101010"/>
<path d="M63.1687 87.7773C63.9694 87.5539 64.435 86.7345 64.286 85.9338C64.2115 85.5799 63.6715 85.7289 63.7459 86.0827C63.8391 86.5855 63.5039 87.1069 63.0197 87.2373C62.6659 87.3304 62.8149 87.8704 63.1687 87.7773Z" fill="#101010"/>
<path d="M48.887 89.0063C48.738 89.3973 48.8498 89.8629 49.185 90.1236C49.5201 90.4029 50.0416 90.4215 50.3954 90.1422C50.6747 89.9374 50.3954 89.4532 50.116 89.658C49.725 89.956 49.2408 89.6022 49.427 89.1366C49.5574 88.8201 49.0174 88.6897 48.887 89.0063Z" fill="#101010"/>
<path d="M50.7299 89.8629C50.9162 89.9002 51.1024 89.9374 51.2886 89.9747C51.4376 90.0119 51.5866 89.9374 51.6238 89.7885C51.661 89.6581 51.5679 89.4719 51.4376 89.4533C51.2514 89.416 51.0652 89.3788 50.8789 89.3415C50.73 89.3043 50.581 89.3788 50.5437 89.5277C50.4879 89.6581 50.581 89.8257 50.7299 89.8629Z" fill="#101010"/>
<path d="M74.4719 87.4977C74.6953 87.237 74.9188 86.939 74.8815 86.548C74.8443 86.2314 74.6208 85.9893 74.3043 85.9521C73.9132 85.9148 73.6525 86.25 73.4104 86.5107C73.0194 86.9204 72.6469 87.3301 72.2559 87.7211C72.0138 87.9818 72.4048 88.3729 72.6469 88.1122C72.9821 87.7584 73.2987 87.4232 73.6339 87.0694C73.7642 86.939 73.8946 86.7342 74.0436 86.6411C74.1925 86.548 74.3415 86.5107 74.3043 86.7528C74.2856 86.8832 74.1739 86.9949 74.0808 87.088C73.8573 87.3673 74.2484 87.7584 74.4719 87.4977Z" fill="#101010"/>
<path d="M71.6611 86.4728C71.2886 88.335 68.9236 88.7633 67.8994 90.1972C67.7505 90.402 67.9926 90.6813 68.216 90.6068C69.2961 90.2903 70.3575 89.9737 71.4376 89.6571C71.7728 89.564 71.6424 89.024 71.2886 89.1171C70.2086 89.4337 69.1471 89.7503 68.067 90.0668C68.1788 90.1972 68.2719 90.3462 68.3836 90.4765C69.4451 88.9495 71.7914 88.6516 72.2011 86.6218C72.257 86.268 71.7169 86.119 71.6611 86.4728Z" fill="#101010"/>
<path d="M61.2704 56.7341C63.4119 55.5423 66.1679 56.2499 68.1791 57.4231C68.4957 57.6093 68.775 57.1251 68.4584 56.9389C66.2797 55.654 63.3188 54.965 60.9911 56.2499C60.6745 56.4361 60.9724 56.9203 61.2704 56.7341Z" fill="#101010"/>
<path d="M83.6918 73.6244C85.9636 74.09 87.7327 72.4699 88.7197 70.5891C89.9487 68.2614 90.7495 65.6171 91.364 63.0845C91.6247 62.0417 92.0157 60.8313 91.5688 59.7884C91.2336 59.0249 90.526 58.5594 89.688 58.6898C88.8314 58.8201 88.2169 59.4905 87.7886 60.1981C87.0623 61.4272 86.5037 62.7866 85.8705 64.0715C85.7216 64.388 86.1871 64.6674 86.3547 64.3508C86.7644 63.5128 87.1741 62.6748 87.5838 61.8368C87.9376 61.092 88.2728 60.2168 88.9059 59.6581C89.5204 59.1181 90.526 59.0622 90.9729 59.8257C91.3081 60.403 91.215 61.1292 91.1033 61.7437C90.9171 62.6934 90.6564 63.6432 90.377 64.5742C89.8556 66.3619 89.2411 68.1869 88.4404 69.8628C87.5837 71.6505 86.0381 73.5127 83.8221 73.0658C83.487 73.0286 83.338 73.55 83.6918 73.6244Z" fill="#101010"/>
<path d="M84.9761 69.1556C86.4844 67.6844 86.8382 65.4126 85.8699 63.5504C85.7023 63.2338 85.2181 63.5131 85.3857 63.8297C86.2423 65.4684 85.9071 67.461 84.585 68.7459C84.3243 69.0252 84.7153 69.4163 84.9761 69.1556Z" fill="#101010"/>
<path d="M85.403 59.6026C86.4272 59.3047 87.1907 58.6529 88.1032 58.1129C89.444 57.3308 91.0082 57.3866 91.5855 59.044C92.1814 60.7572 90.9151 62.6566 90.4868 64.2767C90.3937 64.6305 90.9337 64.7795 91.0268 64.4257C91.5482 62.4332 93.0566 60.1799 91.7717 58.1688C91.2317 57.3122 90.3006 56.8839 89.295 57.0515C87.768 57.3122 86.7252 58.6529 85.2541 59.0812C84.9003 59.1557 85.0492 59.6957 85.403 59.6026Z" fill="#101010"/>
<path d="M83.7649 60.3844C83.5228 60.7941 83.4111 61.2596 83.4297 61.7438C83.4484 62.0976 84.007 62.0976 83.9884 61.7438C83.9698 61.3527 84.0629 60.9989 84.2491 60.6637C84.4167 60.3471 83.9511 60.0678 83.7649 60.3844Z" fill="#101010"/>
<path d="M83.3561 62.4697C82.5368 63.2518 82.0898 64.3133 82.0898 65.4492C82.0898 65.803 82.6485 65.803 82.6485 65.4492C82.6485 64.4436 83.0209 63.5498 83.7472 62.8608C84.0079 62.6187 83.6168 62.2276 83.3561 62.4697Z" fill="#101010"/>
<path d="M82.0889 63.1587C82.7779 60.6075 82.5359 57.9818 81.4186 55.5982C81.2696 55.2817 80.7854 55.561 80.9344 55.8776C81.9772 58.1308 82.2007 60.6075 81.5489 63.0097C81.4558 63.3635 81.9958 63.5125 82.0889 63.1587Z" fill="#101010"/>
<path d="M81.0093 55.3944C81.1769 55.2827 81.3258 55.2827 81.4934 55.3572C81.7355 55.4503 81.9217 55.1337 81.81 54.9475C81.5307 54.4447 81.2514 53.9233 80.972 53.4205C80.8044 53.1039 80.3203 53.3833 80.4879 53.6998C80.7672 54.2026 81.0465 54.724 81.3259 55.2268C81.4376 55.0965 81.5307 54.9475 81.6424 54.8171C81.3258 54.6868 81.0093 54.724 80.73 54.9103C80.4134 55.0965 80.6927 55.5806 81.0093 55.3944Z" fill="#101010"/>
<path d="M79.9101 51.7818C78.9976 51.2046 78.2155 50.4597 77.6196 49.5659C77.4148 49.2679 76.9306 49.5472 77.1354 49.8452C77.7872 50.8321 78.6252 51.6515 79.6307 52.266C79.9287 52.4709 80.208 51.9867 79.9101 51.7818Z" fill="#101010"/>
<path d="M78.589 48.243C78.1793 47.7588 78.0676 47.1257 78.2538 46.5298C78.3655 46.176 77.8255 46.0456 77.7137 46.3808C77.4717 47.1815 77.6579 48.0009 78.1979 48.634C78.4214 48.9134 78.8124 48.5223 78.589 48.243Z" fill="#101010"/>
<path d="M78.9418 45.2827C79.6681 44.482 80.0405 43.4392 79.8916 42.3591C79.8543 42.0053 79.2957 42.0053 79.3329 42.3591C79.4446 43.2902 79.1839 44.184 78.5508 44.8917C78.3087 45.1524 78.6998 45.5621 78.9418 45.2827Z" fill="#101010"/>
<path d="M77.08 22.8794C78.8677 25.2257 81.6796 26.4361 83.7094 28.5404C85.8322 30.7378 87.3406 33.4565 88.309 36.3429C90.5622 42.9909 89.8918 50.1603 88.9607 56.9945C88.9048 57.3483 89.4635 57.3483 89.5194 56.9945C90.4318 50.1044 91.1208 42.8978 88.8304 36.194C87.9179 33.4938 86.5585 30.9426 84.6777 28.7825C83.7652 27.7396 82.7224 26.8272 81.6051 26.0078C80.1712 24.965 78.6629 24.0339 77.5642 22.6C77.3407 22.3021 76.8565 22.5814 77.08 22.8794Z" fill="#101010"/>
<path d="M43.6719 52.7312C44.6775 49.1558 43.3553 45.2824 44.6588 41.7629C46.0555 38.0013 50.2081 36.1578 53.9511 37.4427C54.2863 37.5544 54.4353 37.0144 54.1001 36.9026C50.5806 35.7108 46.6514 37.0702 44.7519 40.2732C42.5173 44.0348 44.2678 48.5599 43.1318 52.5822C43.0387 52.9174 43.5788 53.0664 43.6719 52.7312Z" fill="#101010"/>
<path d="M64.474 36.548C65.8334 36.7901 67.0066 37.4232 68.1984 38.0564C69.2971 38.6522 70.3771 39.0805 71.5875 39.4157C72.7048 39.7137 73.8408 40.0861 74.6974 40.8682C75.9264 41.9669 76.4292 43.6988 76.1499 45.3002C76.094 45.654 76.6341 45.803 76.6899 45.4492C77.1555 42.7118 75.6843 40.3096 73.1332 39.3226C71.6993 38.764 70.2282 38.5033 68.8501 37.777C67.4721 37.0508 66.15 36.2873 64.6044 36.008C64.2692 35.9521 64.1202 36.4921 64.474 36.548Z" fill="#101010"/>
<path d="M56.1114 37.7214C58.3273 37.0883 60.562 36.4924 62.8711 36.4551C63.2249 36.4551 63.2249 35.8965 62.8711 35.8965C60.5061 35.9337 58.2156 36.5296 55.9624 37.1814C55.6272 37.2745 55.7762 37.8145 56.1114 37.7214Z" fill="#101010"/>
<path d="M44.7889 27.889C43.0757 29.2856 42.0329 31.2409 41.8094 33.4197C41.7722 33.7735 42.3308 33.7735 42.3681 33.4197C42.5915 31.3713 43.5971 29.565 45.1799 28.2801C45.4593 28.0566 45.0682 27.6655 44.7889 27.889Z" fill="#101010"/>
<path d="M43.0766 32.7309C40.8234 35.7663 42.369 39.5279 42.7414 42.8612C43.1139 46.2131 41.5496 49.8444 43.2442 52.9915C43.4118 53.308 43.896 53.0287 43.7284 52.7121C42.1083 49.6954 43.6539 46.0828 43.3001 42.8612C42.9463 39.621 41.382 35.9339 43.5422 33.0103C43.7842 32.7309 43.3001 32.4516 43.0766 32.7309Z" fill="#101010"/>
<path d="M44.901 26.3999C45.6086 24.966 47.3963 24.3142 48.8488 25.0219C49.1654 25.1709 49.4447 24.7053 49.1281 24.5377C47.4149 23.6997 45.2734 24.3887 44.4168 26.1019C44.2678 26.4371 44.752 26.7165 44.901 26.3999Z" fill="#101010"/>
<path d="M48.626 23.9974C50.4695 23.1408 52.3503 22.2656 54.3615 21.8559C56.4471 21.4276 58.6073 21.5579 60.6557 22.1725C61.0095 22.2842 61.1398 21.7442 60.8046 21.6324C58.7749 21.0179 56.652 20.8689 54.5663 21.26C52.3876 21.6511 50.3578 22.6008 48.3653 23.5319C48.0115 23.6808 48.3094 24.165 48.626 23.9974Z" fill="#101010"/>
<path d="M60.5066 21.2415C63.4861 21.558 66.4469 21.3346 69.3519 20.6269C69.7057 20.5338 69.5568 19.9938 69.203 20.0869C66.3538 20.7945 63.4302 20.9808 60.5066 20.6828C60.1528 20.6456 60.1528 21.2042 60.5066 21.2415Z" fill="#101010"/>
<path d="M70.8782 19.696C70.8596 19.6774 70.841 19.6401 70.8223 19.6215C70.6361 19.3794 70.3009 19.6401 70.3568 19.9008C71.1575 23.6066 76.8744 22.3403 77.5448 25.9343C77.6193 26.2881 78.1407 26.1391 78.0848 25.7853C77.3772 22.0237 71.6603 23.3086 70.8968 19.7519C70.7478 19.845 70.5803 19.9381 70.4313 20.0312C70.4499 20.0498 70.4685 20.0871 70.4871 20.1057C70.7106 20.3664 71.1017 19.9753 70.8782 19.696Z" fill="#101010"/>
<path d="M85.6638 70.7383C85.5148 70.1238 85.3472 69.4907 85.1982 68.8761C85.1051 68.5223 84.5651 68.6713 84.6582 69.0251C84.8072 69.6396 84.9748 70.2728 85.1238 70.8873C85.2169 71.2411 85.7569 71.0921 85.6638 70.7383Z" fill="#101010"/>
<path d="M47.5833 89.0052C46.4846 94.1448 49.5386 98.8003 52.2387 102.897C52.4436 103.195 52.9277 102.916 52.7229 102.618C50.1158 98.6699 47.0619 94.1262 48.1233 89.1728C48.1978 88.819 47.6578 88.67 47.5833 89.0052Z" fill="#101010"/>
<path d="M45.9065 84.8343C44.5471 85.7654 44.5657 87.3855 44.9195 88.838C45.3478 90.6071 45.9437 92.3762 46.6141 94.0708C47.8804 97.2737 49.5377 100.477 52.1261 102.823C52.3868 103.065 52.7965 102.674 52.5172 102.432C50.2453 100.384 48.6997 97.6275 47.5079 94.8342C46.912 93.4376 46.4093 92.0037 45.9623 90.5512C45.4968 88.987 44.454 86.4731 46.1672 85.3185C46.4837 85.1323 46.2044 84.6295 45.9065 84.8343Z" fill="#101010"/>
<path d="M45.3481 83.7921C43.8956 85.0398 42.4431 86.2875 40.9906 87.5537C39.9478 88.4476 38.5884 89.3973 38.2904 90.8312C38.0111 92.2278 38.8863 93.5127 39.6685 94.5555C40.674 95.9149 41.6982 97.2557 42.7411 98.5965C46.9496 104.015 51.6981 109.285 57.8061 112.581C61.1394 114.369 65.441 115.337 67.3032 118.969C67.4708 119.285 67.955 119.006 67.7874 118.689C66.4094 116.008 63.672 114.667 61.0277 113.513C58.0296 112.19 55.2549 110.57 52.7037 108.485C50.1339 106.38 47.8434 103.978 45.7206 101.446C44.5846 100.105 43.5046 98.7082 42.4245 97.3116C41.4189 95.9894 40.3016 94.6859 39.4264 93.2706C38.8305 92.2837 38.4953 91.2036 39.1284 90.1422C39.594 89.3601 40.3947 88.7642 41.0837 88.1869C42.6293 86.8647 44.1749 85.524 45.7206 84.2018C46.0185 83.9597 45.6088 83.5687 45.3481 83.7921Z" fill="#101010"/>
<path d="M38.2718 91.539C37.5456 93.066 35.6461 93.5129 34.5661 94.742C33.2625 96.2503 34.4171 97.8704 35.4227 99.1739C38.4022 102.991 41.7913 106.436 45.7019 109.323C45.9999 109.528 46.2792 109.044 45.9812 108.839C42.4803 106.25 39.3705 103.178 36.6331 99.7885C35.9068 98.8946 34.864 97.889 34.5847 96.7345C34.324 95.7103 34.9944 94.984 35.7579 94.4254C36.8007 93.6433 38.1601 93.066 38.756 91.8183C38.9049 91.4831 38.4208 91.2038 38.2718 91.539Z" fill="#101010"/>
<path d="M45.9252 108.801C45.6831 108.746 45.9997 108.075 46.0556 108.001C46.3163 107.684 46.7818 107.703 47.1356 107.815C47.806 108.038 48.7185 108.876 48.1226 109.602C47.8991 109.882 48.2902 110.273 48.5137 109.993C49.5006 108.764 48.0854 107.237 46.7818 107.181C46.1487 107.144 45.5528 107.498 45.3666 108.112C45.2176 108.578 45.1803 109.211 45.7762 109.342C46.1301 109.397 46.279 108.857 45.9252 108.801Z" fill="#101010"/>
<path d="M47.9743 110.216C50.5627 112.6 54.0077 113.307 57.3224 114.108C60.693 114.928 64.436 115.859 66.4285 118.969C66.6147 119.266 67.0989 118.987 66.9126 118.689C62.8531 112.358 53.5794 114.592 48.3839 109.825C48.1046 109.583 47.6949 109.974 47.9743 110.216Z" fill="#101010"/>
<path d="M52.127 102.823C55.6279 105.877 58.3653 109.508 60.4323 113.642C60.5999 113.959 61.0841 113.679 60.9165 113.363C58.8308 109.173 56.0562 105.505 52.5181 102.413C52.2574 102.19 51.8663 102.6 52.127 102.823Z" fill="#101010"/>
<path d="M22.0708 101.893C25.6834 99.4719 29.7243 97.8332 34.0073 97.0325C34.3612 96.958 34.2122 96.4366 33.8584 96.4925C29.5381 97.2932 25.4413 98.9692 21.7914 101.409C21.4935 101.613 21.7728 102.098 22.0708 101.893Z" fill="#101010"/>
<path d="M76.7808 117.274C78.7547 111.929 82.5908 107.479 84.4344 102.078C86.2593 96.7898 85.3655 91.0171 81.7901 86.6596C81.5666 86.3802 81.1755 86.7713 81.399 87.0506C85.142 91.613 85.6634 97.6278 83.4847 103.01C81.5107 107.926 78.0843 112.134 76.2221 117.125C76.1104 117.479 76.6504 117.609 76.7808 117.274Z" fill="#101010"/>
<path d="M81.6425 86.2873C83.6723 86.8087 85.4414 88.1122 86.5028 89.9186C87.3594 91.3711 87.5084 93.6429 89.4637 94.0898C89.8175 94.1643 89.9665 93.6243 89.6127 93.5498C88.2347 93.2332 87.9553 91.7621 87.4898 90.6262C87.1732 89.8441 86.7263 89.1178 86.1863 88.466C85.0503 87.1067 83.5047 86.1756 81.8101 85.7287C81.4377 85.6728 81.2887 86.2128 81.6425 86.2873Z" fill="#101010"/>
<path d="M96.0743 96.4917C97.9737 98.4842 98.3648 101.706 96.8936 104.052C95.4411 106.343 92.5361 107.516 92.0333 110.421C91.9775 110.775 92.5175 110.924 92.5734 110.57C93.1134 107.33 96.8936 106.119 97.9737 103.102C98.8303 100.7 98.2344 97.9256 96.4839 96.1006C96.2232 95.8399 95.8322 96.231 96.0743 96.4917Z" fill="#101010"/>
<path d="M92.1088 106.026C94.6227 102.469 97.4718 98.1112 95.8704 93.5675C94.4365 89.4893 90.0417 88.7258 86.2429 88.3348C85.8891 88.2975 85.8891 88.8562 86.2429 88.8934C89.9673 89.2659 94.362 90.048 95.4793 94.2379C96.6153 98.5023 93.9337 102.413 91.606 105.728C91.4198 106.044 91.9039 106.323 92.1088 106.026Z" fill="#101010"/>
<path d="M94.5667 100.161C93.9894 98.6149 94.8832 97.032 94.6039 95.4492C94.3991 94.2202 93.4866 93.2891 92.3321 92.8794C91.9969 92.7677 91.8479 93.3077 92.1831 93.4194C95.4605 94.5554 93.17 97.9818 94.0266 100.291C94.1384 100.645 94.6784 100.496 94.5667 100.161Z" fill="#101010"/>
<path d="M97.6383 99.0621C99.4074 99.8815 101.121 100.813 102.778 101.855C103.076 102.042 103.355 101.557 103.057 101.371C101.4 100.328 99.6867 99.4159 97.9176 98.5779C97.601 98.429 97.3217 98.9131 97.6383 99.0621Z" fill="#101010"/>
<path d="M48.6255 117.163C47.6199 115.636 48.3834 113.885 48.4021 112.209C48.4207 110.757 48.2717 109.286 47.9924 107.87C47.9179 107.516 47.3779 107.665 47.4523 108.019C47.7689 109.583 47.9551 111.297 47.8248 112.898C47.6944 114.481 47.2103 115.989 48.16 117.442C48.3276 117.74 48.8117 117.46 48.6255 117.163Z" fill="#101010"/>
<path d="M45.5726 108.299C46.0009 110.142 45.8891 111.762 45.4236 113.569C45.1256 114.76 45.0325 115.878 45.9636 116.809C46.2243 117.069 46.6154 116.66 46.3547 116.418C45.1256 115.189 46.1685 113.457 46.3547 112.004C46.5409 110.719 46.3919 109.416 46.094 108.15C46.0381 107.796 45.4981 107.945 45.5726 108.299Z" fill="#101010"/>
<path d="M58.1235 108.95C64.3432 113.549 73.0768 114.164 79.9855 110.719C80.302 110.551 80.0227 110.067 79.7061 110.235C72.9837 113.587 64.4735 112.954 58.4028 108.466C58.1049 108.242 57.8255 108.726 58.1235 108.95Z" fill="#101010"/>
<path d="M88.756 38.9504C88.6815 38.6711 88.2904 38.6339 88.1787 38.9132C88.1787 38.9318 88.16 38.9504 88.16 38.9504C87.8435 39.5836 86.8938 39.4346 86.8007 38.727C86.2234 34.5743 84.3612 30.254 81.0465 27.7401C80.581 27.3863 79.892 27.6656 79.8175 28.2615C79.7616 28.6712 79.6685 29.0995 79.5195 29.4906C79.3519 29.9933 78.6071 29.323 78.3836 28.8388C76.8752 25.5241 73.4302 23.8481 69.7803 23.8109C69.0168 23.3454 68.1975 22.9543 67.3595 22.6377C66.2049 23.2336 65.758 24.9655 65.8325 26.1572C65.9256 27.4794 66.9498 28.485 67.974 29.2112C69.9852 30.6823 72.406 31.4086 74.5289 32.6749C74.7337 32.8052 74.5475 33.1218 74.3427 32.9915C71.7729 31.4458 68.4768 30.6823 66.447 28.3546C65.609 27.3863 65.3111 26.2876 65.5346 25.0399C65.7022 24.0902 66.1118 23.0474 66.9126 22.4887C65.4042 21.986 63.8214 21.7439 62.2385 21.837C63.3931 22.6936 64.3986 23.7737 65.1621 25.0027C61.3446 23.0846 56.8568 22.5446 52.6855 23.4757C55.2553 23.3081 57.9741 23.6619 60.0784 25.2262C60.2646 25.3751 60.0784 25.6917 59.8922 25.5427C57.6389 23.8668 54.678 23.6247 51.9779 23.8854C51.8475 23.904 51.7917 23.7737 51.8103 23.6805C51.3634 23.8109 50.9351 23.9413 50.5068 24.0902C50.8978 24.0157 50.9537 24.593 50.842 24.9654C50.7302 25.3379 50.3392 25.5614 49.9481 25.6358C49.5571 25.6917 49.166 25.6172 48.7749 25.5986C47.1548 25.5241 45.5347 26.4366 44.734 27.8332C45.1623 27.5725 45.6465 27.5539 46.0748 27.8146C44.9761 28.8947 44.0264 30.1237 43.2629 31.4645C43.5422 31.4272 43.8215 31.6507 43.9705 31.8928C44.3988 32.5259 43.7843 33.308 43.3374 33.9225C42.3132 35.375 42.2201 37.2745 42.4435 39.0435C42.667 40.8126 43.1325 42.5444 43.0767 44.3135C43.0394 45.8219 42.6111 47.3116 42.4249 48.82C42.2387 50.3284 42.5925 52.414 43.4863 53.6244C44.2312 51.7064 44.0077 49.1552 44.0264 47.0695C43.9705 46.7902 43.9333 45.3563 43.9333 45.077C44.0077 42.8982 44.5664 40.6822 45.8885 39.0249C44.3802 38.8201 43.058 38.2987 43.5236 36.9393C43.5981 36.7158 43.9519 36.8089 43.8774 37.0324C43.5236 38.1124 44.7899 38.5221 46.1865 38.6711C46.41 38.429 46.6707 38.1869 46.95 37.9821C48.9239 36.511 51.6427 36.5855 54.0449 37.1255C54.8643 37.3117 55.6464 37.3303 56.4285 37.2372C56.205 37.1814 55.9629 37.1069 55.7581 37.0324C54.6967 36.7158 53.6725 36.3061 52.6855 35.8033C52.4807 35.6916 52.2386 35.5799 51.9779 35.4309C52.0151 35.5426 51.9593 35.6916 51.8103 35.673C49.0543 35.5613 46.6521 32.3583 46.7824 29.714C46.801 29.4719 47.1735 29.4719 47.1548 29.714C47.0245 32.1348 49.2219 35.1516 51.7544 35.3005C50.6185 34.6302 49.3336 33.606 49.7619 32.3769C49.7991 32.3024 49.855 32.2466 49.9295 32.2466C49.6874 31.8369 49.5012 31.3714 49.3895 30.8872C49.3336 30.6451 49.706 30.552 49.7433 30.7941C49.9481 31.7252 50.4323 32.5445 51.1771 33.1404C51.3634 33.2894 51.1027 33.5501 50.9164 33.4011C50.5999 33.159 50.3205 32.8611 50.0971 32.5259C49.6315 34.0529 52.3689 35.2819 53.4118 35.7661C54.5663 36.3061 56.0933 37.0138 57.4527 37.0882C58.0114 36.9765 58.5514 36.8462 59.0914 36.6972C58.2534 36.4179 57.5458 35.7288 56.6333 35.673C56.3913 35.6544 56.3913 35.2819 56.6333 35.3005C57.6017 35.3378 58.3093 36.0454 59.2031 36.3247C59.3521 36.3806 59.3521 36.5482 59.2776 36.6413C60.5253 36.3247 61.773 36.0082 63.0579 36.0454C62.8158 35.7102 62.5178 35.4123 62.164 35.1702C61.7171 34.8536 61.2143 34.4998 60.7115 34.2019C60.3949 34.0901 60.0597 33.9598 59.8922 33.7736C59.8177 33.7363 59.7246 33.6991 59.6501 33.6805C59.3149 33.5501 59.4638 33.0101 59.799 33.1404C60.8046 33.5129 61.9033 34.2205 62.7413 34.8909C63.0579 35.133 63.3186 35.4309 63.542 35.7289C63.6538 35.8592 63.7655 35.9709 63.8958 36.1013C64.1007 36.1385 64.2869 36.1758 64.4917 36.213C65.9256 36.5668 67.6388 37.2186 68.9796 37.8517C70.5997 38.6339 72.4246 39.0249 73.9702 39.956C75.5159 40.8871 76.8194 42.6003 76.4842 44.3694C77.1359 43.6431 77.4898 42.7679 77.2849 41.8182C78.365 42.4141 78.6629 44.0714 77.8622 45.0211C78.2719 45.2446 78.7747 44.8349 78.905 44.3694C79.0726 43.7921 78.8864 43.1776 79.2402 42.6375C79.3892 42.3955 79.6871 42.2279 79.9665 42.2837C80.3203 42.3582 80.4506 42.7307 80.4506 43.0472C80.4692 44.0528 79.6685 44.8535 79.1285 45.7101C78.5884 46.5667 78.365 47.8889 79.2402 48.4103C78.4953 48.5779 77.8994 49.3042 77.8808 50.0676C79.8547 50.2725 81.1396 52.2278 81.7728 54.1086C82.9273 57.4977 82.8342 61.2966 81.5121 64.6485C82.5363 64.034 82.7597 62.6932 83.0577 61.5573C83.188 61.0731 83.3556 60.6076 83.5977 60.2351C83.5232 60.2165 83.4674 60.142 83.4674 60.0676V59.6951C83.4674 59.4903 83.7467 59.453 83.8212 59.602C83.8398 59.5648 83.877 59.5275 83.9143 59.4717C84.0633 59.2668 84.2681 59.0806 84.4916 58.913C84.9757 58.5406 85.553 58.2985 86.093 57.9819C87.9738 56.9019 87.7876 55.021 87.229 53.2147C87.1545 52.9913 87.5269 52.8795 87.5828 53.1216C87.5828 53.1402 87.5828 53.1589 87.6014 53.1589C87.6386 53.1589 87.6573 53.1775 87.6945 53.1961C88.458 53.7361 88.7746 54.5369 88.6628 55.468C88.6256 55.7101 88.2532 55.7101 88.2904 55.468C88.3649 54.7976 88.2345 54.2017 87.769 53.7361C88.1228 55.0955 88.2532 56.6039 87.1917 57.6653C86.6144 58.2426 85.8137 58.5219 85.1247 58.9502C84.864 59.1178 84.6033 59.3041 84.3985 59.5275C84.6219 59.4158 84.8826 59.3413 85.1619 59.3413C86.1861 59.3786 89.0353 57.2184 89.0353 57.2184C89.4636 56.6225 89.2215 57.535 89.6312 52.7864C90.0967 47.1626 90.0967 43.4755 88.756 38.9504ZM49.4267 32.6376C49.6315 32.7494 49.4453 33.0846 49.2405 32.9542C47.5831 31.9859 47.8066 29.2485 48.4025 27.7215C48.4956 27.498 48.8494 27.5911 48.7563 27.8146C48.2349 29.1926 47.9369 31.781 49.4267 32.6376ZM66.7636 36.6786C65.3483 36.0268 63.5607 35.9337 62.853 34.3136C62.704 33.9784 63.1882 33.6991 63.3372 34.0343C63.9889 35.5054 65.758 35.5985 67.0615 36.1944C67.3595 36.3434 67.0802 36.8275 66.7636 36.6786ZM70.4507 37.4793C70.1528 35.6916 67.8809 34.835 66.5588 33.9039C65.4228 33.0846 64.529 32.0976 64.4731 30.6451C64.4545 30.2913 65.0132 30.2913 65.0318 30.6451C65.1621 34.146 70.4507 34.0901 70.9721 37.3303C71.0466 37.6841 70.5066 37.8331 70.4507 37.4793ZM71.9405 37.7586C71.717 37.1814 71.6053 35.7661 70.8232 35.7289C70.5811 35.7102 70.5811 35.3378 70.8232 35.3564C71.9032 35.4123 72.0149 36.8834 72.3129 37.6655C72.3874 37.889 72.0149 37.9821 71.9405 37.7586ZM76.0559 36.4179C75.8697 36.5668 75.609 36.3061 75.7952 36.1572C75.8324 36.1199 75.8883 36.0827 75.9255 36.0454C75.9255 36.0082 75.9255 35.9709 75.9628 35.9151C76.4097 34.9467 76.8752 33.7736 76.4469 32.7121C76.149 31.9859 75.5345 31.8183 75.0131 31.3527C74.7524 31.1107 74.1192 30.4216 74.622 30.1051C75.0131 29.863 75.8883 30.4403 76.1862 30.6637C76.3724 30.8127 76.5214 30.9803 76.6518 31.1479C77.9925 32.5259 77.7691 34.9281 76.0559 36.4179ZM78.5326 40.9988C78.216 41.1478 77.9181 40.6636 78.2533 40.5147C78.5326 40.3843 78.756 40.2167 78.9423 40.0119C78.8678 40.0491 78.7747 40.0677 78.6816 40.0864C78.4395 40.1422 78.3464 39.7698 78.5884 39.7325C78.9609 39.6581 79.2961 39.3601 79.4823 39.0063C79.5568 38.5407 79.4637 38.0566 79.1471 37.6283C79.1099 37.6097 79.0912 37.591 79.054 37.5724C78.9609 37.5352 78.9236 37.4421 78.9423 37.3676C78.905 37.3303 78.8678 37.2931 78.8305 37.2558C78.5698 37.0138 78.9609 36.6227 79.2216 36.8648C80.6368 38.1311 80.1713 40.1981 78.5326 40.9988ZM85.9068 52.7678C85.6461 53.0285 85.2551 52.6375 85.5158 52.3767C86.9683 50.9056 87.1172 48.7082 86.093 46.9392C85.9068 46.6226 86.391 46.3433 86.5772 46.6599C86.7262 46.9206 86.8565 47.1999 86.9683 47.4978C87.5455 48.8014 87.4338 50.887 86.5213 52.0229C86.3351 52.2836 86.1303 52.5443 85.9068 52.7678ZM87.3779 51.7808C87.2848 52.0043 86.931 51.9112 87.0241 51.6877C87.1917 51.2781 87.3779 50.887 87.3966 50.4401C87.3966 50.198 87.769 50.198 87.769 50.4401C87.7504 50.9243 87.5642 51.3525 87.3779 51.7808Z" fill="#101010"/>
<path d="M84.9939 94.9462C84.6587 92.5626 83.8021 90.2535 82.5172 88.2237C82.1634 87.6837 81.791 87.1436 81.5675 86.5477C81.3441 85.9332 81.3068 85.2256 81.642 84.6855C81.2509 87.4602 81.0834 90.2721 81.102 93.084C81.1392 92.6371 81.0647 91.5198 81.4372 91.2404C82.6103 92.5439 83.5228 93.8847 84.9939 94.9462Z" fill="#101010"/>
<path d="M47.6943 108.037C47.6943 108 47.6943 107.963 47.713 107.944C47.7502 107.907 47.8247 107.926 47.8619 107.963C48.2158 108.205 48.4392 108.633 48.4392 109.061C48.4392 109.304 47.9178 110.384 47.8619 109.825C47.8247 109.359 47.7874 109.415 47.7688 109.192C47.7502 108.819 47.713 108.428 47.6943 108.037Z" fill="#101010"/>
<path d="M47.0795 86.5667C46.6512 86.0825 46.3532 85.4866 46.167 84.8721C45.3104 85.468 44.9566 86.5853 44.9939 87.6281C44.9939 88.6337 45.4035 89.6951 45.776 90.6076C45.6456 89.8255 45.3291 89.1365 45.5525 88.3544C45.8132 87.5909 46.3533 86.9019 47.0795 86.5667Z" fill="#101010"/>
<path d="M55.4037 93.4006C54.5657 93.0095 53.6905 92.8419 52.7594 92.9723C52.5545 92.9909 52.4056 93.1958 52.5173 93.4006C52.9456 94.1641 53.6346 94.6855 54.4912 94.8903C54.5471 94.7041 54.5843 94.5365 54.6402 94.3503C53.9698 94.22 53.3925 93.9034 52.9084 93.4006C52.6663 93.1399 52.2566 93.531 52.5173 93.7917C53.0573 94.3503 53.7277 94.7227 54.4912 94.8717C54.845 94.9462 54.994 94.4062 54.6402 94.3317C53.9326 94.1641 53.3553 93.7544 53.0015 93.1027C52.927 93.2516 52.8339 93.382 52.7594 93.531C53.5787 93.4192 54.3609 93.531 55.1244 93.8848C55.4409 94.0337 55.7203 93.5682 55.4037 93.4006Z" fill="#101010"/>
<path d="M95.8316 101.296C96.3717 100.533 96.8931 99.695 97.0048 98.7825C97.1724 97.4231 96.4648 96.101 95.7758 94.9092C96.111 96.9203 95.7199 98.9873 94.9006 100.85C94.0626 102.768 92.6846 104.22 91.6045 105.952C92.2563 106.045 93.3177 104.444 93.7274 103.997C94.4723 103.14 95.1799 102.228 95.8316 101.296Z" fill="#101010"/>
<path d="M94.6965 97.9072C94.9013 97.1251 95.1434 96.343 95.162 95.5236C95.1807 94.7042 94.9758 93.8476 94.3985 93.289C93.8026 92.7303 92.7971 92.6 92.2012 93.14C93.5233 93.6987 94.4358 95.0767 94.473 96.5106C94.4917 97.3858 93.7654 99.3038 94.4358 100.03C94.4544 99.3038 94.5103 98.6148 94.6965 97.9072Z" fill="#101010"/>
<path d="M95.0319 107.497C96.1305 106.696 97.3037 105.97 98.2162 104.965C99.4452 103.568 100.041 101.65 99.8177 99.8063C99.0914 99.5084 98.3838 99.2104 97.6575 98.9125C97.7693 98.6145 97.732 98.2793 97.583 98C97.9369 99.6015 98.2162 101.296 97.6575 102.823C97.0989 104.369 95.7767 105.486 94.6036 106.641C93.7656 107.46 92.5179 108.708 92.4248 109.955C92.8531 109.974 93.2442 109.136 93.5049 108.838C93.9518 108.335 94.4732 107.907 95.0319 107.497Z" fill="#101010"/>
<path d="M73.6538 116.045C74.4918 115.244 75.7953 112.749 76.5029 111.837C76.5029 111.837 78.4396 111.11 79.9293 110.291C78.6817 112.712 77.4154 115.151 76.1677 117.572C76.6705 117.405 77.1733 117.256 77.6761 117.088C74.3986 118.28 70.8977 118.913 67.4155 118.913C67.5086 118.894 67.6017 118.876 67.6948 118.838C67.5644 118.838 67.4155 118.838 67.2851 118.857C67.3782 118.298 67.0244 117.702 66.4844 117.535C67.4155 118.41 68.8493 117.926 70.0039 117.702C71.326 117.46 72.6482 116.995 73.6538 116.045Z" fill="#101010"/>
<path d="M80.7103 109.025C81.5669 108.205 82.0138 106.753 82.5725 105.71C84.0809 102.824 84.9375 99.5833 85.0864 96.3245C83.727 95.7286 82.5166 94.7417 81.6786 93.5312C81.8462 95.6541 82.0325 97.7956 82.2001 99.9185C82.2373 100.254 82.2559 100.626 82.0511 100.905C81.8462 101.185 81.3621 101.259 81.2131 100.961C80.3379 103.308 79.2578 105.449 78.364 107.796C77.9729 108.838 77.2839 109.993 76.8184 110.98C78.0102 110.496 79.593 110.105 80.7103 109.025Z" fill="#101010"/>
<path d="M35.6098 103.624C31.7551 102.172 27.5466 101.837 24.0829 104.053C23.3008 103.215 22.4442 102.47 21.6621 101.65C25.4237 99.3785 29.2598 97.8701 33.5614 96.9204C33.8594 96.8645 34.176 96.7714 34.3436 96.5294C34.5112 96.2873 34.3994 95.8403 34.1015 95.859C36.5968 101.241 40.8612 105.784 46.0753 108.615C45.7773 108.391 45.7587 108.131 46.0008 107.833C45.9449 108.149 46.1684 108.261 46.1498 108.578C46.0753 110.012 45.9822 111.445 45.9077 112.879C45.9636 111.874 46.2243 110.887 45.5539 110.067C44.8276 109.174 43.5614 108.41 42.6489 107.721C40.4701 106.082 38.161 104.593 35.6098 103.624Z" fill="#101010"/>
<path d="M44.7709 112.339C44.5288 113.68 44.1564 115.058 44.5102 116.361C44.5475 116.231 44.3985 116.082 44.2681 116.138C44.9944 116.38 45.702 116.622 46.4283 116.864C45.702 116.268 45.4972 115.226 45.5717 114.294C45.6462 113.363 45.9627 112.451 46.0744 111.52C46.1862 110.589 46.0372 109.546 45.3668 108.894C45.5717 109.08 45.7951 109.285 46 109.471C45.1061 108.689 44.1937 107.907 43.2998 107.106C44.6964 108.782 45.1806 110.142 44.7709 112.339Z" fill="#101010"/>
<path d="M49.2023 107.368C51.7535 109.416 55.1985 111.446 58.2525 112.6C48.0477 105.897 44.9379 100.887 39.6865 94.109C38.9044 93.1035 38.0851 91.893 38.4203 90.6826C38.4203 92.2841 36.8374 93.8669 35.3477 94.1649C36.0553 93.7552 36.8746 93.0848 37.3216 93.8856C40.0403 98.8203 47.3401 105.859 49.2023 107.368Z" fill="#101010"/>
<path d="M87.5823 36.7716C87.5451 35.2446 87.1168 33.8293 86.3346 32.5258C86.1484 32.2279 85.6643 32.5072 85.8505 32.8051C86.5953 34.0342 86.9864 35.3377 87.0236 36.7716C87.0423 37.144 87.6009 37.144 87.5823 36.7716Z" fill="#101010"/>
<path d="M69.1093 21.2231C70.6922 21.7632 72.2936 22.2846 73.8765 22.8246C74.2117 22.9363 74.3607 22.3963 74.0255 22.2846C72.4426 21.7445 70.8411 21.2231 69.2583 20.6831C68.9045 20.5714 68.7741 21.1114 69.1093 21.2231Z" fill="#101010"/>
<path d="M71.0092 22.3399C70.1712 21.7626 69.1656 21.595 68.1786 21.8929C67.8435 21.9861 67.9738 22.5261 68.3276 22.433C69.1656 22.1909 70.0036 22.3212 70.7112 22.824C71.0092 23.0289 71.2885 22.5447 71.0092 22.3399Z" fill="#101010"/>
<path d="M79.4633 28.374C79.5378 27.8153 79.3516 27.2939 79.0164 26.8656C78.7929 26.5863 78.4019 26.9774 78.6253 27.2567C78.886 27.5733 78.9605 27.9643 78.9233 28.3554C78.8674 28.7278 79.4261 28.7278 79.4633 28.374Z" fill="#101010"/>
<path d="M75.5528 31.0739C76.0742 31.5953 76.4652 32.2098 76.6887 32.8988C76.8004 33.234 77.3405 33.085 77.2287 32.7499C76.968 31.9491 76.5397 31.2601 75.9438 30.6642C75.6831 30.4407 75.2921 30.8318 75.5528 31.0739Z" fill="#101010"/>
<path d="M56.9118 21.8926C55.1241 21.8926 53.3737 22.0788 51.6232 22.4512C51.2694 22.5257 51.4184 23.0658 51.7722 22.9913C53.4668 22.6188 55.18 22.4512 56.9118 22.4512C57.2656 22.4699 57.2656 21.9112 56.9118 21.8926Z" fill="#101010"/>
<path d="M54.0823 72.0416C54.1009 71.7437 55.1065 71.6319 55.3113 71.6319C55.7582 71.6133 56.1679 71.7064 56.5031 72.0044C56.6334 72.1161 56.7638 72.1161 56.8942 72.0044C57.1176 71.8181 57.1549 71.5016 57.0059 71.2595C56.7638 70.9057 56.1865 70.8498 55.7955 70.8126C54.7713 70.7008 53.7843 71.036 53.3746 72.023C53.2443 72.3582 53.7843 72.5071 53.9147 72.1719C54.1195 71.6878 54.5664 71.4457 55.0506 71.3712C55.2741 71.334 55.4603 71.334 55.6837 71.3526C55.7582 71.3526 56.559 71.5574 56.5031 71.5947C56.6334 71.5947 56.7638 71.5947 56.8942 71.5947C56.3541 71.1478 55.721 70.9988 55.0133 71.0919C54.3802 71.1664 53.5795 71.2967 53.505 72.0416C53.505 72.3954 54.0636 72.3954 54.0823 72.0416Z" fill="#101010"/>
<path d="M75.6826 86.1942C75.4591 86.2687 75.2171 86.1011 75.2171 85.859C75.2171 85.7286 75.1798 85.5797 75.0867 85.4866C74.8633 85.2631 74.4908 85.2817 74.2115 85.4121C73.9322 85.5424 73.7087 85.7845 73.4666 85.9893C73.4108 86.0266 73.3549 86.0825 73.299 86.1197C73.1128 86.2687 72.8707 86.0266 72.9824 85.8404C73.6528 84.7789 74.4722 83.8292 75.4033 82.9912C75.515 82.8981 75.664 83.0099 75.6267 83.1402C75.5523 83.3078 75.7757 83.4754 75.9247 83.3637C76.7627 82.6747 77.5075 81.8739 78.1034 80.9615C78.1966 80.8125 78.4386 80.9056 78.4014 81.0732L78.3642 81.278C78.3269 81.4642 78.5876 81.5574 78.6993 81.4084C79.1463 80.7008 79.5187 79.9559 79.8353 79.1924C79.8725 79.0993 80.0029 79.1551 79.9843 79.2482C79.6491 80.4587 79.2394 81.6505 78.7366 82.805C78.6435 83.0285 78.5318 83.2519 78.3455 83.3823C78.1593 83.5126 77.8427 83.494 77.731 83.2892L77.7683 82.7492C77.7869 82.5443 77.5076 82.4326 77.3772 82.6002C76.9117 83.1588 76.5392 83.7733 76.2599 84.4437C76.1295 84.7417 76.4647 85.0024 76.7254 84.8348C76.7999 84.7789 76.893 84.7231 76.9675 84.6858C77.0979 84.6113 77.2655 84.7603 77.191 84.8907C76.893 85.4493 76.3158 86.008 75.6826 86.1942Z" fill="#101010"/>
<path d="M47.8989 80.3286C48.4203 80.6824 48.8113 81.1479 49.1093 81.7066C49.2769 82.0232 49.761 81.7438 49.5934 81.4273C49.2583 80.7941 48.7741 80.2541 48.1782 79.8444C47.8802 79.6396 47.6009 80.1237 47.8989 80.3286Z" fill="#101010"/>
<path d="M64.6782 79.4897C64.3616 79.8993 64.194 80.3835 64.2499 80.8863C64.2871 81.2401 64.8458 81.2401 64.8085 80.8863C64.7713 80.5325 64.8458 80.16 65.0692 79.8807C65.2927 79.6014 64.9016 79.2103 64.6782 79.4897Z" fill="#101010"/>
<path d="M65.1434 80.9054C65.0875 81.3151 65.013 81.7062 64.9572 82.1159C64.9013 82.4697 65.4413 82.6186 65.4972 82.2648C65.5531 81.8551 65.6276 81.4641 65.6834 81.0544C65.7393 80.7006 65.1993 80.5516 65.1434 80.9054Z" fill="#101010"/>
<path d="M67.2099 90.3646C67.1168 90.7185 66.912 90.9978 66.6326 91.2026C66.5209 91.2957 66.5395 91.5006 66.6326 91.5937C66.7444 91.7054 66.912 91.6868 67.0237 91.5937C67.3775 91.3144 67.6196 90.9233 67.7499 90.495C67.8431 90.1598 67.303 90.0108 67.2099 90.3646Z" fill="#101010"/>
<path d="M65.7388 91.4269C65.3664 91.5014 65.0126 91.6504 64.696 91.8738C64.5656 91.9669 64.5098 92.1159 64.6029 92.2649C64.6774 92.3766 64.8636 92.4511 64.9939 92.358C65.2733 92.1531 65.5712 92.0228 65.9064 91.9669C66.2416 91.9111 66.0926 91.371 65.7388 91.4269Z" fill="#101010"/>
<path d="M43.3554 52.0047C42.5546 54.3697 42.4615 56.7719 42.9643 59.2113C43.1133 59.9562 43.2809 60.7011 43.2622 61.4646C43.2436 62.2467 43.0388 63.0288 42.8898 63.7923C42.6477 65.0213 42.5732 66.2504 42.7222 67.498C43.0202 70.1051 43.8023 72.6563 44.3982 75.2075C45.0313 77.9635 45.6086 80.7381 46.13 83.5128C46.2045 83.8666 46.7445 83.7176 46.67 83.3638C46.1672 80.7568 45.6272 78.1683 45.0499 75.5985C44.454 72.9729 43.6347 70.3286 43.2995 67.647C43.1319 66.2131 43.2622 64.8537 43.5416 63.4385C43.765 62.3584 43.8954 61.3342 43.7278 60.2355C43.5229 58.9134 43.1878 57.6471 43.1691 56.3063C43.1691 54.8911 43.4298 53.5317 43.8768 52.1909C44.0071 51.7999 43.4671 51.6509 43.3554 52.0047Z" fill="#101010"/>
<path d="M49.8177 79.7505C51.2702 79.3222 52.611 80.6629 54.0263 80.8305C55.1994 80.9795 56.3726 80.7002 57.5086 80.4581C58.3279 80.2905 59.1473 80.1043 59.9853 80.1229C60.6743 80.1229 61.3819 80.2719 62.0709 80.2533C62.5364 80.2533 63.002 80.1974 63.4303 80.0298C63.9703 79.8249 64.3614 79.2291 64.9014 79.0801C65.2552 78.987 65.1063 78.4469 64.7524 78.54C64.2683 78.6704 64.0448 79.0056 63.6351 79.2849C62.9647 79.7318 62.1454 79.7132 61.3633 79.6574C59.948 79.5456 58.7376 79.6201 57.3596 79.9181C55.814 80.2533 54.2684 80.5698 52.76 79.8808C51.7358 79.4153 50.8047 78.8566 49.6501 79.1918C49.3336 79.3035 49.4826 79.8436 49.8177 79.7505Z" fill="#101010"/>
<path d="M49.0913 80.0122C49.8548 80.2915 50.1341 81.4088 50.5624 82.0234C50.8976 82.4889 51.2887 82.8055 51.8101 83.0476C53.1322 83.6434 54.5847 83.7179 55.9814 83.3641C56.3352 83.271 56.1862 82.731 55.8324 82.8241C54.3054 83.1965 52.0708 83.1407 51.0466 81.744C50.4693 80.9619 50.2272 79.8446 49.2403 79.4722C48.9051 79.3604 48.7561 79.9005 49.0913 80.0122Z" fill="#101010"/>
<path d="M48.905 79.3783C49.6312 79.1921 50.283 78.4099 51.0651 78.5403C51.6238 78.6334 52.0893 79.0617 52.6294 79.2479C53.9701 79.6762 54.9012 78.4844 56.1861 78.5403C56.5399 78.5589 56.5399 78.0003 56.1861 77.9816C55.5716 77.963 55.0874 78.1679 54.5474 78.4286C54.0446 78.652 53.5977 78.8941 53.0204 78.801C52.6294 78.7265 52.2942 78.4844 51.959 78.3168C51.5307 78.112 51.0838 77.9258 50.5996 78.0003C49.9106 78.112 49.4264 78.6893 48.756 78.8755C48.4022 78.9314 48.5512 79.4714 48.905 79.3783Z" fill="#101010"/>
<path d="M59.3891 78.8195C60.3574 78.9871 61.2885 79.3222 62.2568 79.5271C63.1879 79.7319 63.8769 79.4899 64.7521 79.1733C65.0873 79.0616 64.9384 78.5215 64.6032 78.6332C64.2121 78.7822 63.7652 78.9684 63.3555 79.0615C62.9086 79.1547 62.4244 79.0057 61.9775 78.894C61.1581 78.6891 60.3574 78.4284 59.5194 78.2794C59.1842 78.2236 59.0352 78.7636 59.3891 78.8195Z" fill="#101010"/>
<path d="M60.8784 81.2593C62.275 80.7565 63.6344 80.384 64.6214 79.1922C64.8448 78.9129 64.4538 78.5218 64.2303 78.8012C63.2992 79.8999 62.033 80.2351 60.7294 80.7192C60.3942 80.8309 60.5246 81.371 60.8784 81.2593Z" fill="#101010"/>
<path d="M61.6056 77.7394C62.2201 77.8325 62.8347 77.8698 63.4492 77.8139C63.803 77.7953 63.803 77.2366 63.4492 77.2552C62.8905 77.2925 62.3133 77.2738 61.7546 77.1994C61.4008 77.1435 61.2518 77.6835 61.6056 77.7394Z" fill="#101010"/>
<path d="M54.1201 75.3378C53.878 75.6357 53.6359 75.8592 53.3008 76.064C53.4311 76.1944 53.5615 76.3247 53.6918 76.4551C53.8594 76.1199 54.027 75.8033 54.1946 75.4681C54.2877 75.2819 54.4367 75.0584 54.4367 74.8536C54.4367 74.686 54.3622 74.5556 54.1946 74.4812C54.1387 74.4439 53.9711 74.4625 53.9339 74.4439C53.7477 74.2949 53.9525 74.0156 54.0456 73.8853C54.2691 73.6059 53.7849 73.3266 53.5615 73.6059C53.2821 73.9784 53.0587 74.537 53.5056 74.8908C53.5801 74.9467 53.6359 74.9653 53.7477 75.0026C54.027 75.1143 53.8594 74.9095 53.7849 75.0398C53.5987 75.4309 53.3939 75.8033 53.2076 76.1944C53.0959 76.4365 53.338 76.7344 53.5987 76.5854C53.9525 76.362 54.2691 76.1013 54.5298 75.7847C54.7346 75.4495 54.3436 75.0584 54.1201 75.3378Z" fill="#101010"/>
<path d="M67.9923 93.6981C67.8061 93.847 67.6943 94.1077 67.713 94.3498C67.7316 94.4988 67.8247 94.6292 67.9923 94.6292C68.1413 94.6292 68.2902 94.4988 68.2716 94.3498C68.253 94.2195 68.2902 94.1636 68.3833 94.0891C68.4951 93.996 68.4765 93.7912 68.3833 93.6981C68.2716 93.5863 68.1226 93.605 67.9923 93.6981Z" fill="#101010"/>
<path d="M69.2595 94.4807C68.943 94.6111 68.6823 94.8159 68.4588 95.0766C68.3657 95.1883 68.3471 95.3559 68.4588 95.4677C68.5519 95.5608 68.7568 95.5794 68.8499 95.4677C69.0361 95.2442 69.2595 95.0766 69.5389 94.9462C69.6692 94.8904 69.7065 94.6855 69.632 94.5552C69.5575 94.4435 69.4085 94.4248 69.2595 94.4807Z" fill="#101010"/>
<path d="M69.7803 95.002C69.7803 95.0951 69.7803 95.1882 69.7803 95.2813C69.7803 95.4303 69.9106 95.5606 70.0596 95.5606C70.2086 95.5606 70.3389 95.4303 70.3389 95.2813C70.3389 95.1882 70.3389 95.0951 70.3389 95.002C70.3389 94.853 70.2086 94.7227 70.0596 94.7227C69.9106 94.7227 69.7803 94.853 69.7803 95.002Z" fill="#101010"/>
<path d="M71.4178 92.2644C72.6282 91.2961 73.8573 90.365 75.1236 89.4712C75.4215 89.2663 75.1422 88.7822 74.8442 88.987C73.5407 89.8995 72.2558 90.8678 71.0268 91.8734C70.7474 92.0968 71.1385 92.4879 71.4178 92.2644Z" fill="#101010"/>
<path d="M72.2761 112.302C71.2705 112.413 68.1234 112.022 67.2296 111.743C66.2426 111.426 65.535 111.017 64.6598 110.421C62.8907 109.192 61.4382 107.497 60.1719 105.728C59.0732 104.201 57.7697 101.836 58.8684 100.011C59.8553 98.3911 62.2948 97.6649 63.7659 96.5848C65.7026 95.1882 66.7454 92.9908 68.44 91.3707C67.3041 91.9666 66.1309 92.6556 64.9577 93.177C63.8404 93.6798 62.09 93.6798 61.1216 94.3316C61.3265 94.3502 61.5313 94.4619 61.7548 94.4619C61.3265 96.082 58.198 94.6854 57.3228 94.555C57.4717 94.6482 57.5649 94.7971 57.658 94.8902C56.9503 95.2254 55.5351 94.6854 54.7716 94.5364C53.4681 94.2943 52.9839 93.3819 51.9038 92.8046C51.9038 93.0467 51.7548 93.2515 51.7921 93.5122C51.2148 93.2329 50.6189 92.5998 50.2651 92.0597C49.9858 91.6314 49.8182 90.8679 49.4085 90.6258C49.4085 90.8493 49.2595 90.9797 49.2223 91.0728C48.794 90.1417 48.105 89.2478 47.9932 88.2236C47.5277 90.0113 47.6394 92.4322 48.0864 94.2385C48.3843 95.393 48.6264 96.6034 49.2781 97.609C49.9113 98.596 50.6003 99.5084 51.1031 100.57C51.5873 101.613 51.55 101.482 52.1459 102.413C51.848 102.283 52.4811 102.562 52.2763 102.339C53.4308 103.289 54.5295 104.238 55.5165 105.505C56.3358 106.566 57.1924 107.59 57.8814 108.726C57.7138 108.503 57.6207 108.261 57.509 108.019C58.1235 108.819 59.0174 109.248 59.9112 109.769C60.7678 110.272 61.6803 110.551 62.5369 110.961C64.1384 111.724 66.1681 112.022 67.9372 112.469C68.9614 112.73 70.5443 112.655 71.5498 112.395C71.3264 112.637 73.0582 112.432 72.2761 112.302Z" fill="#101010"/>
<path d="M57.9367 77.0508C58.5884 77.2184 59.2588 77.3673 59.9106 77.5349C60.2644 77.6281 60.4134 77.088 60.0596 76.9949C59.4078 76.8273 58.7374 76.6783 58.0857 76.5107C57.7318 76.4176 57.5829 76.9577 57.9367 77.0508Z" fill="#101010"/>
<path d="M57.6354 7.44904C46.0159 8.45354 34.8692 13.0584 25.9807 20.6293C17.4391 27.9107 11.1736 37.7108 8.17181 48.5341C5.03409 59.9448 5.6182 72.3027 9.80859 83.3702C13.8307 93.9876 21.1193 103.251 30.473 109.701C39.9251 116.217 51.2576 119.713 62.7139 119.633C74.4116 119.55 85.9639 115.784 95.4299 108.888C104.563 102.225 111.605 92.8237 115.365 82.1775C119.292 71.09 119.591 58.8429 116.292 47.5512C113.099 36.6405 106.509 26.8539 97.6742 19.7282C88.7391 12.5181 77.6482 8.14697 66.1953 7.39138C63.354 7.1867 60.4945 7.20644 57.6354 7.44904C57.2849 7.47878 57.3318 8.03201 57.6823 8.00228C69.1388 7.04875 80.6929 9.65317 90.6068 15.48C100.287 21.1782 108.156 29.8347 112.886 40.0391C117.797 50.6182 119.249 62.6982 117.004 74.1259C114.855 85.137 109.294 95.3602 101.283 103.209C93.135 111.182 82.5889 116.516 71.3366 118.344C59.9183 120.186 48.0657 118.442 37.6901 113.305C27.7206 108.356 19.3363 100.411 13.8689 90.7153C8.11944 80.5417 5.74639 68.5584 7.102 56.9461C8.41825 45.7457 13.1805 35.0887 20.638 26.6363C28.1108 18.1454 38.13 12.0759 49.1228 9.37866C51.9444 8.69346 54.8032 8.228 57.6807 7.98383C58.0328 7.97254 57.9858 7.4193 57.6354 7.44904Z" fill="#101010"/>
<circle cx="62.4738" cy="62.9992" r="61.9738" stroke="#F0014F"/>
</svg>
