<svg width="126" height="126" viewBox="0 0 126 126" fill="none" xmlns="http://www.w3.org/2000/svg">
<ellipse cx="62.9503" cy="62.8255" rx="55.8801" ry="56.0642" transform="rotate(-4.85 62.9503 62.8255)" fill="#F5F5FD"/>
<path d="M47.2394 74.5126C48.3314 73.0751 50.2787 74.0119 51.7563 74.0359C53.2911 74.0738 54.5906 72.8802 56.1056 73.1252C56.8631 73.2477 57.5653 73.5991 58.3382 73.6829C58.9797 73.7592 59.6087 73.6872 60.2498 73.5394C61.6419 73.2158 62.8849 72.4566 64.0072 71.5956C64.2882 71.385 63.9691 70.9264 63.6881 71.137C62.3389 72.1854 60.7562 73.1229 58.9834 73.1425C57.4534 73.1603 56.1784 72.2225 54.6289 72.6715C53.8627 72.886 53.1338 73.3214 52.3396 73.4261C51.4727 73.5557 50.6269 73.2726 49.7782 73.1765C48.6838 73.0452 47.5388 73.1984 46.8323 74.1175C46.5979 74.4363 47.0203 74.7927 47.2394 74.5126Z" fill="#101010"/>
<path d="M63.4764 71.5101C62.6336 73.2439 60.9025 74.1939 59.1119 74.6634C57.3754 75.1096 55.5908 75.4291 53.8263 75.7656C53.4771 75.8326 53.5243 76.3889 53.8735 76.3219C55.8404 75.9496 57.9063 75.6435 59.8157 75.0332C61.5629 74.4928 63.1717 73.4224 63.9822 71.7473C64.1424 71.4349 63.6367 71.1976 63.4764 71.5101Z" fill="#101010"/>
<path d="M63.72 68.221C65.5088 68.6109 66.0449 70.5265 66.4383 72.0808C66.5238 72.4284 67.049 72.2344 66.9635 71.8868C66.5141 70.1132 65.8404 68.1158 63.8228 67.6706C63.4811 67.6062 63.3784 68.1566 63.72 68.221Z" fill="#101010"/>
<path d="M46.6058 74.5481C46.9922 75.58 48.0565 76.2368 49.1645 76.0867C49.5152 76.0383 49.468 75.482 49.1173 75.5304C48.2689 75.6584 47.4259 75.1883 47.131 74.3541C47.0084 74.0097 46.4832 74.2037 46.6058 74.5481Z" fill="#101010"/>
<path d="M47.0576 73.6888C47.5277 72.8457 48.0811 71.8836 49.0652 71.5946C49.8685 71.377 50.5601 71.8227 51.3638 71.8292C51.9804 71.8329 52.5534 71.5414 53.1389 71.3984C54.1076 71.1481 55.103 71.213 56.0708 71.3924C58.7083 71.8784 61.5664 73.2048 64.06 71.555C64.3611 71.3614 64.042 70.9028 63.7409 71.0965C60.6467 73.1521 57.0026 70.2674 53.6974 70.7159C52.829 70.827 51.9766 71.3476 51.0909 71.2546C50.4679 71.1768 49.8832 70.8902 49.2373 70.9823C47.9085 71.1698 47.153 72.3919 46.5518 73.4515C46.373 73.7655 46.8788 74.0028 47.0576 73.6888Z" fill="#101010"/>
<path d="M52.3894 66.3051C52.1595 65.5775 52.3537 65.2248 52.9503 65.2115C53.1527 65.1757 53.3752 65.1568 53.5777 65.1209C53.8172 65.0819 54.0397 65.063 54.2792 65.024C54.6761 64.8596 54.7412 64.9662 54.5083 65.3035C54.2179 65.4028 54.3145 65.8802 54.6282 65.8349C55.682 65.7082 57.9306 65.5734 58.4698 64.4443C58.9629 63.4313 58.0481 62.5563 57.1621 62.2393C56.8342 62.1177 56.5784 62.625 56.9248 62.745C57.3284 62.8789 57.8326 63.0976 57.9816 63.5332C58.2627 64.4246 57.4732 64.5849 56.948 64.7789C56.1849 65.0305 55.3937 65.1723 54.5794 65.2601C54.6137 65.4439 54.6665 65.6262 54.6992 65.7916C55.1533 65.641 55.8064 65.1933 55.4223 64.6282C54.9762 63.9937 53.4701 64.5137 52.8999 64.6181C52.2016 64.7521 51.3181 65.1259 51.3534 65.9821C51.3651 66.5601 51.8818 66.9271 52.4334 66.8243C52.7858 66.7944 52.7571 66.2365 52.3894 66.3051Z" fill="#101010"/>
<path d="M52.1206 66.4599C50.4425 66.7144 48.5729 66.0325 47.9074 64.352C47.6452 63.6832 47.5791 62.9043 47.782 62.2147C48.0127 61.4107 48.6239 60.9105 49.0711 60.2375C50.4482 58.1969 50.0205 55.3568 51.7905 53.5443C52.0482 53.2797 51.6072 52.9248 51.368 53.1879C50.3372 54.2467 50.007 55.6381 49.6784 57.0482C49.471 57.9063 49.2838 58.7813 48.846 59.5656C48.4252 60.3297 47.7244 60.8748 47.3825 61.6883C46.0781 64.806 49.181 67.4752 52.1694 67.0348C52.517 66.9493 52.4698 66.393 52.1206 66.4599Z" fill="#101010"/>
<path d="M52.5957 53.1218C54.0925 53.5925 54.1685 55.8087 54.7391 57.0303C55.2182 58.0543 55.8934 58.9683 56.7909 59.6392C58.7451 61.0984 61.237 61.4099 63.6 61.3028C66.0742 61.1862 68.3146 60.7347 69.8353 58.6258C71.373 56.4968 71.6116 53.8056 71.787 51.2506C71.8127 50.8935 71.2624 50.7908 71.2366 51.1479C71.0596 53.6844 70.8412 56.3925 69.2431 58.4706C67.5432 60.6693 64.644 60.8406 62.0582 60.7425C59.5836 60.635 57.026 59.7687 55.644 57.5699C54.6695 55.9903 54.7503 53.2005 52.6969 52.5529C52.3536 52.4699 52.2509 53.0203 52.5957 53.1218Z" fill="#101010"/>
<path d="M53.9654 51.2123C53.9496 53.0067 54.3122 54.6383 55.0488 56.2754C55.7404 57.823 56.4471 59.1079 58.0247 59.8705C61.0841 61.3666 64.9809 61.727 68.0261 59.9744C70.9632 58.2684 70.969 53.9347 70.606 50.977C70.4339 49.6095 69.928 48.2703 68.6226 47.6339C67.1224 46.902 65.1611 46.9004 63.5043 46.9662C61.3469 47.0746 59.2008 47.5368 57.1727 48.2879C55.8319 48.7753 53.7773 49.4352 53.9654 51.2123C53.9953 51.5646 54.5517 51.5174 54.5218 51.1651C54.3478 49.5549 57.019 48.8987 58.2194 48.5167C59.673 48.0384 61.1779 47.724 62.717 47.5934C64.2361 47.4458 65.8435 47.4588 67.3494 47.8167C69.1027 48.2282 69.8603 49.4527 70.0622 51.1726C70.363 53.8367 70.448 57.9199 67.8337 59.4678C65.1298 61.0607 61.6752 60.8495 58.8466 59.6514C57.9744 59.2771 57.2288 58.8547 56.6419 58.1014C56.1603 57.4885 55.85 56.6931 55.5274 55.9733C54.8559 54.4427 54.5352 52.8636 54.5419 51.1821C54.529 50.8096 53.9726 50.8568 53.9654 51.2123Z" fill="#101010"/>
<path d="M50.5108 50.1225C52.3078 50.8292 53.9569 49.7927 55.4872 48.8971C57.6954 47.6264 60.0561 47.0525 62.5781 46.8385C64.9889 46.634 67.2946 46.513 69.6633 47.1339C71.2683 47.558 72.8424 48.0595 74.4457 48.4651C74.789 48.548 74.8917 47.9977 74.5484 47.9147C72.9822 47.506 71.4282 47.0215 69.8604 46.5942C67.7576 46.0255 65.7994 46.0609 63.625 46.1894C61.4692 46.3163 59.2888 46.5947 57.2638 47.3829C55.2743 48.1494 52.9703 50.4928 50.728 49.5997C50.4187 49.4766 50.1814 49.9823 50.5108 50.1225Z" fill="#101010"/>
<path d="M71.7237 52.2642C71.9066 51.5576 72.2428 51.1182 72.9783 50.9811C73.5299 50.8782 74.0463 51.0212 74.5182 51.2987C74.7146 51.4127 74.923 51.227 74.9242 51.0214C74.9069 50.8174 74.6885 48.4639 74.6885 48.4639C75.0346 48.3598 74.8406 47.8346 74.4946 47.9387C74.1671 48.0412 74.1721 48.3209 74.1772 48.6007C74.1908 49.4213 74.2971 50.2341 74.3478 51.0516C74.4898 50.9649 74.6118 50.8611 74.7538 50.7744C74.0469 50.3674 73.1967 50.2528 72.4182 50.543C71.6381 50.8146 71.3499 51.3807 71.1532 52.1445C71.0904 52.5047 71.6408 52.6074 71.7237 52.2642Z" fill="#101010"/>
<path d="M75.372 51.2443C77.7885 51.7677 80.1742 52.3684 82.5476 53.0448C83.6763 53.36 84.8082 53.7122 85.9215 54.066C87.0921 54.4336 88.4989 54.7251 89.48 55.5011C89.7601 55.7201 90.1165 55.2977 89.8364 55.0786C88.9946 54.4029 87.9262 54.1387 86.9273 53.8126C85.7367 53.428 84.5275 53.0449 83.3214 52.699C80.7361 51.9471 78.12 51.2726 75.4747 50.6939C75.1145 50.6311 75.0118 51.1815 75.372 51.2443Z" fill="#101010"/>
<path d="M75.3005 48.6164C78.2058 49.3972 81.0941 50.1981 83.9255 51.2092C86.2945 52.0541 89.0885 52.8444 90.682 54.8944C90.9111 55.1738 91.3697 54.8548 91.1405 54.5754C89.5084 52.5099 86.8782 51.6684 84.4906 50.8251C81.5045 49.7523 78.4616 48.8899 75.4033 48.0661C75.06 47.9831 74.9557 48.5149 75.3005 48.6164Z" fill="#101010"/>
<path d="M36.7299 51.2544C36.0805 53.0652 36.2394 54.9382 36.4555 56.8249C36.6559 58.5263 37.0062 60.2336 38.4792 61.304C39.6737 62.1739 41.0771 62.2042 42.4911 62.1402C43.7553 62.0703 45.1339 62.0281 46.2983 61.4436C49.072 60.0129 49.6729 56.7494 50.1447 53.9451C50.4221 52.3713 50.2714 50.8151 48.8295 49.8915C47.7033 49.1653 46.3753 48.9231 45.063 48.8663C43.4679 48.7775 42.1453 49.0392 40.5879 49.3955C39.2499 49.6958 37.6322 50.0011 36.7824 51.2126C36.5835 51.5096 37.006 51.866 37.2049 51.569C37.8218 50.6948 38.8785 50.381 39.8657 50.1291C41.0352 49.8244 42.3081 49.4176 43.5198 49.3895C45.8473 49.3041 49.7394 49.6089 49.724 52.7293C49.7138 54.1497 49.2865 55.7175 48.9161 57.0751C48.5271 58.4342 47.8612 59.6114 46.7405 60.4909C45.9701 61.0979 45.0942 61.3404 44.1516 61.4577C42.9308 61.5986 41.5802 61.7506 40.3651 61.5175C38.2981 61.1512 37.3789 59.3428 37.1056 57.4422C36.8275 55.4859 36.5771 53.4153 37.2558 51.5086C37.3573 51.1638 36.8516 50.9265 36.7299 51.2544Z" fill="#101010"/>
<path d="M35.1943 50.5444C35.1136 51.3544 35.0514 52.1628 34.9723 52.9914C34.9466 53.3484 35.4969 53.4512 35.5227 53.0941C35.6034 52.2841 35.6655 51.4757 35.7446 50.6472C35.7905 50.3071 35.2386 50.1858 35.1943 50.5444Z" fill="#101010"/>
<path d="M35.1671 53.3107C35.8555 53.7193 36.141 54.4421 36.2611 55.1977C36.3096 55.5485 36.8659 55.5013 36.8175 55.1505C36.6599 54.174 36.2691 53.3106 35.4044 52.805C35.1089 52.6246 34.8717 53.1303 35.1671 53.3107Z" fill="#101010"/>
<path d="M35.6239 50.7697C40.4066 49.2432 45.761 47.6309 50.5112 50.1228C50.8236 50.2831 51.0609 49.7774 50.7484 49.6171C45.8622 47.062 40.3393 48.6699 35.4299 50.2445C35.0855 50.3671 35.2794 50.8923 35.6239 50.7697Z" fill="#101010"/>
<path d="M43.3635 62.0661C45.3647 61.8776 47.4828 61.3056 48.6594 59.5435C49.2901 58.6121 49.5867 57.485 49.8896 56.432C50.2785 55.0729 50.7265 52.8683 52.58 53.1406C52.9386 53.1848 53.0429 52.653 52.6827 52.5902C50.1104 52.2108 49.676 55.2361 49.1038 57.0777C48.7224 58.3054 48.2265 59.5055 47.1737 60.3046C46.0498 61.1471 44.6514 61.3965 43.2993 61.5299C42.947 61.5598 42.9942 62.1161 43.3635 62.0661Z" fill="#101010"/>
<path d="M44.3949 48.4755C44.2296 48.5082 44.1945 48.754 44.3167 48.8743C44.439 48.9947 44.6091 49.0176 44.7775 49.022C45.1733 49.0631 45.5488 49.0873 45.9446 49.1284C46.1517 49.1482 46.3588 49.168 46.5676 49.2063C46.8721 49.2739 47.1613 49.3801 47.4335 49.5064C47.8402 49.6774 48.2485 49.8668 48.6245 50.1151C49.4971 50.7135 50.0705 51.7481 50.1045 52.8098C50.1301 53.3307 50.0242 53.8439 49.9369 54.3556C49.8709 54.6788 49.8235 55.0003 49.7575 55.3234C50.112 54.6583 50.485 53.9916 50.8395 53.3265C51.1955 52.6799 52.1985 52.6135 52.8604 52.9309C53.5224 53.2483 54.0056 53.8797 54.3049 54.5453C54.6057 55.2296 54.7784 55.9433 55.0252 56.6508C55.2704 57.3398 55.6285 58.0378 56.2087 58.4929C56.1832 57.9721 55.8642 57.5135 55.6193 57.0487C54.7205 55.4813 54.3035 53.6489 54.2622 51.8407C54.2489 51.2441 54.2727 50.6444 54.5068 50.1016C54.7595 49.5572 55.2969 49.2874 55.8608 49.1089C58.7341 48.1927 61.7124 47.1928 64.7725 47.1573C65.8544 47.1402 66.9859 47.2683 67.9465 47.8032C69.4361 48.6294 70.2733 50.3514 70.4536 52.0358C70.6338 53.7201 70.2933 55.43 69.9311 57.1044C70.5455 56.6414 70.872 55.8665 71.0316 55.1059C71.1912 54.3452 71.1993 53.5601 71.3774 52.7979C71.537 52.0372 71.9022 51.2778 72.5367 50.8317C73.1914 50.4026 74.1635 50.4135 74.6451 51.0264C74.602 50.0775 74.5387 49.1116 74.4955 48.1627C68.3065 45.6621 61.0145 45.5711 55.1152 48.6865C54.3106 49.1097 53.5478 49.5853 52.6734 49.8463C51.799 50.1072 50.8316 50.152 50.0458 49.6957C48.2824 48.7246 46.4005 48.1185 44.3949 48.4755Z" fill="#101010"/>
<path d="M35.4222 51.0297C35.4452 50.8597 35.4665 50.6711 35.5668 50.5318C35.701 50.3524 35.9373 50.2763 36.1551 50.2018C38.1248 49.6424 40.1225 49.1927 42.1313 48.8728C42.2055 48.8666 42.2796 48.8603 42.3214 48.9128C42.3632 48.9652 42.3526 49.0595 42.3001 49.1013C42.2476 49.1432 42.175 49.168 42.1024 49.1928C41.3176 49.4088 40.5343 49.6434 39.7495 49.8594C39.2752 49.993 38.801 50.1267 38.3701 50.3313C37.9392 50.536 37.5161 50.8334 37.2308 51.2125C36.8452 51.7308 36.6947 52.3786 36.6354 53C36.5776 53.64 36.594 54.2736 36.4992 54.9167C36.3592 54.3682 36.0926 53.8679 35.7195 53.4326C35.574 53.2582 35.297 53.0762 35.2411 52.8568C35.1851 52.6375 35.2696 52.3128 35.3064 52.0855C35.3538 51.764 35.3795 51.4069 35.4222 51.0297Z" fill="#101010"/>
<path d="M90.7564 54.2353C90.9591 54.4236 91.1899 54.7215 91.0434 54.9767C90.9617 55.1144 90.7995 55.1842 90.6342 55.2169C89.5527 55.4581 88.5732 54.7007 87.5479 54.2834C85.7864 53.555 83.8663 53.1576 82.031 52.6597L81.8695 50.0958C81.86 49.9846 82.6829 50.4377 82.7602 50.4685C83.1299 50.6426 83.5844 50.7161 83.9694 50.8515C84.7936 51.0991 85.6209 51.3838 86.4312 51.6886C87.9962 52.3029 89.5028 53.109 90.7564 54.2353Z" fill="#101010"/>
<path d="M79.1165 49.1338C78.8273 49.0276 78.529 49.0343 78.265 49.2248C77.9485 49.4571 77.9228 49.8141 77.8971 50.1712C77.8503 50.9409 77.8454 51.7632 78.7776 51.9642C79.1394 52.0456 79.2236 51.4968 78.8804 51.4139C78.3856 51.3064 78.422 50.8551 78.4446 50.4609C78.4613 50.2167 78.4169 49.4734 78.8792 49.6396C79.2071 49.7612 79.4629 49.2539 79.1165 49.1338Z" fill="#101010"/>
<path d="M76.2804 48.9449C76.3185 49.6141 76.2809 50.271 76.3004 50.9417C76.3149 51.3327 76.5193 51.5395 76.9166 51.5992C77.2752 51.6435 77.3779 51.0931 77.0193 51.0488C76.7163 50.9998 76.8806 50.2948 76.8771 50.0336C76.8827 49.6596 76.8682 49.2686 76.8553 48.8961C76.8254 48.5438 76.2691 48.591 76.2804 48.9449Z" fill="#101010"/>
<path d="M85.6421 71.8897C86.9148 72.3607 87.9661 71.5431 88.9093 70.772C90.0624 69.8336 91.3871 68.9368 92.356 67.8086C93.3604 66.6587 93.712 65.0787 94.1905 63.6746C94.6706 62.2891 95.2419 60.8771 95.4159 59.4055C95.6998 57.028 94.452 54.6498 91.8291 54.5548C89.5447 54.4871 87.8772 56.6271 88.1942 58.8229C88.2427 59.1737 88.799 59.1264 88.7506 58.7757C88.4024 56.4332 90.6033 54.416 92.9029 55.3229C95.3184 56.2759 95.0692 59.0614 94.4587 61.1117C94.125 62.242 93.714 63.3415 93.3401 64.4378C92.9816 65.4955 92.6617 66.5686 91.932 67.4337C91.2192 68.2786 90.2295 68.9416 89.3743 69.6492C88.4667 70.3986 87.1706 71.8534 85.8778 71.3654C85.5515 71.2623 85.2957 71.7696 85.6421 71.8897Z" fill="#101010"/>
<path d="M81.8126 82.2446C83.2872 81.3537 84.0933 79.8471 84.5916 78.2359C85.2345 76.1268 85.6083 73.9285 86.0795 71.7779C86.1624 71.4347 85.6121 71.332 85.5291 71.6752C85.1239 73.5027 84.7557 75.327 84.3117 77.139C83.8694 78.9696 83.1812 80.765 81.4935 81.7861C81.1739 81.9813 81.4929 82.4398 81.8126 82.2446Z" fill="#101010"/>
<path d="M87.6331 71.3655C86.2333 75.7801 85.2415 80.1602 85.148 84.7815C85.0914 87.1957 85.2032 89.6143 85.6488 92.0046C86.1413 94.7271 87.3196 97.1673 88.5196 99.643C88.6777 99.9658 89.2029 99.7718 89.0448 99.449C87.8231 96.9378 86.62 94.425 86.1413 91.6453C85.7592 89.343 85.6584 87.0542 85.7043 84.7343C85.801 80.1501 86.7975 75.8257 88.1835 71.4682C88.3035 71.1218 87.7531 71.0191 87.6331 71.3655Z" fill="#101010"/>
<path d="M45.8336 75.5472C47.1785 74.6673 46.1235 73.0198 46.2267 71.8157C46.2525 71.4586 45.7207 71.3543 45.6764 71.7129C45.5743 72.7115 46.5413 74.4225 45.496 75.0902C45.2135 75.2823 45.5325 75.7408 45.8336 75.5472Z" fill="#101010"/>
<path d="M41.4274 62.1558C40.6772 68.9434 41.8063 75.6462 44.3582 81.9482C44.9989 83.5562 45.7107 85.1207 46.441 86.6837C46.9667 87.8158 47.3782 89.1444 48.242 90.0797C49.0625 90.9439 50.1755 91.0736 51.3177 91.1075C52.9081 91.1406 54.238 91.6254 55.7518 92.076C58.0139 92.7619 60.6833 91.863 62.8724 91.2477C63.2184 91.1436 63.0244 90.6184 62.6784 90.7225C60.7998 91.2554 58.512 92.0286 56.5425 91.7101C55.312 91.5156 54.1751 90.8837 52.9429 90.6707C51.6536 90.4439 50.1534 90.814 49.0225 90.0321C47.91 89.2487 47.4981 87.696 46.9477 86.4913C46.2639 85.0364 45.5986 83.58 44.9859 82.0817C43.7852 79.1578 42.8209 76.1578 42.2753 73.0289C41.6563 69.4767 41.5535 65.8432 41.9391 62.2431C42.022 61.8998 41.4717 61.7971 41.4274 62.1558Z" fill="#101010"/>
<path d="M46.0064 91.4467C47.8443 92.6356 47.2228 94.5561 46.3272 96.1076C46.1484 96.4216 46.6542 96.6589 46.833 96.3449C47.4033 95.3626 47.9674 94.3061 47.7554 93.1287C47.5825 92.1909 47.0342 91.4529 46.2437 90.941C45.9482 90.7606 45.711 91.2664 46.0064 91.4467Z" fill="#101010"/>
<path d="M50.8945 94.2634C49.7424 95.8741 49.9865 97.8705 50.164 99.7419C50.3978 102.057 50.6734 104.424 51.4757 106.616C52.3262 108.935 53.8822 110.764 55.426 112.669C56.2405 113.683 57.0565 114.716 57.888 115.71C58.6792 116.67 59.4101 117.579 59.4074 118.868C59.4002 119.224 59.9565 119.176 59.9637 118.821C59.9824 116.839 58.3047 115.338 57.1558 113.904C55.6321 112.016 53.8488 110.15 52.7127 107.987C51.6215 105.913 51.2007 103.595 50.9129 101.303C50.6609 99.2141 50.0354 96.4656 51.3541 94.6167C51.536 94.3397 51.0934 93.9664 50.8945 94.2634Z" fill="#101010"/>
<path d="M50.9807 94.1801C47.5589 95.2363 45.0633 98.6232 44.2694 102.034C43.7489 104.263 44.5264 106.383 44.862 108.577C45.2381 111.029 45.2604 113.493 45.0014 115.943C44.9571 116.301 45.5074 116.404 45.5517 116.045C45.7759 114.065 45.8116 112.064 45.6247 110.081C45.4204 107.894 44.5609 105.689 44.6364 103.497C44.79 99.8044 47.6448 95.808 51.1933 94.7037C51.5208 94.6012 51.3268 94.0761 50.9807 94.1801Z" fill="#101010"/>
<path d="M50.799 117.786C52.2847 117.025 54.168 116.548 55.8235 116.688C57.4975 116.826 58.5003 117.637 59.4204 119.016C59.614 119.317 60.0726 118.998 59.8789 118.697C58.9572 117.3 57.9064 116.361 56.1905 116.171C54.3417 115.954 52.2529 116.43 50.6066 117.28C50.3024 117.436 50.4778 117.963 50.799 117.786Z" fill="#101010"/>
<path d="M63.5076 119.192C64.7251 117.912 66.2956 117.05 68.051 116.826C68.9009 116.717 69.7634 116.756 70.5998 116.928C71.076 117.037 71.5553 117.183 72.0007 117.369C72.194 117.446 73.258 117.879 73.2568 118.084C73.3416 117.984 73.4265 117.883 73.5114 117.783C73.4928 117.784 73.4743 117.786 73.4557 117.787C73.1034 117.817 73.1506 118.374 73.5029 118.344C73.5215 118.342 73.54 118.341 73.5586 118.339C73.7255 118.325 73.8072 118.187 73.8131 118.037C73.8306 117.363 72.4297 116.922 71.9472 116.739C70.9235 116.34 69.8429 116.151 68.7626 116.187C66.5819 116.241 64.5572 117.254 63.065 118.818C62.8274 119.1 63.2685 119.455 63.5076 119.192Z" fill="#101010"/>
<path d="M67.8502 116.676C73.0591 114.889 77.6106 111.738 81.6466 108.015C83.7256 106.102 85.6621 104.051 87.5182 101.932C88.5057 100.803 89.3803 99.6637 90.8075 99.0943C91.8733 98.6677 92.9331 98.391 93.7169 97.5027C93.9561 97.2396 93.532 96.8647 93.2945 97.1463C92.3903 98.1569 91.001 98.2935 89.8583 98.9134C88.8406 99.4667 88.1326 100.367 87.3827 101.215C85.5605 103.294 83.678 105.321 81.6547 107.23C77.5895 111.049 72.9563 114.337 67.6377 116.152C67.3303 116.271 67.5227 116.778 67.8502 116.676Z" fill="#101010"/>
<path d="M86.4338 93.7682C88.2647 94.4347 90.1695 94.8708 92.1078 95.0425C93.9906 95.2189 95.9767 95.2932 97.2341 96.9049C98.9731 99.1294 98.7865 102.433 101.163 104.248C101.443 104.467 101.818 104.043 101.52 103.826C99.0825 101.959 99.3939 98.3653 97.3598 96.1845C96.2498 94.9899 94.6575 94.7141 93.0947 94.5665C90.892 94.3612 88.771 94.0182 86.6896 93.2609C86.3432 93.1409 86.0874 93.6482 86.4338 93.7682Z" fill="#101010"/>
<path d="M74.7024 25.0592C72.2929 21.9764 69.5414 18.605 65.4939 17.7904C63.3465 17.3563 61.191 17.7073 59.1178 18.3688C56.8455 19.1033 54.0822 20.2156 51.9714 18.4522C51.6897 18.2146 51.3349 18.6557 51.615 18.8747C52.9613 19.9932 54.7281 20.1234 56.3797 19.7778C58.8008 19.2549 61.0015 18.1156 63.544 18.1427C68.3491 18.2019 71.4999 21.8755 74.2423 25.3597C74.4545 25.6592 74.913 25.3402 74.7024 25.0592Z" fill="#101010"/>
<path d="M61.308 21.7502C58.6568 21.3215 55.9433 20.5992 53.2453 20.9402C50.9536 21.228 49.0343 22.3808 47.4975 24.0801C44.2325 27.6444 42.8837 33.1007 38.334 35.3919C38.0112 35.55 38.2052 36.0752 38.528 35.917C42.6468 33.8305 44.2242 29.3074 46.8216 25.7998C48.3301 23.7667 50.2393 22.0544 52.7949 21.5761C55.59 21.0587 58.4582 21.8426 61.2053 22.3006C61.5454 22.3465 61.6497 21.8146 61.308 21.7502Z" fill="#101010"/>
<path d="M44.0386 32.1619C41.9681 33.5143 40.4225 35.5505 39.6703 37.9117C39.318 39.0436 39.139 40.2355 39.1841 41.427C39.2248 42.787 39.9322 44.5201 39.084 45.7501C38.885 46.0471 39.3075 46.4035 39.5064 46.1064C40.1387 45.1936 40.0723 44.1907 39.927 43.1384C39.7411 41.828 39.6341 40.567 39.8964 39.256C40.4132 36.5412 42.02 34.1262 44.3577 32.6204C44.6588 32.4268 44.3397 31.9682 44.0386 32.1619Z" fill="#101010"/>
<path d="M41.3557 48.1159C43.319 46.3804 43.8555 43.4585 44.835 41.1341C46.0162 38.3256 47.5237 35.6202 49.7337 33.4902C50.8217 32.4453 52.0723 31.5547 53.4391 30.9344C54.8431 30.311 56.3203 30.1109 57.7834 29.744C59.8304 29.2154 61.4839 28.0105 61.8407 25.8323C61.9036 25.4721 61.3532 25.3694 61.2904 25.7296C60.8205 28.7766 57.9169 29.1163 55.4264 29.7012C52.9899 30.2628 50.8606 31.5828 49.1044 33.3381C47.2109 35.2358 45.8219 37.5763 44.739 40.0029C44.1567 41.285 43.6703 42.5964 43.1839 43.9077C42.6837 45.2763 42.1866 46.6819 41.0551 47.6558C40.7572 47.8865 41.0763 48.3451 41.3557 48.1159Z" fill="#101010"/>
<path d="M59.2029 54.1668C59.8472 54.0561 60.3042 53.7185 60.792 53.3036C61.5777 52.6579 62.3794 52.4217 63.3903 52.448C64.4583 52.4882 65.4339 52.7603 66.4036 53.1823C67.1212 53.4949 67.7892 53.6624 68.5696 53.6148C68.9235 53.6035 68.8763 53.0472 68.5224 53.0585C67.4622 53.1111 66.6531 52.6008 65.6743 52.2916C64.9244 52.0377 64.1282 51.8998 63.3431 51.8917C62.6506 51.8758 61.9274 51.9371 61.2819 52.2534C60.5297 52.6347 60.0194 53.4438 59.1371 53.6121C58.8049 53.6589 58.8336 54.2168 59.2029 54.1668Z" fill="#101010"/>
<path d="M61.4007 52.5603C61.0237 53.6195 62.1565 54.6441 63.1504 54.6905C64.5199 54.7611 64.9692 53.4529 64.816 52.3078C64.7676 51.9571 64.2112 52.0043 64.2597 52.355C64.355 53.038 64.2853 53.9778 63.42 54.126C62.8112 54.215 61.6186 53.5877 61.8895 52.8177C62.0265 52.4512 61.5207 52.2139 61.4007 52.5603Z" fill="#101010"/>
<path d="M65.9567 54.0789C66.2345 53.8312 66.6271 53.8352 66.9779 53.7868C67.3286 53.7384 67.6794 53.6899 68.0302 53.6415C68.3809 53.593 68.3337 53.0367 67.983 53.0852C67.5209 53.143 67.0774 53.1993 66.6154 53.2572C66.2647 53.3057 65.9139 53.3541 65.6361 53.6018C65.3582 53.8495 65.6773 54.3081 65.9567 54.0789Z" fill="#101010"/>
<path d="M60.9015 54.1536C60.4467 53.856 59.9456 53.6744 59.4185 53.6257C59.0615 53.6 58.9587 54.1503 59.3158 54.1761C59.7486 54.2141 60.1692 54.3278 60.5451 54.5761C60.8421 54.775 61.197 54.334 60.9015 54.1536Z" fill="#101010"/>
<path d="M41.9883 61.7162C42.3899 60.5055 42.8826 59.2683 43.0754 58.0192C43.2683 56.7701 43.0686 55.517 42.8519 54.2839C42.6041 52.9042 42.344 51.6001 42.5227 50.1841C42.6844 48.7882 42.9219 47.4046 43.1223 46.0241C43.1666 45.6655 42.6162 45.5628 42.5719 45.9214C42.2217 48.3979 41.6782 50.7974 42.1131 53.282C42.3361 54.5892 42.6534 55.9071 42.5813 57.258C42.5186 58.7202 41.9256 60.0966 41.4825 61.479C41.3811 61.8238 41.8868 62.061 41.9883 61.7162Z" fill="#101010"/>
<path d="M43.8075 55.4166C44.668 54.1109 46.2404 53.4919 47.7313 54.1125C48.2354 54.3312 49.2338 55.3111 49.8234 54.7755C49.9283 54.6918 49.956 54.5774 49.9264 54.4492C49.9249 54.4306 49.9233 54.4121 49.9032 54.3951C49.7991 54.0491 49.2739 54.2431 49.378 54.5891C49.3796 54.6077 49.3811 54.6262 49.4012 54.6432C49.4289 54.5288 49.4767 54.4313 49.5043 54.3169C49.2959 54.5027 47.9484 53.5897 47.6036 53.4883C47.0469 53.3114 46.4456 53.269 45.8755 53.3734C44.8263 53.5558 43.9463 54.1908 43.3681 55.0804C43.1861 55.3573 43.6086 55.7137 43.8075 55.4166Z" fill="#101010"/>
<path d="M44.6885 54.3704C44.4287 55.2703 45.2274 56.099 46.1175 56.0235C46.5811 55.9842 47.0274 55.7409 47.3345 55.3973C47.6909 54.9748 47.7226 54.4678 47.6769 53.93C47.647 53.5777 47.0907 53.6249 47.1206 53.9772C47.1958 54.6433 46.9834 55.2216 46.2913 55.4298C45.6718 55.6131 45.0497 55.1055 45.2389 54.4731C45.3404 54.1283 44.79 54.0256 44.6885 54.3704Z" fill="#101010"/>
<path d="M48.0216 55.7884C48.4213 55.4369 48.8676 55.1936 49.3975 55.0552C49.7452 54.9697 49.5512 54.4445 49.2035 54.53C48.6365 54.6715 48.1378 54.9567 47.7041 55.3484C47.4416 55.5574 47.7607 56.0159 48.0216 55.7884Z" fill="#101010"/>
<path d="M44.2307 55.3442C43.8705 55.2814 43.4965 55.2758 43.1287 55.3443C42.7795 55.4113 42.8268 55.9676 43.1759 55.9007C43.4881 55.8368 43.8049 55.8286 44.128 55.8946C44.4866 55.9389 44.5893 55.3885 44.2307 55.3442Z" fill="#101010"/>
<path d="M45.1929 55.4672C45.5547 55.5485 46.3788 55.7961 46.6441 55.4001C46.9247 54.9653 46.1823 54.5801 45.9038 54.3796C45.8437 54.5528 45.8007 54.7058 45.7407 54.879C46.0405 54.8909 46.3866 54.7869 46.4695 54.4436C46.4972 54.3292 46.4846 54.1809 46.4195 54.0743C46.3327 53.9323 46.1828 53.9263 46.0822 53.8415C46.1071 53.9141 46.1489 53.9665 46.1737 54.0391C46.1706 54.0021 46.169 53.9835 46.1658 53.9464C46.081 54.047 45.9961 54.1476 45.9113 54.2482C46.2605 54.1812 46.6298 54.1312 46.9806 54.0828C46.9463 53.8989 46.8935 53.7166 46.8607 53.5513C46.4267 53.7188 46.1212 54.081 46.1049 54.5493C46.1021 54.7363 46.2074 54.8768 46.3945 54.8796C46.4501 54.8749 46.4872 54.8717 46.5428 54.867C46.4438 54.8007 46.3463 54.7529 46.2659 54.685C46.3388 54.8843 46.4441 55.0248 46.6051 55.1606C46.611 55.0106 46.617 54.8607 46.6229 54.7108C46.2492 54.9293 46.3983 55.3649 46.7616 55.4648C47.1049 55.5477 47.2076 54.9974 46.8643 54.9144C46.8257 54.899 46.8071 54.9006 46.7685 54.8852C46.8273 54.9176 46.8876 54.9685 46.9464 55.0009C46.9247 54.9653 46.9046 54.9484 46.9014 54.9113C46.9263 54.9839 46.9326 55.0581 46.9574 55.1307C46.9728 55.092 46.9712 55.0735 46.9866 55.0348C46.9543 55.0936 46.9033 55.1539 46.871 55.2127C46.9065 55.191 46.9235 55.1709 46.9605 55.1678C47.1212 55.0794 47.1192 54.8368 46.9784 54.718C46.8995 54.6686 46.836 54.5806 46.8096 54.4895C46.7615 54.3628 46.644 54.2981 46.5327 54.3075C46.4771 54.3123 46.44 54.3154 46.3843 54.3201C46.4865 54.4235 46.5902 54.5455 46.6738 54.6504C46.6873 54.3691 46.82 54.1711 47.0918 54.0733C47.3807 53.9554 47.2857 53.4965 46.972 53.5418C46.6212 53.5903 46.2519 53.6403 45.9027 53.7073C45.756 53.7384 45.634 53.8421 45.6482 54.009C45.6592 54.1388 45.6888 54.2671 45.8264 54.3488C45.8465 54.3657 45.927 54.4336 45.9625 54.4119C46.1231 54.3236 45.7321 54.3381 45.7321 54.3381C45.4895 54.34 45.3896 54.7034 45.5691 54.8376C45.7284 54.9548 46.1182 55.1458 46.1911 55.3451C46.2034 55.2694 46.1971 55.1952 46.2093 55.1194C46.1924 55.1396 46.1939 55.1581 46.177 55.1782C46.2295 55.1364 46.2804 55.076 46.3329 55.0342C46.0795 55.1304 45.6002 54.9843 45.3343 54.9322C44.9524 54.8339 44.8497 55.3842 45.1929 55.4672Z" fill="#101010"/>
<path d="M63.5477 53.8543C63.472 53.842 63.4132 53.8097 63.3544 53.7773C63.2925 53.7078 63.3063 53.6506 63.399 53.6428C63.4855 53.5607 63.5596 53.5544 63.6445 53.4538C63.7957 53.2542 63.6438 53.0056 63.3996 52.989C63.1569 52.9909 63.0777 52.7175 63.2707 52.5703C63.4976 52.383 63.3596 52.0772 63.0783 52.0637C62.6671 52.0612 62.2793 52.1128 61.8977 52.2386C61.6969 52.293 61.6479 52.596 61.8073 52.7132C61.8274 52.7302 62.33 52.9303 62.3036 52.8392C62.3498 52.7232 62.4145 52.6056 62.4607 52.4897C62.0961 52.5953 61.7966 52.8075 61.5807 53.1247C61.4481 53.3227 61.5644 53.593 61.8256 53.5895C61.9368 53.5801 62.0311 53.5907 62.1424 53.5813C62.198 53.5766 62.3495 53.6011 62.3109 53.5857C62.2691 53.5332 62.2087 53.4823 62.1669 53.4298C62.2367 53.592 62.2307 53.7419 62.3562 53.8994C62.4816 54.0568 62.6177 54.12 62.8094 54.1784C63.097 54.2661 63.2123 53.8641 63.0483 53.6912C62.8455 53.503 62.7694 53.2666 62.7644 52.9869C62.7486 52.8014 62.5522 52.6873 62.39 52.7571C61.718 52.9823 62.3081 53.7727 62.6438 53.987C62.9408 54.1859 63.2972 53.7635 63.0002 53.5645C62.9011 53.4982 62.8222 53.4489 62.7587 53.3609C62.7185 53.327 62.6968 53.2914 62.6751 53.2559C62.6503 53.1833 62.6132 53.1865 62.584 53.2823C62.4648 53.1991 62.3272 53.1173 62.2096 53.0526C62.2273 53.4807 62.4071 53.839 62.6934 54.1322C62.7736 53.976 62.8521 53.8012 62.9323 53.645C62.7019 53.5712 62.7848 53.2279 62.5682 53.0969C62.3702 52.9643 62.0226 53.0498 61.8001 53.0687C61.8884 53.2293 61.9566 53.3729 62.045 53.5335C62.2115 53.2953 62.4045 53.1481 62.6965 53.0673C62.8602 53.0161 62.9017 52.8445 62.8536 52.7178C62.8225 52.571 62.7203 52.4676 62.5842 52.4045C62.4682 52.3583 62.2658 52.3941 62.1869 52.3448C62.1624 52.4963 62.1395 52.6663 62.0964 52.8194C62.4425 52.7153 62.7747 52.6685 63.1302 52.6757C63.0604 52.5135 63.0076 52.3312 62.9378 52.169C62.308 52.6707 62.6478 53.5944 63.433 53.6025C63.3446 53.4419 63.2764 53.2983 63.1881 53.1377C63.0878 53.2769 62.8823 53.2757 62.765 53.4351C62.6818 53.5542 62.6573 53.7057 62.6884 53.8525C62.7739 54.2001 63.0848 54.3418 63.4095 54.4263C63.7898 54.5061 63.874 53.9573 63.5477 53.8543Z" fill="#101010"/>
<path d="M58.686 29.5756C61.6801 29.8632 64.7051 30.0735 67.7087 30.4724C70.2223 30.8194 72.873 31.9019 75.3565 30.7947C75.6809 30.6551 75.4869 30.1299 75.1625 30.2695C72.6419 31.3799 69.7344 30.1324 67.1498 29.8287C64.3766 29.5037 61.5943 29.2915 58.8072 29.0237C58.4301 28.981 58.3274 29.5314 58.686 29.5756Z" fill="#101010"/>
<path d="M66.8847 24.0786C69.9056 24.6815 71.7349 27.3093 73.846 29.2967C74.8412 30.2396 75.9615 31.1157 77.2373 31.6239C77.7971 31.8378 78.3692 31.9761 78.9519 32.02C79.7418 32.0837 80.5282 31.8863 81.2675 32.2344C81.5985 32.3931 81.8357 31.8874 81.5047 31.7287C80.9603 31.4761 80.4178 31.466 79.8012 31.4623C78.8878 31.4838 78.0577 31.3861 77.204 31.0103C75.7889 30.402 74.6157 29.3435 73.5523 28.257C71.6314 26.3094 69.7811 24.0944 66.9705 23.5484C66.6272 23.4655 66.5245 24.0158 66.8847 24.0786Z" fill="#101010"/>
<path d="M72.9771 22.3474C74.7963 22.4359 76.8746 23.1561 78.4648 24.0671C79.84 24.8656 80.294 26.6948 81.9005 27.1375C82.2453 27.239 82.3481 26.6887 82.0033 26.5872C80.9317 26.2859 80.5576 25.1783 79.8594 24.4344C79.3052 23.8463 78.62 23.4749 77.8839 23.1638C76.3125 22.4753 74.6532 21.8503 72.9283 21.7726C72.5744 21.7839 72.6401 22.3387 72.9771 22.3474Z" fill="#101010"/>
<path d="M80.7101 24.5494C83.0985 23.8611 85.0137 25.0808 85.6416 27.4182C86.1064 29.1532 88.3239 29.9736 89.7101 30.9019C91.432 32.0446 92.9101 33.3947 93.6564 35.3673C94.4044 37.3583 94.366 39.5469 93.5421 41.5032C93.4019 41.8327 93.9077 42.0699 94.0478 41.7405C94.8563 39.8228 94.9737 37.6836 94.3571 35.7C93.6861 33.5156 92.1675 31.9075 90.3048 30.646C89.2945 29.966 88.2349 29.3648 87.2416 28.6646C86.567 28.1989 86.2835 27.7186 86.0659 26.9153C85.954 26.4765 85.7694 26.0626 85.5308 25.6719C84.3938 23.938 82.3931 23.4727 80.479 24.0274C80.1701 24.1283 80.3641 24.6535 80.7101 24.5494Z" fill="#101010"/>
<path d="M74.946 33.4429C75.8162 34.4524 76.773 35.6039 77.9332 36.2899C78.4252 36.5844 78.9416 36.7273 79.4935 36.8486C80.3114 37.022 81.0089 37.3177 81.7545 37.7401C82.0685 37.9189 82.3057 37.4131 81.9917 37.2343C81.54 36.9738 81.0883 36.7133 80.5889 36.5502C79.9162 36.3271 79.2037 36.2942 78.5618 35.9938C77.3183 35.4269 76.2562 34.1349 75.386 33.1254C75.177 32.863 74.7184 33.182 74.946 33.4429Z" fill="#101010"/>
<path d="M78.3236 36.4818C76.9411 38.0186 76.7799 40.7406 77.0765 42.6952C77.2435 43.7831 77.5758 44.8382 78.0688 45.8049C78.6485 46.9138 79.5695 47.8629 79.6966 49.1408C79.7265 49.4932 80.2828 49.446 80.2529 49.0936C80.1805 48.2406 79.8024 47.5256 79.35 46.8169C78.7257 45.8426 78.1771 44.8805 77.8771 43.7666C77.3099 41.7042 77.2278 38.536 78.7662 36.8552C78.9853 36.5751 78.5628 36.2187 78.3236 36.4818Z" fill="#101010"/>
<path d="M80.742 53.3103C83.5769 54.5826 82.073 58.6512 82.8477 60.9575C83.4998 62.9194 85.4351 64.156 87.4706 64.1514C87.8261 64.1586 87.7789 63.6022 87.4234 63.5951C86.0973 63.5955 84.8136 62.9947 83.996 61.9434C83.0932 60.7686 83.0833 59.3313 83.1121 57.9093C83.1386 56.0206 82.9604 53.701 80.9792 52.8045C80.6668 52.6442 80.411 53.1516 80.742 53.3103Z" fill="#101010"/>
<path d="M87.6896 61.9108C87.054 61.6846 87.0018 60.8485 86.8788 60.2799C86.7496 59.6372 86.6203 58.9944 86.4926 58.3702C86.4256 58.021 85.8693 58.0682 85.9363 58.4174C86.1247 59.3166 86.259 60.2391 86.503 61.1336C86.6429 61.6821 86.8925 62.2026 87.4523 62.4166C87.7802 62.5382 88.0174 62.0324 87.6896 61.9108Z" fill="#101010"/>
<path d="M88.3116 60.6432C87.7802 58.7832 88.4696 56.7822 90.0149 55.6238C90.2959 55.4132 89.9768 54.9546 89.6958 55.1652C87.9405 56.4909 87.1959 58.7207 87.7864 60.8372C87.8904 61.1832 88.4156 60.9892 88.3116 60.6432Z" fill="#101010"/>
<path d="M90.5063 45.1407C90.1428 47.0206 90.9851 49.0224 91.853 50.6671C92.2746 51.4531 92.7858 52.1942 93.4204 52.8501C94.1557 53.5909 95.8319 54.1957 95.8723 55.3317C95.8836 55.6856 96.44 55.6384 96.4286 55.2845C96.3996 54.5025 95.9291 54.0194 95.3133 53.586C94.4423 53.0062 93.7026 52.4339 93.0893 51.5895C91.8844 49.936 90.6734 47.3305 91.0768 45.2604C91.1195 44.8832 90.5691 44.7805 90.5063 45.1407Z" fill="#101010"/>
<path d="M94.7302 55.2988C94.7629 55.4641 95.1887 56.9596 95.0048 56.9939C94.6588 57.0979 94.8512 57.6046 95.1988 57.5191C95.5464 57.4335 95.6463 57.0702 95.6196 56.7549C95.5724 56.1986 95.3752 55.6363 95.2554 55.1048C95.1885 54.7556 94.6633 54.9496 94.7302 55.2988Z" fill="#101010"/>
<path d="M91.7283 39.5091C91.8164 40.5475 92.4033 41.3009 93.0845 42.0649C94.0118 43.0882 94.8046 44.0669 95.2178 45.414C95.8824 47.5242 95.3377 50.1292 97.2982 51.6625C97.5783 51.8816 97.9347 51.4591 97.6546 51.2401C95.7544 49.7577 96.3761 46.9593 95.642 44.911C95.3022 43.9873 94.7816 43.1349 94.1406 42.4049C93.3742 41.5173 92.3916 40.7228 92.2862 39.4804C92.2547 39.1095 91.6984 39.1567 91.7283 39.5091Z" fill="#101010"/>
<path d="M79.5485 41.0281C79.7693 42.9705 80.6329 44.7837 82.0569 46.1571C82.789 46.8608 83.649 47.3108 84.5338 47.8334C85.8132 48.6027 86.4362 49.7825 87.0163 51.1155C87.1559 51.4398 87.6811 51.2458 87.5415 50.9215C87.1491 50.0396 86.7536 49.1206 86.1127 48.3905C85.4299 47.6079 84.5004 47.2198 83.6511 46.6756C81.6586 45.4251 80.3772 43.3112 80.1233 40.9793C80.0548 40.6116 79.4985 40.6588 79.5485 41.0281Z" fill="#101010"/>
<path d="M57.9517 46.6715C59.4415 46.6198 60.9206 46.6624 62.3907 46.8179C63.8051 46.978 65.1485 47.1815 66.5717 47.0047C67.2748 46.9264 67.1989 45.8122 66.4773 45.8921C64.9243 46.0799 63.4618 45.7931 61.9175 45.644C60.5619 45.5162 59.2157 45.4997 57.8557 45.5403C57.1494 45.5816 57.2438 46.6942 57.9517 46.6715Z" fill="#101010"/>
<path d="M48.649 47.7772C47.8679 47.3765 46.8172 47.5404 45.9812 47.5927C44.9226 47.6638 43.7333 48.1756 42.6834 47.9098C41.9784 47.7455 41.7915 48.8447 42.478 49.0106C43.3933 49.2318 44.2089 48.9384 45.0943 48.8073C45.9241 48.6808 47.395 48.4066 48.156 48.7903C48.818 49.1077 49.294 48.1147 48.649 47.7772Z" fill="#101010"/>
<path d="M53.2486 65.0005C52.6367 65.0525 52.113 65.265 51.6422 65.6598C51.3968 65.8487 51.5813 66.2627 51.9073 66.1416C52.797 65.842 53.7132 65.6335 54.6558 65.5162C54.9695 65.4709 54.989 65.0396 54.6844 64.9721C54.2453 64.8599 53.859 64.9301 53.4885 65.1856C53.2229 65.3576 53.4477 65.8055 53.7535 65.6675C54.1149 65.5247 54.4578 65.3836 54.8177 65.2223C55.1065 65.1044 55.0116 64.6455 54.6979 64.6908C54.3455 64.7207 53.9932 64.7506 53.6409 64.7805C53.2885 64.8104 53.3357 65.3667 53.6881 65.3368C54.0404 65.3069 54.3927 65.277 54.7451 65.2471C54.7108 65.0633 54.658 64.881 54.6253 64.7156C54.2638 64.8584 53.9209 64.9995 53.5611 65.1608C53.6494 65.3214 53.7377 65.482 53.8261 65.6426C54.0731 65.4722 54.3142 65.4518 54.6002 65.5209C54.603 65.3339 54.6244 65.1453 54.6288 64.9768C53.6305 65.0989 52.6772 65.3105 51.7334 65.6334C51.8217 65.794 51.9101 65.9546 51.9984 66.1152C52.3998 65.7823 52.8153 65.6163 53.3329 65.5537C53.6482 65.527 53.601 64.9706 53.2486 65.0005Z" fill="#101010"/>
<path d="M53.985 51.8831C53.9951 52.4426 54.1737 53.0064 54.4032 53.5099C54.6994 54.1385 55.1866 54.3773 55.5861 54.9038C56.1994 55.7483 56.2366 56.8471 56.3031 57.85C56.3408 58.2951 56.3833 58.7958 56.7809 59.0796C57.0796 59.2971 57.4344 58.856 57.1373 58.6571C56.6793 58.3224 56.8584 57.1305 56.7788 56.633C56.6681 55.9887 56.5156 55.2918 56.1685 54.7236C55.8865 54.2619 55.4226 54.0771 55.1252 53.6541C54.7844 53.1601 54.5747 52.4494 54.5599 51.8343C54.5284 51.4634 53.9721 51.5106 53.985 51.8831Z" fill="#101010"/>
<path d="M55.8695 55.6075C55.7346 55.3388 55.5812 55.0716 55.4464 54.8029C55.3075 54.9267 55.1685 55.0506 55.0296 55.1744C55.5464 55.5415 55.8686 56.0371 55.9963 56.6613C56.1585 56.5915 56.3408 56.5387 56.5029 56.4689C56.0151 55.7819 55.5982 55.0515 55.2879 54.256C55.1273 54.3443 54.9667 54.4327 54.8061 54.521C55.398 55.5541 55.5745 56.7532 56.1495 57.8064C56.3262 58.1276 56.7831 57.7899 56.608 57.4873C56.0532 56.4511 55.8566 55.235 55.2646 54.2019C55.1112 53.9348 54.6634 54.1596 54.7828 54.4669C55.1148 55.2979 55.5348 56.0655 56.0645 56.805C56.2132 57.0165 56.6334 56.9061 56.5712 56.6126C56.4309 55.84 56.042 55.2193 55.4046 54.7504C55.1446 54.5483 54.853 54.8532 54.9878 55.122C55.1227 55.3907 55.2761 55.6578 55.411 55.9265C55.5691 56.2493 56.0276 55.9303 55.8695 55.6075Z" fill="#101010"/>
<path d="M58.5488 116.232C58.6805 116.464 58.8123 116.696 58.961 116.907C58.8308 116.694 58.6805 116.464 58.5488 116.232Z" fill="#101010"/>
<path d="M50.3531 96.0275C50.3701 96.0074 50.3871 95.9872 50.4041 95.9671C50.4069 95.7799 50.4113 95.6113 50.4141 95.4241C50.3836 95.7258 50.3836 95.7258 50.3531 96.0275Z" fill="#101010"/>
<path d="M65.4426 89.1809C63.7838 89.8819 63.1015 90.4255 61.9122 90.9373C59.5166 91.981 57.417 91.4494 53.5 91.0721C52.0871 90.9304 50.5611 90.5556 49.1436 90.3584C50.2707 90.655 51.2257 91.5639 51.5458 92.6947C51.9155 93.9708 51.0409 95.1096 50.3854 95.9684C50.3351 99.5588 50.3871 103.253 51.8046 106.532C53.3851 110.189 56.4354 112.9 58.53 116.234C57.7598 114.861 57.2027 113.358 56.3938 111.97C55.2131 109.941 54.2624 107.761 53.5867 105.521C53.2216 104.301 52.9091 103.039 52.9891 101.78C53.0675 100.504 53.5756 99.2278 54.5527 98.4164C56.1597 97.1034 58.5016 97.409 60.538 96.9747C61.4187 96.7879 62.3377 96.3924 62.7754 95.6082C63.409 94.4898 62.838 93.044 63.2179 91.7977C63.484 90.972 63.9281 90.2619 64.6723 89.7879C64.6925 89.8048 65.4612 89.1793 65.4426 89.1809Z" fill="#101010"/>
<path d="M49.1651 90.3565C48.9732 90.298 48.7845 90.2766 48.5771 90.2568C48.7675 90.2968 48.9562 90.3181 49.1651 90.3565Z" fill="#101010"/>
<path d="M83.2722 103.824C84.4312 102.736 85.5655 101.575 86.3439 100.183C87.1037 98.7922 87.4829 97.0977 87.0185 95.5868C87.7177 97.003 88.437 98.4362 89.1362 99.8524C89.3505 99.5167 88.9219 100.188 89.1362 99.8524C83.6883 106.086 76.6298 112.27 69.3112 116.047C67.2896 117.097 66.2885 116.304 62.9885 119.236C63.1511 117.41 66.6992 116.082 68.0287 115.241C69.8352 114.079 71.6232 112.919 73.3694 111.706C76.8432 109.282 80.1916 106.7 83.2722 103.824Z" fill="#101010"/>
<path d="M87.8506 95.9277C88.3407 97.0815 88.922 98.2089 89.5928 99.2913C90.8302 98.9061 91.9916 98.2846 93.1158 97.6663C93.2578 97.5795 93.4185 97.4912 93.5187 97.3519C93.619 97.2127 93.6387 97.0055 93.535 96.8836C93.4111 96.7447 93.204 96.7249 93.0186 96.7406C91.2427 96.7232 89.4945 96.5914 87.8506 95.9277Z" fill="#101010"/>
<path d="M82.8357 56.6437C82.8653 57.874 82.6926 59.14 83.0174 60.3265C83.5287 62.1696 85.5219 63.8682 87.4461 63.873C85.7971 62.9297 84.485 60.8931 84.2689 59.0063C84.649 59.9639 85.7815 60.7644 86.6817 61.2483C86.5951 59.1264 85.6862 56.9996 84.8131 55.0751C86.3584 55.8966 86.9335 58.0517 87.854 59.6546C87.8421 57.9746 88.1956 56.6372 89.2915 55.6851C89.2569 55.2771 82.4214 53.5224 81.7412 53.4307C82.4429 54.4358 82.8044 55.395 82.8357 56.6437Z" fill="#101010"/>
<path d="M77.519 43.2921C78.2594 45.4146 79.5621 47.3399 80.1388 49.5136C80.6161 48.3151 80.5522 46.901 79.9678 45.7366C80.8066 48.5791 83.459 50.7822 86.3975 51.0745C85.8476 49.216 83.9651 48.1617 82.5798 46.8037C79.9547 44.2622 78.9378 40.202 80.0624 36.7259C79.9731 36.995 77.9036 35.9378 77.7458 35.8392C79.3913 36.5214 77.8563 37.3614 77.3972 38.3342C76.704 39.8499 77.0006 41.8045 77.519 43.2921Z" fill="#101010"/>
<path d="M80.8204 37.7458C79.8972 39.4117 80.5078 41.5452 81.663 43.0535C82.8183 44.5617 84.4412 45.6381 85.8048 46.9606C87.1854 48.2629 88.3781 49.9921 88.2959 51.8856C89.5441 52.5081 90.6892 53.4569 91.686 54.4182C93.2629 54.7327 94.614 55.9068 95.0784 57.4177C95.3505 56.442 94.9996 55.3885 94.4048 54.5424C93.81 53.6963 93.044 53.0329 92.3644 52.2874C90.6723 50.3952 89.5883 47.9656 89.3171 45.4298C89.1368 43.7454 88.1374 42.0932 86.6833 41.2454C89.0221 41.5138 91.0745 43.469 91.5864 45.7602C91.8292 46.8603 91.7598 48.0242 92.0768 49.118C92.4915 50.4836 93.5798 51.6427 94.9282 52.1259C93.9065 49.99 93.2553 47.5985 93.261 45.2446C93.516 46.2689 94.0697 47.5107 94.771 48.2917C94.6335 44.2503 92.0837 40.3949 88.4259 38.6694C88.9839 39.7427 89.6686 40.7679 90.611 41.5285C88.864 41.1911 88.0478 39.0564 86.4008 38.3556C84.7521 37.6363 82.3783 38.7156 80.8204 37.7458Z" fill="#101010"/>
<path d="M85.187 33.7323C84.7707 32.3482 83.6454 31.1922 82.263 30.7492C80.8419 30.2908 79.2396 30.5575 77.8478 30.0032C77.056 29.6968 76.6407 28.985 76.2053 28.2561C76.373 26.7103 75.1118 24.6134 74.1316 23.4078C75.6893 23.2756 78.9661 24.4731 79.8479 26.0606C80.7112 27.6496 82.6245 28.6266 84.417 28.3998C83.4269 27.7367 82.5844 26.6129 81.8504 25.6665C83.3371 25.5778 84.6447 26.6808 85.407 27.9609C86.1694 29.2411 86.5549 30.7026 87.2631 32.0059C88.0396 33.4529 89.3476 34.7801 90.9814 34.8843C89.7514 34.0361 88.8505 33.104 87.6391 32.2542C89.6623 32.3253 91.6269 33.4661 92.6882 35.1878C93.7495 36.9094 93.9955 39.1486 93.1621 40.9937C92.5772 38.5031 90.3627 36.6178 87.8215 36.3852C89.3045 36.9131 90.5292 38.3594 91.0106 39.8501C90.3149 38.6951 89.0192 38.3941 87.6865 38.0963C86.0307 37.7325 84.4538 37.418 82.8256 36.9398C81.1789 36.4632 79.5306 35.968 78.0378 35.1047C76.5636 34.2399 75.2588 32.9498 74.7293 31.3324C74.6532 31.0961 74.3917 30.8754 74.3326 30.619C74.6846 30.365 75.0275 30.2238 75.3795 29.9698C76.0729 30.6581 76.927 31.258 77.8778 31.4575C78.8085 31.64 79.7542 31.5598 80.7003 31.7036C82.3822 31.9345 84.1741 32.3614 85.187 33.7323Z" fill="#101010"/>
<path d="M72.7712 27.838C73.0639 28.2054 73.2516 28.6564 73.2554 29.1417C70.6181 26.6759 67.6476 24.6867 64.335 23.2868C63.5851 24.1348 62.4452 24.5678 61.3404 24.7549C60.2356 24.942 59.0796 24.9654 57.9562 25.1541C55.7467 25.5284 53.6182 26.4187 51.6523 27.4634C53.3683 25.6742 55.7126 24.4666 58.1865 24.126C58.9808 24.0212 59.7628 23.9922 60.5523 23.8319C61.3249 23.6916 62.0647 23.386 62.6527 22.8318C58.9079 21.8421 54.8314 22.2254 51.3317 23.9045C47.8506 25.582 44.9664 28.5724 43.4169 32.1032C44.5707 31.613 45.8606 31.1861 47.0716 30.7098C45.0746 31.6076 43.3504 33.0801 42.143 34.9195C40.7876 36.9957 40.1237 39.5175 40.2774 41.9886C40.6303 41.3049 41.0294 40.5053 41.3637 39.8232C42.0275 42.363 41.9219 45.0803 41.0864 47.5606C42.061 47.1604 42.6996 46.3217 43.1603 45.3674C43.621 44.4131 43.8682 43.3649 44.1743 42.349C44.9462 39.7807 46.3968 37.2855 48.1137 35.0666C47.3848 35.502 46.7179 36.0069 46.0944 36.5827C44.324 38.1711 43.0985 40.2363 42.4899 42.5293C42.4069 42.8725 41.8566 42.7698 41.9395 42.4265C42.648 39.7702 44.1329 37.4589 46.2445 35.7108C47.0997 35.0032 48.0432 34.4562 49.027 33.9432C49.57 33.2994 50.1332 32.6726 50.6995 32.0829C47.6357 32.7351 44.3312 34.7338 42.6289 37.3437C43.112 34.8933 45.2529 33.0494 47.5621 32.0876C49.8712 31.1259 52.4055 30.8362 54.8435 30.2931C57.2816 29.75 59.7809 28.8282 61.4132 26.934C61.7526 26.5317 61.7394 25.9351 62.0587 25.5158C62.5 26.0947 62.4426 26.9587 62.1051 27.6037C61.7692 28.2673 61.2135 28.7627 60.6579 29.2581C61.6256 29.4375 62.5934 29.6168 63.5596 29.7777C65.7796 30.187 67.7567 30.3741 70.0056 30.4635C71.6362 30.5305 73.2646 30.1309 74.8544 29.7158C74.1487 29.1033 73.46 28.4707 72.7712 27.838Z" fill="#101010"/>
<path d="M55.7256 20.8792C57.8692 20.8281 60.0286 20.9624 62.1464 21.2683C65.2305 21.7351 67.1975 22.4647 69.9112 24.289C71.7924 25.5488 73.0867 28.0352 75.253 28.6919C74.3857 27.4954 73.0438 26.2084 72.1765 25.012C72.4984 25.2835 72.7552 25.4485 72.9887 25.5594C73.3785 25.7505 73.7672 25.2692 73.4962 24.9373C72.4495 23.6066 71.3832 22.7072 69.7308 21.5026C67.5213 19.897 64.8197 18.8749 62.0874 19.032C58.7045 19.2257 55.2486 21.1999 52.083 19.9929C53.2621 20.9015 53.8788 20.9052 55.7256 20.8792Z" fill="#101010"/>
<path d="M31.954 109.429C34.5874 107.226 38.566 108.551 41.2767 106.378C41.5561 106.149 41.2371 105.691 40.9577 105.92C38.2655 108.091 34.2852 106.747 31.6349 108.971C31.3555 109.2 31.6746 109.659 31.954 109.429Z" fill="#101010"/>
<path d="M38.37 108.886C39.448 108.383 40.218 107.552 41.0034 106.682C42.0109 105.57 43.1333 104.709 44.3684 103.857C44.6679 103.645 44.3489 103.186 44.0493 103.398C43.0442 104.1 42.0392 104.801 41.1796 105.678C40.2336 106.636 39.4517 107.767 38.1946 108.359C37.8532 108.519 38.0472 109.044 38.37 108.886Z" fill="#101010"/>
<path d="M53.1228 32.0459C54.9753 31.6459 56.8841 31.6894 58.7228 31.3466C60.58 31.0023 62.4736 30.2065 63.4774 28.6085C62.7847 29.4704 61.5501 29.6685 60.4371 29.5388C59.3443 29.4261 58.2665 29.0506 57.1661 29.0693C55.8972 29.0836 54.6893 29.597 53.5821 30.1952C51.0649 31.5668 48.7496 33.5563 47.1598 35.9512C47.9656 35.3225 48.5702 34.5241 49.3358 33.8615C50.4349 32.9464 51.709 32.334 53.1228 32.0459Z" fill="#101010"/>
<path d="M43.2524 107.65C43.9924 108.446 44.2924 109.56 44.4022 110.634C44.5872 112.374 44.3472 114.169 43.7207 115.809C44.3267 115.907 44.9236 116.118 45.4573 116.465C45.7941 112.29 44.7972 107.145 44.4579 102.486C44.265 103.735 43.2031 104.647 42.1625 105.37C41.1219 106.093 39.9901 106.843 39.5298 108.022C40.0574 107.416 40.361 106.812 41.2357 106.775C41.9992 106.747 42.7586 107.113 43.2524 107.65Z" fill="#101010"/>
<path d="M90.3087 109.727C92.3283 108.435 94.4533 107.284 96.1802 105.624C97.8871 103.948 99.1447 101.6 98.7949 99.2386C99.3645 99.788 99.5095 100.616 99.6312 101.39C99.7529 102.164 99.9165 102.991 100.503 103.52C101.09 104.05 102.222 103.972 102.456 103.205C96.7362 108.435 90.0488 112.607 82.8601 115.496C84.6775 115.341 85.1926 114.588 86.1473 113.293C87.2563 111.835 88.7677 110.717 90.3087 109.727Z" fill="#101010"/>
<path d="M88.3016 67.3492C88.7349 66.7334 89.3412 65.9535 89.4266 65.1992C89.5076 64.6133 89.1238 64.2723 88.7215 63.9329C87.7976 63.1708 88.6005 61.6271 89.0273 60.713C89.5649 59.5654 90.5966 58.0771 92.0655 58.4381C92.4087 58.521 92.5114 57.9706 92.1682 57.8877C90.0314 57.3592 88.726 59.8047 88.1196 61.4625C87.8641 62.1939 87.3324 63.1916 87.8404 63.8956C88.0526 64.1951 88.4191 64.3321 88.6483 64.6115C89.1701 65.2583 88.2446 66.4575 87.8606 66.9944C87.6616 67.2914 88.0841 67.6478 88.3016 67.3492Z" fill="#101010"/>
<path d="M90.0722 57.4117C90.8145 56.695 91.7335 56.2995 92.7535 56.213C93.1058 56.1831 93.0586 55.6268 92.7063 55.6567C91.5364 55.7372 90.4939 56.2179 89.6482 57.0368C89.3905 57.3015 89.8129 57.6579 90.0722 57.4117Z" fill="#101010"/>
<path d="M88.9773 60.5864C89.386 61 89.9628 61.1939 90.5546 61.125C90.9054 61.0766 90.8582 60.5202 90.5074 60.5687C90.0639 60.625 89.6588 60.4726 89.3523 60.1624C89.0876 59.9047 88.7328 60.3457 88.9773 60.5864Z" fill="#101010"/>
<path d="M54.7158 79.2013C53.7078 78.988 52.7032 79.0359 51.7192 79.3249C51.3731 79.4289 51.5671 79.9541 51.9132 79.8501C52.8061 79.5875 53.7009 79.5676 54.6131 79.7517C54.9563 79.8346 55.059 79.2843 54.7158 79.2013Z" fill="#101010"/>
<path d="M70.9655 87.5728C73.3646 86.7902 75.6832 85.9398 77.8295 84.5996C78.1306 84.406 77.8115 83.9474 77.5104 84.1411C75.4012 85.4781 73.1351 86.2867 70.7716 87.0476C70.4441 87.1501 70.638 87.6753 70.9655 87.5728Z" fill="#101010"/>
<path d="M90.5941 72.5709C90.3272 71.8465 90.2426 71.0692 90.328 70.3149C88.9001 73.5178 89.2577 75.9716 86.0242 79.9068C86.6811 76.8626 87.2617 74.46 87.9186 71.4158C87.906 71.2675 90.5291 69.3826 90.8207 69.0777C91.7466 68.1026 92.6821 66.3609 93.3294 65.1853C94.6088 62.8728 95.3003 60.2366 95.2252 57.5907C96.5198 66.4648 90.8223 69.0962 90.5941 72.5709Z" fill="#101010"/>
<path d="M86.2284 79.9091C88.097 77.9388 89.4505 75.62 90.2782 73.0469C90.3796 72.7021 89.8293 72.5994 89.7278 72.9442C88.9294 75.4214 87.6067 77.6629 85.8059 79.5527C85.5482 79.8174 85.9892 80.1722 86.2284 79.9091Z" fill="#101010"/>
<path d="M91.5556 72.2465C92.1591 69.6738 94.2814 67.8314 95.0396 65.3203C95.4779 63.8822 95.5837 62.267 95.6618 60.7661C95.7446 59.3209 95.6621 57.9084 95.2087 56.5274C95.0861 56.1829 94.5795 56.3753 94.6835 56.7214C95.2331 58.3557 95.1877 60.0219 95.0326 61.7161C94.891 63.1289 94.7928 64.6128 94.2137 65.932C93.2757 68.0848 91.5365 69.82 91.0052 72.1437C90.9223 72.487 91.4726 72.5897 91.5556 72.2465Z" fill="#101010"/>
<path d="M37.1102 53.9864C38.1072 54.0699 38.9332 54.5602 39.8256 54.9514C40.7381 55.3596 41.6644 55.7106 42.6246 56.0213C42.9695 56.1228 43.2083 55.6356 42.8619 55.5156C41.8058 55.1756 40.782 54.7769 39.7705 54.3023C38.9354 53.9249 38.1527 53.5057 37.2113 53.4175C36.8558 53.4103 36.7515 53.9422 37.1102 53.9864Z" fill="#101010"/>
<path d="M37.6563 51.8302C39.1862 52.6904 40.7191 53.5875 42.215 54.4879C42.5291 54.6667 42.7663 54.1609 42.4523 53.9821C40.9379 53.0834 39.4234 52.1846 37.8936 51.3245C37.5796 51.1457 37.3423 51.6514 37.6563 51.8302Z" fill="#101010"/>
<path d="M37.4264 53.7359C37.2708 53.002 37.3732 52.2275 37.689 51.547L42.6683 54.3184C42.7664 54.8144 42.8661 55.3289 42.9642 55.8249C42.9271 55.828 42.8884 55.8126 42.8328 55.8173L37.4264 53.7359Z" fill="#101010"/>
<circle cx="63.0012" cy="62.9992" r="61.9738" stroke="#F0014F"/>
<path d="M62.9745 6.45898C51.2497 6.47759 39.6924 10.143 30.1451 16.9714C20.9699 23.5393 13.8606 32.8237 9.93373 43.4105C5.82074 54.5741 5.35547 67.0029 8.61236 78.4456C11.739 89.4232 18.2528 99.3216 27.0743 106.578C35.9888 113.909 47.0437 118.374 58.5265 119.267C70.2513 120.179 82.1436 117.388 92.2121 111.285C101.927 105.387 109.781 96.5679 114.452 86.2229C119.328 75.4501 120.668 63.2073 118.323 51.6158C116.053 40.4149 110.283 30.0514 102.039 22.1625C93.701 14.1805 82.9625 8.85916 71.5541 7.1288C68.7252 6.68226 65.8592 6.45898 62.9745 6.45898C62.6209 6.45898 62.6209 7.01716 62.9745 7.01716C74.5318 7.03577 85.8844 10.6267 95.3201 17.3063C104.532 23.837 111.679 33.1772 115.55 43.8012C119.57 54.816 119.998 67.0401 116.778 78.2968C113.689 89.1441 107.25 98.9122 98.5584 106.094C89.7182 113.388 78.7006 117.835 67.2736 118.709C55.6791 119.584 43.9543 116.83 33.9975 110.801C24.4315 104.996 16.7081 96.326 12.0554 86.1485C7.16072 75.4687 5.80213 63.2631 8.14709 51.746C10.4176 40.6382 16.0939 30.3677 24.2827 22.5346C32.49 14.6642 43.0423 9.43595 54.2833 7.66837C57.1679 7.22183 60.0712 6.99856 62.9745 6.99856C63.3281 7.01716 63.3281 6.45898 62.9745 6.45898Z" fill="#101010"/>
</svg>
