<svg width="136" height="136" viewBox="0 0 136 136" fill="none" xmlns="http://www.w3.org/2000/svg">
<ellipse cx="67.9503" cy="67.8264" rx="55.8801" ry="56.0642" transform="rotate(-4.85 67.9503 67.8264)" fill="#F5F5FD"/>
<path d="M52.2394 79.5136C53.3314 78.0761 55.2787 79.0129 56.7563 79.0369C58.2911 79.0748 59.5906 77.8812 61.1056 78.1262C61.8631 78.2487 62.5653 78.6 63.3382 78.6839C63.9797 78.7602 64.6087 78.6881 65.2498 78.5404C66.6419 78.2168 67.8849 77.4576 69.0072 76.5966C69.2882 76.386 68.9691 75.9274 68.6881 76.138C67.3389 77.1864 65.7562 78.1238 63.9834 78.1435C62.4534 78.1613 61.1784 77.2235 59.6289 77.6725C58.8627 77.8869 58.1338 78.3223 57.3396 78.4271C56.4727 78.5567 55.6269 78.2736 54.7782 78.1775C53.6838 78.0462 52.5388 78.1994 51.8323 79.1185C51.5979 79.4373 52.0203 79.7936 52.2394 79.5136Z" fill="#101010"/>
<path d="M68.4764 76.511C67.6336 78.2449 65.9025 79.1949 64.1119 79.6643C62.3754 80.1105 60.5908 80.4301 58.8263 80.7666C58.4771 80.8335 58.5243 81.3899 58.8735 81.3229C60.8404 80.9505 62.9063 80.6445 64.8157 80.0342C66.5629 79.4937 68.1717 78.4233 68.9822 76.7483C69.1424 76.4358 68.6367 76.1986 68.4764 76.511Z" fill="#101010"/>
<path d="M68.72 73.222C70.5088 73.6118 71.0449 75.5275 71.4383 77.0817C71.5238 77.4294 72.049 77.2354 71.9635 76.8877C71.5141 75.1141 70.8404 73.1168 68.8228 72.6716C68.4811 72.6072 68.3784 73.1576 68.72 73.222Z" fill="#101010"/>
<path d="M51.6058 79.5491C51.9922 80.5809 53.0565 81.2377 54.1645 81.0877C54.5152 81.0393 54.468 80.4829 54.1173 80.5314C53.2689 80.6594 52.4259 80.1893 52.131 79.3551C52.0084 79.0106 51.4832 79.2046 51.6058 79.5491Z" fill="#101010"/>
<path d="M52.0576 78.6897C52.5277 77.8467 53.0811 76.8846 54.0652 76.5956C54.8685 76.378 55.5601 76.8236 56.3638 76.8301C56.9804 76.8339 57.5534 76.5424 58.1389 76.3994C59.1076 76.1491 60.103 76.214 61.0708 76.3934C63.7083 76.8793 66.5664 78.2058 69.06 76.556C69.3611 76.3623 69.042 75.9038 68.7409 76.0974C65.6467 78.1531 62.0026 75.2684 58.6974 75.7169C57.829 75.828 56.9766 76.3486 56.0909 76.2556C55.4679 76.1777 54.8832 75.8911 54.2373 75.9833C52.9085 76.1708 52.153 77.3929 51.5518 78.4525C51.373 78.7665 51.8788 79.0038 52.0576 78.6897Z" fill="#101010"/>
<path d="M57.3894 71.306C57.1595 70.5784 57.3537 70.2258 57.9503 70.2125C58.1527 70.1766 58.3752 70.1578 58.5777 70.1219C58.8172 70.0829 59.0397 70.064 59.2792 70.025C59.6761 69.8606 59.7412 69.9672 59.5083 70.3044C59.2179 70.4038 59.3145 70.8812 59.6282 70.8359C60.682 70.7091 62.9306 70.5744 63.4698 69.4453C63.9629 68.4322 63.0481 67.5573 62.1621 67.2402C61.8342 67.1186 61.5784 67.626 61.9248 67.746C62.3284 67.8799 62.8326 68.0986 62.9816 68.5342C63.2627 69.4255 62.4732 69.5859 61.948 69.7799C61.1849 70.0314 60.3937 70.1733 59.5794 70.261C59.6137 70.4449 59.6665 70.6272 59.6992 70.7925C60.1533 70.6419 60.8064 70.1943 60.4223 69.6292C59.9762 68.9946 58.4701 69.5147 57.8999 69.6191C57.2016 69.7531 56.3181 70.1269 56.3534 70.983C56.3651 71.5611 56.8818 71.9281 57.4334 71.8253C57.7858 71.7954 57.7571 71.2375 57.3894 71.306Z" fill="#101010"/>
<path d="M57.1206 71.4609C55.4425 71.7154 53.5729 71.0335 52.9074 69.353C52.6452 68.6841 52.5791 67.9053 52.782 67.2157C53.0127 66.4116 53.6239 65.9115 54.0711 65.2385C55.4482 63.1979 55.0205 60.3578 56.7905 58.5453C57.0482 58.2806 56.6072 57.9258 56.368 58.1889C55.3372 59.2476 55.007 60.6391 54.6784 62.0491C54.471 62.9072 54.2838 63.7823 53.846 64.5666C53.4252 65.3307 52.7244 65.8758 52.3825 66.6892C51.0781 69.807 54.181 72.4761 57.1694 72.0358C57.517 71.9503 57.4698 71.3939 57.1206 71.4609Z" fill="#101010"/>
<path d="M57.5957 58.1228C59.0925 58.5935 59.1685 60.8097 59.7391 62.0313C60.2182 63.0553 60.8934 63.9692 61.7909 64.6402C63.7451 66.0993 66.237 66.4109 68.6 66.3038C71.0742 66.1872 73.3146 65.7356 74.8353 63.6268C76.373 61.4978 76.6116 58.8066 76.787 56.2516C76.8127 55.8945 76.2624 55.7918 76.2366 56.1488C76.0596 58.6853 75.8412 61.3935 74.2431 63.4715C72.5432 65.6703 69.644 65.8416 67.0582 65.7435C64.5836 65.636 62.026 64.7697 60.644 62.5709C59.6695 60.9913 59.7503 58.2014 57.6969 57.5539C57.3536 57.4709 57.2509 58.0213 57.5957 58.1228Z" fill="#101010"/>
<path d="M58.9654 56.2133C58.9496 58.0077 59.3122 59.6392 60.0488 61.2764C60.7404 62.824 61.4471 64.1088 63.0247 64.8715C66.0841 66.3676 69.9809 66.728 73.0261 64.9754C75.9632 63.2694 75.969 58.9356 75.606 55.978C75.4339 54.6105 74.928 53.2712 73.6226 52.6349C72.1224 51.903 70.1611 51.9013 68.5043 51.9672C66.3469 52.0756 64.2008 52.5378 62.1727 53.2889C60.8319 53.7762 58.7773 54.4362 58.9654 56.2133C58.9953 56.5656 59.5517 56.5184 59.5218 56.1661C59.3478 54.5559 62.019 53.8996 63.2194 53.5176C64.673 53.0394 66.1779 52.7249 67.717 52.5943C69.2361 52.4468 70.8435 52.4598 72.3494 52.8176C74.1027 53.2292 74.8603 54.4537 75.0622 56.1736C75.363 58.8376 75.448 62.9208 72.8337 64.4688C70.1298 66.0617 66.6752 65.8505 63.8466 64.6523C62.9744 64.2781 62.2288 63.8557 61.6419 63.1024C61.1603 62.4895 60.85 61.694 60.5274 60.9743C59.8559 59.4437 59.5352 57.8646 59.5419 56.183C59.529 55.8106 58.9726 55.8578 58.9654 56.2133Z" fill="#101010"/>
<path d="M55.5108 55.1234C57.3078 55.8301 58.9569 54.7937 60.4872 53.898C62.6954 52.6274 65.0561 52.0535 67.5781 51.8395C69.9889 51.635 72.2946 51.514 74.6633 52.1349C76.2683 52.559 77.8424 53.0605 79.4457 53.4661C79.789 53.549 79.8917 52.9987 79.5484 52.9157C77.9822 52.507 76.4282 52.0225 74.8604 51.5952C72.7576 51.0265 70.7994 51.0619 68.625 51.1904C66.4692 51.3172 64.2888 51.5956 62.2638 52.3838C60.2743 53.1503 57.9703 55.4938 55.728 54.6007C55.4187 54.4775 55.1814 54.9833 55.5108 55.1234Z" fill="#101010"/>
<path d="M76.7237 57.2652C76.9066 56.5586 77.2428 56.1192 77.9783 55.982C78.5299 55.8792 79.0463 56.0222 79.5182 56.2996C79.7146 56.4137 79.923 56.2279 79.9242 56.0224C79.9069 55.8184 79.6885 53.4649 79.6885 53.4649C80.0346 53.3608 79.8406 52.8356 79.4946 52.9397C79.1671 53.0422 79.1721 53.3219 79.1772 53.6016C79.1908 54.4223 79.2971 55.2351 79.3478 56.0526C79.4898 55.9659 79.6118 55.8621 79.7538 55.7753C79.0469 55.3684 78.1967 55.2538 77.4182 55.5439C76.6381 55.8156 76.3499 56.3817 76.1532 57.1455C76.0904 57.5057 76.6408 57.6084 76.7237 57.2652Z" fill="#101010"/>
<path d="M80.372 56.2453C82.7885 56.7686 85.1742 57.3694 87.5476 58.0458C88.6763 58.361 89.8082 58.7132 90.9215 59.067C92.0921 59.4346 93.4989 59.7261 94.48 60.5021C94.7601 60.7211 95.1165 60.2986 94.8364 60.0796C93.9946 59.4039 92.9262 59.1397 91.9273 58.8135C90.7367 58.4289 89.5275 58.0459 88.3214 57.7C85.7361 56.9481 83.12 56.2736 80.4747 55.6949C80.1145 55.6321 80.0118 56.1824 80.372 56.2453Z" fill="#101010"/>
<path d="M80.3005 53.6174C83.2058 54.3982 86.0941 55.199 88.9255 56.2102C91.2945 57.0551 94.0885 57.8453 95.682 59.8954C95.9111 60.1748 96.3697 59.8557 96.1405 59.5763C94.5084 57.5109 91.8782 56.6694 89.4906 55.826C86.5045 54.7533 83.4616 53.8908 80.4033 53.067C80.06 52.9841 79.9557 53.5159 80.3005 53.6174Z" fill="#101010"/>
<path d="M41.7299 56.2554C41.0805 58.0662 41.2394 59.9391 41.4555 61.8259C41.6559 63.5273 42.0062 65.2346 43.4792 66.3049C44.6737 67.1748 46.0771 67.2052 47.4911 67.1412C48.7553 67.0713 50.1339 67.029 51.2983 66.4446C54.072 65.0139 54.6729 61.7504 55.1447 58.946C55.4221 57.3722 55.2714 55.8161 53.8295 54.8925C52.7033 54.1662 51.3753 53.9241 50.063 53.8673C48.4679 53.7785 47.1453 54.0402 45.5879 54.3964C44.2499 54.6967 42.6322 55.0021 41.7824 56.2136C41.5835 56.5106 42.006 56.867 42.2049 56.5699C42.8218 55.6958 43.8785 55.382 44.8657 55.1301C46.0352 54.8254 47.3081 54.4186 48.5198 54.3905C50.8473 54.3051 54.7394 54.6098 54.724 57.7303C54.7138 59.1507 54.2865 60.7185 53.9161 62.0761C53.5271 63.4352 52.8612 64.6123 51.7405 65.4919C50.9701 66.0989 50.0942 66.3413 49.1516 66.4587C47.9308 66.5996 46.5802 66.7516 45.3651 66.5185C43.2981 66.1522 42.3789 64.3438 42.1056 62.4432C41.8275 60.4869 41.5771 58.4163 42.2558 56.5096C42.3573 56.1648 41.8516 55.9275 41.7299 56.2554Z" fill="#101010"/>
<path d="M40.1943 55.5454C40.1136 56.3554 40.0514 57.1638 39.9723 57.9924C39.9466 58.3494 40.4969 58.4521 40.5227 58.0951C40.6034 57.2851 40.6655 56.4767 40.7446 55.6481C40.7905 55.3081 40.2386 55.1868 40.1943 55.5454Z" fill="#101010"/>
<path d="M40.1671 58.3117C40.8555 58.7202 41.141 59.4431 41.2611 60.1987C41.3096 60.5495 41.8659 60.5023 41.8175 60.1515C41.6599 59.175 41.2691 58.3116 40.4044 57.8059C40.1089 57.6256 39.8717 58.1313 40.1671 58.3117Z" fill="#101010"/>
<path d="M40.6239 55.7707C45.4066 54.2442 50.761 52.6318 55.5112 55.1238C55.8236 55.2841 56.0609 54.7783 55.7484 54.6181C50.8622 52.0629 45.3393 53.6709 40.4299 55.2455C40.0855 55.3681 40.2794 55.8933 40.6239 55.7707Z" fill="#101010"/>
<path d="M48.3635 67.067C50.3647 66.8786 52.4828 66.3066 53.6594 64.5445C54.2901 63.6131 54.5867 62.4859 54.8896 61.433C55.2785 60.0738 55.7265 57.8692 57.58 58.1415C57.9386 58.1858 58.0429 57.654 57.6827 57.5912C55.1104 57.2118 54.676 60.237 54.1038 62.0786C53.7224 63.3064 53.2265 64.5065 52.1737 65.3056C51.0498 66.148 49.6514 66.3974 48.2993 66.5308C47.947 66.5607 47.9942 67.1171 48.3635 67.067Z" fill="#101010"/>
<path d="M49.3949 53.4764C49.2296 53.5092 49.1945 53.7549 49.3167 53.8753C49.439 53.9957 49.6091 54.0186 49.7775 54.023C50.1733 54.0641 50.5488 54.0883 50.9446 54.1294C51.1517 54.1492 51.3588 54.169 51.5676 54.2073C51.8721 54.2749 52.1613 54.3811 52.4335 54.5074C52.8402 54.6783 53.2485 54.8678 53.6245 55.1161C54.4971 55.7144 55.0705 56.7491 55.1045 57.8108C55.1301 58.3316 55.0242 58.8449 54.9369 59.3566C54.8709 59.6797 54.8235 60.0013 54.7575 60.3244C55.112 59.6593 55.485 58.9926 55.8395 58.3275C56.1955 57.6809 57.1985 57.6145 57.8604 57.9319C58.5224 58.2492 59.0056 58.8806 59.3049 59.5463C59.6057 60.2305 59.7784 60.9443 60.0252 61.6518C60.2704 62.3408 60.6285 63.0388 61.2087 63.4939C61.1832 62.9731 60.8642 62.5145 60.6193 62.0497C59.7205 60.4823 59.3035 58.6499 59.2622 56.8417C59.2489 56.2451 59.2727 55.6454 59.5068 55.1026C59.7595 54.5582 60.2969 54.2884 60.8608 54.1098C63.7341 53.1936 66.7124 52.1938 69.7725 52.1583C70.8544 52.1412 71.9859 52.2693 72.9465 52.8042C74.4361 53.6303 75.2733 55.3524 75.4536 57.0367C75.6338 58.7211 75.2933 60.431 74.9311 62.1054C75.5455 61.6423 75.872 60.8675 76.0316 60.1069C76.1912 59.3462 76.1993 58.5611 76.3774 57.7989C76.537 57.0382 76.9022 56.2788 77.5367 55.8327C78.1914 55.4036 79.1635 55.4145 79.6451 56.0274C79.602 55.0785 79.5387 54.1126 79.4955 53.1637C73.3065 50.6631 66.0145 50.572 60.1152 53.6875C59.3106 54.1106 58.5478 54.5863 57.6734 54.8472C56.799 55.1082 55.8316 55.1529 55.0458 54.6966C53.2824 53.7256 51.4005 53.1195 49.3949 53.4764Z" fill="#101010"/>
<path d="M40.4222 56.0307C40.4452 55.8607 40.4665 55.6721 40.5668 55.5328C40.701 55.3533 40.9373 55.2772 41.1551 55.2027C43.1248 54.6434 45.1225 54.1937 47.1313 53.8738C47.2055 53.8675 47.2796 53.8612 47.3214 53.9137C47.3632 53.9662 47.3526 54.0605 47.3001 54.1023C47.2476 54.1441 47.175 54.169 47.1024 54.1938C46.3176 54.4098 45.5343 54.6444 44.7495 54.8604C44.2752 54.994 43.801 55.1277 43.3701 55.3323C42.9392 55.537 42.5161 55.8344 42.2308 56.2134C41.8452 56.7318 41.6947 57.3796 41.6354 58.001C41.5776 58.6409 41.594 59.2746 41.4992 59.9177C41.3592 59.3692 41.0926 58.8689 40.7195 58.4336C40.574 58.2591 40.297 58.0772 40.2411 57.8578C40.1851 57.6384 40.2696 57.3137 40.3064 57.0865C40.3538 56.7649 40.3795 56.4079 40.4222 56.0307Z" fill="#101010"/>
<path d="M95.7564 59.2363C95.9591 59.4246 96.1899 59.7225 96.0434 59.9777C95.9617 60.1154 95.7995 60.1852 95.6342 60.2179C94.5527 60.4591 93.5732 59.7017 92.5479 59.2844C90.7864 58.556 88.8663 58.1586 87.031 57.6606L86.8695 55.0968C86.86 54.9855 87.6829 55.4387 87.7602 55.4695C88.1299 55.6436 88.5844 55.7171 88.9694 55.8525C89.7936 56.1001 90.6209 56.3848 91.4312 56.6896C92.9962 57.3039 94.5028 58.1099 95.7564 59.2363Z" fill="#101010"/>
<path d="M84.1165 54.1348C83.8273 54.0286 83.529 54.0352 83.265 54.2257C82.9485 54.458 82.9228 54.8151 82.8971 55.1722C82.8503 55.9419 82.8454 56.7641 83.7776 56.9652C84.1394 57.0466 84.2236 56.4978 83.8804 56.4148C83.3856 56.3074 83.422 55.856 83.4446 55.4619C83.4613 55.2177 83.4169 54.4743 83.8792 54.6406C84.2071 54.7622 84.4629 54.2548 84.1165 54.1348Z" fill="#101010"/>
<path d="M81.2804 53.9459C81.3185 54.6151 81.2809 55.272 81.3004 55.9427C81.3149 56.3337 81.5193 56.5405 81.9166 56.6002C82.2752 56.6445 82.3779 56.0941 82.0193 56.0498C81.7163 56.0008 81.8806 55.2958 81.8771 55.0346C81.8827 54.6606 81.8682 54.2696 81.8553 53.8971C81.8254 53.5448 81.2691 53.592 81.2804 53.9459Z" fill="#101010"/>
<path d="M90.6421 76.8907C91.9148 77.3617 92.9661 76.544 93.9093 75.7729C95.0624 74.8346 96.3871 73.9377 97.356 72.8096C98.3604 71.6597 98.712 70.0796 99.1905 68.6756C99.6706 67.29 100.242 65.8781 100.416 64.4065C100.7 62.029 99.452 59.6507 96.8291 59.5558C94.5447 59.4881 92.8772 61.6281 93.1942 63.8239C93.2427 64.1746 93.799 64.1274 93.7506 63.7767C93.4024 61.4341 95.6033 59.417 97.9029 60.3238C100.318 61.2769 100.069 64.0623 99.4587 66.1127C99.125 67.2429 98.714 68.3424 98.3401 69.4388C97.9816 70.4965 97.6617 71.5696 96.932 72.4346C96.2192 73.2796 95.2295 73.9426 94.3743 74.6502C93.4667 75.3996 92.1706 76.8544 90.8778 76.3664C90.5515 76.2633 90.2957 76.7706 90.6421 76.8907Z" fill="#101010"/>
<path d="M86.8126 87.2456C88.2872 86.3547 89.0933 84.8481 89.5916 83.2369C90.2345 81.1278 90.6083 78.9295 91.0795 76.7789C91.1624 76.4357 90.6121 76.333 90.5291 76.6762C90.1239 78.5036 89.7557 80.3279 89.3117 82.14C88.8694 83.9706 88.1812 85.766 86.4935 86.7871C86.1739 86.9823 86.4929 87.4408 86.8126 87.2456Z" fill="#101010"/>
<path d="M92.6331 76.3665C91.2333 80.7811 90.2415 85.1611 90.148 89.7825C90.0914 92.1967 90.2032 94.6153 90.6488 97.0056C91.1413 99.7281 92.3196 102.168 93.5196 104.644C93.6777 104.967 94.2029 104.773 94.0448 104.45C92.8231 101.939 91.62 99.426 91.1413 96.6463C90.7592 94.344 90.6584 92.0552 90.7043 89.7353C90.801 85.151 91.7975 80.8266 93.1835 76.4692C93.3035 76.1228 92.7531 76.0201 92.6331 76.3665Z" fill="#101010"/>
<path d="M50.8336 80.5482C52.1785 79.6683 51.1235 78.0208 51.2267 76.8166C51.2525 76.4596 50.7207 76.3553 50.6764 76.7139C50.5743 77.7125 51.5413 79.4235 50.496 80.0912C50.2135 80.2833 50.5325 80.7418 50.8336 80.5482Z" fill="#101010"/>
<path d="M46.4274 67.1567C45.6772 73.9444 46.8063 80.6472 49.3582 86.9492C49.9989 88.5571 50.7107 90.1217 51.441 91.6847C51.9667 92.8168 52.3782 94.1453 53.242 95.0806C54.0625 95.9449 55.1755 96.0746 56.3177 96.1084C57.9081 96.1416 59.238 96.6264 60.7518 97.077C63.0139 97.7629 65.6833 96.864 67.8724 96.2487C68.2184 96.1446 68.0244 95.6194 67.6784 95.7235C65.7998 96.2564 63.512 97.0295 61.5425 96.711C60.312 96.5166 59.1751 95.8846 57.9429 95.6717C56.6536 95.4449 55.1534 95.815 54.0225 95.0331C52.91 94.2496 52.4981 92.697 51.9477 91.4923C51.2639 90.0374 50.5986 88.581 49.9859 87.0827C48.7852 84.1588 47.8209 81.1588 47.2753 78.0299C46.6563 74.4776 46.5535 70.8442 46.9391 67.2441C47.022 66.9008 46.4717 66.7981 46.4274 67.1567Z" fill="#101010"/>
<path d="M54.9918 96.1088C56.8297 97.2977 56.2082 99.2182 55.3126 100.77C55.1338 101.084 55.6395 101.321 55.8183 101.007C56.3887 100.025 56.9528 98.9682 56.7408 97.7909C56.5678 96.853 56.0196 96.115 55.2291 95.6031C54.9336 95.4227 54.6963 95.9285 54.9918 96.1088Z" fill="#101010"/>
<path d="M55.8945 99.2644C54.7424 100.875 54.9865 102.872 55.164 104.743C55.3978 107.058 55.6734 109.425 56.4757 111.617C57.3262 113.936 58.8822 115.765 60.426 117.67C61.2405 118.684 62.0565 119.717 62.888 120.711C63.6792 121.671 64.4101 122.58 64.4074 123.869C64.4002 124.224 64.9565 124.177 64.9637 123.822C64.9824 121.84 63.3047 120.339 62.1558 118.905C60.6321 117.017 58.8488 115.151 57.7127 112.988C56.6215 110.914 56.2007 108.596 55.9129 106.304C55.6609 104.215 55.0354 101.467 56.3541 99.6176C56.536 99.3407 56.0934 98.9673 55.8945 99.2644Z" fill="#101010"/>
<path d="M55.9807 99.1811C52.5589 100.237 50.0633 103.624 49.2694 107.035C48.7489 109.264 49.5264 111.384 49.862 113.578C50.2381 116.03 50.2604 118.494 50.0014 120.944C49.9571 121.302 50.5074 121.405 50.5517 121.046C50.7759 119.066 50.8116 117.065 50.6247 115.082C50.4204 112.895 49.5609 110.69 49.6364 108.498C49.79 104.805 52.6448 100.809 56.1933 99.7047C56.5208 99.6022 56.3268 99.077 55.9807 99.1811Z" fill="#101010"/>
<path d="M55.799 122.787C57.2847 122.026 59.168 121.549 60.8235 121.689C62.4975 121.827 63.5003 122.638 64.4204 124.017C64.614 124.318 65.0726 123.999 64.8789 123.698C63.9572 122.301 62.9064 121.362 61.1905 121.172C59.3417 120.955 57.2529 121.431 55.6066 122.281C55.3024 122.437 55.4778 122.964 55.799 122.787Z" fill="#101010"/>
<path d="M68.5076 124.193C69.7251 122.913 71.2956 122.051 73.051 121.827C73.9009 121.718 74.7634 121.757 75.5998 121.929C76.076 122.038 76.5553 122.184 77.0007 122.37C77.194 122.447 78.258 122.88 78.2568 123.085C78.3416 122.985 78.4265 122.884 78.5114 122.784C78.4928 122.785 78.4743 122.787 78.4557 122.788C78.1034 122.818 78.1506 123.375 78.5029 123.345C78.5215 123.343 78.54 123.342 78.5586 123.34C78.7255 123.326 78.8072 123.188 78.8131 123.038C78.8306 122.364 77.4297 121.923 76.9472 121.74C75.9235 121.341 74.8429 121.152 73.7626 121.188C71.5819 121.242 69.5572 122.255 68.065 123.819C67.8274 124.101 68.2685 124.456 68.5076 124.193Z" fill="#101010"/>
<path d="M72.8502 121.677C78.0591 119.89 82.6106 116.739 86.6466 113.016C88.7256 111.103 90.6621 109.052 92.5182 106.933C93.5057 105.804 94.3803 104.665 95.8075 104.095C96.8733 103.669 97.9331 103.392 98.7169 102.504C98.9561 102.241 98.532 101.866 98.2945 102.147C97.3903 103.158 96.001 103.294 94.8583 103.914C93.8406 104.468 93.1326 105.368 92.3827 106.216C90.5605 108.295 88.678 110.322 86.6547 112.231C82.5895 116.05 77.9563 119.338 72.6377 121.153C72.3303 121.272 72.5227 121.779 72.8502 121.677Z" fill="#101010"/>
<path d="M91.4338 98.7692C93.2647 99.4357 95.1695 99.8718 97.1078 100.043C98.9906 100.22 100.977 100.294 102.234 101.906C103.973 104.13 103.786 107.433 106.163 109.249C106.443 109.468 106.818 109.044 106.52 108.827C104.082 106.96 104.394 103.366 102.36 101.185C101.25 99.9909 99.6575 99.7151 98.0947 99.5675C95.892 99.3622 93.771 99.0192 91.6896 98.2619C91.3432 98.1419 91.0874 98.6492 91.4338 98.7692Z" fill="#101010"/>
<path d="M79.7024 30.0602C77.2929 26.9773 74.5414 23.606 70.4939 22.7914C68.3465 22.3573 66.191 22.7083 64.1178 23.3698C61.8455 24.1043 59.0822 25.2166 56.9714 23.4532C56.6897 23.2156 56.3349 23.6566 56.615 23.8757C57.9613 24.9942 59.7281 25.1244 61.3797 24.7788C63.8008 24.2559 66.0015 23.1166 68.544 23.1437C73.3491 23.2029 76.4999 26.8765 79.2423 30.3607C79.4545 30.6602 79.913 30.3411 79.7024 30.0602Z" fill="#101010"/>
<path d="M66.308 26.7512C63.6568 26.3225 60.9433 25.6001 58.2453 25.9411C55.9536 26.229 54.0343 27.3818 52.4975 29.0811C49.2325 32.6454 47.8837 38.1017 43.334 40.3928C43.0112 40.551 43.2052 41.0762 43.528 40.918C47.6468 38.8315 49.2242 34.3084 51.8216 30.8008C53.3301 28.7676 55.2393 27.0554 57.7949 26.577C60.59 26.0597 63.4582 26.8436 66.2053 27.3016C66.5454 27.3474 66.6497 26.8156 66.308 26.7512Z" fill="#101010"/>
<path d="M49.0386 37.1629C46.9681 38.5153 45.4225 40.5515 44.6703 42.9127C44.318 44.0446 44.139 45.2365 44.1841 46.428C44.2248 47.788 44.9322 49.5211 44.084 50.751C43.885 51.0481 44.3075 51.4045 44.5064 51.1074C45.1387 50.1946 45.0723 49.1916 44.927 48.1394C44.7411 46.829 44.6341 45.568 44.8964 44.257C45.4132 41.5422 47.02 39.1272 49.3577 37.6214C49.6588 37.4278 49.3397 36.9692 49.0386 37.1629Z" fill="#101010"/>
<path d="M46.3557 53.1169C48.319 51.3814 48.8555 48.4595 49.835 46.1351C51.0162 43.3266 52.5237 40.6211 54.7337 38.4911C55.8217 37.4463 57.0723 36.5557 58.4391 35.9354C59.8431 35.312 61.3203 35.1119 62.7834 34.745C64.8305 34.2164 66.4839 33.0115 66.8407 30.8333C66.9036 30.4731 66.3532 30.3703 66.2904 30.7305C65.8205 33.7775 62.9169 34.1173 60.4264 34.7022C57.9899 35.2638 55.8606 36.5838 54.1044 38.3391C52.2109 40.2368 50.8219 42.5773 49.739 45.0039C49.1567 46.286 48.6703 47.5974 48.1839 48.9087C47.6837 50.2773 47.1866 51.6829 46.0551 52.6568C45.7572 52.8875 46.0763 53.3461 46.3557 53.1169Z" fill="#101010"/>
<path d="M64.2029 59.1678C64.8472 59.0571 65.3042 58.7195 65.792 58.3045C66.5777 57.6589 67.3794 57.4227 68.3903 57.449C69.4583 57.4891 70.4339 57.7612 71.4036 58.1832C72.1212 58.4959 72.7892 58.6634 73.5696 58.6158C73.9235 58.6045 73.8763 58.0481 73.5224 58.0595C72.4622 58.1121 71.6531 57.6017 70.6743 57.2926C69.9244 57.0387 69.1282 56.9008 68.3431 56.8927C67.6506 56.8767 66.9274 56.9381 66.2819 57.2544C65.5297 57.6357 65.0194 58.4448 64.1371 58.613C63.8049 58.6599 63.8336 59.2178 64.2029 59.1678Z" fill="#101010"/>
<path d="M66.4007 57.5613C66.0237 58.6205 67.1565 59.6451 68.1504 59.6915C69.5199 59.762 69.9692 58.4538 69.816 57.3088C69.7676 56.9581 69.2112 57.0053 69.2597 57.356C69.355 58.039 69.2853 58.9788 68.42 59.1269C67.8112 59.216 66.6186 58.5887 66.8895 57.8186C67.0265 57.4521 66.5207 57.2149 66.4007 57.5613Z" fill="#101010"/>
<path d="M70.9567 59.0799C71.2345 58.8322 71.6271 58.8362 71.9779 58.7878C72.3286 58.7393 72.6794 58.6909 73.0302 58.6425C73.3809 58.594 73.3337 58.0377 72.983 58.0861C72.5209 58.144 72.0774 58.2003 71.6154 58.2582C71.2647 58.3066 70.9139 58.3551 70.6361 58.6028C70.3582 58.8505 70.6773 59.309 70.9567 59.0799Z" fill="#101010"/>
<path d="M65.9015 59.1546C65.4467 58.857 64.9456 58.6754 64.4185 58.6267C64.0615 58.601 63.9587 59.1513 64.3158 59.1771C64.7486 59.215 65.1692 59.3288 65.5451 59.577C65.8421 59.776 66.197 59.335 65.9015 59.1546Z" fill="#101010"/>
<path d="M46.9883 66.7172C47.3899 65.5064 47.8826 64.2693 48.0754 63.0202C48.2683 61.7711 48.0686 60.5179 47.8519 59.2849C47.6041 57.9051 47.344 56.6011 47.5227 55.1851C47.6844 53.7892 47.9219 52.4056 48.1223 51.0251C48.1666 50.6665 47.6162 50.5638 47.5719 50.9224C47.2217 53.3989 46.6782 55.7984 47.1131 58.283C47.3361 59.5902 47.6534 60.908 47.5813 62.259C47.5186 63.7211 46.9256 65.0976 46.4825 66.4799C46.3811 66.8248 46.8868 67.062 46.9883 66.7172Z" fill="#101010"/>
<path d="M48.8075 60.4176C49.668 59.1119 51.2404 58.4928 52.7313 59.1135C53.2354 59.3322 54.2338 60.3121 54.8234 59.7764C54.9283 59.6928 54.956 59.5784 54.9264 59.4502C54.9249 59.4316 54.9233 59.4131 54.9032 59.3961C54.7991 59.0501 54.2739 59.244 54.378 59.5901C54.3796 59.6086 54.3811 59.6272 54.4012 59.6441C54.4289 59.5297 54.4767 59.4323 54.5043 59.3179C54.2959 59.5037 52.9484 58.5907 52.6036 58.4892C52.0469 58.3123 51.4456 58.27 50.8755 58.3744C49.8263 58.5568 48.9463 59.1918 48.3681 60.0814C48.1861 60.3583 48.6086 60.7147 48.8075 60.4176Z" fill="#101010"/>
<path d="M49.6885 59.3714C49.4287 60.2713 50.2274 61.1 51.1175 61.0245C51.5811 60.9852 52.0274 60.7418 52.3345 60.3983C52.6909 59.9758 52.7226 59.4688 52.6769 58.931C52.647 58.5787 52.0907 58.6259 52.1206 58.9782C52.1958 59.6442 51.9834 60.2226 51.2913 60.4307C50.6718 60.614 50.0497 60.1065 50.2389 59.4741C50.3404 59.1293 49.79 59.0266 49.6885 59.3714Z" fill="#101010"/>
<path d="M53.0216 60.7893C53.4213 60.4379 53.8676 60.1946 54.3975 60.0562C54.7452 59.9707 54.5512 59.4455 54.2035 59.531C53.6365 59.6725 53.1378 59.9577 52.7041 60.3493C52.4416 60.5584 52.7607 61.0169 53.0216 60.7893Z" fill="#101010"/>
<path d="M49.2307 60.3452C48.8705 60.2824 48.4965 60.2767 48.1287 60.3453C47.7795 60.4123 47.8268 60.9686 48.1759 60.9016C48.4881 60.8378 48.8049 60.8296 49.128 60.8956C49.4866 60.9398 49.5893 60.3895 49.2307 60.3452Z" fill="#101010"/>
<path d="M50.1929 60.4681C50.5547 60.5495 51.3788 60.7971 51.6441 60.401C51.9247 59.9663 51.1823 59.5811 50.9038 59.3805C50.8437 59.5537 50.8007 59.7068 50.7407 59.88C51.0405 59.8919 51.3866 59.7879 51.4695 59.4446C51.4972 59.3302 51.4846 59.1819 51.4195 59.0753C51.3327 58.9332 51.1828 58.9273 51.0822 58.8424C51.1071 58.915 51.1489 58.9675 51.1737 59.0401C51.1706 59.003 51.169 58.9845 51.1658 58.9474C51.081 59.048 50.9961 59.1486 50.9113 59.2492C51.2605 59.1822 51.6298 59.1322 51.9806 59.0837C51.9463 58.8999 51.8935 58.7176 51.8607 58.5522C51.4267 58.7198 51.1212 59.0819 51.1049 59.5503C51.1021 59.7373 51.2074 59.8778 51.3945 59.8806C51.4501 59.8758 51.4872 59.8727 51.5428 59.868C51.4438 59.8017 51.3463 59.7539 51.2659 59.686C51.3388 59.8853 51.4441 60.0258 51.6051 60.1615C51.611 60.0116 51.617 59.8617 51.6229 59.7118C51.2492 59.9302 51.3983 60.3659 51.7616 60.4658C52.1049 60.5487 52.2076 59.9983 51.8643 59.9154C51.8257 59.9 51.8071 59.9016 51.7685 59.8862C51.8273 59.9186 51.8876 59.9695 51.9464 60.0018C51.9247 59.9663 51.9046 59.9493 51.9014 59.9123C51.9263 59.9849 51.9326 60.059 51.9574 60.1316C51.9728 60.093 51.9712 60.0744 51.9866 60.0358C51.9543 60.0946 51.9033 60.1549 51.871 60.2137C51.9065 60.192 51.9235 60.1719 51.9605 60.1687C52.1212 60.0804 52.1192 59.8377 51.9784 59.7189C51.8995 59.6696 51.836 59.5816 51.8096 59.4905C51.7615 59.3638 51.644 59.2991 51.5327 59.3085C51.4771 59.3132 51.44 59.3164 51.3843 59.3211C51.4865 59.4245 51.5902 59.5464 51.6738 59.6514C51.6873 59.3701 51.82 59.1721 52.0918 59.0743C52.3807 58.9564 52.2857 58.4975 51.972 58.5428C51.6212 58.5912 51.2519 58.6413 50.9027 58.7082C50.756 58.7394 50.634 58.8431 50.6482 59.01C50.6592 59.1398 50.6888 59.268 50.8264 59.3498C50.8465 59.3667 50.927 59.4346 50.9625 59.4129C51.1231 59.3246 50.7321 59.3391 50.7321 59.3391C50.4895 59.341 50.3896 59.7043 50.5691 59.8385C50.7284 59.9558 51.1182 60.1468 51.1911 60.3461C51.2034 60.2703 51.1971 60.1962 51.2093 60.1204C51.1924 60.1405 51.1939 60.1591 51.177 60.1792C51.2295 60.1374 51.2804 60.077 51.3329 60.0352C51.0795 60.1314 50.6002 59.9853 50.3343 59.9332C49.9524 59.8348 49.8497 60.3852 50.1929 60.4681Z" fill="#101010"/>
<path d="M68.5477 58.8553C68.472 58.843 68.4132 58.8106 68.3544 58.7783C68.2925 58.7088 68.3063 58.6516 68.399 58.6437C68.4855 58.5617 68.5596 58.5554 68.6445 58.4548C68.7957 58.2552 68.6438 58.0066 68.3996 57.99C68.1569 57.9919 68.0777 57.7184 68.2707 57.5713C68.4976 57.384 68.3596 57.0782 68.0783 57.0647C67.6671 57.0622 67.2793 57.1138 66.8977 57.2396C66.6969 57.2939 66.6479 57.5969 66.8073 57.7142C66.8274 57.7311 67.33 57.9313 67.3036 57.8402C67.3498 57.7242 67.4145 57.6066 67.4607 57.4906C67.0961 57.5963 66.7966 57.8085 66.5807 58.1256C66.4481 58.3237 66.5644 58.594 66.8256 58.5905C66.9368 58.581 67.0311 58.5917 67.1424 58.5823C67.198 58.5776 67.3495 58.602 67.3109 58.5866C67.2691 58.5342 67.2087 58.4832 67.1669 58.4308C67.2367 58.5929 67.2307 58.7429 67.3562 58.9003C67.4816 59.0578 67.6177 59.121 67.8094 59.1794C68.097 59.2671 68.2123 58.865 68.0483 58.6922C67.8455 58.5039 67.7694 58.2676 67.7644 57.9878C67.7486 57.8024 67.5522 57.6883 67.39 57.7581C66.718 57.9832 67.3081 58.7737 67.6438 58.988C67.9408 59.1869 68.2972 58.7644 68.0002 58.5655C67.9011 58.4992 67.8222 58.4499 67.7587 58.3619C67.7185 58.3279 67.6968 58.2924 67.6751 58.2569C67.6503 58.1843 67.6132 58.1874 67.584 58.2833C67.4648 58.2 67.3272 58.1183 67.2096 58.0536C67.2273 58.4817 67.4071 58.84 67.6934 59.1332C67.7736 58.977 67.8521 58.8022 67.9323 58.646C67.7019 58.5721 67.7848 58.2289 67.5682 58.0979C67.3702 57.9653 67.0226 58.0508 66.8001 58.0697C66.8884 58.2303 66.9566 58.3739 67.045 58.5345C67.2115 58.2962 67.4045 58.1491 67.6965 58.0683C67.8602 58.0171 67.9017 57.8454 67.8536 57.7188C67.8225 57.572 67.7203 57.4686 67.5842 57.4054C67.4682 57.3592 67.2658 57.3951 67.1869 57.3458C67.1624 57.4973 67.1395 57.6673 67.0964 57.8204C67.4425 57.7163 67.7747 57.6694 68.1302 57.6766C68.0604 57.5145 68.0076 57.3322 67.9378 57.17C67.308 57.6717 67.6478 58.5954 68.433 58.6035C68.3446 58.4429 68.2764 58.2993 68.1881 58.1387C68.0878 58.2779 67.8823 58.2767 67.765 58.4361C67.6818 58.5552 67.6573 58.7067 67.6884 58.8535C67.7739 59.2011 68.0848 59.3428 68.4095 59.4273C68.7898 59.5071 68.874 58.9583 68.5477 58.8553Z" fill="#101010"/>
<path d="M63.686 34.5766C66.6801 34.8642 69.7051 35.0745 72.7087 35.4733C75.2223 35.8204 77.873 36.9029 80.3565 35.7957C80.6809 35.6561 80.4869 35.1309 80.1625 35.2705C77.6419 36.3809 74.7344 35.1334 72.1498 34.8297C69.3766 34.5047 66.5943 34.2925 63.8072 34.0247C63.4301 33.982 63.3274 34.5323 63.686 34.5766Z" fill="#101010"/>
<path d="M71.8847 29.0796C74.9056 29.6825 76.7349 32.3102 78.846 34.2977C79.8412 35.2405 80.9615 36.1167 82.2373 36.6248C82.7971 36.8388 83.3692 36.977 83.9519 37.021C84.7418 37.0847 85.5282 36.8872 86.2675 37.2354C86.5985 37.3941 86.8357 36.8884 86.5047 36.7297C85.9603 36.477 85.4178 36.467 84.8012 36.4633C83.8878 36.4848 83.0577 36.3871 82.204 36.0113C80.7889 35.4029 79.6157 34.3445 78.5523 33.258C76.6314 31.3104 74.7811 29.0953 71.9705 28.5494C71.6272 28.4664 71.5245 29.0168 71.8847 29.0796Z" fill="#101010"/>
<path d="M77.9771 27.3484C79.7963 27.4368 81.8746 28.157 83.4648 29.0681C84.84 29.8666 85.294 31.6958 86.9005 32.1385C87.2453 32.24 87.3481 31.6896 87.0033 31.5881C85.9317 31.2868 85.5576 30.1792 84.8594 29.4353C84.3052 28.8473 83.62 28.4759 82.8839 28.1648C81.3125 27.4763 79.6532 26.8513 77.9283 26.7735C77.5744 26.7849 77.6401 27.3396 77.9771 27.3484Z" fill="#101010"/>
<path d="M85.7101 29.5504C88.0985 28.8621 90.0137 30.0817 90.6416 32.4192C91.1064 34.1542 93.3239 34.9746 94.7101 35.9029C96.432 37.0456 97.9101 38.3957 98.6564 40.3682C99.4044 42.3593 99.366 44.5479 98.5421 46.5042C98.4019 46.8336 98.9077 47.0709 99.0478 46.7415C99.8563 44.8238 99.9737 42.6846 99.3571 40.701C98.6861 38.5166 97.1675 36.9085 95.3048 35.647C94.2945 34.967 93.2349 34.3658 92.2416 33.6656C91.567 33.1999 91.2835 32.7196 91.0659 31.9163C90.954 31.4775 90.7694 31.0636 90.5308 30.6729C89.3938 28.939 87.3931 28.4737 85.479 29.0283C85.1701 29.1293 85.3641 29.6545 85.7101 29.5504Z" fill="#101010"/>
<path d="M79.946 38.4439C80.8162 39.4534 81.773 40.6049 82.9332 41.2909C83.4252 41.5854 83.9416 41.7283 84.4935 41.8496C85.3114 42.023 86.0089 42.3187 86.7545 42.741C87.0685 42.9199 87.3057 42.4141 86.9917 42.2353C86.54 41.9748 86.0883 41.7143 85.5889 41.5512C84.9162 41.3281 84.2037 41.2952 83.5618 40.9948C82.3183 40.4279 81.2562 39.1359 80.386 38.1264C80.177 37.864 79.7184 38.183 79.946 38.4439Z" fill="#101010"/>
<path d="M83.3236 41.4828C81.9411 43.0196 81.7799 45.7416 82.0765 47.6962C82.2435 48.784 82.5758 49.8391 83.0688 50.8059C83.6485 51.9147 84.5695 52.8638 84.6966 54.1418C84.7265 54.4942 85.2828 54.447 85.2529 54.0946C85.1805 53.2416 84.8024 52.5266 84.35 51.8178C83.7257 50.8435 83.1771 49.8815 82.8771 48.7676C82.3099 46.7052 82.2278 43.5369 83.7662 41.8561C83.9853 41.5761 83.5628 41.2197 83.3236 41.4828Z" fill="#101010"/>
<path d="M85.742 58.3112C88.5769 59.5836 87.073 63.6522 87.8477 65.9585C88.4998 67.9204 90.4351 69.157 92.4706 69.1524C92.8261 69.1595 92.7789 68.6032 92.4234 68.596C91.0973 68.5965 89.8136 67.9957 88.996 66.9444C88.0932 65.7696 88.0833 64.3322 88.1121 62.9103C88.1386 61.0216 87.9604 58.702 85.9792 57.8055C85.6668 57.6452 85.411 58.1525 85.742 58.3112Z" fill="#101010"/>
<path d="M92.6896 66.9118C92.054 66.6855 92.0018 65.8495 91.8788 65.2809C91.7496 64.6382 91.6203 63.9954 91.4926 63.3712C91.4256 63.022 90.8693 63.0692 90.9363 63.4184C91.1247 64.3176 91.259 65.2401 91.503 66.1346C91.6429 66.6831 91.8925 67.2036 92.4523 67.4175C92.7802 67.5391 93.0174 67.0334 92.6896 66.9118Z" fill="#101010"/>
<path d="M93.3116 65.6442C92.7802 63.7841 93.4696 61.7832 95.0149 60.6248C95.2959 60.4141 94.9768 59.9556 94.6958 60.1662C92.9405 61.4919 92.1959 63.7217 92.7864 65.8382C92.8904 66.1842 93.4156 65.9902 93.3116 65.6442Z" fill="#101010"/>
<path d="M95.5063 50.1417C95.1428 52.0216 95.9851 54.0234 96.853 55.6681C97.2746 56.4541 97.7858 57.1952 98.4204 57.8511C99.1557 58.5919 100.832 59.1967 100.872 60.3326C100.884 60.6865 101.44 60.6393 101.429 60.2854C101.4 59.5034 100.929 59.0204 100.313 58.587C99.4423 58.0072 98.7026 57.4349 98.0893 56.5904C96.8844 54.937 95.6734 52.3315 96.0768 50.2614C96.1195 49.8842 95.5691 49.7815 95.5063 50.1417Z" fill="#101010"/>
<path d="M99.7302 60.2998C99.7629 60.4651 100.189 61.9606 100.005 61.9948C99.6588 62.0989 99.8512 62.6056 100.199 62.52C100.546 62.4345 100.646 62.0711 100.62 61.7559C100.572 61.1996 100.375 60.6373 100.255 60.1058C100.188 59.7566 99.6633 59.9506 99.7302 60.2998Z" fill="#101010"/>
<path d="M96.7283 44.51C96.8164 45.5485 97.4033 46.3018 98.0845 47.0659C99.0118 48.0892 99.8046 49.0678 100.218 50.4149C100.882 52.5251 100.338 55.1302 102.298 56.6635C102.578 56.8826 102.935 56.4601 102.655 56.2411C100.754 54.7587 101.376 51.9603 100.642 49.912C100.302 48.9883 99.7816 48.1359 99.1406 47.4058C98.3742 46.5183 97.3916 45.7238 97.2862 44.4814C97.2547 44.1105 96.6984 44.1577 96.7283 44.51Z" fill="#101010"/>
<path d="M84.5485 46.0291C84.7693 47.9715 85.6329 49.7847 87.0569 51.1581C87.789 51.8617 88.649 52.3117 89.5338 52.8344C90.8132 53.6036 91.4362 54.7835 92.0163 56.1164C92.1559 56.4408 92.6811 56.2468 92.5415 55.9225C92.1491 55.0405 91.7536 54.1215 91.1127 53.3915C90.4299 52.6089 89.5004 52.2208 88.6511 51.6765C86.6586 50.4261 85.3772 48.3122 85.1233 45.9803C85.0548 45.6126 84.4985 45.6598 84.5485 46.0291Z" fill="#101010"/>
<path d="M62.9517 51.6725C64.4415 51.6208 65.9206 51.6634 67.3907 51.8188C68.8051 51.979 70.1485 52.1825 71.5717 52.0057C72.2748 51.9274 72.1989 50.8132 71.4773 50.8931C69.9243 51.0809 68.4618 50.7941 66.9175 50.6449C65.5619 50.5171 64.2157 50.5006 62.8557 50.5413C62.1494 50.5826 62.2438 51.6952 62.9517 51.6725Z" fill="#101010"/>
<path d="M53.649 52.7782C52.8679 52.3775 51.8172 52.5414 50.9812 52.5936C49.9226 52.6648 48.7333 53.1766 47.6834 52.9108C46.9784 52.7465 46.7915 53.8457 47.478 54.0116C48.3933 54.2327 49.2089 53.9394 50.0943 53.8082C50.9241 53.6818 52.395 53.4076 53.156 53.7913C53.818 54.1086 54.294 53.1157 53.649 52.7782Z" fill="#101010"/>
<path d="M58.2486 70.0015C57.6367 70.0534 57.113 70.266 56.6422 70.6608C56.3968 70.8497 56.5813 71.2637 56.9073 71.1426C57.797 70.843 58.7132 70.6345 59.6558 70.5172C59.9695 70.4719 59.989 70.0406 59.6844 69.9731C59.2453 69.8609 58.859 69.931 58.4885 70.1866C58.2229 70.3586 58.4477 70.8064 58.7535 70.6684C59.1149 70.5257 59.4578 70.3845 59.8177 70.2233C60.1065 70.1054 60.0116 69.6465 59.6979 69.6918C59.3455 69.7217 58.9932 69.7516 58.6409 69.7815C58.2885 69.8114 58.3357 70.3677 58.6881 70.3378C59.0404 70.3079 59.3927 70.278 59.7451 70.2481C59.7108 70.0642 59.658 69.8819 59.6253 69.7166C59.2638 69.8593 58.9209 70.0005 58.5611 70.1618C58.6494 70.3224 58.7377 70.483 58.8261 70.6436C59.0731 70.4732 59.3142 70.4528 59.6002 70.5219C59.603 70.3349 59.6244 70.1463 59.6288 69.9778C58.6305 70.0999 57.6772 70.3115 56.7334 70.6344C56.8217 70.795 56.9101 70.9556 56.9984 71.1162C57.3998 70.7833 57.8153 70.6173 58.3329 70.5547C58.6482 70.5279 58.601 69.9716 58.2486 70.0015Z" fill="#101010"/>
<path d="M58.985 56.8841C58.9951 57.4435 59.1737 58.0074 59.4032 58.5109C59.6994 59.1395 60.1866 59.3783 60.5861 59.9047C61.1994 60.7492 61.2366 61.8481 61.3031 62.851C61.3408 63.2961 61.3833 63.7968 61.7809 64.0806C62.0796 64.298 62.4344 63.857 62.1373 63.6581C61.6793 63.3234 61.8584 62.1315 61.7788 61.634C61.6681 60.9896 61.5156 60.2928 61.1685 59.7246C60.8865 59.2629 60.4226 59.0781 60.1252 58.6551C59.7844 58.161 59.5747 57.4504 59.5599 56.8353C59.5284 56.4644 58.9721 56.5116 58.985 56.8841Z" fill="#101010"/>
<path d="M60.8695 60.6084C60.7346 60.3397 60.5812 60.0726 60.4464 59.8039C60.3075 59.9277 60.1685 60.0516 60.0296 60.1754C60.5464 60.5425 60.8686 61.0381 60.9963 61.6623C61.1585 61.5925 61.3408 61.5397 61.5029 61.4699C61.0151 60.7829 60.5982 60.0525 60.2879 59.257C60.1273 59.3453 59.9667 59.4336 59.8061 59.522C60.398 60.5551 60.5745 61.7541 61.1495 62.8073C61.3262 63.1285 61.7831 62.7909 61.608 62.4883C61.0532 61.452 60.8566 60.236 60.2646 59.2029C60.1112 58.9358 59.6634 59.1605 59.7828 59.4679C60.1148 60.2989 60.5348 61.0664 61.0645 61.806C61.2132 62.0175 61.6334 61.9071 61.5712 61.6135C61.4309 60.841 61.042 60.2202 60.4046 59.7514C60.1446 59.5493 59.853 59.8542 59.9878 60.1229C60.1227 60.3917 60.2761 60.6588 60.411 60.9275C60.5691 61.2503 61.0276 60.9312 60.8695 60.6084Z" fill="#101010"/>
<path d="M63.5488 121.233C63.6805 121.465 63.8123 121.697 63.961 121.908C63.8308 121.695 63.6805 121.465 63.5488 121.233Z" fill="#101010"/>
<path d="M55.3531 101.028C55.3701 101.008 55.3871 100.988 55.4041 100.968C55.4069 100.781 55.4113 100.612 55.4141 100.425C55.3836 100.727 55.3836 100.727 55.3531 101.028Z" fill="#101010"/>
<path d="M70.4426 94.1818C68.7838 94.8829 68.1015 95.4264 66.9122 95.9382C64.5166 96.982 62.417 96.4504 58.5 96.073C57.0871 95.9314 55.5611 95.5566 54.1436 95.3594C55.2707 95.656 56.2257 96.5648 56.5458 97.6957C56.9155 98.9718 56.0409 100.111 55.3854 100.969C55.3351 104.56 55.3871 108.254 56.8046 111.533C58.3851 115.19 61.4354 117.901 63.53 121.235C62.7598 119.862 62.2027 118.359 61.3938 116.971C60.2131 114.942 59.2624 112.762 58.5867 110.522C58.2216 109.302 57.9091 108.04 57.9891 106.781C58.0675 105.505 58.5756 104.229 59.5527 103.417C61.1597 102.104 63.5016 102.41 65.538 101.976C66.4187 101.789 67.3377 101.393 67.7754 100.609C68.409 99.4908 67.838 98.045 68.2179 96.7987C68.484 95.973 68.9281 95.2629 69.6723 94.7888C69.6925 94.8058 70.4612 94.1803 70.4426 94.1818Z" fill="#101010"/>
<path d="M54.1651 95.3575C53.9732 95.299 53.7845 95.2776 53.5771 95.2578C53.7675 95.2977 53.9562 95.3191 54.1651 95.3575Z" fill="#101010"/>
<path d="M88.2722 108.825C89.4312 107.737 90.5655 106.576 91.3439 105.184C92.1037 103.793 92.4829 102.099 92.0185 100.588C92.7177 102.004 93.437 103.437 94.1362 104.853C94.3505 104.518 93.9219 105.189 94.1362 104.853C88.6883 111.087 81.6298 117.271 74.3112 121.048C72.2896 122.098 71.2885 121.305 67.9885 124.237C68.1511 122.411 71.6992 121.083 73.0287 120.242C74.8352 119.08 76.6232 117.92 78.3694 116.707C81.8432 114.283 85.1916 111.701 88.2722 108.825Z" fill="#101010"/>
<path d="M92.8506 100.929C93.3407 102.082 93.922 103.21 94.5928 104.292C95.8302 103.907 96.9916 103.286 98.1158 102.667C98.2578 102.58 98.4185 102.492 98.5187 102.353C98.619 102.214 98.6387 102.007 98.535 101.885C98.4111 101.746 98.204 101.726 98.0186 101.742C96.2427 101.724 94.4945 101.592 92.8506 100.929Z" fill="#101010"/>
<path d="M87.8357 61.6447C87.8653 62.8749 87.6926 64.141 88.0174 65.3275C88.5287 67.1705 90.5219 68.8692 92.4461 68.874C90.7971 67.9306 89.485 65.894 89.2689 64.0072C89.649 64.9649 90.7815 65.7653 91.6817 66.2493C91.5951 64.1274 90.6862 62.0005 89.8131 60.0761C91.3584 60.8976 91.9335 63.0527 92.854 64.6556C92.8421 62.9756 93.1956 61.6382 94.2915 60.686C94.2569 60.2781 87.4214 58.5233 86.7412 58.4316C87.4429 59.4367 87.8044 60.396 87.8357 61.6447Z" fill="#101010"/>
<path d="M82.519 48.2931C83.2594 50.4156 84.5622 52.3409 85.1388 54.5146C85.6161 53.3161 85.5522 51.902 84.9678 50.7376C85.8066 53.5801 88.459 55.7831 91.3975 56.0755C90.8476 54.217 88.9651 53.1627 87.5798 51.8047C84.9547 49.2631 83.9378 45.203 85.0624 41.7269C84.9731 41.9959 82.9036 40.9388 82.7458 40.8401C84.3913 41.5223 82.8563 42.3623 82.3972 43.3352C81.704 44.8509 82.0006 46.8055 82.519 48.2931Z" fill="#101010"/>
<path d="M85.8204 42.7468C84.8972 44.4127 85.5078 46.5462 86.663 48.0545C87.8183 49.5627 89.4412 50.6391 90.8048 51.9615C92.1854 53.2639 93.3781 54.9931 93.2959 56.8865C94.5441 57.509 95.6892 58.4578 96.686 59.4192C98.2629 59.7337 99.614 60.9078 100.078 62.4186C100.35 61.443 99.9996 60.3894 99.4048 59.5434C98.81 58.6973 98.044 58.0339 97.3644 57.2884C95.6723 55.3961 94.5883 52.9666 94.3171 50.4308C94.1368 48.7464 93.1374 47.0942 91.6833 46.2463C94.0221 46.5148 96.0745 48.4699 96.5864 50.7612C96.8292 51.8613 96.7598 53.0252 97.0768 54.1189C97.4915 55.4846 98.5798 56.6436 99.9282 57.1269C98.9065 54.991 98.2553 52.5994 98.261 50.2456C98.516 51.2699 99.0697 52.5117 99.771 53.2927C99.6335 49.2513 97.0837 45.3959 93.4259 43.6704C93.9839 44.7437 94.6686 45.7689 95.611 46.5294C93.864 46.192 93.0478 44.0573 91.4008 43.3566C89.7521 42.6373 87.3783 43.7166 85.8204 42.7468Z" fill="#101010"/>
<path d="M90.187 38.7333C89.7707 37.3491 88.6454 36.1932 87.263 35.7502C85.8419 35.2918 84.2396 35.5585 82.8478 35.0042C82.056 34.6978 81.6407 33.9859 81.2053 33.2571C81.373 31.7113 80.1118 29.6143 79.1316 28.4087C80.6893 28.2766 83.9661 29.4741 84.8479 31.0616C85.7112 32.6506 87.6245 33.6276 89.417 33.4008C88.4269 32.7377 87.5844 31.6138 86.8504 30.6675C88.3371 30.5787 89.6447 31.6818 90.407 32.9619C91.1694 34.242 91.5549 35.7035 92.2631 37.0069C93.0396 38.4539 94.3476 39.7811 95.9814 39.8853C94.7514 39.0371 93.8505 38.1049 92.6391 37.2552C94.6623 37.3263 96.6269 38.4671 97.6882 40.1887C98.7495 41.9104 98.9955 44.1495 98.1621 45.9946C97.5772 43.5041 95.3627 41.6188 92.8215 41.3861C94.3045 41.914 95.5292 43.3604 96.0106 44.8511C95.3149 43.6961 94.0192 43.3951 92.6865 43.0973C91.0307 42.7335 89.4538 42.419 87.8256 41.9408C86.1789 41.4642 84.5306 40.969 83.0378 40.1057C81.5636 39.2409 80.2588 37.9508 79.7293 36.3334C79.6532 36.097 79.3917 35.8764 79.3326 35.62C79.6846 35.366 80.0275 35.2248 80.3795 34.9708C81.0729 35.6591 81.927 36.259 82.8778 36.4585C83.8085 36.641 84.7542 36.5607 85.7003 36.7046C87.3822 36.9354 89.1741 37.3624 90.187 38.7333Z" fill="#101010"/>
<path d="M77.7712 32.839C78.0639 33.2064 78.2516 33.6574 78.2554 34.1427C75.6181 31.6769 72.6476 29.6876 69.335 28.2877C68.5851 29.1358 67.4452 29.5688 66.3404 29.7559C65.2356 29.943 64.0796 29.9664 62.9562 30.1551C60.7467 30.5294 58.6182 31.4197 56.6523 32.4644C58.3683 30.6751 60.7126 29.4676 63.1865 29.127C63.9808 29.0222 64.7628 28.9932 65.5523 28.8328C66.3249 28.6926 67.0647 28.387 67.6527 27.8328C63.9079 26.8431 59.8314 27.2264 56.3317 28.9055C52.8506 30.583 49.9664 33.5733 48.4169 37.1041C49.5707 36.614 50.8606 36.187 52.0716 35.7107C50.0746 36.6086 48.3504 38.081 47.143 39.9205C45.7876 41.9967 45.1237 44.5184 45.2774 46.9895C45.6303 46.3059 46.0294 45.5062 46.3637 44.8241C47.0275 47.364 46.9219 50.0812 46.0864 52.5616C47.061 52.1613 47.6996 51.3227 48.1603 50.3684C48.621 49.4141 48.8682 48.3658 49.1743 47.35C49.9462 44.7816 51.3968 42.2865 53.1137 40.0676C52.3848 40.503 51.7179 41.0078 51.0944 41.5837C49.324 43.1721 48.0985 45.2373 47.4899 47.5302C47.4069 47.8735 46.8566 47.7708 46.9395 47.4275C47.648 44.7712 49.1329 42.4599 51.2445 40.7118C52.0997 40.0042 53.0432 39.4572 54.027 38.9442C54.57 38.3004 55.1332 37.6736 55.6995 37.0839C52.6357 37.7361 49.3312 39.7348 47.6289 42.3447C48.112 39.8943 50.2529 38.0503 52.5621 37.0886C54.8712 36.1269 57.4055 35.8372 59.8435 35.2941C62.2816 34.751 64.7809 33.8292 66.4132 31.935C66.7526 31.5326 66.7394 30.9361 67.0587 30.5167C67.5 31.0957 67.4426 31.9597 67.1051 32.6047C66.7692 33.2683 66.2135 33.7637 65.6579 34.2591C66.6256 34.4384 67.5934 34.6178 68.5596 34.7786C70.7796 35.188 72.7567 35.3751 75.0056 35.4644C76.6362 35.5315 78.2646 35.1319 79.8544 34.7168C79.1487 34.1043 78.46 33.4717 77.7712 32.839Z" fill="#101010"/>
<path d="M60.7256 25.8802C62.8692 25.8291 65.0286 25.9634 67.1464 26.2693C70.2305 26.736 72.1975 27.4656 74.9112 29.2899C76.7924 30.5498 78.0867 33.0362 80.253 33.6929C79.3857 32.4964 78.0438 31.2094 77.1765 30.0129C77.4984 30.2845 77.7552 30.4494 77.9887 30.5604C78.3785 30.7514 78.7672 30.2702 78.4962 29.9383C77.4495 28.6076 76.3832 27.7082 74.7308 26.5036C72.5213 24.898 69.8197 23.8758 67.0874 24.033C63.7045 24.2266 60.2486 26.2009 57.083 24.9939C58.2621 25.9025 58.8788 25.9062 60.7256 25.8802Z" fill="#101010"/>
<path d="M36.954 114.43C39.5874 112.227 43.566 113.552 46.2767 111.379C46.5561 111.15 46.2371 110.692 45.9577 110.921C43.2655 113.092 39.2852 111.748 36.6349 113.972C36.3555 114.201 36.6746 114.66 36.954 114.43Z" fill="#101010"/>
<path d="M43.37 113.887C44.448 113.384 45.218 112.553 46.0034 111.683C47.0109 110.571 48.1333 109.71 49.3684 108.858C49.6679 108.645 49.3489 108.187 49.0493 108.399C48.0442 109.101 47.0392 109.802 46.1796 110.678C45.2336 111.637 44.4517 112.768 43.1946 113.36C42.8532 113.52 43.0472 114.045 43.37 113.887Z" fill="#101010"/>
<path d="M58.1228 37.0469C59.9753 36.6469 61.8841 36.6904 63.7228 36.3476C65.58 36.0032 67.4736 35.2075 68.4774 33.6094C67.7847 34.4714 66.5501 34.6695 65.4371 34.5398C64.3443 34.4271 63.2665 34.0516 62.1661 34.0703C60.8972 34.0845 59.6893 34.5979 58.5821 35.1962C56.0649 36.5678 53.7496 38.5573 52.1598 40.9522C52.9656 40.3235 53.5702 39.5251 54.3358 38.8624C55.4349 37.9474 56.709 37.335 58.1228 37.0469Z" fill="#101010"/>
<path d="M48.2524 112.651C48.9924 113.447 49.2924 114.561 49.4022 115.635C49.5872 117.375 49.3472 119.17 48.7207 120.81C49.3267 120.908 49.9236 121.119 50.4573 121.466C50.7941 117.291 49.7972 112.146 49.4579 107.487C49.265 108.736 48.2031 109.648 47.1625 110.371C46.1219 111.094 44.9901 111.844 44.5298 113.023C45.0574 112.417 45.361 111.813 46.2357 111.776C46.9992 111.748 47.7586 112.113 48.2524 112.651Z" fill="#101010"/>
<path d="M95.3087 114.728C97.3283 113.436 99.4533 112.285 101.18 110.625C102.887 108.949 104.145 106.601 103.795 104.24C104.365 104.789 104.51 105.617 104.631 106.391C104.753 107.165 104.916 107.992 105.503 108.521C106.09 109.051 107.222 108.973 107.456 108.206C101.736 113.436 95.0488 117.608 87.8601 120.496C89.6775 120.342 90.1926 119.589 91.1473 118.294C92.2563 116.836 93.7677 115.718 95.3087 114.728Z" fill="#101010"/>
<path d="M93.3016 72.3501C93.7349 71.7344 94.3412 70.9545 94.4266 70.2001C94.5076 69.6143 94.1238 69.2733 93.7215 68.9339C92.7976 68.1718 93.6005 66.6281 94.0273 65.714C94.5649 64.5664 95.5966 63.0781 97.0655 63.439C97.4087 63.522 97.5114 62.9716 97.1682 62.8887C95.0314 62.3602 93.726 64.8057 93.1196 66.4634C92.8641 67.1949 92.3324 68.1925 92.8404 68.8965C93.0526 69.1961 93.4191 69.3331 93.6483 69.6125C94.1701 70.2593 93.2446 71.4585 92.8606 71.9953C92.6616 72.2924 93.0841 72.6488 93.3016 72.3501Z" fill="#101010"/>
<path d="M95.0722 62.4127C95.8145 61.696 96.7335 61.3005 97.7535 61.214C98.1058 61.1841 98.0586 60.6277 97.7063 60.6576C96.5364 60.7382 95.4939 61.2189 94.6482 62.0378C94.3905 62.3025 94.8129 62.6588 95.0722 62.4127Z" fill="#101010"/>
<path d="M93.9773 65.5874C94.386 66.001 94.9628 66.1949 95.5546 66.126C95.9054 66.0775 95.8582 65.5212 95.5074 65.5697C95.0639 65.626 94.6588 65.4736 94.3523 65.1634C94.0876 64.9057 93.7328 65.3467 93.9773 65.5874Z" fill="#101010"/>
<path d="M59.7158 84.2023C58.7078 83.989 57.7032 84.0369 56.7192 84.3258C56.3731 84.4299 56.5671 84.9551 56.9132 84.851C57.8061 84.5885 58.7009 84.5686 59.6131 84.7527C59.9563 84.8356 60.059 84.2852 59.7158 84.2023Z" fill="#101010"/>
<path d="M75.9655 92.5738C78.3646 91.7912 80.6832 90.9407 82.8295 89.6006C83.1306 89.407 82.8115 88.9484 82.5104 89.1421C80.4012 90.479 78.1351 91.2877 75.7716 92.0486C75.4441 92.1511 75.638 92.6763 75.9655 92.5738Z" fill="#101010"/>
<path d="M95.5941 77.5719C95.3272 76.8475 95.2426 76.0702 95.328 75.3158C93.9001 78.5188 94.2577 80.9726 91.0242 84.9078C91.6811 81.8636 92.2617 79.461 92.9186 76.4168C92.906 76.2684 95.5291 74.3836 95.8207 74.0787C96.7466 73.1036 97.6821 71.3619 98.3294 70.1863C99.6088 67.8738 100.3 65.2376 100.225 62.5917C101.52 71.4658 95.8223 74.0972 95.5941 77.5719Z" fill="#101010"/>
<path d="M91.2284 84.91C93.097 82.9397 94.4505 80.6209 95.2782 78.0479C95.3796 77.7031 94.8293 77.6004 94.7278 77.9452C93.9294 80.4223 92.6067 82.6638 90.8059 84.5537C90.5482 84.8183 90.9892 85.1731 91.2284 84.91Z" fill="#101010"/>
<path d="M96.5556 77.2474C97.1591 74.6747 99.2814 72.8323 100.04 70.3212C100.478 68.8832 100.584 67.268 100.662 65.7671C100.745 64.3219 100.662 62.9094 100.209 61.5284C100.086 61.1839 99.5795 61.3763 99.6835 61.7224C100.233 63.3567 100.188 65.0229 100.033 66.717C99.891 68.1299 99.7928 69.6137 99.2137 70.933C98.2757 73.0858 96.5365 74.821 96.0052 77.1447C95.9223 77.488 96.4726 77.5907 96.5556 77.2474Z" fill="#101010"/>
<path d="M42.1102 58.9874C43.1072 59.0709 43.9332 59.5611 44.8256 59.9524C45.7381 60.3606 46.6644 60.7116 47.6246 61.0223C47.9695 61.1238 48.2083 60.6366 47.8619 60.5166C46.8058 60.1766 45.782 59.7778 44.7705 59.3033C43.9354 58.9259 43.1527 58.5067 42.2113 58.4185C41.8558 58.4113 41.7515 58.9431 42.1102 58.9874Z" fill="#101010"/>
<path d="M42.6563 56.8312C44.1862 57.6913 45.7191 58.5885 47.215 59.4889C47.5291 59.6677 47.7663 59.1619 47.4523 58.9831C45.9379 58.0843 44.4234 57.1856 42.8936 56.3255C42.5796 56.1467 42.3423 56.6524 42.6563 56.8312Z" fill="#101010"/>
<path d="M42.4264 58.7369C42.2708 58.003 42.3732 57.2285 42.689 56.548L47.6683 59.3194C47.7664 59.8153 47.8661 60.3299 47.9642 60.8258C47.9271 60.829 47.8884 60.8136 47.8328 60.8183L42.4264 58.7369Z" fill="#101010"/>
<circle cx="68.0013" cy="67.9999" r="61.9738" transform="rotate(4.85 68.0013 67.9999)" stroke="#F0014F"/>
<path d="M67.9745 11.46C56.2497 11.4786 44.6924 15.144 35.1451 21.9724C25.9699 28.5403 18.8606 37.8247 14.9337 48.4115C10.8207 59.5751 10.3555 72.0039 13.6124 83.4466C16.739 94.4241 23.2528 104.323 32.0743 111.579C40.9888 118.91 52.0437 123.375 63.5265 124.268C75.2513 125.18 87.1436 122.389 97.2121 116.286C106.927 110.388 114.781 101.569 119.452 91.2239C124.328 80.451 125.668 68.2083 123.323 56.6167C121.053 45.4159 115.283 35.0524 107.039 27.1634C98.701 19.1815 87.9625 13.8601 76.5541 12.1298C73.7252 11.6832 70.8592 11.46 67.9745 11.46C67.6209 11.46 67.6209 12.0181 67.9745 12.0181C79.5318 12.0367 90.8844 15.6277 100.32 22.3073C109.532 28.838 116.679 38.1782 120.55 48.8022C124.57 59.817 124.998 72.0411 121.778 83.2978C118.689 94.1451 112.25 103.913 103.558 111.095C94.7182 118.389 83.7006 122.836 72.2736 123.71C60.6791 124.584 48.9543 121.831 38.9975 115.802C29.4315 109.997 21.7081 101.327 17.0554 91.1495C12.1607 80.4697 10.8021 68.2641 13.1471 56.747C15.4176 45.6392 21.0939 35.3687 29.2827 27.5356C37.49 19.6652 48.0423 14.4369 59.2833 12.6694C62.1679 12.2228 65.0712 11.9995 67.9745 11.9995C68.3281 12.0181 68.3281 11.46 67.9745 11.46Z" fill="#101010"/>
</svg>
