<svg width="125" height="126" viewBox="0 0 125 126" fill="none" xmlns="http://www.w3.org/2000/svg">
<circle cx="62.5" cy="62.5" r="55.5" fill="#F5F5FD"/>
<path d="M62.4328 6.58789C50.8218 6.60632 39.3767 10.2371 29.9221 17.0009C20.836 23.5068 13.7957 32.7034 9.90693 43.1902C5.83387 54.2482 5.37311 66.5596 8.59839 77.8941C11.6947 88.7679 18.1452 98.5727 26.8811 105.76C35.7091 113.022 46.6566 117.445 58.028 118.33C69.639 119.233 81.4159 116.468 91.3866 110.423C101.007 104.581 108.785 95.8451 113.411 85.5979C118.239 74.9269 119.566 62.7998 117.244 51.3178C114.996 40.2229 109.282 29.9573 101.118 22.1429C92.861 14.2364 82.2268 8.96538 70.9291 7.25138C68.1277 6.80905 65.2895 6.58789 62.4328 6.58789C62.0827 6.58789 62.0827 7.14079 62.4328 7.14079C73.878 7.15923 85.1203 10.7162 94.4644 17.3327C103.587 23.8016 110.665 33.0536 114.498 43.5772C118.479 54.4878 118.903 66.5964 115.714 77.7467C112.655 88.4915 106.278 98.1673 97.6713 105.281C88.917 112.506 78.0063 116.911 66.6902 117.777C55.2082 118.643 43.5972 115.916 33.7371 109.944C24.264 104.194 16.6155 95.6055 12.008 85.5242C7.16084 74.9453 5.81543 62.8551 8.13763 51.4469C10.3861 40.4441 16.0073 30.2706 24.1166 22.5115C32.2443 14.7156 42.6942 9.53671 53.826 7.78585C56.6826 7.34353 59.5577 7.12236 62.4328 7.12236C62.783 7.14079 62.783 6.58789 62.4328 6.58789Z" fill="#101010"/>
<path d="M72.366 117.537C76.6602 115.934 80.0514 112.708 82.5579 108.949C83.9401 106.903 85.0643 104.691 86.078 102.443C86.9074 100.618 87.5893 98.4434 86.2807 96.6741C86.078 96.3976 85.5988 96.6741 85.8016 96.9505C87.2944 98.9778 85.9306 101.521 84.9906 103.475C84.0876 105.355 83.0739 107.198 81.8944 108.93C79.48 112.45 76.2547 115.491 72.2001 117.003C71.8868 117.132 72.0342 117.666 72.366 117.537Z" fill="#101010"/>
<path d="M85.9492 96.8402C87.3315 97.0614 88.382 98.2041 89.4325 99.0518C90.4093 99.8259 91.4046 100.6 92.3998 101.356C94.2612 102.756 96.2517 104.544 98.5555 105.152C98.9056 105.244 99.0531 104.71 98.7029 104.618C97.4497 104.286 96.4176 103.586 95.3671 102.848C94.2797 102.074 93.1923 101.282 92.1233 100.453C91.0175 99.6232 89.9486 98.757 88.8796 97.8908C88.0319 97.1904 87.2209 96.4901 86.0967 96.3058C85.7465 96.2505 85.5991 96.7849 85.9492 96.8402Z" fill="#101010"/>
<path d="M83.0741 74.5775C81.1574 81.8943 79.1301 91.4595 85.8202 97.0807C86.0967 97.3019 86.4837 96.9148 86.2072 96.6937C79.6645 91.2199 81.7287 81.8574 83.6086 74.7434C83.7007 74.3932 83.1663 74.2457 83.0741 74.5775Z" fill="#101010"/>
<path d="M25.6094 104.194C29.2585 103.125 32.9077 102.038 36.4094 100.508C39.8927 98.9781 43.2102 96.2873 47.1358 96.0846C47.486 96.0662 47.486 95.5133 47.1358 95.5317C43.3945 95.716 40.3351 98.0751 37.0545 99.6048C33.3316 101.337 29.406 102.498 25.4804 103.641C25.1118 103.752 25.2592 104.286 25.6094 104.194Z" fill="#101010"/>
<path d="M47.4485 88.1595C47.5223 89.7629 47.6144 91.3664 47.467 92.9513C47.3195 94.5732 46.7666 96.066 46.4717 97.651C45.9557 100.323 46.1216 103.143 46.9141 105.742C48.5359 111.031 52.9776 115.381 57.6588 118.145C57.9721 118.33 58.2486 117.85 57.9353 117.666C53.2172 114.883 48.7202 110.423 47.2827 105.005C46.5455 102.222 46.5639 99.3466 47.3011 96.5636C47.6513 95.2551 47.9646 93.965 48.0567 92.6012C48.1673 91.1083 48.0936 89.6339 48.0199 88.1411C47.983 87.8093 47.4301 87.8093 47.4485 88.1595Z" fill="#101010"/>
<path d="M38.8777 53.7506C39.2832 57.1049 39.6887 60.4776 40.0941 63.8319C40.4812 66.9466 40.7207 70.135 41.3842 73.2128C42.0109 76.1801 43.1167 79.0368 44.3515 81.8197C44.9966 83.2573 45.66 84.6764 46.3788 86.0955C46.8949 87.1276 47.4846 88.086 48.4798 88.731C48.7747 88.9337 49.0512 88.4546 48.7563 88.2518C47.5768 87.4778 47.0239 86.1692 46.4341 84.9528C45.789 83.6259 45.144 82.2805 44.5542 80.9166C43.3563 78.1705 42.3426 75.3507 41.7897 72.4019C41.2184 69.3425 40.9419 66.2094 40.5733 63.1315C40.1863 60.0169 39.8177 56.8837 39.4306 53.769C39.3938 53.4004 38.8409 53.4004 38.8777 53.7506Z" fill="#101010"/>
<path d="M50.7471 89.4862C54.5621 90.4815 58.4693 90.2234 62.3581 90.0207C64.2748 89.9101 66.0994 89.7995 67.9056 89.0808C69.7117 88.362 71.4073 87.4036 73.0107 86.3162C73.3056 86.1135 73.0292 85.6343 72.7343 85.8371C71.1677 86.906 69.509 87.8459 67.7581 88.5463C65.8967 89.2835 63.9984 89.3757 62.0079 89.4862C58.2666 89.689 54.5437 89.9101 50.8945 88.9518C50.5444 88.8596 50.3969 89.3941 50.7471 89.4862Z" fill="#101010"/>
<path d="M82.2632 72.9551C81.913 74.0978 81.5628 75.2589 81.1942 76.4015C80.844 77.5258 80.5676 78.7053 80.0331 79.7558C79.0563 81.6541 77.2686 82.9627 75.573 84.1791C75.2966 84.3818 75.5546 84.861 75.8495 84.6583C77.545 83.4419 79.2959 82.1333 80.3649 80.2903C80.9178 79.3504 81.1942 78.2814 81.5075 77.2309C81.9314 75.8486 82.3553 74.4848 82.7792 73.1025C82.8898 72.7524 82.3553 72.6049 82.2632 72.9551Z" fill="#101010"/>
<path d="M82.0604 74.8168C84.4563 74.5956 87.0365 74.3192 88.9533 72.7158C89.9669 71.868 90.4093 70.7253 91.0912 69.6563C91.8099 68.5321 92.8605 67.6659 93.5608 66.5417C94.7772 64.6065 94.3902 62.5239 92.6024 61.0863C90.8147 59.6672 88.4004 59.6119 86.4836 60.7914C86.1888 60.9757 86.4652 61.4549 86.7601 61.2706C88.6584 60.1095 91.0912 60.2754 92.6762 61.8973C93.5239 62.745 94.0031 63.8877 93.6345 65.0857C93.3028 66.1915 92.5103 67.0393 91.7731 67.8871C91.2018 68.5321 90.6857 69.1956 90.2618 69.9512C89.7273 70.928 89.2297 71.8127 88.3266 72.4946C86.5205 73.8584 84.1983 74.0796 82.0235 74.2823C81.7102 74.3007 81.7102 74.8536 82.0604 74.8168Z" fill="#101010"/>
<path d="M84.0686 69.6194C84.7505 69.2139 85.4693 68.7532 85.7641 67.9791C85.8747 67.6842 85.93 67.3525 85.8747 67.0392C85.8563 66.8917 85.6904 66.6521 85.672 66.5231C85.5983 66.0071 85.7273 65.6938 86.0406 65.3252C87.6256 63.5006 89.9294 61.0125 92.4359 63.0214C92.7123 63.2426 93.0993 62.8555 92.8229 62.6344C90.943 61.1231 88.8051 61.7313 87.1833 63.2794C86.6856 63.7586 86.2065 64.2747 85.7457 64.8091C85.4693 65.1224 85.0638 65.4726 84.9716 65.8781C84.8795 66.2651 85.0638 66.4678 85.1928 66.7996C85.6167 67.9975 84.6952 68.6057 83.7921 69.1402C83.4788 69.3245 83.7553 69.8037 84.0686 69.6194Z" fill="#101010"/>
<path d="M85.9496 65.3799C86.6315 64.8639 87.2397 65.5273 87.5346 66.1171C87.7004 66.4304 88.1796 66.154 88.0137 65.8407C87.7926 65.3983 87.4055 64.8454 86.8895 64.698C86.5393 64.6058 85.968 64.6795 85.6731 64.9007C85.3967 65.1034 85.6731 65.5826 85.9496 65.3799Z" fill="#101010"/>
<path d="M83.7739 69.1586C82.9261 69.7852 83.1472 71.0201 84.3452 70.7805C84.9165 70.6699 85.3404 70.3381 85.967 70.504C86.3541 70.6146 86.7043 70.8173 87.1281 70.8542C87.9944 70.9463 88.621 70.4119 89.1923 69.8405C89.4503 69.5825 89.0633 69.1955 88.8053 69.4535C88.3445 69.9142 87.9206 70.2828 87.2572 70.2828C86.7411 70.2644 86.3172 69.988 85.8196 69.8958C85.4879 69.8405 85.2114 69.8774 84.8981 69.9695C84.7322 70.0248 84.5663 70.1723 84.382 70.1907C84.0503 70.246 83.4421 70.0801 84.0503 69.6194C84.3452 69.4166 84.0687 68.9375 83.7739 69.1586Z" fill="#101010"/>
<path d="M72.2736 39.6699C72.2552 41.5682 73.6374 43.0979 75.4436 43.5217C77.6184 44.0378 79.7194 43.0794 81.4518 41.8262C81.7283 41.6234 81.4703 41.1443 81.1754 41.347C79.7747 42.3607 78.1713 43.2084 76.3835 43.0979C74.5037 42.9873 72.8081 41.6603 72.8265 39.6699C72.8265 39.3197 72.2736 39.3197 72.2736 39.6699Z" fill="#101010"/>
<path d="M80.7697 40.3527C81.4701 41.8087 83.1657 42.6749 84.7506 42.2142C86.3356 41.7534 87.3124 40.0947 87.1097 38.5097C87.0729 38.1595 86.52 38.1595 86.5568 38.5097C86.7227 39.8551 85.967 41.2927 84.6032 41.6797C83.2394 42.0667 81.8387 41.2927 81.2489 40.0578C81.0831 39.7445 80.6039 40.021 80.7697 40.3527Z" fill="#101010"/>
<path d="M86.8515 38.8962C88.0126 38.8778 89.1737 38.8962 90.3348 38.8593C91.2379 38.8225 92.1962 38.7119 92.9519 38.159C94.2788 37.1638 94.4263 35.3392 93.4679 34.0491C93.2652 33.7726 92.786 34.0491 92.9887 34.3255C94.1683 35.9105 93.2468 37.8641 91.3485 38.2143C89.9109 38.4723 88.3075 38.3249 86.8515 38.3433C86.5013 38.3433 86.5013 38.8962 86.8515 38.8962Z" fill="#101010"/>
<path d="M91.4963 39.0068C92.5653 39.8177 92.639 41.2921 91.7175 42.232C91.4779 42.4901 91.8649 42.8771 92.1045 42.6191C93.3025 41.3843 93.1366 39.5412 91.7728 38.5092C91.4963 38.3249 91.2199 38.804 91.4963 39.0068Z" fill="#101010"/>
<path d="M79.9226 42.2689C79.7199 43.2641 80.1253 44.075 80.6045 44.9413C81.2312 46.0839 81.655 47.245 81.8946 48.5167C82.3922 51.0969 82.4291 53.7693 82.6134 56.3864C82.6318 56.7366 83.1848 56.7366 83.1663 56.3864C83.0004 54.0273 82.9083 51.6498 82.5766 49.3092C82.4107 48.185 82.1711 47.0607 81.7288 45.9918C81.268 44.8675 80.1991 43.7064 80.4571 42.4348C80.5308 42.0846 79.9963 41.9371 79.9226 42.2689Z" fill="#101010"/>
<path d="M89.7081 60.0729C92.5095 54.0647 93.173 47.2271 91.5695 40.795C91.4774 40.4448 90.9429 40.5922 91.0351 40.9424C92.6201 47.2271 91.975 53.9172 89.2473 59.7964C89.0815 60.1097 89.5606 60.3862 89.7081 60.0729Z" fill="#101010"/>
<path d="M75.9044 52.9581C79.9037 55.3725 83.9031 57.8421 87.6075 60.6988C87.884 60.92 88.1604 60.4408 87.884 60.2196C84.1795 57.3629 80.1802 54.8933 76.1808 52.479C75.886 52.2947 75.6095 52.7738 75.9044 52.9581Z" fill="#101010"/>
<path d="M75.8126 53.7138C79.7198 55.8701 83.6823 57.9896 87.3499 60.5698C87.6448 60.7725 87.9212 60.2933 87.6264 60.0906C83.9772 57.5104 79.9963 55.3909 76.0891 53.2346C75.7758 53.0687 75.4993 53.5479 75.8126 53.7138Z" fill="#101010"/>
<path d="M61.8058 36.5004C67.7771 40.4076 75.6837 39.6151 80.7704 34.6206C81.0284 34.3625 80.6414 33.9755 80.3834 34.2335C75.4625 39.0622 67.8508 39.7994 62.0822 36.0212C61.7873 35.8369 61.5109 36.3161 61.8058 36.5004Z" fill="#101010"/>
<path d="M47.429 34.9331C54.6168 37.8635 63.1684 36.4996 69.1398 31.5419C69.4162 31.3208 69.0292 30.9337 68.7527 31.1549C62.9288 36.002 54.5984 37.2553 47.5949 34.3986C47.2448 34.2696 47.0973 34.8041 47.429 34.9331Z" fill="#101010"/>
<path d="M73.3985 25.2764C73.5644 26.419 74.7255 26.4928 75.6654 26.5296C77.2873 26.6218 78.9276 26.6402 80.5494 26.7877C82.1897 26.9167 83.7194 27.359 84.7699 28.7044C85.6362 29.8286 86.06 31.2293 86.4471 32.5747C86.5392 32.9065 87.0737 32.7774 86.9816 32.4273C86.3181 30.1972 85.4887 27.746 83.1481 26.7692C81.9317 26.2716 80.5863 26.2163 79.2962 26.1426C78.4853 26.1057 77.6743 26.0689 76.8634 26.032C76.0893 25.9952 74.0805 26.2347 73.9146 25.1289C73.8777 24.7788 73.3432 24.9262 73.3985 25.2764Z" fill="#101010"/>
<path d="M82.7237 26.4929C84.5667 26.5482 86.3545 27.0827 87.9026 28.0964C89.5613 29.1653 90.6118 30.7319 91.8098 32.2431C92.031 32.5196 92.418 32.1326 92.1968 31.8561C90.9067 30.2158 89.764 28.5755 87.9395 27.4697C86.3545 26.5114 84.5667 26.0137 82.7237 25.9585C82.3551 25.94 82.3551 26.4929 82.7237 26.4929Z" fill="#101010"/>
<path d="M36.9611 42.6193C35.4499 39.8916 35.413 36.4636 37.0164 33.7543C38.5093 31.2478 41.1079 29.6629 43.6697 28.4465C48.7933 25.9768 54.8199 24.3918 58.1189 19.342C58.3217 19.0471 57.8425 18.7706 57.6398 19.0655C53.9353 24.7789 46.7107 25.8662 41.2185 29.1099C38.9332 30.4738 36.8506 32.3168 35.8738 34.8417C34.8601 37.4588 35.1181 40.4445 36.482 42.8957C36.6478 43.209 37.127 42.9326 36.9611 42.6193Z" fill="#101010"/>
<path d="M60.5331 20.0972C62.6525 19.4521 64.7904 18.678 66.9468 18.1804C69.3058 17.6275 71.2778 18.0883 73.2314 19.4521C75.8301 21.2583 78.8526 24.2071 82.2806 22.6037C82.5939 22.4562 82.3175 21.977 82.0042 22.1245C78.1339 23.9491 74.8901 19.36 71.757 17.9593C70.1536 17.2405 68.4949 17.2589 66.7993 17.6644C64.6246 18.1804 62.5051 18.9361 60.3856 19.5811C60.0539 19.6549 60.1829 20.1893 60.5331 20.0972Z" fill="#101010"/>
<path d="M55.0411 17.0748C53.1059 20.7792 48.1113 20.2079 44.8676 21.9035C41.8082 23.4885 40.2601 26.7875 38.9331 29.7916C38.7857 30.1049 39.2649 30.3998 39.4123 30.068C40.942 26.6032 42.7113 23.0646 46.5448 21.8113C49.6963 20.7792 53.7878 20.6871 55.5387 17.3697C55.6677 17.0379 55.2069 16.7615 55.0411 17.0748Z" fill="#101010"/>
<path d="M39.596 51.4655C39.467 49.1249 39.3564 46.729 39.9646 44.4436C40.5728 42.1767 42.0288 40.4627 43.6875 38.8593C46.3783 36.2791 49.9537 33.0354 48.7558 28.8701C48.6636 28.52 48.1292 28.6674 48.2213 29.0176C49.5852 33.7541 44.5169 36.9241 41.8629 39.9282C40.5544 41.4026 39.6513 43.0982 39.2643 45.0334C38.8404 47.1529 38.951 49.3276 39.0615 51.4655C39.0615 51.8341 39.6144 51.8341 39.596 51.4655Z" fill="#101010"/>
<path d="M59.5566 36.777C58.414 39.5968 55.502 41.5689 52.4242 41.4398C49.3463 41.3108 46.6187 39.0808 45.734 36.1688C45.6234 35.8371 45.089 35.9661 45.1995 36.3163C46.1763 39.4678 49.1067 41.8453 52.4242 41.9928C55.76 42.1402 58.8563 39.9654 60.0911 36.9245C60.2201 36.5927 59.6856 36.4453 59.5566 36.777Z" fill="#101010"/>
<path d="M56.1291 54.267C57.4377 56.7735 56.5714 59.7961 58.4145 62.1183C60.0363 64.164 62.6718 65.0302 65.2152 64.9565C67.6295 64.8828 70.4678 64.2746 71.9053 62.1367C73.2323 60.1463 73.7483 56.9394 73.1401 54.6172C72.5319 52.3134 70.6336 50.8206 68.2561 50.839C67.906 50.839 67.906 51.3919 68.2561 51.3919C71.4446 51.3735 72.9558 54.1196 72.79 57.0316C72.6978 58.4875 72.4214 60.091 71.721 61.3995C70.947 62.8371 69.62 63.5927 68.0718 64.0166C65.0309 64.8091 61.4554 64.5879 59.1885 62.192C57.0138 59.8882 57.9906 56.6445 56.6083 54.009C56.4424 53.6773 55.9632 53.9537 56.1291 54.267Z" fill="#101010"/>
<path d="M75.7756 52.7188C75.7756 53.0506 75.2227 53.4192 74.9646 53.5666C74.8725 53.6219 74.7619 53.6219 74.6698 53.6772C74.4117 53.7878 74.1906 53.9352 74.0247 54.1748C73.6561 54.6909 73.5824 55.4465 73.4349 56.0547C73.0295 57.7687 72.6977 59.538 71.8684 61.1046C71.7025 61.4179 72.1817 61.6943 72.3476 61.381C73.1953 59.7591 73.5455 57.953 73.9694 56.2021C74.0616 55.7967 74.1353 55.3543 74.2827 54.9673C74.4486 54.525 74.6698 54.267 75.1121 54.1011C75.2779 54.0458 75.4438 54.0274 75.5913 53.9537C76.1073 53.7325 76.31 53.2717 76.3285 52.7188C76.3285 52.3502 75.7756 52.3502 75.7756 52.7188Z" fill="#101010"/>
<path d="M56.9025 53.9348C57.5291 52.8659 58.8745 52.3683 60.0172 52.0365C61.639 51.5758 63.353 51.3915 65.0486 51.3362C68.7162 51.2256 72.5497 51.6495 75.9777 52.9765C76.3094 53.1055 76.4568 52.571 76.1251 52.442C72.4391 51.0045 68.2554 50.599 64.3298 50.8202C61.8786 50.9492 57.8424 51.244 56.4233 53.6584C56.239 53.9533 56.7182 54.2482 56.9025 53.9348Z" fill="#101010"/>
<path d="M36.4817 53.051C38.6196 56.1657 36.7213 63.335 41.9001 63.9616C42.2503 63.9985 42.2503 63.4456 41.9001 63.4087C39.3199 63.0954 38.638 60.2203 38.38 58.0824C38.1773 56.2394 38.0298 54.3595 36.9424 52.7745C36.7581 52.4796 36.279 52.7561 36.4817 53.051Z" fill="#101010"/>
<path d="M41.9003 63.9613C44.3331 64.1825 47.0423 64.2562 49.2171 62.9845C49.5304 62.8002 49.254 62.321 48.9406 62.5053C46.8396 63.7217 44.2225 63.6111 41.9003 63.4084C41.5502 63.3715 41.5502 63.9244 41.9003 63.9613Z" fill="#101010"/>
<path d="M52.369 54.7643C52.0557 56.4783 51.4659 58.1186 50.6734 59.6852C50.0099 61.0122 49.0884 62.247 48.5171 63.6292C48.0379 64.7535 47.8352 66.1726 48.5724 67.2416C49.1253 68.0525 50.0652 68.4395 51.0051 68.2368C51.3553 68.1631 51.2079 67.6286 50.8577 67.7023C49.0516 68.0893 48.4249 66.0067 48.7567 64.6245C49.0331 63.4634 49.7887 62.4497 50.3785 61.4176C51.5396 59.3903 52.498 57.234 52.9219 54.9118C52.9587 54.58 52.4243 54.4142 52.369 54.7643Z" fill="#101010"/>
<path d="M49.6593 67.1681C50.8941 67.1497 51.447 68.7716 52.7924 68.3661C53.1241 68.2555 52.9951 67.721 52.6449 67.8316C51.9446 68.0344 51.4286 67.463 50.9309 67.076C50.5439 66.7811 50.1384 66.6152 49.6593 66.6152C49.2907 66.6152 49.2907 67.1681 49.6593 67.1681Z" fill="#101010"/>
<path d="M54.4519 67.4626C54.3229 66.7439 55.8526 67.094 56.0922 67.1309C56.2949 67.1678 56.4792 67.2046 56.6819 67.2415C56.7372 67.2599 57.585 67.5179 57.3454 67.6285C57.0137 67.7575 57.1611 68.292 57.4929 68.163C57.8246 68.034 57.9536 67.6469 57.843 67.2968C57.6587 66.7623 56.9584 66.7254 56.4792 66.6517C55.6499 66.5043 53.6594 66.1541 53.9174 67.6101C53.9727 67.9602 54.5072 67.8128 54.4519 67.4626Z" fill="#101010"/>
<path d="M54.5074 67.4633C54.6917 67.1684 55.687 67.3712 55.9819 67.408C56.332 67.4449 57.0877 67.5002 57.0508 67.9794C57.1614 67.8872 57.2904 67.7951 57.401 67.7213C56.7559 67.5739 56.332 66.9473 55.6501 66.8367C55.0051 66.7261 54.3231 66.7998 53.9545 67.3896C53.7702 67.6845 54.2494 67.9609 54.4337 67.666C54.8208 67.0579 55.7423 67.3712 56.203 67.6845C56.5348 67.9056 56.8481 68.1637 57.2535 68.2558C57.4378 68.2927 57.5853 68.1637 57.6037 67.9978C57.6774 67.2421 56.8849 67.0026 56.2583 66.9104C55.5764 66.8183 54.4522 66.5234 54.0283 67.2053C53.844 67.5002 54.3231 67.7766 54.5074 67.4633Z" fill="#101010"/>
<path d="M57.42 68.2559C58.5442 68.1822 59.7975 67.9794 60.2583 66.8183C60.6084 65.9337 60.6637 64.662 59.7053 64.1828C59.392 64.017 59.1156 64.4961 59.4289 64.662C60.203 65.049 60.0002 66.3391 59.5763 66.9289C59.0787 67.6108 58.1941 67.6477 57.42 67.703C57.0514 67.7214 57.0514 68.2743 57.42 68.2559Z" fill="#101010"/>
<path d="M48.296 74.7793C51.2633 76.1247 54.4517 75.5165 57.5848 75.369C60.165 75.24 63.6668 76.309 65.5466 73.9499C65.7678 73.6735 65.3808 73.2864 65.1596 73.5629C64.2565 74.6871 62.8927 74.9451 61.5104 74.9267C60.0729 74.9083 58.6538 74.7424 57.2162 74.8346C54.3227 75.0004 51.3186 75.5533 48.5725 74.3001C48.2592 74.1526 47.9827 74.6318 48.296 74.7793Z" fill="#101010"/>
<path d="M65.1784 73.6003C63.4091 74.2822 61.4923 74.3928 59.6862 73.803C58.3408 73.3607 57.0507 72.3655 55.5578 72.6051C54.6548 72.7525 54.0466 73.1395 53.0882 72.9921C52.48 72.8999 51.9271 72.7709 51.3189 72.8262C50.1394 72.9552 48.9046 73.5081 48.1305 74.4112C47.9093 74.6877 48.2964 75.0747 48.5175 74.7983C49.5312 73.6187 51.153 73.2133 52.6274 73.4529C53.1988 73.545 53.7332 73.6556 54.323 73.5266C55.2261 73.3423 55.8711 72.9737 56.8295 73.2317C58.3224 73.6372 59.5203 74.4665 61.0869 74.6692C62.5244 74.8535 63.962 74.6508 65.3074 74.1348C65.6575 74.0058 65.5101 73.4713 65.1784 73.6003Z" fill="#101010"/>
<path d="M53.9726 77.5255C57.7692 77.6914 63.2245 77.6914 65.4914 74.0054C65.6757 73.7105 65.1966 73.4156 65.0123 73.7289C62.8744 77.2122 57.548 77.1385 53.9726 76.9726C53.6224 76.9542 53.6224 77.5071 53.9726 77.5255Z" fill="#101010"/>
<path d="M48.0931 74.7612C48.4617 75.4984 49.0699 76.0881 49.8256 76.4199C50.1573 76.5673 50.4338 76.0881 50.102 75.9407C49.4201 75.6458 48.9041 75.1482 48.5723 74.4847C48.4064 74.153 47.9457 74.4294 48.0931 74.7612Z" fill="#101010"/>
<path d="M38.3071 57.4557C37.9937 55.7601 38.0859 53.7512 39.634 52.6638C40.961 51.7239 42.7672 51.7608 44.3153 51.8345C45.3658 51.8713 46.4163 51.9819 47.4484 52.1294C48.3331 52.2584 49.3467 52.3874 50.1208 52.885C51.9822 54.0829 51.5768 56.6079 51.2082 58.4325C51.1344 58.7826 51.6689 58.9301 51.7426 58.5799C52.1112 56.6632 52.4798 54.3225 50.9133 52.8113C50.1576 52.0925 49.1071 51.8713 48.1303 51.687C46.8586 51.4659 45.587 51.3369 44.3153 51.2816C42.4907 51.2079 40.3344 51.2263 38.8968 52.5532C37.5146 53.8434 37.4593 55.8707 37.791 57.6031C37.8463 57.9349 38.3808 57.7874 38.3071 57.4557Z" fill="#101010"/>
<path d="M36.4458 52.5895C39.8922 51.4837 43.5414 51.3916 47.1168 51.8155C47.9646 51.9261 48.8308 52.0551 49.6417 52.3499C50.4342 52.6264 51.0793 53.1609 51.8349 53.4926C53.3462 54.1561 54.9128 53.0871 56.3872 53.7138C56.7189 53.8428 56.9954 53.382 56.6636 53.2346C55.2077 52.6264 53.7148 53.5663 52.2588 53.0687C51.4295 52.7923 50.7476 52.1841 49.9366 51.8708C49.1257 51.5574 48.2779 51.41 47.4301 51.2994C43.7257 50.8202 39.8922 50.9124 36.2983 52.0551C35.9666 52.1656 36.114 52.7001 36.4458 52.5895Z" fill="#101010"/>
<path d="M55.6122 53.5854C56.5522 53.6591 57.4184 53.3827 58.1556 52.7929C58.432 52.5717 58.045 52.1847 57.7686 52.4059C57.1419 52.9035 56.4047 53.1062 55.6122 53.0325C55.2621 53.0141 55.2621 53.567 55.6122 53.5854Z" fill="#101010"/>
<path d="M52.2219 56.2202C52.1851 55.1144 53.254 54.6536 54.2124 54.5615C54.9312 54.4877 56.1476 54.3587 56.553 55.0959C56.7189 55.4092 57.1981 55.1328 57.0322 54.8195C56.4424 53.7505 54.8759 53.8795 53.8438 54.0454C52.7011 54.2113 51.6506 54.9669 51.6875 56.2202C51.669 56.5703 52.2219 56.5703 52.2219 56.2202Z" fill="#101010"/>
<path d="M57.5846 58.0452C57.5293 56.7366 57.4555 55.3544 58.0084 54.138C58.5798 52.8848 59.7224 52.3318 60.9941 52.0001C63.4269 51.355 65.915 51.2813 68.4215 51.3919C68.7716 51.4103 68.7716 50.8574 68.4215 50.839C65.5832 50.7284 62.4501 50.7284 59.7777 51.8158C57.1422 52.8847 56.9211 55.5387 57.0316 58.0452C57.0501 58.4138 57.603 58.4138 57.5846 58.0452Z" fill="#101010"/>
<path d="M37.7731 55.6312C37.7363 54.6728 38.1602 53.7329 38.8236 53.0325C39.4871 52.3322 40.3349 51.853 41.2564 51.5581C41.0353 51.6318 40.5745 51.5028 40.3349 51.4844C40.0216 51.4844 39.6899 51.4844 39.3765 51.5212C38.7315 51.5765 38.0864 51.724 37.4598 51.9267C37.1649 52.0189 36.2987 52.2216 36.2803 52.6455C36.2803 52.8666 36.5567 53.0325 36.6857 53.1615C36.8885 53.3642 37.0359 53.6038 37.1834 53.8434C37.4598 54.3963 37.6257 55.023 37.7731 55.6312Z" fill="#101010"/>
<path d="M52.0368 56.6632C52.258 55.8707 52.516 55.0229 53.1795 54.5437C53.714 54.1567 54.4327 54.1014 55.0962 54.1383C55.5017 54.1567 55.944 54.2304 56.2573 54.5253C56.8471 55.0598 56.6444 56.0366 57.0314 56.7369C57.142 54.857 58.1003 53.0509 59.6116 51.9082C58.5979 52.0188 57.7686 52.7191 56.8286 53.0877C56.0546 53.3826 55.2252 53.4195 54.4143 53.4748C53.6587 53.5116 52.8846 53.5485 52.1658 53.3273C51.3365 53.0693 50.6361 52.4795 49.8252 52.1847C49.8989 52.2215 50.0648 52.5348 50.1754 52.627C50.3044 52.7191 50.4703 52.756 50.5993 52.8666C50.931 53.1246 51.1706 53.5854 51.3733 53.954C51.7972 54.7649 52.0368 55.7232 52.0368 56.6632Z" fill="#101010"/>
<path d="M73.6934 56.1284C73.9698 55.2806 74.2094 54.2854 74.9835 53.8431C75.2231 53.6956 75.4995 53.585 75.7207 53.4007C75.9419 53.2164 76.1077 52.9215 76.034 52.6451C74.1173 52.1659 72.1821 51.7605 70.2285 51.4287C71.5555 52.2396 72.3848 53.7141 72.6982 55.2438C73.0115 56.7735 72.8825 58.3584 72.6797 59.9066C73.0852 58.598 73.2695 57.4185 73.6934 56.1284Z" fill="#101010"/>
<path d="M56.2394 111.4C56.4421 108.193 56.6264 104.986 56.8292 101.798C56.9398 100.065 57.0688 98.2407 58.0824 96.84C59.6859 94.5915 62.8374 94.2413 65.4176 93.2277C68.7166 91.956 71.4259 89.2836 72.7897 86.0215C69.7487 88.2884 65.9705 89.3758 62.1924 89.7259C58.4142 90.0945 55.0599 89.5416 51.2817 89.2099C51.5397 89.2836 51.0237 89.1362 51.2817 89.2099C49.3834 88.9334 48.5172 88.1962 47.5035 87.1826C48.4066 92.1587 46.3609 96.969 46.4161 101.521C46.453 105.005 47.8906 108.359 49.9916 111.142C52.0189 113.833 54.765 116.45 57.6401 118.182C56.0551 116.081 56.0735 113.98 56.2394 111.4Z" fill="#101010"/>
<path d="M82.6866 58.1923C83 59.6851 83.3133 61.178 83.6266 62.6708C83.6634 62.8736 83.9583 62.9473 84.0873 62.7998C84.843 61.9336 85.7461 61.3623 86.8334 61.049C87.1836 60.9568 87.0362 60.4223 86.686 60.5145C85.5065 60.8647 84.5112 61.4913 83.7003 62.4128C83.8477 62.4497 84.0136 62.4865 84.1611 62.5418C83.8477 61.049 83.5344 59.5561 83.2211 58.0633C83.1474 57.7131 82.6129 57.8421 82.6866 58.1923Z" fill="#101010"/>
<path d="M62.0445 54.82C64.6247 51.8711 69.0848 51.8343 71.7203 54.7463C71.9599 55.0043 72.3469 54.6172 72.1073 54.3592C69.2875 51.2261 64.4219 51.263 61.6574 54.4329C61.4178 54.691 61.8049 55.078 62.0445 54.82Z" fill="#101010"/>
<path d="M70.5591 55.6863C70.983 55.1702 71.5727 54.8754 72.2362 54.8385C72.5864 54.8201 72.5864 54.2672 72.2362 54.2856C71.4253 54.3225 70.6881 54.6726 70.1536 55.2993C69.9509 55.5757 70.3379 55.9627 70.5591 55.6863Z" fill="#101010"/>
<path d="M63.7587 55.0412C63.1505 54.4883 62.3764 54.2671 61.5655 54.3961C61.2153 54.4514 61.3627 54.9859 61.7129 54.9306C62.3211 54.8384 62.9109 55.0227 63.3532 55.4466C63.6296 55.6678 64.0167 55.2808 63.7587 55.0412Z" fill="#101010"/>
<path d="M66.8736 55.5196C65.0306 55.4275 65.0122 52.6998 66.8736 52.6998C68.7535 52.6998 68.7351 55.409 66.8736 55.5196C66.5235 55.538 66.5235 56.0909 66.8736 56.0725C67.9426 56.0172 68.8825 55.2432 68.8825 54.1189C68.8825 53.0315 67.9426 52.1469 66.8736 52.1653C65.8415 52.1653 64.92 52.9762 64.8832 54.0268C64.8279 55.1879 65.7678 56.0172 66.8736 56.0725C67.2422 56.0909 67.2422 55.538 66.8736 55.5196Z" fill="#101010"/>
<path d="M43.3374 55.0234C44.2958 53.8992 45.6412 52.9961 47.1893 53.0882C48.6822 53.1619 50.2303 53.7333 51.3177 54.7654C51.5757 55.005 51.9627 54.6179 51.7047 54.3783C50.5067 53.2357 48.848 52.6275 47.1893 52.5353C45.5306 52.4432 44.0009 53.42 42.9504 54.6364C42.7108 54.8944 43.0978 55.2814 43.3374 55.0234Z" fill="#101010"/>
<path d="M44.9222 53.382C44.0744 54.9486 45.5673 56.9206 47.3181 56.2018C48.0738 55.8885 48.5714 55.0776 48.5161 54.2851C48.4608 53.4742 47.9079 52.9212 47.1522 52.7001C46.8021 52.6079 46.6546 53.1424 47.0048 53.2346C48.2212 53.5847 48.2765 55.2066 47.097 55.6858C45.8253 56.2018 44.7748 54.8011 45.383 53.6585C45.5673 53.3451 45.0881 53.0687 44.9222 53.382Z" fill="#101010"/>
<path d="M49.6592 56.2391C50.0463 56.2023 50.4149 56.0917 50.7282 55.8337C51.0599 55.5757 51.2627 55.0965 51.6865 55.0043C52.0367 54.9306 51.8893 54.3961 51.5391 54.4699C51.1889 54.5436 50.9493 54.7647 50.7282 55.0228C50.4333 55.3729 50.12 55.631 49.6592 55.6678C49.3091 55.7047 49.2906 56.2576 49.6592 56.2391Z" fill="#101010"/>
<path d="M44.3521 55.5572C44.1125 55.1517 43.7439 54.8016 43.3016 54.6173C43.1541 54.562 43.0067 54.5804 42.9145 54.7094C42.8408 54.82 42.8777 55.0227 43.0067 55.0965C43.3753 55.2439 43.6517 55.5019 43.8545 55.8337C44.0572 56.147 44.5364 55.8705 44.3521 55.5572Z" fill="#101010"/>
<path d="M59.0038 50.5444C60.6625 49.2174 62.6529 48.4802 64.7724 48.3512C65.1226 48.3328 65.1226 47.7799 64.7724 47.7983C62.4871 47.9273 60.386 48.7382 58.5983 50.1574C58.3219 50.3785 58.7273 50.7656 59.0038 50.5444Z" fill="#101010"/>
<path d="M63.9807 49.2542C65.9527 48.1484 68.1828 47.8167 70.3944 48.2774C70.7445 48.3512 70.892 47.8167 70.5418 47.743C68.1828 47.2454 65.8053 47.5955 63.7042 48.775C63.3909 48.9409 63.6674 49.4201 63.9807 49.2542Z" fill="#101010"/>
<path d="M69.8408 49.0141C71.26 48.8113 72.0893 49.4932 73.2135 50.1752C73.8402 50.5622 74.4484 50.6728 75.1118 50.3595C75.4436 50.212 75.1487 49.7328 74.8354 49.8803C74.5037 50.0277 73.8033 49.8618 73.49 49.696C73.2873 49.5854 73.103 49.4195 72.9002 49.2721C72.6053 49.0509 72.292 48.8482 71.9419 48.7192C71.2047 48.4243 70.4675 48.369 69.6934 48.4796C69.3432 48.5164 69.4907 49.0509 69.8408 49.0141Z" fill="#101010"/>
<path d="M60.0176 50.8381C64.6988 48.9398 70.191 50.5064 74.9828 51.2436C75.333 51.2989 75.4805 50.7644 75.1303 50.7091C70.2463 49.9535 64.662 48.3685 59.8701 50.3037C59.5568 50.4327 59.7043 50.9672 60.0176 50.8381Z" fill="#101010"/>
<path d="M51.4109 50.2312C50.0655 47.6694 47.0061 47.5035 44.4443 47.5773C44.0941 47.5957 44.0941 48.1486 44.4443 48.1302C46.8033 48.0564 49.6784 48.1117 50.9317 50.5077C51.0975 50.821 51.5767 50.5445 51.4109 50.2312Z" fill="#101010"/>
<path d="M43.6515 47.8167C42.6563 48.1116 41.661 48.4802 40.9054 49.2174C40.6474 49.457 41.0344 49.8625 41.2924 49.6045C41.9743 48.941 42.8959 48.6277 43.7989 48.3512C44.1491 48.2406 44.0017 47.7062 43.6515 47.8167Z" fill="#101010"/>
<path d="M40.8134 50.3224C41.7165 50.3961 42.4906 49.8985 43.3568 49.6958C44.4257 49.4562 45.5131 49.5115 46.5636 49.8064C46.9138 49.8985 47.0612 49.3641 46.7111 49.2719C45.7896 49.0139 44.8496 48.9402 43.8912 49.0507C42.8592 49.1797 41.8271 49.8432 40.8134 49.7695C40.4632 49.7511 40.4632 50.304 40.8134 50.3224Z" fill="#101010"/>
<path d="M47.3741 49.9172C48.5352 50.083 49.6594 50.2858 50.6915 50.8571C51.0048 51.023 51.2812 50.5438 50.9679 50.3779C49.899 49.7881 48.7379 49.5486 47.5215 49.3827C47.1713 49.3458 47.0239 49.8803 47.3741 49.9172Z" fill="#101010"/>
<path d="M74.6143 51.4102C73.6191 49.5487 71.4812 48.3692 69.3801 48.4982L67.7398 48.2033L68.2928 47.8531C66.118 47.761 63.9248 48.0374 61.8422 48.7194C62.0265 48.8852 61.9528 49.1617 61.7132 49.217C60.8285 49.4197 59.3541 49.8067 59.7412 50.3781C60.0729 50.8757 62.4873 50.1016 63.0586 50.0463C65.5282 49.7515 68.0532 49.8252 70.5044 50.2859C71.9051 50.5439 73.2689 50.9125 74.6143 51.4102Z" fill="#101010"/>
<path d="M46.4532 49.6957C47.9092 49.88 49.3651 50.1012 50.8211 50.6172C50.9686 50.6725 51.0976 50.5067 51.0054 50.3776C50.4341 49.4193 49.0887 48.4793 48.075 48.2213C46.9508 47.9264 45.7713 47.9817 44.6102 48.037C44.776 48.1292 44.2969 47.8527 44.4443 47.9449C43.5412 48.1476 43.2279 48.4056 42.675 48.5899C41.9009 48.8479 41.0532 49.2903 40.5371 49.9169C41.2006 50.3592 42.3064 49.6957 42.9699 49.5114C44.0757 49.235 45.3474 49.5483 46.4532 49.6957Z" fill="#101010"/>
<path d="M45.3656 55.3168C45.771 55.8328 46.5082 56.0908 47.1349 55.8697C47.1349 55.7407 47.0427 55.6301 46.9506 55.5564C46.8584 55.4826 46.7478 55.4089 46.6741 55.2983C46.582 55.1693 46.6004 54.9666 46.6925 54.8376C46.7847 54.7086 46.969 54.6533 47.1349 54.7086C46.9874 54.5796 46.9506 54.3584 47.0427 54.1925C47.1349 54.0267 47.3192 53.9161 47.5035 53.8976C47.6878 53.8792 47.8905 53.9161 48.0564 54.0082C47.7062 53.5475 47.3745 53.0314 46.8584 52.7918C46.5635 52.6628 46.2318 52.626 45.9369 52.6997C45.9922 52.8471 46.0291 53.013 46.0291 53.1789C46.0291 53.3447 45.9554 53.5106 45.8263 53.6028C45.6973 53.6949 45.4946 53.7133 45.3656 53.6028C45.3103 53.5475 45.2734 53.4922 45.2366 53.4185C45.1813 53.3632 45.0707 53.271 44.997 53.3447C44.9417 53.4 44.9601 53.4553 44.9601 53.529C44.9601 53.7318 44.9233 53.9345 44.9417 54.1372C44.9785 54.5796 45.1076 55.0035 45.3656 55.3168Z" fill="#101010"/>
<path d="M66.9467 54.5067C67.1679 54.3593 67.4074 54.7279 67.6286 54.6541C67.647 54.2855 67.1863 53.9169 67.4627 53.6405C67.7392 53.3456 68.2737 53.4009 68.4948 53.7511C68.5501 53.2534 68.1815 52.7927 67.7392 52.6084C67.2969 52.4241 66.7624 52.4425 66.2832 52.5531C66.5597 52.7374 66.5597 53.2166 66.2648 53.3825C65.9699 53.5483 65.546 53.3272 65.5276 52.9954C65.0484 53.5115 64.9378 54.3408 65.288 54.949C65.5091 55.3361 66.1358 55.8705 66.6149 55.7784C67.2231 55.6862 66.3754 54.8937 66.9467 54.5067Z" fill="#101010"/>
<path d="M89.2852 53.1424C89.7091 51.1888 90.1514 49.2352 90.2251 47.2264C90.2989 45.2359 89.9855 43.1717 89.0272 41.4209L90.7228 42.7663C91.1098 41.8816 90.8886 40.7758 90.1699 40.1123C89.4511 39.4488 88.3453 39.3014 87.4791 39.7621C87.3316 41.0338 86.3548 42.1765 85.12 42.5082C83.8852 42.84 82.466 42.3424 81.7104 41.3103C80.8811 42.0475 79.849 42.582 78.7432 42.8031C79.1671 42.7663 79.5357 42.969 79.9595 42.9506C82.2265 46.7472 83.2217 51.2994 82.7609 55.7042C84.7514 56.9575 86.5575 58.5056 88.548 59.7773C90.0593 56.1834 90.8149 52.2762 90.7596 48.369C90.4463 50.0093 89.9487 51.6127 89.2852 53.1424ZM83.9589 53.382C83.9589 51.4653 83.8299 49.5486 83.3507 47.6871C83.2585 47.3369 83.793 47.1895 83.8852 47.5397C84.3644 49.4564 84.4934 51.41 84.5118 53.382C84.5118 53.7506 83.9589 53.7506 83.9589 53.382ZM88.1978 43.0611C86.2258 44.1301 83.9036 45.7519 81.8394 44.0011C81.563 43.7615 81.9684 43.3745 82.2265 43.614C84.0326 45.1437 86.2258 43.5035 87.9029 42.582C88.2163 42.4161 88.5111 42.8953 88.1978 43.0611ZM88.677 47.8346C88.9166 47.3369 89.0088 46.8025 89.0088 46.2496C89.0088 45.8994 89.5617 45.8994 89.5617 46.2496C89.5617 46.8946 89.4326 47.5212 89.1562 48.111C88.9903 48.4427 88.5111 48.1663 88.677 47.8346ZM90.1514 54.451C90.004 55.3172 89.6538 56.0728 89.2668 56.8469C89.1009 57.1602 88.6217 56.8837 88.7876 56.5704C89.1562 55.8332 89.4879 55.1145 89.6169 54.3035C89.6907 53.9534 90.2251 54.1008 90.1514 54.451Z" fill="#101010"/>
<path d="M64.7183 27.8743C62.9859 27.1371 61.7142 25.7732 60.7742 24.1514C60.037 24.7043 59.3551 25.3125 58.6548 25.9022C56.2589 27.9111 53.6786 29.2934 50.4718 29.3487C50.3796 29.3487 50.3059 29.3118 50.2506 29.2565C50.3612 29.9569 50.3612 30.6756 50.2506 31.376C52.4991 29.9569 56.4984 30.7125 58.6732 29.5883C58.9865 29.4224 59.263 29.9016 58.9497 30.0674C57.4937 30.8231 55.7244 30.8231 54.1394 30.9889C52.8124 31.1364 51.0431 31.3207 50.0295 32.2975C49.7346 33.2006 49.2554 34.0299 48.6104 34.7118C52.6834 35.0252 56.5906 35.2647 60.5531 34.2695C64.5156 33.2743 68.349 30.9705 70.2105 27.3214C68.6992 28.5193 66.4876 28.6299 64.7183 27.8743ZM66.7456 29.3855C63.4466 32.1316 59.3367 33.6245 55.0425 32.7767C54.6923 32.703 54.8397 32.1685 55.1899 32.2422C59.263 33.0531 63.2255 31.6156 66.3402 28.9985C66.6166 28.7589 67.0221 29.1459 66.7456 29.3855Z" fill="#101010"/>
<path d="M72.4574 21.8665C70.3932 20.816 68.2553 19.618 65.9331 19.6917C63.6478 19.747 61.6021 21.0187 59.759 22.3641C57.916 23.7095 56.1099 25.2023 53.9167 25.8474C52.4054 26.2897 50.7283 26.5662 49.8252 27.8563C49.9911 28.2249 50.1201 28.6303 50.1938 29.0174C50.2122 28.9068 50.3044 28.7962 50.4518 28.7962C52.3317 28.7594 54.23 28.2617 55.8334 27.2849C57.0682 26.5293 58.1556 25.5709 59.2614 24.6494C61.4178 22.8433 63.6478 21.6637 66.5413 21.8112C66.8915 21.8296 66.8915 22.3825 66.5413 22.3641C64.8826 22.2719 63.3161 22.5852 61.8601 23.433C61.5468 23.6173 61.2335 23.8201 60.9386 24.0228C62.3946 24.0597 64.0717 24.9443 64.643 26.2528C65.6014 25.4603 66.5782 24.6679 67.6656 24.115C68.7714 23.5436 70.0246 23.2119 71.2595 23.4146C72.6417 23.6358 73.8581 24.502 75.2404 24.7047C76.6779 24.9075 78.1708 24.4283 79.1107 23.304C76.8807 23.8569 74.54 22.917 72.4574 21.8665Z" fill="#101010"/>
<path d="M85.1561 30.916C84.8428 30.013 84.3268 29.1652 83.5895 28.557C80.8803 27.5249 77.5445 27.617 75.2038 29.4969C74.9274 29.7181 74.5403 29.331 74.8168 29.1099C75.9595 28.1884 77.3049 27.6539 78.7056 27.4512C76.1069 27.5249 72.7526 28.1699 70.4489 28.557C68.2741 32.501 64.4591 34.0492 60.4229 35.3024C65.657 35.8369 70.6332 33.957 74.2086 30.4553C73.711 32.8144 71.5915 34.5652 69.2878 35.284C68.0714 35.671 66.7444 35.9106 65.4174 36.0396C66.3574 37.4035 68.7533 36.9796 70.1171 36.6478C70.4673 36.5557 70.6147 37.0901 70.2646 37.1823C68.569 37.5878 65.7492 37.9932 64.7908 36.0765C63.814 36.1318 62.8372 36.1318 61.8973 36.0765C63.1321 37.4956 65.1963 37.8826 67.0577 38.1591C68.9191 38.4355 71.4441 38.8041 72.9185 38.1775C71.9601 38.1222 71.1676 37.0533 71.4625 36.1502C71.8127 36.8505 72.6052 37.2744 73.3977 37.3482C74.1902 37.4219 74.9827 37.2376 75.7383 36.9796C78.6134 36.0212 81.3042 34.2703 83.3131 32.0034C81.9677 31.9666 80.6039 31.9113 79.2585 31.8744C78.7793 31.856 78.3001 31.8376 77.9131 31.985C78.6687 31.469 79.4981 31.0819 80.3827 30.8976C81.5069 30.658 82.7049 30.787 83.6817 31.3768C84.4189 31.8191 84.8059 32.6669 85.2114 33.441C85.3404 33.6806 85.709 33.57 85.6721 33.2935C85.58 32.501 85.4326 31.7085 85.1561 30.916Z" fill="#101010"/>
<path d="M79.0928 38.9881C78.9454 37.9745 79.701 37.0898 79.8116 36.0762C77.9133 38.1772 75.2409 39.6148 72.4211 39.8544C72.3474 41.0155 73.0846 42.1397 74.1167 42.6926C75.1303 43.2639 76.3651 43.3192 77.5078 43.0796C78.6505 42.84 79.701 42.3056 80.7147 41.7527C79.8853 41.1445 79.2402 40.0018 79.0928 38.9881ZM78.9085 41.1813C77.5447 42.2871 75.8491 41.8632 74.5774 40.8127C74.301 40.5915 74.688 40.2045 74.9644 40.4257C75.9597 41.255 77.3972 41.6974 78.503 40.7943C78.7979 40.5547 79.185 40.9417 78.9085 41.1813Z" fill="#101010"/>
<path d="M83.1839 33.2012C80.9907 34.3438 79.6084 37.2927 80.3272 39.6702C80.5299 40.3152 80.9723 41.1077 81.4883 41.55C82.4098 42.3241 84.2712 42.2688 85.3218 41.6606C86.3723 41.0524 86.6487 39.6702 86.7225 38.4722C86.2248 38.9698 85.6535 39.4121 84.9716 39.6149C84.2897 39.8176 83.5156 39.7623 82.9627 39.3384C82.4098 38.9145 82.1334 38.0852 82.4651 37.4585C83.1101 38.4906 84.6214 38.8592 85.5429 38.0667C85.8747 37.7903 86.1511 37.3848 86.575 37.2927C87.0358 37.2005 87.4597 37.5138 87.8651 37.7534C88.7129 38.2695 89.6897 38.5275 90.6849 38.5275C91.4959 38.5275 92.3252 38.3248 92.9703 37.8456C93.6153 37.3664 94.0577 36.5555 93.9839 35.763C93.9102 34.952 93.7443 33.8462 92.9334 33.7541C92.9518 34.8599 91.7355 36.2053 90.6296 36.1316C89.5238 36.0578 88.6023 34.9152 88.7682 33.8094C88.1232 34.2333 87.4781 34.6387 86.833 35.0626C86.1696 35.4865 85.3771 35.9288 84.6583 35.6155C84.2528 35.4312 83.9764 35.0442 83.8289 34.6203C83.6999 34.1964 83.6815 33.7541 83.6631 33.2933C83.4972 33.2565 83.3497 33.2012 83.1839 33.2012Z" fill="#101010"/>
<path d="M85.4697 29.4961C85.8936 30.4176 86.2069 31.4129 86.4097 32.4081C86.4649 32.703 86.852 32.7583 87.0179 32.5187C87.0179 32.5187 87.0179 32.5187 87.0179 32.5002C87.239 32.1316 87.3865 31.5234 87.8104 31.4866C88.4554 31.4497 88.9714 32.0026 89.5244 32.3528C90.4827 32.9794 92.1414 34.0115 92.7865 32.5187C91.9203 32.9426 90.8513 32.4634 90.2063 31.763C89.5612 31.0443 89.1742 30.1412 88.6028 29.3671C87.8103 28.3166 84.9168 26.2524 83.5898 27.3398C84.3823 27.948 85.0458 28.5931 85.4697 29.4961Z" fill="#101010"/>
<path d="M40.094 37.0166C42.1213 36.1504 43.3192 33.9387 44.3145 31.9299C45.3834 29.7551 46.9131 27.6909 49.0879 26.751C46.2865 27.4145 43.9643 29.0732 41.8448 30.9162C39.7254 32.7408 38.0667 35.1736 37.5137 37.9197C37.0714 40.1681 37.3479 42.9695 38.6748 44.8862C40.0018 44.2596 41.0892 41.0712 42.2687 39.818C43.8721 38.104 46.0653 36.5374 47.337 34.5469C48.5903 32.5565 49.18 30.2896 48.0742 28.207C47.2817 32.28 43.9643 35.5237 40.094 37.0166ZM43.3377 37.5326C41.8633 38.5647 40.4441 39.8179 39.7807 41.5504C39.6516 41.8821 39.1172 41.7347 39.2462 41.4029C39.965 39.5231 41.4394 38.1961 43.0612 37.0534C43.3561 36.8507 43.6326 37.3299 43.3377 37.5326Z" fill="#101010"/>
<path d="M45.5133 25.4234C48.8307 24.4651 52.6642 22.7695 53.6225 19.6916C52.4799 21.3688 50.6922 22.0876 48.7754 22.7695C45.845 23.8016 43.0436 24.5203 40.9795 27.0084C39.9842 28.2064 39.0812 29.7729 38.0859 31.6897C39.4866 30.8603 40.8505 29.3675 42.4354 28.6487C43.9099 27.9852 46.0478 26.8978 47.5959 26.4555C52.2771 25.0917 56.8662 21.3319 57.6587 17.8486C54.1939 21.2582 50.342 24.8521 45.5133 25.4234ZM43.5965 27.2111C43.2648 27.4323 42.9331 27.6535 42.7119 27.9668C42.5092 28.2617 42.03 27.9852 42.2327 27.6903C42.5092 27.2849 42.9146 27.0084 43.3201 26.732C43.615 26.5292 43.8914 27.0084 43.5965 27.2111Z" fill="#101010"/>
<path d="M45.9922 37.2373C46.4714 36.7029 46.9321 36.1684 47.4113 35.6523C47.1717 37.1268 47.8352 38.7486 49.07 39.5964C50.3048 40.4442 51.8898 40.6653 53.3827 40.481C54.8755 40.2967 56.2762 39.7254 57.64 39.0619C56.2025 40.9787 53.6776 42.0107 51.3001 41.6606C48.9226 41.3104 46.8215 39.4858 45.9922 37.2373Z" fill="#101010"/>
<path d="M51.2267 37.3664C52.3141 37.735 53.5489 37.6613 54.581 37.1268C53.8254 37.2005 53.0513 36.9794 52.4616 36.5186C52.2588 36.3528 52.0745 36.1685 51.8533 36.021C51.4295 35.7446 49.4021 34.9152 49.1626 35.5603C48.9045 36.279 50.7291 37.1821 51.2267 37.3664Z" fill="#101010"/>
<path d="M48.6646 28.9432C49.5861 26.6763 52.0557 25.8653 54.1936 25.165C55.9998 24.5568 57.8244 23.8564 59.0592 22.3083C59.2804 22.0319 58.8933 21.6448 58.6722 21.9213C55.9445 25.3861 49.9547 24.3541 48.1485 28.7957C48.0011 29.109 48.5356 29.2565 48.6646 28.9432Z" fill="#101010"/>
<path d="M66.5232 26.456C68.6242 24.7051 71.6099 24.3365 74.0611 25.5345C74.3744 25.6819 74.6693 25.2212 74.3375 25.0553C71.6467 23.7467 68.4399 24.1338 66.1361 26.0505C65.8597 26.2901 66.2467 26.6956 66.5232 26.456Z" fill="#101010"/>
<path d="M79.5161 25.5154C80.2349 25.2943 80.8246 24.8704 81.2669 24.2806C81.4881 24.0042 81.0089 23.7277 80.7877 24.0042C80.4191 24.4833 79.9215 24.8151 79.3686 24.9994C79.0369 25.0915 79.1843 25.626 79.5161 25.5154Z" fill="#101010"/>
<path d="M75.5914 26.8056C73.3798 26.4923 71.3525 27.377 69.8965 29.0173C68.2747 30.8419 67.0951 33.5142 64.4043 33.9013C64.0542 33.9565 64.2016 34.491 64.5518 34.4357C66.5607 34.1409 67.8876 32.5743 69.0303 31.0262C70.6337 28.8698 72.5136 26.9162 75.4624 27.3401C75.7942 27.377 75.9416 26.8609 75.5914 26.8056Z" fill="#101010"/>
<path d="M90.7595 103.66C91.2387 102.554 91.4599 101.393 91.4046 100.195C91.3862 99.8451 90.8333 99.8451 90.8517 100.195C90.907 101.301 90.7227 102.37 90.2803 103.384C90.1513 103.715 90.6121 103.992 90.7595 103.66Z" fill="#101010"/>
<path d="M88.3075 109.152C87.7362 110.424 87.0174 111.585 86.1143 112.636C85.8748 112.912 86.2802 113.299 86.5014 113.023C87.4413 111.935 88.2154 110.737 88.7867 109.429C88.9342 109.116 88.455 108.839 88.3075 109.152Z" fill="#101010"/>
<path d="M40.4633 98.1119C39.8551 104.581 41.8824 111.013 46.1582 115.934C46.3978 116.21 46.7848 115.805 46.5452 115.547C42.3616 110.737 40.4264 104.452 41.0162 98.1304C41.0531 97.7618 40.5001 97.7618 40.4633 98.1119Z" fill="#101010"/>
<path d="M34.6576 110.904C30.9163 108.729 28.2808 106.333 25.0371 103.918C30.6583 102.352 36.1136 101.099 41.1266 97.7812C40.629 99.4953 40.4447 100.49 40.6659 102.112C40.8686 103.605 40.9239 104.822 41.3294 106.278C41.5321 107.033 43.3935 110.904 43.1171 111.512C43.1171 111.512 40.0208 110.645 39.2283 110.59C37.5696 110.443 36.2795 110.48 34.6576 110.904Z" fill="#101010"/>
<path d="M57.9901 59.9983C57.8611 59.3348 57.8426 58.6529 57.9717 57.9894C58.0822 57.4549 58.3587 56.9389 58.3955 56.386C58.4508 55.5382 57.7321 55.0221 57.6215 54.2481C57.5662 53.8979 57.0317 54.0453 57.087 54.3955C57.1423 54.7457 57.2713 55.0221 57.4556 55.317C57.8795 56.0542 57.7689 56.644 57.5478 57.3996C57.2897 58.3027 57.2897 59.2242 57.4556 60.1642C57.5293 60.4959 58.0638 60.3485 57.9901 59.9983Z" fill="#101010"/>
<path d="M43.5775 53.8249C44.6833 52.9955 45.9365 52.4795 47.3188 52.332C47.669 52.2952 47.669 51.7422 47.3188 51.7791C45.8444 51.9265 44.4806 52.4426 43.301 53.3457C43.0246 53.5668 43.301 54.046 43.5775 53.8249Z" fill="#101010"/>
<path d="M64.2193 52.424C65.1776 51.9449 66.2097 51.8159 67.2418 52.0186C67.592 52.0923 67.7394 51.5578 67.3893 51.4841C66.1913 51.2445 65.0302 51.4104 63.9244 51.9449C63.6111 52.1107 63.8875 52.5899 64.2193 52.424Z" fill="#101010"/>
<path d="M83.6084 103.697C84.2351 102.112 84.7327 100.435 84.7695 98.7205C84.8064 97.0065 84.3457 95.2373 83.2398 93.9287C84.0692 95.0714 85.046 96.1219 86.1149 97.0434C86.0228 96.8222 85.9491 96.6195 85.8569 96.3984C86.6494 97.5595 86.7784 99.1076 86.4835 100.49C86.1887 101.872 85.5252 103.144 84.8248 104.397C83.4057 106.959 81.876 109.465 79.9593 111.677C78.0425 113.907 75.7572 115.695 73.0664 116.911C74.1722 116.727 74.504 116.137 75.2227 115.418C76.0705 114.57 76.992 113.815 77.803 112.93C79.3879 111.198 80.7702 109.281 81.9129 107.235C82.5764 106.074 83.1293 104.895 83.6084 103.697Z" fill="#101010"/>
<path d="M85.6726 68.5681C85.9122 68.1626 85.8938 67.6097 85.6358 67.2227C85.7464 67.7018 85.4883 68.181 85.1566 68.5312C84.8248 68.8814 84.3825 69.121 84.0139 69.4158C83.8665 69.5448 83.7006 69.6739 83.6269 69.8582C83.5347 70.0425 83.5347 70.2636 83.6822 70.4295C83.8296 70.5954 84.0876 70.6138 84.2904 70.5585C84.5115 70.5032 84.6958 70.3742 84.8986 70.3005C85.3778 70.0978 85.9675 70.153 86.4098 70.4295C86.1334 70.3373 85.8569 70.1715 85.6358 69.9687C85.1197 69.4527 85.3777 69.1025 85.6726 68.5681Z" fill="#101010"/>
<circle cx="62.4738" cy="62.5422" r="61.9738" stroke="#F0014F"/>
</svg>
