<?xml version="1.0" encoding="UTF-8"?>
<svg width="32px" height="24px" viewBox="0 0 32 24" version="1.1" xmlns="http://www.w3.org/2000/svg" xmlns:xlink="http://www.w3.org/1999/xlink">
    <title>discord</title>
    <g id="Page-1" stroke="none" stroke-width="1" fill="none" fill-rule="evenodd">
        <g id="discord" fill="#f0014f" fill-rule="nonzero">
            <path d="M11.5930286,0.0040176 C11.5930286,0.0040176 7.22694857,0.3040176 4.37159314,2.59687543 C4.35820114,2.60223086 4.34213486,2.61026743 4.328736,2.618304 C3.83320457,3.07634057 3.46088229,3.78615771 3.00016457,4.80401829 C2.53945371,5.821872 2.051952,7.13170286 1.60730743,8.59686857 C0.720706286,11.5299429 -1.58596691e-11,15.1299429 -1.58596691e-11,18.5183314 C-0.00251081829,18.6388114 0.0269536457,18.7566857 0.0858816,18.8611886 C1.08766629,20.6210057 2.93052343,21.6843429 4.65016457,22.3540114 C6.36981257,23.02368 7.95819429,23.29152 8.76445714,23.3183314 C8.99211429,23.3263543 9.20907429,23.2218514 9.34299429,23.0397257 L11.0144229,20.72544 C12.3617829,21.0442286 13.9421486,21.2611886 15.7715657,21.2611886 C17.6010514,21.2611886 19.1814171,21.0442286 20.5287086,20.72544 L22.2001371,23.0397257 C22.3341257,23.2218514 22.5510857,23.3263543 22.7787429,23.3183314 C23.5850057,23.29152 25.1733943,23.02368 26.8930286,22.3540114 C28.6126629,21.6843429 30.45552,20.6210057 31.45728,18.8611886 C31.5162514,18.7566857 31.5457371,18.6388114 31.5431696,18.5183314 C31.5431696,15.1299429 30.8225143,11.5299429 29.9358857,8.59686857 C29.4912686,7.13170286 29.0037257,5.821872 28.5429943,4.80401829 C28.0823314,3.78615771 27.7099886,3.07634057 27.2144229,2.618304 C27.2010514,2.61026743 27.1850057,2.60223086 27.1715657,2.59687543 C24.3162514,0.3040176 19.9501714,0.0040176 19.9501714,0.0040176 C19.8992914,-0.0013392 19.8510857,-0.0013392 19.8001371,0.0040176 C19.5617829,0.0361604571 19.3608686,0.191517943 19.2644571,0.411160457 C19.2644571,0.411160457 19.0314514,0.922765714 18.8787429,1.65401829 C17.5421486,1.43973257 16.4171657,1.37544686 15.7715657,1.37544686 C15.1260343,1.37544686 14.0010514,1.43973257 12.6644571,1.65401829 C12.5117486,0.922765714 12.2787429,0.411160457 12.2787429,0.411160457 C12.1608686,0.143303314 11.8850057,-0.0200893714 11.5930286,0.0040176 Z M11.1644571,1.48258971 C11.2153371,1.621872 11.2501714,1.75312457 11.2930286,1.91116114 C9.74749714,2.27009143 8.05460571,2.85669257 6.47159314,3.83973257 C6.22248686,3.94419429 6.05909486,4.18527086 6.05105829,4.45580571 C6.04570286,4.72365943 6.198384,4.97276571 6.43945371,5.09062629 C6.68320457,5.20580571 6.97248,5.17097829 7.17874286,4.99687543 C10.35552,3.02812114 14.3974629,2.74687543 15.7715657,2.74687543 C17.1457371,2.74687543 21.18768,3.02812114 24.3644571,4.99687543 C24.57072,5.17097829 24.8600229,5.20580571 25.1037257,5.09062629 C25.3448229,4.97276571 25.4974629,4.72365943 25.4921143,4.45580571 C25.4840914,4.18527086 25.3206857,3.94419429 25.0715657,3.83973257 C23.4885943,2.85669257 21.7957029,2.27009143 20.2501714,1.91116114 C20.2930286,1.75312457 20.3278629,1.621872 20.3787429,1.48258971 C21.1608686,1.57901486 24.2010514,1.98883886 26.2715657,3.62544686 C26.4055543,3.74866286 26.8715657,4.43437714 27.3001371,5.38258971 C27.7287086,6.33080229 28.1787429,7.56562286 28.6073143,8.98258971 C29.4429943,11.7469029 30.1180114,15.1566857 30.1501714,18.2825829 C29.37072,19.5442286 27.9082286,20.4816686 26.4001371,21.0682971 C25.0287086,21.6013714 23.7484114,21.8397257 23.0787429,21.9040457 L21.9216,20.3397257 C22.5109029,20.1495771 23.0412343,19.9433143 23.5073143,19.7397257 C25.2376457,18.9789943 26.1644571,18.1754743 26.1644571,18.1754743 C26.4484114,17.9210057 26.47248,17.4843429 26.2180114,17.2004571 C25.9635429,16.9165029 25.5269486,16.8924343 25.2429943,17.1469029 C25.2429943,17.1469029 24.5251886,17.8031314 22.9501714,18.4968686 C22.3715657,18.7513371 21.6698057,19.0031314 20.8715657,19.22544 C20.6867657,19.2040457 20.5019657,19.2576 20.35728,19.3754743 C19.0796571,19.6861714 17.5608686,19.88976 15.7715657,19.88976 C13.9688914,19.88976 12.4474971,19.6673829 11.1644571,19.3540114 C11.01984,19.2576 10.8429943,19.2174171 10.6715657,19.2469029 C9.87072,19.0245257 9.17430857,18.7513371 8.59302857,18.4968686 C7.01801143,17.8031314 6.30016457,17.1469029 6.30016457,17.1469029 C6.14480914,17.0022171 5.93052343,16.94064 5.72159314,16.9754743 C5.45642057,17.0156571 5.23677257,17.2058057 5.16445029,17.4656229 C5.08945371,17.7227657 5.175168,18.0013714 5.378736,18.1754743 C5.378736,18.1754743 6.30552686,18.9789943 8.03588571,19.7397257 C8.50196571,19.9433143 9.03229714,20.1495771 9.6216,20.3397257 L8.46445714,21.9040457 C7.79478857,21.8397257 6.51445029,21.6013714 5.14302171,21.0682971 C3.634992,20.4816686 2.17248686,19.5442286 1.39302171,18.2825829 C1.425168,15.1566857 2.10016457,11.7469029 2.93587886,8.98258971 C3.36445029,7.56562286 3.81445029,6.33080229 4.24302171,5.38258971 C4.67159314,4.43437714 5.13766629,3.74866286 5.27159314,3.62544686 C7.34214857,1.98883886 10.3823314,1.57901486 11.1644571,1.48258971 Z M11.3144229,9.60404571 C9.56537143,9.60404571 8.22870857,11.1924343 8.22870857,13.0326171 C8.22870857,14.8728 9.56537143,16.4611886 11.3144229,16.4611886 C13.0635429,16.4611886 14.4001371,14.8728 14.4001371,13.0326171 C14.4001371,11.1924343 13.0635429,9.60404571 11.3144229,9.60404571 Z M20.2287086,9.60404571 C18.4796571,9.60404571 17.1429943,11.1924343 17.1429943,13.0326171 C17.1429943,14.8728 18.4796571,16.4611886 20.2287086,16.4611886 C21.9778286,16.4611886 23.3144229,14.8728 23.3144229,13.0326171 C23.3144229,11.1924343 21.9778286,9.60404571 20.2287086,9.60404571 Z M11.3144229,10.9754743 C12.2171657,10.9754743 13.0287086,11.8433143 13.0287086,13.0326171 C13.0287086,14.2218514 12.2171657,15.08976 11.3144229,15.08976 C10.4117486,15.08976 9.60013714,14.2218514 9.60013714,13.0326171 C9.60013714,11.8433143 10.4117486,10.9754743 11.3144229,10.9754743 Z M20.2287086,10.9754743 C21.1314514,10.9754743 21.9429943,11.8433143 21.9429943,13.0326171 C21.9429943,14.2218514 21.1314514,15.08976 20.2287086,15.08976 C19.3260343,15.08976 18.5144229,14.2218514 18.5144229,13.0326171 C18.5144229,11.8433143 19.3260343,10.9754743 20.2287086,10.9754743 Z" id="Shape"></path>
        </g>
    </g>
</svg>