<svg width="593" height="593" viewBox="0 0 593 593" fill="none" xmlns="http://www.w3.org/2000/svg">
<path d="M296.491 592.981C460.238 592.981 592.981 460.238 592.981 296.49C592.981 132.743 460.238 0 296.491 0C132.743 0 0 132.743 0 296.49C0 460.238 132.743 592.981 296.491 592.981Z" fill="url(#paint0_linear)"/>
<path d="M296.492 459.475C386.505 459.475 459.475 386.505 459.475 296.492C459.475 206.479 386.505 133.509 296.492 133.509C206.479 133.509 133.509 206.479 133.509 296.492C133.509 386.505 206.479 459.475 296.492 459.475Z" fill="#101010"/>
<path d="M296.487 592.983C339.929 593.025 382.847 583.495 422.19 565.073C461.532 546.65 496.333 519.786 524.118 486.391L360.557 323.161C352.12 314.698 342.096 307.983 331.059 303.402C320.022 298.82 308.189 296.462 296.239 296.462C284.289 296.462 272.456 298.82 261.419 303.402C250.383 307.983 240.358 314.698 231.921 323.161L68.8555 486.391C96.6405 519.786 131.441 546.65 170.784 565.073C210.127 583.495 253.045 593.025 296.487 592.983V592.983Z" fill="white"/>
<path d="M429.003 391.277C413.941 412.377 394.059 429.575 371.009 441.44C347.96 453.306 322.411 459.496 296.487 459.496C270.563 459.496 245.013 453.306 221.964 441.44C198.915 429.575 179.032 412.377 163.97 391.277L68.8555 486.392C96.6653 519.76 131.471 546.605 170.807 565.028C210.144 583.451 253.05 593 296.487 593C339.924 593 382.83 583.451 422.166 565.028C461.503 546.605 496.308 519.76 524.118 486.392L429.003 391.277Z" fill="black" fill-opacity="0.07"/>
<defs>
<linearGradient id="paint0_linear" x1="296" y1="593" x2="296" y2="0" gradientUnits="userSpaceOnUse">
<stop stop-color="#101010"/>
<stop offset="1" stop-color="#F0014F"/>
</linearGradient>
</defs>
</svg>
