<svg width="47" height="49" viewBox="0 0 47 49" fill="none" xmlns="http://www.w3.org/2000/svg">
<path d="M21.4931 3.63818H17.2438C16.0153 3.63818 15.0442 4.67948 15.1298 5.90506L15.3659 9.28474L15.3659 9.56342L22.4999 10.0634C22.1472 9.79963 22.4564 10.0228 22.2055 9.56342C21.2409 7.7974 21.0213 4.93306 21.4931 3.63818Z" fill="#F5F5FD" fill-opacity="0.1"/>
<path d="M7.84868 28.9099C9.99976 28.9099 11.8709 28.2348 14.9998 28.5635C15.541 28.0635 16.904 29.8443 17.4198 28.5635C17.8977 27.3768 18.4735 26.2825 19.1174 25.3269C20.6135 23.1063 20.9934 20.8948 20.5314 19.0739C20.41 18.5953 20.7779 18.1345 21.2714 18.1505C22.0032 18.1744 22.7615 18.1881 23.5386 18.1881C26.197 18.1881 28.6362 18.0284 30.5436 17.8482L31.1946 14.5635H15.1992H15.8828L16.7717 19.049C17.0007 20.2044 16.4233 21.3715 15.3627 21.8837C12.2508 23.3867 9.69307 25.7211 8.04192 28.5635C7.97519 28.6783 7.90994 28.7941 7.84619 28.9106L7.84868 28.9099Z" fill="#F5F5FD" fill-opacity="0.1"/>
<path d="M23.5387 14.8444C19.4482 14.8444 15.8998 14.4483 14.1487 14.2122C12.7338 14.0215 11.7415 12.7198 11.9322 11.3049C12.1229 9.89009 13.4244 8.89819 14.8395 9.08839C16.4622 9.30716 19.7501 9.67419 23.5387 9.67419C27.3274 9.67419 30.6152 9.30716 32.2378 9.08839C33.6522 8.8978 34.9543 9.8899 35.1452 11.3049C35.3359 12.7198 34.3435 14.0215 32.9287 14.2122C31.1776 14.4483 27.6293 14.8444 23.5387 14.8444Z" fill="#F5F5FD" fill-opacity="0.1"/>
<path d="M17.4201 28.5634C14.1505 28.0688 10.8498 28.1116 7.84884 28.9095C6.6674 31.0682 6.00049 33.5036 6.00049 36.0823C6.00049 39.6207 6.82149 42.8916 8.59647 45.5445C9.71018 47.209 11.5924 48.1957 13.5952 48.1957H22.3058C15.0963 43.5615 14.9107 34.7907 17.4201 28.5634Z" fill="#F5F5FD" fill-opacity="0.1"/>
<path d="M39.6463 29.726C41.6242 33.731 32.9735 34.2326 26.3008 31.2149C30.1721 28.4114 37.901 26.1921 39.6463 29.726Z" fill="#F5F5FD" fill-opacity="0.1"/>
<path d="M15.9304 43.7268C17.4809 43.7268 18.7378 42.7259 18.7378 41.4911C18.7378 40.2563 17.4809 39.2554 15.9304 39.2554C14.38 39.2554 13.123 40.2563 13.123 41.4911C13.123 42.7259 14.38 43.7268 15.9304 43.7268Z" fill="#FE014A"/>
<path d="M31.1477 43.7268C32.6982 43.7268 33.9551 42.7259 33.9551 41.4911C33.9551 40.2563 32.6982 39.2554 31.1477 39.2554C29.5972 39.2554 28.3403 40.2563 28.3403 41.4911C28.3403 42.7259 29.5972 43.7268 31.1477 43.7268Z" fill="#FE014A"/>
<path d="M39.9334 7.27628C41.9395 7.27628 43.5715 5.64421 43.5715 3.63814C43.5715 1.63207 41.9394 0 39.9334 0C37.9273 0 36.2953 1.63207 36.2953 3.63814C36.2953 5.64421 37.9273 7.27628 39.9334 7.27628ZM39.9334 1.43298C41.1493 1.43298 42.1386 2.42221 42.1386 3.63814C42.1386 4.85407 41.1493 5.8433 39.9334 5.8433C38.7175 5.8433 37.7282 4.85407 37.7282 3.63814C37.7282 2.42221 38.7175 1.43298 39.9334 1.43298ZM7.43644 20.7295C7.43644 18.7234 5.80437 17.0913 3.7983 17.0913C1.79222 17.0913 0.160156 18.7234 0.160156 20.7295C0.160156 22.7355 1.79222 24.3676 3.7983 24.3676C5.80437 24.3675 7.43644 22.7354 7.43644 20.7295ZM3.7983 22.9345C2.58237 22.9345 1.59313 21.9453 1.59313 20.7294C1.59313 19.5134 2.58237 18.5242 3.7983 18.5242C5.01423 18.5242 6.00346 19.5134 6.00346 20.7294C6.00346 21.9453 5.01423 22.9345 3.7983 22.9345ZM42.2554 12.1224C39.6849 12.1224 37.5936 14.2137 37.5936 16.7842C37.5936 19.3548 39.6849 21.4459 42.2554 21.4459C44.826 21.4459 46.9172 19.3547 46.9172 16.7842C46.9173 14.2136 44.826 12.1224 42.2554 12.1224ZM42.2554 20.013C40.4751 20.013 39.0266 18.5645 39.0266 16.7842C39.0266 15.0038 40.4751 13.5554 42.2554 13.5554C44.0357 13.5554 45.4842 15.0038 45.4842 16.7842C45.4842 18.5645 44.0358 20.013 42.2554 20.013ZM25.4633 37.8445C24.9427 37.5805 24.3175 37.5264 23.5387 37.5264C22.7599 37.5264 22.1347 37.5805 21.6141 37.8445C21.1326 38.0886 20.5588 38.6214 20.5588 39.7733C20.5588 41.5649 21.8956 43.0226 23.5387 43.0226C25.1819 43.0226 26.5186 41.5649 26.5186 39.7733C26.5186 38.6214 25.9448 38.0886 25.4633 37.8445ZM23.5387 41.5896C22.6857 41.5896 21.9918 40.7748 21.9918 39.7733C21.9918 39.2089 22.0543 38.9594 23.5387 38.9594C25.0231 38.9594 25.0857 39.2089 25.0857 39.7733C25.0857 40.7748 24.3917 41.5896 23.5387 41.5896ZM32.0263 21.2384C31.2611 20.8687 30.8425 20.0256 31.0085 19.188L31.8243 15.0723C32.2843 15.0189 32.6875 14.9676 33.0245 14.9223C34.8287 14.6789 36.0985 13.0133 35.8553 11.2092C35.628 9.52357 34.1583 8.30468 32.4951 8.35015L32.6625 5.95488C32.7768 4.31661 31.4759 2.92165 29.8337 2.92165H19.8852C19.4895 2.92165 19.1687 3.24245 19.1687 3.63814C19.1687 4.03383 19.4895 4.35463 19.8852 4.35463H29.8337C30.6428 4.35463 31.2901 5.03835 31.2329 5.85505L31.0471 8.51523C26.0995 9.08785 21.2408 9.11823 16.0305 8.51523L15.8447 5.85515C15.8015 5.23648 16.1608 4.67103 16.7388 4.44796C17.1081 4.30552 17.2919 3.89073 17.1493 3.52159C17.0069 3.15236 16.5918 2.96856 16.223 3.11109C15.0543 3.562 14.3278 4.70485 14.415 5.95507L14.5824 8.35034C12.9187 8.30497 11.4495 9.52405 11.2222 11.2093C10.9789 13.0133 12.2489 14.679 14.053 14.9224C14.3899 14.9678 14.7932 15.0191 15.2532 15.0723L16.069 19.1881C16.2349 20.0257 15.8164 20.8688 15.0512 21.2384C9.02656 24.1483 5.28401 29.8362 5.28401 36.0827C5.28401 39.931 6.19806 43.2486 8.00093 45.9432C9.24485 47.8023 11.3361 48.9123 13.5951 48.9123H31.6103C32.006 48.9123 32.3268 48.5915 32.3268 48.1958C32.3268 47.8001 32.006 47.4793 31.6103 47.4793H13.5951C11.8154 47.4793 10.1693 46.6071 9.19183 45.1462C7.54964 42.6916 6.71689 39.6421 6.71689 36.0826C6.71689 33.7705 7.2833 31.5406 8.32622 29.5288C13.4001 28.2775 19.9798 29.1428 26.0053 31.8676C28.4939 32.9931 31.445 33.7157 34.1022 33.8504C35.9313 33.9429 38.5834 33.7955 39.9019 32.5216C40.2023 33.6728 40.3603 34.8661 40.3603 36.0825C40.3603 39.6421 39.5277 42.6916 37.8854 45.1462C37.1684 46.2178 36.0781 46.9867 34.8153 47.311C34.432 47.4094 34.2011 47.7999 34.2996 48.1832C34.398 48.5664 34.7884 48.7974 35.1718 48.6989C36.7765 48.2868 38.1631 47.308 39.0764 45.943C40.8793 43.2483 41.7933 39.9308 41.7933 36.0825C41.7934 29.8361 38.051 24.1482 32.0263 21.2384ZM14.2444 13.5021C13.2234 13.3643 12.5046 12.4216 12.6423 11.4007C12.7686 10.464 13.5729 9.7817 14.4935 9.7817C14.5761 9.7817 14.6597 9.78724 14.7438 9.79851C20.5732 10.5845 26.5042 10.5845 32.3335 9.79851C33.3546 9.66114 34.2973 10.3796 34.4351 11.4007C34.5727 12.4217 33.854 13.3644 32.8329 13.5022C26.7336 14.3242 20.4662 14.3408 14.2444 13.5021ZM39.004 30.0434C39.2607 30.5637 39.3393 31.0457 38.9415 31.4573C38.2575 32.165 36.4314 32.5336 34.1748 32.4193C32.1153 32.315 29.8659 31.8312 27.8285 31.0687C31.1383 29.0872 35.1898 28.2719 37.2429 28.7801C38.669 29.133 38.9195 29.944 39.004 30.0434ZM26.2211 30.3965C21.0468 28.129 14.8415 26.8903 9.34392 27.8511C10.8816 25.6494 13.0392 23.8015 15.6743 22.5287C17.0271 21.8754 17.7674 20.3871 17.4746 18.9095L16.7453 15.2293C21.356 15.6675 25.6658 15.6728 30.3323 15.2293L29.6029 18.9095C29.3101 20.3871 30.0504 21.8753 31.4032 22.5287C33.832 23.7018 35.8558 25.3631 37.362 27.3399C34.1482 26.6758 29.2356 28.3492 26.2211 30.3965Z" fill="#FE014A"/>
<path d="M31.3583 38.2301V36.8968C31.3583 36.4366 31.7258 36.0635 32.1792 36.0635C32.6325 36.0635 33 36.4366 33 36.8968V38.2301C33 38.6904 32.6325 39.0635 32.1792 39.0635C31.7258 39.0635 31.3583 38.6904 31.3583 38.2301Z" fill="#F5F5FD"/>
<path d="M15 38.2301V36.8968C15 36.4366 15.3675 36.0635 15.8208 36.0635C16.2742 36.0635 16.6417 36.4366 16.6417 36.8968V38.2301C16.6417 38.6904 16.2742 39.0635 15.8208 39.0635C15.3675 39.0635 15 38.6904 15 38.2301Z" fill="#F5F5FD"/>
</svg>

