<svg width="30" height="30" viewBox="0 0 30 30" fill="none" xmlns="http://www.w3.org/2000/svg">
<path d="M14.5423 29.0847C22.5738 29.0847 29.0847 22.5738 29.0847 14.5423C29.0847 6.51082 22.5738 0 14.5423 0C6.51082 0 0 6.51082 0 14.5423C0 22.5738 6.51082 29.0847 14.5423 29.0847Z" fill="url(#paint0_linear)"/>
<path d="M14.5421 22.5366C18.9571 22.5366 22.5362 18.9576 22.5362 14.5426C22.5362 10.1276 18.9571 6.54858 14.5421 6.54858C10.1271 6.54858 6.5481 10.1276 6.5481 14.5426C6.5481 18.9576 10.1271 22.5366 14.5421 22.5366Z" fill="#101010"/>
<path d="M14.5421 29.0846C16.6729 29.0866 18.7779 28.6192 20.7076 27.7156C22.6373 26.8121 24.3442 25.4944 25.707 23.8565L17.6846 15.8503C17.2708 15.4352 16.7791 15.1059 16.2378 14.8812C15.6965 14.6564 15.1161 14.5408 14.53 14.5408C13.9438 14.5408 13.3635 14.6564 12.8221 14.8812C12.2808 15.1059 11.7891 15.4352 11.3753 15.8503L3.3772 23.8565C4.74001 25.4944 6.44693 26.8121 8.37661 27.7156C10.3063 28.6192 12.4113 29.0866 14.5421 29.0846Z" fill="#F5F5FD"/>
<path d="M21.0418 19.1917C20.303 20.2265 19.3278 21.0701 18.1973 21.652C17.0668 22.234 15.8136 22.5377 14.5421 22.5377C13.2706 22.5377 12.0174 22.234 10.8869 21.652C9.75639 21.0701 8.78118 20.2265 8.04241 19.1917L3.3772 23.8569C4.74122 25.4935 6.44836 26.8102 8.37776 27.7138C10.3071 28.6174 12.4116 29.0858 14.5421 29.0858C16.6726 29.0858 18.7771 28.6174 20.7065 27.7138C22.6359 26.8102 24.343 25.4935 25.707 23.8569L21.0418 19.1917Z" fill="black" fill-opacity="0.07"/>
<defs>
<linearGradient id="paint0_linear" x1="14.5183" y1="29.0856" x2="14.5183" y2="0" gradientUnits="userSpaceOnUse">
<stop stop-color="#101010"/>
<stop offset="0.838542" stop-color="#F0014F"/>
<stop offset="1" stop-color="#FE0B5C"/>
</linearGradient>
</defs>
</svg>
