<svg xmlns="http://www.w3.org/2000/svg" width="26" height="22" viewBox="0 0 26 22" fill="none">
<path d="M17.1134 0.742188C14.1232 0.742188 11.6915 3.17383 11.6915 6.16406C11.6915 6.34375 11.7365 6.51953 11.754 6.69531C8.05676 6.3418 4.78723 4.56055 2.56653 1.83594C2.46301 1.70508 2.30286 1.63477 2.13489 1.64648C1.96887 1.6582 1.82044 1.75391 1.7384 1.89844C1.27161 2.70117 1.00403 3.625 1.00403 4.61719C1.00403 5.81836 1.43372 6.91797 2.09778 7.82031C1.96887 7.76367 1.82825 7.73242 1.70715 7.66406C1.55286 7.58203 1.36731 7.58594 1.21692 7.67578C1.06653 7.76562 0.974732 7.92773 0.972779 8.10156V8.16406C0.972779 10.0059 1.9259 11.6055 3.33215 12.5859C3.31653 12.584 3.3009 12.5898 3.28528 12.5859C3.1134 12.5566 2.93958 12.6172 2.82434 12.748C2.70911 12.8789 2.672 13.0605 2.72278 13.2266C3.28137 14.9629 4.70715 16.2891 6.47278 16.7734C5.06653 17.6094 3.43567 18.1016 1.6759 18.1016C1.29505 18.1016 0.929811 18.082 0.566529 18.0391C0.332154 18.0078 0.107545 18.1445 0.0294201 18.3672C-0.050658 18.5898 0.0372326 18.8379 0.238404 18.9609C2.49426 20.4082 5.172 21.2578 8.0509 21.2578C12.7169 21.2578 16.3771 19.3086 18.8322 16.5234C21.2872 13.7383 22.5665 10.1211 22.5665 6.74219C22.5665 6.59961 22.5548 6.46094 22.5509 6.32031C23.4669 5.61914 24.2853 4.79688 24.9259 3.83594C25.0529 3.65039 25.0392 3.40234 24.8927 3.23047C24.7482 3.05859 24.504 3.00586 24.3009 3.10156C24.0431 3.2168 23.7423 3.22852 23.4728 3.32031C23.8282 2.8457 24.1329 2.33398 24.3165 1.75781C24.379 1.56055 24.3107 1.34375 24.1486 1.21484C23.9865 1.08789 23.7599 1.07227 23.5822 1.17969C22.7286 1.68555 21.7833 2.04102 20.7853 2.25781C19.8165 1.35156 18.5411 0.742188 17.1134 0.742188ZM17.1134 1.74219C18.3888 1.74219 19.5411 2.28711 20.3478 3.14844C20.4689 3.27344 20.6466 3.32617 20.8165 3.28906C21.4689 3.16016 22.088 2.9707 22.6915 2.72656C22.3439 3.19531 21.9142 3.5957 21.4103 3.89844C21.1818 4.00977 21.0743 4.27344 21.1583 4.51367C21.2404 4.75195 21.4904 4.89062 21.7384 4.83594C22.2384 4.77539 22.6837 4.57227 23.1603 4.44531C22.7325 4.9082 22.2638 5.32617 21.754 5.69531C21.6154 5.79688 21.5392 5.96094 21.5509 6.13281C21.5587 6.33594 21.5665 6.53711 21.5665 6.74219C21.5665 9.86719 20.3673 13.2598 18.0822 15.8516C15.797 18.4434 12.4415 20.2578 8.0509 20.2578C6.05676 20.2578 4.17395 19.8164 2.47278 19.0391C4.58215 18.877 6.52747 18.1309 8.09778 16.8984C8.26184 16.7676 8.32629 16.5488 8.25989 16.3496C8.19348 16.1504 8.00989 16.0137 7.8009 16.0078C6.15247 15.9785 4.77161 15.0195 4.03528 13.6641C4.06262 13.6641 4.08606 13.6641 4.1134 13.6641C4.60754 13.6641 5.09583 13.6016 5.5509 13.4766C5.76965 13.4121 5.92004 13.209 5.91223 12.9805C5.90442 12.752 5.74231 12.5566 5.51965 12.5078C3.74036 12.1484 2.40637 10.6992 2.09778 8.89844C2.60169 9.07227 3.11731 9.20898 3.6759 9.22656C3.90442 9.24023 4.11145 9.09766 4.18176 8.88086C4.25208 8.66406 4.16614 8.42578 3.97278 8.30469C2.78528 7.50977 2.00403 6.15625 2.00403 4.61719C2.00403 4.04688 2.15247 3.52344 2.34778 3.02344C4.84778 5.76758 8.34778 7.58984 12.3009 7.78906C12.4572 7.79688 12.6095 7.73242 12.7111 7.61328C12.8126 7.49219 12.8517 7.33203 12.8165 7.17969C12.7404 6.85547 12.6915 6.51172 12.6915 6.16406C12.6915 3.71484 14.6642 1.74219 17.1134 1.74219Z" fill="#F0014F"/>
</svg>
