<svg xmlns="http://www.w3.org/2000/svg" width="26" height="26" viewBox="0 0 26 26" fill="none">
<path d="M13 25.5C19.9036 25.5 25.5 19.9036 25.5 13C25.5 6.09644 19.9036 0.5 13 0.5C6.09644 0.5 0.5 6.09644 0.5 13C0.5 19.9036 6.09644 25.5 13 25.5Z" fill="#FF014A" stroke="white"/>
<path d="M12.8125 21.625C11.0696 21.625 9.36575 21.1082 7.91654 20.1398C6.46733 19.1715 5.33781 17.7952 4.67082 16.1849C4.00382 14.5746 3.8293 12.8027 4.16933 11.0933C4.50937 9.38381 5.34868 7.81358 6.58113 6.58113C7.81358 5.34868 9.38381 4.50937 11.0933 4.16933C12.8027 3.8293 14.5746 4.00382 16.1849 4.67082C17.7952 5.33781 19.1715 6.46733 20.1398 7.91654C21.1082 9.36575 21.625 11.0696 21.625 12.8125C21.625 15.1497 20.6965 17.3912 19.0439 19.0439C17.3912 20.6965 15.1497 21.625 12.8125 21.625ZM12.2875 9.5425C11.8053 9.56642 11.3495 9.7697 11.0095 10.1125C10.6696 10.4552 10.47 10.9127 10.45 11.395C10.45 12.3025 11.005 12.895 12.1825 13.1425L13.0075 13.3375C13.81 13.525 14.14 13.795 14.14 14.2525C14.14 14.71 13.5625 15.16 12.8125 15.16C12.5461 15.1844 12.2782 15.1334 12.0395 15.0127C11.8007 14.892 11.6008 14.7065 11.4625 14.4775C11.4215 14.3906 11.3569 14.3171 11.2759 14.2653C11.195 14.2136 11.1011 14.1857 11.005 14.185H10.5625C10.5285 14.1913 10.496 14.2043 10.467 14.2232C10.438 14.2421 10.4131 14.2665 10.3935 14.2951C10.374 14.3237 10.3604 14.3558 10.3533 14.3897C10.3463 14.4236 10.346 14.4585 10.3525 14.4925C10.4603 14.9324 10.7109 15.3242 11.0651 15.6065C11.4193 15.8887 11.8571 16.0456 12.31 16.0525V16.6825C12.31 16.8227 12.3657 16.9572 12.4649 17.0564C12.564 17.1555 12.6985 17.2113 12.8388 17.2113C12.979 17.2113 13.1135 17.1555 13.2126 17.0564C13.3118 16.9572 13.3675 16.8227 13.3675 16.6825V16.045C13.8796 16.0392 14.3692 15.8337 14.732 15.4723C15.0948 15.1109 15.3022 14.6221 15.31 14.11C15.31 13.1575 14.7625 12.61 13.465 12.3325L12.715 12.1675C11.965 11.98 11.6125 11.7325 11.6125 11.3125C11.6125 10.8925 12.0625 10.4275 12.8125 10.4275C13.0487 10.4028 13.287 10.4471 13.4986 10.5549C13.7102 10.6627 13.8861 10.8294 14.005 11.035C14.0532 11.1377 14.1295 11.2246 14.2251 11.2856C14.3207 11.3467 14.4316 11.3794 14.545 11.38H14.8975C14.9776 11.3604 15.0469 11.3101 15.0904 11.24C15.1339 11.1699 15.1481 11.0855 15.13 11.005C15.0284 10.5988 14.8011 10.2351 14.4806 9.96576C14.16 9.6964 13.7626 9.53515 13.345 9.505V8.9875C13.345 8.84727 13.2893 8.71278 13.1901 8.61362C13.091 8.51446 12.9565 8.45875 12.8163 8.45875C12.676 8.45875 12.5415 8.51446 12.4424 8.61362C12.3432 8.71278 12.2875 8.84727 12.2875 8.9875V9.5425ZM6.205 12.8125C6.20586 14.1941 6.64073 15.5404 7.44819 16.6614C8.25565 17.7825 9.39489 18.6215 10.705 19.06H10.81C10.8995 19.06 10.9854 19.0244 11.0487 18.9612C11.1119 18.8979 11.1475 18.812 11.1475 18.7225V18.565C11.1478 18.4254 11.1065 18.2889 11.0291 18.1727C10.9517 18.0565 10.8415 17.966 10.7125 17.9125C9.69221 17.5007 8.81826 16.7933 8.20284 15.8813C7.58742 14.9692 7.25861 13.894 7.25861 12.7938C7.25861 11.6935 7.58742 10.6183 8.20284 9.70624C8.81826 8.79417 9.69221 8.08683 10.7125 7.675C10.8409 7.62286 10.9508 7.53366 11.0283 7.41878C11.1058 7.30391 11.1473 7.16856 11.1475 7.03V6.8575C11.148 6.80686 11.1363 6.75684 11.1133 6.71169C11.0903 6.66654 11.0568 6.6276 11.0156 6.59816C10.9744 6.56872 10.9267 6.54965 10.8765 6.54257C10.8264 6.5355 10.7753 6.54062 10.7275 6.5575C9.41198 6.99257 8.26698 7.83108 7.45513 8.95394C6.64328 10.0768 6.20586 11.4269 6.205 12.8125ZM19.42 12.8125C19.4176 11.4322 18.982 10.0875 18.1746 8.96802C17.3673 7.84849 16.2289 7.01061 14.92 6.5725H14.8075C14.714 6.5725 14.6244 6.60964 14.5582 6.67575C14.4921 6.74186 14.455 6.83152 14.455 6.925V7.0375C14.458 7.18216 14.5028 7.32285 14.584 7.44261C14.6652 7.56238 14.7793 7.65611 14.9125 7.7125C15.9305 8.12554 16.8021 8.83292 17.4157 9.74413C18.0293 10.6553 18.3571 11.7289 18.3571 12.8275C18.3571 13.9261 18.0293 14.9997 17.4157 15.9109C16.8021 16.8221 15.9305 17.5295 14.9125 17.9425C14.7818 17.9995 14.6701 18.0925 14.5904 18.2108C14.5107 18.329 14.4663 18.4675 14.4625 18.61V18.7375C14.4631 18.7931 14.4769 18.8478 14.5027 18.897C14.5285 18.9463 14.5656 18.9887 14.611 19.0209C14.6563 19.0531 14.7086 19.0741 14.7636 19.0822C14.8187 19.0903 14.8748 19.0853 14.9275 19.0675C16.2374 18.6273 17.3759 17.7866 18.182 16.6642C18.9882 15.5418 19.4212 14.1944 19.42 12.8125Z" fill="white"/>
</svg>
