<svg xmlns="http://www.w3.org/2000/svg" width="24" height="22" viewBox="0 0 24 22" fill="none">
<path fill-rule="evenodd" clip-rule="evenodd" d="M4.39446 0.663696L0.0184181 9.85558C0.00176604 9.88977 -0.00351091 9.92839 0.003359 9.96579C0.0102289 10.0032 0.0288853 10.0374 0.0565998 10.0635L11.8752 21.3886C11.9088 21.4208 11.9535 21.4387 12 21.4387C12.0465 21.4387 12.0913 21.4208 12.1248 21.3886L23.9435 10.0642C23.9712 10.0381 23.9898 10.0039 23.9967 9.9665C24.0036 9.92909 23.9983 9.89047 23.9817 9.85629L19.6056 0.664403C19.5915 0.633533 19.5688 0.607382 19.5402 0.589075C19.5116 0.570769 19.4783 0.561082 19.4444 0.561171H4.55709C4.52298 0.560747 4.48947 0.570201 4.46062 0.588392C4.43176 0.606584 4.40878 0.632737 4.39446 0.663696Z" fill="#FF014A"/>
<path fill-rule="evenodd" clip-rule="evenodd" d="M13.5183 10.7994C13.4335 10.8058 12.9951 10.832 12.0172 10.832C11.2394 10.832 10.6872 10.8086 10.4935 10.7994C7.48773 10.6672 5.24421 10.144 5.24421 9.51753C5.24421 8.89107 7.48773 8.36855 10.4935 8.2342V10.2783C10.69 10.2925 11.2529 10.3257 12.0306 10.3257C12.964 10.3257 13.4313 10.2868 13.5155 10.279V8.23562C16.5149 8.36926 18.7534 8.89249 18.7534 9.51753C18.7534 10.1426 16.5156 10.6658 13.5155 10.7987L13.5183 10.7994ZM13.5183 8.02421V6.19502H17.7041V3.40564H6.30764V6.19502H10.4928V8.0235C7.09107 8.17976 4.5329 8.8536 4.5329 9.66107C4.5329 10.4685 7.09107 11.1417 10.4928 11.2986V17.1602H13.5176V11.2965C16.9115 11.1403 19.4654 10.4671 19.4654 9.66036C19.4654 8.8536 16.9136 8.18047 13.5176 8.0235L13.5183 8.02421Z" fill="white"/>
</svg>
