<svg width="20" height="20" viewBox="0 0 20 20" fill="none" xmlns="http://www.w3.org/2000/svg">
<path d="M2.9288 2.9288C-0.976268 6.83387 -0.976268 13.1661 2.9288 17.0712C6.83387 20.9763 13.1661 20.9763 17.0712 17.0712C20.9763 13.1661 20.9763 6.83387 17.0712 2.9288C13.1661 -0.976268 6.83387 -0.976268 2.9288 2.9288ZM14.1249 7.05367L11.1785 10L14.1249 12.9463C14.4507 13.2722 14.4501 13.7996 14.1249 14.1249C13.7996 14.4501 13.2722 14.4507 12.9463 14.1249L10 11.1785L7.05367 14.1249C6.72839 14.4501 6.201 14.4507 5.87513 14.1249C5.54927 13.799 5.54986 13.2716 5.87513 12.9463L8.82147 10L5.87513 7.05367C5.54927 6.7278 5.54986 6.20041 5.87513 5.87513C6.20041 5.54986 6.7278 5.54927 7.05367 5.87513L10 8.82147L12.9463 5.87513C13.2716 5.54986 13.799 5.54927 14.1249 5.87513C14.4507 6.201 14.4501 6.72839 14.1249 7.05367Z" fill="#F5F5FD" fill-opacity="0.5"/>
</svg>
