<svg width="50" height="22" viewBox="0 0 50 22" fill="none" xmlns="http://www.w3.org/2000/svg">
<g filter="url(#filter0_d)">
<path d="M9.67202 16C8.98407 16 8.3676 15.8841 7.82261 15.6523C7.27761 15.4205 6.83983 15.0774 6.50926 14.6231C6.18762 14.1688 6.01787 13.6217 6 12.9819H8.43908C8.47481 13.3435 8.59543 13.6217 8.80092 13.8164C9.00641 14.0019 9.27444 14.0946 9.60501 14.0946C9.94451 14.0946 10.2125 14.0158 10.4091 13.8581C10.6057 13.6912 10.7039 13.4641 10.7039 13.1766C10.7039 12.9356 10.6235 12.7362 10.4627 12.5786C10.3108 12.421 10.1187 12.2911 9.88644 12.1892C9.66308 12.0872 9.34144 11.9713 8.92153 11.8414C8.31399 11.6467 7.81814 11.452 7.43396 11.2573C7.04979 11.0626 6.71921 10.7752 6.44225 10.395C6.16529 10.0148 6.0268 9.51878 6.0268 8.90682C6.0268 7.99815 6.34397 7.28883 6.97831 6.77886C7.61265 6.25962 8.43908 6 9.45759 6C10.494 6 11.3293 6.25962 11.9637 6.77886C12.598 7.28883 12.9375 8.00278 12.9822 8.92072H10.5029C10.485 8.60547 10.3734 8.35976 10.1679 8.18359C9.96238 7.99815 9.69882 7.90542 9.37718 7.90542C9.10022 7.90542 8.87686 7.98424 8.70711 8.14186C8.53735 8.29022 8.45248 8.50811 8.45248 8.79555C8.45248 9.1108 8.59543 9.35651 8.88133 9.53268C9.16722 9.70885 9.61394 9.89893 10.2215 10.1029C10.829 10.3162 11.3204 10.5202 11.6956 10.7149C12.0798 10.9096 12.4104 11.1924 12.6874 11.5633C12.9643 11.9342 13.1028 12.4117 13.1028 12.9958C13.1028 13.5522 12.9643 14.0575 12.6874 14.5118C12.4193 14.9662 12.0262 15.3278 11.508 15.5967C10.9898 15.8656 10.3778 16 9.67202 16Z" fill="#F0014F"/>
<path d="M18.9624 16C18.0779 16 17.2649 15.7867 16.5233 15.3602C15.7907 14.9337 15.2055 14.3403 14.7677 13.58C14.3389 12.8104 14.1245 11.9481 14.1245 10.993C14.1245 10.038 14.3389 9.18034 14.7677 8.42003C15.2055 7.65971 15.7907 7.0663 16.5233 6.63978C17.2649 6.21326 18.0779 6 18.9624 6C19.8469 6 20.6555 6.21326 21.3881 6.63978C22.1296 7.0663 22.7104 7.65971 23.1303 8.42003C23.5591 9.18034 23.7736 10.038 23.7736 10.993C23.7736 11.9481 23.5591 12.8104 23.1303 13.58C22.7014 14.3403 22.1207 14.9337 21.3881 15.3602C20.6555 15.7867 19.8469 16 18.9624 16ZM18.9624 13.8303C19.7129 13.8303 20.3115 13.5707 20.7582 13.0515C21.2139 12.5322 21.4417 11.8461 21.4417 10.993C21.4417 10.1307 21.2139 9.4446 20.7582 8.93463C20.3115 8.41539 19.7129 8.15577 18.9624 8.15577C18.203 8.15577 17.5955 8.41076 17.1398 8.92072C16.6931 9.43069 16.4697 10.1215 16.4697 10.993C16.4697 11.8554 16.6931 12.5461 17.1398 13.0654C17.5955 13.5753 18.203 13.8303 18.9624 13.8303Z" fill="#F0014F"/>
<path d="M29.4978 16C28.6133 16 27.8003 15.7867 27.0587 15.3602C26.3261 14.9337 25.7409 14.3403 25.3031 13.58C24.8743 12.8104 24.6598 11.9481 24.6598 10.993C24.6598 10.038 24.8743 9.18034 25.3031 8.42003C25.7409 7.65971 26.3261 7.0663 27.0587 6.63978C27.8003 6.21326 28.6133 6 29.4978 6C30.3823 6 31.1908 6.21326 31.9235 6.63978C32.665 7.0663 33.2457 7.65971 33.6656 8.42003C34.0945 9.18034 34.3089 10.038 34.3089 10.993C34.3089 11.9481 34.0945 12.8104 33.6656 13.58C33.2368 14.3403 32.6561 14.9337 31.9235 15.3602C31.1908 15.7867 30.3823 16 29.4978 16ZM29.4978 13.8303C30.2483 13.8303 30.8469 13.5707 31.2936 13.0515C31.7492 12.5322 31.9771 11.8461 31.9771 10.993C31.9771 10.1307 31.7492 9.4446 31.2936 8.93463C30.8469 8.41539 30.2483 8.15577 29.4978 8.15577C28.7384 8.15577 28.1308 8.41076 27.6752 8.92072C27.2285 9.43069 27.0051 10.1215 27.0051 10.993C27.0051 11.8554 27.2285 12.5461 27.6752 13.0654C28.1308 13.5753 28.7384 13.8303 29.4978 13.8303Z" fill="#F0014F"/>
<path d="M44 15.9026H41.7083L37.8755 9.88039V15.9026H35.5838V6.13908H37.8755L41.7083 12.1892V6.13908H44V15.9026Z" fill="#F0014F"/>
</g>
<defs>
<filter id="filter0_d" x="0" y="0" width="50" height="22" filterUnits="userSpaceOnUse" color-interpolation-filters="sRGB">
<feFlood flood-opacity="0" result="BackgroundImageFix"/>
<feColorMatrix in="SourceAlpha" type="matrix" values="0 0 0 0 0 0 0 0 0 0 0 0 0 0 0 0 0 0 127 0"/>
<feOffset/>
<feGaussianBlur stdDeviation="3"/>
<feColorMatrix type="matrix" values="0 0 0 0 1 0 0 0 0 0.00392157 0 0 0 0 0.290196 0 0 0 0.75 0"/>
<feBlend mode="normal" in2="BackgroundImageFix" result="effect1_dropShadow"/>
<feBlend mode="normal" in="SourceGraphic" in2="effect1_dropShadow" result="shape"/>
</filter>
</defs>
</svg>
