<svg width="20" height="16" viewBox="0 0 20 16" fill="none" xmlns="http://www.w3.org/2000/svg">
<path d="M19.0704 0.000234329C18.8308 0.00548209 18.6032 0.0982291 18.4372 0.258271L9.99804 8.07827L1.55891 0.258271C1.47428 0.177661 1.37308 0.113585 1.26127 0.0698299C1.14947 0.0260748 1.02934 0.00352798 0.907972 0.00352142C0.727317 0.00356539 0.55078 0.0535323 0.400932 0.147034C0.251083 0.240536 0.134732 0.373324 0.0667529 0.528422C-0.00122625 0.683519 -0.0177442 0.853879 0.0193107 1.01772C0.0563656 1.18156 0.14531 1.33144 0.274772 1.4482L9.35597 9.86316C9.52628 10.0209 9.75723 10.1095 9.99804 10.1095C10.2388 10.1095 10.4698 10.0209 10.6401 9.86316L19.7213 1.4482C19.8532 1.33068 19.9437 1.17899 19.981 1.01301C20.0182 0.847016 20.0005 0.674465 19.9302 0.517958C19.8598 0.361451 19.7401 0.228284 19.5867 0.135903C19.4332 0.0435221 19.2533 -0.00376555 19.0704 0.000234329ZM19.0704 5.89071C18.8308 5.89595 18.6032 5.9887 18.4372 6.14874L9.99804 13.9687L1.55891 6.14874C1.47428 6.06813 1.37308 6.00406 1.26127 5.9603C1.14947 5.91655 1.02934 5.894 0.907972 5.89399C0.727317 5.89404 0.55078 5.944 0.400932 6.03751C0.251083 6.13101 0.134732 6.26379 0.0667529 6.41889C-0.00122625 6.57399 -0.0177443 6.74435 0.0193107 6.90819C0.0563656 7.07204 0.14531 7.22191 0.274772 7.33867L9.35597 15.7536C9.52628 15.9114 9.75723 16 9.99804 16C10.2388 16 10.4698 15.9114 10.6401 15.7536L19.7213 7.33867C19.8532 7.22115 19.9437 7.06947 19.981 6.90348C20.0182 6.73749 20.0005 6.56494 19.9302 6.40843C19.8598 6.25192 19.7401 6.11876 19.5867 6.02637C19.4332 5.93399 19.2533 5.88671 19.0704 5.89071Z" fill="white" fill-opacity="0.3"/>
</svg>
