<svg width="20" height="13" viewBox="0 0 20 13" fill="none" xmlns="http://www.w3.org/2000/svg">
<path d="M1.95139 0.688297C2.31063 0.329056 2.86913 0.305118 3.19884 0.634829L11.5568 8.99274C11.8865 9.32246 11.8625 9.88096 11.5033 10.2402L10.2024 11.5411C9.84313 11.9004 9.28462 11.9243 8.95491 11.5946L0.596994 3.23668C0.267284 2.90697 0.291222 2.34846 0.650462 1.98922L1.95139 0.688297Z" fill="#F5F5FD"/>
<path d="M8.03955 10.6595C7.68031 10.3003 7.66916 9.729 8.01465 9.38351L16.7726 0.625567C17.1181 0.280076 17.6894 0.291222 18.0486 0.650462L19.3495 1.95139C19.7088 2.31063 19.7199 2.88192 19.3744 3.22741L10.6165 11.9854C10.271 12.3308 9.69971 12.3197 9.34047 11.9605L8.03955 10.6595Z" fill="#F5F5FD"/>
</svg>
