<svg width="11" height="8" viewBox="0 0 11 8" fill="none" xmlns="http://www.w3.org/2000/svg">
<path d="M1.05179 1.52298C1.2454 1.32937 1.54639 1.31647 1.72408 1.49416L6.22843 5.99851C6.40612 6.1762 6.39322 6.4772 6.19961 6.6708L5.49851 7.37191C5.3049 7.56552 5.0039 7.57842 4.82621 7.40073L0.321864 2.89638C0.144173 2.71869 0.157074 2.41769 0.35068 2.22409L1.05179 1.52298Z" fill="#F5F5FD"/>
<path d="M4.33249 6.53091C4.13888 6.33731 4.13288 6.02942 4.31907 5.84322L9.039 1.12329C9.2252 0.937093 9.53309 0.9431 9.72669 1.13671L10.4278 1.83781C10.6214 2.03142 10.6274 2.33931 10.4412 2.52551L5.72129 7.24544C5.53509 7.43164 5.2272 7.42563 5.0336 7.23202L4.33249 6.53091Z" fill="#F5F5FD"/>
</svg>
