<svg width="29" height="26" viewBox="0 0 29 26" fill="none" xmlns="http://www.w3.org/2000/svg">
<path d="M16.2902 9.98202C16.5277 9.74453 16.8969 9.7287 17.1149 9.94667L22.6402 15.472C22.8582 15.69 22.8424 16.0592 22.6049 16.2967L21.7448 17.1567C21.5074 17.3942 21.1381 17.41 20.9202 17.1921L15.3948 11.6667C15.1769 11.4488 15.1927 11.0795 15.4302 10.842L16.2902 9.98202Z" fill="#F5F5FD"/>
<path d="M20.3148 16.1251C20.0773 15.8876 20.0699 15.5099 20.2983 15.2815L26.0881 9.49172C26.3165 9.26332 26.6942 9.27069 26.9317 9.50818L27.7917 10.3682C28.0292 10.6057 28.0366 10.9834 27.8082 11.2118L22.0184 17.0016C21.79 17.23 21.4123 17.2226 21.1748 16.9851L20.3148 16.1251Z" fill="#F5F5FD"/>
<line x1="0.5" y1="-2.18557e-08" x2="0.500001" y2="26" stroke="#F5F5FD" stroke-opacity="0.5"/>
</svg>
