<svg width="16" height="16" viewBox="0 0 16 16" fill="none" xmlns="http://www.w3.org/2000/svg">
<mask id="path-1-outside-1_10004_577" maskUnits="userSpaceOnUse" x="0.667969" y="0.666748" width="14" height="15" fill="black">
<rect fill="white" x="0.667969" y="0.666748" width="14" height="15"/>
<path d="M9.64233 3.89752L3.8802 9.65965L3.88019 9.65965C3.68554 9.8543 3.58822 9.95163 3.52125 10.0699C3.45427 10.1882 3.42089 10.3217 3.35412 10.5888L2.87008 12.525C2.77982 12.886 2.73469 13.0665 2.83478 13.1666C2.93487 13.2667 3.11539 13.2216 3.47641 13.1313L3.47642 13.1313L5.41259 12.6473C5.67965 12.5805 5.81318 12.5471 5.93147 12.4801C6.04976 12.4132 6.14708 12.3158 6.34173 12.1212L12.1039 6.35906C12.5941 5.86885 12.8392 5.62375 12.8997 5.33064C12.9273 5.19715 12.9273 5.05943 12.8997 4.92594C12.8392 4.63282 12.5941 4.38772 12.1039 3.89752C11.6137 3.40731 11.3686 3.16221 11.0754 3.10165C10.942 3.07407 10.8042 3.07407 10.6707 3.10165C10.3776 3.16221 10.1325 3.40731 9.64233 3.89752Z"/>
</mask>
<path d="M3.8802 9.65965L2.81954 8.59899L3.8802 9.65965ZM9.64233 3.89752L10.703 4.95818L10.703 4.95818L9.64233 3.89752ZM12.1039 6.35906L11.0432 5.2984L12.1039 6.35906ZM6.34173 12.1212L7.40239 13.1818L6.34173 12.1212ZM3.35412 10.5888L1.89891 10.225L1.89891 10.225L3.35412 10.5888ZM2.87008 12.525L4.3253 12.8888L4.3253 12.8888L2.87008 12.525ZM3.47642 13.1313L3.11262 11.6761L3.05209 11.6912L2.99303 11.7113L3.47642 13.1313ZM5.41259 12.6473L5.04879 11.192L5.04879 11.192L5.41259 12.6473ZM2.83478 13.1666L3.89545 12.1059L3.89544 12.1059L2.83478 13.1666ZM3.47641 13.1313L3.84021 14.5865L3.90074 14.5714L3.95981 14.5513L3.47641 13.1313ZM5.93147 12.4801L5.19242 11.1748L5.19242 11.1748L5.93147 12.4801ZM12.1039 3.89752L13.1645 2.83686L13.1645 2.83686L12.1039 3.89752ZM12.8997 4.92594L11.4308 5.22946L11.4308 5.22946L12.8997 4.92594ZM12.8997 5.33064L11.4308 5.02711L11.4308 5.02711L12.8997 5.33064ZM10.6707 3.10165L10.3672 1.63268L10.3672 1.63268L10.6707 3.10165ZM11.0754 3.10165L11.379 1.63268L11.379 1.63268L11.0754 3.10165ZM3.88019 9.65965L2.81953 8.59899L2.81953 8.59899L3.88019 9.65965ZM3.52125 10.0699L4.82654 10.809L4.82655 10.809L3.52125 10.0699ZM4.94086 10.7203L10.703 4.95818L8.58167 2.83686L2.81954 8.59899L4.94086 10.7203ZM11.0432 5.2984L5.28107 11.0605L7.40239 13.1818L13.1645 7.41972L11.0432 5.2984ZM1.89891 10.225L1.41487 12.1612L4.3253 12.8888L4.80934 10.9526L1.89891 10.225ZM3.84022 14.5865L5.7764 14.1025L5.04879 11.192L3.11262 11.6761L3.84022 14.5865ZM1.41487 12.1612C1.38197 12.2928 1.31167 12.5575 1.28818 12.7976C1.26288 13.0563 1.24598 13.6991 1.77413 14.2273L3.89544 12.1059C4.08845 12.2989 4.19879 12.5283 4.24715 12.7384C4.28906 12.9205 4.27722 13.056 4.27393 13.0897C4.27024 13.1274 4.26618 13.1363 4.27683 13.0882C4.28695 13.0426 4.30127 12.9849 4.3253 12.8888L1.41487 12.1612ZM2.99303 11.7113L2.99302 11.7113L3.95981 14.5513L3.95982 14.5513L2.99303 11.7113ZM3.11262 11.6761C3.0165 11.7001 2.95877 11.7144 2.91316 11.7245C2.86511 11.7352 2.87397 11.7311 2.91171 11.7275C2.9454 11.7242 3.08093 11.7123 3.26298 11.7542C3.4731 11.8026 3.70244 11.9129 3.89545 12.1059L1.77412 14.2273C2.30226 14.7554 2.94513 14.7385 3.20378 14.7132C3.4439 14.6897 3.70862 14.6194 3.84021 14.5865L3.11262 11.6761ZM5.28107 11.0605C5.23081 11.1108 5.19428 11.1473 5.16275 11.1782C5.13148 11.2088 5.1144 11.2247 5.10519 11.233C5.09676 11.2406 5.10248 11.2349 5.11853 11.2228C5.13627 11.2096 5.16144 11.1924 5.19242 11.1748L6.67052 13.7854C7.00694 13.595 7.26405 13.3202 7.40239 13.1818L5.28107 11.0605ZM5.77639 14.1025C5.9662 14.055 6.33409 13.9759 6.67052 13.7854L5.19242 11.1748C5.2234 11.1573 5.25108 11.1446 5.2716 11.1362C5.29018 11.1286 5.29801 11.1266 5.28717 11.13C5.27534 11.1336 5.25288 11.14 5.21054 11.1511C5.16785 11.1623 5.11775 11.1748 5.04879 11.192L5.77639 14.1025ZM11.0432 4.95818C11.1687 5.0837 11.2649 5.17991 11.3457 5.26391C11.4267 5.34805 11.4735 5.40067 11.5015 5.43494C11.5573 5.50315 11.4696 5.41734 11.4308 5.22946L14.3687 4.62242C14.2693 4.14142 14.0288 3.7865 13.8243 3.53633C13.6354 3.30524 13.3878 3.06017 13.1645 2.83686L11.0432 4.95818ZM13.1645 7.41972C13.3878 7.1964 13.6354 6.95133 13.8243 6.72025C14.0288 6.47007 14.2693 6.11515 14.3687 5.63416L11.4308 5.02711C11.4696 4.83923 11.5573 4.75342 11.5015 4.82163C11.4735 4.8559 11.4267 4.90852 11.3457 4.99266C11.2649 5.07666 11.1687 5.17287 11.0432 5.2984L13.1645 7.41972ZM11.4308 5.22946C11.417 5.16272 11.417 5.09386 11.4308 5.02711L14.3687 5.63416C14.4377 5.30044 14.4377 4.95614 14.3687 4.62241L11.4308 5.22946ZM10.703 4.95818C10.8285 4.83266 10.9247 4.73652 11.0087 4.65569C11.0929 4.57472 11.1455 4.52787 11.1798 4.49985C11.248 4.4441 11.1622 4.5318 10.9743 4.57062L10.3672 1.63268C9.88623 1.73206 9.53131 1.97259 9.28114 2.17708C9.05005 2.36597 8.80498 2.61354 8.58167 2.83686L10.703 4.95818ZM13.1645 2.83686C12.9412 2.61354 12.6961 2.36597 12.4651 2.17708C12.2149 1.97259 11.86 1.73206 11.379 1.63268L10.7719 4.57062C10.584 4.5318 10.4982 4.4441 10.5664 4.49985C10.6007 4.52787 10.6533 4.57472 10.7375 4.65569C10.8215 4.73652 10.9177 4.83266 11.0432 4.95818L13.1645 2.83686ZM10.9743 4.57062C10.9075 4.58441 10.8387 4.58441 10.7719 4.57062L11.379 1.63268C11.0452 1.56372 10.7009 1.56372 10.3672 1.63268L10.9743 4.57062ZM2.81954 8.59899L2.81953 8.59899L4.94085 10.7203L4.94086 10.7203L2.81954 8.59899ZM2.81953 8.59899C2.68119 8.73733 2.40643 8.99444 2.21595 9.33087L4.82655 10.809C4.809 10.8399 4.79183 10.8651 4.77854 10.8828C4.7665 10.8989 4.76081 10.9046 4.76839 10.8962C4.77666 10.887 4.7926 10.8699 4.82322 10.8386C4.85409 10.8071 4.89059 10.7706 4.94085 10.7203L2.81953 8.59899ZM4.80934 10.9526C4.82658 10.8836 4.83912 10.8335 4.85027 10.7908C4.86134 10.7485 4.86779 10.726 4.87142 10.7142C4.87475 10.7034 4.87278 10.7112 4.8652 10.7298C4.85683 10.7503 4.84409 10.778 4.82654 10.809L2.21595 9.33086C2.02546 9.66729 1.94636 10.0352 1.89891 10.225L4.80934 10.9526Z" fill="white" mask="url(#path-1-outside-1_10004_577)"/>
<path d="M8.82031 3.89746L12.1024 7.17951" stroke="white" stroke-width="1.5"/>
</svg>
