<svg width="23" height="22" viewBox="0 0 23 22" fill="none" xmlns="http://www.w3.org/2000/svg">
<path d="M17.4255 0H4.59212C2.06121 0 0.00878906 2.05242 0.00878906 4.58333V17.4167C0.00878906 19.9476 2.06121 22 4.59212 22H17.4255C19.9573 22 22.0088 19.9476 22.0088 17.4167V4.58333C22.0088 2.05242 19.9573 0 17.4255 0ZM7.34212 17.4167H4.59212V7.33333H7.34212V17.4167ZM5.96712 6.171C5.08162 6.171 4.36296 5.44683 4.36296 4.554C4.36296 3.66117 5.08162 2.937 5.96712 2.937C6.85262 2.937 7.57129 3.66117 7.57129 4.554C7.57129 5.44683 6.85354 6.171 5.96712 6.171ZM18.3421 17.4167H15.5921V12.2797C15.5921 9.19233 11.9255 9.42608 11.9255 12.2797V17.4167H9.17546V7.33333H11.9255V8.95125C13.2051 6.58075 18.3421 6.40567 18.3421 11.2209V17.4167Z" fill="#FAFBFB"/>
</svg>
