<svg width="54" height="33" viewBox="0 0 54 33" fill="none" xmlns="http://www.w3.org/2000/svg">
<path d="M2.09185 0.000206263C1.81855 -0.00365891 1.5472 0.0468332 1.29358 0.148748C1.03996 0.250662 0.809129 0.401967 0.614494 0.593869C0.419859 0.78577 0.265306 1.01444 0.159815 1.26659C0.0543238 1.51875 0 1.78935 0 2.06268C0 2.33601 0.0543238 2.60662 0.159815 2.85877C0.265306 3.11092 0.419859 3.33959 0.614494 3.53149C0.809129 3.72339 1.03996 3.8747 1.29358 3.97661C1.5472 4.07853 1.81855 4.12902 2.09185 4.12515H51.5912C51.8645 4.12902 52.1359 4.07853 52.3895 3.97661C52.6431 3.8747 52.874 3.72339 53.0686 3.53149C53.2632 3.33959 53.4178 3.11092 53.5233 2.85877C53.6288 2.60662 53.6831 2.33601 53.6831 2.06268C53.6831 1.78935 53.6288 1.51875 53.5233 1.26659C53.4178 1.01444 53.2632 0.78577 53.0686 0.593869C52.874 0.401967 52.6431 0.250662 52.3895 0.148748C52.1359 0.0468332 51.8645 -0.00365891 51.5912 0.000206263H2.09185ZM2.09185 14.4375C1.81855 14.4337 1.5472 14.4842 1.29358 14.5861C1.03996 14.688 0.809129 14.8393 0.614494 15.0312C0.419859 15.2231 0.265306 15.4518 0.159815 15.7039C0.0543238 15.9561 0 16.2267 0 16.5C0 16.7733 0.0543238 17.0439 0.159815 17.2961C0.265306 17.5482 0.419859 17.7769 0.614494 17.9688C0.809129 18.1607 1.03996 18.312 1.29358 18.4139C1.5472 18.5158 1.81855 18.5663 2.09185 18.5625H51.5912C51.8645 18.5663 52.1359 18.5158 52.3895 18.4139C52.6431 18.312 52.874 18.1607 53.0686 17.9688C53.2632 17.7769 53.4178 17.5482 53.5233 17.2961C53.6288 17.0439 53.6831 16.7733 53.6831 16.5C53.6831 16.2267 53.6288 15.9561 53.5233 15.7039C53.4178 15.4518 53.2632 15.2231 53.0686 15.0312C52.874 14.8393 52.6431 14.688 52.3895 14.5861C52.1359 14.4842 51.8645 14.4337 51.5912 14.4375H2.09185ZM2.09185 28.8748C1.81855 28.871 1.5472 28.9215 1.29358 29.0234C1.03996 29.1253 0.809129 29.2766 0.614494 29.4685C0.419859 29.6604 0.265306 29.8891 0.159815 30.1412C0.0543238 30.3934 0 30.664 0 30.9373C0 31.2106 0.0543238 31.4813 0.159815 31.7334C0.265306 31.9856 0.419859 32.2142 0.614494 32.4061C0.809129 32.598 1.03996 32.7493 1.29358 32.8513C1.5472 32.9532 1.81855 33.0037 2.09185 32.9998H51.5912C51.8645 33.0037 52.1359 32.9532 52.3895 32.8513C52.6431 32.7493 52.874 32.598 53.0686 32.4061C53.2632 32.2142 53.4178 31.9856 53.5233 31.7334C53.6288 31.4813 53.6831 31.2106 53.6831 30.9373C53.6831 30.664 53.6288 30.3934 53.5233 30.1412C53.4178 29.8891 53.2632 29.6604 53.0686 29.4685C52.874 29.2766 52.6431 29.1253 52.3895 29.0234C52.1359 28.9215 51.8645 28.871 51.5912 28.8748H2.09185Z" fill="#F5F5FD"/>
</svg>
