<svg width="17" height="17" viewBox="0 0 17 17" fill="none" xmlns="http://www.w3.org/2000/svg">
<path d="M8.5 0C3.80588 0 0 3.80588 0 8.5C0 13.1941 3.80588 17 8.5 17C13.1941 17 17 13.1941 17 8.5C17 3.80588 13.1941 0 8.5 0ZM12.75 9.20833H9.20833V12.75C9.20833 13.1417 8.891 13.4583 8.5 13.4583C8.109 13.4583 7.79167 13.1417 7.79167 12.75V9.20833H4.25C3.859 9.20833 3.54167 8.89171 3.54167 8.5C3.54167 8.10829 3.859 7.79167 4.25 7.79167H7.79167V4.25C7.79167 3.85829 8.109 3.54167 8.5 3.54167C8.891 3.54167 9.20833 3.85829 9.20833 4.25V7.79167H12.75C13.141 7.79167 13.4583 8.10829 13.4583 8.5C13.4583 8.89171 13.141 9.20833 12.75 9.20833Z" fill="#F5F5FD" fill-opacity="0.5"/>
</svg>
