<svg width="20" height="13" viewBox="0 0 20 13" fill="none" xmlns="http://www.w3.org/2000/svg">
<path d="M18.0486 11.9226C17.6894 12.2819 17.1309 12.3058 16.8012 11.9761L8.44324 3.61818C8.11353 3.28846 8.13747 2.72996 8.49671 2.37072L9.79763 1.0698C10.1569 0.710555 10.7154 0.686617 11.0451 1.01633L19.403 9.37424C19.7327 9.70396 19.7088 10.2625 19.3495 10.6217L18.0486 11.9226Z" fill="#F5F5FD"/>
<path d="M11.9605 1.95139C12.3197 2.31063 12.3308 2.88192 11.9853 3.22741L3.22741 11.9854C2.88192 12.3308 2.31062 12.3197 1.95138 11.9605L0.65046 10.6595C0.29122 10.3003 0.280074 9.729 0.625565 9.3835L9.3835 0.625567C9.72899 0.280076 10.3003 0.291221 10.6595 0.650462L11.9605 1.95139Z" fill="#F5F5FD"/>
</svg>
