<svg width="380" height="111" viewBox="0 0 380 111" fill="none" xmlns="http://www.w3.org/2000/svg">
<path d="M49.8279 109.947C46.9496 108.886 43.7683 106.058 41.4454 102.473L39.4761 99.4433L40.6375 98.5344C41.294 98.0294 42.0514 97.6254 42.3544 97.6254C42.6069 97.6254 43.7178 98.9383 44.7782 100.554C47.8585 105.301 52.1002 107.624 56.7459 107.068C63.7145 106.21 68.3601 100.302 70.077 90.0509C71.5414 81.416 75.2277 75.9624 81.6913 72.8821C85.933 70.8622 87.1449 70.6602 88.5588 71.8216C89.8717 72.8316 89.6192 74.397 88.1043 74.397C85.6805 74.397 81.8932 76.0634 79.5704 78.1337C76.3386 81.012 75.0257 83.8903 73.8643 90.2024C72.3999 98.4334 70.6325 102.322 66.6938 106.21C63.3105 109.492 61.1896 110.401 56.1905 110.603C53.2617 110.704 51.2418 110.502 49.8279 109.947Z" fill="white"/>
<path d="M24.5284 99.1401C19.9837 98.2312 15.843 94.8984 13.6717 90.3032C12.5102 87.7784 12.2577 86.6674 12.3082 83.4862C12.3587 76.9216 13.9241 74.0938 16.3985 76.0126C17.1559 76.6186 17.1559 76.9216 16.3985 79.9009C14.8836 86.0615 17.3074 91.7676 22.6096 94.3934C27.8612 96.9183 34.4258 95.5548 41.7478 90.3537C48.1609 85.809 52.857 84.3951 58.3612 85.506C64.1178 86.6169 67.804 88.7378 67.804 90.9092C67.804 92.626 66.5921 92.828 64.6733 91.4141C62.0474 89.3943 58.1592 88.3843 54.5234 88.6368C50.9382 88.9398 48.4638 90.0507 43.9191 93.434C39.6774 96.5648 36.4961 98.0797 32.5069 98.9381C28.8206 99.6956 27.6592 99.7461 24.5284 99.1401Z" fill="white"/>
<path d="M77.146 98.4842C75.3786 97.8782 75.1261 97.6258 75.2271 96.4138C75.2776 95.6059 75.4291 94.8989 75.5301 94.7979C75.6311 94.697 77.348 94.9494 79.3173 95.4039C85.8314 96.8683 91.285 94.6465 94.0118 89.2938C95.0723 87.274 95.3247 86.1125 95.3247 82.9817C95.2743 79.75 95.0218 78.639 93.6584 75.6597C92.7494 73.7409 91.083 70.913 89.9721 69.4486C86.5888 64.9544 85.2759 61.6217 85.0739 56.8245C84.9224 53.4917 85.0739 51.8758 85.9829 49.149C87.3463 44.8568 88.5582 43.4429 90.4266 43.8973C92.5474 44.4023 92.5474 44.4528 90.7801 47.4321C86.5888 54.3501 87.1948 60.1068 93.0524 67.8327C97.1426 73.2864 99.4655 80.0024 98.9605 84.8501C98.405 90.3037 94.8703 95.3534 90.0731 97.7268C87.2958 99.0902 80.3777 99.4941 77.146 98.4842Z" fill="white"/>
<path d="M37.2534 88.9397C37.1524 88.5862 36.799 87.2733 36.4455 86.0109C35.7385 83.0821 33.7692 79.7998 31.8503 78.1839C29.275 76.0126 26.7501 75.0026 21.8015 74.1442C14.1765 72.8313 10.8942 71.5184 6.60197 68.1351C0.996849 63.7419 -0.82103 55.4604 2.41075 48.8959C4.58211 44.4017 11.3487 39.15 13.0655 40.6144C14.1765 41.5234 13.8735 42.9878 12.4091 43.7957C11.6011 44.1997 9.93475 45.4116 8.67234 46.573C2.46125 52.0267 2.86522 60.9141 9.53078 66.0142C12.4091 68.2361 15.9439 69.549 21.7005 70.6599C28.1135 71.8214 31.0423 73.0838 34.2236 75.9621C37.2029 78.7394 40.5357 84.5465 40.5357 87.0713C40.5357 88.9902 37.8089 90.5051 37.2534 88.9397Z" fill="white"/>
<path d="M97.8996 70.761C96.7887 69.1451 96.8392 69.0441 99.3135 67.5797C104.919 64.2974 107.797 58.7933 106.686 53.4911C105.323 46.9266 99.9195 43.0383 89.2142 41.0185C86.2349 40.463 82.7001 39.4026 81.3367 38.7461C76.6405 36.3728 73.0553 32.1816 71.0354 26.7279L70.1265 24.2536L71.5404 23.0922C72.2978 22.4357 73.1058 21.8802 73.3077 21.8802C73.5097 21.8802 73.9642 23.0922 74.3177 24.6071C75.1256 28.1923 77.6505 32.333 80.3268 34.3529C82.7001 36.1203 85.1745 36.9282 92.2945 38.2412C100.273 39.6551 106.484 43.8463 109.11 49.6029C110.17 51.9257 110.322 52.7842 110.12 56.4199C109.968 59.5002 109.564 61.1161 108.605 63.035C107.09 65.9638 103.707 69.2966 100.727 70.8115L98.6571 71.8719L97.8996 70.761Z" fill="white"/>
<path d="M19.1253 67.3778C18.9233 67.1253 19.4788 65.8124 20.3372 64.449C22.5086 60.9142 23.5185 56.5715 22.8621 53.2892C22.2561 50.108 21.9531 49.4515 18.4689 44.5028C17.0045 42.382 15.0351 39.0997 14.1261 37.1808C12.6617 33.9995 12.5103 33.3431 12.5103 28.6974C12.5103 24.3042 12.6617 23.3447 13.7727 21.2239C15.2876 18.1941 18.6203 15.0633 21.7511 13.6494C24.5285 12.4375 30.4366 12.2355 33.8703 13.1949C35.7387 13.7504 35.9912 14.0029 35.9912 15.3158C35.9912 17.0832 35.8397 17.0832 31.0425 16.2752C26.3968 15.4673 23.165 16.2247 20.0343 19.002C17.0045 21.6784 15.843 24.2537 15.7925 28.3439C15.7925 32.6866 17.2064 36.3224 21.1957 42.281C24.8314 47.7346 26.3968 51.8248 26.3968 55.8646C26.3968 58.9954 25.4374 62.7321 23.9225 65.7114C22.9631 67.5798 22.6601 67.8323 21.0947 67.8323C20.1857 67.8323 19.2768 67.6303 19.1253 67.3778Z" fill="white"/>
<path d="M182.128 64.8529C182.027 64.7519 181.926 60.5607 181.926 55.6121V46.6237H183.441H184.956V54.1982V61.7726H189.551H194.096L193.944 63.3885L193.793 64.9539L188.087 65.0044C184.956 65.0549 182.28 64.9539 182.128 64.8529Z" fill="white"/>
<path d="M220.152 65.0044C219.95 64.8024 219.799 60.8132 219.799 56.117V47.5831L221.465 47.7346L223.081 47.886L223.233 51.3198L223.384 54.7031H227.373H231.413V51.1178V47.5831L233.079 47.7346L234.695 47.886L234.847 56.2685L234.948 64.7014L233.786 64.9034C231.716 65.3074 231.413 64.9034 231.413 61.4696V58.2379H227.373H223.334V61.5201C223.334 63.9945 223.182 64.8024 222.627 64.8024C222.223 64.8024 221.566 64.9034 221.213 65.0549C220.809 65.2064 220.354 65.1559 220.152 65.0044Z" fill="white"/>
<path d="M296.251 64.3482C292.968 62.8333 291.756 60.7125 291.756 56.3698C291.756 53.0875 291.908 52.5825 293.322 50.8151C296.15 47.3309 300.29 46.2704 304.33 48.0378C306.703 49.0982 307.208 50.0577 305.895 51.1686C305.34 51.6231 304.683 51.5726 302.916 50.9161C298.876 49.3507 295.645 51.2696 295.19 55.4103C294.837 58.4401 295.746 60.5105 297.816 61.4699C299.886 62.4799 301.25 62.4799 303.118 61.5204C304.532 60.763 304.633 60.561 304.633 57.6827C304.633 54.6529 304.633 54.6529 306.047 54.8044C307.36 54.9559 307.41 55.1073 307.562 58.1371C307.663 60.46 307.461 61.7224 306.905 62.6313C305.138 65.2572 300.088 66.0651 296.251 64.3482Z" fill="white"/>
<path d="M367.098 64.9539C366.896 64.8024 366.744 60.5607 366.744 55.6121V46.6237H368.259H369.723L369.875 54.0972L370.026 61.5202L374.571 61.7726C378.56 61.9746 379.116 62.1261 379.267 62.9846C379.621 64.7519 378.005 65.3074 372.551 65.3074C369.723 65.3074 367.249 65.1559 367.098 64.9539Z" fill="white"/>
<path d="M140.015 63.3381V61.8737H144.559C144.559 61.8737 148.866 61.8763 150.467 60.1063C151.677 58.7699 152.325 57.5155 152.325 55.7131C152.325 53.9108 151.777 52.6442 150.467 51.3199C148.774 49.6077 148.7 49.704 144.559 49.5525H140.015V48.0881C140.015 47.2802 140.015 46.7946 140.015 46.5228C144.256 46.2703 149.054 46.8257 150.72 47.7347C154.356 49.805 156.325 54.1477 155.214 57.834C153.649 62.9342 150.77 64.8025 144.307 64.8025H140.015V63.3381Z" fill="white"/>
<path d="M162.081 63.6917C161.929 63.0857 161.879 62.4293 162.03 62.1768C162.182 61.9748 165.01 61.7728 168.343 61.7728H174.352V63.2877V64.8026H168.343C162.636 64.8026 162.333 64.7521 162.081 63.6917Z" fill="white"/>
<path d="M200.004 64.449C199.903 64.1965 199.903 61.8231 200.004 59.1468L200.155 54.1982H204.902C209.699 54.1982 211.214 53.6427 211.214 51.9258C211.214 50.2089 209.699 49.6535 204.902 49.6535C200.307 49.6535 200.206 49.603 200.004 48.391C199.852 47.7346 199.852 47.0276 200.004 46.8761C200.155 46.7247 202.731 46.6237 205.76 46.6237C211.265 46.6237 211.315 46.6237 212.83 48.1386C214.244 49.5525 214.345 49.9059 214.143 52.2793C213.739 56.218 212.325 57.2279 207.124 57.2279H203.135V61.0152V64.8024H201.67C200.812 64.8024 200.105 64.651 200.004 64.449Z" fill="white"/>
<path d="M241.512 55.713V46.6237H243.027H244.542V55.713V64.8024H243.027H241.512V55.713Z" fill="white"/>
<path d="M261.206 63.2875V61.7726H265.145C269.336 61.7726 271.356 60.9142 272.618 58.6419C273.527 57.0765 273.477 54.4506 272.568 52.6833C271.406 50.4614 269.387 49.6535 264.993 49.6535H261.206V48.1386V46.6237H265.195C269.74 46.6237 271.457 47.1286 273.477 49.0475C275.547 51.0169 276.456 53.0367 276.456 55.713C276.456 58.3894 275.547 60.4092 273.477 62.3786C271.457 64.2975 269.74 64.8024 265.195 64.8024H261.206V63.2875Z" fill="white"/>
<path d="M282.919 55.7635V46.6237H284.687H286.454L286.353 55.6121L286.202 64.55L284.586 64.7015L282.919 64.8529V55.7635Z" fill="white"/>
<path d="M313.723 55.6627V46.5733L315.289 46.7248L316.854 46.8763L316.803 55.2082C316.803 59.8034 316.753 63.8432 316.753 64.1966C316.753 64.5501 316.096 64.8026 315.238 64.8026H313.723V55.6627Z" fill="white"/>
<path d="M328.871 57.2279V49.6535H325.841H322.812V48.1386V46.6237H330.639H338.465V48.1386V49.6535H335.436H332.406V57.2279V64.8024H330.639H328.871V57.2279Z" fill="white"/>
<path d="M347.05 55.9153C349.474 51.0677 351.595 46.9269 351.746 46.8259C351.999 46.5735 360.684 63.6918 360.684 64.4493C360.684 64.6513 359.876 64.8027 358.917 64.8027C357.149 64.8027 357.099 64.8027 354.473 59.1471L351.847 53.542L349.474 58.5412C348.212 61.268 346.848 63.8433 346.545 64.1968C346.242 64.4998 345.232 64.8027 344.273 64.8027H342.606L347.05 55.9153Z" fill="white"/>
<path d="M162.132 55.9659C161.98 55.3094 161.98 54.6025 162.132 54.451C162.283 54.2995 164.758 54.1985 167.636 54.1985H172.837V55.7134V57.2283H167.585C162.435 57.2283 162.334 57.2283 162.132 55.9659Z" fill="white"/>
<path d="M162.081 48.5425C161.929 47.9366 161.879 47.2801 162.03 47.0276C162.182 46.8256 165.01 46.6237 168.343 46.6237H174.352V48.1386V49.6535H168.343C162.636 49.6535 162.333 49.603 162.081 48.5425Z" fill="white"/>
<path d="M22.2055 39.5544C21.246 38.191 21.4985 37.5345 22.8619 37.5345C24.9323 37.5345 29.679 35.2622 31.8503 33.3433C34.8801 30.5155 36.294 27.4352 37.2535 21.6786C38.4654 13.8516 40.6873 9.05441 44.828 5.26716C49.1707 1.27793 53.8164 0.0155111 59.1185 1.37892C64.2692 2.69183 67.9554 5.67113 70.3793 10.3673L71.4397 12.4377L70.2783 13.3466C69.6218 13.8516 68.9149 14.3061 68.7129 14.3061C68.5614 14.3061 67.8544 13.3466 67.1475 12.1347C65.4306 9.2564 61.8453 6.02461 59.5225 5.21666C56.4422 4.20673 52.15 4.7622 49.2717 6.52958C44.8785 9.2059 42.6061 13.6496 40.7882 23.143C39.7278 28.4956 38.0614 31.9799 35.1326 34.9087C32.4058 37.6355 28.0126 40.0089 24.9828 40.4128C23.3164 40.6148 22.8619 40.5138 22.2055 39.5544Z" fill="white"/>
<path d="M95.1225 35.9691C94.2136 35.6156 94.0116 35.2622 94.3145 34.3532C95.0215 32.1314 95.173 26.0213 94.567 24.1529C93.7591 21.6281 90.7798 18.3963 88.2549 17.2854C86.8915 16.6794 85.0232 16.3259 82.7003 16.3259C78.2566 16.3259 75.1763 17.5378 68.9652 21.7291C62.9056 25.7688 60.3303 26.6272 54.7252 26.3243C51.2409 26.1223 49.726 25.7688 46.9992 24.5064C43.7169 22.9915 43.5654 22.8905 43.5654 21.1736C43.5654 20.1637 43.7674 19.3557 44.0704 19.3557C44.3229 19.3557 46.0903 20.2142 47.9586 21.2241C51.1399 22.9915 51.6954 23.143 55.4321 23.0925C60.0273 23.0925 61.4917 22.4865 68.3593 17.6388C73.8634 13.7506 77.0952 12.6397 82.7003 12.5892C86.6896 12.5387 87.5985 12.6902 90.1233 13.9526C97.4453 17.5378 100.677 25.9203 98.1018 34.6562C97.5463 36.6256 97.1424 36.7771 95.1225 35.9691Z" fill="white"/>
</svg>
