<svg width="150" height="105" viewBox="0 0 150 105" fill="none" xmlns="http://www.w3.org/2000/svg">
<path d="M0.0771484 83.9611V66.8967H2.04182L8.94481 77.343L15.8771 66.8967H17.8098V83.9611H15.72V70.637L8.94481 80.7319L2.16695 70.637V83.9611H0.0771484ZM32.0444 77.3749H39.5597L35.7847 69.8197L32.0444 77.3749ZM26.5417 83.9611L34.9036 66.8967H36.6659L45.1263 83.9611H42.8208L40.5021 79.3716H31.0727L28.8152 83.9611H26.5417ZM59.2091 83.9611H57.878L49.652 66.8967H51.9574L58.5436 80.5722L65.1298 66.8967H67.4778L59.2091 83.9611ZM76.1139 83.9611V66.8967H89.5391V68.8587H78.2356V73.8609H85.0747V75.8229H78.2356V81.9991H90.234V83.9611H76.1139ZM99.6953 83.9611V66.8967H100.808L111.885 79.6511V66.8967H114.007V83.9611H112.924L101.817 71.2067V83.9611H99.6953ZM127.177 67.4264V65.1104H132.528V83.9611H129.879V67.4264H127.177ZM144.273 67.4264V65.1104H149.622V83.9611H146.973V67.4264H144.273Z" fill="#F5F5FD"/>
<path d="M29.0921 102.886L29.7071 103.339C29.4249 103.871 29.0389 104.284 28.5517 104.568C28.0619 104.856 27.5082 105 26.8852 105C25.9668 105 25.208 104.696 24.6091 104.092C24.0127 103.488 23.7119 102.721 23.7119 101.789C23.7119 100.857 24.0127 100.088 24.6117 99.481C25.2134 98.8767 25.9694 98.5732 26.8825 98.5732C27.4496 98.5732 27.9661 98.6984 28.4319 98.9459C28.8978 99.1935 29.2785 99.5476 29.5713 100.008L28.9324 100.463C28.7407 100.096 28.4612 99.8085 28.0992 99.6008C27.7371 99.3959 27.3325 99.292 26.8852 99.292C26.1957 99.292 25.626 99.529 25.1734 100C24.7235 100.471 24.4973 101.068 24.4973 101.789C24.4973 102.511 24.7235 103.107 25.1734 103.578C25.626 104.049 26.1957 104.284 26.8852 104.284C27.3644 104.284 27.793 104.164 28.1657 103.927C28.5384 103.69 28.8472 103.344 29.0921 102.886ZM42.6878 102.476H45.3872L44.0322 99.7606L42.6878 102.476ZM40.7098 104.84L43.7154 98.7117H44.349L47.3865 104.84H46.5586L45.7253 103.192H42.3391L41.5271 104.84H40.7098ZM59.6059 101.44H62.3133C62.6966 101.44 62.9895 101.355 63.1865 101.185C63.3861 101.014 63.4846 100.764 63.4846 100.437C63.4846 100.115 63.3861 99.8644 63.1865 99.686C62.9895 99.505 62.7099 99.4171 62.3505 99.4171H59.6059V101.44ZM58.8445 104.84V98.7117H62.3612C62.9575 98.7117 63.4261 98.8581 63.7668 99.1536C64.1102 99.4491 64.2806 99.8564 64.2806 100.37C64.2806 100.903 64.1156 101.334 63.7828 101.661C63.4527 101.991 63.0134 102.157 62.4624 102.157H59.6059V104.84H58.8445ZM76.1139 104.84V98.6771H76.8886V104.84H76.1139ZM90.3618 104.84V99.4171H87.7795V98.7117H93.7055V99.4171H91.1232V104.84H90.3618ZM105.028 102.476H107.727L106.372 99.7606L105.028 102.476ZM103.052 104.84L106.055 98.7117H106.689L109.729 104.84H108.898L108.068 103.192H104.679L103.87 104.84H103.052ZM121.219 104.84V98.7117H121.98V104.135H125.984V104.84H121.219Z" fill="#F5F5FD"/>
<path d="M92.6982 23.9533C92.6982 25.138 92.6982 38.4382 92.6449 39.2954C92.5358 42.7855 92.424 42.9825 88.8647 42.9825H86.3463C85.907 42.9825 85.5796 43.049 85.5796 43.3791V45.0243C85.5796 45.4184 85.7446 45.5515 86.0188 45.5515C86.2904 45.5515 94.0133 45.3545 94.5058 45.3545C94.9983 45.3545 102.447 45.5515 102.94 45.5515C103.323 45.5515 103.432 45.4184 103.432 45.0243V43.5096C103.432 43.1795 103.267 42.9825 102.886 42.9825H100.914C97.3543 42.9825 97.1333 42.5219 97.0801 39.0984C97.0801 38.2412 97.0242 24.2808 97.0242 23.4928V20.7268C97.0242 12.2318 97.1893 1.89199 97.1893 1.30099C97.1893 0.773883 97.1333 0.379883 96.8059 0.379883C96.5317 0.379883 96.3134 0.576883 96.0392 0.773883L84.7037 8.60863C84.3204 8.87218 84.2645 9.13574 84.3763 9.39929L84.8129 10.584C84.922 10.8475 85.143 10.8475 85.3613 10.7836L89.1948 9.26884C90.0706 8.93874 90.8932 8.74174 91.3857 8.74174C92.424 8.74174 92.6449 10.19 92.6982 12.4288C92.7541 17.6307 92.6982 20.7268 92.6982 21.5813V23.9533Z" fill="#D1A963"/>
<path d="M57.0004 23.9533C57.0004 25.138 57.0004 38.4382 57.0563 39.2954C57.1655 42.7855 57.2746 42.9825 60.834 42.9825H63.355C63.7916 42.9825 64.1217 43.049 64.1217 43.3791V45.0243C64.1217 45.4184 63.9567 45.5515 63.6825 45.5515C63.4083 45.5515 55.688 45.3545 55.1928 45.3545C54.7003 45.3545 47.2543 45.5515 46.7618 45.5515C46.3784 45.5515 46.2666 45.4184 46.2666 45.0243V43.5096C46.2666 43.1795 46.4317 42.9825 46.815 42.9825H48.7877C52.347 42.9825 52.5653 42.5219 52.6212 39.0984C52.6212 38.2412 52.6744 24.2808 52.6744 23.4928V20.7268C52.6744 12.2318 52.5094 1.89199 52.5094 1.30099C52.5094 0.773883 52.5653 0.379883 52.8954 0.379883C53.1669 0.379883 53.3879 0.576883 53.6594 0.773883L64.9976 8.60863C65.3809 8.87218 65.4342 9.13574 65.325 9.39929L64.8884 10.584C64.7766 10.8475 64.5583 10.8475 64.34 10.7836L60.5065 9.26884C59.6307 8.93874 58.808 8.74174 58.3155 8.74174C57.2746 8.74174 57.0563 10.19 57.0004 12.4288C56.9472 17.6307 57.0004 20.7268 57.0004 21.5813V23.9533Z" fill="#D1A963"/>
</svg>

