<svg width="395" height="102" viewBox="0 0 395 102" fill="none" xmlns="http://www.w3.org/2000/svg">
<path d="M54.5908 91.7637C53.0047 91.0926 53.0657 91.4891 53.0352 74.6212V58.8514L53.9807 58.3329C55.3534 57.6313 59.1357 57.8448 60.0202 58.6379C60.6608 59.2175 60.6608 59.4005 60.6608 74.7128V90.208L59.9287 91.0316C59.3187 91.7637 58.9526 91.8857 57.275 91.9772C56.2074 92.0077 54.9873 91.9162 54.5908 91.7637Z" fill="white"/>
<path d="M29.945 88.5609C26.8947 87.7374 24.668 86.2427 23.3869 84.1991L22.6854 83.0705L22.6244 53.483C22.5939 34.3274 22.6854 23.5295 22.8989 22.889C23.4784 20.9673 26.8337 20.2657 28.5419 21.7299L29.3959 22.4619L29.5484 50.6463L29.701 78.8611L30.5855 80.1117C32.8122 83.345 36.442 83.9245 39.2483 81.5148C41.5969 79.5017 41.4444 81.8504 41.4444 49.1516C41.4444 15.8124 41.2614 18.0696 44.0372 15.3243C46.3859 12.9451 48.1855 12.3656 53.5234 12.2131C57.2448 12.1216 58.1903 12.1826 60.539 12.7926C64.0773 13.6772 64.8704 14.0432 74.4787 18.7101C81.6163 22.1874 82.6839 22.7974 83.0804 23.6515C84.087 25.7257 83.3854 28.2879 81.6773 28.898C79.8776 29.508 78.8406 29.2945 75.0277 27.4033C72.9841 26.3967 71.2454 25.5732 71.1539 25.5732C71.0624 25.5732 71.0319 26.2137 71.0929 27.0068L71.1844 28.4404L73.3196 28.8064C79.9996 29.9655 85.2461 33.6869 87.1982 38.6893C87.7778 40.1229 87.8388 40.8549 87.7473 43.8747C87.6558 47.1385 87.5643 47.5655 86.6797 49.3957C85.0326 52.7204 81.5248 55.6487 77.3154 57.1738L75.4853 57.8449L77.8645 57.9669C81.5858 58.1499 81.4028 57.6008 81.4028 68.6428V77.7935L80.4877 78.7086C79.6031 79.5932 79.4811 79.6237 77.3154 79.5017C73.5636 79.3186 73.7771 79.9897 73.7771 68.5513V58.8514L74.6312 58.3634L75.4548 57.8754L74.6007 58.0584C74.1432 58.1499 73.1671 58.3024 72.4045 58.4244L71.0624 58.6074L70.9709 72.6081L70.8794 86.6393L70.0558 87.3408C68.2562 88.8964 64.7789 88.5914 63.6808 86.7613C63.1317 85.8767 63.1012 85.0836 63.1012 72.0895V58.3329L61.2101 57.9364C56.4517 56.9908 51.2358 53.3 49.4056 49.6092L48.46 47.7485V65.1045C48.46 81.3623 48.399 82.5519 47.8805 83.6805C46.8434 85.9377 43.9456 87.9814 40.8344 88.6829C38.8212 89.1405 31.8361 89.049 29.945 88.5609ZM70.8794 52.5679C73.5941 52.0189 77.0104 50.2802 78.505 48.7551C79.1761 48.084 79.6031 47.474 79.5116 47.3825C79.4201 47.291 74.0822 47.2605 67.6461 47.291L55.9331 47.3825L57.4583 48.8466C59.2274 50.5548 62.0031 51.9884 64.7179 52.5679C67.1886 53.117 68.3172 53.117 70.8794 52.5679ZM79.2981 39.0248C78.505 37.5912 74.3567 35.151 71.5199 34.4494C66.7005 33.2598 60.539 34.907 57.3058 38.2012L55.9636 39.6043H67.7681C79.2981 39.6043 79.5726 39.6043 79.2981 39.0248ZM51.5103 34.4189C54.0725 31.7957 58.0988 29.691 62.2777 28.8064L63.1012 28.6234V25.1156V21.6078L61.6371 20.8758C55.4756 17.7645 50.6867 18.4051 48.9176 22.5839C48.5515 23.5295 48.46 25.1461 48.4905 31.4297V39.1468L49.2836 37.4997C49.7411 36.6151 50.7172 35.212 51.5103 34.4189Z" fill="white"/>
<path d="M33.3612 80.6608C32.8427 80.4472 32.2631 79.8982 32.0496 79.4406C31.5616 78.3426 31.5311 53.727 32.0191 52.6289C32.5376 51.5308 33.6662 51.0428 35.8319 51.0428C37.5096 51.0428 37.8756 51.1648 38.5466 51.8359L39.3397 52.5984L39.4617 65.684C39.5837 80.0812 39.5837 80.1117 37.7536 80.7523C36.4725 81.2098 34.4898 81.1488 33.3612 80.6608Z" fill="white"/>
<path d="M14.5716 74.1026L13.687 73.2181V62.8167C13.687 52.6898 13.687 52.4153 14.3276 51.8358C15.5172 50.7377 19.5435 50.7377 20.8856 51.8358C21.2516 52.1103 21.3126 54.0625 21.3126 62.8472V73.4926L20.5501 74.2246C19.9095 74.8957 19.5435 74.9872 17.6523 74.9872C15.6392 74.9872 15.3952 74.9262 14.5716 74.1026Z" fill="white"/>
<path d="M14.3886 49.6092L13.687 49.2737V40.4584C13.687 34.7239 13.809 31.4297 14.0225 31.0026C14.4191 30.2401 16.0967 29.5385 17.4998 29.5385C18.6894 29.5385 20.7026 30.2706 21.0686 30.8501C21.1906 31.0636 21.3126 35.3035 21.3126 40.2754C21.3126 48.9381 21.2821 49.3652 20.7331 49.6702C19.94 50.0667 15.2731 50.0362 14.3886 49.6092Z" fill="white"/>
<path d="M33.1475 47.6876C32.629 47.3825 32.202 46.803 32.0189 46.0709C31.5614 44.5153 31.5614 18.0696 32.0189 16.7885C32.4765 15.4769 34.0321 14.7753 36.1673 14.9583C37.3874 15.0803 38.0279 15.2939 38.577 15.8429L39.309 16.575L39.431 31.1552C39.5226 39.5129 39.4616 46.0709 39.309 46.4675C39.1565 46.864 38.6075 47.413 38.1194 47.6876C36.9603 48.2671 34.2456 48.2671 33.1475 47.6876Z" fill="white"/>
<path d="M16.5552 101.585C16.6162 101.463 14.0235 101.402 10.7597 101.463C5.05575 101.555 4.78123 101.524 3.59163 100.853C2.89007 100.457 2.036 99.6028 1.60896 98.9013C0.907403 97.7422 0.876902 97.3761 0.876902 92.8923C0.876902 90.0555 0.998913 88.0729 1.18193 87.9509C1.54796 87.7068 1.57846 85.3581 1.21243 85.3581C0.602381 85.3581 0.419365 81.4538 0.663386 73.4622C0.785396 68.8563 0.876902 64.9519 0.876902 64.7689C0.876902 64.6164 0.815897 56.7773 0.72439 47.3825C0.632882 37.9877 0.510874 28.6539 0.449869 26.6408C0.358361 24.0175 0.449869 22.4619 0.754894 21.1808C1.02942 20.1742 1.15142 19.1066 1.09042 18.8016C0.998912 18.4966 1.05992 17.368 1.18193 16.3309C1.33444 15.2633 1.33444 14.3177 1.18193 14.1652C1.05992 14.0432 0.998912 11.908 1.09042 9.43733C1.27343 4.43491 1.45645 3.82486 3.43911 2.45224C4.59821 1.65918 4.78123 1.62868 8.77706 1.59817C11.1563 1.59817 13.1999 1.44566 13.566 1.23214C13.993 1.01862 15.4266 0.988124 18.1413 1.14064C21.7711 1.35415 32.8741 1.59817 41.5978 1.62868C45.7766 1.65918 46.0512 1.68968 45.4106 2.08621C45.0141 2.33023 45.0141 2.39124 45.4716 2.39124C45.7461 2.39124 46.0207 2.23873 46.0817 2.02521C46.2037 1.65918 50.5655 1.41516 56.056 1.44566C58.2522 1.44566 59.0147 1.35415 59.3808 0.957622C59.7163 0.652596 59.8993 0.591591 59.9908 0.835611C60.0518 1.04913 61.3634 1.17114 64.0477 1.17114C66.2133 1.17114 67.9825 1.29315 67.9825 1.41516C67.9825 1.56767 67.6165 1.81169 67.1589 1.99471C66.3354 2.29973 66.3659 2.33024 67.6775 2.33024C68.44 2.33024 69.3856 2.23873 69.8126 2.11672L70.5752 1.9032L69.8126 1.68968C68.318 1.29315 69.5991 1.04913 72.6494 1.17114C77.3468 1.35415 78.5059 1.32365 82.1662 0.896615C84.5149 0.622092 87.1686 0.561088 91.0119 0.7136C95.8923 0.896616 96.6549 1.01863 97.875 1.62868C100.254 2.84878 100.925 3.79436 101.139 6.32607C101.291 8.15622 101.261 8.49175 100.834 8.49175C100.59 8.49175 100.285 8.24773 100.224 7.97321C100.163 7.66818 100.102 10.2304 100.102 13.6772C100.132 20.1437 100.163 20.6928 100.712 20.6928C100.925 20.6928 100.956 19.6862 100.834 17.6425C100.742 15.9344 100.773 14.5923 100.925 14.5923C101.322 14.5923 101.596 17.551 101.413 20.0827C101.322 21.3333 101.169 23.5905 101.047 25.1156C100.864 27.6778 100.834 27.7999 100.468 26.9458C100.071 26.0917 100.071 26.1527 100.01 28.3184C99.8881 33.9614 99.9797 38.0487 100.254 39.4213C100.437 40.2754 100.498 41.4345 100.407 42.014C100.285 43.0511 100.285 43.0816 100.742 42.5326C101.169 42.014 101.23 41.9835 101.23 42.4411C101.23 42.7156 100.956 43.2341 100.62 43.5697C100.224 43.9662 100.01 44.5762 100.01 45.1863C100.041 45.7353 99.9797 57.6313 99.8576 71.632C99.7356 85.6327 99.6746 97.3456 99.6746 97.6202C99.6746 97.9252 99.5221 98.2607 99.3391 98.3827C99.0951 98.5047 99.1866 98.6572 99.5526 98.7793C100.041 98.9623 100.01 99.0538 99.2171 99.8163C97.4174 101.494 98.1495 101.463 79.482 101.402C69.9347 101.402 62.0955 101.402 62.0345 101.463C61.882 101.616 50.3825 101.524 45.7156 101.341C43.4584 101.25 40.8352 101.189 39.9202 101.189C39.0051 101.219 34.9482 101.219 30.9219 101.219C26.9261 101.219 23.5708 101.341 23.4488 101.494C23.3573 101.616 21.9847 101.646 20.3985 101.524C18.8124 101.402 17.4703 101.433 17.4093 101.555C17.3483 101.707 17.1043 101.83 16.8602 101.83C16.5857 101.83 16.4637 101.738 16.5552 101.585ZM59.0757 90.086L59.7468 89.293V74.7128C59.7468 60.6206 59.7163 60.1325 59.1368 59.5835C58.2827 58.8209 56.117 58.6379 54.9274 59.248L53.9513 59.7665L53.8903 73.5536C53.8598 89.0794 53.8598 88.9269 54.3174 89.842C55.0494 91.3366 57.8556 91.4586 59.0757 90.086ZM39.9202 87.7678C43.0924 87.0358 45.9597 84.9921 46.9662 82.7349C47.5153 81.5148 47.5458 80.1422 47.5458 52.1104C47.5763 20.3877 47.4848 21.6383 49.1624 19.8082C51.5416 17.2155 57.2761 17.307 62.553 19.9607L64.0172 20.6928V25.1156V29.5385L63.1936 29.7215C60.9364 30.1791 57.2761 31.6432 55.69 32.6803C49.4674 36.6761 47.4238 42.8071 50.291 48.6331C52.1212 52.3544 57.3371 56.0757 62.126 57.0213L64.0172 57.4178V71.083C64.0172 86.2122 64.0172 86.2122 65.9083 87.0358C67.0369 87.4933 68.4095 87.1883 69.3551 86.2732C69.9347 85.6632 69.9652 85.2666 70.0262 71.7235L70.1177 57.7838L72.6189 57.2653C77.4688 56.2892 80.8851 54.4896 83.6303 51.5308C85.796 49.2126 86.7111 47.047 86.8331 43.8747C86.9551 40.8549 86.3755 38.9638 84.5149 36.4626C82.1967 33.2903 76.7367 30.2706 72.2528 29.6605C71.4598 29.569 70.6667 29.386 70.4837 29.264C70.3007 29.1725 70.1482 28.1964 70.1177 27.0983C70.0262 24.2921 70.0567 24.048 70.5447 24.048C70.7887 24.048 72.9544 25.0241 75.3946 26.2137C79.726 28.3489 79.787 28.3794 80.8546 27.9219C82.3187 27.3118 82.8677 26.0002 82.1967 24.5971C81.7696 23.682 80.8851 23.194 73.5644 19.6252C64.0477 14.9888 63.4986 14.7448 59.9298 13.7992C56.239 12.8231 52.2432 12.7926 49.1014 13.7382C47.1798 14.3177 46.5697 14.6533 45.1056 16.0869C42.1468 18.9846 42.3604 16.5139 42.3604 49.8837C42.3604 81.3928 42.4214 80.1422 40.7437 81.9418C38.7306 84.1075 34.5517 84.6871 31.959 83.1619C31.1964 82.7044 30.1593 81.7588 29.6713 81.0573L28.7867 79.7762L28.6342 51.5613L28.4817 23.377L27.6276 22.6449C27.1701 22.2484 26.56 21.9129 26.316 21.9129C25.3094 21.9129 24.0893 22.8279 23.8148 23.804C23.6318 24.4141 23.5403 35.8525 23.5708 53.483L23.6318 82.1859L24.3029 83.284C25.584 85.3276 27.8106 86.8223 30.8609 87.6458C32.7216 88.1339 37.968 88.2254 39.9202 87.7678ZM36.8394 79.8372C38.6695 79.1966 38.6695 79.1051 38.517 65.6535L38.3645 53.483L37.663 52.7509C36.9309 52.0494 35.4973 51.8358 34.1552 52.2629C32.6605 52.7204 32.5995 53.361 32.5995 65.9585C32.5995 78.7391 32.63 79.0441 34.2772 79.7457C35.4058 80.2337 35.6193 80.2642 36.8394 79.8372ZM79.604 77.763L80.4885 76.8784V68.6428C80.4885 61.2001 80.4275 60.3461 79.9395 59.736C79.2074 58.8209 76.9807 58.5769 75.6996 59.248C74.7846 59.7055 74.7235 59.858 74.51 62.0847C74.1745 65.806 74.5405 77.0309 75.0286 77.6105C76.1267 78.9221 78.3534 78.9831 79.604 77.763ZM19.636 73.3096L20.3985 72.5776V62.8168V53.0254L19.7275 52.5984C18.4464 51.8054 16.2197 51.8664 15.2741 52.7204C14.603 53.361 14.603 53.483 14.603 62.8168V72.3031L15.4876 73.1876C16.6772 74.3772 18.5379 74.4382 19.636 73.3096ZM19.819 48.7551C20.368 48.4501 20.3985 48.023 20.3985 40.2754C20.3985 35.7915 20.2765 31.9787 20.1545 31.7652C20.0325 31.5517 19.3919 31.1856 18.7514 30.9111C17.8363 30.5146 17.4093 30.4841 16.5552 30.7586C14.6335 31.3992 14.603 31.5517 14.603 40.3974C14.603 48.3586 14.603 48.3586 15.3046 48.6941C16.1892 49.1211 19.0564 49.1516 19.819 48.7551ZM37.2054 46.7724C37.6935 46.4979 38.2425 45.9489 38.395 45.5523C38.5475 45.1558 38.6085 39.0248 38.517 31.1551C38.334 17.9475 38.334 17.4595 37.724 16.8189C36.3514 15.3243 33.5756 15.8429 32.9351 17.7035C32.4775 18.9541 32.4775 43.6002 32.9351 45.1558C33.4231 47.0164 35.3448 47.718 37.2054 46.7724ZM82.3187 2.14722C82.3187 2.02521 82.0747 1.9032 81.7696 1.8727C81.4951 1.8422 81.0681 1.78119 80.8241 1.72018C80.6105 1.65918 80.336 1.81169 80.275 2.02521C80.1835 2.26923 80.4885 2.39124 81.2206 2.39124C81.8306 2.39124 82.3187 2.26923 82.3187 2.14722Z" fill="#D01F27"/>
<path d="M63.8633 53.5135C60.2335 52.69 57.0308 50.7683 55.3226 48.4806C54.8956 47.9011 54.5601 47.169 54.5601 46.864C54.5601 46.3455 55.2311 46.3149 67.9812 46.3149C82.3784 46.3149 81.9513 46.2539 80.8837 47.8401C79.3281 50.2193 76.4304 52.2019 73.1666 53.178C70.8179 53.8491 66.1205 54.0321 63.8633 53.5135Z" fill="#D01F27"/>
<path d="M54.2554 40.2754C54.2554 39.2688 57.4276 36.0661 59.4713 35.029C63.0401 33.1988 68.3475 32.5583 72.2519 33.5039C75.5461 34.2664 79.2675 36.5541 80.4571 38.5063C81.7992 40.6415 82.5922 40.5195 67.6765 40.5195C60.2949 40.5195 54.2554 40.4279 54.2554 40.2754Z" fill="#D01F27"/>
<path d="M100.924 33.7784C100.924 33.4429 100.802 33.2598 100.619 33.3513C100.162 33.6564 100.253 32.4668 100.772 31.7957C101.168 31.2772 101.199 31.3382 101.229 32.8328C101.229 33.6869 101.168 34.4189 101.077 34.4189C100.985 34.4189 100.924 34.1444 100.924 33.7784Z" fill="#D01F27"/>
<path d="M100.62 11.0845C100.62 10.5049 100.772 10.0169 100.925 10.0169C101.108 10.0169 101.23 10.5049 101.23 11.0845C101.23 11.664 101.108 12.1521 100.925 12.1521C100.772 12.1521 100.62 11.664 100.62 11.0845Z" fill="#D01F27"/>
<path d="M392.834 98.9318C392.834 98.5353 391.675 98.4743 384.294 98.4743C379.596 98.4743 375.753 98.3523 375.753 98.2303C375.753 98.0778 376.668 97.8337 377.797 97.6812C379.779 97.4067 379.871 97.3762 380.054 96.4916C380.389 94.936 380.359 80.7218 379.993 79.5017C379.749 78.6171 379.535 78.3426 379.017 78.3426C378.01 78.3426 376.973 78.0071 376.973 77.7021C376.973 77.5496 379.322 77.4276 382.158 77.4276C387.313 77.4276 388.961 77.7936 385.666 78.1901C384.446 78.3426 383.897 78.5866 383.653 78.9832C383.287 79.6847 383.409 96.7662 383.775 97.1627C383.928 97.2847 385.666 97.4067 387.649 97.4067C391.858 97.4067 392.438 97.1627 393.81 94.631C394.268 93.8074 394.665 93.3499 394.665 93.5939C394.665 94.1124 394.146 97.6507 393.902 98.7183C393.719 99.4504 392.834 99.6639 392.834 98.9318Z" fill="white"/>
<path d="M118.22 98.7793C112.364 97.2847 108.917 91.0317 110.503 84.7481C111.967 79.0442 116.878 76.1464 123.528 77.092C125.419 77.3665 126.364 77.3665 126.791 77.153C127.34 76.848 127.432 76.97 127.737 78.2816C128.225 80.4473 128.713 83.8941 128.561 84.0466C128.469 84.1381 128.073 83.528 127.676 82.674C125.754 78.6781 124.595 77.8851 120.874 77.8851C118.007 77.8851 116.146 78.9526 114.804 81.3928C113.95 82.979 113.889 83.2535 113.889 86.5783C113.889 89.72 113.98 90.2691 114.682 91.7637C116.36 95.3325 119.166 97.3152 122.491 97.3152C124.717 97.3152 125.602 96.9491 127.249 95.4545C128.195 94.5699 128.683 94.3259 128.988 94.5089C129.659 94.936 127.157 97.3457 125.236 98.1692C123.497 98.9318 119.989 99.2063 118.22 98.7793Z" fill="white"/>
<path d="M154.61 98.1692C154.61 98.0167 154.854 97.8642 155.159 97.8642C155.433 97.8642 156.196 97.7117 156.837 97.5287C157.904 97.2541 158.118 97.0101 158.941 95.18C159.46 94.0819 160.893 90.1471 162.144 86.4257C164.218 80.2642 164.371 79.6237 164.066 78.7086C163.639 77.4885 163.822 77.275 165.438 77.031L166.658 76.8174L169.831 86.3647C173.125 96.2171 173.765 97.5592 175.291 97.5592C176.114 97.5592 176.877 97.8642 176.877 98.1997C176.877 98.3522 174.559 98.4742 171.691 98.4742C166.475 98.4742 165.042 98.1387 168.122 97.6507C170.105 97.3457 170.197 96.9491 169.099 93.5938L168.275 91.1536H164.981H161.686L160.893 93.5328C160.466 94.8139 160.1 96.1866 160.1 96.5831C160.1 97.3457 161.076 97.8642 162.571 97.8642C163.059 97.8642 163.456 98.0167 163.456 98.1692C163.456 98.3522 161.778 98.4742 159.033 98.4742C156.288 98.4742 154.61 98.3522 154.61 98.1692ZM167.726 89.8725C167.726 89.293 165.164 81.6979 164.981 81.6979C164.798 81.6979 162.235 89.293 162.235 89.8725C162.235 90.1165 163.029 90.2386 164.981 90.2386C166.933 90.2386 167.726 90.1165 167.726 89.8725Z" fill="white"/>
<path d="M201.889 98.1997C201.889 98.0472 202.712 97.8337 203.719 97.7117C204.756 97.5897 205.701 97.3152 205.915 97.0406C206.22 96.6746 206.312 94.6004 206.312 88.2864C206.312 83.7415 206.22 79.6542 206.098 79.2272C205.885 78.4951 205.671 78.4036 204.024 78.2206C203.017 78.0986 202.194 77.8545 202.194 77.702C202.194 77.4885 204.39 77.397 208.843 77.4885C215.249 77.58 215.523 77.6105 217.17 78.3731C222.081 80.6913 221.593 87.3103 216.408 88.7745C215.737 88.9575 213.846 89.1405 212.26 89.1405L209.362 89.171L209.423 92.9228C209.484 97.0101 209.697 97.5592 211.039 97.5592C212.382 97.5592 213.785 97.9252 213.602 98.1997C213.388 98.5658 201.889 98.5658 201.889 98.1997ZM214.669 87.4934C215.493 87.0968 216.042 86.4868 216.499 85.5717C217.597 83.3145 217.262 81.5454 215.401 79.8067C214.273 78.7391 213.175 78.3426 211.222 78.3426H209.606L209.392 81.1488C209.087 85.5412 209.148 88.0424 209.606 88.2254C210.307 88.5609 213.51 88.1034 214.669 87.4934Z" fill="white"/>
<path d="M247.337 98.1998C247.337 97.8948 248.801 97.5592 250.113 97.5592C250.662 97.5592 251.089 97.3457 251.302 96.9797C251.699 96.1866 251.73 79.7457 251.302 78.9527C251.089 78.5561 250.479 78.3426 249.167 78.1901C245.538 77.7631 247.429 77.4276 253.438 77.4276C259.599 77.4276 261.521 77.7936 257.403 78.2206L255.268 78.4341L254.963 79.5322C254.627 80.7218 254.597 94.9665 254.932 96.4916C255.115 97.3762 255.207 97.4067 257.342 97.6507C261.338 98.1388 259.691 98.4743 253.438 98.4743C250.082 98.4743 247.337 98.3523 247.337 98.1998Z" fill="white"/>
<path d="M288.516 98.1692C288.516 98.0167 289.339 97.8032 290.376 97.6812C291.963 97.4982 292.268 97.3761 292.512 96.7356C292.817 95.912 292.878 80.1422 292.573 79.0136C292.39 78.3121 292.298 78.2816 289.858 78.4036C286.991 78.4951 286.198 78.9831 285.16 81.2403C284.459 82.7654 284.398 82.0639 284.916 78.9221C285.221 76.9089 285.313 76.7869 285.893 77.031C286.777 77.336 303.431 77.336 304.347 77.0004C305.018 76.7564 305.079 76.7869 304.896 77.458C304.774 77.8545 304.591 79.1966 304.469 80.4472L304.286 82.7044L303.614 81.2098C302.547 78.8306 301.998 78.5256 298.887 78.4036L296.233 78.2816L296.019 79.7152C295.775 81.6063 295.775 95.058 296.019 96.3391C296.263 97.4371 296.263 97.4371 298.673 97.7117C299.619 97.8337 300.412 98.0472 300.412 98.1997C300.412 98.3522 297.911 98.4742 294.464 98.4742C290.895 98.4742 288.516 98.3522 288.516 98.1692Z" fill="white"/>
<path d="M328.474 98.1997C328.474 98.0472 329.115 97.8337 329.877 97.7117C332.287 97.3457 332.256 97.4067 336.008 86.4257C337.96 80.6303 338.235 79.5932 337.991 78.7391C337.625 77.58 337.869 77.3055 339.486 77.0005L340.584 76.8174L343.725 86.1817C345.434 91.3672 347.111 95.9425 347.447 96.4001C347.782 96.8881 348.392 97.3457 348.85 97.4372C350.436 97.7727 350.741 97.8947 350.741 98.1997C350.741 98.3522 348.606 98.4742 345.708 98.4742C340.797 98.4742 339.15 98.1387 342.048 97.7117C342.78 97.5897 343.542 97.3457 343.695 97.1321C343.908 96.8881 343.725 95.8815 343.146 94.0514L342.292 91.3062L338.937 91.2146L335.612 91.1231L334.758 93.5633C333.599 96.8881 333.69 97.3457 335.734 97.6812C336.588 97.8337 337.32 98.0777 337.32 98.2302C337.32 98.3522 335.337 98.4742 332.897 98.4742C330.457 98.4742 328.474 98.3522 328.474 98.1997ZM341.621 90.0861C341.804 89.9335 339.059 81.6979 338.845 81.6979C338.723 81.6979 336.496 88.4389 336.161 89.842C336.069 90.1471 336.649 90.2386 338.784 90.2386C340.279 90.2386 341.56 90.1776 341.621 90.0861Z" fill="white"/>
<path d="M130.269 63.2431C123.833 61.8399 117.366 56.563 113.614 49.6694C110.747 44.3925 109.466 36.2178 110.412 29.3242C111.479 21.4546 114.316 15.2626 119.074 10.4737C122.155 7.36241 124.87 5.59326 128.561 4.31216C130.665 3.5801 131.428 3.48859 134.631 3.48859C137.742 3.48859 138.657 3.6106 140.64 4.28165C151.59 7.91145 159.155 19.0754 159.704 32.466C160.009 39.2071 158.85 44.3315 155.799 49.8219C150.187 60.0098 140.03 65.3477 130.269 63.2431ZM138.413 60.8029C145.856 58.1796 151.56 45.7651 151.56 32.1305C151.56 23.1322 149.18 15.8421 144.635 10.9312C142.195 8.30799 140.64 7.2099 138.199 6.38633C133.35 4.73919 128.408 6.38633 125.114 10.7787C122.491 14.2865 120.355 19.6549 119.349 25.4199C118.617 29.5988 118.586 38.6275 119.318 42.6538C120.965 51.6216 124.473 57.6916 129.506 60.3148C131.916 61.5654 135.698 61.7789 138.413 60.8029Z" fill="white"/>
<path d="M207.47 63.2743C203.749 62.1152 200.211 58.5159 198.167 53.788C197.71 52.7814 196.795 50.0362 196.093 47.6875C192.677 36.0661 192.097 34.6629 190.145 32.9548C189.077 31.9787 186.942 31.3687 184.777 31.3687H183.526L183.678 44.1187C183.739 51.1038 183.922 57.3263 184.105 57.9059C184.441 59.248 185.417 59.7665 187.979 59.9495C191.609 60.1936 191.823 60.2851 191.823 61.2612V62.1762H179.774H167.726V61.2917C167.726 60.2851 167.878 60.2241 172.545 59.919C173.796 59.8275 175.107 59.553 175.504 59.309C176.907 58.3939 177.029 56.2892 177.029 33.5038C177.029 9.52884 176.937 8.43075 175.168 7.69869C174.589 7.45467 172.911 7.18015 171.386 7.05814L168.641 6.87512V5.83804V4.77045L180.781 4.92296C193.805 5.04497 195.056 5.19748 198.167 6.78361C200.119 7.7902 202.315 10.1084 203.231 12.1826C205.488 17.0935 204.634 24.3836 201.431 27.9524C199.875 29.6605 198.259 30.5451 195.544 31.0941C194.507 31.3077 193.653 31.5822 193.653 31.6737C193.653 31.7957 194.202 32.0397 194.903 32.2532C197.893 33.1683 200.333 37.1031 203.627 46.3454C204.878 49.8837 206.311 53.4525 206.83 54.2761C207.806 55.8927 209.636 57.6008 211.161 58.3329C213.449 59.431 214.821 59.065 217.17 56.7773L218.573 55.4352L219.061 56.1672C219.519 56.8993 219.519 56.9603 218.451 58.2414C216.255 60.8951 214.211 62.8473 213.266 63.2743C212.046 63.7929 209.179 63.7929 207.47 63.2743ZM190.48 28.2879C192.646 27.6168 195.147 25.6037 196.093 23.7735C196.917 22.1264 197.405 19.1371 197.191 17.246C196.52 11.9385 191.762 7.54618 186.546 7.48517C185.326 7.45467 184.166 7.54618 183.983 7.66819C183.678 7.8512 183.587 10.3829 183.587 18.6186V29.325L186.088 29.081C187.461 28.9895 189.413 28.6234 190.48 28.2879Z" fill="white"/>
<path d="M276.315 63.2133C265.913 60.9866 259.264 52.6899 257.19 39.4518C256.61 35.517 256.824 28.6844 257.678 24.9631C261.125 9.92537 272.197 1.29316 284.917 3.73336C286.137 3.97738 288.668 4.64844 290.529 5.25849C294.281 6.47859 294.982 6.57009 295.531 5.89904C295.867 5.472 297.057 5.22798 297.057 5.59401C297.057 6.02105 298.582 21.9739 298.765 23.2245C298.887 24.3226 298.856 24.6581 298.521 24.6581C298.277 24.6581 297.514 23.0415 296.599 20.6013C293.793 13.0976 291.78 10.0169 288.363 8.00371C284.307 5.65502 278.755 5.28899 274.942 7.11914C270.672 9.19331 267.591 13.9822 265.883 21.2723C265.12 24.6581 264.754 35.517 265.303 39.7264C266.615 49.6092 270.794 57.1433 276.498 59.797C281.409 62.0847 288.18 60.9256 289.888 57.4483C290.651 55.8622 290.987 47.718 290.285 46.8639C290.041 46.5284 288.272 45.9794 285.161 45.3083C280.707 44.3322 280.463 44.2407 280.463 43.5392V42.8071L285.161 42.8986C287.753 42.9291 293.213 43.0511 297.301 43.1426L304.682 43.3562V44.1797C304.682 44.9728 304.591 45.0033 301.449 45.6438C299.649 45.9794 298.002 46.4674 297.758 46.7114C297.118 47.352 296.904 50.7073 297.362 53.2085L297.728 55.3131L295.104 57.7839C292.085 60.6511 289.37 62.2067 285.893 63.0913C283.117 63.7929 279.243 63.8539 276.315 63.2133Z" fill="white"/>
<path d="M381.427 61.9932C380.939 61.0782 377.248 55.5572 373.252 49.7312C369.226 43.9052 363.308 35.334 360.106 30.6671L354.249 22.1874L354.066 26.0918C353.731 32.6498 353.792 54.2761 354.127 55.7707C354.859 58.9735 355.591 59.6445 358.794 59.9191C361.875 60.1936 362.027 60.2546 362.027 61.2612V62.1763H351.046H340.066V61.2612C340.066 60.5291 340.188 60.3461 340.767 60.3461C346.746 60.2851 349.064 59.248 350.009 56.2283C350.589 54.4591 350.955 44.9423 351.107 28.471C351.199 16.5445 351.534 18.1001 347.752 12.6706C344.61 8.18676 343.512 7.4852 338.906 7.02766C336.893 6.81415 336.863 6.81415 336.863 5.89907V4.98399L344.092 4.89249L351.321 4.83148L352.724 6.87515C353.487 8.03425 356.415 12.3046 359.191 16.4224C365.566 25.8477 371.971 35.1205 377.096 42.3191L381.091 47.9316L381.336 38.0487C381.793 19.8387 381.305 9.58988 379.993 8.33927C379.261 7.69872 377.523 7.24118 374.93 7.05817L372.398 6.87515V5.86857V4.83148H383.715H395.001L394.909 5.83807L394.818 6.81415L391.462 7.18018C386.277 7.72922 386.124 7.79023 385.667 8.88832C385.453 9.43737 385.118 10.9625 384.904 12.3046C384.477 15.5074 384.02 34.602 383.989 50.8293V63.7014H383.166C382.434 63.7014 382.159 63.4269 381.427 61.9932Z" fill="white"/>
<path d="M223.85 61.2612C223.85 60.2546 224.094 60.1631 228.303 59.9496C230.957 59.7971 231.933 59.4615 232.208 58.577C232.818 56.6858 232.97 51.3174 232.97 33.5039C232.97 15.7819 232.818 10.3219 232.238 8.46128C231.994 7.66822 230.469 7.27169 226.992 7.05817L223.85 6.87515V5.83807V4.83148H236.661H249.472V5.83807V6.87515L245.629 7.08867C241.45 7.30219 240.749 7.5157 240.291 8.7053C239.681 10.3524 239.406 17.429 239.406 33.6564C239.406 50.0973 239.681 57.3264 240.321 58.516C240.871 59.5225 241.755 59.7666 245.598 60.0716C247.642 60.1936 249.35 60.3461 249.411 60.3461C249.442 60.3461 249.472 60.7731 249.472 61.2612V62.1763H236.661H223.85V61.2612Z" fill="white"/>
<path d="M307.732 61.2917C307.732 60.2851 307.793 60.2546 312.552 59.8886C313.802 59.7971 315.053 59.5835 315.358 59.431C316.609 58.76 316.822 55.2522 316.853 33.9004C316.883 14.8973 316.67 9.65088 315.816 8.30877C315.328 7.54621 314.351 7.30219 310.569 7.05817L307.732 6.87515V5.83807V4.83148H320.543H333.355V5.83807V6.87515L329.511 7.08867C325.515 7.30219 324.722 7.4852 324.204 8.49179C323.441 9.92541 323.258 15.9954 323.38 35.8221C323.502 59.4615 323.472 59.0345 325.729 59.6446C326.491 59.8276 328.078 60.0106 329.267 60.0106C332.714 60.0411 333.355 60.2546 333.355 61.2917V62.1763H320.543H307.732V61.2917Z" fill="white"/>
<path d="M16.5242 101.616C16.6462 101.433 14.389 101.372 10.8507 101.433C5.17723 101.555 4.96372 101.555 3.65211 100.853C2.70653 100.335 2.06597 99.6943 1.57793 98.7793C0.937381 97.5897 0.876374 97.1016 0.937379 93.9293L0.998383 90.3911L1.1814 93.8988C1.42542 98.6572 1.60844 99.0233 4.62819 100.365C5.08573 100.579 5.45176 100.853 5.45176 100.975C5.45176 101.372 8.441 101.25 8.56301 100.884C8.74603 100.365 18.9644 100.121 20.642 100.579C22.4417 101.097 22.2282 101.494 20.1845 101.463C19.2084 101.433 17.9578 101.524 17.3783 101.646C16.7682 101.799 16.4327 101.768 16.5242 101.616Z" fill="#BF2530"/>
<path d="M22.6555 101.494C22.5639 101.311 22.6555 100.976 22.869 100.762C23.2045 100.457 25.4007 100.335 32.5993 100.304C42.8481 100.213 48.8571 100.487 48.6741 101.037C48.6131 101.25 47.6675 101.342 46.1424 101.342C44.8308 101.311 41.9636 101.311 39.7674 101.311C37.6017 101.342 33.0263 101.342 29.6405 101.311C25.9192 101.281 23.4485 101.372 23.4485 101.555C23.4485 101.952 22.93 101.891 22.6555 101.494Z" fill="#BF2530"/>
<path d="M55.8112 101.525C51.0833 101.403 49.8633 101.281 49.7412 100.945C49.6192 100.579 50.0158 100.548 51.9984 100.731C58.1904 101.281 59.441 101.311 59.441 100.945C59.441 100.518 60.5696 100.487 60.8442 100.945C60.9662 101.189 61.1187 101.158 61.3017 100.884C61.4847 100.548 64.0164 100.457 73.8382 100.396C85.3987 100.335 86.1308 100.365 86.6188 100.884C87.1373 101.433 86.8323 101.464 76.37 101.464C70.4525 101.464 65.45 101.555 65.267 101.647C65.084 101.769 64.3825 101.708 63.6809 101.525C63.0098 101.342 62.2778 101.281 62.0948 101.433C61.8812 101.555 59.075 101.616 55.8112 101.525Z" fill="#BF2530"/>
<path d="M89.7306 101.586C88.5105 101.525 87.5039 101.372 87.5039 101.22C87.5039 100.823 88.48 100.701 89.3341 100.976C89.8221 101.159 90.1271 101.159 90.1881 100.945C90.2491 100.762 90.7372 100.609 91.2557 100.609C91.8048 100.609 92.6588 100.487 93.1469 100.365C93.6654 100.213 94.489 100.213 94.977 100.304C95.8311 100.487 97.4782 99.9689 97.8748 99.3894C98.0578 99.1149 100.01 98.6573 100.01 98.9013C100.01 99.2369 98.4238 100.609 97.5087 101.098C96.8072 101.464 96.1666 101.525 95.0075 101.372C94.123 101.281 93.0859 101.311 92.6588 101.433C92.2623 101.555 90.9202 101.647 89.7306 101.586Z" fill="#BF2530"/>
<path d="M98.1797 98.0472C98.1797 97.8336 98.3322 97.2541 98.4847 96.766C98.6677 96.217 98.8202 89.5065 98.8812 79.6236C98.9422 65.562 99.0033 63.3353 99.3998 63.0912C99.7048 62.8777 99.7353 62.7862 99.4913 62.7862C99.2778 62.7862 99.0948 62.4507 99.0948 62.0237C99.0948 61.5966 99.2778 61.2611 99.4913 61.2611C99.7353 61.2611 99.7048 61.1391 99.3998 60.9256C99.0338 60.6815 99.0338 60.5595 99.3388 60.4375C99.6438 60.3155 99.6133 60.1935 99.1863 59.8885C98.6677 59.4919 98.6677 59.4614 99.1863 59.2784C99.8268 59.0039 99.8878 58.5159 99.2473 58.5159C98.8812 58.5159 98.7897 58.0888 98.7897 56.3807C98.7897 54.6725 98.8812 54.2455 99.2473 54.2455C99.4913 54.2455 99.7048 53.971 99.7048 53.6355C99.7048 53.2999 99.5218 53.0254 99.2778 53.0254C98.6372 53.0254 98.7287 50.3412 99.3693 50.1887C99.7658 50.0667 99.7658 50.0362 99.3388 50.0057C98.8812 49.9752 98.7897 49.7006 98.7897 48.45C98.7897 47.2909 98.9117 46.9249 99.2473 46.9249C99.7353 46.9249 99.8878 46.4369 99.4303 46.2538C99.2778 46.2233 99.0643 45.5218 98.9423 44.7287C98.7592 43.5086 98.7897 43.2646 99.2168 43.2646C99.5218 43.2646 99.6133 43.0816 99.5218 42.8071C99.3083 42.258 99.8573 42.197 100.193 42.7156C100.345 42.9291 100.528 42.8681 100.833 42.502C101.047 42.1665 101.23 42.075 101.23 42.258C101.23 42.441 101.321 42.8681 101.413 43.1731C101.535 43.5696 101.504 43.6001 101.291 43.3256C101.077 42.9901 100.986 42.9901 100.803 43.4171C100.711 43.6916 100.498 43.8136 100.315 43.7221C100.101 43.6001 100.01 52.3849 100.01 70.2288C100.01 86.8222 99.8878 97.1931 99.7048 97.6811C99.3998 98.5047 98.1797 98.8097 98.1797 98.0472Z" fill="#BF2530"/>
<path d="M54.164 91.1231C53.8895 90.9401 53.7065 90.6961 53.798 90.5741C53.859 90.4215 53.676 90.2385 53.371 90.147C52.8829 90.025 52.7914 89.659 52.7609 87.3408C52.7304 85.0226 52.7609 84.7176 53.2185 84.8091C53.6455 84.8701 53.7675 85.3276 53.859 87.0358C54.0115 89.659 54.3776 90.4215 55.6892 90.8791C57.0313 91.3061 58.3734 90.9706 59.1359 90.025C59.7155 89.2624 59.746 88.8049 59.746 74.6822C59.746 60.6206 59.7155 60.1325 59.1359 59.5835C58.2819 58.8209 56.1162 58.6379 54.9266 59.2479C54.3776 59.5225 53.9505 59.8885 53.9505 60.041C53.9505 60.224 53.676 60.346 53.3405 60.346C52.4559 60.346 52.6084 59.5835 53.676 58.6989C54.6826 57.8448 55.7502 57.6923 56.3297 58.2719C56.6042 58.5464 56.6957 58.5464 56.6957 58.2719C56.6957 57.8753 58.0378 57.8143 58.9224 58.1498C60.173 58.6684 60.2035 59.1869 60.051 74.9262L59.8985 89.9945L59.0444 90.7266C58.3429 91.3061 57.8548 91.4586 56.4517 91.4586C55.5061 91.4586 54.4691 91.3061 54.164 91.1231Z" fill="#BF2530"/>
<path d="M1.02831 88.7134C1.08931 87.7679 1.48584 87.5848 1.48584 88.4999C1.48584 88.9575 1.36383 89.3235 1.24182 89.3235C1.08931 89.3235 0.997803 89.049 1.02831 88.7134Z" fill="#BF2530"/>
<path d="M29.4874 87.9204C27.7488 87.3104 26.4982 86.6088 26.4982 86.2733C26.4982 86.0903 26.3152 85.9683 26.0712 85.9683C25.5526 85.9683 22.8379 82.9485 22.8379 82.3995C22.8379 81.7284 23.631 81.9724 23.997 82.735C25.2171 85.4192 28.6029 87.4324 33.0562 88.0729L34.8864 88.3475H32.7512C31.5921 88.3475 30.0975 88.1645 29.4874 87.9204Z" fill="#BF2530"/>
<path d="M35.6798 88.2864C35.7408 88.2254 36.8388 88.1034 38.0895 88.0119C39.4316 87.9204 40.1331 87.9509 39.7671 88.1034C39.1875 88.3474 35.4052 88.5304 35.6798 88.2864Z" fill="#BF2530"/>
<path d="M41.4444 87.3714C43.183 86.7308 44.8912 85.6327 45.9893 84.4736C46.5383 83.8636 46.8738 83.589 46.7518 83.8636C46.2333 84.8397 43.8236 87.2189 43.4881 87.0968C43.2745 87.0358 42.695 87.1578 42.1459 87.4019C41.5969 87.6154 40.9868 87.7984 40.7733 87.7679C40.5598 87.7679 40.8648 87.5849 41.4444 87.3714Z" fill="#BF2530"/>
<path d="M64.4135 87.0968C63.8644 86.7308 63.3459 86.2428 63.2544 86.0292C63.1934 85.8157 63.1019 79.4712 63.1019 71.9371L63.0714 58.2109L62.4003 57.7839C62.0343 57.5399 61.2412 57.2653 60.6617 57.1433C60.0821 57.0213 59.4721 56.8078 59.289 56.6858C59.1365 56.5638 58.252 56.2283 57.3979 55.9537C56.5133 55.6487 55.7812 55.2827 55.7812 55.1302C55.7812 54.7031 56.1778 54.7946 58.2825 55.7402C59.3501 56.2283 61.0887 56.8078 62.1258 57.0213L63.9864 57.4179L64.0779 71.51C64.1695 84.7176 64.1999 85.6327 64.7185 86.2122C65.6336 87.2188 66.7927 87.4934 68.1653 87.0053L69.3549 86.6088L68.6228 87.2188C67.6467 88.0119 65.6946 87.9509 64.4135 87.0968Z" fill="#BF2530"/>
<path d="M1.48621 85.8462C1.48621 85.6022 1.30319 85.3582 1.12018 85.2972C0.81515 85.1752 0.723643 83.1925 0.662638 76.9395C0.632135 71.3575 0.693141 69.0393 0.906659 69.6494C1.05917 70.1679 1.15068 73.5842 1.12018 77.275C1.02867 83.1925 1.08967 84.1076 1.54721 84.9007C2.15726 85.9377 2.21827 86.2733 1.79123 86.2733C1.63872 86.2733 1.48621 86.0903 1.48621 85.8462Z" fill="#BF2530"/>
<path d="M69.8125 85.5717C69.9955 85.0531 70.1175 79.4712 70.1175 71.144V57.6008H70.8191C72.2527 57.6008 76.4011 56.3502 78.5972 55.2827C81.1595 54.032 84.4842 51.1038 85.4298 49.2432C85.7959 48.5416 86.3449 47.23 86.6499 46.3149L87.199 44.6373L87.016 46.0099C86.5889 49.0906 83.2031 53.239 79.4208 55.3132C78.1397 56.0147 76.0045 56.8078 74.0829 57.2958C71.0326 58.0584 70.8801 58.1499 70.6971 59.004C70.5751 59.492 70.4836 65.5925 70.4531 72.5776C70.4226 83.345 70.3616 85.3277 69.965 85.8462C69.538 86.3952 69.538 86.3647 69.8125 85.5717Z" fill="#BF2530"/>
<path d="M33.1477 83.6805C30.555 82.7349 29.0604 80.8438 28.7858 78.1595C28.6333 76.7259 28.6638 76.6954 28.9689 77.7325C29.1519 78.3121 29.4264 78.9526 29.6094 79.1661C29.7619 79.3797 29.8229 79.6847 29.7009 79.8677C29.5789 80.0507 29.8534 80.5387 30.2805 80.9353C30.7075 81.3318 31.0735 81.7894 31.0735 81.9114C31.0735 82.0639 31.4396 82.2164 31.8971 82.2469C32.3546 82.2774 32.8732 82.4604 33.0257 82.6129C33.2087 82.7959 33.6358 82.9179 34.0323 82.9179C34.4593 82.9179 34.7338 83.101 34.7338 83.3755C34.7338 83.6195 34.8559 83.833 35.0084 83.833C35.1609 83.833 35.3439 83.6195 35.4659 83.3755C35.5574 83.101 36.0455 82.9179 36.7165 82.9179C37.2961 82.9179 37.7841 82.7959 37.7841 82.6739C37.7841 82.5214 38.3331 82.2164 39.0042 82.0029C39.6753 81.7893 40.1633 81.5148 40.0718 81.4538C39.9803 81.3623 40.1023 81.0878 40.3158 80.8133C40.5598 80.5387 40.8954 79.7457 41.1089 79.0441C41.5054 77.58 42.3595 77.2445 42.3595 78.5256C42.3595 82.2164 37.1435 85.1446 33.1477 83.6805Z" fill="#BF2530"/>
<path d="M47.2096 82.5215C47.4231 81.9419 47.5451 74.4078 47.5756 59.7971C47.6061 47.7791 47.6976 38.4148 47.8196 38.9943C48.0331 40.1534 48.2771 40.0009 48.6127 38.4758C48.7042 37.9268 48.9787 37.3777 49.1617 37.2557C49.3752 37.1032 49.8633 36.4931 50.2903 35.8526C50.7173 35.2425 51.5714 34.358 52.212 33.9309C52.8525 33.5344 53.6151 32.9548 53.8896 32.7108C55.2622 31.5212 56.3603 30.7587 56.7569 30.7587C56.9704 30.7587 57.4279 30.5756 57.7634 30.3316C58.099 30.1181 58.465 29.9046 58.6175 29.9046C58.7395 29.9046 59.8071 29.5996 60.9967 29.2335L63.1319 28.5625L63.0404 24.7192L62.9489 20.9063L61.6373 20.2353C59.9901 19.4117 59.2276 18.6797 60.3562 19.0152C60.7832 19.1372 61.7593 19.5642 62.5828 19.9608L64.0165 20.6928V25.1157V29.5386L63.1929 29.7216C55.3537 31.3992 49.8938 36.1881 49.0702 42.1361C48.5212 45.9184 49.7108 48.8467 53.066 52.2019C55.7503 54.8557 55.7198 55.4657 53.005 52.9645C52.6695 52.6595 52.3035 52.4155 52.151 52.4155C51.7544 52.4155 49.9548 50.2498 49.2532 48.9077C48.7347 47.9621 48.7042 47.7486 49.1007 47.5045C49.4362 47.291 49.4057 47.23 48.9177 47.23C48.3992 47.23 48.3687 47.169 48.7652 46.8945C49.1007 46.6505 49.1312 46.5285 48.8262 46.4065C48.6432 46.3455 48.5212 46.1319 48.6432 45.9794C48.7347 45.8269 48.6432 45.7049 48.4907 45.7049C48.3077 45.7049 48.1246 45.4609 48.0941 45.1864C48.0331 44.8813 47.9416 53.178 47.8501 63.6099C47.7281 78.7087 47.6061 82.674 47.3011 82.979C46.9655 83.3145 46.9655 83.223 47.2096 82.5215ZM48.7652 41.1295C48.7652 41.0075 48.5517 40.8245 48.3076 40.7025C48.0026 40.5805 47.8501 40.733 47.8501 41.1295C47.8501 41.5261 48.0026 41.6786 48.3076 41.5566C48.5517 41.4345 48.7652 41.2515 48.7652 41.1295Z" fill="#BF2530"/>
<path d="M23.0822 81.1792C22.4417 81.0267 22.3502 79.8676 22.9602 79.8676C23.1737 79.8676 23.4482 80.2031 23.5093 80.6302C23.6008 81.0572 23.6618 81.3622 23.6313 81.3622C23.6313 81.3317 23.3567 81.2707 23.0822 81.1792Z" fill="#BF2530"/>
<path d="M35.0089 80.3557C34.9174 80.2642 34.3073 80.1422 33.6668 80.0812C32.6297 79.9592 32.4467 79.8372 32.4467 79.2271C32.4467 78.8306 32.2637 78.3731 32.0807 78.2511C31.5011 77.885 31.5621 76.2074 32.1417 76.2074C32.4467 76.2074 32.5992 76.5124 32.5992 77.214C32.6297 78.4951 33.3923 79.4407 34.8869 79.9897C35.5579 80.2337 35.8935 80.4472 35.6189 80.4472C35.3444 80.4778 35.0699 80.4168 35.0089 80.3557Z" fill="#BF2530"/>
<path d="M37.9981 79.1356C38.3031 78.7391 38.5777 78.434 38.6387 78.495C38.8522 78.6781 38.0591 79.8677 37.7541 79.8677C37.6016 79.8677 37.6931 79.5321 37.9981 79.1356Z" fill="#BF2530"/>
<path d="M22.5332 77.458C22.5332 76.0549 22.6552 75.2923 22.9297 75.2008C23.2348 75.0788 23.2348 75.0178 22.9297 75.0178C22.3807 74.9873 22.4417 74.3773 22.9907 74.3773C23.3568 74.3773 23.4483 74.8653 23.4483 76.97C23.4483 79.0746 23.3568 79.5627 22.9907 79.5627C22.6247 79.5627 22.5332 79.1357 22.5332 77.458Z" fill="#BF2530"/>
<path d="M76.0037 78.9527C74.9361 78.7086 74.082 78.1291 74.082 77.7021C74.082 77.2445 74.6921 77.397 75.5157 78.0376C76.0037 78.4036 76.7968 78.6476 77.5593 78.6781C78.5354 78.6781 78.6879 78.7391 78.1999 78.9527C77.4678 79.2577 77.2848 79.2577 76.0037 78.9527Z" fill="#BF2530"/>
<path d="M79.6644 77.7935L80.488 76.9395V68.5513C80.488 59.0345 80.5795 59.3395 78.0172 58.8515C77.2852 58.699 76.9192 58.5769 77.1937 58.5464C77.4682 58.5159 77.7427 58.3634 77.8037 58.1804C77.9868 57.6009 79.8474 58.1804 80.3659 58.9735C80.7625 59.553 80.793 61.0476 80.732 68.6733C80.6405 77.3055 80.61 77.7325 80.0304 78.1596C79.0238 78.9221 78.7798 78.7086 79.6644 77.7935Z" fill="#BF2530"/>
<path d="M38.7905 76.8174C38.7905 76.0548 38.8515 75.7498 38.9125 76.1463C38.9736 76.5124 38.9736 77.1224 38.9125 77.519C38.8515 77.885 38.7905 77.58 38.7905 76.8174Z" fill="#BF2530"/>
<path d="M73.7773 76.7869C73.7773 76.6039 73.9604 76.2683 74.2044 76.0548C74.5399 75.6888 74.6314 75.7498 74.6314 76.3904C74.6314 76.8174 74.4484 77.1224 74.2044 77.1224C73.9604 77.1224 73.7773 76.9699 73.7773 76.7869Z" fill="#BF2530"/>
<path d="M41.4448 75.9024C41.4448 75.4143 41.5668 74.9873 41.7498 74.9873C41.9329 74.9873 42.0854 71.1135 42.1464 64.4029L42.2074 53.788L42.2989 65.318C42.3599 75.3533 42.2989 76.8174 41.9024 76.8174C41.5973 76.8174 41.4448 76.5124 41.4448 75.9024Z" fill="#BF2530"/>
<path d="M38.7905 72.8521C38.7905 71.4185 38.8515 70.8389 38.9125 71.571C38.9736 72.2725 38.9736 73.4316 38.9125 74.1637C38.8515 74.8653 38.7905 74.2857 38.7905 72.8521Z" fill="#BF2530"/>
<path d="M73.9905 75.0788C73.4719 74.9568 73.4414 74.4383 73.5329 67.2092C73.6244 60.1326 73.6854 59.431 74.204 58.8515C74.814 58.1804 76.0341 57.9974 76.3696 58.5159C76.4612 58.6989 76.2171 58.943 75.8206 59.0955C75.3936 59.2785 74.9665 59.553 74.8445 59.7055C74.753 59.8885 74.6615 63.4878 74.692 67.6667C74.692 71.876 74.6615 75.2618 74.631 75.2618C74.57 75.2313 74.2955 75.1703 73.9905 75.0788Z" fill="#BF2530"/>
<path d="M31.6836 73.6147C31.6836 73.0351 31.8056 72.5471 31.9581 72.5471C32.1411 72.5471 32.3241 72.0286 32.3852 71.4185C32.4462 70.7779 32.5072 71.2355 32.5377 72.4861C32.5987 74.2552 32.5072 74.6823 32.1411 74.6823C31.8361 74.6823 31.6836 74.3467 31.6836 73.6147Z" fill="#BF2530"/>
<path d="M15.426 74.1028C15.121 73.9808 14.8769 73.7978 14.9075 73.6757C14.9075 73.5232 14.6634 73.1877 14.2974 72.9132C13.4738 72.2421 13.0773 70.1069 13.8094 70.1069C14.2364 70.1069 14.2974 69.3444 14.2974 62.6338C14.2974 56.1978 14.2364 55.1607 13.8399 55.1607C13.5653 55.1607 13.3823 54.8862 13.3823 54.4286C13.3823 53.3 13.6874 52.7205 14.3279 52.7205C14.9685 52.7205 15.121 52.2325 14.5414 52.0189C13.6874 51.7139 14.877 51.1344 16.6156 51.0429C17.9577 50.9513 18.7508 51.0734 19.6353 51.5004L20.8554 52.0799L20.7944 62.2373C20.7334 72.9742 20.6724 73.4012 19.2693 74.0418C18.4457 74.4078 16.2801 74.4688 15.426 74.1028ZM19.6353 73.3097L20.3979 72.5777V62.8473C20.3979 52.202 20.4894 52.6595 18.5678 52.1104C17.3477 51.7444 16.036 52.0189 15.243 52.7815C14.6329 53.3305 14.6024 53.6356 14.6329 62.7253C14.6329 67.8803 14.7549 72.3336 14.8769 72.6692C15.4565 74.1638 18.4152 74.5603 19.6353 73.3097Z" fill="#BF2530"/>
<path d="M22.5332 63.8539C22.5332 56.8688 22.5942 55.7707 22.9907 55.7707C23.3873 55.7707 23.4483 56.8688 23.4483 63.8539C23.4483 70.8389 23.3873 71.937 22.9907 71.937C22.5942 71.937 22.5332 70.8389 22.5332 63.8539Z" fill="#BF2530"/>
<path d="M28.7559 65.379C28.7559 62.6948 28.8169 61.6272 28.8474 63.0303C28.9084 64.4334 28.9084 66.6296 28.8474 67.9107C28.8169 69.1918 28.7559 68.0632 28.7559 65.379Z" fill="#BF2530"/>
<path d="M38.5166 62.9388C38.5166 58.9125 38.5776 57.2958 38.6081 59.37C38.6691 61.4442 38.6691 64.7384 38.6081 66.6906C38.5776 68.6428 38.5166 66.9651 38.5166 62.9388Z" fill="#BF2530"/>
<path d="M31.6836 68.8867C31.6836 68.3987 31.8056 67.9717 31.9886 67.9717C32.1411 67.9717 32.3241 66.3855 32.3852 64.2503L32.4767 60.4985L32.5377 65.1654C32.5987 69.1002 32.5377 69.8018 32.1411 69.8018C31.8361 69.8018 31.6836 69.4968 31.6836 68.8867Z" fill="#BF2530"/>
<path d="M0.937012 67.0566C0.937012 66.477 0.998017 66.233 1.08952 66.538C1.15053 66.8126 1.15053 67.3006 1.08952 67.6056C0.998017 67.8801 0.937012 67.6361 0.937012 67.0566Z" fill="#BF2530"/>
<path d="M0.937012 63.3963C0.937012 62.8168 0.998017 62.5727 1.08952 62.8778C1.15053 63.1523 1.15053 63.6403 1.08952 63.9453C0.998017 64.2199 0.937012 63.9758 0.937012 63.3963Z" fill="#BF2530"/>
<path d="M31.6836 58.0583C31.6836 56.5027 31.7751 56.0756 32.1411 56.0756C32.5072 56.0756 32.5987 56.5027 32.5987 58.0583C32.5987 59.6139 32.5072 60.041 32.1411 60.041C31.7751 60.041 31.6836 59.6139 31.6836 58.0583Z" fill="#BF2530"/>
<path d="M0.906396 57.3874C0.906396 57.2043 0.784382 56.7773 0.692875 56.4723C0.540362 56.0452 0.570864 56.0148 0.845387 56.2588C1.05891 56.4723 1.18092 56.8688 1.08941 57.1738C0.997901 57.5094 0.936899 57.6009 0.906396 57.3874Z" fill="#BF2530"/>
<path d="M0.784733 55.5572C0.449206 55.2522 0.540714 50.6463 0.876242 50.4328C1.05926 50.3107 1.18127 51.2563 1.18127 52.995C1.18127 55.7707 1.15076 55.9537 0.784733 55.5572Z" fill="#BF2530"/>
<path d="M28.6643 50.2802C28.6643 46.8334 28.7863 44.8812 28.9389 45.2473C29.3049 46.1013 29.3049 54.9166 28.9389 55.4656C28.7558 55.7706 28.6338 54.032 28.6643 50.2802Z" fill="#BF2530"/>
<path d="M38.5772 54.5506C38.1806 52.9645 37.7536 52.4155 36.4725 52.0799C35.0084 51.6834 33.4222 52.385 32.9037 53.6661C32.5377 54.4896 31.6836 54.9167 31.6836 54.2456C31.6836 54.0931 31.8971 53.9406 32.1411 53.9406C32.6902 53.9406 32.7512 53.4221 32.2326 53.2695C31.9276 53.1475 31.9276 52.9645 32.2021 52.324C32.5072 51.6834 32.8122 51.5004 33.5137 51.5004C34.0018 51.5004 34.4288 51.3784 34.4288 51.1954C34.4288 50.7378 35.9844 50.8598 37.1435 51.4394C38.2416 51.9884 39.1262 53.7576 38.9127 55.0082C38.8517 55.4352 38.7602 55.3132 38.5772 54.5506Z" fill="#BF2530"/>
<path d="M63.772 53.483C61.5454 52.995 58.5256 51.5308 57.0005 50.2192C55.6279 49.0296 54.1637 46.8945 54.4993 46.5589C54.6213 46.4369 60.8133 46.3454 68.2254 46.3759L81.7075 46.4674L81.067 47.5045C80.5789 48.2976 80.3654 48.4501 80.1824 48.1146C80.0299 47.8705 80.0299 47.6265 80.2129 47.5045C81.006 47.0165 78.7793 46.925 67.4933 46.925H55.4448L55.9939 47.8705C56.2989 48.3891 56.7869 48.9381 57.092 49.0906C57.3665 49.2431 57.6105 49.5787 57.6105 49.8227C57.6105 50.0667 57.824 50.2802 58.0681 50.2802C58.3121 50.2802 58.7696 50.5243 59.0746 50.8293C59.3797 51.1038 60.0812 51.4088 60.6608 51.4393C61.2403 51.5003 61.9419 51.7139 62.1859 51.9274C63.0095 52.6289 67.5849 53.0865 70.1166 52.7204C72.6483 52.3544 74.3259 51.8664 74.936 51.2868C75.1495 51.0733 75.729 50.8903 76.2171 50.8903C76.8576 50.8903 77.1016 50.7073 77.2542 50.1582C77.4372 49.4567 79.0843 48.4806 79.4808 48.8466C80.2129 49.5787 76.5526 52.1104 73.3498 53.056C70.6046 53.8795 66.3648 54.0931 63.772 53.483Z" fill="#BF2530"/>
<path d="M42.1153 37.5608C42.0543 25.1767 41.9628 21.6384 41.6882 21.5164C41.3832 21.3944 41.3832 21.3334 41.6882 21.3334C42.1458 21.3029 42.1763 20.4794 41.7187 20.3268C41.2002 20.1438 42.0238 18.0086 42.6338 17.8561C43.0304 17.7341 43.0304 17.7036 42.6033 17.6731C42.0238 17.6426 41.8103 16.4225 42.3898 16.4225C42.5728 16.4225 43.4879 15.7515 44.464 14.8974C45.6841 13.8298 46.4771 13.3723 47.0872 13.3723C47.5752 13.3723 48.2158 13.1587 48.5208 12.8842C48.8258 12.6097 49.4359 12.3962 49.8934 12.3962C51.6321 12.4572 51.9981 12.4572 53.2792 12.2742C54.1028 12.1522 54.5603 12.2132 54.5603 12.3962C54.5603 12.7317 54.1028 12.8232 51.2965 13.2197C47.9108 13.6468 44.5555 15.782 43.1829 18.3747C42.5118 19.6253 42.5118 19.8388 42.3593 36.5542L42.2068 53.4831L42.1153 37.5608Z" fill="#BF2530"/>
<path d="M22.5332 51.5003C22.5332 51.1648 22.7467 50.8903 22.9907 50.8903C23.2348 50.8903 23.4483 51.1648 23.4483 51.5003C23.4483 51.8358 23.2348 52.1104 22.9907 52.1104C22.7467 52.1104 22.5332 51.8358 22.5332 51.5003Z" fill="#BF2530"/>
<path d="M14.4804 49.0906C14.1754 48.7551 14.0229 48.3281 14.1449 48.1756C14.2364 47.9925 14.1449 47.84 13.9009 47.84C13.6264 47.84 13.4739 47.5045 13.4434 46.925C13.4434 46.3149 13.5654 46.0099 13.8704 46.0099C14.2364 46.0099 14.2974 44.9118 14.2974 39.2993C14.2974 34.1444 14.2059 32.5888 13.9314 32.5888C13.6569 32.5888 13.6569 32.4973 13.9619 32.3142C14.3584 32.0702 14.3584 31.9482 13.9924 31.5212C13.6264 31.0636 13.6264 30.9416 14.1449 30.5756C14.9075 30.0266 16.6156 29.5385 17.8662 29.5385C18.9948 29.5385 20.2454 30.5451 20.5505 31.6737C20.703 32.3752 20.703 32.3753 20.3064 31.9177C20.0624 31.6127 19.3609 31.1551 18.7508 30.9111C17.8357 30.5146 17.4087 30.4841 16.5546 30.7586C14.633 31.3992 14.6025 31.5517 14.6025 40.3974V48.3586L15.365 48.6941C15.7921 48.9076 16.4021 49.0601 16.6766 49.0906C17.0122 49.1211 16.9206 49.2127 16.4326 49.3652C15.243 49.7312 15.0295 49.7007 14.4804 49.0906Z" fill="#BF2530"/>
<path d="M17.8049 49.3652C17.6829 49.1821 17.9574 49.0601 18.4149 49.0601C18.8725 49.0601 19.4825 48.9076 19.818 48.7551C20.3671 48.4501 20.3976 47.9925 20.4586 40.5804L20.5196 32.7413L20.6721 40.0619C20.7941 44.0882 20.7941 47.718 20.7331 48.1146C20.5806 49.0906 18.2624 50.0972 17.8049 49.3652Z" fill="#BF2530"/>
<path d="M0.967773 46.925C0.967773 46.0099 1.02878 45.6134 1.08978 46.1014C1.15079 46.559 1.15079 47.291 1.08978 47.7791C1.02878 48.2366 0.967773 47.8401 0.967773 46.925Z" fill="#BF2530"/>
<path d="M33.91 47.3215C33.178 47.169 32.1409 45.8268 32.5984 45.5523C32.751 45.4608 33.0255 45.6438 33.178 45.9489C33.5135 46.5589 34.6116 47.108 35.9537 47.3215C36.4723 47.413 36.3808 47.4435 35.6487 47.4435C35.0691 47.4435 34.2761 47.3825 33.91 47.3215Z" fill="#BF2530"/>
<path d="M22.5332 46.7724C22.5332 46.5283 22.7467 46.3148 22.9907 46.3148C23.2348 46.3148 23.4483 46.5283 23.4483 46.7724C23.4483 47.0164 23.2348 47.2299 22.9907 47.2299C22.7467 47.2299 22.5332 47.0164 22.5332 46.7724Z" fill="#BF2530"/>
<path d="M22.5332 40.8245C22.5332 36.9506 22.5942 36.2491 22.9907 36.2491C23.3873 36.2491 23.4483 36.9506 23.4483 40.8245C23.4483 44.6983 23.3873 45.3998 22.9907 45.3998C22.5942 45.3998 22.5332 44.6983 22.5332 40.8245Z" fill="#BF2530"/>
<path d="M31.6836 42.6546C31.6836 42.3191 31.8971 42.0446 32.1411 42.0446C32.3852 42.0446 32.5987 42.3191 32.5987 42.6546C32.5987 42.9901 32.3852 43.2647 32.1411 43.2647C31.8971 43.2647 31.6836 42.9901 31.6836 42.6546Z" fill="#BF2530"/>
<path d="M38.7603 42.3496C38.7603 41.7701 38.8213 41.526 38.9128 41.8311C38.9738 42.1056 38.9738 42.5936 38.9128 42.8987C38.8213 43.1732 38.7603 42.9292 38.7603 42.3496Z" fill="#BF2530"/>
<path d="M0.723753 39.4214C0.601743 38.1402 0.571241 36.1881 0.662749 35.0595C0.754256 33.9614 0.693251 31.3382 0.510236 29.2945C0.296718 26.6713 0.296718 25.2987 0.510236 24.8106C0.723754 24.3226 0.723754 24.0176 0.510236 23.8041C0.266216 23.56 0.296718 22.9195 0.662749 21.5469C1.08978 19.9302 1.42531 15.1718 1.18129 14.1348C1.15079 13.9822 1.15079 11.8471 1.18129 9.40686C1.2423 4.67897 1.3643 4.16042 2.98094 2.78781C4.32305 1.65922 4.41456 1.99474 3.10295 3.21484L1.88285 4.37394L1.66933 7.75972C1.54732 9.62038 1.54732 12.0301 1.63883 13.0977C1.73034 14.1653 1.66933 16.575 1.48632 18.4051C1.12029 21.9129 0.845763 25.0852 0.876265 25.8782C0.876265 26.1222 0.937271 29.8131 1.02878 34.0529C1.12029 38.2623 1.12029 41.7396 1.05928 41.7396C0.998278 41.7396 0.81526 40.7025 0.723753 39.4214Z" fill="#BF2530"/>
<path d="M99.9486 41.1904C99.308 41.0684 99.2165 40.0313 99.7961 39.8178C100.01 39.6958 99.9791 39.6348 99.6436 39.6348C99.3385 39.6043 99.064 39.2383 98.942 38.6892C98.6675 37.4691 99.0945 33.8088 99.4911 33.8088C99.6741 33.8088 99.5826 33.6258 99.308 33.4428C98.454 32.8022 98.637 28.2269 99.5216 27.6473C99.7656 27.4948 99.7351 27.4033 99.4911 27.4033C99.2775 27.4033 99.0945 27.1898 99.0945 26.9458C99.0945 26.7017 99.308 26.4882 99.5521 26.4882C99.9486 26.4882 100.01 27.3728 100.01 32.5277C100.01 35.822 100.162 39.1468 100.345 39.8788C100.681 41.3735 100.681 41.3735 99.9486 41.1904Z" fill="#BF2530"/>
<path d="M31.6836 39.6043C31.6836 38.9332 31.8056 38.3842 31.9886 38.3842C32.1716 38.3842 32.3241 36.0355 32.3852 32.3752L32.4462 26.3357L32.5377 33.5953C32.5987 39.8483 32.5377 40.8244 32.1411 40.8244C31.8056 40.8244 31.6836 40.4889 31.6836 39.6043Z" fill="#BF2530"/>
<path d="M54.2554 40.3669C54.2554 40.2754 54.5909 39.6958 54.9874 39.0553C55.7195 37.9267 57.6107 35.944 57.6107 36.3406C57.6107 36.4321 57.2751 36.8286 56.8786 37.2251C56.4821 37.6217 55.933 38.2927 55.628 38.7808L55.1094 39.6043H56.5126C57.4276 39.6043 57.9157 39.7263 57.9157 40.0009C57.9157 40.2449 58.0377 40.2144 58.2207 39.9094C58.4952 39.5128 58.5257 39.5128 58.5257 39.9094C58.5257 40.3059 58.5562 40.3059 58.8308 39.9094C59.1053 39.5128 59.1358 39.5128 59.1358 39.9094C59.1358 40.3059 59.1663 40.3059 59.4408 39.9094C59.7153 39.5128 59.7458 39.5128 59.7458 39.9094C59.7458 40.3059 59.7763 40.3059 60.0509 39.9094C60.3254 39.5128 60.3559 39.5128 60.3559 39.9094C60.3559 40.3059 60.3864 40.3059 60.6609 39.9094C60.9354 39.5128 60.9659 39.5128 60.9659 39.9094C60.9659 40.3059 60.9964 40.3059 61.271 39.9094C61.5455 39.5128 61.576 39.5128 61.576 39.9094C61.576 40.3059 61.6065 40.3059 61.881 39.9094C62.1555 39.5128 62.186 39.5128 62.186 39.9094C62.186 40.3059 62.2165 40.3059 62.4911 39.9094C62.7656 39.5128 62.7961 39.5128 62.7961 39.9094C62.7961 40.3059 62.8266 40.3059 63.1011 39.9094C63.3756 39.5128 63.4061 39.5128 63.4061 39.9094C63.4061 40.3059 63.4366 40.3059 63.7112 39.9094C63.9857 39.5128 64.0162 39.5128 64.0162 39.9094C64.0162 40.3059 64.0467 40.3059 64.3212 39.9094C64.5957 39.5128 64.6262 39.5128 64.6262 39.9094C64.6262 40.3059 64.6567 40.3059 64.9313 39.9094C65.2058 39.5128 65.2363 39.5128 65.2363 39.9094C65.2363 40.3059 65.2668 40.3059 65.5413 39.9094C65.8158 39.5128 65.8463 39.5128 65.8463 39.9094C65.8463 40.3059 65.8768 40.3059 66.1514 39.9094C66.4259 39.5128 66.4564 39.5128 66.4564 39.9094C66.4564 40.3059 66.4869 40.3059 66.7614 39.9094C67.0359 39.5128 67.0664 39.5128 67.0664 39.9094C67.0664 40.3059 67.0969 40.3059 67.3715 39.9094C67.646 39.5128 67.6765 39.5128 67.6765 39.9094C67.6765 40.3059 67.707 40.3059 67.9815 39.9094C68.256 39.5128 68.2865 39.5128 68.2865 39.9094C68.2865 40.3059 68.317 40.3059 68.5916 39.9094C68.8661 39.5128 68.8966 39.5128 68.8966 39.9094C68.8966 40.3059 68.9271 40.3059 69.2016 39.9094C69.4761 39.5128 69.5066 39.5128 69.5066 39.9094C69.5066 40.3059 69.5371 40.3059 69.8117 39.9094C70.0862 39.5128 70.1167 39.5128 70.1167 39.9094C70.1167 40.3059 70.1472 40.3059 70.4217 39.9094C70.6962 39.5128 70.7267 39.5128 70.7267 39.9094C70.7267 40.3059 70.7572 40.3059 71.0318 39.9094C71.3063 39.5128 71.3368 39.5128 71.3368 39.9094C71.3368 40.3059 71.3673 40.3059 71.6418 39.9094C71.9163 39.5128 71.9468 39.5128 71.9468 39.9094C71.9468 40.3059 71.9773 40.3059 72.2519 39.9094C72.5264 39.5128 72.5569 39.5128 72.5569 39.9094C72.5569 40.3059 72.5874 40.3059 72.8619 39.9094C73.1364 39.5128 73.1669 39.5128 73.1669 39.9094C73.1669 40.3059 73.1974 40.3059 73.472 39.9094C73.7465 39.5128 73.777 39.5128 73.777 39.9094C73.777 40.3059 73.8075 40.3059 74.082 39.9094C74.3565 39.5128 74.387 39.5128 74.387 39.9094C74.387 40.3059 74.4175 40.3059 74.6921 39.9094C74.9666 39.5128 74.9971 39.5128 74.9971 39.9094C74.9971 40.3059 75.0276 40.3059 75.3021 39.9094C75.5766 39.5128 75.6071 39.5128 75.6071 39.9094C75.6071 40.3059 75.6376 40.3059 75.9122 39.9094C76.0952 39.6348 76.2172 39.6043 76.2172 39.8178C76.2172 40.0009 76.5222 40.2449 76.9188 40.3059C77.2848 40.3669 72.3434 40.4584 65.9378 40.4889C59.5018 40.4889 54.2554 40.4584 54.2554 40.3669Z" fill="#BF2530"/>
<path d="M79.4814 40.0314C79.6339 39.6349 79.6949 39.6349 79.9085 39.9704C80.0915 40.2449 80.183 40.1839 80.183 39.6959C80.183 39.3298 80.0305 38.9333 79.878 38.8418C79.6949 38.7198 79.6339 38.5368 79.6949 38.4148C79.7864 38.2928 79.3594 37.9572 78.7494 37.6522C77.9868 37.2862 77.7428 37.0421 77.9563 36.8286C78.4443 36.3406 79.4204 36.9811 80.488 38.5063C80.976 39.2688 81.4031 40.0009 81.4031 40.1839C81.4031 40.3669 80.915 40.5194 80.3355 40.5194C79.5119 40.5194 79.3289 40.4279 79.4814 40.0314Z" fill="#BF2530"/>
<path d="M85.8565 38.6282C85.2465 37.3471 84.3314 36.066 83.0198 34.8154C81.9827 33.7478 81.0981 32.7412 81.0981 32.5277C81.0981 32.3142 81.4642 32.4972 81.8607 32.9852C82.2572 33.4428 82.6843 33.7783 82.7453 33.7478C83.0808 33.5648 84.7584 35.4254 84.7584 35.944C84.7584 36.127 84.911 36.188 85.0635 36.0965C85.2465 36.005 85.46 36.1575 85.582 36.4625C85.6735 36.7675 85.948 37.2251 86.1616 37.4691C86.6191 37.9876 87.2292 40.5193 86.9241 40.5193C86.8021 40.5193 86.3141 39.6653 85.8565 38.6282Z" fill="#BF2530"/>
<path d="M47.6064 35.09C47.6064 33.6869 47.6674 32.6193 47.7589 32.7108C48.0334 32.9853 48.0944 36.7371 47.8504 37.1947C47.6674 37.4387 47.5759 36.6151 47.6064 35.09Z" fill="#BF2530"/>
<path d="M38.4554 28.1049C38.4249 23.5295 38.4859 19.7777 38.6384 19.7777C38.8214 19.7777 38.7909 33.3818 38.5774 35.4865C38.5469 36.0051 38.4554 32.6498 38.4554 28.1049Z" fill="#BF2530"/>
<path d="M57.9155 35.9746C57.9155 35.6086 61.7893 33.9309 63.711 33.4734C65.9987 32.9548 70.147 33.0158 72.4652 33.5954C74.9054 34.236 78.4437 36.0051 77.6202 36.1881C77.2846 36.2491 76.9186 36.0966 76.7661 35.8221C76.6136 35.5476 76.095 35.334 75.607 35.334C75.119 35.334 74.6614 35.212 74.5699 35.0595C74.4784 34.907 73.3803 34.48 72.1907 34.1139C70.2691 33.5344 69.476 33.4429 66.6698 33.5954C64.8396 33.6564 63.1925 33.9004 63.0095 34.0834C62.8264 34.2665 62.3079 34.419 61.8504 34.419C61.4233 34.419 60.5997 34.724 60.0202 35.1205C58.7696 35.9746 57.9155 36.3101 57.9155 35.9746Z" fill="#BF2530"/>
<path d="M28.7559 31.3687C28.7559 28.776 28.8169 27.7084 28.8474 29.02C28.9084 30.3011 28.9084 32.4363 28.8474 33.7479C28.8169 35.029 28.7559 33.9614 28.7559 31.3687Z" fill="#BF2530"/>
<path d="M100.924 33.8698C100.924 33.5038 100.802 33.1988 100.65 33.1988C100.467 33.1988 100.467 32.8328 100.65 32.2227C100.802 31.6737 100.924 30.6366 100.924 29.935C100.924 29.203 101.077 28.6234 101.23 28.6234C101.443 28.6234 101.474 29.569 101.352 31.4602C101.168 34.0529 100.924 35.395 100.924 33.8698Z" fill="#BF2530"/>
<path d="M2.4624 33.1988C2.4624 32.6192 2.52341 32.3752 2.61492 32.6802C2.67592 32.9548 2.67592 33.4428 2.61492 33.7478C2.52341 34.0224 2.4624 33.7783 2.4624 33.1988Z" fill="#BF2530"/>
<path d="M79.2679 32.0702C77.3768 31.0026 74.9366 30.1791 72.4049 29.7215L70.2697 29.3555L70.1172 26.5493C70.0257 24.9936 70.0562 23.743 70.1782 23.743C70.3002 23.743 72.2829 24.6886 74.601 25.8172C76.9192 26.9763 79.1459 28.0439 79.573 28.2269C80.305 28.5624 80.305 28.5929 79.2069 28.5929C78.5969 28.6234 77.9868 28.5014 77.8953 28.3184C77.8038 28.1659 77.4378 28.0134 77.1328 28.0134C76.8277 28.0134 76.0957 27.6169 75.5466 27.0983C74.9976 26.6103 74.3265 26.1832 74.0215 26.1832C73.7165 26.1832 73.4724 26.0612 73.4724 25.8782C73.4724 25.7257 72.9234 25.4207 72.2218 25.2377C70.7577 24.7801 70.4222 25.0852 70.4222 26.8543C70.4222 27.8914 70.5442 28.0439 71.5203 28.4709C72.1303 28.715 72.9539 28.9285 73.3809 28.9285C73.7775 28.9285 74.9061 29.264 75.9127 29.691C76.9192 30.1181 77.9868 30.4536 78.2614 30.4536C78.5664 30.4536 79.0544 30.7281 79.3289 31.0331C79.6035 31.3382 80.061 31.7347 80.3355 31.9177C80.6405 32.0702 80.8236 32.3448 80.7626 32.5278C80.7016 32.7108 80.061 32.5278 79.2679 32.0702Z" fill="#BF2530"/>
<path d="M47.5454 31.7652C47.5454 31.6127 47.6979 31.3077 47.8504 31.0637C48.0945 30.6976 48.1555 30.7281 48.1555 31.3077C48.1555 31.6737 48.0335 31.9787 47.8504 31.9787C47.6979 31.9787 47.5454 31.8872 47.5454 31.7652Z" fill="#BF2530"/>
<path d="M100.62 27.4644C100.62 26.9763 100.406 26.3358 100.162 26.0002C99.5828 25.2377 99.5828 24.3836 100.162 24.1701C100.589 23.9871 100.589 23.9261 100.193 23.621C99.7048 23.255 100.04 21.9129 100.62 21.9129C101.169 21.9129 100.925 21.3638 100.284 21.2113C99.9183 21.1198 99.7353 20.9063 99.8573 20.7233C99.9488 20.5403 99.8878 20.3878 99.6743 20.3878C99.4607 20.3878 99.3997 20.2963 99.4913 20.2048C99.6133 20.0827 99.8878 20.1743 100.162 20.3878C101.108 21.1808 101.138 20.8453 100.681 12.6706C100.528 9.86439 100.315 7.48519 100.193 7.33268C100.04 7.21067 99.9793 7.94273 100.01 8.94932C100.193 13.6467 100.01 16.7275 99.5828 16.7275C99.3387 16.7275 99.0947 16.5444 99.0337 16.3614C98.8202 15.7514 99.1252 13.6772 99.4303 13.6772C99.5828 13.6772 99.7048 13.5552 99.7048 13.3722C99.7048 13.2197 99.5218 13.0672 99.2777 13.0672C98.7897 13.0672 98.3627 11.8166 98.7592 11.542C98.9117 11.4505 99.0032 10.4439 99.0032 9.28484C98.9727 7.69871 99.0947 7.11916 99.4608 6.84464C99.7353 6.63112 100.01 5.96007 100.04 5.31951C100.132 4.31293 100.01 4.03841 99.0947 3.27585C98.5152 2.78781 97.9051 2.39127 97.6916 2.39127C97.5086 2.39127 96.99 2.11675 96.563 1.78122C95.892 1.23218 95.3124 1.17117 91.4996 1.14067C88.9069 1.11017 87.1987 0.988156 87.1987 0.805141C87.1987 0.622126 88.8764 0.591622 91.8656 0.744134C96.99 0.957652 98.3322 1.38469 100.162 3.30635L101.077 4.25193V10.1999C101.077 13.4637 101.199 16.1174 101.321 16.1174C101.657 16.1174 101.535 21.1808 101.169 22.6755C100.986 23.3465 100.864 24.9021 100.894 26.1222C100.925 27.3118 100.864 28.3184 100.772 28.3184C100.681 28.3184 100.62 27.9219 100.62 27.4644Z" fill="#BF2530"/>
<path d="M22.9293 26.8848C22.3497 26.6713 22.4107 24.3531 22.9903 24.3531C23.3258 24.3531 23.4478 24.7191 23.4478 25.7257C23.4478 26.4883 23.4173 27.0983 23.3868 27.0678C23.3258 27.0678 23.1123 26.9763 22.9293 26.8848Z" fill="#BF2530"/>
<path d="M82.4706 26.2442C82.5621 25.8782 82.4401 25.1461 82.1656 24.5666C81.7385 23.6515 80.854 23.133 73.2893 19.4422C68.6529 17.2155 64.3521 15.1718 63.742 14.9583C61.5764 14.1652 58.3431 13.3112 56.6349 13.1281C55.1708 12.9451 54.9268 12.8231 55.1708 12.4571C55.4148 12.0606 55.5369 12.0606 56.1469 12.4266C56.5129 12.6706 56.8485 12.7316 56.9095 12.5486C57.062 12.1521 59.5632 12.5486 61.2713 13.1891C62.0339 13.4942 63.0405 13.7992 63.498 13.8907C63.986 13.9822 64.5046 14.2872 64.6876 14.5923C64.9011 14.8973 65.2062 15.0803 65.4197 14.9888C65.9687 14.7753 67.8904 15.7514 68.1344 16.3614C68.2869 16.7884 68.3479 16.7884 68.5919 16.4224C68.836 16.0564 68.9275 16.0564 69.4155 16.4529C69.9035 16.88 70.6661 17.246 74.3569 18.9846C74.7534 19.1676 75.15 19.5642 75.2415 19.8692C75.394 20.4183 75.9125 20.6013 75.9125 20.0827C75.9125 19.8997 76.4311 20.0217 77.0716 20.3572C77.6817 20.6928 78.5358 21.0893 78.9628 21.2723C80.8235 22.0959 82.1656 23.0415 82.5316 23.743C83.0196 24.6886 83.0501 26.3662 82.5926 26.6713C82.3486 26.7933 82.3181 26.6713 82.4706 26.2442Z" fill="#BF2530"/>
<path d="M28.8778 26.3053C28.7253 26.1833 28.6338 25.5122 28.6338 24.8412C28.6643 23.8346 28.7253 23.6821 28.9693 24.1396C29.3048 24.7192 29.2133 26.6713 28.8778 26.3053Z" fill="#BF2530"/>
<path d="M31.6836 25.5732C31.6836 25.4206 31.8971 25.2681 32.1411 25.2681C32.3852 25.2681 32.5987 25.4206 32.5987 25.5732C32.5987 25.7562 32.3852 25.8782 32.1411 25.8782C31.8971 25.8782 31.6836 25.7562 31.6836 25.5732Z" fill="#BF2530"/>
<path d="M23.1431 23.743C22.7466 23.4685 22.7466 23.438 23.1431 23.438C23.5091 23.438 23.5396 23.377 23.1736 23.1635C22.6246 22.828 23.0211 22.2179 23.7837 22.2179C24.0887 22.2179 24.3327 22.0654 24.3022 21.8519C24.1802 21.3638 25.6443 20.8758 26.5289 21.0893C27.566 21.3638 28.237 21.9434 28.481 22.7975L28.7251 23.56L27.749 22.7365C27.1999 22.2789 26.5289 21.9129 26.2544 21.9129C25.4613 21.9434 24.3327 22.6755 23.9362 23.377C23.6922 23.8651 23.4786 23.9566 23.1431 23.743Z" fill="#BF2530"/>
<path d="M47.606 23.438C47.606 23.011 47.6975 22.4009 47.85 22.0654L48.1245 21.4553L48.094 22.0654C48.094 22.4009 47.972 23.011 47.85 23.438L47.606 24.2006V23.438Z" fill="#BF2530"/>
<path d="M31.6836 21.3333C31.6836 19.6862 31.8056 18.8626 32.0801 18.7406C32.3547 18.5881 32.3547 18.5271 32.0801 18.3746C31.5616 18.161 31.8971 16.7274 32.5682 16.1174C34.6423 14.2567 37.052 14.5007 38.3331 16.7274C39.0042 17.917 39.2482 19.4726 38.7602 19.4726C38.6077 19.4726 38.4857 19.0456 38.4857 18.5576C38.4857 16.6054 36.2285 15.3548 34.3068 16.2699C32.9647 16.9104 32.5987 17.9475 32.5987 21.1808C32.5987 23.255 32.5072 23.743 32.1411 23.743C31.7751 23.743 31.6836 23.2855 31.6836 21.3333Z" fill="#BF2530"/>
<path d="M48.4294 20.7843C49.2225 19.2592 51.6322 17.9171 53.4013 17.9781C54.3469 18.0086 54.3164 18.0391 53.0963 18.2831C51.3576 18.6186 49.5275 19.6862 49.1005 20.5708C48.9174 20.9673 48.6429 21.3029 48.4599 21.3029C48.2464 21.3029 48.2159 21.1198 48.4294 20.7843Z" fill="#BF2530"/>
<path d="M57.153 18.5881C56.97 18.4356 56.5734 18.2526 56.2379 18.1611C55.9024 18.1001 56.2379 18.1001 56.97 18.1611C57.702 18.2526 58.5866 18.4051 58.9526 18.5576C59.5017 18.7712 59.4102 18.8322 58.5256 18.8322C57.9155 18.8627 57.3055 18.7407 57.153 18.5881Z" fill="#BF2530"/>
<path d="M62.4917 11.847C62.4917 11.6945 62.7052 11.542 62.9492 11.542C63.1933 11.542 63.4068 11.6945 63.4068 11.847C63.4068 12.03 63.1933 12.152 62.9492 12.152C62.7052 12.152 62.4917 12.03 62.4917 11.847Z" fill="#BF2530"/>
<path d="M66.2433 2.8793C65.9078 2.69628 65.6943 2.39126 65.7553 2.20824C65.8468 1.96422 64.8402 1.78121 62.644 1.62869C59.5938 1.41518 58.5872 1.14065 59.5938 0.74412C59.8378 0.652613 60.0513 0.713618 60.0513 0.866131C60.0513 1.04915 61.668 1.17116 63.9862 1.17116C66.3043 1.17116 68.0125 1.29317 68.1345 1.47618C68.226 1.6592 68.0125 1.78121 67.616 1.78121C67.2194 1.78121 66.7009 1.93372 66.4569 2.08623C65.7248 2.57427 69.4766 2.42176 70.7272 1.93372L71.7948 1.50668L70.6967 1.6592C70.0257 1.7507 69.5071 1.6897 69.3851 1.50668C69.1106 1.11015 69.2631 1.07965 72.8624 1.20166C77.3768 1.35417 78.5664 1.32367 82.2877 0.896633C84.7584 0.62211 85.826 0.591609 86.07 0.835629C86.314 1.07965 86.131 1.17116 85.4294 1.17116C84.7889 1.17116 84.5144 1.29317 84.6059 1.53719C84.8804 2.26925 84.2703 2.66578 82.5927 2.9403C81.0981 3.15382 80.7016 3.12332 79.4814 2.54377C77.7733 1.7202 72.8624 1.32367 71.6423 1.93372C70.1172 2.69628 66.9144 3.24533 66.2433 2.8793ZM83.5383 2.08623C83.5383 1.93372 83.2028 1.78121 82.8062 1.78121C82.4097 1.78121 81.6471 1.6897 81.1286 1.59819C80.3965 1.44568 80.183 1.50668 80.183 1.90322C80.183 2.29975 80.5185 2.39126 81.8606 2.39126C82.7757 2.39126 83.5383 2.26925 83.5383 2.08623Z" fill="#BF2530"/>
<path d="M9.41647 2.36071C8.31838 1.84217 7.67783 1.75066 6.2137 1.90317C4.9631 2.02518 4.53607 1.99468 4.84109 1.78116C5.32913 1.44564 8.86742 1.38463 9.93501 1.65915C10.3315 1.78116 10.5451 1.96418 10.4536 2.11669C10.362 2.2692 10.8806 2.39121 11.6127 2.42172C12.6192 2.42172 12.7718 2.48272 12.3142 2.69624C11.3686 3.09277 10.9111 3.03177 9.41647 2.36071Z" fill="#BF2530"/>
<path d="M13.0776 1.81163C13.0776 1.11008 14.5418 0.92706 18.2631 1.17108C22.8995 1.4151 36.1681 1.65912 41.5365 1.56761C44.1597 1.50661 45.4103 1.59812 45.4103 1.81163C45.4103 2.14716 40.1334 2.08616 20.7643 1.59812C15.7009 1.47611 13.8402 1.53711 13.5047 1.78113C13.1996 2.05565 13.0776 2.05565 13.0776 1.81163Z" fill="#BF2530"/>
<path d="M46.7825 1.78122C47.301 1.5982 48.2466 1.5677 48.9176 1.65921C49.5887 1.75072 51.2968 1.68971 52.7305 1.50669C54.2251 1.32368 56.0857 1.32368 57.1533 1.44569L58.9835 1.68971L57.1228 1.75072C56.1162 1.75072 53.1575 1.84222 50.5648 1.93373C47.2095 2.05574 46.1419 1.99474 46.7825 1.78122Z" fill="#BF2530"/>
</svg>
