<svg width="38" height="38" viewBox="0 0 38 38" fill="none" xmlns="http://www.w3.org/2000/svg">
<path d="M38.0001 19.0202C38.0001 29.5009 29.5009 38 19.0203 38C8.53967 38 0.0405273 29.5009 0.0405273 19.0202C0.0405273 8.53961 8.53967 0.0404663 19.0203 0.0404663C29.5009 0.0404663 38.0001 8.53961 38.0001 19.0202Z" fill="#FFC107"/>
<path d="M12.3774 28.51V9.53027H20.1582C22.4453 9.53027 24.1762 9.97155 25.3587 10.8541C26.5411 11.7367 27.1304 13.0301 27.1304 14.7317C27.1304 15.6617 26.8932 16.4816 26.4225 17.1896C25.948 17.8975 25.2884 18.4166 24.4429 18.7469C25.4071 18.9917 26.1662 19.4804 26.7224 20.2225C27.2794 20.9589 27.5613 21.8595 27.5613 22.9309C27.5613 24.7549 26.9833 26.1376 25.8265 27.0752C24.6697 28.0128 23.0241 28.4911 20.8851 28.51H12.3774ZM16.1734 17.1222H20.3138C22.2716 17.089 23.2538 16.3402 23.2538 14.8019C23.2538 13.9421 23.0052 13.3224 22.5088 12.9447C22.0125 12.567 21.2296 12.3772 20.1582 12.3772H16.1734V17.1222ZM16.1734 19.9691V25.6631H20.7703C21.6823 25.6631 23.7653 25.218 23.7653 23.1872C23.7653 21.1563 22.7053 19.9948 20.9183 19.9691H16.1734Z" fill="#FFF8E1"/>
<path d="M15.2241 6.68329H18.0711V11.4282H15.2241V6.68329ZM19.9691 6.68329H22.816V11.4282H19.9691V6.68329ZM15.2241 26.612H18.0711V31.357H15.2241V26.612ZM19.9691 26.612H22.816V31.357H19.9691V26.612Z" fill="#FFF8E1"/>
</svg>
