<svg width="37" height="37" viewBox="0 0 37 37" fill="none" xmlns="http://www.w3.org/2000/svg">
<g clip-path="url(#clip0)">
<path d="M18.0202 0C27.9734 0 36.0405 8.06864 36.0405 18.0202C36.0405 27.9734 27.9734 36.0405 18.0202 36.0405C8.06864 36.0405 0 27.9726 0 18.0202C0 8.06864 8.06864 0 18.0202 0Z" fill="#F5AC37"/>
<path d="M18.6788 19.2927H25.5262C25.6721 19.2927 25.7411 19.2927 25.7516 19.1013C25.8076 18.4047 25.8076 17.7041 25.7516 17.0067C25.7516 16.8713 25.6843 16.8153 25.5375 16.8153H11.9101C11.7414 16.8153 11.696 16.8713 11.696 17.0294V19.034C11.696 19.2927 11.696 19.2927 11.966 19.2927H18.6788ZM24.9869 14.4726C25.0064 14.4215 25.0064 14.3656 24.9869 14.3153C24.8726 14.0663 24.7372 13.8287 24.5798 13.6057C24.3431 13.2246 24.0641 12.8735 23.7462 12.558C23.5962 12.3675 23.4227 12.1964 23.228 12.0512C22.2533 11.2216 21.0945 10.6345 19.8489 10.3394C19.2205 10.1983 18.5782 10.1309 17.9344 10.1366H11.8865C11.7179 10.1366 11.6952 10.2039 11.6952 10.3507V14.3485C11.6952 14.5172 11.6952 14.5626 11.9092 14.5626H24.9058C24.9058 14.5626 25.0185 14.5399 25.0413 14.4726H24.9861H24.9869ZM24.9869 21.6354C24.7955 21.6144 24.6025 21.6144 24.4112 21.6354H11.9214C11.7527 21.6354 11.696 21.6354 11.696 21.8609V25.7695C11.696 25.9495 11.696 25.9949 11.9214 25.9949H17.6878C17.9636 26.016 18.2393 25.9966 18.5093 25.939C19.3462 25.879 20.1693 25.6973 20.9542 25.3981C21.2397 25.2992 21.5154 25.1702 21.7757 25.0154H21.8543C23.2061 24.3123 24.3041 23.2078 24.9967 21.852C24.9967 21.852 25.0753 21.6817 24.9869 21.6371V21.6354ZM9.4327 28.0214V27.9541V25.33V24.4404V21.7936C9.4327 21.6468 9.4327 21.6249 9.25267 21.6249H6.80856C6.67314 21.6249 6.61719 21.6249 6.61719 21.4449V19.3049H9.22997C9.37593 19.3049 9.4327 19.3049 9.4327 19.1135V16.9962C9.4327 16.8608 9.4327 16.8275 9.25267 16.8275H6.80856C6.67314 16.8275 6.61719 16.8275 6.61719 16.6475V14.6656C6.61719 14.5415 6.61719 14.5083 6.79721 14.5083H9.21861C9.38728 14.5083 9.4327 14.5083 9.4327 14.2942V8.22367C9.4327 8.04364 9.4327 7.99823 9.65813 7.99823H18.1047C18.7177 8.02256 19.3267 8.08986 19.9292 8.20096C21.1707 8.43045 22.3636 8.87402 23.4543 9.50735C24.1776 9.93308 24.8434 10.4472 25.4362 11.0392C25.8822 11.5022 26.2844 12.0034 26.6412 12.5369C26.9956 13.0778 27.2899 13.656 27.521 14.2601C27.5494 14.4175 27.7003 14.5237 27.8576 14.4969H29.8735C30.1322 14.4969 30.1322 14.4969 30.1435 14.7451V16.5923C30.1435 16.7724 30.0762 16.8178 29.8954 16.8178H28.3409C28.1836 16.8178 28.1382 16.8178 28.1495 17.0205C28.2111 17.7065 28.2111 18.395 28.1495 19.0811C28.1495 19.2724 28.1495 19.2951 28.3644 19.2951H30.1427C30.2214 19.3965 30.1427 19.4979 30.1427 19.6C30.1541 19.7306 30.1541 19.8628 30.1427 19.9933V21.3565C30.1427 21.5479 30.0868 21.6046 29.9173 21.6046H27.7886C27.6402 21.5763 27.4959 21.6711 27.4618 21.8187C26.955 23.1365 26.1441 24.318 25.0964 25.2651C24.7136 25.6098 24.3114 25.9341 23.8914 26.2334C23.4405 26.4928 23.0018 26.7629 22.5396 26.977C21.6889 27.3597 20.7969 27.6419 19.8814 27.8211C19.0121 27.9768 18.1306 28.0474 17.2459 28.0352H9.42945V28.0239L9.4327 28.0214Z" fill="#FEFEFD"/>
</g>
<defs>
<clipPath id="clip0">
<rect width="36.0405" height="36.0405" fill="white"/>
</clipPath>
</defs>
</svg>
