<svg xmlns="http://www.w3.org/2000/svg" width="24" height="24" viewBox="0 0 24 24" fill="none">
<path d="M12 24C18.6274 24 24 18.6274 24 12C24 5.37258 18.6274 0 12 0C5.37258 0 0 5.37258 0 12C0 18.6274 5.37258 24 12 24Z" fill="#F0014F"/>
<path d="M19.1155 10.02H17.6914C16.9075 7.84413 14.7994 6.35181 12.0192 6.35181H7.44721V10.02H5.85938V11.3361H7.44721V12.7161H5.85938V14.0318H7.44721V17.6558H12.0192C14.7672 17.6558 16.8591 16.176 17.6631 14.0318H19.1151V12.7156H17.9832C18.0121 12.4795 18.0269 12.2418 18.0274 12.0038V11.9716C18.0274 11.7556 18.0154 11.5435 17.9952 11.3356H19.1194V10.0195L19.1155 10.02ZM8.72738 7.52397H12.0192C14.0592 7.52397 15.5751 8.52813 16.2754 10.0161H8.72738V7.52397ZM12.0192 16.4721H8.72738V14.028H16.2672C15.5635 15.492 14.0515 16.4716 12.0192 16.4716V16.4721ZM16.7031 12.0321C16.7034 12.2597 16.6874 12.487 16.6551 12.7123H8.72738V11.3323H16.6594C16.6884 11.5538 16.7032 11.777 16.7035 12.0004L16.7031 12.0321Z" fill="white"/>
</svg>
