<svg width="16" height="16" viewBox="0 0 16 16" fill="none" xmlns="http://www.w3.org/2000/svg">
<path d="M8 16C12.4183 16 16 12.4183 16 8C16 3.58172 12.4183 0 8 0C3.58172 0 0 3.58172 0 8C0 12.4183 3.58172 16 8 16Z" fill="#8247E5"/>
<path d="M10.6483 6.28841C10.4564 6.17679 10.207 6.17679 9.99593 6.28841L8.49924 7.14422L7.48228 7.70237L5.9856 8.55818C5.79371 8.6698 5.54428 8.6698 5.3332 8.55818L4.14353 7.88841C3.95165 7.77679 3.81734 7.57213 3.81734 7.34887V6.02794C3.81734 5.80469 3.93246 5.60004 4.14353 5.48841L5.31401 4.83724C5.50589 4.72561 5.75534 4.72561 5.96642 4.83724L7.13689 5.48841C7.32878 5.60004 7.46309 5.80469 7.46309 6.02794V6.88376L8.48006 6.30701V5.45119C8.48006 5.22794 8.36493 5.02329 8.15387 4.91166L5.9856 3.68376C5.79371 3.57213 5.54428 3.57213 5.3332 3.68376L3.12656 4.91166C2.91548 5.02329 2.80035 5.22794 2.80035 5.45119V7.92562C2.80035 8.14887 2.91548 8.35352 3.12656 8.46515L5.3332 9.69305C5.52509 9.80469 5.77453 9.80469 5.9856 9.69305L7.48228 8.85585L8.49924 8.2791L9.99593 7.4419C10.1878 7.33027 10.4373 7.33027 10.6483 7.4419L11.8188 8.09305C12.0107 8.20469 12.145 8.40933 12.145 8.6326V9.95352C12.145 10.1768 12.0299 10.3814 11.8188 10.4931L10.6483 11.1628C10.4564 11.2745 10.207 11.2745 9.99593 11.1628L8.82545 10.5117C8.63357 10.4 8.49924 10.1954 8.49924 9.97213V9.11632L7.48228 9.69305V10.5489C7.48228 10.7721 7.5974 10.9768 7.80848 11.0884L10.0151 12.3163C10.207 12.4279 10.4564 12.4279 10.6675 12.3163L12.8742 11.0884C13.066 10.9768 13.2004 10.7721 13.2004 10.5489V8.07446C13.2004 7.85119 13.0852 7.64655 12.8742 7.53491L10.6483 6.28841Z" fill="white"/>
</svg>
