<svg width="23" height="20" viewBox="0 0 23 20" fill="none" xmlns="http://www.w3.org/2000/svg">
<path opacity="0.69" d="M17.2555 6.11276C16.8522 5.87537 16.3336 5.87537 15.8727 6.11276L12.6462 8.07122L10.4568 9.31751L7.28793 11.276C6.88462 11.5134 6.36608 11.5134 5.90515 11.276L3.42767 9.73294C3.02436 9.49555 2.73628 9.02077 2.73628 8.48665V5.51929C2.73628 5.04451 2.96674 4.56973 3.42767 4.273L5.90515 2.78932C6.30846 2.55193 6.827 2.55193 7.28793 2.78932L9.76541 4.33234C10.1687 4.56973 10.4568 5.04451 10.4568 5.57864V7.53709L12.6462 6.23145V4.21365C12.6462 3.73887 12.4157 3.2641 11.9548 2.96736L7.34554 0.178042C6.94223 -0.0593472 6.42369 -0.0593472 5.96276 0.178042L1.23827 3.02671C0.777338 3.2641 0.546875 3.73887 0.546875 4.21365V9.79228C0.546875 10.2671 0.777338 10.7418 1.23827 11.0386L5.90515 13.8279C6.30846 14.0653 6.827 14.0653 7.28793 13.8279L10.4568 11.9288L12.6462 10.6231L15.8151 8.72404C16.2184 8.48665 16.7369 8.48665 17.1979 8.72404L19.6753 10.2077C20.0786 10.4451 20.3667 10.9199 20.3667 11.454V14.4214C20.3667 14.8961 20.1363 15.3709 19.6753 15.6677L17.2555 17.1513C16.8522 17.3887 16.3336 17.3887 15.8727 17.1513L13.3952 15.6677C12.9919 15.4303 12.7038 14.9555 12.7038 14.4214V12.5223L10.5144 13.8279V15.7864C10.5144 16.2611 10.7449 16.7359 11.2058 17.0326L15.8727 19.822C16.276 20.0593 16.7945 20.0593 17.2555 19.822L21.9224 17.0326C22.3257 16.7953 22.6137 16.3205 22.6137 15.7864V10.1484C22.6137 9.67359 22.3833 9.19881 21.9224 8.90208L17.2555 6.11276Z" fill="#F5F5FD"/>
</svg>
