<svg width="38" height="38" viewBox="0 0 38 38" fill="none" xmlns="http://www.w3.org/2000/svg">
<path d="M19 38C29.5292 38 38 29.5292 38 19C38 8.47077 29.5292 0 19 0C8.47077 0 0 8.47077 0 19C0 29.5292 8.47077 38 19 38Z" fill="#2775CA"/>
<path d="M24 22.2987C24 19.5394 22.4328 18.5934 19.2985 18.1993C17.0597 17.8839 16.6119 17.2532 16.6119 16.1494C16.6119 15.0455 17.3582 14.3361 18.8507 14.3361C20.194 14.3361 20.9403 14.8092 21.3134 15.9917C21.3881 16.2283 21.612 16.3859 21.8359 16.3859H23.0298C23.3284 16.3859 23.5522 16.1494 23.5522 15.8341V15.7552C23.2537 14.0207 21.9104 12.6806 20.194 12.5229V10.6308C20.194 10.3154 19.9701 10.0789 19.597 10H18.4776C18.1791 10 17.9552 10.2365 17.8805 10.6308V12.444C15.6417 12.7595 14.2239 14.3361 14.2239 16.3072C14.2239 18.9088 15.7164 19.9336 18.8507 20.3279C20.9403 20.722 21.612 21.195 21.612 22.4565C21.612 23.718 20.5671 24.5851 19.1493 24.5851C17.2089 24.5851 16.5372 23.7178 16.3133 22.5352C16.2388 22.22 16.0149 22.0622 15.7911 22.0622H14.5223C14.2239 22.0622 14 22.2987 14 22.6141V22.693C14.2984 24.6639 15.4925 26.0829 17.9552 26.4773V28.3694C17.9552 28.6846 18.1791 28.9211 18.5521 29H19.6716C19.9701 29 20.194 28.7635 20.2687 28.3694V26.4773C22.5075 26.0829 24 24.4273 24 22.2987Z" fill="white"/>
<path d="M15.0441 30.4248C8.99381 28.24 5.89105 21.4509 8.14063 15.4421C9.30414 12.1646 11.8639 9.66758 15.0441 8.49706C15.3544 8.34105 15.5095 8.10695 15.5095 7.71665V6.62422C15.5095 6.31202 15.3544 6.07791 15.0441 6C14.9664 6 14.8114 6 14.7337 6.07791C7.36489 8.41896 3.33133 16.3006 5.65835 23.7139C7.05456 28.0838 10.39 31.4394 14.7337 32.844C15.0441 33 15.3544 32.844 15.4318 32.5318C15.5095 32.4539 15.5095 32.3758 15.5095 32.2198V31.1272C15.5095 30.8931 15.2768 30.581 15.0441 30.4248ZM23.2663 6.07791C22.9559 5.9219 22.6456 6.07791 22.5682 6.39011C22.4905 6.46821 22.4905 6.54612 22.4905 6.70232V7.79474C22.4905 8.10695 22.7232 8.41896 22.9559 8.57516C29.0062 10.76 32.1089 17.5491 29.8594 23.5579C28.6959 26.8354 26.1361 29.3324 22.9559 30.5029C22.6456 30.6589 22.4905 30.8931 22.4905 31.2834V32.3758C22.4905 32.688 22.6456 32.9221 22.9559 33C23.0336 33 23.1886 33 23.2663 32.9221C30.6351 30.581 34.6687 22.6994 32.3417 15.2861C30.9454 10.8381 27.5323 7.48254 23.2663 6.07791Z" fill="white"/>
</svg>
