<svg width="38" height="38" viewBox="0 0 38 38" fill="none" xmlns="http://www.w3.org/2000/svg">
<path d="M18.9798 37.9595C29.462 37.9595 37.9595 29.462 37.9595 18.9798C37.9595 8.49753 29.462 0 18.9798 0C8.49753 0 0 8.49753 0 18.9798C0 29.462 8.49753 37.9595 18.9798 37.9595Z" fill="#26A69A"/>
<path d="M27.5203 8.54095H10.4385V13.2859H27.5203V8.54095Z" fill="white"/>
<path d="M18.9797 16.1328C14.75 16.1328 7.5918 16.8322 7.5918 19.4543C7.5918 22.0763 14.75 22.7757 18.9797 22.7757C23.2093 22.7757 30.3675 22.0763 30.3675 19.4543C30.3675 16.8322 23.2093 16.1328 18.9797 16.1328ZM18.9797 20.8778C13.7384 20.8778 9.48977 20.0284 9.48977 18.9798C9.48977 17.9311 13.7384 17.0818 18.9797 17.0818C24.2209 17.0818 28.4695 17.9311 28.4695 18.9798C28.4695 20.0284 24.2209 20.8778 18.9797 20.8778Z" fill="white"/>
<path d="M18.9793 18.9798C20.0184 18.9798 20.9655 18.9447 21.8263 18.8868V8.54095H16.1323V18.8868C16.9931 18.9447 17.9401 18.9798 18.9793 18.9798Z" fill="white"/>
<path d="M20.6144 20.8475C20.5091 20.8513 20.4028 20.8541 20.2955 20.857C19.8637 20.8693 19.4272 20.8778 18.9793 20.8778C18.5314 20.8778 18.0948 20.8693 17.663 20.8579C17.5558 20.8551 17.4495 20.8522 17.3442 20.8484C16.9314 20.8342 16.5252 20.8161 16.1323 20.7915V30.3677H21.8263V20.7905C21.4334 20.8152 21.0272 20.8332 20.6144 20.8475Z" fill="white"/>
</svg>
